%TF.GenerationSoftware,KiCad,Pcbnew,5.1.10-88a1d61d58~88~ubuntu20.04.1*%
%TF.CreationDate,2021-08-03T13:57:49-04:00*%
%TF.ProjectId,ta-base,74612d62-6173-4652-9e6b-696361645f70,rev?*%
%TF.SameCoordinates,Original*%
%TF.FileFunction,Legend,Bot*%
%TF.FilePolarity,Positive*%
%FSLAX46Y46*%
G04 Gerber Fmt 4.6, Leading zero omitted, Abs format (unit mm)*
G04 Created by KiCad (PCBNEW 5.1.10-88a1d61d58~88~ubuntu20.04.1) date 2021-08-03 13:57:49*
%MOMM*%
%LPD*%
G01*
G04 APERTURE LIST*
%ADD10C,0.150000*%
%ADD11C,0.120000*%
%ADD12C,3.600000*%
G04 APERTURE END LIST*
D10*
X154913191Y-125892447D02*
X155913191Y-126225780D01*
X154913191Y-126559113D01*
X155865572Y-126844828D02*
X155913191Y-126940066D01*
X155913191Y-127130542D01*
X155865572Y-127225780D01*
X155770334Y-127273399D01*
X155722715Y-127273399D01*
X155627477Y-127225780D01*
X155579858Y-127130542D01*
X155579858Y-126987685D01*
X155532239Y-126892447D01*
X155437001Y-126844828D01*
X155389382Y-126844828D01*
X155294144Y-126892447D01*
X155246525Y-126987685D01*
X155246525Y-127130542D01*
X155294144Y-127225780D01*
X155913191Y-127844828D02*
X155865572Y-127749590D01*
X155817953Y-127701971D01*
X155722715Y-127654352D01*
X155437001Y-127654352D01*
X155341763Y-127701971D01*
X155294144Y-127749590D01*
X155246525Y-127844828D01*
X155246525Y-127987685D01*
X155294144Y-128082923D01*
X155341763Y-128130542D01*
X155437001Y-128178161D01*
X155722715Y-128178161D01*
X155817953Y-128130542D01*
X155865572Y-128082923D01*
X155913191Y-127987685D01*
X155913191Y-127844828D01*
X155913191Y-128749590D02*
X155865572Y-128654352D01*
X155770334Y-128606733D01*
X154913191Y-128606733D01*
X155913191Y-129559113D02*
X155389382Y-129559113D01*
X155294144Y-129511494D01*
X155246525Y-129416256D01*
X155246525Y-129225780D01*
X155294144Y-129130542D01*
X155865572Y-129559113D02*
X155913191Y-129463875D01*
X155913191Y-129225780D01*
X155865572Y-129130542D01*
X155770334Y-129082923D01*
X155675096Y-129082923D01*
X155579858Y-129130542D01*
X155532239Y-129225780D01*
X155532239Y-129463875D01*
X155484620Y-129559113D01*
X155913191Y-130035304D02*
X155246525Y-130035304D01*
X155437001Y-130035304D02*
X155341763Y-130082923D01*
X155294144Y-130130542D01*
X155246525Y-130225780D01*
X155246525Y-130321018D01*
D11*
%TO.C,J3*%
X157910811Y-124986693D02*
X157910811Y-123306743D01*
X162910811Y-124576774D02*
X162910811Y-131636692D01*
X157910811Y-123306743D02*
X159990765Y-123306743D01*
X157910811Y-132906724D02*
X157910811Y-131226773D01*
X159990765Y-132906724D02*
X157910811Y-132906724D01*
X156575811Y-123278743D02*
X157210811Y-124802743D01*
X157845811Y-123278743D02*
X156575811Y-123278743D01*
X157210811Y-124802743D02*
X157845811Y-123278743D01*
D12*
%TO.C,P1*%
X104709000Y-152600100D02*
X104709000Y-105600100D01*
X151709000Y-105600100D02*
X151709000Y-152600100D01*
X151709000Y-152600100D02*
X104709000Y-152600100D01*
X104709000Y-105600100D02*
X151709000Y-105600100D01*
D11*
%TO.C,U1*%
X119278811Y-128281733D02*
G75*
G03*
X119278811Y-128281733I-381000J0D01*
G01*
%TO.C,J3*%
D10*
X157913191Y-125606733D02*
X158151287Y-125606733D01*
X158056049Y-125368637D02*
X158151287Y-125606733D01*
X158056049Y-125844828D01*
X158341763Y-125463875D02*
X158151287Y-125606733D01*
X158341763Y-125749590D01*
%TD*%
M02*
