%TF.GenerationSoftware,KiCad,Pcbnew,5.1.10-88a1d61d58~88~ubuntu20.04.1*%
%TF.CreationDate,2021-08-03T13:57:49-04:00*%
%TF.ProjectId,ta-base,74612d62-6173-4652-9e6b-696361645f70,rev?*%
%TF.SameCoordinates,Original*%
%TF.FileFunction,Soldermask,Top*%
%TF.FilePolarity,Negative*%
%FSLAX46Y46*%
G04 Gerber Fmt 4.6, Leading zero omitted, Abs format (unit mm)*
G04 Created by KiCad (PCBNEW 5.1.10-88a1d61d58~88~ubuntu20.04.1) date 2021-08-03 13:57:49*
%MOMM*%
%LPD*%
G01*
G04 APERTURE LIST*
%ADD10C,1.565400*%
%ADD11C,6.425400*%
%ADD12C,1.765400*%
%ADD13C,2.565400*%
%ADD14C,0.787400*%
G04 APERTURE END LIST*
D10*
%TO.C,J8*%
X119314000Y-112505100D03*
X111694000Y-109965100D03*
X116774000Y-109965100D03*
X119314000Y-109965100D03*
X114234000Y-109965100D03*
%TD*%
%TO.C,J7*%
G36*
G01*
X114110817Y-121469432D02*
X111410817Y-121469432D01*
G75*
G02*
X111398117Y-121456732I0J12700D01*
G01*
X111398117Y-120456732D01*
G75*
G02*
X111410817Y-120444032I12700J0D01*
G01*
X114110817Y-120444032D01*
G75*
G02*
X114123517Y-120456732I0J-12700D01*
G01*
X114123517Y-121456732D01*
G75*
G02*
X114110817Y-121469432I-12700J0D01*
G01*
G37*
G36*
G01*
X114110817Y-112769434D02*
X111410817Y-112769434D01*
G75*
G02*
X111398117Y-112756734I0J12700D01*
G01*
X111398117Y-111756734D01*
G75*
G02*
X111410817Y-111744034I12700J0D01*
G01*
X114110817Y-111744034D01*
G75*
G02*
X114123517Y-111756734I0J-12700D01*
G01*
X114123517Y-112756734D01*
G75*
G02*
X114110817Y-112769434I-12700J0D01*
G01*
G37*
G36*
G01*
X116810811Y-119419433D02*
X115110811Y-119419433D01*
G75*
G02*
X115098111Y-119406733I0J12700D01*
G01*
X115098111Y-118806733D01*
G75*
G02*
X115110811Y-118794033I12700J0D01*
G01*
X116810811Y-118794033D01*
G75*
G02*
X116823511Y-118806733I0J-12700D01*
G01*
X116823511Y-119406733D01*
G75*
G02*
X116810811Y-119419433I-12700J0D01*
G01*
G37*
G36*
G01*
X116810811Y-118169433D02*
X115110811Y-118169433D01*
G75*
G02*
X115098111Y-118156733I0J12700D01*
G01*
X115098111Y-117556733D01*
G75*
G02*
X115110811Y-117544033I12700J0D01*
G01*
X116810811Y-117544033D01*
G75*
G02*
X116823511Y-117556733I0J-12700D01*
G01*
X116823511Y-118156733D01*
G75*
G02*
X116810811Y-118169433I-12700J0D01*
G01*
G37*
G36*
G01*
X116810811Y-116919433D02*
X115110811Y-116919433D01*
G75*
G02*
X115098111Y-116906733I0J12700D01*
G01*
X115098111Y-116306733D01*
G75*
G02*
X115110811Y-116294033I12700J0D01*
G01*
X116810811Y-116294033D01*
G75*
G02*
X116823511Y-116306733I0J-12700D01*
G01*
X116823511Y-116906733D01*
G75*
G02*
X116810811Y-116919433I-12700J0D01*
G01*
G37*
G36*
G01*
X116810811Y-115669433D02*
X115110811Y-115669433D01*
G75*
G02*
X115098111Y-115656733I0J12700D01*
G01*
X115098111Y-115056733D01*
G75*
G02*
X115110811Y-115044033I12700J0D01*
G01*
X116810811Y-115044033D01*
G75*
G02*
X116823511Y-115056733I0J-12700D01*
G01*
X116823511Y-115656733D01*
G75*
G02*
X116810811Y-115669433I-12700J0D01*
G01*
G37*
G36*
G01*
X116810811Y-114419433D02*
X115110811Y-114419433D01*
G75*
G02*
X115098111Y-114406733I0J12700D01*
G01*
X115098111Y-113806733D01*
G75*
G02*
X115110811Y-113794033I12700J0D01*
G01*
X116810811Y-113794033D01*
G75*
G02*
X116823511Y-113806733I0J-12700D01*
G01*
X116823511Y-114406733D01*
G75*
G02*
X116810811Y-114419433I-12700J0D01*
G01*
G37*
%TD*%
D11*
%TO.C,REF\u002A\u002A*%
X127960811Y-116106733D03*
%TD*%
D10*
%TO.C,J5*%
X137094000Y-112505100D03*
X144714000Y-109965100D03*
X139634000Y-109965100D03*
X137094000Y-109965100D03*
X142174000Y-109965100D03*
%TD*%
D11*
%TO.C,REF\u002A\u002A*%
X140960811Y-116106733D03*
%TD*%
D12*
%TO.C,SW2*%
X150060811Y-117906733D03*
X154560811Y-117906733D03*
X159660811Y-117906733D03*
D13*
X157810811Y-113806733D03*
%TD*%
%TO.C,P1*%
X151699000Y-152600100D03*
X151699000Y-105610100D03*
X104709000Y-105610100D03*
X104709000Y-152600100D03*
%TD*%
%TO.C,R1*%
G36*
G01*
X159123511Y-135144133D02*
X159123511Y-135669333D01*
G75*
G02*
X158898411Y-135894433I-225100J0D01*
G01*
X158448211Y-135894433D01*
G75*
G02*
X158223111Y-135669333I0J225100D01*
G01*
X158223111Y-135144133D01*
G75*
G02*
X158448211Y-134919033I225100J0D01*
G01*
X158898411Y-134919033D01*
G75*
G02*
X159123511Y-135144133I0J-225100D01*
G01*
G37*
G36*
G01*
X160698511Y-135144133D02*
X160698511Y-135669333D01*
G75*
G02*
X160473411Y-135894433I-225100J0D01*
G01*
X160023211Y-135894433D01*
G75*
G02*
X159798111Y-135669333I0J225100D01*
G01*
X159798111Y-135144133D01*
G75*
G02*
X160023211Y-134919033I225100J0D01*
G01*
X160473411Y-134919033D01*
G75*
G02*
X160698511Y-135144133I0J-225100D01*
G01*
G37*
%TD*%
%TO.C,R2*%
G36*
G01*
X158823511Y-121244133D02*
X158823511Y-121769333D01*
G75*
G02*
X158598411Y-121994433I-225100J0D01*
G01*
X158148211Y-121994433D01*
G75*
G02*
X157923111Y-121769333I0J225100D01*
G01*
X157923111Y-121244133D01*
G75*
G02*
X158148211Y-121019033I225100J0D01*
G01*
X158598411Y-121019033D01*
G75*
G02*
X158823511Y-121244133I0J-225100D01*
G01*
G37*
G36*
G01*
X160398511Y-121244133D02*
X160398511Y-121769333D01*
G75*
G02*
X160173411Y-121994433I-225100J0D01*
G01*
X159723211Y-121994433D01*
G75*
G02*
X159498111Y-121769333I0J225100D01*
G01*
X159498111Y-121244133D01*
G75*
G02*
X159723211Y-121019033I225100J0D01*
G01*
X160173411Y-121019033D01*
G75*
G02*
X160398511Y-121244133I0J-225100D01*
G01*
G37*
%TD*%
%TO.C,R3*%
G36*
G01*
X115698211Y-132444033D02*
X116223411Y-132444033D01*
G75*
G02*
X116448511Y-132669133I0J-225100D01*
G01*
X116448511Y-133119333D01*
G75*
G02*
X116223411Y-133344433I-225100J0D01*
G01*
X115698211Y-133344433D01*
G75*
G02*
X115473111Y-133119333I0J225100D01*
G01*
X115473111Y-132669133D01*
G75*
G02*
X115698211Y-132444033I225100J0D01*
G01*
G37*
G36*
G01*
X115698211Y-130869033D02*
X116223411Y-130869033D01*
G75*
G02*
X116448511Y-131094133I0J-225100D01*
G01*
X116448511Y-131544333D01*
G75*
G02*
X116223411Y-131769433I-225100J0D01*
G01*
X115698211Y-131769433D01*
G75*
G02*
X115473111Y-131544333I0J225100D01*
G01*
X115473111Y-131094133D01*
G75*
G02*
X115698211Y-130869033I225100J0D01*
G01*
G37*
%TD*%
%TO.C,SW1*%
X157810811Y-144206733D03*
D12*
X159660811Y-140106733D03*
X154560811Y-140106733D03*
X150060811Y-140106733D03*
%TD*%
%TO.C,U1*%
G36*
G01*
X116719511Y-126725733D02*
X116719511Y-127487733D01*
G75*
G02*
X116706811Y-127500433I-12700J0D01*
G01*
X115944811Y-127500433D01*
G75*
G02*
X115932111Y-127487733I0J12700D01*
G01*
X115932111Y-126725733D01*
G75*
G02*
X115944811Y-126713033I12700J0D01*
G01*
X116706811Y-126713033D01*
G75*
G02*
X116719511Y-126725733I0J-12700D01*
G01*
G37*
G36*
G01*
X113851911Y-126052232D02*
X115299711Y-126052232D01*
G75*
G02*
X115312411Y-126064932I0J-12700D01*
G01*
X115312411Y-126928532D01*
G75*
G02*
X115299711Y-126941232I-12700J0D01*
G01*
X113851911Y-126941232D01*
G75*
G02*
X113839211Y-126928532I0J12700D01*
G01*
X113839211Y-126064932D01*
G75*
G02*
X113851911Y-126052232I12700J0D01*
G01*
G37*
G36*
G01*
X113851911Y-127272234D02*
X115299711Y-127272234D01*
G75*
G02*
X115312411Y-127284934I0J-12700D01*
G01*
X115312411Y-128148534D01*
G75*
G02*
X115299711Y-128161234I-12700J0D01*
G01*
X113851911Y-128161234D01*
G75*
G02*
X113839211Y-128148534I0J12700D01*
G01*
X113839211Y-127284934D01*
G75*
G02*
X113851911Y-127272234I12700J0D01*
G01*
G37*
G36*
G01*
X112218010Y-125004634D02*
X112218010Y-126858834D01*
G75*
G02*
X112205310Y-126871534I-12700J0D01*
G01*
X111316310Y-126871534D01*
G75*
G02*
X111303610Y-126858834I0J12700D01*
G01*
X111303610Y-125004634D01*
G75*
G02*
X111316310Y-124991934I12700J0D01*
G01*
X112205310Y-124991934D01*
G75*
G02*
X112218010Y-125004634I0J-12700D01*
G01*
G37*
G36*
G01*
X112218010Y-127354632D02*
X112218010Y-129208832D01*
G75*
G02*
X112205310Y-129221532I-12700J0D01*
G01*
X111316310Y-129221532D01*
G75*
G02*
X111303610Y-129208832I0J12700D01*
G01*
X111303610Y-127354632D01*
G75*
G02*
X111316310Y-127341932I12700J0D01*
G01*
X112205310Y-127341932D01*
G75*
G02*
X112218010Y-127354632I0J-12700D01*
G01*
G37*
G36*
G01*
X118618012Y-125004634D02*
X118618012Y-126858834D01*
G75*
G02*
X118605312Y-126871534I-12700J0D01*
G01*
X117716312Y-126871534D01*
G75*
G02*
X117703612Y-126858834I0J12700D01*
G01*
X117703612Y-125004634D01*
G75*
G02*
X117716312Y-124991934I12700J0D01*
G01*
X118605312Y-124991934D01*
G75*
G02*
X118618012Y-125004634I0J-12700D01*
G01*
G37*
G36*
G01*
X118618012Y-127354632D02*
X118618012Y-129208832D01*
G75*
G02*
X118605312Y-129221532I-12700J0D01*
G01*
X117716312Y-129221532D01*
G75*
G02*
X117703612Y-129208832I0J12700D01*
G01*
X117703612Y-127354632D01*
G75*
G02*
X117716312Y-127341932I12700J0D01*
G01*
X118605312Y-127341932D01*
G75*
G02*
X118618012Y-127354632I0J-12700D01*
G01*
G37*
%TD*%
D14*
%TO.C,U2*%
X112710811Y-132756733D03*
X112710811Y-134256733D03*
X112710811Y-135756733D03*
X112710811Y-144756733D03*
X112710811Y-143256733D03*
X112710811Y-141756733D03*
%TD*%
D10*
%TO.C,J1*%
X109154000Y-148065100D03*
X109154000Y-145525100D03*
X109154000Y-142985100D03*
X109154000Y-140445100D03*
X109154000Y-137905100D03*
X109154000Y-135365100D03*
X109154000Y-132825100D03*
X109154000Y-130285100D03*
X109154000Y-127745100D03*
X109154000Y-125205100D03*
X109154000Y-122665100D03*
X109154000Y-120125100D03*
X109154000Y-117585100D03*
X109154000Y-115045100D03*
X109154000Y-112505100D03*
X109154000Y-109965100D03*
%TD*%
%TO.C,J2*%
X144714000Y-148065100D03*
X142174000Y-148065100D03*
X139634000Y-148065100D03*
X137094000Y-148065100D03*
%TD*%
%TO.C,J4*%
X119314000Y-148065100D03*
X116774000Y-148065100D03*
X114234000Y-148065100D03*
X111694000Y-148065100D03*
%TD*%
%TO.C,J6*%
X147254000Y-148065100D03*
X147254000Y-145525100D03*
X147254000Y-142985100D03*
X147254000Y-140445100D03*
X147254000Y-137905100D03*
X147254000Y-135365100D03*
X147254000Y-132825100D03*
X147254000Y-130285100D03*
X147254000Y-127745100D03*
X147254000Y-125205100D03*
X147254000Y-122665100D03*
X147254000Y-120125100D03*
X147254000Y-117585100D03*
X147254000Y-115045100D03*
X147254000Y-112505100D03*
X147254000Y-109965100D03*
%TD*%
D13*
%TO.C,P2*%
X123124000Y-147975100D03*
X123124000Y-110055100D03*
X133284000Y-147975100D03*
X133284000Y-110055100D03*
%TD*%
M02*
