%TF.GenerationSoftware,KiCad,Pcbnew,5.1.10-88a1d61d58~88~ubuntu20.04.1*%
%TF.CreationDate,2021-08-03T13:57:49-04:00*%
%TF.ProjectId,ta-base,74612d62-6173-4652-9e6b-696361645f70,rev?*%
%TF.SameCoordinates,Original*%
%TF.FileFunction,Copper,L2,Bot*%
%TF.FilePolarity,Positive*%
%FSLAX46Y46*%
G04 Gerber Fmt 4.6, Leading zero omitted, Abs format (unit mm)*
G04 Created by KiCad (PCBNEW 5.1.10-88a1d61d58~88~ubuntu20.04.1) date 2021-08-03 13:57:49*
%MOMM*%
%LPD*%
G01*
G04 APERTURE LIST*
%TA.AperFunction,ComponentPad*%
%ADD10C,1.540000*%
%TD*%
%TA.AperFunction,SMDPad,CuDef*%
%ADD11R,2.700000X1.000000*%
%TD*%
%TA.AperFunction,SMDPad,CuDef*%
%ADD12R,1.700000X0.600000*%
%TD*%
%TA.AperFunction,ComponentPad*%
%ADD13C,1.740000*%
%TD*%
%TA.AperFunction,ComponentPad*%
%ADD14C,2.540000*%
%TD*%
%TA.AperFunction,ComponentPad*%
%ADD15C,0.762000*%
%TD*%
%TA.AperFunction,ViaPad*%
%ADD16C,0.635000*%
%TD*%
%TA.AperFunction,Conductor*%
%ADD17C,0.635000*%
%TD*%
%TA.AperFunction,Conductor*%
%ADD18C,0.254000*%
%TD*%
%TA.AperFunction,Conductor*%
%ADD19C,0.100000*%
%TD*%
G04 APERTURE END LIST*
D10*
%TO.P,J8,1*%
%TO.N,/V_solar*%
X119314000Y-112505100D03*
%TO.P,J8,5*%
X111694000Y-109965100D03*
%TO.P,J8,3*%
X116774000Y-109965100D03*
%TO.P,J8,2*%
X119314000Y-109965100D03*
%TO.P,J8,4*%
X114234000Y-109965100D03*
%TD*%
D11*
%TO.P,J3,7*%
%TO.N,N/C*%
X161660805Y-132456732D03*
%TO.P,J3,6*%
X161660805Y-123756734D03*
D12*
%TO.P,J3,5*%
%TO.N,/V_solar*%
X158460811Y-130606733D03*
%TO.P,J3,4*%
X158460811Y-129356733D03*
%TO.P,J3,3*%
X158460811Y-128106733D03*
%TO.P,J3,2*%
X158460811Y-126856733D03*
%TO.P,J3,1*%
X158460811Y-125606733D03*
%TD*%
D10*
%TO.P,J5,1*%
%TO.N,Net-(J5-Pad1)*%
X137094000Y-112505100D03*
%TO.P,J5,5*%
%TO.N,Net-(J5-Pad5)*%
X144714000Y-109965100D03*
%TO.P,J5,3*%
%TO.N,GND*%
X139634000Y-109965100D03*
%TO.P,J5,2*%
%TO.N,Net-(J5-Pad2)*%
X137094000Y-109965100D03*
%TO.P,J5,4*%
%TO.N,Net-(J5-Pad4)*%
X142174000Y-109965100D03*
%TD*%
D13*
%TO.P,SW2,2*%
%TO.N,/Vcap*%
X150060811Y-117906733D03*
%TO.P,SW2,3*%
%TO.N,Net-(R2-Pad2)*%
X154560811Y-117906733D03*
%TO.P,SW2,1*%
%TO.N,Net-(SW2-Pad1)*%
X159660811Y-117906733D03*
D14*
%TO.P,SW2,5*%
%TO.N,N/C*%
X157810811Y-113806733D03*
%TD*%
%TO.P,P1,4*%
%TO.N,GND*%
X151699000Y-152600100D03*
%TO.P,P1,3*%
X151699000Y-105610100D03*
%TO.P,P1,2*%
X104709000Y-105610100D03*
%TO.P,P1,1*%
X104709000Y-152600100D03*
%TD*%
%TO.P,SW1,5*%
%TO.N,N/C*%
X157810811Y-144206733D03*
D13*
%TO.P,SW1,1*%
%TO.N,Net-(SW1-Pad1)*%
X159660811Y-140106733D03*
%TO.P,SW1,3*%
%TO.N,Net-(R1-Pad2)*%
X154560811Y-140106733D03*
%TO.P,SW1,2*%
%TO.N,/Vcap*%
X150060811Y-140106733D03*
%TD*%
D15*
%TO.P,U2,6*%
%TO.N,Net-(U1-Pad4)*%
X112710811Y-132756733D03*
%TO.P,U2,5*%
X112710811Y-134256733D03*
%TO.P,U2,4*%
X112710811Y-135756733D03*
%TO.P,U2,3*%
%TO.N,/Vcap*%
X112710811Y-144756733D03*
%TO.P,U2,2*%
X112710811Y-143256733D03*
%TO.P,U2,1*%
X112710811Y-141756733D03*
%TD*%
D10*
%TO.P,J1,1*%
%TO.N,/Vcap*%
X109154000Y-148065100D03*
%TO.P,J1,2*%
%TO.N,/BURN_SIG*%
X109154000Y-145525100D03*
%TO.P,J1,3*%
%TO.N,GND*%
X109154000Y-142985100D03*
%TO.P,J1,4*%
%TO.N,Net-(J1-Pad4)*%
X109154000Y-140445100D03*
%TO.P,J1,5*%
%TO.N,Net-(J1-Pad5)*%
X109154000Y-137905100D03*
%TO.P,J1,6*%
%TO.N,Net-(J1-Pad6)*%
X109154000Y-135365100D03*
%TO.P,J1,7*%
%TO.N,Net-(J1-Pad7)*%
X109154000Y-132825100D03*
%TO.P,J1,8*%
%TO.N,Net-(J1-Pad8)*%
X109154000Y-130285100D03*
%TO.P,J1,9*%
%TO.N,Net-(J1-Pad9)*%
X109154000Y-127745100D03*
%TO.P,J1,10*%
%TO.N,Net-(J1-Pad10)*%
X109154000Y-125205100D03*
%TO.P,J1,11*%
%TO.N,Net-(J1-Pad11)*%
X109154000Y-122665100D03*
%TO.P,J1,12*%
%TO.N,Net-(J1-Pad12)*%
X109154000Y-120125100D03*
%TO.P,J1,13*%
%TO.N,Net-(J1-Pad13)*%
X109154000Y-117585100D03*
%TO.P,J1,14*%
%TO.N,Net-(J1-Pad14)*%
X109154000Y-115045100D03*
%TO.P,J1,15*%
%TO.N,Net-(J1-Pad15)*%
X109154000Y-112505100D03*
%TO.P,J1,16*%
%TO.N,Net-(J1-Pad16)*%
X109154000Y-109965100D03*
%TD*%
%TO.P,J2,1*%
%TO.N,Net-(J2-Pad1)*%
X144714000Y-148065100D03*
%TO.P,J2,2*%
%TO.N,GND*%
X142174000Y-148065100D03*
%TO.P,J2,3*%
%TO.N,Net-(J2-Pad3)*%
X139634000Y-148065100D03*
%TO.P,J2,4*%
%TO.N,Net-(J2-Pad4)*%
X137094000Y-148065100D03*
%TD*%
%TO.P,J4,1*%
%TO.N,Net-(J4-Pad1)*%
X119314000Y-148065100D03*
%TO.P,J4,2*%
%TO.N,Net-(J4-Pad2)*%
X116774000Y-148065100D03*
%TO.P,J4,3*%
%TO.N,GND*%
X114234000Y-148065100D03*
%TO.P,J4,4*%
%TO.N,Net-(J4-Pad4)*%
X111694000Y-148065100D03*
%TD*%
%TO.P,J6,1*%
%TO.N,Net-(J6-Pad1)*%
X147254000Y-148065100D03*
%TO.P,J6,2*%
%TO.N,Net-(J6-Pad2)*%
X147254000Y-145525100D03*
%TO.P,J6,3*%
%TO.N,Net-(J6-Pad3)*%
X147254000Y-142985100D03*
%TO.P,J6,4*%
%TO.N,Net-(J6-Pad4)*%
X147254000Y-140445100D03*
%TO.P,J6,5*%
%TO.N,Net-(J6-Pad5)*%
X147254000Y-137905100D03*
%TO.P,J6,6*%
%TO.N,Net-(J6-Pad6)*%
X147254000Y-135365100D03*
%TO.P,J6,7*%
%TO.N,Net-(J6-Pad7)*%
X147254000Y-132825100D03*
%TO.P,J6,8*%
%TO.N,Net-(J6-Pad8)*%
X147254000Y-130285100D03*
%TO.P,J6,9*%
%TO.N,Net-(J6-Pad9)*%
X147254000Y-127745100D03*
%TO.P,J6,10*%
%TO.N,Net-(J6-Pad10)*%
X147254000Y-125205100D03*
%TO.P,J6,11*%
%TO.N,Net-(J6-Pad11)*%
X147254000Y-122665100D03*
%TO.P,J6,12*%
%TO.N,Net-(J6-Pad12)*%
X147254000Y-120125100D03*
%TO.P,J6,13*%
%TO.N,Net-(J6-Pad13)*%
X147254000Y-117585100D03*
%TO.P,J6,14*%
%TO.N,Net-(J6-Pad14)*%
X147254000Y-115045100D03*
%TO.P,J6,15*%
%TO.N,Net-(J6-Pad15)*%
X147254000Y-112505100D03*
%TO.P,J6,16*%
%TO.N,Net-(J6-Pad16)*%
X147254000Y-109965100D03*
%TD*%
D14*
%TO.P,P2,4*%
%TO.N,GND*%
X123124000Y-147975100D03*
%TO.P,P2,3*%
X123124000Y-110055100D03*
%TO.P,P2,2*%
X133284000Y-147975100D03*
%TO.P,P2,1*%
X133284000Y-110055100D03*
%TD*%
D16*
%TO.N,GND*%
X113960811Y-129106733D03*
X115960811Y-135356733D03*
X161960811Y-121356733D03*
X160248311Y-137069233D03*
%TO.N,/V_solar*%
X156460811Y-130606733D03*
X155460811Y-130606733D03*
X154460811Y-130606733D03*
%TD*%
D17*
%TO.N,/V_solar*%
X156460811Y-130606733D02*
X158460811Y-130606733D01*
X156460811Y-130606733D02*
X154460811Y-130606733D01*
X158460811Y-130606733D02*
X158460811Y-125606733D01*
%TD*%
D18*
%TO.N,GND*%
X162833811Y-122618662D02*
X160310805Y-122618662D01*
X160186323Y-122630922D01*
X160066625Y-122667232D01*
X159956311Y-122726197D01*
X159859620Y-122805549D01*
X159780268Y-122902240D01*
X159721303Y-123012554D01*
X159684993Y-123132252D01*
X159672733Y-123256734D01*
X159672733Y-124256734D01*
X159684993Y-124381216D01*
X159721303Y-124500914D01*
X159780268Y-124611228D01*
X159859620Y-124707919D01*
X159956311Y-124787271D01*
X160066625Y-124846236D01*
X160186323Y-124882546D01*
X160310805Y-124894806D01*
X162833811Y-124894806D01*
X162833811Y-131318660D01*
X160310805Y-131318660D01*
X160186323Y-131330920D01*
X160066625Y-131367230D01*
X159956311Y-131426195D01*
X159859620Y-131505547D01*
X159780268Y-131602238D01*
X159721303Y-131712552D01*
X159684993Y-131832250D01*
X159672733Y-131956732D01*
X159672733Y-132956732D01*
X159684993Y-133081214D01*
X159721303Y-133200912D01*
X159780268Y-133311226D01*
X159859620Y-133407917D01*
X159956311Y-133487269D01*
X160066625Y-133546234D01*
X160186323Y-133582544D01*
X160310805Y-133594804D01*
X162833811Y-133594804D01*
X162833811Y-155979733D01*
X101087811Y-155979733D01*
X101087811Y-153927952D01*
X103560753Y-153927952D01*
X103689076Y-154219971D01*
X104024695Y-154387823D01*
X104386611Y-154486974D01*
X104760916Y-154513614D01*
X105133227Y-154466718D01*
X105489235Y-154348088D01*
X105728924Y-154219971D01*
X105857247Y-153927952D01*
X150550753Y-153927952D01*
X150679076Y-154219971D01*
X151014695Y-154387823D01*
X151376611Y-154486974D01*
X151750916Y-154513614D01*
X152123227Y-154466718D01*
X152479235Y-154348088D01*
X152718924Y-154219971D01*
X152847247Y-153927952D01*
X151699000Y-152779705D01*
X150550753Y-153927952D01*
X105857247Y-153927952D01*
X104709000Y-152779705D01*
X103560753Y-153927952D01*
X101087811Y-153927952D01*
X101087811Y-152652016D01*
X102795486Y-152652016D01*
X102842382Y-153024327D01*
X102961012Y-153380335D01*
X103089129Y-153620024D01*
X103381148Y-153748347D01*
X104529395Y-152600100D01*
X104888605Y-152600100D01*
X106036852Y-153748347D01*
X106328871Y-153620024D01*
X106496723Y-153284405D01*
X106595874Y-152922489D01*
X106615124Y-152652016D01*
X149785486Y-152652016D01*
X149832382Y-153024327D01*
X149951012Y-153380335D01*
X150079129Y-153620024D01*
X150371148Y-153748347D01*
X151519395Y-152600100D01*
X151878605Y-152600100D01*
X153026852Y-153748347D01*
X153318871Y-153620024D01*
X153486723Y-153284405D01*
X153585874Y-152922489D01*
X153612514Y-152548184D01*
X153565618Y-152175873D01*
X153446988Y-151819865D01*
X153318871Y-151580176D01*
X153026852Y-151451853D01*
X151878605Y-152600100D01*
X151519395Y-152600100D01*
X150371148Y-151451853D01*
X150079129Y-151580176D01*
X149911277Y-151915795D01*
X149812126Y-152277711D01*
X149785486Y-152652016D01*
X106615124Y-152652016D01*
X106622514Y-152548184D01*
X106575618Y-152175873D01*
X106456988Y-151819865D01*
X106328871Y-151580176D01*
X106036852Y-151451853D01*
X104888605Y-152600100D01*
X104529395Y-152600100D01*
X103381148Y-151451853D01*
X103089129Y-151580176D01*
X102921277Y-151915795D01*
X102822126Y-152277711D01*
X102795486Y-152652016D01*
X101087811Y-152652016D01*
X101087811Y-151272248D01*
X103560753Y-151272248D01*
X104709000Y-152420495D01*
X105857247Y-151272248D01*
X150550753Y-151272248D01*
X151699000Y-152420495D01*
X152847247Y-151272248D01*
X152718924Y-150980229D01*
X152383305Y-150812377D01*
X152021389Y-150713226D01*
X151647084Y-150686586D01*
X151274773Y-150733482D01*
X150918765Y-150852112D01*
X150679076Y-150980229D01*
X150550753Y-151272248D01*
X105857247Y-151272248D01*
X105728924Y-150980229D01*
X105393305Y-150812377D01*
X105031389Y-150713226D01*
X104657084Y-150686586D01*
X104284773Y-150733482D01*
X103928765Y-150852112D01*
X103689076Y-150980229D01*
X103560753Y-151272248D01*
X101087811Y-151272248D01*
X101087811Y-145386720D01*
X107749000Y-145386720D01*
X107749000Y-145663480D01*
X107802994Y-145934923D01*
X107908905Y-146190617D01*
X108062665Y-146420735D01*
X108258365Y-146616435D01*
X108488483Y-146770195D01*
X108548610Y-146795100D01*
X108488483Y-146820005D01*
X108258365Y-146973765D01*
X108062665Y-147169465D01*
X107908905Y-147399583D01*
X107802994Y-147655277D01*
X107749000Y-147926720D01*
X107749000Y-148203480D01*
X107802994Y-148474923D01*
X107908905Y-148730617D01*
X108062665Y-148960735D01*
X108258365Y-149156435D01*
X108488483Y-149310195D01*
X108744177Y-149416106D01*
X109015620Y-149470100D01*
X109292380Y-149470100D01*
X109563823Y-149416106D01*
X109819517Y-149310195D01*
X110049635Y-149156435D01*
X110245335Y-148960735D01*
X110399095Y-148730617D01*
X110424000Y-148670490D01*
X110448905Y-148730617D01*
X110602665Y-148960735D01*
X110798365Y-149156435D01*
X111028483Y-149310195D01*
X111284177Y-149416106D01*
X111555620Y-149470100D01*
X111832380Y-149470100D01*
X112103823Y-149416106D01*
X112359517Y-149310195D01*
X112589635Y-149156435D01*
X112709692Y-149036378D01*
X113442327Y-149036378D01*
X113510276Y-149277287D01*
X113760668Y-149395187D01*
X114029250Y-149461972D01*
X114305701Y-149475077D01*
X114579395Y-149433996D01*
X114839817Y-149340310D01*
X114957724Y-149277287D01*
X115025673Y-149036378D01*
X114234000Y-148244705D01*
X113442327Y-149036378D01*
X112709692Y-149036378D01*
X112785335Y-148960735D01*
X112939095Y-148730617D01*
X112961626Y-148676222D01*
X113021813Y-148788824D01*
X113262722Y-148856773D01*
X114054395Y-148065100D01*
X114413605Y-148065100D01*
X115205278Y-148856773D01*
X115446187Y-148788824D01*
X115503020Y-148668124D01*
X115528905Y-148730617D01*
X115682665Y-148960735D01*
X115878365Y-149156435D01*
X116108483Y-149310195D01*
X116364177Y-149416106D01*
X116635620Y-149470100D01*
X116912380Y-149470100D01*
X117183823Y-149416106D01*
X117439517Y-149310195D01*
X117669635Y-149156435D01*
X117865335Y-148960735D01*
X118019095Y-148730617D01*
X118044000Y-148670490D01*
X118068905Y-148730617D01*
X118222665Y-148960735D01*
X118418365Y-149156435D01*
X118648483Y-149310195D01*
X118904177Y-149416106D01*
X119175620Y-149470100D01*
X119452380Y-149470100D01*
X119723823Y-149416106D01*
X119979517Y-149310195D01*
X119990356Y-149302952D01*
X121975753Y-149302952D01*
X122104076Y-149594971D01*
X122439695Y-149762823D01*
X122801611Y-149861974D01*
X123175916Y-149888614D01*
X123548227Y-149841718D01*
X123904235Y-149723088D01*
X124143924Y-149594971D01*
X124272247Y-149302952D01*
X132135753Y-149302952D01*
X132264076Y-149594971D01*
X132599695Y-149762823D01*
X132961611Y-149861974D01*
X133335916Y-149888614D01*
X133708227Y-149841718D01*
X134064235Y-149723088D01*
X134303924Y-149594971D01*
X134432247Y-149302952D01*
X133284000Y-148154705D01*
X132135753Y-149302952D01*
X124272247Y-149302952D01*
X123124000Y-148154705D01*
X121975753Y-149302952D01*
X119990356Y-149302952D01*
X120209635Y-149156435D01*
X120405335Y-148960735D01*
X120559095Y-148730617D01*
X120665006Y-148474923D01*
X120719000Y-148203480D01*
X120719000Y-148027016D01*
X121210486Y-148027016D01*
X121257382Y-148399327D01*
X121376012Y-148755335D01*
X121504129Y-148995024D01*
X121796148Y-149123347D01*
X122944395Y-147975100D01*
X123303605Y-147975100D01*
X124451852Y-149123347D01*
X124743871Y-148995024D01*
X124911723Y-148659405D01*
X125010874Y-148297489D01*
X125030124Y-148027016D01*
X131370486Y-148027016D01*
X131417382Y-148399327D01*
X131536012Y-148755335D01*
X131664129Y-148995024D01*
X131956148Y-149123347D01*
X133104395Y-147975100D01*
X133463605Y-147975100D01*
X134611852Y-149123347D01*
X134903871Y-148995024D01*
X135071723Y-148659405D01*
X135170874Y-148297489D01*
X135197262Y-147926720D01*
X135689000Y-147926720D01*
X135689000Y-148203480D01*
X135742994Y-148474923D01*
X135848905Y-148730617D01*
X136002665Y-148960735D01*
X136198365Y-149156435D01*
X136428483Y-149310195D01*
X136684177Y-149416106D01*
X136955620Y-149470100D01*
X137232380Y-149470100D01*
X137503823Y-149416106D01*
X137759517Y-149310195D01*
X137989635Y-149156435D01*
X138185335Y-148960735D01*
X138339095Y-148730617D01*
X138364000Y-148670490D01*
X138388905Y-148730617D01*
X138542665Y-148960735D01*
X138738365Y-149156435D01*
X138968483Y-149310195D01*
X139224177Y-149416106D01*
X139495620Y-149470100D01*
X139772380Y-149470100D01*
X140043823Y-149416106D01*
X140299517Y-149310195D01*
X140529635Y-149156435D01*
X140649692Y-149036378D01*
X141382327Y-149036378D01*
X141450276Y-149277287D01*
X141700668Y-149395187D01*
X141969250Y-149461972D01*
X142245701Y-149475077D01*
X142519395Y-149433996D01*
X142779817Y-149340310D01*
X142897724Y-149277287D01*
X142965673Y-149036378D01*
X142174000Y-148244705D01*
X141382327Y-149036378D01*
X140649692Y-149036378D01*
X140725335Y-148960735D01*
X140879095Y-148730617D01*
X140901626Y-148676222D01*
X140961813Y-148788824D01*
X141202722Y-148856773D01*
X141994395Y-148065100D01*
X141202722Y-147273427D01*
X140961813Y-147341376D01*
X140904980Y-147462076D01*
X140879095Y-147399583D01*
X140725335Y-147169465D01*
X140649692Y-147093822D01*
X141382327Y-147093822D01*
X142174000Y-147885495D01*
X142965673Y-147093822D01*
X142897724Y-146852913D01*
X142647332Y-146735013D01*
X142378750Y-146668228D01*
X142102299Y-146655123D01*
X141828605Y-146696204D01*
X141568183Y-146789890D01*
X141450276Y-146852913D01*
X141382327Y-147093822D01*
X140649692Y-147093822D01*
X140529635Y-146973765D01*
X140299517Y-146820005D01*
X140043823Y-146714094D01*
X139772380Y-146660100D01*
X139495620Y-146660100D01*
X139224177Y-146714094D01*
X138968483Y-146820005D01*
X138738365Y-146973765D01*
X138542665Y-147169465D01*
X138388905Y-147399583D01*
X138364000Y-147459710D01*
X138339095Y-147399583D01*
X138185335Y-147169465D01*
X137989635Y-146973765D01*
X137759517Y-146820005D01*
X137503823Y-146714094D01*
X137232380Y-146660100D01*
X136955620Y-146660100D01*
X136684177Y-146714094D01*
X136428483Y-146820005D01*
X136198365Y-146973765D01*
X136002665Y-147169465D01*
X135848905Y-147399583D01*
X135742994Y-147655277D01*
X135689000Y-147926720D01*
X135197262Y-147926720D01*
X135197514Y-147923184D01*
X135150618Y-147550873D01*
X135031988Y-147194865D01*
X134903871Y-146955176D01*
X134611852Y-146826853D01*
X133463605Y-147975100D01*
X133104395Y-147975100D01*
X131956148Y-146826853D01*
X131664129Y-146955176D01*
X131496277Y-147290795D01*
X131397126Y-147652711D01*
X131370486Y-148027016D01*
X125030124Y-148027016D01*
X125037514Y-147923184D01*
X124990618Y-147550873D01*
X124871988Y-147194865D01*
X124743871Y-146955176D01*
X124451852Y-146826853D01*
X123303605Y-147975100D01*
X122944395Y-147975100D01*
X121796148Y-146826853D01*
X121504129Y-146955176D01*
X121336277Y-147290795D01*
X121237126Y-147652711D01*
X121210486Y-148027016D01*
X120719000Y-148027016D01*
X120719000Y-147926720D01*
X120665006Y-147655277D01*
X120559095Y-147399583D01*
X120405335Y-147169465D01*
X120209635Y-146973765D01*
X119979517Y-146820005D01*
X119723823Y-146714094D01*
X119452380Y-146660100D01*
X119175620Y-146660100D01*
X118904177Y-146714094D01*
X118648483Y-146820005D01*
X118418365Y-146973765D01*
X118222665Y-147169465D01*
X118068905Y-147399583D01*
X118044000Y-147459710D01*
X118019095Y-147399583D01*
X117865335Y-147169465D01*
X117669635Y-146973765D01*
X117439517Y-146820005D01*
X117183823Y-146714094D01*
X116912380Y-146660100D01*
X116635620Y-146660100D01*
X116364177Y-146714094D01*
X116108483Y-146820005D01*
X115878365Y-146973765D01*
X115682665Y-147169465D01*
X115528905Y-147399583D01*
X115506374Y-147453978D01*
X115446187Y-147341376D01*
X115205278Y-147273427D01*
X114413605Y-148065100D01*
X114054395Y-148065100D01*
X113262722Y-147273427D01*
X113021813Y-147341376D01*
X112964980Y-147462076D01*
X112939095Y-147399583D01*
X112785335Y-147169465D01*
X112709692Y-147093822D01*
X113442327Y-147093822D01*
X114234000Y-147885495D01*
X115025673Y-147093822D01*
X114957724Y-146852913D01*
X114707332Y-146735013D01*
X114438750Y-146668228D01*
X114162299Y-146655123D01*
X113888605Y-146696204D01*
X113628183Y-146789890D01*
X113510276Y-146852913D01*
X113442327Y-147093822D01*
X112709692Y-147093822D01*
X112589635Y-146973765D01*
X112359517Y-146820005D01*
X112103823Y-146714094D01*
X111832380Y-146660100D01*
X111555620Y-146660100D01*
X111284177Y-146714094D01*
X111028483Y-146820005D01*
X110798365Y-146973765D01*
X110602665Y-147169465D01*
X110448905Y-147399583D01*
X110424000Y-147459710D01*
X110399095Y-147399583D01*
X110245335Y-147169465D01*
X110049635Y-146973765D01*
X109819517Y-146820005D01*
X109759390Y-146795100D01*
X109819517Y-146770195D01*
X110049635Y-146616435D01*
X110245335Y-146420735D01*
X110399095Y-146190617D01*
X110505006Y-145934923D01*
X110559000Y-145663480D01*
X110559000Y-145386720D01*
X110505006Y-145115277D01*
X110399095Y-144859583D01*
X110245335Y-144629465D01*
X110049635Y-144433765D01*
X109819517Y-144280005D01*
X109765122Y-144257474D01*
X109877724Y-144197287D01*
X109945673Y-143956378D01*
X109154000Y-143164705D01*
X108362327Y-143956378D01*
X108430276Y-144197287D01*
X108550976Y-144254120D01*
X108488483Y-144280005D01*
X108258365Y-144433765D01*
X108062665Y-144629465D01*
X107908905Y-144859583D01*
X107802994Y-145115277D01*
X107749000Y-145386720D01*
X101087811Y-145386720D01*
X101087811Y-143056801D01*
X107744023Y-143056801D01*
X107785104Y-143330495D01*
X107878790Y-143590917D01*
X107941813Y-143708824D01*
X108182722Y-143776773D01*
X108974395Y-142985100D01*
X109333605Y-142985100D01*
X110125278Y-143776773D01*
X110366187Y-143708824D01*
X110484087Y-143458432D01*
X110550872Y-143189850D01*
X110563977Y-142913399D01*
X110522896Y-142639705D01*
X110429210Y-142379283D01*
X110366187Y-142261376D01*
X110125278Y-142193427D01*
X109333605Y-142985100D01*
X108974395Y-142985100D01*
X108182722Y-142193427D01*
X107941813Y-142261376D01*
X107823913Y-142511768D01*
X107757128Y-142780350D01*
X107744023Y-143056801D01*
X101087811Y-143056801D01*
X101087811Y-109826720D01*
X107749000Y-109826720D01*
X107749000Y-110103480D01*
X107802994Y-110374923D01*
X107908905Y-110630617D01*
X108062665Y-110860735D01*
X108258365Y-111056435D01*
X108488483Y-111210195D01*
X108548610Y-111235100D01*
X108488483Y-111260005D01*
X108258365Y-111413765D01*
X108062665Y-111609465D01*
X107908905Y-111839583D01*
X107802994Y-112095277D01*
X107749000Y-112366720D01*
X107749000Y-112643480D01*
X107802994Y-112914923D01*
X107908905Y-113170617D01*
X108062665Y-113400735D01*
X108258365Y-113596435D01*
X108488483Y-113750195D01*
X108548610Y-113775100D01*
X108488483Y-113800005D01*
X108258365Y-113953765D01*
X108062665Y-114149465D01*
X107908905Y-114379583D01*
X107802994Y-114635277D01*
X107749000Y-114906720D01*
X107749000Y-115183480D01*
X107802994Y-115454923D01*
X107908905Y-115710617D01*
X108062665Y-115940735D01*
X108258365Y-116136435D01*
X108488483Y-116290195D01*
X108548610Y-116315100D01*
X108488483Y-116340005D01*
X108258365Y-116493765D01*
X108062665Y-116689465D01*
X107908905Y-116919583D01*
X107802994Y-117175277D01*
X107749000Y-117446720D01*
X107749000Y-117723480D01*
X107802994Y-117994923D01*
X107908905Y-118250617D01*
X108062665Y-118480735D01*
X108258365Y-118676435D01*
X108488483Y-118830195D01*
X108548610Y-118855100D01*
X108488483Y-118880005D01*
X108258365Y-119033765D01*
X108062665Y-119229465D01*
X107908905Y-119459583D01*
X107802994Y-119715277D01*
X107749000Y-119986720D01*
X107749000Y-120263480D01*
X107802994Y-120534923D01*
X107908905Y-120790617D01*
X108062665Y-121020735D01*
X108258365Y-121216435D01*
X108488483Y-121370195D01*
X108548610Y-121395100D01*
X108488483Y-121420005D01*
X108258365Y-121573765D01*
X108062665Y-121769465D01*
X107908905Y-121999583D01*
X107802994Y-122255277D01*
X107749000Y-122526720D01*
X107749000Y-122803480D01*
X107802994Y-123074923D01*
X107908905Y-123330617D01*
X108062665Y-123560735D01*
X108258365Y-123756435D01*
X108488483Y-123910195D01*
X108548610Y-123935100D01*
X108488483Y-123960005D01*
X108258365Y-124113765D01*
X108062665Y-124309465D01*
X107908905Y-124539583D01*
X107802994Y-124795277D01*
X107749000Y-125066720D01*
X107749000Y-125343480D01*
X107802994Y-125614923D01*
X107908905Y-125870617D01*
X108062665Y-126100735D01*
X108258365Y-126296435D01*
X108488483Y-126450195D01*
X108548610Y-126475100D01*
X108488483Y-126500005D01*
X108258365Y-126653765D01*
X108062665Y-126849465D01*
X107908905Y-127079583D01*
X107802994Y-127335277D01*
X107749000Y-127606720D01*
X107749000Y-127883480D01*
X107802994Y-128154923D01*
X107908905Y-128410617D01*
X108062665Y-128640735D01*
X108258365Y-128836435D01*
X108488483Y-128990195D01*
X108548610Y-129015100D01*
X108488483Y-129040005D01*
X108258365Y-129193765D01*
X108062665Y-129389465D01*
X107908905Y-129619583D01*
X107802994Y-129875277D01*
X107749000Y-130146720D01*
X107749000Y-130423480D01*
X107802994Y-130694923D01*
X107908905Y-130950617D01*
X108062665Y-131180735D01*
X108258365Y-131376435D01*
X108488483Y-131530195D01*
X108548610Y-131555100D01*
X108488483Y-131580005D01*
X108258365Y-131733765D01*
X108062665Y-131929465D01*
X107908905Y-132159583D01*
X107802994Y-132415277D01*
X107749000Y-132686720D01*
X107749000Y-132963480D01*
X107802994Y-133234923D01*
X107908905Y-133490617D01*
X108062665Y-133720735D01*
X108258365Y-133916435D01*
X108488483Y-134070195D01*
X108548610Y-134095100D01*
X108488483Y-134120005D01*
X108258365Y-134273765D01*
X108062665Y-134469465D01*
X107908905Y-134699583D01*
X107802994Y-134955277D01*
X107749000Y-135226720D01*
X107749000Y-135503480D01*
X107802994Y-135774923D01*
X107908905Y-136030617D01*
X108062665Y-136260735D01*
X108258365Y-136456435D01*
X108488483Y-136610195D01*
X108548610Y-136635100D01*
X108488483Y-136660005D01*
X108258365Y-136813765D01*
X108062665Y-137009465D01*
X107908905Y-137239583D01*
X107802994Y-137495277D01*
X107749000Y-137766720D01*
X107749000Y-138043480D01*
X107802994Y-138314923D01*
X107908905Y-138570617D01*
X108062665Y-138800735D01*
X108258365Y-138996435D01*
X108488483Y-139150195D01*
X108548610Y-139175100D01*
X108488483Y-139200005D01*
X108258365Y-139353765D01*
X108062665Y-139549465D01*
X107908905Y-139779583D01*
X107802994Y-140035277D01*
X107749000Y-140306720D01*
X107749000Y-140583480D01*
X107802994Y-140854923D01*
X107908905Y-141110617D01*
X108062665Y-141340735D01*
X108258365Y-141536435D01*
X108488483Y-141690195D01*
X108542878Y-141712726D01*
X108430276Y-141772913D01*
X108362327Y-142013822D01*
X109154000Y-142805495D01*
X109945673Y-142013822D01*
X109877724Y-141772913D01*
X109757024Y-141716080D01*
X109819517Y-141690195D01*
X109869696Y-141656666D01*
X111694811Y-141656666D01*
X111694811Y-141856800D01*
X111733855Y-142053089D01*
X111810443Y-142237989D01*
X111921632Y-142404395D01*
X112023970Y-142506733D01*
X111921632Y-142609071D01*
X111810443Y-142775477D01*
X111733855Y-142960377D01*
X111694811Y-143156666D01*
X111694811Y-143356800D01*
X111733855Y-143553089D01*
X111810443Y-143737989D01*
X111921632Y-143904395D01*
X112023970Y-144006733D01*
X111921632Y-144109071D01*
X111810443Y-144275477D01*
X111733855Y-144460377D01*
X111694811Y-144656666D01*
X111694811Y-144856800D01*
X111733855Y-145053089D01*
X111810443Y-145237989D01*
X111921632Y-145404395D01*
X112063149Y-145545912D01*
X112229555Y-145657101D01*
X112414455Y-145733689D01*
X112610744Y-145772733D01*
X112810878Y-145772733D01*
X113007167Y-145733689D01*
X113192067Y-145657101D01*
X113358473Y-145545912D01*
X113499990Y-145404395D01*
X113611179Y-145237989D01*
X113687767Y-145053089D01*
X113726811Y-144856800D01*
X113726811Y-144656666D01*
X113687767Y-144460377D01*
X113611179Y-144275477D01*
X113499990Y-144109071D01*
X113397652Y-144006733D01*
X113499990Y-143904395D01*
X113611179Y-143737989D01*
X113687767Y-143553089D01*
X113726811Y-143356800D01*
X113726811Y-143156666D01*
X113687767Y-142960377D01*
X113611179Y-142775477D01*
X113499990Y-142609071D01*
X113397652Y-142506733D01*
X113499990Y-142404395D01*
X113611179Y-142237989D01*
X113687767Y-142053089D01*
X113726811Y-141856800D01*
X113726811Y-141656666D01*
X113687767Y-141460377D01*
X113611179Y-141275477D01*
X113499990Y-141109071D01*
X113358473Y-140967554D01*
X113192067Y-140856365D01*
X113007167Y-140779777D01*
X112810878Y-140740733D01*
X112610744Y-140740733D01*
X112414455Y-140779777D01*
X112229555Y-140856365D01*
X112063149Y-140967554D01*
X111921632Y-141109071D01*
X111810443Y-141275477D01*
X111733855Y-141460377D01*
X111694811Y-141656666D01*
X109869696Y-141656666D01*
X110049635Y-141536435D01*
X110245335Y-141340735D01*
X110399095Y-141110617D01*
X110505006Y-140854923D01*
X110559000Y-140583480D01*
X110559000Y-140306720D01*
X110505006Y-140035277D01*
X110399095Y-139779583D01*
X110245335Y-139549465D01*
X110049635Y-139353765D01*
X109819517Y-139200005D01*
X109759390Y-139175100D01*
X109819517Y-139150195D01*
X110049635Y-138996435D01*
X110245335Y-138800735D01*
X110399095Y-138570617D01*
X110505006Y-138314923D01*
X110559000Y-138043480D01*
X110559000Y-137766720D01*
X110505006Y-137495277D01*
X110399095Y-137239583D01*
X110245335Y-137009465D01*
X110049635Y-136813765D01*
X109819517Y-136660005D01*
X109759390Y-136635100D01*
X109819517Y-136610195D01*
X110049635Y-136456435D01*
X110245335Y-136260735D01*
X110399095Y-136030617D01*
X110505006Y-135774923D01*
X110559000Y-135503480D01*
X110559000Y-135226720D01*
X110505006Y-134955277D01*
X110399095Y-134699583D01*
X110245335Y-134469465D01*
X110049635Y-134273765D01*
X109819517Y-134120005D01*
X109759390Y-134095100D01*
X109819517Y-134070195D01*
X110049635Y-133916435D01*
X110245335Y-133720735D01*
X110399095Y-133490617D01*
X110505006Y-133234923D01*
X110559000Y-132963480D01*
X110559000Y-132686720D01*
X110553022Y-132656666D01*
X111694811Y-132656666D01*
X111694811Y-132856800D01*
X111733855Y-133053089D01*
X111810443Y-133237989D01*
X111921632Y-133404395D01*
X112023970Y-133506733D01*
X111921632Y-133609071D01*
X111810443Y-133775477D01*
X111733855Y-133960377D01*
X111694811Y-134156666D01*
X111694811Y-134356800D01*
X111733855Y-134553089D01*
X111810443Y-134737989D01*
X111921632Y-134904395D01*
X112023970Y-135006733D01*
X111921632Y-135109071D01*
X111810443Y-135275477D01*
X111733855Y-135460377D01*
X111694811Y-135656666D01*
X111694811Y-135856800D01*
X111733855Y-136053089D01*
X111810443Y-136237989D01*
X111921632Y-136404395D01*
X112063149Y-136545912D01*
X112229555Y-136657101D01*
X112414455Y-136733689D01*
X112610744Y-136772733D01*
X112810878Y-136772733D01*
X113007167Y-136733689D01*
X113192067Y-136657101D01*
X113358473Y-136545912D01*
X113499990Y-136404395D01*
X113611179Y-136237989D01*
X113687767Y-136053089D01*
X113726811Y-135856800D01*
X113726811Y-135656666D01*
X113687767Y-135460377D01*
X113611179Y-135275477D01*
X113499990Y-135109071D01*
X113397652Y-135006733D01*
X113499990Y-134904395D01*
X113611179Y-134737989D01*
X113687767Y-134553089D01*
X113726811Y-134356800D01*
X113726811Y-134156666D01*
X113687767Y-133960377D01*
X113611179Y-133775477D01*
X113499990Y-133609071D01*
X113397652Y-133506733D01*
X113499990Y-133404395D01*
X113611179Y-133237989D01*
X113687767Y-133053089D01*
X113726811Y-132856800D01*
X113726811Y-132656666D01*
X113687767Y-132460377D01*
X113611179Y-132275477D01*
X113499990Y-132109071D01*
X113358473Y-131967554D01*
X113192067Y-131856365D01*
X113007167Y-131779777D01*
X112810878Y-131740733D01*
X112610744Y-131740733D01*
X112414455Y-131779777D01*
X112229555Y-131856365D01*
X112063149Y-131967554D01*
X111921632Y-132109071D01*
X111810443Y-132275477D01*
X111733855Y-132460377D01*
X111694811Y-132656666D01*
X110553022Y-132656666D01*
X110505006Y-132415277D01*
X110399095Y-132159583D01*
X110245335Y-131929465D01*
X110049635Y-131733765D01*
X109819517Y-131580005D01*
X109759390Y-131555100D01*
X109819517Y-131530195D01*
X110049635Y-131376435D01*
X110245335Y-131180735D01*
X110399095Y-130950617D01*
X110505006Y-130694923D01*
X110559000Y-130423480D01*
X110559000Y-130146720D01*
X110505006Y-129875277D01*
X110399095Y-129619583D01*
X110245335Y-129389465D01*
X110049635Y-129193765D01*
X109819517Y-129040005D01*
X109759390Y-129015100D01*
X109819517Y-128990195D01*
X110049635Y-128836435D01*
X110245335Y-128640735D01*
X110399095Y-128410617D01*
X110505006Y-128154923D01*
X110559000Y-127883480D01*
X110559000Y-127606720D01*
X110505006Y-127335277D01*
X110399095Y-127079583D01*
X110245335Y-126849465D01*
X110049635Y-126653765D01*
X109819517Y-126500005D01*
X109759390Y-126475100D01*
X109819517Y-126450195D01*
X110049635Y-126296435D01*
X110245335Y-126100735D01*
X110399095Y-125870617D01*
X110505006Y-125614923D01*
X110559000Y-125343480D01*
X110559000Y-125066720D01*
X110505006Y-124795277D01*
X110399095Y-124539583D01*
X110245335Y-124309465D01*
X110049635Y-124113765D01*
X109819517Y-123960005D01*
X109759390Y-123935100D01*
X109819517Y-123910195D01*
X110049635Y-123756435D01*
X110245335Y-123560735D01*
X110399095Y-123330617D01*
X110505006Y-123074923D01*
X110559000Y-122803480D01*
X110559000Y-122526720D01*
X110505006Y-122255277D01*
X110399095Y-121999583D01*
X110245335Y-121769465D01*
X110049635Y-121573765D01*
X109819517Y-121420005D01*
X109759390Y-121395100D01*
X109819517Y-121370195D01*
X110049635Y-121216435D01*
X110245335Y-121020735D01*
X110399095Y-120790617D01*
X110505006Y-120534923D01*
X110559000Y-120263480D01*
X110559000Y-120142000D01*
X119507000Y-120142000D01*
X119507000Y-146050000D01*
X119509440Y-146074776D01*
X119516667Y-146098601D01*
X119528403Y-146120557D01*
X119544197Y-146139803D01*
X119563443Y-146155597D01*
X119585399Y-146167333D01*
X119609224Y-146174560D01*
X119634000Y-146177000D01*
X122494151Y-146177000D01*
X122343765Y-146227112D01*
X122104076Y-146355229D01*
X121975753Y-146647248D01*
X123124000Y-147795495D01*
X124272247Y-146647248D01*
X124143924Y-146355229D01*
X123808305Y-146187377D01*
X123770427Y-146177000D01*
X132654151Y-146177000D01*
X132503765Y-146227112D01*
X132264076Y-146355229D01*
X132135753Y-146647248D01*
X133284000Y-147795495D01*
X134432247Y-146647248D01*
X134303924Y-146355229D01*
X133968305Y-146187377D01*
X133930427Y-146177000D01*
X145796000Y-146177000D01*
X145820776Y-146174560D01*
X145844601Y-146167333D01*
X145866557Y-146155597D01*
X145885803Y-146139803D01*
X145901597Y-146120557D01*
X145913333Y-146098601D01*
X145920560Y-146074776D01*
X145923000Y-146050000D01*
X145923000Y-145983222D01*
X146008905Y-146190617D01*
X146162665Y-146420735D01*
X146358365Y-146616435D01*
X146588483Y-146770195D01*
X146648610Y-146795100D01*
X146588483Y-146820005D01*
X146358365Y-146973765D01*
X146162665Y-147169465D01*
X146008905Y-147399583D01*
X145984000Y-147459710D01*
X145959095Y-147399583D01*
X145805335Y-147169465D01*
X145609635Y-146973765D01*
X145379517Y-146820005D01*
X145123823Y-146714094D01*
X144852380Y-146660100D01*
X144575620Y-146660100D01*
X144304177Y-146714094D01*
X144048483Y-146820005D01*
X143818365Y-146973765D01*
X143622665Y-147169465D01*
X143468905Y-147399583D01*
X143446374Y-147453978D01*
X143386187Y-147341376D01*
X143145278Y-147273427D01*
X142353605Y-148065100D01*
X143145278Y-148856773D01*
X143386187Y-148788824D01*
X143443020Y-148668124D01*
X143468905Y-148730617D01*
X143622665Y-148960735D01*
X143818365Y-149156435D01*
X144048483Y-149310195D01*
X144304177Y-149416106D01*
X144575620Y-149470100D01*
X144852380Y-149470100D01*
X145123823Y-149416106D01*
X145379517Y-149310195D01*
X145609635Y-149156435D01*
X145805335Y-148960735D01*
X145959095Y-148730617D01*
X145984000Y-148670490D01*
X146008905Y-148730617D01*
X146162665Y-148960735D01*
X146358365Y-149156435D01*
X146588483Y-149310195D01*
X146844177Y-149416106D01*
X147115620Y-149470100D01*
X147392380Y-149470100D01*
X147663823Y-149416106D01*
X147919517Y-149310195D01*
X148149635Y-149156435D01*
X148345335Y-148960735D01*
X148499095Y-148730617D01*
X148605006Y-148474923D01*
X148659000Y-148203480D01*
X148659000Y-147926720D01*
X148605006Y-147655277D01*
X148499095Y-147399583D01*
X148345335Y-147169465D01*
X148149635Y-146973765D01*
X147919517Y-146820005D01*
X147859390Y-146795100D01*
X147919517Y-146770195D01*
X148149635Y-146616435D01*
X148345335Y-146420735D01*
X148499095Y-146190617D01*
X148605006Y-145934923D01*
X148659000Y-145663480D01*
X148659000Y-145386720D01*
X148605006Y-145115277D01*
X148499095Y-144859583D01*
X148345335Y-144629465D01*
X148149635Y-144433765D01*
X147919517Y-144280005D01*
X147859390Y-144255100D01*
X147919517Y-144230195D01*
X148149635Y-144076435D01*
X148206963Y-144019107D01*
X155905811Y-144019107D01*
X155905811Y-144394359D01*
X155979020Y-144762401D01*
X156122622Y-145109089D01*
X156331101Y-145421099D01*
X156596445Y-145686443D01*
X156908455Y-145894922D01*
X157255143Y-146038524D01*
X157623185Y-146111733D01*
X157998437Y-146111733D01*
X158366479Y-146038524D01*
X158713167Y-145894922D01*
X159025177Y-145686443D01*
X159290521Y-145421099D01*
X159499000Y-145109089D01*
X159642602Y-144762401D01*
X159715811Y-144394359D01*
X159715811Y-144019107D01*
X159642602Y-143651065D01*
X159499000Y-143304377D01*
X159290521Y-142992367D01*
X159025177Y-142727023D01*
X158713167Y-142518544D01*
X158366479Y-142374942D01*
X157998437Y-142301733D01*
X157623185Y-142301733D01*
X157255143Y-142374942D01*
X156908455Y-142518544D01*
X156596445Y-142727023D01*
X156331101Y-142992367D01*
X156122622Y-143304377D01*
X155979020Y-143651065D01*
X155905811Y-144019107D01*
X148206963Y-144019107D01*
X148345335Y-143880735D01*
X148499095Y-143650617D01*
X148605006Y-143394923D01*
X148659000Y-143123480D01*
X148659000Y-142846720D01*
X148605006Y-142575277D01*
X148499095Y-142319583D01*
X148345335Y-142089465D01*
X148149635Y-141893765D01*
X147919517Y-141740005D01*
X147859390Y-141715100D01*
X147919517Y-141690195D01*
X148149635Y-141536435D01*
X148345335Y-141340735D01*
X148499095Y-141110617D01*
X148605006Y-140854923D01*
X148649360Y-140631944D01*
X148727097Y-140819618D01*
X148891801Y-141066115D01*
X149101429Y-141275743D01*
X149347926Y-141440447D01*
X149621819Y-141553897D01*
X149912581Y-141611733D01*
X150209041Y-141611733D01*
X150499803Y-141553897D01*
X150773696Y-141440447D01*
X151020193Y-141275743D01*
X151229821Y-141066115D01*
X151394525Y-140819618D01*
X151507975Y-140545725D01*
X151565811Y-140254963D01*
X151565811Y-139958503D01*
X153055811Y-139958503D01*
X153055811Y-140254963D01*
X153113647Y-140545725D01*
X153227097Y-140819618D01*
X153391801Y-141066115D01*
X153601429Y-141275743D01*
X153847926Y-141440447D01*
X154121819Y-141553897D01*
X154412581Y-141611733D01*
X154709041Y-141611733D01*
X154999803Y-141553897D01*
X155273696Y-141440447D01*
X155520193Y-141275743D01*
X155729821Y-141066115D01*
X155894525Y-140819618D01*
X156007975Y-140545725D01*
X156065811Y-140254963D01*
X156065811Y-139958503D01*
X158155811Y-139958503D01*
X158155811Y-140254963D01*
X158213647Y-140545725D01*
X158327097Y-140819618D01*
X158491801Y-141066115D01*
X158701429Y-141275743D01*
X158947926Y-141440447D01*
X159221819Y-141553897D01*
X159512581Y-141611733D01*
X159809041Y-141611733D01*
X160099803Y-141553897D01*
X160373696Y-141440447D01*
X160620193Y-141275743D01*
X160829821Y-141066115D01*
X160994525Y-140819618D01*
X161107975Y-140545725D01*
X161165811Y-140254963D01*
X161165811Y-139958503D01*
X161107975Y-139667741D01*
X160994525Y-139393848D01*
X160829821Y-139147351D01*
X160620193Y-138937723D01*
X160373696Y-138773019D01*
X160099803Y-138659569D01*
X159809041Y-138601733D01*
X159512581Y-138601733D01*
X159221819Y-138659569D01*
X158947926Y-138773019D01*
X158701429Y-138937723D01*
X158491801Y-139147351D01*
X158327097Y-139393848D01*
X158213647Y-139667741D01*
X158155811Y-139958503D01*
X156065811Y-139958503D01*
X156007975Y-139667741D01*
X155894525Y-139393848D01*
X155729821Y-139147351D01*
X155520193Y-138937723D01*
X155273696Y-138773019D01*
X154999803Y-138659569D01*
X154709041Y-138601733D01*
X154412581Y-138601733D01*
X154121819Y-138659569D01*
X153847926Y-138773019D01*
X153601429Y-138937723D01*
X153391801Y-139147351D01*
X153227097Y-139393848D01*
X153113647Y-139667741D01*
X153055811Y-139958503D01*
X151565811Y-139958503D01*
X151507975Y-139667741D01*
X151394525Y-139393848D01*
X151229821Y-139147351D01*
X151020193Y-138937723D01*
X150773696Y-138773019D01*
X150499803Y-138659569D01*
X150209041Y-138601733D01*
X149912581Y-138601733D01*
X149621819Y-138659569D01*
X149347926Y-138773019D01*
X149101429Y-138937723D01*
X148891801Y-139147351D01*
X148727097Y-139393848D01*
X148613647Y-139667741D01*
X148561454Y-139930133D01*
X148499095Y-139779583D01*
X148345335Y-139549465D01*
X148149635Y-139353765D01*
X147919517Y-139200005D01*
X147859390Y-139175100D01*
X147919517Y-139150195D01*
X148149635Y-138996435D01*
X148345335Y-138800735D01*
X148499095Y-138570617D01*
X148605006Y-138314923D01*
X148659000Y-138043480D01*
X148659000Y-137766720D01*
X148605006Y-137495277D01*
X148499095Y-137239583D01*
X148345335Y-137009465D01*
X148149635Y-136813765D01*
X147919517Y-136660005D01*
X147859390Y-136635100D01*
X147919517Y-136610195D01*
X148149635Y-136456435D01*
X148345335Y-136260735D01*
X148499095Y-136030617D01*
X148605006Y-135774923D01*
X148659000Y-135503480D01*
X148659000Y-135226720D01*
X148605006Y-134955277D01*
X148499095Y-134699583D01*
X148345335Y-134469465D01*
X148149635Y-134273765D01*
X147919517Y-134120005D01*
X147859390Y-134095100D01*
X147919517Y-134070195D01*
X148149635Y-133916435D01*
X148345335Y-133720735D01*
X148499095Y-133490617D01*
X148605006Y-133234923D01*
X148659000Y-132963480D01*
X148659000Y-132686720D01*
X148605006Y-132415277D01*
X148499095Y-132159583D01*
X148345335Y-131929465D01*
X148149635Y-131733765D01*
X147919517Y-131580005D01*
X147859390Y-131555100D01*
X147919517Y-131530195D01*
X148149635Y-131376435D01*
X148345335Y-131180735D01*
X148499095Y-130950617D01*
X148605006Y-130694923D01*
X148622548Y-130606733D01*
X153503703Y-130606733D01*
X153508311Y-130653517D01*
X153508311Y-130700546D01*
X153517486Y-130746673D01*
X153522094Y-130793456D01*
X153535740Y-130838440D01*
X153544915Y-130884567D01*
X153562914Y-130928021D01*
X153576559Y-130973002D01*
X153598716Y-131014456D01*
X153616716Y-131057911D01*
X153642846Y-131097018D01*
X153665005Y-131138474D01*
X153694828Y-131174813D01*
X153720956Y-131213917D01*
X153754208Y-131247169D01*
X153784033Y-131283511D01*
X153820375Y-131313336D01*
X153853627Y-131346588D01*
X153892731Y-131372716D01*
X153929070Y-131402539D01*
X153970526Y-131424698D01*
X154009633Y-131450828D01*
X154053088Y-131468828D01*
X154094542Y-131490985D01*
X154139523Y-131504630D01*
X154182977Y-131522629D01*
X154229104Y-131531804D01*
X154274088Y-131545450D01*
X154320871Y-131550058D01*
X154366998Y-131559233D01*
X158414026Y-131559233D01*
X158460811Y-131563841D01*
X158507596Y-131559233D01*
X158647534Y-131545450D01*
X158649660Y-131544805D01*
X159310811Y-131544805D01*
X159435293Y-131532545D01*
X159554991Y-131496235D01*
X159665305Y-131437270D01*
X159761996Y-131357918D01*
X159841348Y-131261227D01*
X159900313Y-131150913D01*
X159936623Y-131031215D01*
X159948883Y-130906733D01*
X159948883Y-130306733D01*
X159936623Y-130182251D01*
X159900313Y-130062553D01*
X159857113Y-129981733D01*
X159900313Y-129900913D01*
X159936623Y-129781215D01*
X159948883Y-129656733D01*
X159948883Y-129056733D01*
X159936623Y-128932251D01*
X159900313Y-128812553D01*
X159857113Y-128731733D01*
X159900313Y-128650913D01*
X159936623Y-128531215D01*
X159948883Y-128406733D01*
X159948883Y-127806733D01*
X159936623Y-127682251D01*
X159900313Y-127562553D01*
X159857113Y-127481733D01*
X159900313Y-127400913D01*
X159936623Y-127281215D01*
X159948883Y-127156733D01*
X159948883Y-126556733D01*
X159936623Y-126432251D01*
X159900313Y-126312553D01*
X159857113Y-126231733D01*
X159900313Y-126150913D01*
X159936623Y-126031215D01*
X159948883Y-125906733D01*
X159948883Y-125306733D01*
X159936623Y-125182251D01*
X159900313Y-125062553D01*
X159841348Y-124952239D01*
X159761996Y-124855548D01*
X159665305Y-124776196D01*
X159554991Y-124717231D01*
X159435293Y-124680921D01*
X159310811Y-124668661D01*
X158649660Y-124668661D01*
X158647534Y-124668016D01*
X158460811Y-124649625D01*
X158274089Y-124668016D01*
X158271963Y-124668661D01*
X157610811Y-124668661D01*
X157486329Y-124680921D01*
X157366631Y-124717231D01*
X157256317Y-124776196D01*
X157159626Y-124855548D01*
X157080274Y-124952239D01*
X157021309Y-125062553D01*
X156984999Y-125182251D01*
X156972739Y-125306733D01*
X156972739Y-125906733D01*
X156984999Y-126031215D01*
X157021309Y-126150913D01*
X157064509Y-126231733D01*
X157021309Y-126312553D01*
X156984999Y-126432251D01*
X156972739Y-126556733D01*
X156972739Y-127156733D01*
X156984999Y-127281215D01*
X157021309Y-127400913D01*
X157064509Y-127481733D01*
X157021309Y-127562553D01*
X156984999Y-127682251D01*
X156972739Y-127806733D01*
X156972739Y-128406733D01*
X156984999Y-128531215D01*
X157021309Y-128650913D01*
X157064509Y-128731733D01*
X157021309Y-128812553D01*
X156984999Y-128932251D01*
X156972739Y-129056733D01*
X156972739Y-129654233D01*
X154366998Y-129654233D01*
X154320871Y-129663408D01*
X154274088Y-129668016D01*
X154229104Y-129681662D01*
X154182977Y-129690837D01*
X154139523Y-129708836D01*
X154094542Y-129722481D01*
X154053088Y-129744638D01*
X154009633Y-129762638D01*
X153970526Y-129788768D01*
X153929070Y-129810927D01*
X153892731Y-129840750D01*
X153853627Y-129866878D01*
X153820375Y-129900130D01*
X153784033Y-129929955D01*
X153754208Y-129966297D01*
X153720956Y-129999549D01*
X153694828Y-130038653D01*
X153665005Y-130074992D01*
X153642846Y-130116448D01*
X153616716Y-130155555D01*
X153598716Y-130199010D01*
X153576559Y-130240464D01*
X153562914Y-130285445D01*
X153544915Y-130328899D01*
X153535740Y-130375026D01*
X153522094Y-130420010D01*
X153517486Y-130466793D01*
X153508311Y-130512920D01*
X153508311Y-130559948D01*
X153503703Y-130606733D01*
X148622548Y-130606733D01*
X148659000Y-130423480D01*
X148659000Y-130146720D01*
X148605006Y-129875277D01*
X148499095Y-129619583D01*
X148345335Y-129389465D01*
X148149635Y-129193765D01*
X147919517Y-129040005D01*
X147859390Y-129015100D01*
X147919517Y-128990195D01*
X148149635Y-128836435D01*
X148345335Y-128640735D01*
X148499095Y-128410617D01*
X148605006Y-128154923D01*
X148659000Y-127883480D01*
X148659000Y-127606720D01*
X148605006Y-127335277D01*
X148499095Y-127079583D01*
X148345335Y-126849465D01*
X148149635Y-126653765D01*
X147919517Y-126500005D01*
X147859390Y-126475100D01*
X147919517Y-126450195D01*
X148149635Y-126296435D01*
X148345335Y-126100735D01*
X148499095Y-125870617D01*
X148605006Y-125614923D01*
X148659000Y-125343480D01*
X148659000Y-125066720D01*
X148605006Y-124795277D01*
X148499095Y-124539583D01*
X148345335Y-124309465D01*
X148149635Y-124113765D01*
X147919517Y-123960005D01*
X147859390Y-123935100D01*
X147919517Y-123910195D01*
X148149635Y-123756435D01*
X148345335Y-123560735D01*
X148499095Y-123330617D01*
X148605006Y-123074923D01*
X148659000Y-122803480D01*
X148659000Y-122526720D01*
X148605006Y-122255277D01*
X148499095Y-121999583D01*
X148345335Y-121769465D01*
X148149635Y-121573765D01*
X147919517Y-121420005D01*
X147859390Y-121395100D01*
X147919517Y-121370195D01*
X148149635Y-121216435D01*
X148345335Y-121020735D01*
X148499095Y-120790617D01*
X148605006Y-120534923D01*
X148659000Y-120263480D01*
X148659000Y-119986720D01*
X148605006Y-119715277D01*
X148499095Y-119459583D01*
X148345335Y-119229465D01*
X148149635Y-119033765D01*
X147919517Y-118880005D01*
X147859390Y-118855100D01*
X147919517Y-118830195D01*
X148149635Y-118676435D01*
X148345335Y-118480735D01*
X148499095Y-118250617D01*
X148563703Y-118094638D01*
X148613647Y-118345725D01*
X148727097Y-118619618D01*
X148891801Y-118866115D01*
X149101429Y-119075743D01*
X149347926Y-119240447D01*
X149621819Y-119353897D01*
X149912581Y-119411733D01*
X150209041Y-119411733D01*
X150499803Y-119353897D01*
X150773696Y-119240447D01*
X151020193Y-119075743D01*
X151229821Y-118866115D01*
X151394525Y-118619618D01*
X151507975Y-118345725D01*
X151565811Y-118054963D01*
X151565811Y-117758503D01*
X153055811Y-117758503D01*
X153055811Y-118054963D01*
X153113647Y-118345725D01*
X153227097Y-118619618D01*
X153391801Y-118866115D01*
X153601429Y-119075743D01*
X153847926Y-119240447D01*
X154121819Y-119353897D01*
X154412581Y-119411733D01*
X154709041Y-119411733D01*
X154999803Y-119353897D01*
X155273696Y-119240447D01*
X155520193Y-119075743D01*
X155729821Y-118866115D01*
X155894525Y-118619618D01*
X156007975Y-118345725D01*
X156065811Y-118054963D01*
X156065811Y-117758503D01*
X158155811Y-117758503D01*
X158155811Y-118054963D01*
X158213647Y-118345725D01*
X158327097Y-118619618D01*
X158491801Y-118866115D01*
X158701429Y-119075743D01*
X158947926Y-119240447D01*
X159221819Y-119353897D01*
X159512581Y-119411733D01*
X159809041Y-119411733D01*
X160099803Y-119353897D01*
X160373696Y-119240447D01*
X160620193Y-119075743D01*
X160829821Y-118866115D01*
X160994525Y-118619618D01*
X161107975Y-118345725D01*
X161165811Y-118054963D01*
X161165811Y-117758503D01*
X161107975Y-117467741D01*
X160994525Y-117193848D01*
X160829821Y-116947351D01*
X160620193Y-116737723D01*
X160373696Y-116573019D01*
X160099803Y-116459569D01*
X159809041Y-116401733D01*
X159512581Y-116401733D01*
X159221819Y-116459569D01*
X158947926Y-116573019D01*
X158701429Y-116737723D01*
X158491801Y-116947351D01*
X158327097Y-117193848D01*
X158213647Y-117467741D01*
X158155811Y-117758503D01*
X156065811Y-117758503D01*
X156007975Y-117467741D01*
X155894525Y-117193848D01*
X155729821Y-116947351D01*
X155520193Y-116737723D01*
X155273696Y-116573019D01*
X154999803Y-116459569D01*
X154709041Y-116401733D01*
X154412581Y-116401733D01*
X154121819Y-116459569D01*
X153847926Y-116573019D01*
X153601429Y-116737723D01*
X153391801Y-116947351D01*
X153227097Y-117193848D01*
X153113647Y-117467741D01*
X153055811Y-117758503D01*
X151565811Y-117758503D01*
X151507975Y-117467741D01*
X151394525Y-117193848D01*
X151229821Y-116947351D01*
X151020193Y-116737723D01*
X150773696Y-116573019D01*
X150499803Y-116459569D01*
X150209041Y-116401733D01*
X149912581Y-116401733D01*
X149621819Y-116459569D01*
X149347926Y-116573019D01*
X149101429Y-116737723D01*
X148891801Y-116947351D01*
X148727097Y-117193848D01*
X148647111Y-117386951D01*
X148605006Y-117175277D01*
X148499095Y-116919583D01*
X148345335Y-116689465D01*
X148149635Y-116493765D01*
X147919517Y-116340005D01*
X147859390Y-116315100D01*
X147919517Y-116290195D01*
X148149635Y-116136435D01*
X148345335Y-115940735D01*
X148499095Y-115710617D01*
X148605006Y-115454923D01*
X148659000Y-115183480D01*
X148659000Y-114906720D01*
X148605006Y-114635277D01*
X148499095Y-114379583D01*
X148345335Y-114149465D01*
X148149635Y-113953765D01*
X147919517Y-113800005D01*
X147859390Y-113775100D01*
X147919517Y-113750195D01*
X148115703Y-113619107D01*
X155905811Y-113619107D01*
X155905811Y-113994359D01*
X155979020Y-114362401D01*
X156122622Y-114709089D01*
X156331101Y-115021099D01*
X156596445Y-115286443D01*
X156908455Y-115494922D01*
X157255143Y-115638524D01*
X157623185Y-115711733D01*
X157998437Y-115711733D01*
X158366479Y-115638524D01*
X158713167Y-115494922D01*
X159025177Y-115286443D01*
X159290521Y-115021099D01*
X159499000Y-114709089D01*
X159642602Y-114362401D01*
X159715811Y-113994359D01*
X159715811Y-113619107D01*
X159642602Y-113251065D01*
X159499000Y-112904377D01*
X159290521Y-112592367D01*
X159025177Y-112327023D01*
X158713167Y-112118544D01*
X158366479Y-111974942D01*
X157998437Y-111901733D01*
X157623185Y-111901733D01*
X157255143Y-111974942D01*
X156908455Y-112118544D01*
X156596445Y-112327023D01*
X156331101Y-112592367D01*
X156122622Y-112904377D01*
X155979020Y-113251065D01*
X155905811Y-113619107D01*
X148115703Y-113619107D01*
X148149635Y-113596435D01*
X148345335Y-113400735D01*
X148499095Y-113170617D01*
X148605006Y-112914923D01*
X148659000Y-112643480D01*
X148659000Y-112366720D01*
X148605006Y-112095277D01*
X148499095Y-111839583D01*
X148345335Y-111609465D01*
X148149635Y-111413765D01*
X147919517Y-111260005D01*
X147859390Y-111235100D01*
X147919517Y-111210195D01*
X148149635Y-111056435D01*
X148345335Y-110860735D01*
X148499095Y-110630617D01*
X148605006Y-110374923D01*
X148659000Y-110103480D01*
X148659000Y-109826720D01*
X148605006Y-109555277D01*
X148499095Y-109299583D01*
X148345335Y-109069465D01*
X148149635Y-108873765D01*
X147919517Y-108720005D01*
X147663823Y-108614094D01*
X147392380Y-108560100D01*
X147115620Y-108560100D01*
X146844177Y-108614094D01*
X146588483Y-108720005D01*
X146358365Y-108873765D01*
X146162665Y-109069465D01*
X146008905Y-109299583D01*
X145984000Y-109359710D01*
X145959095Y-109299583D01*
X145805335Y-109069465D01*
X145609635Y-108873765D01*
X145379517Y-108720005D01*
X145123823Y-108614094D01*
X144852380Y-108560100D01*
X144575620Y-108560100D01*
X144304177Y-108614094D01*
X144048483Y-108720005D01*
X143818365Y-108873765D01*
X143622665Y-109069465D01*
X143468905Y-109299583D01*
X143444000Y-109359710D01*
X143419095Y-109299583D01*
X143265335Y-109069465D01*
X143069635Y-108873765D01*
X142839517Y-108720005D01*
X142583823Y-108614094D01*
X142312380Y-108560100D01*
X142035620Y-108560100D01*
X141764177Y-108614094D01*
X141508483Y-108720005D01*
X141278365Y-108873765D01*
X141082665Y-109069465D01*
X140928905Y-109299583D01*
X140906374Y-109353978D01*
X140846187Y-109241376D01*
X140605278Y-109173427D01*
X139813605Y-109965100D01*
X140605278Y-110756773D01*
X140846187Y-110688824D01*
X140903020Y-110568124D01*
X140928905Y-110630617D01*
X141082665Y-110860735D01*
X141278365Y-111056435D01*
X141508483Y-111210195D01*
X141764177Y-111316106D01*
X142035620Y-111370100D01*
X142312380Y-111370100D01*
X142583823Y-111316106D01*
X142839517Y-111210195D01*
X143069635Y-111056435D01*
X143265335Y-110860735D01*
X143419095Y-110630617D01*
X143444000Y-110570490D01*
X143468905Y-110630617D01*
X143622665Y-110860735D01*
X143818365Y-111056435D01*
X144048483Y-111210195D01*
X144304177Y-111316106D01*
X144575620Y-111370100D01*
X144852380Y-111370100D01*
X145123823Y-111316106D01*
X145379517Y-111210195D01*
X145609635Y-111056435D01*
X145805335Y-110860735D01*
X145959095Y-110630617D01*
X145984000Y-110570490D01*
X146008905Y-110630617D01*
X146162665Y-110860735D01*
X146358365Y-111056435D01*
X146588483Y-111210195D01*
X146648610Y-111235100D01*
X146588483Y-111260005D01*
X146358365Y-111413765D01*
X146162665Y-111609465D01*
X146008905Y-111839583D01*
X145902994Y-112095277D01*
X145849000Y-112366720D01*
X145849000Y-112643480D01*
X145902994Y-112914923D01*
X146008905Y-113170617D01*
X146162665Y-113400735D01*
X146358365Y-113596435D01*
X146588483Y-113750195D01*
X146648610Y-113775100D01*
X146588483Y-113800005D01*
X146358365Y-113953765D01*
X146162665Y-114149465D01*
X146008905Y-114379583D01*
X145902994Y-114635277D01*
X145849000Y-114906720D01*
X145849000Y-115183480D01*
X145902994Y-115454923D01*
X146008905Y-115710617D01*
X146162665Y-115940735D01*
X146358365Y-116136435D01*
X146588483Y-116290195D01*
X146648610Y-116315100D01*
X146588483Y-116340005D01*
X146358365Y-116493765D01*
X146162665Y-116689465D01*
X146008905Y-116919583D01*
X145902994Y-117175277D01*
X145849000Y-117446720D01*
X145849000Y-117723480D01*
X145902994Y-117994923D01*
X146008905Y-118250617D01*
X146162665Y-118480735D01*
X146358365Y-118676435D01*
X146588483Y-118830195D01*
X146648610Y-118855100D01*
X146588483Y-118880005D01*
X146358365Y-119033765D01*
X146162665Y-119229465D01*
X146008905Y-119459583D01*
X145902994Y-119715277D01*
X145849000Y-119986720D01*
X145849000Y-120027018D01*
X145844601Y-120024667D01*
X145820776Y-120017440D01*
X145796000Y-120015000D01*
X119634000Y-120015000D01*
X119609224Y-120017440D01*
X119585399Y-120024667D01*
X119563443Y-120036403D01*
X119544197Y-120052197D01*
X119528403Y-120071443D01*
X119516667Y-120093399D01*
X119509440Y-120117224D01*
X119507000Y-120142000D01*
X110559000Y-120142000D01*
X110559000Y-119986720D01*
X110505006Y-119715277D01*
X110399095Y-119459583D01*
X110245335Y-119229465D01*
X110049635Y-119033765D01*
X109819517Y-118880005D01*
X109759390Y-118855100D01*
X109819517Y-118830195D01*
X110049635Y-118676435D01*
X110245335Y-118480735D01*
X110399095Y-118250617D01*
X110505006Y-117994923D01*
X110559000Y-117723480D01*
X110559000Y-117446720D01*
X110505006Y-117175277D01*
X110399095Y-116919583D01*
X110245335Y-116689465D01*
X110049635Y-116493765D01*
X109819517Y-116340005D01*
X109759390Y-116315100D01*
X109819517Y-116290195D01*
X110049635Y-116136435D01*
X110245335Y-115940735D01*
X110386799Y-115729018D01*
X124125811Y-115729018D01*
X124125811Y-116484448D01*
X124273188Y-117225361D01*
X124562278Y-117923287D01*
X124981972Y-118551403D01*
X125516141Y-119085572D01*
X126144257Y-119505266D01*
X126842183Y-119794356D01*
X127583096Y-119941733D01*
X128338526Y-119941733D01*
X129079439Y-119794356D01*
X129777365Y-119505266D01*
X130405481Y-119085572D01*
X130939650Y-118551403D01*
X131359344Y-117923287D01*
X131648434Y-117225361D01*
X131795811Y-116484448D01*
X131795811Y-115729018D01*
X137125811Y-115729018D01*
X137125811Y-116484448D01*
X137273188Y-117225361D01*
X137562278Y-117923287D01*
X137981972Y-118551403D01*
X138516141Y-119085572D01*
X139144257Y-119505266D01*
X139842183Y-119794356D01*
X140583096Y-119941733D01*
X141338526Y-119941733D01*
X142079439Y-119794356D01*
X142777365Y-119505266D01*
X143405481Y-119085572D01*
X143939650Y-118551403D01*
X144359344Y-117923287D01*
X144648434Y-117225361D01*
X144795811Y-116484448D01*
X144795811Y-115729018D01*
X144648434Y-114988105D01*
X144359344Y-114290179D01*
X143939650Y-113662063D01*
X143405481Y-113127894D01*
X142777365Y-112708200D01*
X142079439Y-112419110D01*
X141338526Y-112271733D01*
X140583096Y-112271733D01*
X139842183Y-112419110D01*
X139144257Y-112708200D01*
X138516141Y-113127894D01*
X137981972Y-113662063D01*
X137562278Y-114290179D01*
X137273188Y-114988105D01*
X137125811Y-115729018D01*
X131795811Y-115729018D01*
X131648434Y-114988105D01*
X131359344Y-114290179D01*
X130939650Y-113662063D01*
X130405481Y-113127894D01*
X129777365Y-112708200D01*
X129079439Y-112419110D01*
X128338526Y-112271733D01*
X127583096Y-112271733D01*
X126842183Y-112419110D01*
X126144257Y-112708200D01*
X125516141Y-113127894D01*
X124981972Y-113662063D01*
X124562278Y-114290179D01*
X124273188Y-114988105D01*
X124125811Y-115729018D01*
X110386799Y-115729018D01*
X110399095Y-115710617D01*
X110505006Y-115454923D01*
X110559000Y-115183480D01*
X110559000Y-114906720D01*
X110505006Y-114635277D01*
X110399095Y-114379583D01*
X110245335Y-114149465D01*
X110049635Y-113953765D01*
X109819517Y-113800005D01*
X109759390Y-113775100D01*
X109819517Y-113750195D01*
X110049635Y-113596435D01*
X110245335Y-113400735D01*
X110399095Y-113170617D01*
X110505006Y-112914923D01*
X110559000Y-112643480D01*
X110559000Y-112366720D01*
X110505006Y-112095277D01*
X110399095Y-111839583D01*
X110245335Y-111609465D01*
X110049635Y-111413765D01*
X109819517Y-111260005D01*
X109759390Y-111235100D01*
X109819517Y-111210195D01*
X110049635Y-111056435D01*
X110245335Y-110860735D01*
X110399095Y-110630617D01*
X110424000Y-110570490D01*
X110448905Y-110630617D01*
X110602665Y-110860735D01*
X110798365Y-111056435D01*
X111028483Y-111210195D01*
X111284177Y-111316106D01*
X111555620Y-111370100D01*
X111832380Y-111370100D01*
X112103823Y-111316106D01*
X112359517Y-111210195D01*
X112589635Y-111056435D01*
X112785335Y-110860735D01*
X112939095Y-110630617D01*
X112964000Y-110570490D01*
X112988905Y-110630617D01*
X113142665Y-110860735D01*
X113338365Y-111056435D01*
X113568483Y-111210195D01*
X113824177Y-111316106D01*
X114095620Y-111370100D01*
X114372380Y-111370100D01*
X114643823Y-111316106D01*
X114899517Y-111210195D01*
X115129635Y-111056435D01*
X115325335Y-110860735D01*
X115479095Y-110630617D01*
X115504000Y-110570490D01*
X115528905Y-110630617D01*
X115682665Y-110860735D01*
X115878365Y-111056435D01*
X116108483Y-111210195D01*
X116364177Y-111316106D01*
X116635620Y-111370100D01*
X116912380Y-111370100D01*
X117183823Y-111316106D01*
X117439517Y-111210195D01*
X117669635Y-111056435D01*
X117865335Y-110860735D01*
X118019095Y-110630617D01*
X118044000Y-110570490D01*
X118068905Y-110630617D01*
X118222665Y-110860735D01*
X118418365Y-111056435D01*
X118648483Y-111210195D01*
X118708610Y-111235100D01*
X118648483Y-111260005D01*
X118418365Y-111413765D01*
X118222665Y-111609465D01*
X118068905Y-111839583D01*
X117962994Y-112095277D01*
X117909000Y-112366720D01*
X117909000Y-112643480D01*
X117962994Y-112914923D01*
X118068905Y-113170617D01*
X118222665Y-113400735D01*
X118418365Y-113596435D01*
X118648483Y-113750195D01*
X118904177Y-113856106D01*
X119175620Y-113910100D01*
X119452380Y-113910100D01*
X119723823Y-113856106D01*
X119979517Y-113750195D01*
X120209635Y-113596435D01*
X120405335Y-113400735D01*
X120559095Y-113170617D01*
X120665006Y-112914923D01*
X120719000Y-112643480D01*
X120719000Y-112366720D01*
X120665006Y-112095277D01*
X120559095Y-111839583D01*
X120405335Y-111609465D01*
X120209635Y-111413765D01*
X120163521Y-111382952D01*
X121975753Y-111382952D01*
X122104076Y-111674971D01*
X122439695Y-111842823D01*
X122801611Y-111941974D01*
X123175916Y-111968614D01*
X123548227Y-111921718D01*
X123904235Y-111803088D01*
X124143924Y-111674971D01*
X124272247Y-111382952D01*
X132135753Y-111382952D01*
X132264076Y-111674971D01*
X132599695Y-111842823D01*
X132961611Y-111941974D01*
X133335916Y-111968614D01*
X133708227Y-111921718D01*
X134064235Y-111803088D01*
X134303924Y-111674971D01*
X134432247Y-111382952D01*
X133284000Y-110234705D01*
X132135753Y-111382952D01*
X124272247Y-111382952D01*
X123124000Y-110234705D01*
X121975753Y-111382952D01*
X120163521Y-111382952D01*
X119979517Y-111260005D01*
X119919390Y-111235100D01*
X119979517Y-111210195D01*
X120209635Y-111056435D01*
X120405335Y-110860735D01*
X120559095Y-110630617D01*
X120665006Y-110374923D01*
X120718296Y-110107016D01*
X121210486Y-110107016D01*
X121257382Y-110479327D01*
X121376012Y-110835335D01*
X121504129Y-111075024D01*
X121796148Y-111203347D01*
X122944395Y-110055100D01*
X123303605Y-110055100D01*
X124451852Y-111203347D01*
X124743871Y-111075024D01*
X124911723Y-110739405D01*
X125010874Y-110377489D01*
X125030124Y-110107016D01*
X131370486Y-110107016D01*
X131417382Y-110479327D01*
X131536012Y-110835335D01*
X131664129Y-111075024D01*
X131956148Y-111203347D01*
X133104395Y-110055100D01*
X133463605Y-110055100D01*
X134611852Y-111203347D01*
X134903871Y-111075024D01*
X135071723Y-110739405D01*
X135170874Y-110377489D01*
X135197514Y-110003184D01*
X135175287Y-109826720D01*
X135689000Y-109826720D01*
X135689000Y-110103480D01*
X135742994Y-110374923D01*
X135848905Y-110630617D01*
X136002665Y-110860735D01*
X136198365Y-111056435D01*
X136428483Y-111210195D01*
X136488610Y-111235100D01*
X136428483Y-111260005D01*
X136198365Y-111413765D01*
X136002665Y-111609465D01*
X135848905Y-111839583D01*
X135742994Y-112095277D01*
X135689000Y-112366720D01*
X135689000Y-112643480D01*
X135742994Y-112914923D01*
X135848905Y-113170617D01*
X136002665Y-113400735D01*
X136198365Y-113596435D01*
X136428483Y-113750195D01*
X136684177Y-113856106D01*
X136955620Y-113910100D01*
X137232380Y-113910100D01*
X137503823Y-113856106D01*
X137759517Y-113750195D01*
X137989635Y-113596435D01*
X138185335Y-113400735D01*
X138339095Y-113170617D01*
X138445006Y-112914923D01*
X138499000Y-112643480D01*
X138499000Y-112366720D01*
X138445006Y-112095277D01*
X138339095Y-111839583D01*
X138185335Y-111609465D01*
X137989635Y-111413765D01*
X137759517Y-111260005D01*
X137699390Y-111235100D01*
X137759517Y-111210195D01*
X137989635Y-111056435D01*
X138109692Y-110936378D01*
X138842327Y-110936378D01*
X138910276Y-111177287D01*
X139160668Y-111295187D01*
X139429250Y-111361972D01*
X139705701Y-111375077D01*
X139979395Y-111333996D01*
X140239817Y-111240310D01*
X140357724Y-111177287D01*
X140425673Y-110936378D01*
X139634000Y-110144705D01*
X138842327Y-110936378D01*
X138109692Y-110936378D01*
X138185335Y-110860735D01*
X138339095Y-110630617D01*
X138361626Y-110576222D01*
X138421813Y-110688824D01*
X138662722Y-110756773D01*
X139454395Y-109965100D01*
X138662722Y-109173427D01*
X138421813Y-109241376D01*
X138364980Y-109362076D01*
X138339095Y-109299583D01*
X138185335Y-109069465D01*
X138109692Y-108993822D01*
X138842327Y-108993822D01*
X139634000Y-109785495D01*
X140425673Y-108993822D01*
X140357724Y-108752913D01*
X140107332Y-108635013D01*
X139838750Y-108568228D01*
X139562299Y-108555123D01*
X139288605Y-108596204D01*
X139028183Y-108689890D01*
X138910276Y-108752913D01*
X138842327Y-108993822D01*
X138109692Y-108993822D01*
X137989635Y-108873765D01*
X137759517Y-108720005D01*
X137503823Y-108614094D01*
X137232380Y-108560100D01*
X136955620Y-108560100D01*
X136684177Y-108614094D01*
X136428483Y-108720005D01*
X136198365Y-108873765D01*
X136002665Y-109069465D01*
X135848905Y-109299583D01*
X135742994Y-109555277D01*
X135689000Y-109826720D01*
X135175287Y-109826720D01*
X135150618Y-109630873D01*
X135031988Y-109274865D01*
X134903871Y-109035176D01*
X134611852Y-108906853D01*
X133463605Y-110055100D01*
X133104395Y-110055100D01*
X131956148Y-108906853D01*
X131664129Y-109035176D01*
X131496277Y-109370795D01*
X131397126Y-109732711D01*
X131370486Y-110107016D01*
X125030124Y-110107016D01*
X125037514Y-110003184D01*
X124990618Y-109630873D01*
X124871988Y-109274865D01*
X124743871Y-109035176D01*
X124451852Y-108906853D01*
X123303605Y-110055100D01*
X122944395Y-110055100D01*
X121796148Y-108906853D01*
X121504129Y-109035176D01*
X121336277Y-109370795D01*
X121237126Y-109732711D01*
X121210486Y-110107016D01*
X120718296Y-110107016D01*
X120719000Y-110103480D01*
X120719000Y-109826720D01*
X120665006Y-109555277D01*
X120559095Y-109299583D01*
X120405335Y-109069465D01*
X120209635Y-108873765D01*
X119990357Y-108727248D01*
X121975753Y-108727248D01*
X123124000Y-109875495D01*
X124272247Y-108727248D01*
X132135753Y-108727248D01*
X133284000Y-109875495D01*
X134432247Y-108727248D01*
X134303924Y-108435229D01*
X133968305Y-108267377D01*
X133606389Y-108168226D01*
X133232084Y-108141586D01*
X132859773Y-108188482D01*
X132503765Y-108307112D01*
X132264076Y-108435229D01*
X132135753Y-108727248D01*
X124272247Y-108727248D01*
X124143924Y-108435229D01*
X123808305Y-108267377D01*
X123446389Y-108168226D01*
X123072084Y-108141586D01*
X122699773Y-108188482D01*
X122343765Y-108307112D01*
X122104076Y-108435229D01*
X121975753Y-108727248D01*
X119990357Y-108727248D01*
X119979517Y-108720005D01*
X119723823Y-108614094D01*
X119452380Y-108560100D01*
X119175620Y-108560100D01*
X118904177Y-108614094D01*
X118648483Y-108720005D01*
X118418365Y-108873765D01*
X118222665Y-109069465D01*
X118068905Y-109299583D01*
X118044000Y-109359710D01*
X118019095Y-109299583D01*
X117865335Y-109069465D01*
X117669635Y-108873765D01*
X117439517Y-108720005D01*
X117183823Y-108614094D01*
X116912380Y-108560100D01*
X116635620Y-108560100D01*
X116364177Y-108614094D01*
X116108483Y-108720005D01*
X115878365Y-108873765D01*
X115682665Y-109069465D01*
X115528905Y-109299583D01*
X115504000Y-109359710D01*
X115479095Y-109299583D01*
X115325335Y-109069465D01*
X115129635Y-108873765D01*
X114899517Y-108720005D01*
X114643823Y-108614094D01*
X114372380Y-108560100D01*
X114095620Y-108560100D01*
X113824177Y-108614094D01*
X113568483Y-108720005D01*
X113338365Y-108873765D01*
X113142665Y-109069465D01*
X112988905Y-109299583D01*
X112964000Y-109359710D01*
X112939095Y-109299583D01*
X112785335Y-109069465D01*
X112589635Y-108873765D01*
X112359517Y-108720005D01*
X112103823Y-108614094D01*
X111832380Y-108560100D01*
X111555620Y-108560100D01*
X111284177Y-108614094D01*
X111028483Y-108720005D01*
X110798365Y-108873765D01*
X110602665Y-109069465D01*
X110448905Y-109299583D01*
X110424000Y-109359710D01*
X110399095Y-109299583D01*
X110245335Y-109069465D01*
X110049635Y-108873765D01*
X109819517Y-108720005D01*
X109563823Y-108614094D01*
X109292380Y-108560100D01*
X109015620Y-108560100D01*
X108744177Y-108614094D01*
X108488483Y-108720005D01*
X108258365Y-108873765D01*
X108062665Y-109069465D01*
X107908905Y-109299583D01*
X107802994Y-109555277D01*
X107749000Y-109826720D01*
X101087811Y-109826720D01*
X101087811Y-106937952D01*
X103560753Y-106937952D01*
X103689076Y-107229971D01*
X104024695Y-107397823D01*
X104386611Y-107496974D01*
X104760916Y-107523614D01*
X105133227Y-107476718D01*
X105489235Y-107358088D01*
X105728924Y-107229971D01*
X105857247Y-106937952D01*
X150550753Y-106937952D01*
X150679076Y-107229971D01*
X151014695Y-107397823D01*
X151376611Y-107496974D01*
X151750916Y-107523614D01*
X152123227Y-107476718D01*
X152479235Y-107358088D01*
X152718924Y-107229971D01*
X152847247Y-106937952D01*
X151699000Y-105789705D01*
X150550753Y-106937952D01*
X105857247Y-106937952D01*
X104709000Y-105789705D01*
X103560753Y-106937952D01*
X101087811Y-106937952D01*
X101087811Y-105662016D01*
X102795486Y-105662016D01*
X102842382Y-106034327D01*
X102961012Y-106390335D01*
X103089129Y-106630024D01*
X103381148Y-106758347D01*
X104529395Y-105610100D01*
X104888605Y-105610100D01*
X106036852Y-106758347D01*
X106328871Y-106630024D01*
X106496723Y-106294405D01*
X106595874Y-105932489D01*
X106615124Y-105662016D01*
X149785486Y-105662016D01*
X149832382Y-106034327D01*
X149951012Y-106390335D01*
X150079129Y-106630024D01*
X150371148Y-106758347D01*
X151519395Y-105610100D01*
X151878605Y-105610100D01*
X153026852Y-106758347D01*
X153318871Y-106630024D01*
X153486723Y-106294405D01*
X153585874Y-105932489D01*
X153612514Y-105558184D01*
X153565618Y-105185873D01*
X153446988Y-104829865D01*
X153318871Y-104590176D01*
X153026852Y-104461853D01*
X151878605Y-105610100D01*
X151519395Y-105610100D01*
X150371148Y-104461853D01*
X150079129Y-104590176D01*
X149911277Y-104925795D01*
X149812126Y-105287711D01*
X149785486Y-105662016D01*
X106615124Y-105662016D01*
X106622514Y-105558184D01*
X106575618Y-105185873D01*
X106456988Y-104829865D01*
X106328871Y-104590176D01*
X106036852Y-104461853D01*
X104888605Y-105610100D01*
X104529395Y-105610100D01*
X103381148Y-104461853D01*
X103089129Y-104590176D01*
X102921277Y-104925795D01*
X102822126Y-105287711D01*
X102795486Y-105662016D01*
X101087811Y-105662016D01*
X101087811Y-104282248D01*
X103560753Y-104282248D01*
X104709000Y-105430495D01*
X105857247Y-104282248D01*
X150550753Y-104282248D01*
X151699000Y-105430495D01*
X152847247Y-104282248D01*
X152718924Y-103990229D01*
X152383305Y-103822377D01*
X152021389Y-103723226D01*
X151647084Y-103696586D01*
X151274773Y-103743482D01*
X150918765Y-103862112D01*
X150679076Y-103990229D01*
X150550753Y-104282248D01*
X105857247Y-104282248D01*
X105728924Y-103990229D01*
X105393305Y-103822377D01*
X105031389Y-103723226D01*
X104657084Y-103696586D01*
X104284773Y-103743482D01*
X103928765Y-103862112D01*
X103689076Y-103990229D01*
X103560753Y-104282248D01*
X101087811Y-104282248D01*
X101087811Y-102233733D01*
X162833811Y-102233733D01*
X162833811Y-122618662D01*
%TA.AperFunction,Conductor*%
D19*
G36*
X162833811Y-122618662D02*
G01*
X160310805Y-122618662D01*
X160186323Y-122630922D01*
X160066625Y-122667232D01*
X159956311Y-122726197D01*
X159859620Y-122805549D01*
X159780268Y-122902240D01*
X159721303Y-123012554D01*
X159684993Y-123132252D01*
X159672733Y-123256734D01*
X159672733Y-124256734D01*
X159684993Y-124381216D01*
X159721303Y-124500914D01*
X159780268Y-124611228D01*
X159859620Y-124707919D01*
X159956311Y-124787271D01*
X160066625Y-124846236D01*
X160186323Y-124882546D01*
X160310805Y-124894806D01*
X162833811Y-124894806D01*
X162833811Y-131318660D01*
X160310805Y-131318660D01*
X160186323Y-131330920D01*
X160066625Y-131367230D01*
X159956311Y-131426195D01*
X159859620Y-131505547D01*
X159780268Y-131602238D01*
X159721303Y-131712552D01*
X159684993Y-131832250D01*
X159672733Y-131956732D01*
X159672733Y-132956732D01*
X159684993Y-133081214D01*
X159721303Y-133200912D01*
X159780268Y-133311226D01*
X159859620Y-133407917D01*
X159956311Y-133487269D01*
X160066625Y-133546234D01*
X160186323Y-133582544D01*
X160310805Y-133594804D01*
X162833811Y-133594804D01*
X162833811Y-155979733D01*
X101087811Y-155979733D01*
X101087811Y-153927952D01*
X103560753Y-153927952D01*
X103689076Y-154219971D01*
X104024695Y-154387823D01*
X104386611Y-154486974D01*
X104760916Y-154513614D01*
X105133227Y-154466718D01*
X105489235Y-154348088D01*
X105728924Y-154219971D01*
X105857247Y-153927952D01*
X150550753Y-153927952D01*
X150679076Y-154219971D01*
X151014695Y-154387823D01*
X151376611Y-154486974D01*
X151750916Y-154513614D01*
X152123227Y-154466718D01*
X152479235Y-154348088D01*
X152718924Y-154219971D01*
X152847247Y-153927952D01*
X151699000Y-152779705D01*
X150550753Y-153927952D01*
X105857247Y-153927952D01*
X104709000Y-152779705D01*
X103560753Y-153927952D01*
X101087811Y-153927952D01*
X101087811Y-152652016D01*
X102795486Y-152652016D01*
X102842382Y-153024327D01*
X102961012Y-153380335D01*
X103089129Y-153620024D01*
X103381148Y-153748347D01*
X104529395Y-152600100D01*
X104888605Y-152600100D01*
X106036852Y-153748347D01*
X106328871Y-153620024D01*
X106496723Y-153284405D01*
X106595874Y-152922489D01*
X106615124Y-152652016D01*
X149785486Y-152652016D01*
X149832382Y-153024327D01*
X149951012Y-153380335D01*
X150079129Y-153620024D01*
X150371148Y-153748347D01*
X151519395Y-152600100D01*
X151878605Y-152600100D01*
X153026852Y-153748347D01*
X153318871Y-153620024D01*
X153486723Y-153284405D01*
X153585874Y-152922489D01*
X153612514Y-152548184D01*
X153565618Y-152175873D01*
X153446988Y-151819865D01*
X153318871Y-151580176D01*
X153026852Y-151451853D01*
X151878605Y-152600100D01*
X151519395Y-152600100D01*
X150371148Y-151451853D01*
X150079129Y-151580176D01*
X149911277Y-151915795D01*
X149812126Y-152277711D01*
X149785486Y-152652016D01*
X106615124Y-152652016D01*
X106622514Y-152548184D01*
X106575618Y-152175873D01*
X106456988Y-151819865D01*
X106328871Y-151580176D01*
X106036852Y-151451853D01*
X104888605Y-152600100D01*
X104529395Y-152600100D01*
X103381148Y-151451853D01*
X103089129Y-151580176D01*
X102921277Y-151915795D01*
X102822126Y-152277711D01*
X102795486Y-152652016D01*
X101087811Y-152652016D01*
X101087811Y-151272248D01*
X103560753Y-151272248D01*
X104709000Y-152420495D01*
X105857247Y-151272248D01*
X150550753Y-151272248D01*
X151699000Y-152420495D01*
X152847247Y-151272248D01*
X152718924Y-150980229D01*
X152383305Y-150812377D01*
X152021389Y-150713226D01*
X151647084Y-150686586D01*
X151274773Y-150733482D01*
X150918765Y-150852112D01*
X150679076Y-150980229D01*
X150550753Y-151272248D01*
X105857247Y-151272248D01*
X105728924Y-150980229D01*
X105393305Y-150812377D01*
X105031389Y-150713226D01*
X104657084Y-150686586D01*
X104284773Y-150733482D01*
X103928765Y-150852112D01*
X103689076Y-150980229D01*
X103560753Y-151272248D01*
X101087811Y-151272248D01*
X101087811Y-145386720D01*
X107749000Y-145386720D01*
X107749000Y-145663480D01*
X107802994Y-145934923D01*
X107908905Y-146190617D01*
X108062665Y-146420735D01*
X108258365Y-146616435D01*
X108488483Y-146770195D01*
X108548610Y-146795100D01*
X108488483Y-146820005D01*
X108258365Y-146973765D01*
X108062665Y-147169465D01*
X107908905Y-147399583D01*
X107802994Y-147655277D01*
X107749000Y-147926720D01*
X107749000Y-148203480D01*
X107802994Y-148474923D01*
X107908905Y-148730617D01*
X108062665Y-148960735D01*
X108258365Y-149156435D01*
X108488483Y-149310195D01*
X108744177Y-149416106D01*
X109015620Y-149470100D01*
X109292380Y-149470100D01*
X109563823Y-149416106D01*
X109819517Y-149310195D01*
X110049635Y-149156435D01*
X110245335Y-148960735D01*
X110399095Y-148730617D01*
X110424000Y-148670490D01*
X110448905Y-148730617D01*
X110602665Y-148960735D01*
X110798365Y-149156435D01*
X111028483Y-149310195D01*
X111284177Y-149416106D01*
X111555620Y-149470100D01*
X111832380Y-149470100D01*
X112103823Y-149416106D01*
X112359517Y-149310195D01*
X112589635Y-149156435D01*
X112709692Y-149036378D01*
X113442327Y-149036378D01*
X113510276Y-149277287D01*
X113760668Y-149395187D01*
X114029250Y-149461972D01*
X114305701Y-149475077D01*
X114579395Y-149433996D01*
X114839817Y-149340310D01*
X114957724Y-149277287D01*
X115025673Y-149036378D01*
X114234000Y-148244705D01*
X113442327Y-149036378D01*
X112709692Y-149036378D01*
X112785335Y-148960735D01*
X112939095Y-148730617D01*
X112961626Y-148676222D01*
X113021813Y-148788824D01*
X113262722Y-148856773D01*
X114054395Y-148065100D01*
X114413605Y-148065100D01*
X115205278Y-148856773D01*
X115446187Y-148788824D01*
X115503020Y-148668124D01*
X115528905Y-148730617D01*
X115682665Y-148960735D01*
X115878365Y-149156435D01*
X116108483Y-149310195D01*
X116364177Y-149416106D01*
X116635620Y-149470100D01*
X116912380Y-149470100D01*
X117183823Y-149416106D01*
X117439517Y-149310195D01*
X117669635Y-149156435D01*
X117865335Y-148960735D01*
X118019095Y-148730617D01*
X118044000Y-148670490D01*
X118068905Y-148730617D01*
X118222665Y-148960735D01*
X118418365Y-149156435D01*
X118648483Y-149310195D01*
X118904177Y-149416106D01*
X119175620Y-149470100D01*
X119452380Y-149470100D01*
X119723823Y-149416106D01*
X119979517Y-149310195D01*
X119990356Y-149302952D01*
X121975753Y-149302952D01*
X122104076Y-149594971D01*
X122439695Y-149762823D01*
X122801611Y-149861974D01*
X123175916Y-149888614D01*
X123548227Y-149841718D01*
X123904235Y-149723088D01*
X124143924Y-149594971D01*
X124272247Y-149302952D01*
X132135753Y-149302952D01*
X132264076Y-149594971D01*
X132599695Y-149762823D01*
X132961611Y-149861974D01*
X133335916Y-149888614D01*
X133708227Y-149841718D01*
X134064235Y-149723088D01*
X134303924Y-149594971D01*
X134432247Y-149302952D01*
X133284000Y-148154705D01*
X132135753Y-149302952D01*
X124272247Y-149302952D01*
X123124000Y-148154705D01*
X121975753Y-149302952D01*
X119990356Y-149302952D01*
X120209635Y-149156435D01*
X120405335Y-148960735D01*
X120559095Y-148730617D01*
X120665006Y-148474923D01*
X120719000Y-148203480D01*
X120719000Y-148027016D01*
X121210486Y-148027016D01*
X121257382Y-148399327D01*
X121376012Y-148755335D01*
X121504129Y-148995024D01*
X121796148Y-149123347D01*
X122944395Y-147975100D01*
X123303605Y-147975100D01*
X124451852Y-149123347D01*
X124743871Y-148995024D01*
X124911723Y-148659405D01*
X125010874Y-148297489D01*
X125030124Y-148027016D01*
X131370486Y-148027016D01*
X131417382Y-148399327D01*
X131536012Y-148755335D01*
X131664129Y-148995024D01*
X131956148Y-149123347D01*
X133104395Y-147975100D01*
X133463605Y-147975100D01*
X134611852Y-149123347D01*
X134903871Y-148995024D01*
X135071723Y-148659405D01*
X135170874Y-148297489D01*
X135197262Y-147926720D01*
X135689000Y-147926720D01*
X135689000Y-148203480D01*
X135742994Y-148474923D01*
X135848905Y-148730617D01*
X136002665Y-148960735D01*
X136198365Y-149156435D01*
X136428483Y-149310195D01*
X136684177Y-149416106D01*
X136955620Y-149470100D01*
X137232380Y-149470100D01*
X137503823Y-149416106D01*
X137759517Y-149310195D01*
X137989635Y-149156435D01*
X138185335Y-148960735D01*
X138339095Y-148730617D01*
X138364000Y-148670490D01*
X138388905Y-148730617D01*
X138542665Y-148960735D01*
X138738365Y-149156435D01*
X138968483Y-149310195D01*
X139224177Y-149416106D01*
X139495620Y-149470100D01*
X139772380Y-149470100D01*
X140043823Y-149416106D01*
X140299517Y-149310195D01*
X140529635Y-149156435D01*
X140649692Y-149036378D01*
X141382327Y-149036378D01*
X141450276Y-149277287D01*
X141700668Y-149395187D01*
X141969250Y-149461972D01*
X142245701Y-149475077D01*
X142519395Y-149433996D01*
X142779817Y-149340310D01*
X142897724Y-149277287D01*
X142965673Y-149036378D01*
X142174000Y-148244705D01*
X141382327Y-149036378D01*
X140649692Y-149036378D01*
X140725335Y-148960735D01*
X140879095Y-148730617D01*
X140901626Y-148676222D01*
X140961813Y-148788824D01*
X141202722Y-148856773D01*
X141994395Y-148065100D01*
X141202722Y-147273427D01*
X140961813Y-147341376D01*
X140904980Y-147462076D01*
X140879095Y-147399583D01*
X140725335Y-147169465D01*
X140649692Y-147093822D01*
X141382327Y-147093822D01*
X142174000Y-147885495D01*
X142965673Y-147093822D01*
X142897724Y-146852913D01*
X142647332Y-146735013D01*
X142378750Y-146668228D01*
X142102299Y-146655123D01*
X141828605Y-146696204D01*
X141568183Y-146789890D01*
X141450276Y-146852913D01*
X141382327Y-147093822D01*
X140649692Y-147093822D01*
X140529635Y-146973765D01*
X140299517Y-146820005D01*
X140043823Y-146714094D01*
X139772380Y-146660100D01*
X139495620Y-146660100D01*
X139224177Y-146714094D01*
X138968483Y-146820005D01*
X138738365Y-146973765D01*
X138542665Y-147169465D01*
X138388905Y-147399583D01*
X138364000Y-147459710D01*
X138339095Y-147399583D01*
X138185335Y-147169465D01*
X137989635Y-146973765D01*
X137759517Y-146820005D01*
X137503823Y-146714094D01*
X137232380Y-146660100D01*
X136955620Y-146660100D01*
X136684177Y-146714094D01*
X136428483Y-146820005D01*
X136198365Y-146973765D01*
X136002665Y-147169465D01*
X135848905Y-147399583D01*
X135742994Y-147655277D01*
X135689000Y-147926720D01*
X135197262Y-147926720D01*
X135197514Y-147923184D01*
X135150618Y-147550873D01*
X135031988Y-147194865D01*
X134903871Y-146955176D01*
X134611852Y-146826853D01*
X133463605Y-147975100D01*
X133104395Y-147975100D01*
X131956148Y-146826853D01*
X131664129Y-146955176D01*
X131496277Y-147290795D01*
X131397126Y-147652711D01*
X131370486Y-148027016D01*
X125030124Y-148027016D01*
X125037514Y-147923184D01*
X124990618Y-147550873D01*
X124871988Y-147194865D01*
X124743871Y-146955176D01*
X124451852Y-146826853D01*
X123303605Y-147975100D01*
X122944395Y-147975100D01*
X121796148Y-146826853D01*
X121504129Y-146955176D01*
X121336277Y-147290795D01*
X121237126Y-147652711D01*
X121210486Y-148027016D01*
X120719000Y-148027016D01*
X120719000Y-147926720D01*
X120665006Y-147655277D01*
X120559095Y-147399583D01*
X120405335Y-147169465D01*
X120209635Y-146973765D01*
X119979517Y-146820005D01*
X119723823Y-146714094D01*
X119452380Y-146660100D01*
X119175620Y-146660100D01*
X118904177Y-146714094D01*
X118648483Y-146820005D01*
X118418365Y-146973765D01*
X118222665Y-147169465D01*
X118068905Y-147399583D01*
X118044000Y-147459710D01*
X118019095Y-147399583D01*
X117865335Y-147169465D01*
X117669635Y-146973765D01*
X117439517Y-146820005D01*
X117183823Y-146714094D01*
X116912380Y-146660100D01*
X116635620Y-146660100D01*
X116364177Y-146714094D01*
X116108483Y-146820005D01*
X115878365Y-146973765D01*
X115682665Y-147169465D01*
X115528905Y-147399583D01*
X115506374Y-147453978D01*
X115446187Y-147341376D01*
X115205278Y-147273427D01*
X114413605Y-148065100D01*
X114054395Y-148065100D01*
X113262722Y-147273427D01*
X113021813Y-147341376D01*
X112964980Y-147462076D01*
X112939095Y-147399583D01*
X112785335Y-147169465D01*
X112709692Y-147093822D01*
X113442327Y-147093822D01*
X114234000Y-147885495D01*
X115025673Y-147093822D01*
X114957724Y-146852913D01*
X114707332Y-146735013D01*
X114438750Y-146668228D01*
X114162299Y-146655123D01*
X113888605Y-146696204D01*
X113628183Y-146789890D01*
X113510276Y-146852913D01*
X113442327Y-147093822D01*
X112709692Y-147093822D01*
X112589635Y-146973765D01*
X112359517Y-146820005D01*
X112103823Y-146714094D01*
X111832380Y-146660100D01*
X111555620Y-146660100D01*
X111284177Y-146714094D01*
X111028483Y-146820005D01*
X110798365Y-146973765D01*
X110602665Y-147169465D01*
X110448905Y-147399583D01*
X110424000Y-147459710D01*
X110399095Y-147399583D01*
X110245335Y-147169465D01*
X110049635Y-146973765D01*
X109819517Y-146820005D01*
X109759390Y-146795100D01*
X109819517Y-146770195D01*
X110049635Y-146616435D01*
X110245335Y-146420735D01*
X110399095Y-146190617D01*
X110505006Y-145934923D01*
X110559000Y-145663480D01*
X110559000Y-145386720D01*
X110505006Y-145115277D01*
X110399095Y-144859583D01*
X110245335Y-144629465D01*
X110049635Y-144433765D01*
X109819517Y-144280005D01*
X109765122Y-144257474D01*
X109877724Y-144197287D01*
X109945673Y-143956378D01*
X109154000Y-143164705D01*
X108362327Y-143956378D01*
X108430276Y-144197287D01*
X108550976Y-144254120D01*
X108488483Y-144280005D01*
X108258365Y-144433765D01*
X108062665Y-144629465D01*
X107908905Y-144859583D01*
X107802994Y-145115277D01*
X107749000Y-145386720D01*
X101087811Y-145386720D01*
X101087811Y-143056801D01*
X107744023Y-143056801D01*
X107785104Y-143330495D01*
X107878790Y-143590917D01*
X107941813Y-143708824D01*
X108182722Y-143776773D01*
X108974395Y-142985100D01*
X109333605Y-142985100D01*
X110125278Y-143776773D01*
X110366187Y-143708824D01*
X110484087Y-143458432D01*
X110550872Y-143189850D01*
X110563977Y-142913399D01*
X110522896Y-142639705D01*
X110429210Y-142379283D01*
X110366187Y-142261376D01*
X110125278Y-142193427D01*
X109333605Y-142985100D01*
X108974395Y-142985100D01*
X108182722Y-142193427D01*
X107941813Y-142261376D01*
X107823913Y-142511768D01*
X107757128Y-142780350D01*
X107744023Y-143056801D01*
X101087811Y-143056801D01*
X101087811Y-109826720D01*
X107749000Y-109826720D01*
X107749000Y-110103480D01*
X107802994Y-110374923D01*
X107908905Y-110630617D01*
X108062665Y-110860735D01*
X108258365Y-111056435D01*
X108488483Y-111210195D01*
X108548610Y-111235100D01*
X108488483Y-111260005D01*
X108258365Y-111413765D01*
X108062665Y-111609465D01*
X107908905Y-111839583D01*
X107802994Y-112095277D01*
X107749000Y-112366720D01*
X107749000Y-112643480D01*
X107802994Y-112914923D01*
X107908905Y-113170617D01*
X108062665Y-113400735D01*
X108258365Y-113596435D01*
X108488483Y-113750195D01*
X108548610Y-113775100D01*
X108488483Y-113800005D01*
X108258365Y-113953765D01*
X108062665Y-114149465D01*
X107908905Y-114379583D01*
X107802994Y-114635277D01*
X107749000Y-114906720D01*
X107749000Y-115183480D01*
X107802994Y-115454923D01*
X107908905Y-115710617D01*
X108062665Y-115940735D01*
X108258365Y-116136435D01*
X108488483Y-116290195D01*
X108548610Y-116315100D01*
X108488483Y-116340005D01*
X108258365Y-116493765D01*
X108062665Y-116689465D01*
X107908905Y-116919583D01*
X107802994Y-117175277D01*
X107749000Y-117446720D01*
X107749000Y-117723480D01*
X107802994Y-117994923D01*
X107908905Y-118250617D01*
X108062665Y-118480735D01*
X108258365Y-118676435D01*
X108488483Y-118830195D01*
X108548610Y-118855100D01*
X108488483Y-118880005D01*
X108258365Y-119033765D01*
X108062665Y-119229465D01*
X107908905Y-119459583D01*
X107802994Y-119715277D01*
X107749000Y-119986720D01*
X107749000Y-120263480D01*
X107802994Y-120534923D01*
X107908905Y-120790617D01*
X108062665Y-121020735D01*
X108258365Y-121216435D01*
X108488483Y-121370195D01*
X108548610Y-121395100D01*
X108488483Y-121420005D01*
X108258365Y-121573765D01*
X108062665Y-121769465D01*
X107908905Y-121999583D01*
X107802994Y-122255277D01*
X107749000Y-122526720D01*
X107749000Y-122803480D01*
X107802994Y-123074923D01*
X107908905Y-123330617D01*
X108062665Y-123560735D01*
X108258365Y-123756435D01*
X108488483Y-123910195D01*
X108548610Y-123935100D01*
X108488483Y-123960005D01*
X108258365Y-124113765D01*
X108062665Y-124309465D01*
X107908905Y-124539583D01*
X107802994Y-124795277D01*
X107749000Y-125066720D01*
X107749000Y-125343480D01*
X107802994Y-125614923D01*
X107908905Y-125870617D01*
X108062665Y-126100735D01*
X108258365Y-126296435D01*
X108488483Y-126450195D01*
X108548610Y-126475100D01*
X108488483Y-126500005D01*
X108258365Y-126653765D01*
X108062665Y-126849465D01*
X107908905Y-127079583D01*
X107802994Y-127335277D01*
X107749000Y-127606720D01*
X107749000Y-127883480D01*
X107802994Y-128154923D01*
X107908905Y-128410617D01*
X108062665Y-128640735D01*
X108258365Y-128836435D01*
X108488483Y-128990195D01*
X108548610Y-129015100D01*
X108488483Y-129040005D01*
X108258365Y-129193765D01*
X108062665Y-129389465D01*
X107908905Y-129619583D01*
X107802994Y-129875277D01*
X107749000Y-130146720D01*
X107749000Y-130423480D01*
X107802994Y-130694923D01*
X107908905Y-130950617D01*
X108062665Y-131180735D01*
X108258365Y-131376435D01*
X108488483Y-131530195D01*
X108548610Y-131555100D01*
X108488483Y-131580005D01*
X108258365Y-131733765D01*
X108062665Y-131929465D01*
X107908905Y-132159583D01*
X107802994Y-132415277D01*
X107749000Y-132686720D01*
X107749000Y-132963480D01*
X107802994Y-133234923D01*
X107908905Y-133490617D01*
X108062665Y-133720735D01*
X108258365Y-133916435D01*
X108488483Y-134070195D01*
X108548610Y-134095100D01*
X108488483Y-134120005D01*
X108258365Y-134273765D01*
X108062665Y-134469465D01*
X107908905Y-134699583D01*
X107802994Y-134955277D01*
X107749000Y-135226720D01*
X107749000Y-135503480D01*
X107802994Y-135774923D01*
X107908905Y-136030617D01*
X108062665Y-136260735D01*
X108258365Y-136456435D01*
X108488483Y-136610195D01*
X108548610Y-136635100D01*
X108488483Y-136660005D01*
X108258365Y-136813765D01*
X108062665Y-137009465D01*
X107908905Y-137239583D01*
X107802994Y-137495277D01*
X107749000Y-137766720D01*
X107749000Y-138043480D01*
X107802994Y-138314923D01*
X107908905Y-138570617D01*
X108062665Y-138800735D01*
X108258365Y-138996435D01*
X108488483Y-139150195D01*
X108548610Y-139175100D01*
X108488483Y-139200005D01*
X108258365Y-139353765D01*
X108062665Y-139549465D01*
X107908905Y-139779583D01*
X107802994Y-140035277D01*
X107749000Y-140306720D01*
X107749000Y-140583480D01*
X107802994Y-140854923D01*
X107908905Y-141110617D01*
X108062665Y-141340735D01*
X108258365Y-141536435D01*
X108488483Y-141690195D01*
X108542878Y-141712726D01*
X108430276Y-141772913D01*
X108362327Y-142013822D01*
X109154000Y-142805495D01*
X109945673Y-142013822D01*
X109877724Y-141772913D01*
X109757024Y-141716080D01*
X109819517Y-141690195D01*
X109869696Y-141656666D01*
X111694811Y-141656666D01*
X111694811Y-141856800D01*
X111733855Y-142053089D01*
X111810443Y-142237989D01*
X111921632Y-142404395D01*
X112023970Y-142506733D01*
X111921632Y-142609071D01*
X111810443Y-142775477D01*
X111733855Y-142960377D01*
X111694811Y-143156666D01*
X111694811Y-143356800D01*
X111733855Y-143553089D01*
X111810443Y-143737989D01*
X111921632Y-143904395D01*
X112023970Y-144006733D01*
X111921632Y-144109071D01*
X111810443Y-144275477D01*
X111733855Y-144460377D01*
X111694811Y-144656666D01*
X111694811Y-144856800D01*
X111733855Y-145053089D01*
X111810443Y-145237989D01*
X111921632Y-145404395D01*
X112063149Y-145545912D01*
X112229555Y-145657101D01*
X112414455Y-145733689D01*
X112610744Y-145772733D01*
X112810878Y-145772733D01*
X113007167Y-145733689D01*
X113192067Y-145657101D01*
X113358473Y-145545912D01*
X113499990Y-145404395D01*
X113611179Y-145237989D01*
X113687767Y-145053089D01*
X113726811Y-144856800D01*
X113726811Y-144656666D01*
X113687767Y-144460377D01*
X113611179Y-144275477D01*
X113499990Y-144109071D01*
X113397652Y-144006733D01*
X113499990Y-143904395D01*
X113611179Y-143737989D01*
X113687767Y-143553089D01*
X113726811Y-143356800D01*
X113726811Y-143156666D01*
X113687767Y-142960377D01*
X113611179Y-142775477D01*
X113499990Y-142609071D01*
X113397652Y-142506733D01*
X113499990Y-142404395D01*
X113611179Y-142237989D01*
X113687767Y-142053089D01*
X113726811Y-141856800D01*
X113726811Y-141656666D01*
X113687767Y-141460377D01*
X113611179Y-141275477D01*
X113499990Y-141109071D01*
X113358473Y-140967554D01*
X113192067Y-140856365D01*
X113007167Y-140779777D01*
X112810878Y-140740733D01*
X112610744Y-140740733D01*
X112414455Y-140779777D01*
X112229555Y-140856365D01*
X112063149Y-140967554D01*
X111921632Y-141109071D01*
X111810443Y-141275477D01*
X111733855Y-141460377D01*
X111694811Y-141656666D01*
X109869696Y-141656666D01*
X110049635Y-141536435D01*
X110245335Y-141340735D01*
X110399095Y-141110617D01*
X110505006Y-140854923D01*
X110559000Y-140583480D01*
X110559000Y-140306720D01*
X110505006Y-140035277D01*
X110399095Y-139779583D01*
X110245335Y-139549465D01*
X110049635Y-139353765D01*
X109819517Y-139200005D01*
X109759390Y-139175100D01*
X109819517Y-139150195D01*
X110049635Y-138996435D01*
X110245335Y-138800735D01*
X110399095Y-138570617D01*
X110505006Y-138314923D01*
X110559000Y-138043480D01*
X110559000Y-137766720D01*
X110505006Y-137495277D01*
X110399095Y-137239583D01*
X110245335Y-137009465D01*
X110049635Y-136813765D01*
X109819517Y-136660005D01*
X109759390Y-136635100D01*
X109819517Y-136610195D01*
X110049635Y-136456435D01*
X110245335Y-136260735D01*
X110399095Y-136030617D01*
X110505006Y-135774923D01*
X110559000Y-135503480D01*
X110559000Y-135226720D01*
X110505006Y-134955277D01*
X110399095Y-134699583D01*
X110245335Y-134469465D01*
X110049635Y-134273765D01*
X109819517Y-134120005D01*
X109759390Y-134095100D01*
X109819517Y-134070195D01*
X110049635Y-133916435D01*
X110245335Y-133720735D01*
X110399095Y-133490617D01*
X110505006Y-133234923D01*
X110559000Y-132963480D01*
X110559000Y-132686720D01*
X110553022Y-132656666D01*
X111694811Y-132656666D01*
X111694811Y-132856800D01*
X111733855Y-133053089D01*
X111810443Y-133237989D01*
X111921632Y-133404395D01*
X112023970Y-133506733D01*
X111921632Y-133609071D01*
X111810443Y-133775477D01*
X111733855Y-133960377D01*
X111694811Y-134156666D01*
X111694811Y-134356800D01*
X111733855Y-134553089D01*
X111810443Y-134737989D01*
X111921632Y-134904395D01*
X112023970Y-135006733D01*
X111921632Y-135109071D01*
X111810443Y-135275477D01*
X111733855Y-135460377D01*
X111694811Y-135656666D01*
X111694811Y-135856800D01*
X111733855Y-136053089D01*
X111810443Y-136237989D01*
X111921632Y-136404395D01*
X112063149Y-136545912D01*
X112229555Y-136657101D01*
X112414455Y-136733689D01*
X112610744Y-136772733D01*
X112810878Y-136772733D01*
X113007167Y-136733689D01*
X113192067Y-136657101D01*
X113358473Y-136545912D01*
X113499990Y-136404395D01*
X113611179Y-136237989D01*
X113687767Y-136053089D01*
X113726811Y-135856800D01*
X113726811Y-135656666D01*
X113687767Y-135460377D01*
X113611179Y-135275477D01*
X113499990Y-135109071D01*
X113397652Y-135006733D01*
X113499990Y-134904395D01*
X113611179Y-134737989D01*
X113687767Y-134553089D01*
X113726811Y-134356800D01*
X113726811Y-134156666D01*
X113687767Y-133960377D01*
X113611179Y-133775477D01*
X113499990Y-133609071D01*
X113397652Y-133506733D01*
X113499990Y-133404395D01*
X113611179Y-133237989D01*
X113687767Y-133053089D01*
X113726811Y-132856800D01*
X113726811Y-132656666D01*
X113687767Y-132460377D01*
X113611179Y-132275477D01*
X113499990Y-132109071D01*
X113358473Y-131967554D01*
X113192067Y-131856365D01*
X113007167Y-131779777D01*
X112810878Y-131740733D01*
X112610744Y-131740733D01*
X112414455Y-131779777D01*
X112229555Y-131856365D01*
X112063149Y-131967554D01*
X111921632Y-132109071D01*
X111810443Y-132275477D01*
X111733855Y-132460377D01*
X111694811Y-132656666D01*
X110553022Y-132656666D01*
X110505006Y-132415277D01*
X110399095Y-132159583D01*
X110245335Y-131929465D01*
X110049635Y-131733765D01*
X109819517Y-131580005D01*
X109759390Y-131555100D01*
X109819517Y-131530195D01*
X110049635Y-131376435D01*
X110245335Y-131180735D01*
X110399095Y-130950617D01*
X110505006Y-130694923D01*
X110559000Y-130423480D01*
X110559000Y-130146720D01*
X110505006Y-129875277D01*
X110399095Y-129619583D01*
X110245335Y-129389465D01*
X110049635Y-129193765D01*
X109819517Y-129040005D01*
X109759390Y-129015100D01*
X109819517Y-128990195D01*
X110049635Y-128836435D01*
X110245335Y-128640735D01*
X110399095Y-128410617D01*
X110505006Y-128154923D01*
X110559000Y-127883480D01*
X110559000Y-127606720D01*
X110505006Y-127335277D01*
X110399095Y-127079583D01*
X110245335Y-126849465D01*
X110049635Y-126653765D01*
X109819517Y-126500005D01*
X109759390Y-126475100D01*
X109819517Y-126450195D01*
X110049635Y-126296435D01*
X110245335Y-126100735D01*
X110399095Y-125870617D01*
X110505006Y-125614923D01*
X110559000Y-125343480D01*
X110559000Y-125066720D01*
X110505006Y-124795277D01*
X110399095Y-124539583D01*
X110245335Y-124309465D01*
X110049635Y-124113765D01*
X109819517Y-123960005D01*
X109759390Y-123935100D01*
X109819517Y-123910195D01*
X110049635Y-123756435D01*
X110245335Y-123560735D01*
X110399095Y-123330617D01*
X110505006Y-123074923D01*
X110559000Y-122803480D01*
X110559000Y-122526720D01*
X110505006Y-122255277D01*
X110399095Y-121999583D01*
X110245335Y-121769465D01*
X110049635Y-121573765D01*
X109819517Y-121420005D01*
X109759390Y-121395100D01*
X109819517Y-121370195D01*
X110049635Y-121216435D01*
X110245335Y-121020735D01*
X110399095Y-120790617D01*
X110505006Y-120534923D01*
X110559000Y-120263480D01*
X110559000Y-120142000D01*
X119507000Y-120142000D01*
X119507000Y-146050000D01*
X119509440Y-146074776D01*
X119516667Y-146098601D01*
X119528403Y-146120557D01*
X119544197Y-146139803D01*
X119563443Y-146155597D01*
X119585399Y-146167333D01*
X119609224Y-146174560D01*
X119634000Y-146177000D01*
X122494151Y-146177000D01*
X122343765Y-146227112D01*
X122104076Y-146355229D01*
X121975753Y-146647248D01*
X123124000Y-147795495D01*
X124272247Y-146647248D01*
X124143924Y-146355229D01*
X123808305Y-146187377D01*
X123770427Y-146177000D01*
X132654151Y-146177000D01*
X132503765Y-146227112D01*
X132264076Y-146355229D01*
X132135753Y-146647248D01*
X133284000Y-147795495D01*
X134432247Y-146647248D01*
X134303924Y-146355229D01*
X133968305Y-146187377D01*
X133930427Y-146177000D01*
X145796000Y-146177000D01*
X145820776Y-146174560D01*
X145844601Y-146167333D01*
X145866557Y-146155597D01*
X145885803Y-146139803D01*
X145901597Y-146120557D01*
X145913333Y-146098601D01*
X145920560Y-146074776D01*
X145923000Y-146050000D01*
X145923000Y-145983222D01*
X146008905Y-146190617D01*
X146162665Y-146420735D01*
X146358365Y-146616435D01*
X146588483Y-146770195D01*
X146648610Y-146795100D01*
X146588483Y-146820005D01*
X146358365Y-146973765D01*
X146162665Y-147169465D01*
X146008905Y-147399583D01*
X145984000Y-147459710D01*
X145959095Y-147399583D01*
X145805335Y-147169465D01*
X145609635Y-146973765D01*
X145379517Y-146820005D01*
X145123823Y-146714094D01*
X144852380Y-146660100D01*
X144575620Y-146660100D01*
X144304177Y-146714094D01*
X144048483Y-146820005D01*
X143818365Y-146973765D01*
X143622665Y-147169465D01*
X143468905Y-147399583D01*
X143446374Y-147453978D01*
X143386187Y-147341376D01*
X143145278Y-147273427D01*
X142353605Y-148065100D01*
X143145278Y-148856773D01*
X143386187Y-148788824D01*
X143443020Y-148668124D01*
X143468905Y-148730617D01*
X143622665Y-148960735D01*
X143818365Y-149156435D01*
X144048483Y-149310195D01*
X144304177Y-149416106D01*
X144575620Y-149470100D01*
X144852380Y-149470100D01*
X145123823Y-149416106D01*
X145379517Y-149310195D01*
X145609635Y-149156435D01*
X145805335Y-148960735D01*
X145959095Y-148730617D01*
X145984000Y-148670490D01*
X146008905Y-148730617D01*
X146162665Y-148960735D01*
X146358365Y-149156435D01*
X146588483Y-149310195D01*
X146844177Y-149416106D01*
X147115620Y-149470100D01*
X147392380Y-149470100D01*
X147663823Y-149416106D01*
X147919517Y-149310195D01*
X148149635Y-149156435D01*
X148345335Y-148960735D01*
X148499095Y-148730617D01*
X148605006Y-148474923D01*
X148659000Y-148203480D01*
X148659000Y-147926720D01*
X148605006Y-147655277D01*
X148499095Y-147399583D01*
X148345335Y-147169465D01*
X148149635Y-146973765D01*
X147919517Y-146820005D01*
X147859390Y-146795100D01*
X147919517Y-146770195D01*
X148149635Y-146616435D01*
X148345335Y-146420735D01*
X148499095Y-146190617D01*
X148605006Y-145934923D01*
X148659000Y-145663480D01*
X148659000Y-145386720D01*
X148605006Y-145115277D01*
X148499095Y-144859583D01*
X148345335Y-144629465D01*
X148149635Y-144433765D01*
X147919517Y-144280005D01*
X147859390Y-144255100D01*
X147919517Y-144230195D01*
X148149635Y-144076435D01*
X148206963Y-144019107D01*
X155905811Y-144019107D01*
X155905811Y-144394359D01*
X155979020Y-144762401D01*
X156122622Y-145109089D01*
X156331101Y-145421099D01*
X156596445Y-145686443D01*
X156908455Y-145894922D01*
X157255143Y-146038524D01*
X157623185Y-146111733D01*
X157998437Y-146111733D01*
X158366479Y-146038524D01*
X158713167Y-145894922D01*
X159025177Y-145686443D01*
X159290521Y-145421099D01*
X159499000Y-145109089D01*
X159642602Y-144762401D01*
X159715811Y-144394359D01*
X159715811Y-144019107D01*
X159642602Y-143651065D01*
X159499000Y-143304377D01*
X159290521Y-142992367D01*
X159025177Y-142727023D01*
X158713167Y-142518544D01*
X158366479Y-142374942D01*
X157998437Y-142301733D01*
X157623185Y-142301733D01*
X157255143Y-142374942D01*
X156908455Y-142518544D01*
X156596445Y-142727023D01*
X156331101Y-142992367D01*
X156122622Y-143304377D01*
X155979020Y-143651065D01*
X155905811Y-144019107D01*
X148206963Y-144019107D01*
X148345335Y-143880735D01*
X148499095Y-143650617D01*
X148605006Y-143394923D01*
X148659000Y-143123480D01*
X148659000Y-142846720D01*
X148605006Y-142575277D01*
X148499095Y-142319583D01*
X148345335Y-142089465D01*
X148149635Y-141893765D01*
X147919517Y-141740005D01*
X147859390Y-141715100D01*
X147919517Y-141690195D01*
X148149635Y-141536435D01*
X148345335Y-141340735D01*
X148499095Y-141110617D01*
X148605006Y-140854923D01*
X148649360Y-140631944D01*
X148727097Y-140819618D01*
X148891801Y-141066115D01*
X149101429Y-141275743D01*
X149347926Y-141440447D01*
X149621819Y-141553897D01*
X149912581Y-141611733D01*
X150209041Y-141611733D01*
X150499803Y-141553897D01*
X150773696Y-141440447D01*
X151020193Y-141275743D01*
X151229821Y-141066115D01*
X151394525Y-140819618D01*
X151507975Y-140545725D01*
X151565811Y-140254963D01*
X151565811Y-139958503D01*
X153055811Y-139958503D01*
X153055811Y-140254963D01*
X153113647Y-140545725D01*
X153227097Y-140819618D01*
X153391801Y-141066115D01*
X153601429Y-141275743D01*
X153847926Y-141440447D01*
X154121819Y-141553897D01*
X154412581Y-141611733D01*
X154709041Y-141611733D01*
X154999803Y-141553897D01*
X155273696Y-141440447D01*
X155520193Y-141275743D01*
X155729821Y-141066115D01*
X155894525Y-140819618D01*
X156007975Y-140545725D01*
X156065811Y-140254963D01*
X156065811Y-139958503D01*
X158155811Y-139958503D01*
X158155811Y-140254963D01*
X158213647Y-140545725D01*
X158327097Y-140819618D01*
X158491801Y-141066115D01*
X158701429Y-141275743D01*
X158947926Y-141440447D01*
X159221819Y-141553897D01*
X159512581Y-141611733D01*
X159809041Y-141611733D01*
X160099803Y-141553897D01*
X160373696Y-141440447D01*
X160620193Y-141275743D01*
X160829821Y-141066115D01*
X160994525Y-140819618D01*
X161107975Y-140545725D01*
X161165811Y-140254963D01*
X161165811Y-139958503D01*
X161107975Y-139667741D01*
X160994525Y-139393848D01*
X160829821Y-139147351D01*
X160620193Y-138937723D01*
X160373696Y-138773019D01*
X160099803Y-138659569D01*
X159809041Y-138601733D01*
X159512581Y-138601733D01*
X159221819Y-138659569D01*
X158947926Y-138773019D01*
X158701429Y-138937723D01*
X158491801Y-139147351D01*
X158327097Y-139393848D01*
X158213647Y-139667741D01*
X158155811Y-139958503D01*
X156065811Y-139958503D01*
X156007975Y-139667741D01*
X155894525Y-139393848D01*
X155729821Y-139147351D01*
X155520193Y-138937723D01*
X155273696Y-138773019D01*
X154999803Y-138659569D01*
X154709041Y-138601733D01*
X154412581Y-138601733D01*
X154121819Y-138659569D01*
X153847926Y-138773019D01*
X153601429Y-138937723D01*
X153391801Y-139147351D01*
X153227097Y-139393848D01*
X153113647Y-139667741D01*
X153055811Y-139958503D01*
X151565811Y-139958503D01*
X151507975Y-139667741D01*
X151394525Y-139393848D01*
X151229821Y-139147351D01*
X151020193Y-138937723D01*
X150773696Y-138773019D01*
X150499803Y-138659569D01*
X150209041Y-138601733D01*
X149912581Y-138601733D01*
X149621819Y-138659569D01*
X149347926Y-138773019D01*
X149101429Y-138937723D01*
X148891801Y-139147351D01*
X148727097Y-139393848D01*
X148613647Y-139667741D01*
X148561454Y-139930133D01*
X148499095Y-139779583D01*
X148345335Y-139549465D01*
X148149635Y-139353765D01*
X147919517Y-139200005D01*
X147859390Y-139175100D01*
X147919517Y-139150195D01*
X148149635Y-138996435D01*
X148345335Y-138800735D01*
X148499095Y-138570617D01*
X148605006Y-138314923D01*
X148659000Y-138043480D01*
X148659000Y-137766720D01*
X148605006Y-137495277D01*
X148499095Y-137239583D01*
X148345335Y-137009465D01*
X148149635Y-136813765D01*
X147919517Y-136660005D01*
X147859390Y-136635100D01*
X147919517Y-136610195D01*
X148149635Y-136456435D01*
X148345335Y-136260735D01*
X148499095Y-136030617D01*
X148605006Y-135774923D01*
X148659000Y-135503480D01*
X148659000Y-135226720D01*
X148605006Y-134955277D01*
X148499095Y-134699583D01*
X148345335Y-134469465D01*
X148149635Y-134273765D01*
X147919517Y-134120005D01*
X147859390Y-134095100D01*
X147919517Y-134070195D01*
X148149635Y-133916435D01*
X148345335Y-133720735D01*
X148499095Y-133490617D01*
X148605006Y-133234923D01*
X148659000Y-132963480D01*
X148659000Y-132686720D01*
X148605006Y-132415277D01*
X148499095Y-132159583D01*
X148345335Y-131929465D01*
X148149635Y-131733765D01*
X147919517Y-131580005D01*
X147859390Y-131555100D01*
X147919517Y-131530195D01*
X148149635Y-131376435D01*
X148345335Y-131180735D01*
X148499095Y-130950617D01*
X148605006Y-130694923D01*
X148622548Y-130606733D01*
X153503703Y-130606733D01*
X153508311Y-130653517D01*
X153508311Y-130700546D01*
X153517486Y-130746673D01*
X153522094Y-130793456D01*
X153535740Y-130838440D01*
X153544915Y-130884567D01*
X153562914Y-130928021D01*
X153576559Y-130973002D01*
X153598716Y-131014456D01*
X153616716Y-131057911D01*
X153642846Y-131097018D01*
X153665005Y-131138474D01*
X153694828Y-131174813D01*
X153720956Y-131213917D01*
X153754208Y-131247169D01*
X153784033Y-131283511D01*
X153820375Y-131313336D01*
X153853627Y-131346588D01*
X153892731Y-131372716D01*
X153929070Y-131402539D01*
X153970526Y-131424698D01*
X154009633Y-131450828D01*
X154053088Y-131468828D01*
X154094542Y-131490985D01*
X154139523Y-131504630D01*
X154182977Y-131522629D01*
X154229104Y-131531804D01*
X154274088Y-131545450D01*
X154320871Y-131550058D01*
X154366998Y-131559233D01*
X158414026Y-131559233D01*
X158460811Y-131563841D01*
X158507596Y-131559233D01*
X158647534Y-131545450D01*
X158649660Y-131544805D01*
X159310811Y-131544805D01*
X159435293Y-131532545D01*
X159554991Y-131496235D01*
X159665305Y-131437270D01*
X159761996Y-131357918D01*
X159841348Y-131261227D01*
X159900313Y-131150913D01*
X159936623Y-131031215D01*
X159948883Y-130906733D01*
X159948883Y-130306733D01*
X159936623Y-130182251D01*
X159900313Y-130062553D01*
X159857113Y-129981733D01*
X159900313Y-129900913D01*
X159936623Y-129781215D01*
X159948883Y-129656733D01*
X159948883Y-129056733D01*
X159936623Y-128932251D01*
X159900313Y-128812553D01*
X159857113Y-128731733D01*
X159900313Y-128650913D01*
X159936623Y-128531215D01*
X159948883Y-128406733D01*
X159948883Y-127806733D01*
X159936623Y-127682251D01*
X159900313Y-127562553D01*
X159857113Y-127481733D01*
X159900313Y-127400913D01*
X159936623Y-127281215D01*
X159948883Y-127156733D01*
X159948883Y-126556733D01*
X159936623Y-126432251D01*
X159900313Y-126312553D01*
X159857113Y-126231733D01*
X159900313Y-126150913D01*
X159936623Y-126031215D01*
X159948883Y-125906733D01*
X159948883Y-125306733D01*
X159936623Y-125182251D01*
X159900313Y-125062553D01*
X159841348Y-124952239D01*
X159761996Y-124855548D01*
X159665305Y-124776196D01*
X159554991Y-124717231D01*
X159435293Y-124680921D01*
X159310811Y-124668661D01*
X158649660Y-124668661D01*
X158647534Y-124668016D01*
X158460811Y-124649625D01*
X158274089Y-124668016D01*
X158271963Y-124668661D01*
X157610811Y-124668661D01*
X157486329Y-124680921D01*
X157366631Y-124717231D01*
X157256317Y-124776196D01*
X157159626Y-124855548D01*
X157080274Y-124952239D01*
X157021309Y-125062553D01*
X156984999Y-125182251D01*
X156972739Y-125306733D01*
X156972739Y-125906733D01*
X156984999Y-126031215D01*
X157021309Y-126150913D01*
X157064509Y-126231733D01*
X157021309Y-126312553D01*
X156984999Y-126432251D01*
X156972739Y-126556733D01*
X156972739Y-127156733D01*
X156984999Y-127281215D01*
X157021309Y-127400913D01*
X157064509Y-127481733D01*
X157021309Y-127562553D01*
X156984999Y-127682251D01*
X156972739Y-127806733D01*
X156972739Y-128406733D01*
X156984999Y-128531215D01*
X157021309Y-128650913D01*
X157064509Y-128731733D01*
X157021309Y-128812553D01*
X156984999Y-128932251D01*
X156972739Y-129056733D01*
X156972739Y-129654233D01*
X154366998Y-129654233D01*
X154320871Y-129663408D01*
X154274088Y-129668016D01*
X154229104Y-129681662D01*
X154182977Y-129690837D01*
X154139523Y-129708836D01*
X154094542Y-129722481D01*
X154053088Y-129744638D01*
X154009633Y-129762638D01*
X153970526Y-129788768D01*
X153929070Y-129810927D01*
X153892731Y-129840750D01*
X153853627Y-129866878D01*
X153820375Y-129900130D01*
X153784033Y-129929955D01*
X153754208Y-129966297D01*
X153720956Y-129999549D01*
X153694828Y-130038653D01*
X153665005Y-130074992D01*
X153642846Y-130116448D01*
X153616716Y-130155555D01*
X153598716Y-130199010D01*
X153576559Y-130240464D01*
X153562914Y-130285445D01*
X153544915Y-130328899D01*
X153535740Y-130375026D01*
X153522094Y-130420010D01*
X153517486Y-130466793D01*
X153508311Y-130512920D01*
X153508311Y-130559948D01*
X153503703Y-130606733D01*
X148622548Y-130606733D01*
X148659000Y-130423480D01*
X148659000Y-130146720D01*
X148605006Y-129875277D01*
X148499095Y-129619583D01*
X148345335Y-129389465D01*
X148149635Y-129193765D01*
X147919517Y-129040005D01*
X147859390Y-129015100D01*
X147919517Y-128990195D01*
X148149635Y-128836435D01*
X148345335Y-128640735D01*
X148499095Y-128410617D01*
X148605006Y-128154923D01*
X148659000Y-127883480D01*
X148659000Y-127606720D01*
X148605006Y-127335277D01*
X148499095Y-127079583D01*
X148345335Y-126849465D01*
X148149635Y-126653765D01*
X147919517Y-126500005D01*
X147859390Y-126475100D01*
X147919517Y-126450195D01*
X148149635Y-126296435D01*
X148345335Y-126100735D01*
X148499095Y-125870617D01*
X148605006Y-125614923D01*
X148659000Y-125343480D01*
X148659000Y-125066720D01*
X148605006Y-124795277D01*
X148499095Y-124539583D01*
X148345335Y-124309465D01*
X148149635Y-124113765D01*
X147919517Y-123960005D01*
X147859390Y-123935100D01*
X147919517Y-123910195D01*
X148149635Y-123756435D01*
X148345335Y-123560735D01*
X148499095Y-123330617D01*
X148605006Y-123074923D01*
X148659000Y-122803480D01*
X148659000Y-122526720D01*
X148605006Y-122255277D01*
X148499095Y-121999583D01*
X148345335Y-121769465D01*
X148149635Y-121573765D01*
X147919517Y-121420005D01*
X147859390Y-121395100D01*
X147919517Y-121370195D01*
X148149635Y-121216435D01*
X148345335Y-121020735D01*
X148499095Y-120790617D01*
X148605006Y-120534923D01*
X148659000Y-120263480D01*
X148659000Y-119986720D01*
X148605006Y-119715277D01*
X148499095Y-119459583D01*
X148345335Y-119229465D01*
X148149635Y-119033765D01*
X147919517Y-118880005D01*
X147859390Y-118855100D01*
X147919517Y-118830195D01*
X148149635Y-118676435D01*
X148345335Y-118480735D01*
X148499095Y-118250617D01*
X148563703Y-118094638D01*
X148613647Y-118345725D01*
X148727097Y-118619618D01*
X148891801Y-118866115D01*
X149101429Y-119075743D01*
X149347926Y-119240447D01*
X149621819Y-119353897D01*
X149912581Y-119411733D01*
X150209041Y-119411733D01*
X150499803Y-119353897D01*
X150773696Y-119240447D01*
X151020193Y-119075743D01*
X151229821Y-118866115D01*
X151394525Y-118619618D01*
X151507975Y-118345725D01*
X151565811Y-118054963D01*
X151565811Y-117758503D01*
X153055811Y-117758503D01*
X153055811Y-118054963D01*
X153113647Y-118345725D01*
X153227097Y-118619618D01*
X153391801Y-118866115D01*
X153601429Y-119075743D01*
X153847926Y-119240447D01*
X154121819Y-119353897D01*
X154412581Y-119411733D01*
X154709041Y-119411733D01*
X154999803Y-119353897D01*
X155273696Y-119240447D01*
X155520193Y-119075743D01*
X155729821Y-118866115D01*
X155894525Y-118619618D01*
X156007975Y-118345725D01*
X156065811Y-118054963D01*
X156065811Y-117758503D01*
X158155811Y-117758503D01*
X158155811Y-118054963D01*
X158213647Y-118345725D01*
X158327097Y-118619618D01*
X158491801Y-118866115D01*
X158701429Y-119075743D01*
X158947926Y-119240447D01*
X159221819Y-119353897D01*
X159512581Y-119411733D01*
X159809041Y-119411733D01*
X160099803Y-119353897D01*
X160373696Y-119240447D01*
X160620193Y-119075743D01*
X160829821Y-118866115D01*
X160994525Y-118619618D01*
X161107975Y-118345725D01*
X161165811Y-118054963D01*
X161165811Y-117758503D01*
X161107975Y-117467741D01*
X160994525Y-117193848D01*
X160829821Y-116947351D01*
X160620193Y-116737723D01*
X160373696Y-116573019D01*
X160099803Y-116459569D01*
X159809041Y-116401733D01*
X159512581Y-116401733D01*
X159221819Y-116459569D01*
X158947926Y-116573019D01*
X158701429Y-116737723D01*
X158491801Y-116947351D01*
X158327097Y-117193848D01*
X158213647Y-117467741D01*
X158155811Y-117758503D01*
X156065811Y-117758503D01*
X156007975Y-117467741D01*
X155894525Y-117193848D01*
X155729821Y-116947351D01*
X155520193Y-116737723D01*
X155273696Y-116573019D01*
X154999803Y-116459569D01*
X154709041Y-116401733D01*
X154412581Y-116401733D01*
X154121819Y-116459569D01*
X153847926Y-116573019D01*
X153601429Y-116737723D01*
X153391801Y-116947351D01*
X153227097Y-117193848D01*
X153113647Y-117467741D01*
X153055811Y-117758503D01*
X151565811Y-117758503D01*
X151507975Y-117467741D01*
X151394525Y-117193848D01*
X151229821Y-116947351D01*
X151020193Y-116737723D01*
X150773696Y-116573019D01*
X150499803Y-116459569D01*
X150209041Y-116401733D01*
X149912581Y-116401733D01*
X149621819Y-116459569D01*
X149347926Y-116573019D01*
X149101429Y-116737723D01*
X148891801Y-116947351D01*
X148727097Y-117193848D01*
X148647111Y-117386951D01*
X148605006Y-117175277D01*
X148499095Y-116919583D01*
X148345335Y-116689465D01*
X148149635Y-116493765D01*
X147919517Y-116340005D01*
X147859390Y-116315100D01*
X147919517Y-116290195D01*
X148149635Y-116136435D01*
X148345335Y-115940735D01*
X148499095Y-115710617D01*
X148605006Y-115454923D01*
X148659000Y-115183480D01*
X148659000Y-114906720D01*
X148605006Y-114635277D01*
X148499095Y-114379583D01*
X148345335Y-114149465D01*
X148149635Y-113953765D01*
X147919517Y-113800005D01*
X147859390Y-113775100D01*
X147919517Y-113750195D01*
X148115703Y-113619107D01*
X155905811Y-113619107D01*
X155905811Y-113994359D01*
X155979020Y-114362401D01*
X156122622Y-114709089D01*
X156331101Y-115021099D01*
X156596445Y-115286443D01*
X156908455Y-115494922D01*
X157255143Y-115638524D01*
X157623185Y-115711733D01*
X157998437Y-115711733D01*
X158366479Y-115638524D01*
X158713167Y-115494922D01*
X159025177Y-115286443D01*
X159290521Y-115021099D01*
X159499000Y-114709089D01*
X159642602Y-114362401D01*
X159715811Y-113994359D01*
X159715811Y-113619107D01*
X159642602Y-113251065D01*
X159499000Y-112904377D01*
X159290521Y-112592367D01*
X159025177Y-112327023D01*
X158713167Y-112118544D01*
X158366479Y-111974942D01*
X157998437Y-111901733D01*
X157623185Y-111901733D01*
X157255143Y-111974942D01*
X156908455Y-112118544D01*
X156596445Y-112327023D01*
X156331101Y-112592367D01*
X156122622Y-112904377D01*
X155979020Y-113251065D01*
X155905811Y-113619107D01*
X148115703Y-113619107D01*
X148149635Y-113596435D01*
X148345335Y-113400735D01*
X148499095Y-113170617D01*
X148605006Y-112914923D01*
X148659000Y-112643480D01*
X148659000Y-112366720D01*
X148605006Y-112095277D01*
X148499095Y-111839583D01*
X148345335Y-111609465D01*
X148149635Y-111413765D01*
X147919517Y-111260005D01*
X147859390Y-111235100D01*
X147919517Y-111210195D01*
X148149635Y-111056435D01*
X148345335Y-110860735D01*
X148499095Y-110630617D01*
X148605006Y-110374923D01*
X148659000Y-110103480D01*
X148659000Y-109826720D01*
X148605006Y-109555277D01*
X148499095Y-109299583D01*
X148345335Y-109069465D01*
X148149635Y-108873765D01*
X147919517Y-108720005D01*
X147663823Y-108614094D01*
X147392380Y-108560100D01*
X147115620Y-108560100D01*
X146844177Y-108614094D01*
X146588483Y-108720005D01*
X146358365Y-108873765D01*
X146162665Y-109069465D01*
X146008905Y-109299583D01*
X145984000Y-109359710D01*
X145959095Y-109299583D01*
X145805335Y-109069465D01*
X145609635Y-108873765D01*
X145379517Y-108720005D01*
X145123823Y-108614094D01*
X144852380Y-108560100D01*
X144575620Y-108560100D01*
X144304177Y-108614094D01*
X144048483Y-108720005D01*
X143818365Y-108873765D01*
X143622665Y-109069465D01*
X143468905Y-109299583D01*
X143444000Y-109359710D01*
X143419095Y-109299583D01*
X143265335Y-109069465D01*
X143069635Y-108873765D01*
X142839517Y-108720005D01*
X142583823Y-108614094D01*
X142312380Y-108560100D01*
X142035620Y-108560100D01*
X141764177Y-108614094D01*
X141508483Y-108720005D01*
X141278365Y-108873765D01*
X141082665Y-109069465D01*
X140928905Y-109299583D01*
X140906374Y-109353978D01*
X140846187Y-109241376D01*
X140605278Y-109173427D01*
X139813605Y-109965100D01*
X140605278Y-110756773D01*
X140846187Y-110688824D01*
X140903020Y-110568124D01*
X140928905Y-110630617D01*
X141082665Y-110860735D01*
X141278365Y-111056435D01*
X141508483Y-111210195D01*
X141764177Y-111316106D01*
X142035620Y-111370100D01*
X142312380Y-111370100D01*
X142583823Y-111316106D01*
X142839517Y-111210195D01*
X143069635Y-111056435D01*
X143265335Y-110860735D01*
X143419095Y-110630617D01*
X143444000Y-110570490D01*
X143468905Y-110630617D01*
X143622665Y-110860735D01*
X143818365Y-111056435D01*
X144048483Y-111210195D01*
X144304177Y-111316106D01*
X144575620Y-111370100D01*
X144852380Y-111370100D01*
X145123823Y-111316106D01*
X145379517Y-111210195D01*
X145609635Y-111056435D01*
X145805335Y-110860735D01*
X145959095Y-110630617D01*
X145984000Y-110570490D01*
X146008905Y-110630617D01*
X146162665Y-110860735D01*
X146358365Y-111056435D01*
X146588483Y-111210195D01*
X146648610Y-111235100D01*
X146588483Y-111260005D01*
X146358365Y-111413765D01*
X146162665Y-111609465D01*
X146008905Y-111839583D01*
X145902994Y-112095277D01*
X145849000Y-112366720D01*
X145849000Y-112643480D01*
X145902994Y-112914923D01*
X146008905Y-113170617D01*
X146162665Y-113400735D01*
X146358365Y-113596435D01*
X146588483Y-113750195D01*
X146648610Y-113775100D01*
X146588483Y-113800005D01*
X146358365Y-113953765D01*
X146162665Y-114149465D01*
X146008905Y-114379583D01*
X145902994Y-114635277D01*
X145849000Y-114906720D01*
X145849000Y-115183480D01*
X145902994Y-115454923D01*
X146008905Y-115710617D01*
X146162665Y-115940735D01*
X146358365Y-116136435D01*
X146588483Y-116290195D01*
X146648610Y-116315100D01*
X146588483Y-116340005D01*
X146358365Y-116493765D01*
X146162665Y-116689465D01*
X146008905Y-116919583D01*
X145902994Y-117175277D01*
X145849000Y-117446720D01*
X145849000Y-117723480D01*
X145902994Y-117994923D01*
X146008905Y-118250617D01*
X146162665Y-118480735D01*
X146358365Y-118676435D01*
X146588483Y-118830195D01*
X146648610Y-118855100D01*
X146588483Y-118880005D01*
X146358365Y-119033765D01*
X146162665Y-119229465D01*
X146008905Y-119459583D01*
X145902994Y-119715277D01*
X145849000Y-119986720D01*
X145849000Y-120027018D01*
X145844601Y-120024667D01*
X145820776Y-120017440D01*
X145796000Y-120015000D01*
X119634000Y-120015000D01*
X119609224Y-120017440D01*
X119585399Y-120024667D01*
X119563443Y-120036403D01*
X119544197Y-120052197D01*
X119528403Y-120071443D01*
X119516667Y-120093399D01*
X119509440Y-120117224D01*
X119507000Y-120142000D01*
X110559000Y-120142000D01*
X110559000Y-119986720D01*
X110505006Y-119715277D01*
X110399095Y-119459583D01*
X110245335Y-119229465D01*
X110049635Y-119033765D01*
X109819517Y-118880005D01*
X109759390Y-118855100D01*
X109819517Y-118830195D01*
X110049635Y-118676435D01*
X110245335Y-118480735D01*
X110399095Y-118250617D01*
X110505006Y-117994923D01*
X110559000Y-117723480D01*
X110559000Y-117446720D01*
X110505006Y-117175277D01*
X110399095Y-116919583D01*
X110245335Y-116689465D01*
X110049635Y-116493765D01*
X109819517Y-116340005D01*
X109759390Y-116315100D01*
X109819517Y-116290195D01*
X110049635Y-116136435D01*
X110245335Y-115940735D01*
X110386799Y-115729018D01*
X124125811Y-115729018D01*
X124125811Y-116484448D01*
X124273188Y-117225361D01*
X124562278Y-117923287D01*
X124981972Y-118551403D01*
X125516141Y-119085572D01*
X126144257Y-119505266D01*
X126842183Y-119794356D01*
X127583096Y-119941733D01*
X128338526Y-119941733D01*
X129079439Y-119794356D01*
X129777365Y-119505266D01*
X130405481Y-119085572D01*
X130939650Y-118551403D01*
X131359344Y-117923287D01*
X131648434Y-117225361D01*
X131795811Y-116484448D01*
X131795811Y-115729018D01*
X137125811Y-115729018D01*
X137125811Y-116484448D01*
X137273188Y-117225361D01*
X137562278Y-117923287D01*
X137981972Y-118551403D01*
X138516141Y-119085572D01*
X139144257Y-119505266D01*
X139842183Y-119794356D01*
X140583096Y-119941733D01*
X141338526Y-119941733D01*
X142079439Y-119794356D01*
X142777365Y-119505266D01*
X143405481Y-119085572D01*
X143939650Y-118551403D01*
X144359344Y-117923287D01*
X144648434Y-117225361D01*
X144795811Y-116484448D01*
X144795811Y-115729018D01*
X144648434Y-114988105D01*
X144359344Y-114290179D01*
X143939650Y-113662063D01*
X143405481Y-113127894D01*
X142777365Y-112708200D01*
X142079439Y-112419110D01*
X141338526Y-112271733D01*
X140583096Y-112271733D01*
X139842183Y-112419110D01*
X139144257Y-112708200D01*
X138516141Y-113127894D01*
X137981972Y-113662063D01*
X137562278Y-114290179D01*
X137273188Y-114988105D01*
X137125811Y-115729018D01*
X131795811Y-115729018D01*
X131648434Y-114988105D01*
X131359344Y-114290179D01*
X130939650Y-113662063D01*
X130405481Y-113127894D01*
X129777365Y-112708200D01*
X129079439Y-112419110D01*
X128338526Y-112271733D01*
X127583096Y-112271733D01*
X126842183Y-112419110D01*
X126144257Y-112708200D01*
X125516141Y-113127894D01*
X124981972Y-113662063D01*
X124562278Y-114290179D01*
X124273188Y-114988105D01*
X124125811Y-115729018D01*
X110386799Y-115729018D01*
X110399095Y-115710617D01*
X110505006Y-115454923D01*
X110559000Y-115183480D01*
X110559000Y-114906720D01*
X110505006Y-114635277D01*
X110399095Y-114379583D01*
X110245335Y-114149465D01*
X110049635Y-113953765D01*
X109819517Y-113800005D01*
X109759390Y-113775100D01*
X109819517Y-113750195D01*
X110049635Y-113596435D01*
X110245335Y-113400735D01*
X110399095Y-113170617D01*
X110505006Y-112914923D01*
X110559000Y-112643480D01*
X110559000Y-112366720D01*
X110505006Y-112095277D01*
X110399095Y-111839583D01*
X110245335Y-111609465D01*
X110049635Y-111413765D01*
X109819517Y-111260005D01*
X109759390Y-111235100D01*
X109819517Y-111210195D01*
X110049635Y-111056435D01*
X110245335Y-110860735D01*
X110399095Y-110630617D01*
X110424000Y-110570490D01*
X110448905Y-110630617D01*
X110602665Y-110860735D01*
X110798365Y-111056435D01*
X111028483Y-111210195D01*
X111284177Y-111316106D01*
X111555620Y-111370100D01*
X111832380Y-111370100D01*
X112103823Y-111316106D01*
X112359517Y-111210195D01*
X112589635Y-111056435D01*
X112785335Y-110860735D01*
X112939095Y-110630617D01*
X112964000Y-110570490D01*
X112988905Y-110630617D01*
X113142665Y-110860735D01*
X113338365Y-111056435D01*
X113568483Y-111210195D01*
X113824177Y-111316106D01*
X114095620Y-111370100D01*
X114372380Y-111370100D01*
X114643823Y-111316106D01*
X114899517Y-111210195D01*
X115129635Y-111056435D01*
X115325335Y-110860735D01*
X115479095Y-110630617D01*
X115504000Y-110570490D01*
X115528905Y-110630617D01*
X115682665Y-110860735D01*
X115878365Y-111056435D01*
X116108483Y-111210195D01*
X116364177Y-111316106D01*
X116635620Y-111370100D01*
X116912380Y-111370100D01*
X117183823Y-111316106D01*
X117439517Y-111210195D01*
X117669635Y-111056435D01*
X117865335Y-110860735D01*
X118019095Y-110630617D01*
X118044000Y-110570490D01*
X118068905Y-110630617D01*
X118222665Y-110860735D01*
X118418365Y-111056435D01*
X118648483Y-111210195D01*
X118708610Y-111235100D01*
X118648483Y-111260005D01*
X118418365Y-111413765D01*
X118222665Y-111609465D01*
X118068905Y-111839583D01*
X117962994Y-112095277D01*
X117909000Y-112366720D01*
X117909000Y-112643480D01*
X117962994Y-112914923D01*
X118068905Y-113170617D01*
X118222665Y-113400735D01*
X118418365Y-113596435D01*
X118648483Y-113750195D01*
X118904177Y-113856106D01*
X119175620Y-113910100D01*
X119452380Y-113910100D01*
X119723823Y-113856106D01*
X119979517Y-113750195D01*
X120209635Y-113596435D01*
X120405335Y-113400735D01*
X120559095Y-113170617D01*
X120665006Y-112914923D01*
X120719000Y-112643480D01*
X120719000Y-112366720D01*
X120665006Y-112095277D01*
X120559095Y-111839583D01*
X120405335Y-111609465D01*
X120209635Y-111413765D01*
X120163521Y-111382952D01*
X121975753Y-111382952D01*
X122104076Y-111674971D01*
X122439695Y-111842823D01*
X122801611Y-111941974D01*
X123175916Y-111968614D01*
X123548227Y-111921718D01*
X123904235Y-111803088D01*
X124143924Y-111674971D01*
X124272247Y-111382952D01*
X132135753Y-111382952D01*
X132264076Y-111674971D01*
X132599695Y-111842823D01*
X132961611Y-111941974D01*
X133335916Y-111968614D01*
X133708227Y-111921718D01*
X134064235Y-111803088D01*
X134303924Y-111674971D01*
X134432247Y-111382952D01*
X133284000Y-110234705D01*
X132135753Y-111382952D01*
X124272247Y-111382952D01*
X123124000Y-110234705D01*
X121975753Y-111382952D01*
X120163521Y-111382952D01*
X119979517Y-111260005D01*
X119919390Y-111235100D01*
X119979517Y-111210195D01*
X120209635Y-111056435D01*
X120405335Y-110860735D01*
X120559095Y-110630617D01*
X120665006Y-110374923D01*
X120718296Y-110107016D01*
X121210486Y-110107016D01*
X121257382Y-110479327D01*
X121376012Y-110835335D01*
X121504129Y-111075024D01*
X121796148Y-111203347D01*
X122944395Y-110055100D01*
X123303605Y-110055100D01*
X124451852Y-111203347D01*
X124743871Y-111075024D01*
X124911723Y-110739405D01*
X125010874Y-110377489D01*
X125030124Y-110107016D01*
X131370486Y-110107016D01*
X131417382Y-110479327D01*
X131536012Y-110835335D01*
X131664129Y-111075024D01*
X131956148Y-111203347D01*
X133104395Y-110055100D01*
X133463605Y-110055100D01*
X134611852Y-111203347D01*
X134903871Y-111075024D01*
X135071723Y-110739405D01*
X135170874Y-110377489D01*
X135197514Y-110003184D01*
X135175287Y-109826720D01*
X135689000Y-109826720D01*
X135689000Y-110103480D01*
X135742994Y-110374923D01*
X135848905Y-110630617D01*
X136002665Y-110860735D01*
X136198365Y-111056435D01*
X136428483Y-111210195D01*
X136488610Y-111235100D01*
X136428483Y-111260005D01*
X136198365Y-111413765D01*
X136002665Y-111609465D01*
X135848905Y-111839583D01*
X135742994Y-112095277D01*
X135689000Y-112366720D01*
X135689000Y-112643480D01*
X135742994Y-112914923D01*
X135848905Y-113170617D01*
X136002665Y-113400735D01*
X136198365Y-113596435D01*
X136428483Y-113750195D01*
X136684177Y-113856106D01*
X136955620Y-113910100D01*
X137232380Y-113910100D01*
X137503823Y-113856106D01*
X137759517Y-113750195D01*
X137989635Y-113596435D01*
X138185335Y-113400735D01*
X138339095Y-113170617D01*
X138445006Y-112914923D01*
X138499000Y-112643480D01*
X138499000Y-112366720D01*
X138445006Y-112095277D01*
X138339095Y-111839583D01*
X138185335Y-111609465D01*
X137989635Y-111413765D01*
X137759517Y-111260005D01*
X137699390Y-111235100D01*
X137759517Y-111210195D01*
X137989635Y-111056435D01*
X138109692Y-110936378D01*
X138842327Y-110936378D01*
X138910276Y-111177287D01*
X139160668Y-111295187D01*
X139429250Y-111361972D01*
X139705701Y-111375077D01*
X139979395Y-111333996D01*
X140239817Y-111240310D01*
X140357724Y-111177287D01*
X140425673Y-110936378D01*
X139634000Y-110144705D01*
X138842327Y-110936378D01*
X138109692Y-110936378D01*
X138185335Y-110860735D01*
X138339095Y-110630617D01*
X138361626Y-110576222D01*
X138421813Y-110688824D01*
X138662722Y-110756773D01*
X139454395Y-109965100D01*
X138662722Y-109173427D01*
X138421813Y-109241376D01*
X138364980Y-109362076D01*
X138339095Y-109299583D01*
X138185335Y-109069465D01*
X138109692Y-108993822D01*
X138842327Y-108993822D01*
X139634000Y-109785495D01*
X140425673Y-108993822D01*
X140357724Y-108752913D01*
X140107332Y-108635013D01*
X139838750Y-108568228D01*
X139562299Y-108555123D01*
X139288605Y-108596204D01*
X139028183Y-108689890D01*
X138910276Y-108752913D01*
X138842327Y-108993822D01*
X138109692Y-108993822D01*
X137989635Y-108873765D01*
X137759517Y-108720005D01*
X137503823Y-108614094D01*
X137232380Y-108560100D01*
X136955620Y-108560100D01*
X136684177Y-108614094D01*
X136428483Y-108720005D01*
X136198365Y-108873765D01*
X136002665Y-109069465D01*
X135848905Y-109299583D01*
X135742994Y-109555277D01*
X135689000Y-109826720D01*
X135175287Y-109826720D01*
X135150618Y-109630873D01*
X135031988Y-109274865D01*
X134903871Y-109035176D01*
X134611852Y-108906853D01*
X133463605Y-110055100D01*
X133104395Y-110055100D01*
X131956148Y-108906853D01*
X131664129Y-109035176D01*
X131496277Y-109370795D01*
X131397126Y-109732711D01*
X131370486Y-110107016D01*
X125030124Y-110107016D01*
X125037514Y-110003184D01*
X124990618Y-109630873D01*
X124871988Y-109274865D01*
X124743871Y-109035176D01*
X124451852Y-108906853D01*
X123303605Y-110055100D01*
X122944395Y-110055100D01*
X121796148Y-108906853D01*
X121504129Y-109035176D01*
X121336277Y-109370795D01*
X121237126Y-109732711D01*
X121210486Y-110107016D01*
X120718296Y-110107016D01*
X120719000Y-110103480D01*
X120719000Y-109826720D01*
X120665006Y-109555277D01*
X120559095Y-109299583D01*
X120405335Y-109069465D01*
X120209635Y-108873765D01*
X119990357Y-108727248D01*
X121975753Y-108727248D01*
X123124000Y-109875495D01*
X124272247Y-108727248D01*
X132135753Y-108727248D01*
X133284000Y-109875495D01*
X134432247Y-108727248D01*
X134303924Y-108435229D01*
X133968305Y-108267377D01*
X133606389Y-108168226D01*
X133232084Y-108141586D01*
X132859773Y-108188482D01*
X132503765Y-108307112D01*
X132264076Y-108435229D01*
X132135753Y-108727248D01*
X124272247Y-108727248D01*
X124143924Y-108435229D01*
X123808305Y-108267377D01*
X123446389Y-108168226D01*
X123072084Y-108141586D01*
X122699773Y-108188482D01*
X122343765Y-108307112D01*
X122104076Y-108435229D01*
X121975753Y-108727248D01*
X119990357Y-108727248D01*
X119979517Y-108720005D01*
X119723823Y-108614094D01*
X119452380Y-108560100D01*
X119175620Y-108560100D01*
X118904177Y-108614094D01*
X118648483Y-108720005D01*
X118418365Y-108873765D01*
X118222665Y-109069465D01*
X118068905Y-109299583D01*
X118044000Y-109359710D01*
X118019095Y-109299583D01*
X117865335Y-109069465D01*
X117669635Y-108873765D01*
X117439517Y-108720005D01*
X117183823Y-108614094D01*
X116912380Y-108560100D01*
X116635620Y-108560100D01*
X116364177Y-108614094D01*
X116108483Y-108720005D01*
X115878365Y-108873765D01*
X115682665Y-109069465D01*
X115528905Y-109299583D01*
X115504000Y-109359710D01*
X115479095Y-109299583D01*
X115325335Y-109069465D01*
X115129635Y-108873765D01*
X114899517Y-108720005D01*
X114643823Y-108614094D01*
X114372380Y-108560100D01*
X114095620Y-108560100D01*
X113824177Y-108614094D01*
X113568483Y-108720005D01*
X113338365Y-108873765D01*
X113142665Y-109069465D01*
X112988905Y-109299583D01*
X112964000Y-109359710D01*
X112939095Y-109299583D01*
X112785335Y-109069465D01*
X112589635Y-108873765D01*
X112359517Y-108720005D01*
X112103823Y-108614094D01*
X111832380Y-108560100D01*
X111555620Y-108560100D01*
X111284177Y-108614094D01*
X111028483Y-108720005D01*
X110798365Y-108873765D01*
X110602665Y-109069465D01*
X110448905Y-109299583D01*
X110424000Y-109359710D01*
X110399095Y-109299583D01*
X110245335Y-109069465D01*
X110049635Y-108873765D01*
X109819517Y-108720005D01*
X109563823Y-108614094D01*
X109292380Y-108560100D01*
X109015620Y-108560100D01*
X108744177Y-108614094D01*
X108488483Y-108720005D01*
X108258365Y-108873765D01*
X108062665Y-109069465D01*
X107908905Y-109299583D01*
X107802994Y-109555277D01*
X107749000Y-109826720D01*
X101087811Y-109826720D01*
X101087811Y-106937952D01*
X103560753Y-106937952D01*
X103689076Y-107229971D01*
X104024695Y-107397823D01*
X104386611Y-107496974D01*
X104760916Y-107523614D01*
X105133227Y-107476718D01*
X105489235Y-107358088D01*
X105728924Y-107229971D01*
X105857247Y-106937952D01*
X150550753Y-106937952D01*
X150679076Y-107229971D01*
X151014695Y-107397823D01*
X151376611Y-107496974D01*
X151750916Y-107523614D01*
X152123227Y-107476718D01*
X152479235Y-107358088D01*
X152718924Y-107229971D01*
X152847247Y-106937952D01*
X151699000Y-105789705D01*
X150550753Y-106937952D01*
X105857247Y-106937952D01*
X104709000Y-105789705D01*
X103560753Y-106937952D01*
X101087811Y-106937952D01*
X101087811Y-105662016D01*
X102795486Y-105662016D01*
X102842382Y-106034327D01*
X102961012Y-106390335D01*
X103089129Y-106630024D01*
X103381148Y-106758347D01*
X104529395Y-105610100D01*
X104888605Y-105610100D01*
X106036852Y-106758347D01*
X106328871Y-106630024D01*
X106496723Y-106294405D01*
X106595874Y-105932489D01*
X106615124Y-105662016D01*
X149785486Y-105662016D01*
X149832382Y-106034327D01*
X149951012Y-106390335D01*
X150079129Y-106630024D01*
X150371148Y-106758347D01*
X151519395Y-105610100D01*
X151878605Y-105610100D01*
X153026852Y-106758347D01*
X153318871Y-106630024D01*
X153486723Y-106294405D01*
X153585874Y-105932489D01*
X153612514Y-105558184D01*
X153565618Y-105185873D01*
X153446988Y-104829865D01*
X153318871Y-104590176D01*
X153026852Y-104461853D01*
X151878605Y-105610100D01*
X151519395Y-105610100D01*
X150371148Y-104461853D01*
X150079129Y-104590176D01*
X149911277Y-104925795D01*
X149812126Y-105287711D01*
X149785486Y-105662016D01*
X106615124Y-105662016D01*
X106622514Y-105558184D01*
X106575618Y-105185873D01*
X106456988Y-104829865D01*
X106328871Y-104590176D01*
X106036852Y-104461853D01*
X104888605Y-105610100D01*
X104529395Y-105610100D01*
X103381148Y-104461853D01*
X103089129Y-104590176D01*
X102921277Y-104925795D01*
X102822126Y-105287711D01*
X102795486Y-105662016D01*
X101087811Y-105662016D01*
X101087811Y-104282248D01*
X103560753Y-104282248D01*
X104709000Y-105430495D01*
X105857247Y-104282248D01*
X150550753Y-104282248D01*
X151699000Y-105430495D01*
X152847247Y-104282248D01*
X152718924Y-103990229D01*
X152383305Y-103822377D01*
X152021389Y-103723226D01*
X151647084Y-103696586D01*
X151274773Y-103743482D01*
X150918765Y-103862112D01*
X150679076Y-103990229D01*
X150550753Y-104282248D01*
X105857247Y-104282248D01*
X105728924Y-103990229D01*
X105393305Y-103822377D01*
X105031389Y-103723226D01*
X104657084Y-103696586D01*
X104284773Y-103743482D01*
X103928765Y-103862112D01*
X103689076Y-103990229D01*
X103560753Y-104282248D01*
X101087811Y-104282248D01*
X101087811Y-102233733D01*
X162833811Y-102233733D01*
X162833811Y-122618662D01*
G37*
%TD.AperFunction*%
%TD*%
M02*
