M48
; DRILL file {KiCad 5.1.10-88a1d61d58~88~ubuntu20.04.1} date Tue Aug  3 13:56:50 2021
; FORMAT={-:-/ absolute / inch / decimal}
; #@! TF.CreationDate,2021-08-03T13:56:50-04:00
; #@! TF.GenerationSoftware,Kicad,Pcbnew,5.1.10-88a1d61d58~88~ubuntu20.04.1
; #@! TF.FileFunction,Plated,1,2,PTH
FMAT,2
INCH
T1C0.0150
T2C0.0394
T3C0.0472
T4C0.0858
T5C0.0866
%
G90
G05
T1
X4.4374Y-5.2266
X4.4374Y-5.2857
X4.4374Y-5.3448
X4.4374Y-5.581
X4.4374Y-5.64
X4.4374Y-5.6991
X4.4866Y-5.0829
X4.5654Y-5.329
X6.0811Y-5.142
X6.1205Y-5.142
X6.1599Y-5.142
X6.309Y-5.3964
X6.3764Y-4.7778
T2
X4.2974Y-4.3293
X4.2974Y-4.4293
X4.2974Y-4.5293
X4.2974Y-4.6293
X4.2974Y-4.7293
X4.2974Y-4.8293
X4.2974Y-4.9293
X4.2974Y-5.0293
X4.2974Y-5.1293
X4.2974Y-5.2293
X4.2974Y-5.3293
X4.2974Y-5.4293
X4.2974Y-5.5293
X4.2974Y-5.6293
X4.2974Y-5.7293
X4.2974Y-5.8293
X4.3974Y-4.3293
X4.3974Y-5.8293
X4.4974Y-4.3293
X4.4974Y-5.8293
X4.5974Y-4.3293
X4.5974Y-5.8293
X4.6974Y-4.3293
X4.6974Y-4.4293
X4.6974Y-5.8293
X5.3974Y-4.3293
X5.3974Y-4.4293
X5.3974Y-5.8293
X5.4974Y-4.3293
X5.4974Y-5.8293
X5.5974Y-4.3293
X5.5974Y-5.8293
X5.6974Y-4.3293
X5.6974Y-5.8293
X5.7974Y-4.3293
X5.7974Y-4.4293
X5.7974Y-4.5293
X5.7974Y-4.6293
X5.7974Y-4.7293
X5.7974Y-4.8293
X5.7974Y-4.9293
X5.7974Y-5.0293
X5.7974Y-5.1293
X5.7974Y-5.2293
X5.7974Y-5.3293
X5.7974Y-5.4293
X5.7974Y-5.5293
X5.7974Y-5.6293
X5.7974Y-5.7293
X5.7974Y-5.8293
T3
X5.9079Y-4.642
X5.9079Y-5.516
X6.0851Y-4.642
X6.0851Y-5.516
X6.2859Y-4.642
X6.2859Y-5.516
T4
X4.8474Y-4.3329
X4.8474Y-5.8258
X5.2474Y-4.3329
X5.2474Y-5.8258
T5
X4.1224Y-4.1579
X4.1224Y-6.0079
X5.9724Y-4.1579
X5.9724Y-6.0079
X6.213Y-4.4806
X6.213Y-5.6774
T0
M30
