%TF.GenerationSoftware,KiCad,Pcbnew,5.1.10-88a1d61d58~88~ubuntu20.04.1*%
%TF.CreationDate,2021-08-03T13:57:49-04:00*%
%TF.ProjectId,ta-base,74612d62-6173-4652-9e6b-696361645f70,rev?*%
%TF.SameCoordinates,Original*%
%TF.FileFunction,Paste,Top*%
%TF.FilePolarity,Positive*%
%FSLAX46Y46*%
G04 Gerber Fmt 4.6, Leading zero omitted, Abs format (unit mm)*
G04 Created by KiCad (PCBNEW 5.1.10-88a1d61d58~88~ubuntu20.04.1) date 2021-08-03 13:57:49*
%MOMM*%
%LPD*%
G01*
G04 APERTURE LIST*
%ADD10R,2.700000X1.000000*%
%ADD11R,1.700000X0.600000*%
%ADD12R,0.762000X0.762000*%
%ADD13R,1.447800X0.863600*%
%ADD14R,0.889000X1.854200*%
G04 APERTURE END LIST*
D10*
%TO.C,J7*%
X112760817Y-120956732D03*
X112760817Y-112256734D03*
D11*
X115960811Y-119106733D03*
X115960811Y-117856733D03*
X115960811Y-116606733D03*
X115960811Y-115356733D03*
X115960811Y-114106733D03*
%TD*%
%TO.C,R1*%
G36*
G01*
X159110811Y-135150483D02*
X159110811Y-135662983D01*
G75*
G02*
X158892061Y-135881733I-218750J0D01*
G01*
X158454561Y-135881733D01*
G75*
G02*
X158235811Y-135662983I0J218750D01*
G01*
X158235811Y-135150483D01*
G75*
G02*
X158454561Y-134931733I218750J0D01*
G01*
X158892061Y-134931733D01*
G75*
G02*
X159110811Y-135150483I0J-218750D01*
G01*
G37*
G36*
G01*
X160685811Y-135150483D02*
X160685811Y-135662983D01*
G75*
G02*
X160467061Y-135881733I-218750J0D01*
G01*
X160029561Y-135881733D01*
G75*
G02*
X159810811Y-135662983I0J218750D01*
G01*
X159810811Y-135150483D01*
G75*
G02*
X160029561Y-134931733I218750J0D01*
G01*
X160467061Y-134931733D01*
G75*
G02*
X160685811Y-135150483I0J-218750D01*
G01*
G37*
%TD*%
%TO.C,R2*%
G36*
G01*
X158810811Y-121250483D02*
X158810811Y-121762983D01*
G75*
G02*
X158592061Y-121981733I-218750J0D01*
G01*
X158154561Y-121981733D01*
G75*
G02*
X157935811Y-121762983I0J218750D01*
G01*
X157935811Y-121250483D01*
G75*
G02*
X158154561Y-121031733I218750J0D01*
G01*
X158592061Y-121031733D01*
G75*
G02*
X158810811Y-121250483I0J-218750D01*
G01*
G37*
G36*
G01*
X160385811Y-121250483D02*
X160385811Y-121762983D01*
G75*
G02*
X160167061Y-121981733I-218750J0D01*
G01*
X159729561Y-121981733D01*
G75*
G02*
X159510811Y-121762983I0J218750D01*
G01*
X159510811Y-121250483D01*
G75*
G02*
X159729561Y-121031733I218750J0D01*
G01*
X160167061Y-121031733D01*
G75*
G02*
X160385811Y-121250483I0J-218750D01*
G01*
G37*
%TD*%
%TO.C,R3*%
G36*
G01*
X115704561Y-132456733D02*
X116217061Y-132456733D01*
G75*
G02*
X116435811Y-132675483I0J-218750D01*
G01*
X116435811Y-133112983D01*
G75*
G02*
X116217061Y-133331733I-218750J0D01*
G01*
X115704561Y-133331733D01*
G75*
G02*
X115485811Y-133112983I0J218750D01*
G01*
X115485811Y-132675483D01*
G75*
G02*
X115704561Y-132456733I218750J0D01*
G01*
G37*
G36*
G01*
X115704561Y-130881733D02*
X116217061Y-130881733D01*
G75*
G02*
X116435811Y-131100483I0J-218750D01*
G01*
X116435811Y-131537983D01*
G75*
G02*
X116217061Y-131756733I-218750J0D01*
G01*
X115704561Y-131756733D01*
G75*
G02*
X115485811Y-131537983I0J218750D01*
G01*
X115485811Y-131100483D01*
G75*
G02*
X115704561Y-130881733I218750J0D01*
G01*
G37*
%TD*%
D12*
%TO.C,U1*%
X116325811Y-127106733D03*
D13*
X114575811Y-126496732D03*
X114575811Y-127716734D03*
D14*
X111760810Y-125931734D03*
X111760810Y-128281732D03*
X118160812Y-125931734D03*
X118160812Y-128281732D03*
%TD*%
M02*
