%TF.GenerationSoftware,KiCad,Pcbnew,5.1.10-88a1d61d58~88~ubuntu20.04.1*%
%TF.CreationDate,2021-08-03T13:57:49-04:00*%
%TF.ProjectId,ta-base,74612d62-6173-4652-9e6b-696361645f70,rev?*%
%TF.SameCoordinates,Original*%
%TF.FileFunction,Soldermask,Bot*%
%TF.FilePolarity,Negative*%
%FSLAX46Y46*%
G04 Gerber Fmt 4.6, Leading zero omitted, Abs format (unit mm)*
G04 Created by KiCad (PCBNEW 5.1.10-88a1d61d58~88~ubuntu20.04.1) date 2021-08-03 13:57:49*
%MOMM*%
%LPD*%
G01*
G04 APERTURE LIST*
%ADD10C,1.565400*%
%ADD11C,6.425400*%
%ADD12C,1.765400*%
%ADD13C,2.565400*%
%ADD14C,0.787400*%
G04 APERTURE END LIST*
D10*
%TO.C,J8*%
X119314000Y-112505100D03*
X111694000Y-109965100D03*
X116774000Y-109965100D03*
X119314000Y-109965100D03*
X114234000Y-109965100D03*
%TD*%
%TO.C,J3*%
G36*
G01*
X163010805Y-132969432D02*
X160310805Y-132969432D01*
G75*
G02*
X160298105Y-132956732I0J12700D01*
G01*
X160298105Y-131956732D01*
G75*
G02*
X160310805Y-131944032I12700J0D01*
G01*
X163010805Y-131944032D01*
G75*
G02*
X163023505Y-131956732I0J-12700D01*
G01*
X163023505Y-132956732D01*
G75*
G02*
X163010805Y-132969432I-12700J0D01*
G01*
G37*
G36*
G01*
X163010805Y-124269434D02*
X160310805Y-124269434D01*
G75*
G02*
X160298105Y-124256734I0J12700D01*
G01*
X160298105Y-123256734D01*
G75*
G02*
X160310805Y-123244034I12700J0D01*
G01*
X163010805Y-123244034D01*
G75*
G02*
X163023505Y-123256734I0J-12700D01*
G01*
X163023505Y-124256734D01*
G75*
G02*
X163010805Y-124269434I-12700J0D01*
G01*
G37*
G36*
G01*
X159310811Y-130919433D02*
X157610811Y-130919433D01*
G75*
G02*
X157598111Y-130906733I0J12700D01*
G01*
X157598111Y-130306733D01*
G75*
G02*
X157610811Y-130294033I12700J0D01*
G01*
X159310811Y-130294033D01*
G75*
G02*
X159323511Y-130306733I0J-12700D01*
G01*
X159323511Y-130906733D01*
G75*
G02*
X159310811Y-130919433I-12700J0D01*
G01*
G37*
G36*
G01*
X159310811Y-129669433D02*
X157610811Y-129669433D01*
G75*
G02*
X157598111Y-129656733I0J12700D01*
G01*
X157598111Y-129056733D01*
G75*
G02*
X157610811Y-129044033I12700J0D01*
G01*
X159310811Y-129044033D01*
G75*
G02*
X159323511Y-129056733I0J-12700D01*
G01*
X159323511Y-129656733D01*
G75*
G02*
X159310811Y-129669433I-12700J0D01*
G01*
G37*
G36*
G01*
X159310811Y-128419433D02*
X157610811Y-128419433D01*
G75*
G02*
X157598111Y-128406733I0J12700D01*
G01*
X157598111Y-127806733D01*
G75*
G02*
X157610811Y-127794033I12700J0D01*
G01*
X159310811Y-127794033D01*
G75*
G02*
X159323511Y-127806733I0J-12700D01*
G01*
X159323511Y-128406733D01*
G75*
G02*
X159310811Y-128419433I-12700J0D01*
G01*
G37*
G36*
G01*
X159310811Y-127169433D02*
X157610811Y-127169433D01*
G75*
G02*
X157598111Y-127156733I0J12700D01*
G01*
X157598111Y-126556733D01*
G75*
G02*
X157610811Y-126544033I12700J0D01*
G01*
X159310811Y-126544033D01*
G75*
G02*
X159323511Y-126556733I0J-12700D01*
G01*
X159323511Y-127156733D01*
G75*
G02*
X159310811Y-127169433I-12700J0D01*
G01*
G37*
G36*
G01*
X159310811Y-125919433D02*
X157610811Y-125919433D01*
G75*
G02*
X157598111Y-125906733I0J12700D01*
G01*
X157598111Y-125306733D01*
G75*
G02*
X157610811Y-125294033I12700J0D01*
G01*
X159310811Y-125294033D01*
G75*
G02*
X159323511Y-125306733I0J-12700D01*
G01*
X159323511Y-125906733D01*
G75*
G02*
X159310811Y-125919433I-12700J0D01*
G01*
G37*
%TD*%
D11*
%TO.C,REF\u002A\u002A*%
X127960811Y-116106733D03*
%TD*%
D10*
%TO.C,J5*%
X137094000Y-112505100D03*
X144714000Y-109965100D03*
X139634000Y-109965100D03*
X137094000Y-109965100D03*
X142174000Y-109965100D03*
%TD*%
D11*
%TO.C,REF\u002A\u002A*%
X140960811Y-116106733D03*
%TD*%
D12*
%TO.C,SW2*%
X150060811Y-117906733D03*
X154560811Y-117906733D03*
X159660811Y-117906733D03*
D13*
X157810811Y-113806733D03*
%TD*%
%TO.C,P1*%
X151699000Y-152600100D03*
X151699000Y-105610100D03*
X104709000Y-105610100D03*
X104709000Y-152600100D03*
%TD*%
%TO.C,SW1*%
X157810811Y-144206733D03*
D12*
X159660811Y-140106733D03*
X154560811Y-140106733D03*
X150060811Y-140106733D03*
%TD*%
D14*
%TO.C,U2*%
X112710811Y-132756733D03*
X112710811Y-134256733D03*
X112710811Y-135756733D03*
X112710811Y-144756733D03*
X112710811Y-143256733D03*
X112710811Y-141756733D03*
%TD*%
D10*
%TO.C,J1*%
X109154000Y-148065100D03*
X109154000Y-145525100D03*
X109154000Y-142985100D03*
X109154000Y-140445100D03*
X109154000Y-137905100D03*
X109154000Y-135365100D03*
X109154000Y-132825100D03*
X109154000Y-130285100D03*
X109154000Y-127745100D03*
X109154000Y-125205100D03*
X109154000Y-122665100D03*
X109154000Y-120125100D03*
X109154000Y-117585100D03*
X109154000Y-115045100D03*
X109154000Y-112505100D03*
X109154000Y-109965100D03*
%TD*%
%TO.C,J2*%
X144714000Y-148065100D03*
X142174000Y-148065100D03*
X139634000Y-148065100D03*
X137094000Y-148065100D03*
%TD*%
%TO.C,J4*%
X119314000Y-148065100D03*
X116774000Y-148065100D03*
X114234000Y-148065100D03*
X111694000Y-148065100D03*
%TD*%
%TO.C,J6*%
X147254000Y-148065100D03*
X147254000Y-145525100D03*
X147254000Y-142985100D03*
X147254000Y-140445100D03*
X147254000Y-137905100D03*
X147254000Y-135365100D03*
X147254000Y-132825100D03*
X147254000Y-130285100D03*
X147254000Y-127745100D03*
X147254000Y-125205100D03*
X147254000Y-122665100D03*
X147254000Y-120125100D03*
X147254000Y-117585100D03*
X147254000Y-115045100D03*
X147254000Y-112505100D03*
X147254000Y-109965100D03*
%TD*%
D13*
%TO.C,P2*%
X123124000Y-147975100D03*
X123124000Y-110055100D03*
X133284000Y-147975100D03*
X133284000Y-110055100D03*
%TD*%
M02*
