%TF.GenerationSoftware,KiCad,Pcbnew,5.1.10-88a1d61d58~88~ubuntu20.04.1*%
%TF.CreationDate,2021-08-03T13:57:49-04:00*%
%TF.ProjectId,ta-base,74612d62-6173-4652-9e6b-696361645f70,rev?*%
%TF.SameCoordinates,Original*%
%TF.FileFunction,Legend,Top*%
%TF.FilePolarity,Positive*%
%FSLAX46Y46*%
G04 Gerber Fmt 4.6, Leading zero omitted, Abs format (unit mm)*
G04 Created by KiCad (PCBNEW 5.1.10-88a1d61d58~88~ubuntu20.04.1) date 2021-08-03 13:57:49*
%MOMM*%
%LPD*%
G01*
G04 APERTURE LIST*
%ADD10C,0.120000*%
%ADD11C,0.150000*%
%ADD12C,0.200000*%
G04 APERTURE END LIST*
D10*
X145460811Y-111856733D02*
X146210811Y-112356733D01*
D11*
X146115572Y-145261494D02*
X146163191Y-145166256D01*
X146163191Y-144975780D01*
X146115572Y-144880542D01*
X146020334Y-144832923D01*
X145972715Y-144832923D01*
X145877477Y-144880542D01*
X145829858Y-144975780D01*
X145829858Y-145118637D01*
X145782239Y-145213875D01*
X145687001Y-145261494D01*
X145639382Y-145261494D01*
X145544144Y-145213875D01*
X145496525Y-145118637D01*
X145496525Y-144975780D01*
X145544144Y-144880542D01*
X146115572Y-143975780D02*
X146163191Y-144071018D01*
X146163191Y-144261494D01*
X146115572Y-144356733D01*
X146067953Y-144404352D01*
X145972715Y-144451971D01*
X145687001Y-144451971D01*
X145591763Y-144404352D01*
X145544144Y-144356733D01*
X145496525Y-144261494D01*
X145496525Y-144071018D01*
X145544144Y-143975780D01*
X146163191Y-143404352D02*
X146115572Y-143499590D01*
X146020334Y-143547209D01*
X145163191Y-143547209D01*
X147365572Y-152225780D02*
X147413191Y-152130542D01*
X147413191Y-151940066D01*
X147365572Y-151844828D01*
X147270334Y-151797209D01*
X147222715Y-151797209D01*
X147127477Y-151844828D01*
X147079858Y-151940066D01*
X147079858Y-152082923D01*
X147032239Y-152178161D01*
X146937001Y-152225780D01*
X146889382Y-152225780D01*
X146794144Y-152178161D01*
X146746525Y-152082923D01*
X146746525Y-151940066D01*
X146794144Y-151844828D01*
X147413191Y-150940066D02*
X146413191Y-150940066D01*
X147365572Y-150940066D02*
X147413191Y-151035304D01*
X147413191Y-151225780D01*
X147365572Y-151321018D01*
X147317953Y-151368637D01*
X147222715Y-151416256D01*
X146937001Y-151416256D01*
X146841763Y-151368637D01*
X146794144Y-151321018D01*
X146746525Y-151225780D01*
X146746525Y-151035304D01*
X146794144Y-150940066D01*
X147413191Y-150035304D02*
X146889382Y-150035304D01*
X146794144Y-150082923D01*
X146746525Y-150178161D01*
X146746525Y-150368637D01*
X146794144Y-150463875D01*
X147365572Y-150035304D02*
X147413191Y-150130542D01*
X147413191Y-150368637D01*
X147365572Y-150463875D01*
X147270334Y-150511494D01*
X147175096Y-150511494D01*
X147079858Y-150463875D01*
X147032239Y-150368637D01*
X147032239Y-150130542D01*
X146984620Y-150035304D01*
X141234620Y-112059113D02*
X141234620Y-111392447D01*
X141234620Y-111582923D02*
X141282239Y-111487685D01*
X141329858Y-111440066D01*
X141425096Y-111392447D01*
X141520334Y-111392447D01*
X141758430Y-112059113D02*
X142282239Y-111392447D01*
X141758430Y-111392447D02*
X142282239Y-112059113D01*
X142663191Y-111678161D02*
X143425096Y-111678161D01*
X144329858Y-112011494D02*
X144234620Y-112059113D01*
X144044144Y-112059113D01*
X143948906Y-112011494D01*
X143901287Y-111963875D01*
X143853668Y-111868637D01*
X143853668Y-111582923D01*
X143901287Y-111487685D01*
X143948906Y-111440066D01*
X144044144Y-111392447D01*
X144234620Y-111392447D01*
X144329858Y-111440066D01*
X144901287Y-112059113D02*
X144806049Y-112011494D01*
X144758430Y-111963875D01*
X144710811Y-111868637D01*
X144710811Y-111582923D01*
X144758430Y-111487685D01*
X144806049Y-111440066D01*
X144901287Y-111392447D01*
X145044144Y-111392447D01*
X145139382Y-111440066D01*
X145187001Y-111487685D01*
X145234620Y-111582923D01*
X145234620Y-111868637D01*
X145187001Y-111963875D01*
X145139382Y-112011494D01*
X145044144Y-112059113D01*
X144901287Y-112059113D01*
X146746525Y-108201971D02*
X146746525Y-107821018D01*
X146413191Y-108059113D02*
X147270334Y-108059113D01*
X147365572Y-108011494D01*
X147413191Y-107916256D01*
X147413191Y-107821018D01*
X147413191Y-107582923D02*
X146746525Y-107059113D01*
X146746525Y-107582923D02*
X147413191Y-107059113D01*
X147032239Y-106678161D02*
X147032239Y-105916256D01*
X147365572Y-105011494D02*
X147413191Y-105106733D01*
X147413191Y-105297209D01*
X147365572Y-105392447D01*
X147317953Y-105440066D01*
X147222715Y-105487685D01*
X146937001Y-105487685D01*
X146841763Y-105440066D01*
X146794144Y-105392447D01*
X146746525Y-105297209D01*
X146746525Y-105106733D01*
X146794144Y-105011494D01*
X147413191Y-104440066D02*
X147365572Y-104535304D01*
X147317953Y-104582923D01*
X147222715Y-104630542D01*
X146937001Y-104630542D01*
X146841763Y-104582923D01*
X146794144Y-104535304D01*
X146746525Y-104440066D01*
X146746525Y-104297209D01*
X146794144Y-104201971D01*
X146841763Y-104154352D01*
X146937001Y-104106733D01*
X147222715Y-104106733D01*
X147317953Y-104154352D01*
X147365572Y-104201971D01*
X147413191Y-104297209D01*
X147413191Y-104440066D01*
X145205191Y-107261971D02*
X144538525Y-107261971D01*
X144729001Y-107261971D02*
X144633763Y-107214352D01*
X144586144Y-107166733D01*
X144538525Y-107071494D01*
X144538525Y-106976256D01*
X145157572Y-106690542D02*
X145205191Y-106595304D01*
X145205191Y-106404828D01*
X145157572Y-106309590D01*
X145062334Y-106261971D01*
X145014715Y-106261971D01*
X144919477Y-106309590D01*
X144871858Y-106404828D01*
X144871858Y-106547685D01*
X144824239Y-106642923D01*
X144729001Y-106690542D01*
X144681382Y-106690542D01*
X144586144Y-106642923D01*
X144538525Y-106547685D01*
X144538525Y-106404828D01*
X144586144Y-106309590D01*
X144538525Y-105976256D02*
X144538525Y-105595304D01*
X144205191Y-105833399D02*
X145062334Y-105833399D01*
X145157572Y-105785780D01*
X145205191Y-105690542D01*
X145205191Y-105595304D01*
X144824239Y-105261971D02*
X144824239Y-104500066D01*
X145157572Y-103595304D02*
X145205191Y-103690542D01*
X145205191Y-103881018D01*
X145157572Y-103976256D01*
X145109953Y-104023875D01*
X145014715Y-104071494D01*
X144729001Y-104071494D01*
X144633763Y-104023875D01*
X144586144Y-103976256D01*
X144538525Y-103881018D01*
X144538525Y-103690542D01*
X144586144Y-103595304D01*
X144538525Y-103309590D02*
X144538525Y-102928637D01*
X144205191Y-103166733D02*
X145062334Y-103166733D01*
X145157572Y-103119113D01*
X145205191Y-103023875D01*
X145205191Y-102928637D01*
X141998525Y-107889018D02*
X141998525Y-107508066D01*
X141665191Y-107746161D02*
X142522334Y-107746161D01*
X142617572Y-107698542D01*
X142665191Y-107603304D01*
X142665191Y-107508066D01*
X142617572Y-107222352D02*
X142665191Y-107127113D01*
X142665191Y-106936637D01*
X142617572Y-106841399D01*
X142522334Y-106793780D01*
X142474715Y-106793780D01*
X142379477Y-106841399D01*
X142331858Y-106936637D01*
X142331858Y-107079494D01*
X142284239Y-107174733D01*
X142189001Y-107222352D01*
X142141382Y-107222352D01*
X142046144Y-107174733D01*
X141998525Y-107079494D01*
X141998525Y-106936637D01*
X142046144Y-106841399D01*
X141998525Y-106508066D02*
X141998525Y-106127113D01*
X141665191Y-106365209D02*
X142522334Y-106365209D01*
X142617572Y-106317590D01*
X142665191Y-106222352D01*
X142665191Y-106127113D01*
X142284239Y-105793780D02*
X142284239Y-105031875D01*
X142617572Y-104127113D02*
X142665191Y-104222352D01*
X142665191Y-104412828D01*
X142617572Y-104508066D01*
X142569953Y-104555685D01*
X142474715Y-104603304D01*
X142189001Y-104603304D01*
X142093763Y-104555685D01*
X142046144Y-104508066D01*
X141998525Y-104412828D01*
X141998525Y-104222352D01*
X142046144Y-104127113D01*
X141998525Y-103841399D02*
X141998525Y-103460447D01*
X141665191Y-103698542D02*
X142522334Y-103698542D01*
X142617572Y-103650923D01*
X142665191Y-103555685D01*
X142665191Y-103460447D01*
X139172811Y-106944637D02*
X139125191Y-107039875D01*
X139125191Y-107182733D01*
X139172811Y-107325590D01*
X139268049Y-107420828D01*
X139363287Y-107468447D01*
X139553763Y-107516066D01*
X139696620Y-107516066D01*
X139887096Y-107468447D01*
X139982334Y-107420828D01*
X140077572Y-107325590D01*
X140125191Y-107182733D01*
X140125191Y-107087494D01*
X140077572Y-106944637D01*
X140029953Y-106897018D01*
X139696620Y-106897018D01*
X139696620Y-107087494D01*
X140125191Y-106468447D02*
X139125191Y-106468447D01*
X140125191Y-105897018D01*
X139125191Y-105897018D01*
X140125191Y-105420828D02*
X139125191Y-105420828D01*
X139125191Y-105182733D01*
X139172811Y-105039875D01*
X139268049Y-104944637D01*
X139363287Y-104897018D01*
X139553763Y-104849399D01*
X139696620Y-104849399D01*
X139887096Y-104897018D01*
X139982334Y-104944637D01*
X140077572Y-105039875D01*
X140125191Y-105182733D01*
X140125191Y-105420828D01*
X136918525Y-108150923D02*
X137585191Y-107912828D01*
X136918525Y-107674733D01*
X137585191Y-106865209D02*
X136585191Y-106865209D01*
X137537572Y-106865209D02*
X137585191Y-106960447D01*
X137585191Y-107150923D01*
X137537572Y-107246161D01*
X137489953Y-107293780D01*
X137394715Y-107341399D01*
X137109001Y-107341399D01*
X137013763Y-107293780D01*
X136966144Y-107246161D01*
X136918525Y-107150923D01*
X136918525Y-106960447D01*
X136966144Y-106865209D01*
X137585191Y-105960447D02*
X136585191Y-105960447D01*
X137537572Y-105960447D02*
X137585191Y-106055685D01*
X137585191Y-106246161D01*
X137537572Y-106341399D01*
X137489953Y-106389018D01*
X137394715Y-106436637D01*
X137109001Y-106436637D01*
X137013763Y-106389018D01*
X136966144Y-106341399D01*
X136918525Y-106246161D01*
X136918525Y-106055685D01*
X136966144Y-105960447D01*
X137204239Y-105484256D02*
X137204239Y-104722352D01*
X137537572Y-103817590D02*
X137585191Y-103912828D01*
X137585191Y-104103304D01*
X137537572Y-104198542D01*
X137489953Y-104246161D01*
X137394715Y-104293780D01*
X137109001Y-104293780D01*
X137013763Y-104246161D01*
X136966144Y-104198542D01*
X136918525Y-104103304D01*
X136918525Y-103912828D01*
X136966144Y-103817590D01*
X136918525Y-103531875D02*
X136918525Y-103150923D01*
X136585191Y-103389018D02*
X137442334Y-103389018D01*
X137537572Y-103341399D01*
X137585191Y-103246161D01*
X137585191Y-103150923D01*
X134378525Y-118398161D02*
X135045191Y-118160066D01*
X134378525Y-117921971D01*
X135045191Y-117112447D02*
X134045191Y-117112447D01*
X134997572Y-117112447D02*
X135045191Y-117207685D01*
X135045191Y-117398161D01*
X134997572Y-117493399D01*
X134949953Y-117541018D01*
X134854715Y-117588637D01*
X134569001Y-117588637D01*
X134473763Y-117541018D01*
X134426144Y-117493399D01*
X134378525Y-117398161D01*
X134378525Y-117207685D01*
X134426144Y-117112447D01*
X135045191Y-116207685D02*
X134045191Y-116207685D01*
X134997572Y-116207685D02*
X135045191Y-116302923D01*
X135045191Y-116493399D01*
X134997572Y-116588637D01*
X134949953Y-116636256D01*
X134854715Y-116683875D01*
X134569001Y-116683875D01*
X134473763Y-116636256D01*
X134426144Y-116588637D01*
X134378525Y-116493399D01*
X134378525Y-116302923D01*
X134426144Y-116207685D01*
X134664239Y-115731494D02*
X134664239Y-114969590D01*
X134378525Y-114064828D02*
X135188049Y-114064828D01*
X135283287Y-114112447D01*
X135330906Y-114160066D01*
X135378525Y-114255304D01*
X135378525Y-114398161D01*
X135330906Y-114493399D01*
X134997572Y-114064828D02*
X135045191Y-114160066D01*
X135045191Y-114350542D01*
X134997572Y-114445780D01*
X134949953Y-114493399D01*
X134854715Y-114541018D01*
X134569001Y-114541018D01*
X134473763Y-114493399D01*
X134426144Y-114445780D01*
X134378525Y-114350542D01*
X134378525Y-114160066D01*
X134426144Y-114064828D01*
X134378525Y-113588637D02*
X135378525Y-113588637D01*
X134426144Y-113588637D02*
X134378525Y-113493399D01*
X134378525Y-113302923D01*
X134426144Y-113207685D01*
X134473763Y-113160066D01*
X134569001Y-113112447D01*
X134854715Y-113112447D01*
X134949953Y-113160066D01*
X134997572Y-113207685D01*
X135045191Y-113302923D01*
X135045191Y-113493399D01*
X134997572Y-113588637D01*
X134997572Y-112731494D02*
X135045191Y-112636256D01*
X135045191Y-112445780D01*
X134997572Y-112350542D01*
X134902334Y-112302923D01*
X134854715Y-112302923D01*
X134759477Y-112350542D01*
X134711858Y-112445780D01*
X134711858Y-112588637D01*
X134664239Y-112683875D01*
X134569001Y-112731494D01*
X134521382Y-112731494D01*
X134426144Y-112683875D01*
X134378525Y-112588637D01*
X134378525Y-112445780D01*
X134426144Y-112350542D01*
X113746525Y-107559113D02*
X114079858Y-108559113D01*
X114413191Y-107559113D01*
X114698906Y-108511494D02*
X114794144Y-108559113D01*
X114984620Y-108559113D01*
X115079858Y-108511494D01*
X115127477Y-108416256D01*
X115127477Y-108368637D01*
X115079858Y-108273399D01*
X114984620Y-108225780D01*
X114841763Y-108225780D01*
X114746525Y-108178161D01*
X114698906Y-108082923D01*
X114698906Y-108035304D01*
X114746525Y-107940066D01*
X114841763Y-107892447D01*
X114984620Y-107892447D01*
X115079858Y-107940066D01*
X115698906Y-108559113D02*
X115603668Y-108511494D01*
X115556049Y-108463875D01*
X115508430Y-108368637D01*
X115508430Y-108082923D01*
X115556049Y-107987685D01*
X115603668Y-107940066D01*
X115698906Y-107892447D01*
X115841763Y-107892447D01*
X115937001Y-107940066D01*
X115984620Y-107987685D01*
X116032239Y-108082923D01*
X116032239Y-108368637D01*
X115984620Y-108463875D01*
X115937001Y-108511494D01*
X115841763Y-108559113D01*
X115698906Y-108559113D01*
X116603668Y-108559113D02*
X116508430Y-108511494D01*
X116460811Y-108416256D01*
X116460811Y-107559113D01*
X117413191Y-108559113D02*
X117413191Y-108035304D01*
X117365572Y-107940066D01*
X117270334Y-107892447D01*
X117079858Y-107892447D01*
X116984620Y-107940066D01*
X117413191Y-108511494D02*
X117317953Y-108559113D01*
X117079858Y-108559113D01*
X116984620Y-108511494D01*
X116937001Y-108416256D01*
X116937001Y-108321018D01*
X116984620Y-108225780D01*
X117079858Y-108178161D01*
X117317953Y-108178161D01*
X117413191Y-108130542D01*
X117889382Y-108559113D02*
X117889382Y-107892447D01*
X117889382Y-108082923D02*
X117937001Y-107987685D01*
X117984620Y-107940066D01*
X118079858Y-107892447D01*
X118175096Y-107892447D01*
X137299525Y-154775875D02*
X137966191Y-154537779D01*
X137299525Y-154299684D01*
X137966191Y-153490160D02*
X136966191Y-153490160D01*
X137918572Y-153490160D02*
X137966191Y-153585398D01*
X137966191Y-153775875D01*
X137918572Y-153871113D01*
X137870953Y-153918732D01*
X137775715Y-153966351D01*
X137490001Y-153966351D01*
X137394763Y-153918732D01*
X137347144Y-153871113D01*
X137299525Y-153775875D01*
X137299525Y-153585398D01*
X137347144Y-153490160D01*
X137966191Y-152585398D02*
X136966191Y-152585398D01*
X137918572Y-152585398D02*
X137966191Y-152680637D01*
X137966191Y-152871113D01*
X137918572Y-152966351D01*
X137870953Y-153013970D01*
X137775715Y-153061589D01*
X137490001Y-153061589D01*
X137394763Y-153013970D01*
X137347144Y-152966351D01*
X137299525Y-152871113D01*
X137299525Y-152680637D01*
X137347144Y-152585398D01*
X137585239Y-152109208D02*
X137585239Y-151347303D01*
X137918572Y-150490160D02*
X137966191Y-150585398D01*
X137966191Y-150775875D01*
X137918572Y-150871113D01*
X137823334Y-150918732D01*
X137442382Y-150918732D01*
X137347144Y-150871113D01*
X137299525Y-150775875D01*
X137299525Y-150585398D01*
X137347144Y-150490160D01*
X137442382Y-150442541D01*
X137537620Y-150442541D01*
X137632858Y-150918732D01*
X137966191Y-150109208D02*
X137299525Y-149585398D01*
X137299525Y-150109208D02*
X137966191Y-149585398D01*
X143421904Y-156299685D02*
X143469523Y-156204447D01*
X143469523Y-156013971D01*
X143421904Y-155918732D01*
X143326666Y-155871113D01*
X143279047Y-155871113D01*
X143183809Y-155918732D01*
X143136190Y-156013971D01*
X143136190Y-156156828D01*
X143088571Y-156252066D01*
X142993333Y-156299685D01*
X142945714Y-156299685D01*
X142850476Y-156252066D01*
X142802857Y-156156828D01*
X142802857Y-156013971D01*
X142850476Y-155918732D01*
X142802857Y-155537780D02*
X143469523Y-155347304D01*
X142993333Y-155156828D01*
X143469523Y-154966352D01*
X142802857Y-154775875D01*
X143469523Y-153966352D02*
X142469523Y-153966352D01*
X143421904Y-153966352D02*
X143469523Y-154061590D01*
X143469523Y-154252066D01*
X143421904Y-154347304D01*
X143374285Y-154394923D01*
X143279047Y-154442542D01*
X142993333Y-154442542D01*
X142898095Y-154394923D01*
X142850476Y-154347304D01*
X142802857Y-154252066D01*
X142802857Y-154061590D01*
X142850476Y-153966352D01*
X143469523Y-153490161D02*
X142802857Y-153490161D01*
X142469523Y-153490161D02*
X142517143Y-153537780D01*
X142564762Y-153490161D01*
X142517143Y-153442542D01*
X142469523Y-153490161D01*
X142564762Y-153490161D01*
X143469523Y-152871113D02*
X143421904Y-152966352D01*
X143374285Y-153013971D01*
X143279047Y-153061590D01*
X142993333Y-153061590D01*
X142898095Y-153013971D01*
X142850476Y-152966352D01*
X142802857Y-152871113D01*
X142802857Y-152728256D01*
X142850476Y-152633018D01*
X142898095Y-152585399D01*
X142993333Y-152537780D01*
X143279047Y-152537780D01*
X143374285Y-152585399D01*
X143421904Y-152633018D01*
X143469523Y-152728256D01*
X143469523Y-152871113D01*
X143088571Y-152109209D02*
X143088571Y-151347304D01*
X143421904Y-150490161D02*
X143469523Y-150585399D01*
X143469523Y-150775875D01*
X143421904Y-150871113D01*
X143326666Y-150918732D01*
X142945714Y-150918732D01*
X142850476Y-150871113D01*
X142802857Y-150775875D01*
X142802857Y-150585399D01*
X142850476Y-150490161D01*
X142945714Y-150442542D01*
X143040952Y-150442542D01*
X143136190Y-150918732D01*
X143469523Y-150109209D02*
X142802857Y-149585399D01*
X142802857Y-150109209D02*
X143469523Y-149585399D01*
X139765477Y-151728256D02*
X139717857Y-151823494D01*
X139717857Y-151966352D01*
X139765477Y-152109209D01*
X139860715Y-152204447D01*
X139955953Y-152252066D01*
X140146429Y-152299685D01*
X140289286Y-152299685D01*
X140479762Y-152252066D01*
X140575000Y-152204447D01*
X140670238Y-152109209D01*
X140717857Y-151966352D01*
X140717857Y-151871113D01*
X140670238Y-151728256D01*
X140622619Y-151680637D01*
X140289286Y-151680637D01*
X140289286Y-151871113D01*
X140717857Y-151252066D02*
X139717857Y-151252066D01*
X140717857Y-150680637D01*
X139717857Y-150680637D01*
X140717857Y-150204447D02*
X139717857Y-150204447D01*
X139717857Y-149966352D01*
X139765477Y-149823494D01*
X139860715Y-149728256D01*
X139955953Y-149680637D01*
X140146429Y-149633018D01*
X140289286Y-149633018D01*
X140479762Y-149680637D01*
X140575000Y-149728256D01*
X140670238Y-149823494D01*
X140717857Y-149966352D01*
X140717857Y-150204447D01*
X146173572Y-156204447D02*
X146221191Y-156109209D01*
X146221191Y-155918733D01*
X146173572Y-155823494D01*
X146078334Y-155775875D01*
X146030715Y-155775875D01*
X145935477Y-155823494D01*
X145887858Y-155918733D01*
X145887858Y-156061590D01*
X145840239Y-156156828D01*
X145745001Y-156204447D01*
X145697382Y-156204447D01*
X145602144Y-156156828D01*
X145554525Y-156061590D01*
X145554525Y-155918733D01*
X145602144Y-155823494D01*
X145554525Y-155442542D02*
X146221191Y-155252066D01*
X145745001Y-155061590D01*
X146221191Y-154871113D01*
X145554525Y-154680637D01*
X146173572Y-153871113D02*
X146221191Y-153966352D01*
X146221191Y-154156828D01*
X146173572Y-154252066D01*
X146125953Y-154299685D01*
X146030715Y-154347304D01*
X145745001Y-154347304D01*
X145649763Y-154299685D01*
X145602144Y-154252066D01*
X145554525Y-154156828D01*
X145554525Y-153966352D01*
X145602144Y-153871113D01*
X146221191Y-153299685D02*
X146173572Y-153394923D01*
X146078334Y-153442542D01*
X145221191Y-153442542D01*
X146221191Y-152918733D02*
X145221191Y-152918733D01*
X145840239Y-152823494D02*
X146221191Y-152537780D01*
X145554525Y-152537780D02*
X145935477Y-152918733D01*
X145840239Y-152109209D02*
X145840239Y-151347304D01*
X146173572Y-150490161D02*
X146221191Y-150585399D01*
X146221191Y-150775875D01*
X146173572Y-150871113D01*
X146078334Y-150918733D01*
X145697382Y-150918733D01*
X145602144Y-150871113D01*
X145554525Y-150775875D01*
X145554525Y-150585399D01*
X145602144Y-150490161D01*
X145697382Y-150442542D01*
X145792620Y-150442542D01*
X145887858Y-150918733D01*
X146221191Y-150109209D02*
X145554525Y-149585399D01*
X145554525Y-150109209D02*
X146221191Y-149585399D01*
X119646525Y-155053590D02*
X120313191Y-154815494D01*
X119646525Y-154577399D01*
X120313191Y-153767875D02*
X119313191Y-153767875D01*
X120265572Y-153767875D02*
X120313191Y-153863113D01*
X120313191Y-154053590D01*
X120265572Y-154148828D01*
X120217953Y-154196447D01*
X120122715Y-154244066D01*
X119837001Y-154244066D01*
X119741763Y-154196447D01*
X119694144Y-154148828D01*
X119646525Y-154053590D01*
X119646525Y-153863113D01*
X119694144Y-153767875D01*
X120313191Y-152863113D02*
X119313191Y-152863113D01*
X120265572Y-152863113D02*
X120313191Y-152958352D01*
X120313191Y-153148828D01*
X120265572Y-153244066D01*
X120217953Y-153291685D01*
X120122715Y-153339304D01*
X119837001Y-153339304D01*
X119741763Y-153291685D01*
X119694144Y-153244066D01*
X119646525Y-153148828D01*
X119646525Y-152958352D01*
X119694144Y-152863113D01*
X119932239Y-152386923D02*
X119932239Y-151625018D01*
X120265572Y-150720256D02*
X120313191Y-150815494D01*
X120313191Y-151005971D01*
X120265572Y-151101209D01*
X120217953Y-151148828D01*
X120122715Y-151196447D01*
X119837001Y-151196447D01*
X119741763Y-151148828D01*
X119694144Y-151101209D01*
X119646525Y-151005971D01*
X119646525Y-150815494D01*
X119694144Y-150720256D01*
X120313191Y-150148828D02*
X120265572Y-150244066D01*
X120217953Y-150291685D01*
X120122715Y-150339304D01*
X119837001Y-150339304D01*
X119741763Y-150291685D01*
X119694144Y-150244066D01*
X119646525Y-150148828D01*
X119646525Y-150005971D01*
X119694144Y-149910733D01*
X119741763Y-149863113D01*
X119837001Y-149815494D01*
X120122715Y-149815494D01*
X120217953Y-149863113D01*
X120265572Y-149910733D01*
X120313191Y-150005971D01*
X120313191Y-150148828D01*
X116609143Y-151910732D02*
X116561523Y-152005970D01*
X116561523Y-152148828D01*
X116609143Y-152291685D01*
X116704381Y-152386923D01*
X116799619Y-152434542D01*
X116990095Y-152482161D01*
X117132952Y-152482161D01*
X117323428Y-152434542D01*
X117418666Y-152386923D01*
X117513904Y-152291685D01*
X117561523Y-152148828D01*
X117561523Y-152053589D01*
X117513904Y-151910732D01*
X117466285Y-151863113D01*
X117132952Y-151863113D01*
X117132952Y-152053589D01*
X117561523Y-151434542D02*
X116561523Y-151434542D01*
X117561523Y-150863113D01*
X116561523Y-150863113D01*
X117561523Y-150386923D02*
X116561523Y-150386923D01*
X116561523Y-150148828D01*
X116609143Y-150005970D01*
X116704381Y-149910732D01*
X116799619Y-149863113D01*
X116990095Y-149815494D01*
X117132952Y-149815494D01*
X117323428Y-149863113D01*
X117418666Y-149910732D01*
X117513904Y-150005970D01*
X117561523Y-150148828D01*
X117561523Y-150386923D01*
X114143191Y-155577398D02*
X115143191Y-155577398D01*
X114190810Y-155577398D02*
X114143191Y-155482160D01*
X114143191Y-155291684D01*
X114190810Y-155196446D01*
X114238429Y-155148827D01*
X114333667Y-155101208D01*
X114619381Y-155101208D01*
X114714619Y-155148827D01*
X114762238Y-155196446D01*
X114809857Y-155291684D01*
X114809857Y-155482160D01*
X114762238Y-155577398D01*
X114809857Y-154244065D02*
X113809857Y-154244065D01*
X114762238Y-154244065D02*
X114809857Y-154339303D01*
X114809857Y-154529779D01*
X114762238Y-154625017D01*
X114714619Y-154672636D01*
X114619381Y-154720256D01*
X114333667Y-154720256D01*
X114238429Y-154672636D01*
X114190810Y-154625017D01*
X114143191Y-154529779D01*
X114143191Y-154339303D01*
X114190810Y-154244065D01*
X114809857Y-153767875D02*
X114143191Y-153767875D01*
X113809857Y-153767875D02*
X113857477Y-153815494D01*
X113905096Y-153767875D01*
X113857477Y-153720256D01*
X113809857Y-153767875D01*
X113905096Y-153767875D01*
X114809857Y-153148827D02*
X114762238Y-153244065D01*
X114714619Y-153291684D01*
X114619381Y-153339303D01*
X114333667Y-153339303D01*
X114238429Y-153291684D01*
X114190810Y-153244065D01*
X114143191Y-153148827D01*
X114143191Y-153005970D01*
X114190810Y-152910732D01*
X114238429Y-152863113D01*
X114333667Y-152815494D01*
X114619381Y-152815494D01*
X114714619Y-152863113D01*
X114762238Y-152910732D01*
X114809857Y-153005970D01*
X114809857Y-153148827D01*
X114428905Y-152386922D02*
X114428905Y-151625017D01*
X114762238Y-150720256D02*
X114809857Y-150815494D01*
X114809857Y-151005970D01*
X114762238Y-151101208D01*
X114714619Y-151148827D01*
X114619381Y-151196446D01*
X114333667Y-151196446D01*
X114238429Y-151148827D01*
X114190810Y-151101208D01*
X114143191Y-151005970D01*
X114143191Y-150815494D01*
X114190810Y-150720256D01*
X114809857Y-150148827D02*
X114762238Y-150244065D01*
X114714619Y-150291684D01*
X114619381Y-150339303D01*
X114333667Y-150339303D01*
X114238429Y-150291684D01*
X114190810Y-150244065D01*
X114143191Y-150148827D01*
X114143191Y-150005970D01*
X114190810Y-149910732D01*
X114238429Y-149863113D01*
X114333667Y-149815494D01*
X114619381Y-149815494D01*
X114714619Y-149863113D01*
X114762238Y-149910732D01*
X114809857Y-150005970D01*
X114809857Y-150148827D01*
X111391525Y-155482160D02*
X112391525Y-155482160D01*
X111439144Y-155482160D02*
X111391525Y-155386922D01*
X111391525Y-155196446D01*
X111439144Y-155101208D01*
X111486763Y-155053589D01*
X111582001Y-155005970D01*
X111867715Y-155005970D01*
X111962953Y-155053589D01*
X112010572Y-155101208D01*
X112058191Y-155196446D01*
X112058191Y-155386922D01*
X112010572Y-155482160D01*
X112010572Y-154148827D02*
X112058191Y-154244065D01*
X112058191Y-154434541D01*
X112010572Y-154529779D01*
X111962953Y-154577398D01*
X111867715Y-154625017D01*
X111582001Y-154625017D01*
X111486763Y-154577398D01*
X111439144Y-154529779D01*
X111391525Y-154434541D01*
X111391525Y-154244065D01*
X111439144Y-154148827D01*
X112058191Y-153577398D02*
X112010572Y-153672637D01*
X111915334Y-153720256D01*
X111058191Y-153720256D01*
X112058191Y-153196446D02*
X111058191Y-153196446D01*
X111677239Y-153101208D02*
X112058191Y-152815494D01*
X111391525Y-152815494D02*
X111772477Y-153196446D01*
X111677239Y-152386922D02*
X111677239Y-151625017D01*
X112010572Y-150720256D02*
X112058191Y-150815494D01*
X112058191Y-151005970D01*
X112010572Y-151101208D01*
X111962953Y-151148827D01*
X111867715Y-151196446D01*
X111582001Y-151196446D01*
X111486763Y-151148827D01*
X111439144Y-151101208D01*
X111391525Y-151005970D01*
X111391525Y-150815494D01*
X111439144Y-150720256D01*
X112058191Y-150148827D02*
X112010572Y-150244065D01*
X111962953Y-150291684D01*
X111867715Y-150339303D01*
X111582001Y-150339303D01*
X111486763Y-150291684D01*
X111439144Y-150244065D01*
X111391525Y-150148827D01*
X111391525Y-150005970D01*
X111439144Y-149910732D01*
X111486763Y-149863113D01*
X111582001Y-149815494D01*
X111867715Y-149815494D01*
X111962953Y-149863113D01*
X112010572Y-149910732D01*
X112058191Y-150005970D01*
X112058191Y-150148827D01*
X103120811Y-128431494D02*
X103025573Y-128479113D01*
X102835096Y-128479113D01*
X102739858Y-128431494D01*
X102692239Y-128383875D01*
X102644620Y-128288637D01*
X102644620Y-128002923D01*
X102692239Y-127907685D01*
X102739858Y-127860066D01*
X102835096Y-127812447D01*
X103025573Y-127812447D01*
X103120811Y-127860066D01*
X103406525Y-127812447D02*
X103787477Y-127812447D01*
X103549382Y-127479113D02*
X103549382Y-128336256D01*
X103597001Y-128431494D01*
X103692239Y-128479113D01*
X103787477Y-128479113D01*
X104073192Y-128431494D02*
X104168430Y-128479113D01*
X104358906Y-128479113D01*
X104454144Y-128431494D01*
X104501763Y-128336256D01*
X104501763Y-128288637D01*
X104454144Y-128193399D01*
X104358906Y-128145780D01*
X104216049Y-128145780D01*
X104120811Y-128098161D01*
X104073192Y-128002923D01*
X104073192Y-127955304D01*
X104120811Y-127860066D01*
X104216049Y-127812447D01*
X104358906Y-127812447D01*
X104454144Y-127860066D01*
X104930334Y-128098161D02*
X105692239Y-128098161D01*
X106549382Y-128431494D02*
X106454144Y-128479113D01*
X106263668Y-128479113D01*
X106168430Y-128431494D01*
X106120811Y-128336256D01*
X106120811Y-127955304D01*
X106168430Y-127860066D01*
X106263668Y-127812447D01*
X106454144Y-127812447D01*
X106549382Y-127860066D01*
X106597001Y-127955304D01*
X106597001Y-128050542D01*
X106120811Y-128145780D01*
X106930334Y-128479113D02*
X107454144Y-127812447D01*
X106930334Y-127812447D02*
X107454144Y-128479113D01*
X102454145Y-113239113D02*
X102454145Y-112572447D01*
X102454145Y-112762923D02*
X102501764Y-112667685D01*
X102549383Y-112620066D01*
X102644621Y-112572447D01*
X102739859Y-112572447D01*
X102977954Y-113239113D02*
X103501764Y-112572447D01*
X102977954Y-112572447D02*
X103501764Y-113239113D01*
X104073192Y-112239113D02*
X104168430Y-112239113D01*
X104263668Y-112286733D01*
X104311287Y-112334352D01*
X104358906Y-112429590D01*
X104406526Y-112620066D01*
X104406526Y-112858161D01*
X104358906Y-113048637D01*
X104311287Y-113143875D01*
X104263668Y-113191494D01*
X104168430Y-113239113D01*
X104073192Y-113239113D01*
X103977954Y-113191494D01*
X103930335Y-113143875D01*
X103882716Y-113048637D01*
X103835097Y-112858161D01*
X103835097Y-112620066D01*
X103882716Y-112429590D01*
X103930335Y-112334352D01*
X103977954Y-112286733D01*
X104073192Y-112239113D01*
X104835097Y-112858161D02*
X105597002Y-112858161D01*
X106501764Y-113191494D02*
X106406526Y-113239113D01*
X106216049Y-113239113D01*
X106120811Y-113191494D01*
X106073192Y-113143875D01*
X106025573Y-113048637D01*
X106025573Y-112762923D01*
X106073192Y-112667685D01*
X106120811Y-112620066D01*
X106216049Y-112572447D01*
X106406526Y-112572447D01*
X106501764Y-112620066D01*
X107073192Y-113239113D02*
X106977954Y-113191494D01*
X106930335Y-113143875D01*
X106882716Y-113048637D01*
X106882716Y-112762923D01*
X106930335Y-112667685D01*
X106977954Y-112620066D01*
X107073192Y-112572447D01*
X107216049Y-112572447D01*
X107311287Y-112620066D01*
X107358906Y-112667685D01*
X107406526Y-112762923D01*
X107406526Y-113048637D01*
X107358906Y-113143875D01*
X107311287Y-113191494D01*
X107216049Y-113239113D01*
X107073192Y-113239113D01*
X102358906Y-110032447D02*
X102739858Y-110032447D01*
X102501763Y-109699113D02*
X102501763Y-110556256D01*
X102549382Y-110651494D01*
X102644620Y-110699113D01*
X102739858Y-110699113D01*
X102977954Y-110699113D02*
X103501763Y-110032447D01*
X102977954Y-110032447D02*
X103501763Y-110699113D01*
X104073192Y-109699113D02*
X104168430Y-109699113D01*
X104263668Y-109746733D01*
X104311287Y-109794352D01*
X104358906Y-109889590D01*
X104406525Y-110080066D01*
X104406525Y-110318161D01*
X104358906Y-110508637D01*
X104311287Y-110603875D01*
X104263668Y-110651494D01*
X104168430Y-110699113D01*
X104073192Y-110699113D01*
X103977954Y-110651494D01*
X103930335Y-110603875D01*
X103882715Y-110508637D01*
X103835096Y-110318161D01*
X103835096Y-110080066D01*
X103882715Y-109889590D01*
X103930335Y-109794352D01*
X103977954Y-109746733D01*
X104073192Y-109699113D01*
X104835096Y-110318161D02*
X105597001Y-110318161D01*
X106501763Y-110651494D02*
X106406525Y-110699113D01*
X106216049Y-110699113D01*
X106120811Y-110651494D01*
X106073192Y-110603875D01*
X106025573Y-110508637D01*
X106025573Y-110222923D01*
X106073192Y-110127685D01*
X106120811Y-110080066D01*
X106216049Y-110032447D01*
X106406525Y-110032447D01*
X106501763Y-110080066D01*
X107073192Y-110699113D02*
X106977954Y-110651494D01*
X106930335Y-110603875D01*
X106882715Y-110508637D01*
X106882715Y-110222923D01*
X106930335Y-110127685D01*
X106977954Y-110080066D01*
X107073192Y-110032447D01*
X107216049Y-110032447D01*
X107311287Y-110080066D01*
X107358906Y-110127685D01*
X107406525Y-110222923D01*
X107406525Y-110508637D01*
X107358906Y-110603875D01*
X107311287Y-110651494D01*
X107216049Y-110699113D01*
X107073192Y-110699113D01*
X102073192Y-115731494D02*
X101977954Y-115779113D01*
X101787478Y-115779113D01*
X101692240Y-115731494D01*
X101644621Y-115683875D01*
X101597002Y-115588637D01*
X101597002Y-115302923D01*
X101644621Y-115207685D01*
X101692240Y-115160066D01*
X101787478Y-115112447D01*
X101977954Y-115112447D01*
X102073192Y-115160066D01*
X102358906Y-115112447D02*
X102739859Y-115112447D01*
X102501764Y-114779113D02*
X102501764Y-115636256D01*
X102549383Y-115731494D01*
X102644621Y-115779113D01*
X102739859Y-115779113D01*
X103025573Y-115731494D02*
X103120811Y-115779113D01*
X103311287Y-115779113D01*
X103406525Y-115731494D01*
X103454144Y-115636256D01*
X103454144Y-115588637D01*
X103406525Y-115493399D01*
X103311287Y-115445780D01*
X103168430Y-115445780D01*
X103073192Y-115398161D01*
X103025573Y-115302923D01*
X103025573Y-115255304D01*
X103073192Y-115160066D01*
X103168430Y-115112447D01*
X103311287Y-115112447D01*
X103406525Y-115160066D01*
X104073192Y-114779113D02*
X104168430Y-114779113D01*
X104263668Y-114826733D01*
X104311287Y-114874352D01*
X104358906Y-114969590D01*
X104406525Y-115160066D01*
X104406525Y-115398161D01*
X104358906Y-115588637D01*
X104311287Y-115683875D01*
X104263668Y-115731494D01*
X104168430Y-115779113D01*
X104073192Y-115779113D01*
X103977954Y-115731494D01*
X103930335Y-115683875D01*
X103882716Y-115588637D01*
X103835097Y-115398161D01*
X103835097Y-115160066D01*
X103882716Y-114969590D01*
X103930335Y-114874352D01*
X103977954Y-114826733D01*
X104073192Y-114779113D01*
X104835097Y-115398161D02*
X105597002Y-115398161D01*
X106501764Y-115731494D02*
X106406525Y-115779113D01*
X106216049Y-115779113D01*
X106120811Y-115731494D01*
X106073192Y-115683875D01*
X106025573Y-115588637D01*
X106025573Y-115302923D01*
X106073192Y-115207685D01*
X106120811Y-115160066D01*
X106216049Y-115112447D01*
X106406525Y-115112447D01*
X106501764Y-115160066D01*
X107073192Y-115779113D02*
X106977954Y-115731494D01*
X106930335Y-115683875D01*
X106882716Y-115588637D01*
X106882716Y-115302923D01*
X106930335Y-115207685D01*
X106977954Y-115160066D01*
X107073192Y-115112447D01*
X107216049Y-115112447D01*
X107311287Y-115160066D01*
X107358906Y-115207685D01*
X107406525Y-115302923D01*
X107406525Y-115588637D01*
X107358906Y-115683875D01*
X107311287Y-115731494D01*
X107216049Y-115779113D01*
X107073192Y-115779113D01*
X101882715Y-118319113D02*
X101882715Y-117652447D01*
X101882715Y-117842923D02*
X101930334Y-117747685D01*
X101977953Y-117700066D01*
X102073191Y-117652447D01*
X102168430Y-117652447D01*
X102358906Y-117652447D02*
X102739858Y-117652447D01*
X102501763Y-117319113D02*
X102501763Y-118176256D01*
X102549382Y-118271494D01*
X102644620Y-118319113D01*
X102739858Y-118319113D01*
X103025572Y-118271494D02*
X103120811Y-118319113D01*
X103311287Y-118319113D01*
X103406525Y-118271494D01*
X103454144Y-118176256D01*
X103454144Y-118128637D01*
X103406525Y-118033399D01*
X103311287Y-117985780D01*
X103168430Y-117985780D01*
X103073191Y-117938161D01*
X103025572Y-117842923D01*
X103025572Y-117795304D01*
X103073191Y-117700066D01*
X103168430Y-117652447D01*
X103311287Y-117652447D01*
X103406525Y-117700066D01*
X104073191Y-117319113D02*
X104168430Y-117319113D01*
X104263668Y-117366733D01*
X104311287Y-117414352D01*
X104358906Y-117509590D01*
X104406525Y-117700066D01*
X104406525Y-117938161D01*
X104358906Y-118128637D01*
X104311287Y-118223875D01*
X104263668Y-118271494D01*
X104168430Y-118319113D01*
X104073191Y-118319113D01*
X103977953Y-118271494D01*
X103930334Y-118223875D01*
X103882715Y-118128637D01*
X103835096Y-117938161D01*
X103835096Y-117700066D01*
X103882715Y-117509590D01*
X103930334Y-117414352D01*
X103977953Y-117366733D01*
X104073191Y-117319113D01*
X104835096Y-117938161D02*
X105597001Y-117938161D01*
X106501763Y-118271494D02*
X106406525Y-118319113D01*
X106216049Y-118319113D01*
X106120811Y-118271494D01*
X106073191Y-118223875D01*
X106025572Y-118128637D01*
X106025572Y-117842923D01*
X106073191Y-117747685D01*
X106120811Y-117700066D01*
X106216049Y-117652447D01*
X106406525Y-117652447D01*
X106501763Y-117700066D01*
X107073191Y-118319113D02*
X106977953Y-118271494D01*
X106930334Y-118223875D01*
X106882715Y-118128637D01*
X106882715Y-117842923D01*
X106930334Y-117747685D01*
X106977953Y-117700066D01*
X107073191Y-117652447D01*
X107216049Y-117652447D01*
X107311287Y-117700066D01*
X107358906Y-117747685D01*
X107406525Y-117842923D01*
X107406525Y-118128637D01*
X107358906Y-118223875D01*
X107311287Y-118271494D01*
X107216049Y-118319113D01*
X107073191Y-118319113D01*
X102930335Y-120859113D02*
X102930335Y-120192447D01*
X102930335Y-120382923D02*
X102977954Y-120287685D01*
X103025573Y-120240066D01*
X103120811Y-120192447D01*
X103216049Y-120192447D01*
X103406525Y-120192447D02*
X103787478Y-120192447D01*
X103549382Y-119859113D02*
X103549382Y-120716256D01*
X103597001Y-120811494D01*
X103692240Y-120859113D01*
X103787478Y-120859113D01*
X104073192Y-120811494D02*
X104168430Y-120859113D01*
X104358906Y-120859113D01*
X104454144Y-120811494D01*
X104501763Y-120716256D01*
X104501763Y-120668637D01*
X104454144Y-120573399D01*
X104358906Y-120525780D01*
X104216049Y-120525780D01*
X104120811Y-120478161D01*
X104073192Y-120382923D01*
X104073192Y-120335304D01*
X104120811Y-120240066D01*
X104216049Y-120192447D01*
X104358906Y-120192447D01*
X104454144Y-120240066D01*
X104930335Y-120478161D02*
X105692240Y-120478161D01*
X106549382Y-120811494D02*
X106454144Y-120859113D01*
X106263668Y-120859113D01*
X106168430Y-120811494D01*
X106120811Y-120716256D01*
X106120811Y-120335304D01*
X106168430Y-120240066D01*
X106263668Y-120192447D01*
X106454144Y-120192447D01*
X106549382Y-120240066D01*
X106597001Y-120335304D01*
X106597001Y-120430542D01*
X106120811Y-120525780D01*
X106930335Y-120859113D02*
X107454144Y-120192447D01*
X106930335Y-120192447D02*
X107454144Y-120859113D01*
X103501763Y-123399113D02*
X103501763Y-122732447D01*
X103501763Y-122922923D02*
X103549382Y-122827685D01*
X103597001Y-122780066D01*
X103692239Y-122732447D01*
X103787477Y-122732447D01*
X104025573Y-123399113D02*
X104549382Y-122732447D01*
X104025573Y-122732447D02*
X104549382Y-123399113D01*
X104930335Y-123018161D02*
X105692239Y-123018161D01*
X106549382Y-123351494D02*
X106454144Y-123399113D01*
X106263668Y-123399113D01*
X106168430Y-123351494D01*
X106120811Y-123256256D01*
X106120811Y-122875304D01*
X106168430Y-122780066D01*
X106263668Y-122732447D01*
X106454144Y-122732447D01*
X106549382Y-122780066D01*
X106597001Y-122875304D01*
X106597001Y-122970542D01*
X106120811Y-123065780D01*
X106930335Y-123399113D02*
X107454144Y-122732447D01*
X106930335Y-122732447D02*
X107454144Y-123399113D01*
X103406525Y-125272447D02*
X103787478Y-125272447D01*
X103549383Y-124939113D02*
X103549383Y-125796256D01*
X103597002Y-125891494D01*
X103692240Y-125939113D01*
X103787478Y-125939113D01*
X104025573Y-125939113D02*
X104549383Y-125272447D01*
X104025573Y-125272447D02*
X104549383Y-125939113D01*
X104930335Y-125558161D02*
X105692240Y-125558161D01*
X106549383Y-125891494D02*
X106454145Y-125939113D01*
X106263668Y-125939113D01*
X106168430Y-125891494D01*
X106120811Y-125796256D01*
X106120811Y-125415304D01*
X106168430Y-125320066D01*
X106263668Y-125272447D01*
X106454145Y-125272447D01*
X106549383Y-125320066D01*
X106597002Y-125415304D01*
X106597002Y-125510542D01*
X106120811Y-125605780D01*
X106930335Y-125939113D02*
X107454145Y-125272447D01*
X106930335Y-125272447D02*
X107454145Y-125939113D01*
X103692239Y-130971494D02*
X103597001Y-131019113D01*
X103406525Y-131019113D01*
X103311287Y-130971494D01*
X103263667Y-130923875D01*
X103216048Y-130828637D01*
X103216048Y-130542923D01*
X103263667Y-130447685D01*
X103311287Y-130400066D01*
X103406525Y-130352447D01*
X103597001Y-130352447D01*
X103692239Y-130400066D01*
X104120810Y-131019113D02*
X104120810Y-130019113D01*
X104216048Y-130638161D02*
X104501763Y-131019113D01*
X104501763Y-130352447D02*
X104120810Y-130733399D01*
X104930334Y-130638161D02*
X105692239Y-130638161D01*
X106549382Y-130971494D02*
X106454144Y-131019113D01*
X106263667Y-131019113D01*
X106168429Y-130971494D01*
X106120810Y-130876256D01*
X106120810Y-130495304D01*
X106168429Y-130400066D01*
X106263667Y-130352447D01*
X106454144Y-130352447D01*
X106549382Y-130400066D01*
X106597001Y-130495304D01*
X106597001Y-130590542D01*
X106120810Y-130685780D01*
X106930334Y-131019113D02*
X107454144Y-130352447D01*
X106930334Y-130352447D02*
X107454144Y-131019113D01*
X102930335Y-133559113D02*
X102930335Y-132892447D01*
X102930335Y-133082923D02*
X102977954Y-132987685D01*
X103025573Y-132940066D01*
X103120811Y-132892447D01*
X103216049Y-132892447D01*
X103501763Y-133511494D02*
X103597001Y-133559113D01*
X103787478Y-133559113D01*
X103882716Y-133511494D01*
X103930335Y-133416256D01*
X103930335Y-133368637D01*
X103882716Y-133273399D01*
X103787478Y-133225780D01*
X103644621Y-133225780D01*
X103549382Y-133178161D01*
X103501763Y-133082923D01*
X103501763Y-133035304D01*
X103549382Y-132940066D01*
X103644621Y-132892447D01*
X103787478Y-132892447D01*
X103882716Y-132940066D01*
X104216049Y-132892447D02*
X104597001Y-132892447D01*
X104358906Y-132559113D02*
X104358906Y-133416256D01*
X104406525Y-133511494D01*
X104501763Y-133559113D01*
X104597001Y-133559113D01*
X104930335Y-133178161D02*
X105692240Y-133178161D01*
X106549382Y-133511494D02*
X106454144Y-133559113D01*
X106263668Y-133559113D01*
X106168430Y-133511494D01*
X106120811Y-133416256D01*
X106120811Y-133035304D01*
X106168430Y-132940066D01*
X106263668Y-132892447D01*
X106454144Y-132892447D01*
X106549382Y-132940066D01*
X106597001Y-133035304D01*
X106597001Y-133130542D01*
X106120811Y-133225780D01*
X106930335Y-133559113D02*
X107454144Y-132892447D01*
X106930335Y-132892447D02*
X107454144Y-133559113D01*
X101930335Y-136099113D02*
X101930335Y-135099113D01*
X101930335Y-136051494D02*
X101835096Y-136099113D01*
X101644620Y-136099113D01*
X101549382Y-136051494D01*
X101501763Y-136003875D01*
X101454144Y-135908637D01*
X101454144Y-135622923D01*
X101501763Y-135527685D01*
X101549382Y-135480066D01*
X101644620Y-135432447D01*
X101835096Y-135432447D01*
X101930335Y-135480066D01*
X102406525Y-136099113D02*
X102406525Y-135099113D01*
X102406525Y-135480066D02*
X102501763Y-135432447D01*
X102692239Y-135432447D01*
X102787477Y-135480066D01*
X102835096Y-135527685D01*
X102882715Y-135622923D01*
X102882715Y-135908637D01*
X102835096Y-136003875D01*
X102787477Y-136051494D01*
X102692239Y-136099113D01*
X102501763Y-136099113D01*
X102406525Y-136051494D01*
X103739858Y-135432447D02*
X103739858Y-136241971D01*
X103692239Y-136337209D01*
X103644620Y-136384828D01*
X103549382Y-136432447D01*
X103406525Y-136432447D01*
X103311287Y-136384828D01*
X103739858Y-136051494D02*
X103644620Y-136099113D01*
X103454144Y-136099113D01*
X103358906Y-136051494D01*
X103311287Y-136003875D01*
X103263668Y-135908637D01*
X103263668Y-135622923D01*
X103311287Y-135527685D01*
X103358906Y-135480066D01*
X103454144Y-135432447D01*
X103644620Y-135432447D01*
X103739858Y-135480066D01*
X104168430Y-135194352D02*
X104216049Y-135146733D01*
X104311287Y-135099113D01*
X104549382Y-135099113D01*
X104644620Y-135146733D01*
X104692239Y-135194352D01*
X104739858Y-135289590D01*
X104739858Y-135384828D01*
X104692239Y-135527685D01*
X104120811Y-136099113D01*
X104739858Y-136099113D01*
X105168430Y-135718161D02*
X105930335Y-135718161D01*
X106835096Y-136051494D02*
X106739858Y-136099113D01*
X106549382Y-136099113D01*
X106454144Y-136051494D01*
X106406525Y-136003875D01*
X106358906Y-135908637D01*
X106358906Y-135622923D01*
X106406525Y-135527685D01*
X106454144Y-135480066D01*
X106549382Y-135432447D01*
X106739858Y-135432447D01*
X106835096Y-135480066D01*
X107120811Y-135432447D02*
X107501763Y-135432447D01*
X107263668Y-135099113D02*
X107263668Y-135956256D01*
X107311287Y-136051494D01*
X107406525Y-136099113D01*
X107501763Y-136099113D01*
X101930335Y-138639113D02*
X101930335Y-137639113D01*
X101930335Y-138591494D02*
X101835096Y-138639113D01*
X101644620Y-138639113D01*
X101549382Y-138591494D01*
X101501763Y-138543875D01*
X101454144Y-138448637D01*
X101454144Y-138162923D01*
X101501763Y-138067685D01*
X101549382Y-138020066D01*
X101644620Y-137972447D01*
X101835096Y-137972447D01*
X101930335Y-138020066D01*
X102406525Y-138639113D02*
X102406525Y-137639113D01*
X102406525Y-138020066D02*
X102501763Y-137972447D01*
X102692239Y-137972447D01*
X102787477Y-138020066D01*
X102835096Y-138067685D01*
X102882715Y-138162923D01*
X102882715Y-138448637D01*
X102835096Y-138543875D01*
X102787477Y-138591494D01*
X102692239Y-138639113D01*
X102501763Y-138639113D01*
X102406525Y-138591494D01*
X103739858Y-137972447D02*
X103739858Y-138781971D01*
X103692239Y-138877209D01*
X103644620Y-138924828D01*
X103549382Y-138972447D01*
X103406525Y-138972447D01*
X103311287Y-138924828D01*
X103739858Y-138591494D02*
X103644620Y-138639113D01*
X103454144Y-138639113D01*
X103358906Y-138591494D01*
X103311287Y-138543875D01*
X103263668Y-138448637D01*
X103263668Y-138162923D01*
X103311287Y-138067685D01*
X103358906Y-138020066D01*
X103454144Y-137972447D01*
X103644620Y-137972447D01*
X103739858Y-138020066D01*
X104739858Y-138639113D02*
X104168430Y-138639113D01*
X104454144Y-138639113D02*
X104454144Y-137639113D01*
X104358906Y-137781971D01*
X104263668Y-137877209D01*
X104168430Y-137924828D01*
X105168430Y-138258161D02*
X105930335Y-138258161D01*
X106835096Y-138591494D02*
X106739858Y-138639113D01*
X106549382Y-138639113D01*
X106454144Y-138591494D01*
X106406525Y-138543875D01*
X106358906Y-138448637D01*
X106358906Y-138162923D01*
X106406525Y-138067685D01*
X106454144Y-138020066D01*
X106549382Y-137972447D01*
X106739858Y-137972447D01*
X106835096Y-138020066D01*
X107120811Y-137972447D02*
X107501763Y-137972447D01*
X107263668Y-137639113D02*
X107263668Y-138496256D01*
X107311287Y-138591494D01*
X107406525Y-138639113D01*
X107501763Y-138639113D01*
X101930335Y-141179113D02*
X101930335Y-140179113D01*
X101930335Y-141131494D02*
X101835096Y-141179113D01*
X101644620Y-141179113D01*
X101549382Y-141131494D01*
X101501763Y-141083875D01*
X101454144Y-140988637D01*
X101454144Y-140702923D01*
X101501763Y-140607685D01*
X101549382Y-140560066D01*
X101644620Y-140512447D01*
X101835096Y-140512447D01*
X101930335Y-140560066D01*
X102406525Y-141179113D02*
X102406525Y-140179113D01*
X102406525Y-140560066D02*
X102501763Y-140512447D01*
X102692239Y-140512447D01*
X102787477Y-140560066D01*
X102835096Y-140607685D01*
X102882715Y-140702923D01*
X102882715Y-140988637D01*
X102835096Y-141083875D01*
X102787477Y-141131494D01*
X102692239Y-141179113D01*
X102501763Y-141179113D01*
X102406525Y-141131494D01*
X103739858Y-140512447D02*
X103739858Y-141321971D01*
X103692239Y-141417209D01*
X103644620Y-141464828D01*
X103549382Y-141512447D01*
X103406525Y-141512447D01*
X103311287Y-141464828D01*
X103739858Y-141131494D02*
X103644620Y-141179113D01*
X103454144Y-141179113D01*
X103358906Y-141131494D01*
X103311287Y-141083875D01*
X103263668Y-140988637D01*
X103263668Y-140702923D01*
X103311287Y-140607685D01*
X103358906Y-140560066D01*
X103454144Y-140512447D01*
X103644620Y-140512447D01*
X103739858Y-140560066D01*
X104406525Y-140179113D02*
X104501763Y-140179113D01*
X104597001Y-140226733D01*
X104644620Y-140274352D01*
X104692239Y-140369590D01*
X104739858Y-140560066D01*
X104739858Y-140798161D01*
X104692239Y-140988637D01*
X104644620Y-141083875D01*
X104597001Y-141131494D01*
X104501763Y-141179113D01*
X104406525Y-141179113D01*
X104311287Y-141131494D01*
X104263668Y-141083875D01*
X104216049Y-140988637D01*
X104168430Y-140798161D01*
X104168430Y-140560066D01*
X104216049Y-140369590D01*
X104263668Y-140274352D01*
X104311287Y-140226733D01*
X104406525Y-140179113D01*
X105168430Y-140798161D02*
X105930335Y-140798161D01*
X106835096Y-141131494D02*
X106739858Y-141179113D01*
X106549382Y-141179113D01*
X106454144Y-141131494D01*
X106406525Y-141083875D01*
X106358906Y-140988637D01*
X106358906Y-140702923D01*
X106406525Y-140607685D01*
X106454144Y-140560066D01*
X106549382Y-140512447D01*
X106739858Y-140512447D01*
X106835096Y-140560066D01*
X107120811Y-140512447D02*
X107501763Y-140512447D01*
X107263668Y-140179113D02*
X107263668Y-141036256D01*
X107311287Y-141131494D01*
X107406525Y-141179113D01*
X107501763Y-141179113D01*
X105311287Y-142766733D02*
X105216049Y-142719113D01*
X105073192Y-142719113D01*
X104930334Y-142766733D01*
X104835096Y-142861971D01*
X104787477Y-142957209D01*
X104739858Y-143147685D01*
X104739858Y-143290542D01*
X104787477Y-143481018D01*
X104835096Y-143576256D01*
X104930334Y-143671494D01*
X105073192Y-143719113D01*
X105168430Y-143719113D01*
X105311287Y-143671494D01*
X105358906Y-143623875D01*
X105358906Y-143290542D01*
X105168430Y-143290542D01*
X105787477Y-143719113D02*
X105787477Y-142719113D01*
X106358906Y-143719113D01*
X106358906Y-142719113D01*
X106835096Y-143719113D02*
X106835096Y-142719113D01*
X107073192Y-142719113D01*
X107216049Y-142766733D01*
X107311287Y-142861971D01*
X107358906Y-142957209D01*
X107406525Y-143147685D01*
X107406525Y-143290542D01*
X107358906Y-143481018D01*
X107311287Y-143576256D01*
X107216049Y-143671494D01*
X107073192Y-143719113D01*
X106835096Y-143719113D01*
X104501763Y-146259113D02*
X104501763Y-145259113D01*
X104501763Y-145640066D02*
X104597001Y-145592447D01*
X104787477Y-145592447D01*
X104882715Y-145640066D01*
X104930335Y-145687685D01*
X104977954Y-145782923D01*
X104977954Y-146068637D01*
X104930335Y-146163875D01*
X104882715Y-146211494D01*
X104787477Y-146259113D01*
X104597001Y-146259113D01*
X104501763Y-146211494D01*
X105835096Y-145592447D02*
X105835096Y-146259113D01*
X105406525Y-145592447D02*
X105406525Y-146116256D01*
X105454144Y-146211494D01*
X105549382Y-146259113D01*
X105692239Y-146259113D01*
X105787477Y-146211494D01*
X105835096Y-146163875D01*
X106311287Y-146259113D02*
X106311287Y-145592447D01*
X106311287Y-145782923D02*
X106358906Y-145687685D01*
X106406525Y-145640066D01*
X106501763Y-145592447D01*
X106597001Y-145592447D01*
X106930335Y-145592447D02*
X106930335Y-146259113D01*
X106930335Y-145687685D02*
X106977954Y-145640066D01*
X107073192Y-145592447D01*
X107216049Y-145592447D01*
X107311287Y-145640066D01*
X107358906Y-145735304D01*
X107358906Y-146259113D01*
X104168430Y-147559113D02*
X104501763Y-148559113D01*
X104835097Y-147559113D01*
X105597001Y-148511494D02*
X105501763Y-148559113D01*
X105311287Y-148559113D01*
X105216049Y-148511494D01*
X105168430Y-148463875D01*
X105120811Y-148368637D01*
X105120811Y-148082923D01*
X105168430Y-147987685D01*
X105216049Y-147940066D01*
X105311287Y-147892447D01*
X105501763Y-147892447D01*
X105597001Y-147940066D01*
X106454144Y-148559113D02*
X106454144Y-148035304D01*
X106406525Y-147940066D01*
X106311287Y-147892447D01*
X106120811Y-147892447D01*
X106025573Y-147940066D01*
X106454144Y-148511494D02*
X106358906Y-148559113D01*
X106120811Y-148559113D01*
X106025573Y-148511494D01*
X105977954Y-148416256D01*
X105977954Y-148321018D01*
X106025573Y-148225780D01*
X106120811Y-148178161D01*
X106358906Y-148178161D01*
X106454144Y-148130542D01*
X106930335Y-147892447D02*
X106930335Y-148892447D01*
X106930335Y-147940066D02*
X107025573Y-147892447D01*
X107216049Y-147892447D01*
X107311287Y-147940066D01*
X107358906Y-147987685D01*
X107406525Y-148082923D01*
X107406525Y-148368637D01*
X107358906Y-148463875D01*
X107311287Y-148511494D01*
X107216049Y-148559113D01*
X107025573Y-148559113D01*
X106930335Y-148511494D01*
D12*
X152412900Y-113766800D02*
G75*
G03*
X152412900Y-113766800I-1104900J0D01*
G01*
X152412900Y-144221400D02*
G75*
G03*
X152412900Y-144221400I-1104900J0D01*
G01*
D10*
%TO.C,J7*%
X116510811Y-113486693D02*
X116510811Y-111806743D01*
X111510811Y-113076774D02*
X111510811Y-120136692D01*
X116510811Y-111806743D02*
X114430857Y-111806743D01*
X116510811Y-121406724D02*
X116510811Y-119726773D01*
X114430857Y-121406724D02*
X116510811Y-121406724D01*
X117845811Y-111778743D02*
X117210811Y-113302743D01*
X116575811Y-111778743D02*
X117845811Y-111778743D01*
X117210811Y-113302743D02*
X116575811Y-111778743D01*
%TO.C,SW2*%
X152310811Y-113806733D02*
G75*
G03*
X152310811Y-113806733I-1000000J0D01*
G01*
X148160811Y-108156733D02*
X148160811Y-117906733D01*
X148160811Y-117906733D02*
X160960811Y-117906733D01*
X160960811Y-108156733D02*
X148160811Y-108156733D01*
X160960811Y-117906733D02*
X160960811Y-108156733D01*
%TO.C,R1*%
X159623590Y-134896733D02*
X159298032Y-134896733D01*
X159623590Y-135916733D02*
X159298032Y-135916733D01*
%TO.C,R2*%
X159323590Y-120996733D02*
X158998032Y-120996733D01*
X159323590Y-122016733D02*
X158998032Y-122016733D01*
%TO.C,R3*%
X115450811Y-131943954D02*
X115450811Y-132269512D01*
X116470811Y-131943954D02*
X116470811Y-132269512D01*
%TO.C,SW1*%
X152310811Y-144206733D02*
G75*
G03*
X152310811Y-144206733I-1000000J0D01*
G01*
X160960811Y-140106733D02*
X148160811Y-140106733D01*
X160960811Y-149856733D02*
X160960811Y-140106733D01*
X148160811Y-149856733D02*
X160960811Y-149856733D01*
X148160811Y-140106733D02*
X148160811Y-149856733D01*
%TO.C,U1*%
X118262811Y-124452433D02*
X111658811Y-124452433D01*
X111658811Y-129761033D02*
X118262811Y-129761033D01*
X118540200Y-128150297D02*
G75*
G03*
X118897811Y-128662733I357611J-131436D01*
G01*
%TO.C,U2*%
X111710811Y-131756733D02*
X113710811Y-131756733D01*
X111710811Y-145506733D02*
X111710811Y-131756733D01*
X113710811Y-145506733D02*
X111710811Y-145506733D01*
X113710811Y-131756733D02*
X113710811Y-145506733D01*
%TO.C,J7*%
D11*
X115413191Y-114106733D02*
X115651287Y-114106733D01*
X115556049Y-114344828D02*
X115651287Y-114106733D01*
X115556049Y-113868637D01*
X115841763Y-114249590D02*
X115651287Y-114106733D01*
X115841763Y-113963875D01*
%TO.C,SW2*%
X162565572Y-113940066D02*
X162613191Y-113797209D01*
X162613191Y-113559113D01*
X162565572Y-113463875D01*
X162517953Y-113416256D01*
X162422715Y-113368637D01*
X162327477Y-113368637D01*
X162232239Y-113416256D01*
X162184620Y-113463875D01*
X162137001Y-113559113D01*
X162089382Y-113749590D01*
X162041763Y-113844828D01*
X161994144Y-113892447D01*
X161898906Y-113940066D01*
X161803668Y-113940066D01*
X161708430Y-113892447D01*
X161660811Y-113844828D01*
X161613191Y-113749590D01*
X161613191Y-113511494D01*
X161660811Y-113368637D01*
X161613191Y-113035304D02*
X162613191Y-112797209D01*
X161898906Y-112606733D01*
X162613191Y-112416256D01*
X161613191Y-112178161D01*
X161708430Y-111844828D02*
X161660811Y-111797209D01*
X161613191Y-111701971D01*
X161613191Y-111463875D01*
X161660811Y-111368637D01*
X161708430Y-111321018D01*
X161803668Y-111273399D01*
X161898906Y-111273399D01*
X162041763Y-111321018D01*
X162613191Y-111892447D01*
X162613191Y-111273399D01*
%TO.C,R1*%
X162189644Y-135859113D02*
X161856311Y-135382923D01*
X161618215Y-135859113D02*
X161618215Y-134859113D01*
X161999168Y-134859113D01*
X162094406Y-134906733D01*
X162142025Y-134954352D01*
X162189644Y-135049590D01*
X162189644Y-135192447D01*
X162142025Y-135287685D01*
X162094406Y-135335304D01*
X161999168Y-135382923D01*
X161618215Y-135382923D01*
X163142025Y-135859113D02*
X162570596Y-135859113D01*
X162856311Y-135859113D02*
X162856311Y-134859113D01*
X162761072Y-135001971D01*
X162665834Y-135097209D01*
X162570596Y-135144828D01*
%TO.C,R2*%
X161686644Y-121832113D02*
X161353311Y-121355923D01*
X161115215Y-121832113D02*
X161115215Y-120832113D01*
X161496168Y-120832113D01*
X161591406Y-120879733D01*
X161639025Y-120927352D01*
X161686644Y-121022590D01*
X161686644Y-121165447D01*
X161639025Y-121260685D01*
X161591406Y-121308304D01*
X161496168Y-121355923D01*
X161115215Y-121355923D01*
X162067596Y-120927352D02*
X162115215Y-120879733D01*
X162210453Y-120832113D01*
X162448549Y-120832113D01*
X162543787Y-120879733D01*
X162591406Y-120927352D01*
X162639025Y-121022590D01*
X162639025Y-121117828D01*
X162591406Y-121260685D01*
X162019977Y-121832113D01*
X162639025Y-121832113D01*
%TO.C,R3*%
X117544144Y-134809113D02*
X117210811Y-134332923D01*
X116972715Y-134809113D02*
X116972715Y-133809113D01*
X117353668Y-133809113D01*
X117448906Y-133856733D01*
X117496525Y-133904352D01*
X117544144Y-133999590D01*
X117544144Y-134142447D01*
X117496525Y-134237685D01*
X117448906Y-134285304D01*
X117353668Y-134332923D01*
X116972715Y-134332923D01*
X117877477Y-133809113D02*
X118496525Y-133809113D01*
X118163191Y-134190066D01*
X118306049Y-134190066D01*
X118401287Y-134237685D01*
X118448906Y-134285304D01*
X118496525Y-134380542D01*
X118496525Y-134618637D01*
X118448906Y-134713875D01*
X118401287Y-134761494D01*
X118306049Y-134809113D01*
X118020334Y-134809113D01*
X117925096Y-134761494D01*
X117877477Y-134713875D01*
%TO.C,SW1*%
X162365572Y-146440066D02*
X162413191Y-146297209D01*
X162413191Y-146059113D01*
X162365572Y-145963875D01*
X162317953Y-145916256D01*
X162222715Y-145868637D01*
X162127477Y-145868637D01*
X162032239Y-145916256D01*
X161984620Y-145963875D01*
X161937001Y-146059113D01*
X161889382Y-146249590D01*
X161841763Y-146344828D01*
X161794144Y-146392447D01*
X161698906Y-146440066D01*
X161603668Y-146440066D01*
X161508430Y-146392447D01*
X161460811Y-146344828D01*
X161413191Y-146249590D01*
X161413191Y-146011494D01*
X161460811Y-145868637D01*
X161413191Y-145535304D02*
X162413191Y-145297209D01*
X161698906Y-145106733D01*
X162413191Y-144916256D01*
X161413191Y-144678161D01*
X162413191Y-143773399D02*
X162413191Y-144344828D01*
X162413191Y-144059113D02*
X161413191Y-144059113D01*
X161556049Y-144154352D01*
X161651287Y-144249590D01*
X161698906Y-144344828D01*
%TO.C,U1*%
X117948906Y-122809113D02*
X117948906Y-123618637D01*
X117996525Y-123713875D01*
X118044144Y-123761494D01*
X118139382Y-123809113D01*
X118329858Y-123809113D01*
X118425096Y-123761494D01*
X118472715Y-123713875D01*
X118520334Y-123618637D01*
X118520334Y-122809113D01*
X119520334Y-123809113D02*
X118948906Y-123809113D01*
X119234620Y-123809113D02*
X119234620Y-122809113D01*
X119139382Y-122951971D01*
X119044144Y-123047209D01*
X118948906Y-123094828D01*
X119360811Y-128459113D02*
X119360811Y-128697209D01*
X119122715Y-128601971D02*
X119360811Y-128697209D01*
X119598906Y-128601971D01*
X119217953Y-128887685D02*
X119360811Y-128697209D01*
X119503668Y-128887685D01*
%TO.C,U2*%
X113913191Y-134159113D02*
X114913191Y-133825780D01*
X113913191Y-133492447D01*
X114532239Y-133159113D02*
X114532239Y-132397209D01*
X113913191Y-146459113D02*
X114913191Y-146125780D01*
X113913191Y-145792447D01*
X114532239Y-145459113D02*
X114532239Y-144697209D01*
X114913191Y-145078161D02*
X114151287Y-145078161D01*
%TO.C,J6*%
X148513191Y-129540066D02*
X149227477Y-129540066D01*
X149370334Y-129587685D01*
X149465572Y-129682923D01*
X149513191Y-129825780D01*
X149513191Y-129921018D01*
X148513191Y-128635304D02*
X148513191Y-128825780D01*
X148560811Y-128921018D01*
X148608430Y-128968637D01*
X148751287Y-129063875D01*
X148941763Y-129111494D01*
X149322715Y-129111494D01*
X149417953Y-129063875D01*
X149465572Y-129016256D01*
X149513191Y-128921018D01*
X149513191Y-128730542D01*
X149465572Y-128635304D01*
X149417953Y-128587685D01*
X149322715Y-128540066D01*
X149084620Y-128540066D01*
X148989382Y-128587685D01*
X148941763Y-128635304D01*
X148894144Y-128730542D01*
X148894144Y-128921018D01*
X148941763Y-129016256D01*
X148989382Y-129063875D01*
X149084620Y-129111494D01*
%TD*%
M02*
