G04 #@! TF.GenerationSoftware,KiCad,Pcbnew,(5.1.5)-3*
G04 #@! TF.CreationDate,2020-07-16T22:13:53+01:00*
G04 #@! TF.ProjectId,power-board,706f7765-722d-4626-9f61-72642e6b6963,v0*
G04 #@! TF.SameCoordinates,Original*
G04 #@! TF.FileFunction,Legend,Top*
G04 #@! TF.FilePolarity,Positive*
%FSLAX46Y46*%
G04 Gerber Fmt 4.6, Leading zero omitted, Abs format (unit mm)*
G04 Created by KiCad (PCBNEW (5.1.5)-3) date 2020-07-16 22:13:53*
%MOMM*%
%LPD*%
G04 APERTURE LIST*
%ADD10C,0.120000*%
%ADD11C,0.150000*%
%ADD12C,0.152400*%
G04 APERTURE END LIST*
D10*
X149227000Y-121955779D02*
X149227000Y-121630221D01*
X148207000Y-121955779D02*
X148207000Y-121630221D01*
X155450000Y-103977221D02*
X155450000Y-104302779D01*
X154430000Y-103977221D02*
X154430000Y-104302779D01*
X151008500Y-102415000D02*
X151008500Y-102645000D01*
X151008500Y-107135000D02*
X151008500Y-106905000D01*
X151008500Y-107135000D02*
X148288500Y-107135000D01*
X148288500Y-107135000D02*
X148288500Y-105825000D01*
X152148500Y-106905000D02*
X151008500Y-106905000D01*
X148288500Y-102415000D02*
X151008500Y-102415000D01*
X148288500Y-103725000D02*
X148288500Y-102415000D01*
X167642000Y-96992221D02*
X167642000Y-97317779D01*
X166622000Y-96992221D02*
X166622000Y-97317779D01*
X164717000Y-96992221D02*
X164717000Y-97317779D01*
X165737000Y-96992221D02*
X165737000Y-97317779D01*
X152525000Y-98587779D02*
X152525000Y-98262221D01*
X153545000Y-98587779D02*
X153545000Y-98262221D01*
X163832000Y-101127779D02*
X163832000Y-100802221D01*
X162812000Y-101127779D02*
X162812000Y-100802221D01*
X159349221Y-105920000D02*
X159674779Y-105920000D01*
X159349221Y-104900000D02*
X159674779Y-104900000D01*
X151983221Y-116330000D02*
X152308779Y-116330000D01*
X151983221Y-117350000D02*
X152308779Y-117350000D01*
X150657779Y-108968000D02*
X150332221Y-108968000D01*
X150657779Y-107948000D02*
X150332221Y-107948000D01*
X150657779Y-109853000D02*
X150332221Y-109853000D01*
X150657779Y-110873000D02*
X150332221Y-110873000D01*
X143982221Y-115445000D02*
X144307779Y-115445000D01*
X143982221Y-114425000D02*
X144307779Y-114425000D01*
X166622000Y-118963221D02*
X166622000Y-119288779D01*
X167642000Y-118963221D02*
X167642000Y-119288779D01*
X146941000Y-121955779D02*
X146941000Y-121630221D01*
X145921000Y-121955779D02*
X145921000Y-121630221D01*
X139227779Y-113540000D02*
X138902221Y-113540000D01*
X139227779Y-112520000D02*
X138902221Y-112520000D01*
X164754779Y-125097000D02*
X164429221Y-125097000D01*
X164754779Y-124077000D02*
X164429221Y-124077000D01*
X139537221Y-120140000D02*
X139862779Y-120140000D01*
X139537221Y-121160000D02*
X139862779Y-121160000D01*
X151386000Y-121955779D02*
X151386000Y-121630221D01*
X150366000Y-121955779D02*
X150366000Y-121630221D01*
X148225000Y-98720000D02*
X150225000Y-98720000D01*
X150225000Y-98720000D02*
X150225000Y-94870000D01*
X148225000Y-98720000D02*
X148225000Y-94870000D01*
D11*
X160982000Y-91240000D02*
X154232000Y-91240000D01*
X160982000Y-97990000D02*
X154232000Y-97990000D01*
X160982000Y-91240000D02*
X160982000Y-97990000D01*
X154200200Y-91240000D02*
X154200200Y-97990000D01*
D12*
X149301200Y-116205000D02*
G75*
G03X149301200Y-116205000I-76200J0D01*
G01*
D10*
X163705000Y-97317779D02*
X163705000Y-96992221D01*
X162685000Y-97317779D02*
X162685000Y-96992221D01*
X159349221Y-104015000D02*
X159674779Y-104015000D01*
X159349221Y-102995000D02*
X159674779Y-102995000D01*
X162524221Y-102995000D02*
X162849779Y-102995000D01*
X162524221Y-104015000D02*
X162849779Y-104015000D01*
X168183779Y-112143000D02*
X167858221Y-112143000D01*
X168183779Y-111123000D02*
X167858221Y-111123000D01*
X165008779Y-111123000D02*
X164683221Y-111123000D01*
X165008779Y-112143000D02*
X164683221Y-112143000D01*
X164721000Y-114645221D02*
X164721000Y-114970779D01*
X163701000Y-114645221D02*
X163701000Y-114970779D01*
X158587221Y-116203000D02*
X158912779Y-116203000D01*
X158587221Y-117223000D02*
X158912779Y-117223000D01*
X158531779Y-113155000D02*
X158206221Y-113155000D01*
X158531779Y-114175000D02*
X158206221Y-114175000D01*
X158912779Y-119001000D02*
X158587221Y-119001000D01*
X158912779Y-117981000D02*
X158587221Y-117981000D01*
X156466000Y-109184221D02*
X156466000Y-109509779D01*
X155446000Y-109184221D02*
X155446000Y-109509779D01*
X158079221Y-112397000D02*
X158404779Y-112397000D01*
X158079221Y-111377000D02*
X158404779Y-111377000D01*
X171071000Y-114137221D02*
X171071000Y-114462779D01*
X170051000Y-114137221D02*
X170051000Y-114462779D01*
X141132779Y-116330000D02*
X140807221Y-116330000D01*
X141132779Y-117350000D02*
X140807221Y-117350000D01*
X142275779Y-123696000D02*
X141950221Y-123696000D01*
X142275779Y-124716000D02*
X141950221Y-124716000D01*
X167642000Y-122265221D02*
X167642000Y-122590779D01*
X166622000Y-122265221D02*
X166622000Y-122590779D01*
X142712221Y-112520000D02*
X143037779Y-112520000D01*
X142712221Y-113540000D02*
X143037779Y-113540000D01*
X142365000Y-119923779D02*
X142365000Y-119598221D01*
X143385000Y-119923779D02*
X143385000Y-119598221D01*
X162341779Y-121287000D02*
X162016221Y-121287000D01*
X162341779Y-120267000D02*
X162016221Y-120267000D01*
X169692064Y-94420000D02*
X165587936Y-94420000D01*
X169692064Y-91000000D02*
X165587936Y-91000000D01*
X166857936Y-105850000D02*
X170962064Y-105850000D01*
X166857936Y-102430000D02*
X170962064Y-102430000D01*
X144815779Y-90422000D02*
X144490221Y-90422000D01*
X144815779Y-91442000D02*
X144490221Y-91442000D01*
X141259779Y-91442000D02*
X140934221Y-91442000D01*
X141259779Y-90422000D02*
X140934221Y-90422000D01*
X144942779Y-93470000D02*
X144617221Y-93470000D01*
X144942779Y-94490000D02*
X144617221Y-94490000D01*
X141386779Y-94490000D02*
X141061221Y-94490000D01*
X141386779Y-93470000D02*
X141061221Y-93470000D01*
X141259779Y-108456000D02*
X140934221Y-108456000D01*
X141259779Y-109476000D02*
X140934221Y-109476000D01*
X137449779Y-109476000D02*
X137124221Y-109476000D01*
X137449779Y-108456000D02*
X137124221Y-108456000D01*
X141259779Y-106551000D02*
X140934221Y-106551000D01*
X141259779Y-107571000D02*
X140934221Y-107571000D01*
X137449779Y-107571000D02*
X137124221Y-107571000D01*
X137449779Y-106551000D02*
X137124221Y-106551000D01*
X146941000Y-101381779D02*
X146941000Y-101056221D01*
X145921000Y-101381779D02*
X145921000Y-101056221D01*
X158242000Y-101940000D02*
X160442000Y-101940000D01*
X158242000Y-101940000D02*
X156042000Y-101940000D01*
X158242000Y-98720000D02*
X160442000Y-98720000D01*
X158242000Y-98720000D02*
X154642000Y-98720000D01*
X151141000Y-111868000D02*
X152146000Y-111868000D01*
X154391000Y-111868000D02*
X154391000Y-112098000D01*
X153416000Y-111868000D02*
X154391000Y-111868000D01*
X153416000Y-115088000D02*
X154391000Y-115088000D01*
X154391000Y-114858000D02*
X154391000Y-115088000D01*
X151171000Y-115088000D02*
X152146000Y-115088000D01*
X151171000Y-114858000D02*
X151171000Y-115088000D01*
D12*
X143217900Y-95707200D02*
X138976100Y-95707200D01*
X138976100Y-104698800D02*
X143217900Y-104698800D01*
X137134600Y-99123500D02*
X137134600Y-98742500D01*
X137134600Y-98742500D02*
X137388600Y-98742500D01*
X137388600Y-98742500D02*
X137388600Y-99123500D01*
X137388600Y-99123500D02*
X137134600Y-99123500D01*
D11*
X156819000Y-124307000D02*
X156819000Y-124132000D01*
X153569000Y-124307000D02*
X153569000Y-124032000D01*
X153569000Y-121057000D02*
X153569000Y-121332000D01*
X156819000Y-121057000D02*
X156819000Y-121332000D01*
X156819000Y-124307000D02*
X153569000Y-124307000D01*
X156819000Y-121057000D02*
X153569000Y-121057000D01*
X156819000Y-124132000D02*
X157894000Y-124132000D01*
D10*
X140347000Y-114181000D02*
X140347000Y-115181000D01*
X140347000Y-115181000D02*
X141847000Y-115181000D01*
X141847000Y-115181000D02*
X141847000Y-114181000D01*
X141847000Y-114181000D02*
X140347000Y-114181000D01*
X140047000Y-114181000D02*
G75*
G03X140047000Y-114181000I-50000J0D01*
G01*
X168996000Y-115708000D02*
X168996000Y-113908000D01*
X165776000Y-113908000D02*
X165776000Y-116358000D01*
X141194000Y-121637000D02*
G75*
G03X141194000Y-121637000I-50000J0D01*
G01*
X142994000Y-121637000D02*
X141494000Y-121637000D01*
X142994000Y-122637000D02*
X142994000Y-121637000D01*
X141494000Y-122637000D02*
X142994000Y-122637000D01*
X141494000Y-121637000D02*
X141494000Y-122637000D01*
X164523000Y-123274000D02*
G75*
G03X164523000Y-123274000I-50000J0D01*
G01*
X164473000Y-121424000D02*
X164473000Y-122924000D01*
X165473000Y-121424000D02*
X164473000Y-121424000D01*
X165473000Y-122924000D02*
X165473000Y-121424000D01*
X164473000Y-122924000D02*
X165473000Y-122924000D01*
D11*
X148455142Y-124531380D02*
X148121809Y-124055190D01*
X147883714Y-124531380D02*
X147883714Y-123531380D01*
X148264666Y-123531380D01*
X148359904Y-123579000D01*
X148407523Y-123626619D01*
X148455142Y-123721857D01*
X148455142Y-123864714D01*
X148407523Y-123959952D01*
X148359904Y-124007571D01*
X148264666Y-124055190D01*
X147883714Y-124055190D01*
X148788476Y-123531380D02*
X149407523Y-123531380D01*
X149074190Y-123912333D01*
X149217047Y-123912333D01*
X149312285Y-123959952D01*
X149359904Y-124007571D01*
X149407523Y-124102809D01*
X149407523Y-124340904D01*
X149359904Y-124436142D01*
X149312285Y-124483761D01*
X149217047Y-124531380D01*
X148931333Y-124531380D01*
X148836095Y-124483761D01*
X148788476Y-124436142D01*
X150026571Y-123531380D02*
X150121809Y-123531380D01*
X150217047Y-123579000D01*
X150264666Y-123626619D01*
X150312285Y-123721857D01*
X150359904Y-123912333D01*
X150359904Y-124150428D01*
X150312285Y-124340904D01*
X150264666Y-124436142D01*
X150217047Y-124483761D01*
X150121809Y-124531380D01*
X150026571Y-124531380D01*
X149931333Y-124483761D01*
X149883714Y-124436142D01*
X149836095Y-124340904D01*
X149788476Y-124150428D01*
X149788476Y-123912333D01*
X149836095Y-123721857D01*
X149883714Y-123626619D01*
X149931333Y-123579000D01*
X150026571Y-123531380D01*
X153773142Y-104306666D02*
X153820761Y-104354285D01*
X153868380Y-104497142D01*
X153868380Y-104592380D01*
X153820761Y-104735238D01*
X153725523Y-104830476D01*
X153630285Y-104878095D01*
X153439809Y-104925714D01*
X153296952Y-104925714D01*
X153106476Y-104878095D01*
X153011238Y-104830476D01*
X152916000Y-104735238D01*
X152868380Y-104592380D01*
X152868380Y-104497142D01*
X152916000Y-104354285D01*
X152963619Y-104306666D01*
X153201714Y-103449523D02*
X153868380Y-103449523D01*
X152820761Y-103687619D02*
X153535047Y-103925714D01*
X153535047Y-103306666D01*
X147686404Y-108402380D02*
X147686404Y-107402380D01*
X147924500Y-107402380D01*
X148067357Y-107450000D01*
X148162595Y-107545238D01*
X148210214Y-107640476D01*
X148257833Y-107830952D01*
X148257833Y-107973809D01*
X148210214Y-108164285D01*
X148162595Y-108259523D01*
X148067357Y-108354761D01*
X147924500Y-108402380D01*
X147686404Y-108402380D01*
X148638785Y-107497619D02*
X148686404Y-107450000D01*
X148781642Y-107402380D01*
X149019738Y-107402380D01*
X149114976Y-107450000D01*
X149162595Y-107497619D01*
X149210214Y-107592857D01*
X149210214Y-107688095D01*
X149162595Y-107830952D01*
X148591166Y-108402380D01*
X149210214Y-108402380D01*
X167473333Y-95607142D02*
X167425714Y-95654761D01*
X167282857Y-95702380D01*
X167187619Y-95702380D01*
X167044761Y-95654761D01*
X166949523Y-95559523D01*
X166901904Y-95464285D01*
X166854285Y-95273809D01*
X166854285Y-95130952D01*
X166901904Y-94940476D01*
X166949523Y-94845238D01*
X167044761Y-94750000D01*
X167187619Y-94702380D01*
X167282857Y-94702380D01*
X167425714Y-94750000D01*
X167473333Y-94797619D01*
X168425714Y-95702380D02*
X167854285Y-95702380D01*
X168140000Y-95702380D02*
X168140000Y-94702380D01*
X168044761Y-94845238D01*
X167949523Y-94940476D01*
X167854285Y-94988095D01*
X165060333Y-95607142D02*
X165012714Y-95654761D01*
X164869857Y-95702380D01*
X164774619Y-95702380D01*
X164631761Y-95654761D01*
X164536523Y-95559523D01*
X164488904Y-95464285D01*
X164441285Y-95273809D01*
X164441285Y-95130952D01*
X164488904Y-94940476D01*
X164536523Y-94845238D01*
X164631761Y-94750000D01*
X164774619Y-94702380D01*
X164869857Y-94702380D01*
X165012714Y-94750000D01*
X165060333Y-94797619D01*
X165441285Y-94797619D02*
X165488904Y-94750000D01*
X165584142Y-94702380D01*
X165822238Y-94702380D01*
X165917476Y-94750000D01*
X165965095Y-94797619D01*
X166012714Y-94892857D01*
X166012714Y-94988095D01*
X165965095Y-95130952D01*
X165393666Y-95702380D01*
X166012714Y-95702380D01*
X152233333Y-96877142D02*
X152185714Y-96924761D01*
X152042857Y-96972380D01*
X151947619Y-96972380D01*
X151804761Y-96924761D01*
X151709523Y-96829523D01*
X151661904Y-96734285D01*
X151614285Y-96543809D01*
X151614285Y-96400952D01*
X151661904Y-96210476D01*
X151709523Y-96115238D01*
X151804761Y-96020000D01*
X151947619Y-95972380D01*
X152042857Y-95972380D01*
X152185714Y-96020000D01*
X152233333Y-96067619D01*
X152566666Y-95972380D02*
X153185714Y-95972380D01*
X152852380Y-96353333D01*
X152995238Y-96353333D01*
X153090476Y-96400952D01*
X153138095Y-96448571D01*
X153185714Y-96543809D01*
X153185714Y-96781904D01*
X153138095Y-96877142D01*
X153090476Y-96924761D01*
X152995238Y-96972380D01*
X152709523Y-96972380D01*
X152614285Y-96924761D01*
X152566666Y-96877142D01*
X164949142Y-101131666D02*
X164996761Y-101179285D01*
X165044380Y-101322142D01*
X165044380Y-101417380D01*
X164996761Y-101560238D01*
X164901523Y-101655476D01*
X164806285Y-101703095D01*
X164615809Y-101750714D01*
X164472952Y-101750714D01*
X164282476Y-101703095D01*
X164187238Y-101655476D01*
X164092000Y-101560238D01*
X164044380Y-101417380D01*
X164044380Y-101322142D01*
X164092000Y-101179285D01*
X164139619Y-101131666D01*
X164044380Y-100226904D02*
X164044380Y-100703095D01*
X164520571Y-100750714D01*
X164472952Y-100703095D01*
X164425333Y-100607857D01*
X164425333Y-100369761D01*
X164472952Y-100274523D01*
X164520571Y-100226904D01*
X164615809Y-100179285D01*
X164853904Y-100179285D01*
X164949142Y-100226904D01*
X164996761Y-100274523D01*
X165044380Y-100369761D01*
X165044380Y-100607857D01*
X164996761Y-100703095D01*
X164949142Y-100750714D01*
X159345333Y-107037142D02*
X159297714Y-107084761D01*
X159154857Y-107132380D01*
X159059619Y-107132380D01*
X158916761Y-107084761D01*
X158821523Y-106989523D01*
X158773904Y-106894285D01*
X158726285Y-106703809D01*
X158726285Y-106560952D01*
X158773904Y-106370476D01*
X158821523Y-106275238D01*
X158916761Y-106180000D01*
X159059619Y-106132380D01*
X159154857Y-106132380D01*
X159297714Y-106180000D01*
X159345333Y-106227619D01*
X160202476Y-106132380D02*
X160012000Y-106132380D01*
X159916761Y-106180000D01*
X159869142Y-106227619D01*
X159773904Y-106370476D01*
X159726285Y-106560952D01*
X159726285Y-106941904D01*
X159773904Y-107037142D01*
X159821523Y-107084761D01*
X159916761Y-107132380D01*
X160107238Y-107132380D01*
X160202476Y-107084761D01*
X160250095Y-107037142D01*
X160297714Y-106941904D01*
X160297714Y-106703809D01*
X160250095Y-106608571D01*
X160202476Y-106560952D01*
X160107238Y-106513333D01*
X159916761Y-106513333D01*
X159821523Y-106560952D01*
X159773904Y-106608571D01*
X159726285Y-106703809D01*
X151979333Y-118467142D02*
X151931714Y-118514761D01*
X151788857Y-118562380D01*
X151693619Y-118562380D01*
X151550761Y-118514761D01*
X151455523Y-118419523D01*
X151407904Y-118324285D01*
X151360285Y-118133809D01*
X151360285Y-117990952D01*
X151407904Y-117800476D01*
X151455523Y-117705238D01*
X151550761Y-117610000D01*
X151693619Y-117562380D01*
X151788857Y-117562380D01*
X151931714Y-117610000D01*
X151979333Y-117657619D01*
X152550761Y-117990952D02*
X152455523Y-117943333D01*
X152407904Y-117895714D01*
X152360285Y-117800476D01*
X152360285Y-117752857D01*
X152407904Y-117657619D01*
X152455523Y-117610000D01*
X152550761Y-117562380D01*
X152741238Y-117562380D01*
X152836476Y-117610000D01*
X152884095Y-117657619D01*
X152931714Y-117752857D01*
X152931714Y-117800476D01*
X152884095Y-117895714D01*
X152836476Y-117943333D01*
X152741238Y-117990952D01*
X152550761Y-117990952D01*
X152455523Y-118038571D01*
X152407904Y-118086190D01*
X152360285Y-118181428D01*
X152360285Y-118371904D01*
X152407904Y-118467142D01*
X152455523Y-118514761D01*
X152550761Y-118562380D01*
X152741238Y-118562380D01*
X152836476Y-118514761D01*
X152884095Y-118467142D01*
X152931714Y-118371904D01*
X152931714Y-118181428D01*
X152884095Y-118086190D01*
X152836476Y-118038571D01*
X152741238Y-117990952D01*
X152868333Y-108688142D02*
X152820714Y-108735761D01*
X152677857Y-108783380D01*
X152582619Y-108783380D01*
X152439761Y-108735761D01*
X152344523Y-108640523D01*
X152296904Y-108545285D01*
X152249285Y-108354809D01*
X152249285Y-108211952D01*
X152296904Y-108021476D01*
X152344523Y-107926238D01*
X152439761Y-107831000D01*
X152582619Y-107783380D01*
X152677857Y-107783380D01*
X152820714Y-107831000D01*
X152868333Y-107878619D01*
X153344523Y-108783380D02*
X153535000Y-108783380D01*
X153630238Y-108735761D01*
X153677857Y-108688142D01*
X153773095Y-108545285D01*
X153820714Y-108354809D01*
X153820714Y-107973857D01*
X153773095Y-107878619D01*
X153725476Y-107831000D01*
X153630238Y-107783380D01*
X153439761Y-107783380D01*
X153344523Y-107831000D01*
X153296904Y-107878619D01*
X153249285Y-107973857D01*
X153249285Y-108211952D01*
X153296904Y-108307190D01*
X153344523Y-108354809D01*
X153439761Y-108402428D01*
X153630238Y-108402428D01*
X153725476Y-108354809D01*
X153773095Y-108307190D01*
X153820714Y-108211952D01*
X152773142Y-110593142D02*
X152725523Y-110640761D01*
X152582666Y-110688380D01*
X152487428Y-110688380D01*
X152344571Y-110640761D01*
X152249333Y-110545523D01*
X152201714Y-110450285D01*
X152154095Y-110259809D01*
X152154095Y-110116952D01*
X152201714Y-109926476D01*
X152249333Y-109831238D01*
X152344571Y-109736000D01*
X152487428Y-109688380D01*
X152582666Y-109688380D01*
X152725523Y-109736000D01*
X152773142Y-109783619D01*
X153725523Y-110688380D02*
X153154095Y-110688380D01*
X153439809Y-110688380D02*
X153439809Y-109688380D01*
X153344571Y-109831238D01*
X153249333Y-109926476D01*
X153154095Y-109974095D01*
X154344571Y-109688380D02*
X154439809Y-109688380D01*
X154535047Y-109736000D01*
X154582666Y-109783619D01*
X154630285Y-109878857D01*
X154677904Y-110069333D01*
X154677904Y-110307428D01*
X154630285Y-110497904D01*
X154582666Y-110593142D01*
X154535047Y-110640761D01*
X154439809Y-110688380D01*
X154344571Y-110688380D01*
X154249333Y-110640761D01*
X154201714Y-110593142D01*
X154154095Y-110497904D01*
X154106476Y-110307428D01*
X154106476Y-110069333D01*
X154154095Y-109878857D01*
X154201714Y-109783619D01*
X154249333Y-109736000D01*
X154344571Y-109688380D01*
X143502142Y-116562142D02*
X143454523Y-116609761D01*
X143311666Y-116657380D01*
X143216428Y-116657380D01*
X143073571Y-116609761D01*
X142978333Y-116514523D01*
X142930714Y-116419285D01*
X142883095Y-116228809D01*
X142883095Y-116085952D01*
X142930714Y-115895476D01*
X142978333Y-115800238D01*
X143073571Y-115705000D01*
X143216428Y-115657380D01*
X143311666Y-115657380D01*
X143454523Y-115705000D01*
X143502142Y-115752619D01*
X144454523Y-116657380D02*
X143883095Y-116657380D01*
X144168809Y-116657380D02*
X144168809Y-115657380D01*
X144073571Y-115800238D01*
X143978333Y-115895476D01*
X143883095Y-115943095D01*
X145406904Y-116657380D02*
X144835476Y-116657380D01*
X145121190Y-116657380D02*
X145121190Y-115657380D01*
X145025952Y-115800238D01*
X144930714Y-115895476D01*
X144835476Y-115943095D01*
X165965142Y-120022857D02*
X166012761Y-120070476D01*
X166060380Y-120213333D01*
X166060380Y-120308571D01*
X166012761Y-120451428D01*
X165917523Y-120546666D01*
X165822285Y-120594285D01*
X165631809Y-120641904D01*
X165488952Y-120641904D01*
X165298476Y-120594285D01*
X165203238Y-120546666D01*
X165108000Y-120451428D01*
X165060380Y-120308571D01*
X165060380Y-120213333D01*
X165108000Y-120070476D01*
X165155619Y-120022857D01*
X166060380Y-119070476D02*
X166060380Y-119641904D01*
X166060380Y-119356190D02*
X165060380Y-119356190D01*
X165203238Y-119451428D01*
X165298476Y-119546666D01*
X165346095Y-119641904D01*
X165155619Y-118689523D02*
X165108000Y-118641904D01*
X165060380Y-118546666D01*
X165060380Y-118308571D01*
X165108000Y-118213333D01*
X165155619Y-118165714D01*
X165250857Y-118118095D01*
X165346095Y-118118095D01*
X165488952Y-118165714D01*
X166060380Y-118737142D01*
X166060380Y-118118095D01*
X145407142Y-124436142D02*
X145359523Y-124483761D01*
X145216666Y-124531380D01*
X145121428Y-124531380D01*
X144978571Y-124483761D01*
X144883333Y-124388523D01*
X144835714Y-124293285D01*
X144788095Y-124102809D01*
X144788095Y-123959952D01*
X144835714Y-123769476D01*
X144883333Y-123674238D01*
X144978571Y-123579000D01*
X145121428Y-123531380D01*
X145216666Y-123531380D01*
X145359523Y-123579000D01*
X145407142Y-123626619D01*
X146359523Y-124531380D02*
X145788095Y-124531380D01*
X146073809Y-124531380D02*
X146073809Y-123531380D01*
X145978571Y-123674238D01*
X145883333Y-123769476D01*
X145788095Y-123817095D01*
X146692857Y-123531380D02*
X147311904Y-123531380D01*
X146978571Y-123912333D01*
X147121428Y-123912333D01*
X147216666Y-123959952D01*
X147264285Y-124007571D01*
X147311904Y-124102809D01*
X147311904Y-124340904D01*
X147264285Y-124436142D01*
X147216666Y-124483761D01*
X147121428Y-124531380D01*
X146835714Y-124531380D01*
X146740476Y-124483761D01*
X146692857Y-124436142D01*
X138295142Y-112117142D02*
X138247523Y-112164761D01*
X138104666Y-112212380D01*
X138009428Y-112212380D01*
X137866571Y-112164761D01*
X137771333Y-112069523D01*
X137723714Y-111974285D01*
X137676095Y-111783809D01*
X137676095Y-111640952D01*
X137723714Y-111450476D01*
X137771333Y-111355238D01*
X137866571Y-111260000D01*
X138009428Y-111212380D01*
X138104666Y-111212380D01*
X138247523Y-111260000D01*
X138295142Y-111307619D01*
X139247523Y-112212380D02*
X138676095Y-112212380D01*
X138961809Y-112212380D02*
X138961809Y-111212380D01*
X138866571Y-111355238D01*
X138771333Y-111450476D01*
X138676095Y-111498095D01*
X140104666Y-111545714D02*
X140104666Y-112212380D01*
X139866571Y-111164761D02*
X139628476Y-111879047D01*
X140247523Y-111879047D01*
X160901142Y-125198142D02*
X160853523Y-125245761D01*
X160710666Y-125293380D01*
X160615428Y-125293380D01*
X160472571Y-125245761D01*
X160377333Y-125150523D01*
X160329714Y-125055285D01*
X160282095Y-124864809D01*
X160282095Y-124721952D01*
X160329714Y-124531476D01*
X160377333Y-124436238D01*
X160472571Y-124341000D01*
X160615428Y-124293380D01*
X160710666Y-124293380D01*
X160853523Y-124341000D01*
X160901142Y-124388619D01*
X161853523Y-125293380D02*
X161282095Y-125293380D01*
X161567809Y-125293380D02*
X161567809Y-124293380D01*
X161472571Y-124436238D01*
X161377333Y-124531476D01*
X161282095Y-124579095D01*
X162758285Y-124293380D02*
X162282095Y-124293380D01*
X162234476Y-124769571D01*
X162282095Y-124721952D01*
X162377333Y-124674333D01*
X162615428Y-124674333D01*
X162710666Y-124721952D01*
X162758285Y-124769571D01*
X162805904Y-124864809D01*
X162805904Y-125102904D01*
X162758285Y-125198142D01*
X162710666Y-125245761D01*
X162615428Y-125293380D01*
X162377333Y-125293380D01*
X162282095Y-125245761D01*
X162234476Y-125198142D01*
X138152142Y-121292857D02*
X138199761Y-121340476D01*
X138247380Y-121483333D01*
X138247380Y-121578571D01*
X138199761Y-121721428D01*
X138104523Y-121816666D01*
X138009285Y-121864285D01*
X137818809Y-121911904D01*
X137675952Y-121911904D01*
X137485476Y-121864285D01*
X137390238Y-121816666D01*
X137295000Y-121721428D01*
X137247380Y-121578571D01*
X137247380Y-121483333D01*
X137295000Y-121340476D01*
X137342619Y-121292857D01*
X138247380Y-120340476D02*
X138247380Y-120911904D01*
X138247380Y-120626190D02*
X137247380Y-120626190D01*
X137390238Y-120721428D01*
X137485476Y-120816666D01*
X137533095Y-120911904D01*
X137247380Y-119483333D02*
X137247380Y-119673809D01*
X137295000Y-119769047D01*
X137342619Y-119816666D01*
X137485476Y-119911904D01*
X137675952Y-119959523D01*
X138056904Y-119959523D01*
X138152142Y-119911904D01*
X138199761Y-119864285D01*
X138247380Y-119769047D01*
X138247380Y-119578571D01*
X138199761Y-119483333D01*
X138152142Y-119435714D01*
X138056904Y-119388095D01*
X137818809Y-119388095D01*
X137723571Y-119435714D01*
X137675952Y-119483333D01*
X137628333Y-119578571D01*
X137628333Y-119769047D01*
X137675952Y-119864285D01*
X137723571Y-119911904D01*
X137818809Y-119959523D01*
X150360142Y-119991142D02*
X150312523Y-120038761D01*
X150169666Y-120086380D01*
X150074428Y-120086380D01*
X149931571Y-120038761D01*
X149836333Y-119943523D01*
X149788714Y-119848285D01*
X149741095Y-119657809D01*
X149741095Y-119514952D01*
X149788714Y-119324476D01*
X149836333Y-119229238D01*
X149931571Y-119134000D01*
X150074428Y-119086380D01*
X150169666Y-119086380D01*
X150312523Y-119134000D01*
X150360142Y-119181619D01*
X151312523Y-120086380D02*
X150741095Y-120086380D01*
X151026809Y-120086380D02*
X151026809Y-119086380D01*
X150931571Y-119229238D01*
X150836333Y-119324476D01*
X150741095Y-119372095D01*
X151645857Y-119086380D02*
X152312523Y-119086380D01*
X151883952Y-120086380D01*
X147772380Y-97893095D02*
X146772380Y-97893095D01*
X146772380Y-97655000D01*
X146820000Y-97512142D01*
X146915238Y-97416904D01*
X147010476Y-97369285D01*
X147200952Y-97321666D01*
X147343809Y-97321666D01*
X147534285Y-97369285D01*
X147629523Y-97416904D01*
X147724761Y-97512142D01*
X147772380Y-97655000D01*
X147772380Y-97893095D01*
X147772380Y-96369285D02*
X147772380Y-96940714D01*
X147772380Y-96655000D02*
X146772380Y-96655000D01*
X146915238Y-96750238D01*
X147010476Y-96845476D01*
X147058095Y-96940714D01*
X133711666Y-89037380D02*
X133711666Y-89751666D01*
X133664047Y-89894523D01*
X133568809Y-89989761D01*
X133425952Y-90037380D01*
X133330714Y-90037380D01*
X134711666Y-90037380D02*
X134140238Y-90037380D01*
X134425952Y-90037380D02*
X134425952Y-89037380D01*
X134330714Y-89180238D01*
X134235476Y-89275476D01*
X134140238Y-89323095D01*
X173402666Y-128230380D02*
X173402666Y-128944666D01*
X173355047Y-129087523D01*
X173259809Y-129182761D01*
X173116952Y-129230380D01*
X173021714Y-129230380D01*
X173831238Y-128325619D02*
X173878857Y-128278000D01*
X173974095Y-128230380D01*
X174212190Y-128230380D01*
X174307428Y-128278000D01*
X174355047Y-128325619D01*
X174402666Y-128420857D01*
X174402666Y-128516095D01*
X174355047Y-128658952D01*
X173783619Y-129230380D01*
X174402666Y-129230380D01*
X133711666Y-98562380D02*
X133711666Y-99276666D01*
X133664047Y-99419523D01*
X133568809Y-99514761D01*
X133425952Y-99562380D01*
X133330714Y-99562380D01*
X134092619Y-98562380D02*
X134711666Y-98562380D01*
X134378333Y-98943333D01*
X134521190Y-98943333D01*
X134616428Y-98990952D01*
X134664047Y-99038571D01*
X134711666Y-99133809D01*
X134711666Y-99371904D01*
X134664047Y-99467142D01*
X134616428Y-99514761D01*
X134521190Y-99562380D01*
X134235476Y-99562380D01*
X134140238Y-99514761D01*
X134092619Y-99467142D01*
X133905666Y-122769380D02*
X133905666Y-123483666D01*
X133858047Y-123626523D01*
X133762809Y-123721761D01*
X133619952Y-123769380D01*
X133524714Y-123769380D01*
X134810428Y-123102714D02*
X134810428Y-123769380D01*
X134572333Y-122721761D02*
X134334238Y-123436047D01*
X134953285Y-123436047D01*
X133778666Y-104608380D02*
X133778666Y-105322666D01*
X133731047Y-105465523D01*
X133635809Y-105560761D01*
X133492952Y-105608380D01*
X133397714Y-105608380D01*
X134159619Y-104608380D02*
X134826285Y-104608380D01*
X134397714Y-105608380D01*
X152868333Y-92527380D02*
X152392142Y-92527380D01*
X152392142Y-91527380D01*
X153725476Y-92527380D02*
X153154047Y-92527380D01*
X153439761Y-92527380D02*
X153439761Y-91527380D01*
X153344523Y-91670238D01*
X153249285Y-91765476D01*
X153154047Y-91813095D01*
X148407380Y-117006666D02*
X148407380Y-117482857D01*
X147407380Y-117482857D01*
X147502619Y-116720952D02*
X147455000Y-116673333D01*
X147407380Y-116578095D01*
X147407380Y-116340000D01*
X147455000Y-116244761D01*
X147502619Y-116197142D01*
X147597857Y-116149523D01*
X147693095Y-116149523D01*
X147835952Y-116197142D01*
X148407380Y-116768571D01*
X148407380Y-116149523D01*
X149947380Y-117475000D02*
X150185476Y-117475000D01*
X150090238Y-117713095D02*
X150185476Y-117475000D01*
X150090238Y-117236904D01*
X150375952Y-117617857D02*
X150185476Y-117475000D01*
X150375952Y-117332142D01*
X163028333Y-95702380D02*
X162695000Y-95226190D01*
X162456904Y-95702380D02*
X162456904Y-94702380D01*
X162837857Y-94702380D01*
X162933095Y-94750000D01*
X162980714Y-94797619D01*
X163028333Y-94892857D01*
X163028333Y-95035714D01*
X162980714Y-95130952D01*
X162933095Y-95178571D01*
X162837857Y-95226190D01*
X162456904Y-95226190D01*
X163980714Y-95702380D02*
X163409285Y-95702380D01*
X163695000Y-95702380D02*
X163695000Y-94702380D01*
X163599761Y-94845238D01*
X163504523Y-94940476D01*
X163409285Y-94988095D01*
X157313333Y-103957380D02*
X156980000Y-103481190D01*
X156741904Y-103957380D02*
X156741904Y-102957380D01*
X157122857Y-102957380D01*
X157218095Y-103005000D01*
X157265714Y-103052619D01*
X157313333Y-103147857D01*
X157313333Y-103290714D01*
X157265714Y-103385952D01*
X157218095Y-103433571D01*
X157122857Y-103481190D01*
X156741904Y-103481190D01*
X157694285Y-103052619D02*
X157741904Y-103005000D01*
X157837142Y-102957380D01*
X158075238Y-102957380D01*
X158170476Y-103005000D01*
X158218095Y-103052619D01*
X158265714Y-103147857D01*
X158265714Y-103243095D01*
X158218095Y-103385952D01*
X157646666Y-103957380D01*
X158265714Y-103957380D01*
X162520333Y-105227380D02*
X162187000Y-104751190D01*
X161948904Y-105227380D02*
X161948904Y-104227380D01*
X162329857Y-104227380D01*
X162425095Y-104275000D01*
X162472714Y-104322619D01*
X162520333Y-104417857D01*
X162520333Y-104560714D01*
X162472714Y-104655952D01*
X162425095Y-104703571D01*
X162329857Y-104751190D01*
X161948904Y-104751190D01*
X162853666Y-104227380D02*
X163472714Y-104227380D01*
X163139380Y-104608333D01*
X163282238Y-104608333D01*
X163377476Y-104655952D01*
X163425095Y-104703571D01*
X163472714Y-104798809D01*
X163472714Y-105036904D01*
X163425095Y-105132142D01*
X163377476Y-105179761D01*
X163282238Y-105227380D01*
X162996523Y-105227380D01*
X162901285Y-105179761D01*
X162853666Y-105132142D01*
X167854333Y-110815380D02*
X167521000Y-110339190D01*
X167282904Y-110815380D02*
X167282904Y-109815380D01*
X167663857Y-109815380D01*
X167759095Y-109863000D01*
X167806714Y-109910619D01*
X167854333Y-110005857D01*
X167854333Y-110148714D01*
X167806714Y-110243952D01*
X167759095Y-110291571D01*
X167663857Y-110339190D01*
X167282904Y-110339190D01*
X168711476Y-110148714D02*
X168711476Y-110815380D01*
X168473380Y-109767761D02*
X168235285Y-110482047D01*
X168854333Y-110482047D01*
X164044333Y-110815380D02*
X163711000Y-110339190D01*
X163472904Y-110815380D02*
X163472904Y-109815380D01*
X163853857Y-109815380D01*
X163949095Y-109863000D01*
X163996714Y-109910619D01*
X164044333Y-110005857D01*
X164044333Y-110148714D01*
X163996714Y-110243952D01*
X163949095Y-110291571D01*
X163853857Y-110339190D01*
X163472904Y-110339190D01*
X164949095Y-109815380D02*
X164472904Y-109815380D01*
X164425285Y-110291571D01*
X164472904Y-110243952D01*
X164568142Y-110196333D01*
X164806238Y-110196333D01*
X164901476Y-110243952D01*
X164949095Y-110291571D01*
X164996714Y-110386809D01*
X164996714Y-110624904D01*
X164949095Y-110720142D01*
X164901476Y-110767761D01*
X164806238Y-110815380D01*
X164568142Y-110815380D01*
X164472904Y-110767761D01*
X164425285Y-110720142D01*
X163520380Y-114466666D02*
X163044190Y-114800000D01*
X163520380Y-115038095D02*
X162520380Y-115038095D01*
X162520380Y-114657142D01*
X162568000Y-114561904D01*
X162615619Y-114514285D01*
X162710857Y-114466666D01*
X162853714Y-114466666D01*
X162948952Y-114514285D01*
X162996571Y-114561904D01*
X163044190Y-114657142D01*
X163044190Y-115038095D01*
X162520380Y-113609523D02*
X162520380Y-113800000D01*
X162568000Y-113895238D01*
X162615619Y-113942857D01*
X162758476Y-114038095D01*
X162948952Y-114085714D01*
X163329904Y-114085714D01*
X163425142Y-114038095D01*
X163472761Y-113990476D01*
X163520380Y-113895238D01*
X163520380Y-113704761D01*
X163472761Y-113609523D01*
X163425142Y-113561904D01*
X163329904Y-113514285D01*
X163091809Y-113514285D01*
X162996571Y-113561904D01*
X162948952Y-113609523D01*
X162901333Y-113704761D01*
X162901333Y-113895238D01*
X162948952Y-113990476D01*
X162996571Y-114038095D01*
X163091809Y-114085714D01*
X156297333Y-117292380D02*
X155964000Y-116816190D01*
X155725904Y-117292380D02*
X155725904Y-116292380D01*
X156106857Y-116292380D01*
X156202095Y-116340000D01*
X156249714Y-116387619D01*
X156297333Y-116482857D01*
X156297333Y-116625714D01*
X156249714Y-116720952D01*
X156202095Y-116768571D01*
X156106857Y-116816190D01*
X155725904Y-116816190D01*
X156630666Y-116292380D02*
X157297333Y-116292380D01*
X156868761Y-117292380D01*
X160980380Y-113831666D02*
X160504190Y-114165000D01*
X160980380Y-114403095D02*
X159980380Y-114403095D01*
X159980380Y-114022142D01*
X160028000Y-113926904D01*
X160075619Y-113879285D01*
X160170857Y-113831666D01*
X160313714Y-113831666D01*
X160408952Y-113879285D01*
X160456571Y-113926904D01*
X160504190Y-114022142D01*
X160504190Y-114403095D01*
X160408952Y-113260238D02*
X160361333Y-113355476D01*
X160313714Y-113403095D01*
X160218476Y-113450714D01*
X160170857Y-113450714D01*
X160075619Y-113403095D01*
X160028000Y-113355476D01*
X159980380Y-113260238D01*
X159980380Y-113069761D01*
X160028000Y-112974523D01*
X160075619Y-112926904D01*
X160170857Y-112879285D01*
X160218476Y-112879285D01*
X160313714Y-112926904D01*
X160361333Y-112974523D01*
X160408952Y-113069761D01*
X160408952Y-113260238D01*
X160456571Y-113355476D01*
X160504190Y-113403095D01*
X160599428Y-113450714D01*
X160789904Y-113450714D01*
X160885142Y-113403095D01*
X160932761Y-113355476D01*
X160980380Y-113260238D01*
X160980380Y-113069761D01*
X160932761Y-112974523D01*
X160885142Y-112926904D01*
X160789904Y-112879285D01*
X160599428Y-112879285D01*
X160504190Y-112926904D01*
X160456571Y-112974523D01*
X160408952Y-113069761D01*
X156043333Y-118943380D02*
X155710000Y-118467190D01*
X155471904Y-118943380D02*
X155471904Y-117943380D01*
X155852857Y-117943380D01*
X155948095Y-117991000D01*
X155995714Y-118038619D01*
X156043333Y-118133857D01*
X156043333Y-118276714D01*
X155995714Y-118371952D01*
X155948095Y-118419571D01*
X155852857Y-118467190D01*
X155471904Y-118467190D01*
X156519523Y-118943380D02*
X156710000Y-118943380D01*
X156805238Y-118895761D01*
X156852857Y-118848142D01*
X156948095Y-118705285D01*
X156995714Y-118514809D01*
X156995714Y-118133857D01*
X156948095Y-118038619D01*
X156900476Y-117991000D01*
X156805238Y-117943380D01*
X156614761Y-117943380D01*
X156519523Y-117991000D01*
X156471904Y-118038619D01*
X156424285Y-118133857D01*
X156424285Y-118371952D01*
X156471904Y-118467190D01*
X156519523Y-118514809D01*
X156614761Y-118562428D01*
X156805238Y-118562428D01*
X156900476Y-118514809D01*
X156948095Y-118467190D01*
X156995714Y-118371952D01*
X155313142Y-107894380D02*
X154979809Y-107418190D01*
X154741714Y-107894380D02*
X154741714Y-106894380D01*
X155122666Y-106894380D01*
X155217904Y-106942000D01*
X155265523Y-106989619D01*
X155313142Y-107084857D01*
X155313142Y-107227714D01*
X155265523Y-107322952D01*
X155217904Y-107370571D01*
X155122666Y-107418190D01*
X154741714Y-107418190D01*
X156265523Y-107894380D02*
X155694095Y-107894380D01*
X155979809Y-107894380D02*
X155979809Y-106894380D01*
X155884571Y-107037238D01*
X155789333Y-107132476D01*
X155694095Y-107180095D01*
X156884571Y-106894380D02*
X156979809Y-106894380D01*
X157075047Y-106942000D01*
X157122666Y-106989619D01*
X157170285Y-107084857D01*
X157217904Y-107275333D01*
X157217904Y-107513428D01*
X157170285Y-107703904D01*
X157122666Y-107799142D01*
X157075047Y-107846761D01*
X156979809Y-107894380D01*
X156884571Y-107894380D01*
X156789333Y-107846761D01*
X156741714Y-107799142D01*
X156694095Y-107703904D01*
X156646476Y-107513428D01*
X156646476Y-107275333D01*
X156694095Y-107084857D01*
X156741714Y-106989619D01*
X156789333Y-106942000D01*
X156884571Y-106894380D01*
X157726142Y-110942380D02*
X157392809Y-110466190D01*
X157154714Y-110942380D02*
X157154714Y-109942380D01*
X157535666Y-109942380D01*
X157630904Y-109990000D01*
X157678523Y-110037619D01*
X157726142Y-110132857D01*
X157726142Y-110275714D01*
X157678523Y-110370952D01*
X157630904Y-110418571D01*
X157535666Y-110466190D01*
X157154714Y-110466190D01*
X158678523Y-110942380D02*
X158107095Y-110942380D01*
X158392809Y-110942380D02*
X158392809Y-109942380D01*
X158297571Y-110085238D01*
X158202333Y-110180476D01*
X158107095Y-110228095D01*
X159630904Y-110942380D02*
X159059476Y-110942380D01*
X159345190Y-110942380D02*
X159345190Y-109942380D01*
X159249952Y-110085238D01*
X159154714Y-110180476D01*
X159059476Y-110228095D01*
X172283380Y-114942857D02*
X171807190Y-115276190D01*
X172283380Y-115514285D02*
X171283380Y-115514285D01*
X171283380Y-115133333D01*
X171331000Y-115038095D01*
X171378619Y-114990476D01*
X171473857Y-114942857D01*
X171616714Y-114942857D01*
X171711952Y-114990476D01*
X171759571Y-115038095D01*
X171807190Y-115133333D01*
X171807190Y-115514285D01*
X172283380Y-113990476D02*
X172283380Y-114561904D01*
X172283380Y-114276190D02*
X171283380Y-114276190D01*
X171426238Y-114371428D01*
X171521476Y-114466666D01*
X171569095Y-114561904D01*
X171378619Y-113609523D02*
X171331000Y-113561904D01*
X171283380Y-113466666D01*
X171283380Y-113228571D01*
X171331000Y-113133333D01*
X171378619Y-113085714D01*
X171473857Y-113038095D01*
X171569095Y-113038095D01*
X171711952Y-113085714D01*
X172283380Y-113657142D01*
X172283380Y-113038095D01*
X140327142Y-118562380D02*
X139993809Y-118086190D01*
X139755714Y-118562380D02*
X139755714Y-117562380D01*
X140136666Y-117562380D01*
X140231904Y-117610000D01*
X140279523Y-117657619D01*
X140327142Y-117752857D01*
X140327142Y-117895714D01*
X140279523Y-117990952D01*
X140231904Y-118038571D01*
X140136666Y-118086190D01*
X139755714Y-118086190D01*
X141279523Y-118562380D02*
X140708095Y-118562380D01*
X140993809Y-118562380D02*
X140993809Y-117562380D01*
X140898571Y-117705238D01*
X140803333Y-117800476D01*
X140708095Y-117848095D01*
X141612857Y-117562380D02*
X142231904Y-117562380D01*
X141898571Y-117943333D01*
X142041428Y-117943333D01*
X142136666Y-117990952D01*
X142184285Y-118038571D01*
X142231904Y-118133809D01*
X142231904Y-118371904D01*
X142184285Y-118467142D01*
X142136666Y-118514761D01*
X142041428Y-118562380D01*
X141755714Y-118562380D01*
X141660476Y-118514761D01*
X141612857Y-118467142D01*
X138930142Y-124658380D02*
X138596809Y-124182190D01*
X138358714Y-124658380D02*
X138358714Y-123658380D01*
X138739666Y-123658380D01*
X138834904Y-123706000D01*
X138882523Y-123753619D01*
X138930142Y-123848857D01*
X138930142Y-123991714D01*
X138882523Y-124086952D01*
X138834904Y-124134571D01*
X138739666Y-124182190D01*
X138358714Y-124182190D01*
X139882523Y-124658380D02*
X139311095Y-124658380D01*
X139596809Y-124658380D02*
X139596809Y-123658380D01*
X139501571Y-123801238D01*
X139406333Y-123896476D01*
X139311095Y-123944095D01*
X140739666Y-123991714D02*
X140739666Y-124658380D01*
X140501571Y-123610761D02*
X140263476Y-124325047D01*
X140882523Y-124325047D01*
X169108380Y-123070857D02*
X168632190Y-123404190D01*
X169108380Y-123642285D02*
X168108380Y-123642285D01*
X168108380Y-123261333D01*
X168156000Y-123166095D01*
X168203619Y-123118476D01*
X168298857Y-123070857D01*
X168441714Y-123070857D01*
X168536952Y-123118476D01*
X168584571Y-123166095D01*
X168632190Y-123261333D01*
X168632190Y-123642285D01*
X169108380Y-122118476D02*
X169108380Y-122689904D01*
X169108380Y-122404190D02*
X168108380Y-122404190D01*
X168251238Y-122499428D01*
X168346476Y-122594666D01*
X168394095Y-122689904D01*
X168108380Y-121213714D02*
X168108380Y-121689904D01*
X168584571Y-121737523D01*
X168536952Y-121689904D01*
X168489333Y-121594666D01*
X168489333Y-121356571D01*
X168536952Y-121261333D01*
X168584571Y-121213714D01*
X168679809Y-121166095D01*
X168917904Y-121166095D01*
X169013142Y-121213714D01*
X169060761Y-121261333D01*
X169108380Y-121356571D01*
X169108380Y-121594666D01*
X169060761Y-121689904D01*
X169013142Y-121737523D01*
X142359142Y-112212380D02*
X142025809Y-111736190D01*
X141787714Y-112212380D02*
X141787714Y-111212380D01*
X142168666Y-111212380D01*
X142263904Y-111260000D01*
X142311523Y-111307619D01*
X142359142Y-111402857D01*
X142359142Y-111545714D01*
X142311523Y-111640952D01*
X142263904Y-111688571D01*
X142168666Y-111736190D01*
X141787714Y-111736190D01*
X143311523Y-112212380D02*
X142740095Y-112212380D01*
X143025809Y-112212380D02*
X143025809Y-111212380D01*
X142930571Y-111355238D01*
X142835333Y-111450476D01*
X142740095Y-111498095D01*
X144168666Y-111212380D02*
X143978190Y-111212380D01*
X143882952Y-111260000D01*
X143835333Y-111307619D01*
X143740095Y-111450476D01*
X143692476Y-111640952D01*
X143692476Y-112021904D01*
X143740095Y-112117142D01*
X143787714Y-112164761D01*
X143882952Y-112212380D01*
X144073428Y-112212380D01*
X144168666Y-112164761D01*
X144216285Y-112117142D01*
X144263904Y-112021904D01*
X144263904Y-111783809D01*
X144216285Y-111688571D01*
X144168666Y-111640952D01*
X144073428Y-111593333D01*
X143882952Y-111593333D01*
X143787714Y-111640952D01*
X143740095Y-111688571D01*
X143692476Y-111783809D01*
X144851380Y-120530857D02*
X144375190Y-120864190D01*
X144851380Y-121102285D02*
X143851380Y-121102285D01*
X143851380Y-120721333D01*
X143899000Y-120626095D01*
X143946619Y-120578476D01*
X144041857Y-120530857D01*
X144184714Y-120530857D01*
X144279952Y-120578476D01*
X144327571Y-120626095D01*
X144375190Y-120721333D01*
X144375190Y-121102285D01*
X144851380Y-119578476D02*
X144851380Y-120149904D01*
X144851380Y-119864190D02*
X143851380Y-119864190D01*
X143994238Y-119959428D01*
X144089476Y-120054666D01*
X144137095Y-120149904D01*
X143851380Y-119245142D02*
X143851380Y-118578476D01*
X144851380Y-119007047D01*
X161536142Y-119959380D02*
X161202809Y-119483190D01*
X160964714Y-119959380D02*
X160964714Y-118959380D01*
X161345666Y-118959380D01*
X161440904Y-119007000D01*
X161488523Y-119054619D01*
X161536142Y-119149857D01*
X161536142Y-119292714D01*
X161488523Y-119387952D01*
X161440904Y-119435571D01*
X161345666Y-119483190D01*
X160964714Y-119483190D01*
X162488523Y-119959380D02*
X161917095Y-119959380D01*
X162202809Y-119959380D02*
X162202809Y-118959380D01*
X162107571Y-119102238D01*
X162012333Y-119197476D01*
X161917095Y-119245095D01*
X163059952Y-119387952D02*
X162964714Y-119340333D01*
X162917095Y-119292714D01*
X162869476Y-119197476D01*
X162869476Y-119149857D01*
X162917095Y-119054619D01*
X162964714Y-119007000D01*
X163059952Y-118959380D01*
X163250428Y-118959380D01*
X163345666Y-119007000D01*
X163393285Y-119054619D01*
X163440904Y-119149857D01*
X163440904Y-119197476D01*
X163393285Y-119292714D01*
X163345666Y-119340333D01*
X163250428Y-119387952D01*
X163059952Y-119387952D01*
X162964714Y-119435571D01*
X162917095Y-119483190D01*
X162869476Y-119578428D01*
X162869476Y-119768904D01*
X162917095Y-119864142D01*
X162964714Y-119911761D01*
X163059952Y-119959380D01*
X163250428Y-119959380D01*
X163345666Y-119911761D01*
X163393285Y-119864142D01*
X163440904Y-119768904D01*
X163440904Y-119578428D01*
X163393285Y-119483190D01*
X163345666Y-119435571D01*
X163250428Y-119387952D01*
X163647380Y-92717857D02*
X163171190Y-93051190D01*
X163647380Y-93289285D02*
X162647380Y-93289285D01*
X162647380Y-92908333D01*
X162695000Y-92813095D01*
X162742619Y-92765476D01*
X162837857Y-92717857D01*
X162980714Y-92717857D01*
X163075952Y-92765476D01*
X163123571Y-92813095D01*
X163171190Y-92908333D01*
X163171190Y-93289285D01*
X163647380Y-91765476D02*
X163647380Y-92336904D01*
X163647380Y-92051190D02*
X162647380Y-92051190D01*
X162790238Y-92146428D01*
X162885476Y-92241666D01*
X162933095Y-92336904D01*
X163647380Y-91289285D02*
X163647380Y-91098809D01*
X163599761Y-91003571D01*
X163552142Y-90955952D01*
X163409285Y-90860714D01*
X163218809Y-90813095D01*
X162837857Y-90813095D01*
X162742619Y-90860714D01*
X162695000Y-90908333D01*
X162647380Y-91003571D01*
X162647380Y-91194047D01*
X162695000Y-91289285D01*
X162742619Y-91336904D01*
X162837857Y-91384523D01*
X163075952Y-91384523D01*
X163171190Y-91336904D01*
X163218809Y-91289285D01*
X163266428Y-91194047D01*
X163266428Y-91003571D01*
X163218809Y-90908333D01*
X163171190Y-90860714D01*
X163075952Y-90813095D01*
X168267142Y-101972380D02*
X167933809Y-101496190D01*
X167695714Y-101972380D02*
X167695714Y-100972380D01*
X168076666Y-100972380D01*
X168171904Y-101020000D01*
X168219523Y-101067619D01*
X168267142Y-101162857D01*
X168267142Y-101305714D01*
X168219523Y-101400952D01*
X168171904Y-101448571D01*
X168076666Y-101496190D01*
X167695714Y-101496190D01*
X168648095Y-101067619D02*
X168695714Y-101020000D01*
X168790952Y-100972380D01*
X169029047Y-100972380D01*
X169124285Y-101020000D01*
X169171904Y-101067619D01*
X169219523Y-101162857D01*
X169219523Y-101258095D01*
X169171904Y-101400952D01*
X168600476Y-101972380D01*
X169219523Y-101972380D01*
X169838571Y-100972380D02*
X169933809Y-100972380D01*
X170029047Y-101020000D01*
X170076666Y-101067619D01*
X170124285Y-101162857D01*
X170171904Y-101353333D01*
X170171904Y-101591428D01*
X170124285Y-101781904D01*
X170076666Y-101877142D01*
X170029047Y-101924761D01*
X169933809Y-101972380D01*
X169838571Y-101972380D01*
X169743333Y-101924761D01*
X169695714Y-101877142D01*
X169648095Y-101781904D01*
X169600476Y-101591428D01*
X169600476Y-101353333D01*
X169648095Y-101162857D01*
X169695714Y-101067619D01*
X169743333Y-101020000D01*
X169838571Y-100972380D01*
X147312142Y-91257380D02*
X146978809Y-90781190D01*
X146740714Y-91257380D02*
X146740714Y-90257380D01*
X147121666Y-90257380D01*
X147216904Y-90305000D01*
X147264523Y-90352619D01*
X147312142Y-90447857D01*
X147312142Y-90590714D01*
X147264523Y-90685952D01*
X147216904Y-90733571D01*
X147121666Y-90781190D01*
X146740714Y-90781190D01*
X147693095Y-90352619D02*
X147740714Y-90305000D01*
X147835952Y-90257380D01*
X148074047Y-90257380D01*
X148169285Y-90305000D01*
X148216904Y-90352619D01*
X148264523Y-90447857D01*
X148264523Y-90543095D01*
X148216904Y-90685952D01*
X147645476Y-91257380D01*
X148264523Y-91257380D01*
X149216904Y-91257380D02*
X148645476Y-91257380D01*
X148931190Y-91257380D02*
X148931190Y-90257380D01*
X148835952Y-90400238D01*
X148740714Y-90495476D01*
X148645476Y-90543095D01*
X137787142Y-91257380D02*
X137453809Y-90781190D01*
X137215714Y-91257380D02*
X137215714Y-90257380D01*
X137596666Y-90257380D01*
X137691904Y-90305000D01*
X137739523Y-90352619D01*
X137787142Y-90447857D01*
X137787142Y-90590714D01*
X137739523Y-90685952D01*
X137691904Y-90733571D01*
X137596666Y-90781190D01*
X137215714Y-90781190D01*
X138168095Y-90352619D02*
X138215714Y-90305000D01*
X138310952Y-90257380D01*
X138549047Y-90257380D01*
X138644285Y-90305000D01*
X138691904Y-90352619D01*
X138739523Y-90447857D01*
X138739523Y-90543095D01*
X138691904Y-90685952D01*
X138120476Y-91257380D01*
X138739523Y-91257380D01*
X139120476Y-90352619D02*
X139168095Y-90305000D01*
X139263333Y-90257380D01*
X139501428Y-90257380D01*
X139596666Y-90305000D01*
X139644285Y-90352619D01*
X139691904Y-90447857D01*
X139691904Y-90543095D01*
X139644285Y-90685952D01*
X139072857Y-91257380D01*
X139691904Y-91257380D01*
X146677142Y-94432380D02*
X146343809Y-93956190D01*
X146105714Y-94432380D02*
X146105714Y-93432380D01*
X146486666Y-93432380D01*
X146581904Y-93480000D01*
X146629523Y-93527619D01*
X146677142Y-93622857D01*
X146677142Y-93765714D01*
X146629523Y-93860952D01*
X146581904Y-93908571D01*
X146486666Y-93956190D01*
X146105714Y-93956190D01*
X147058095Y-93527619D02*
X147105714Y-93480000D01*
X147200952Y-93432380D01*
X147439047Y-93432380D01*
X147534285Y-93480000D01*
X147581904Y-93527619D01*
X147629523Y-93622857D01*
X147629523Y-93718095D01*
X147581904Y-93860952D01*
X147010476Y-94432380D01*
X147629523Y-94432380D01*
X147962857Y-93432380D02*
X148581904Y-93432380D01*
X148248571Y-93813333D01*
X148391428Y-93813333D01*
X148486666Y-93860952D01*
X148534285Y-93908571D01*
X148581904Y-94003809D01*
X148581904Y-94241904D01*
X148534285Y-94337142D01*
X148486666Y-94384761D01*
X148391428Y-94432380D01*
X148105714Y-94432380D01*
X148010476Y-94384761D01*
X147962857Y-94337142D01*
X137787142Y-94432380D02*
X137453809Y-93956190D01*
X137215714Y-94432380D02*
X137215714Y-93432380D01*
X137596666Y-93432380D01*
X137691904Y-93480000D01*
X137739523Y-93527619D01*
X137787142Y-93622857D01*
X137787142Y-93765714D01*
X137739523Y-93860952D01*
X137691904Y-93908571D01*
X137596666Y-93956190D01*
X137215714Y-93956190D01*
X138168095Y-93527619D02*
X138215714Y-93480000D01*
X138310952Y-93432380D01*
X138549047Y-93432380D01*
X138644285Y-93480000D01*
X138691904Y-93527619D01*
X138739523Y-93622857D01*
X138739523Y-93718095D01*
X138691904Y-93860952D01*
X138120476Y-94432380D01*
X138739523Y-94432380D01*
X139596666Y-93765714D02*
X139596666Y-94432380D01*
X139358571Y-93384761D02*
X139120476Y-94099047D01*
X139739523Y-94099047D01*
X143375142Y-109418380D02*
X143041809Y-108942190D01*
X142803714Y-109418380D02*
X142803714Y-108418380D01*
X143184666Y-108418380D01*
X143279904Y-108466000D01*
X143327523Y-108513619D01*
X143375142Y-108608857D01*
X143375142Y-108751714D01*
X143327523Y-108846952D01*
X143279904Y-108894571D01*
X143184666Y-108942190D01*
X142803714Y-108942190D01*
X143756095Y-108513619D02*
X143803714Y-108466000D01*
X143898952Y-108418380D01*
X144137047Y-108418380D01*
X144232285Y-108466000D01*
X144279904Y-108513619D01*
X144327523Y-108608857D01*
X144327523Y-108704095D01*
X144279904Y-108846952D01*
X143708476Y-109418380D01*
X144327523Y-109418380D01*
X145232285Y-108418380D02*
X144756095Y-108418380D01*
X144708476Y-108894571D01*
X144756095Y-108846952D01*
X144851333Y-108799333D01*
X145089428Y-108799333D01*
X145184666Y-108846952D01*
X145232285Y-108894571D01*
X145279904Y-108989809D01*
X145279904Y-109227904D01*
X145232285Y-109323142D01*
X145184666Y-109370761D01*
X145089428Y-109418380D01*
X144851333Y-109418380D01*
X144756095Y-109370761D01*
X144708476Y-109323142D01*
X133977142Y-109418380D02*
X133643809Y-108942190D01*
X133405714Y-109418380D02*
X133405714Y-108418380D01*
X133786666Y-108418380D01*
X133881904Y-108466000D01*
X133929523Y-108513619D01*
X133977142Y-108608857D01*
X133977142Y-108751714D01*
X133929523Y-108846952D01*
X133881904Y-108894571D01*
X133786666Y-108942190D01*
X133405714Y-108942190D01*
X134358095Y-108513619D02*
X134405714Y-108466000D01*
X134500952Y-108418380D01*
X134739047Y-108418380D01*
X134834285Y-108466000D01*
X134881904Y-108513619D01*
X134929523Y-108608857D01*
X134929523Y-108704095D01*
X134881904Y-108846952D01*
X134310476Y-109418380D01*
X134929523Y-109418380D01*
X135786666Y-108418380D02*
X135596190Y-108418380D01*
X135500952Y-108466000D01*
X135453333Y-108513619D01*
X135358095Y-108656476D01*
X135310476Y-108846952D01*
X135310476Y-109227904D01*
X135358095Y-109323142D01*
X135405714Y-109370761D01*
X135500952Y-109418380D01*
X135691428Y-109418380D01*
X135786666Y-109370761D01*
X135834285Y-109323142D01*
X135881904Y-109227904D01*
X135881904Y-108989809D01*
X135834285Y-108894571D01*
X135786666Y-108846952D01*
X135691428Y-108799333D01*
X135500952Y-108799333D01*
X135405714Y-108846952D01*
X135358095Y-108894571D01*
X135310476Y-108989809D01*
X143375142Y-107640380D02*
X143041809Y-107164190D01*
X142803714Y-107640380D02*
X142803714Y-106640380D01*
X143184666Y-106640380D01*
X143279904Y-106688000D01*
X143327523Y-106735619D01*
X143375142Y-106830857D01*
X143375142Y-106973714D01*
X143327523Y-107068952D01*
X143279904Y-107116571D01*
X143184666Y-107164190D01*
X142803714Y-107164190D01*
X143756095Y-106735619D02*
X143803714Y-106688000D01*
X143898952Y-106640380D01*
X144137047Y-106640380D01*
X144232285Y-106688000D01*
X144279904Y-106735619D01*
X144327523Y-106830857D01*
X144327523Y-106926095D01*
X144279904Y-107068952D01*
X143708476Y-107640380D01*
X144327523Y-107640380D01*
X144660857Y-106640380D02*
X145327523Y-106640380D01*
X144898952Y-107640380D01*
X135755142Y-106370380D02*
X135421809Y-105894190D01*
X135183714Y-106370380D02*
X135183714Y-105370380D01*
X135564666Y-105370380D01*
X135659904Y-105418000D01*
X135707523Y-105465619D01*
X135755142Y-105560857D01*
X135755142Y-105703714D01*
X135707523Y-105798952D01*
X135659904Y-105846571D01*
X135564666Y-105894190D01*
X135183714Y-105894190D01*
X136136095Y-105465619D02*
X136183714Y-105418000D01*
X136278952Y-105370380D01*
X136517047Y-105370380D01*
X136612285Y-105418000D01*
X136659904Y-105465619D01*
X136707523Y-105560857D01*
X136707523Y-105656095D01*
X136659904Y-105798952D01*
X136088476Y-106370380D01*
X136707523Y-106370380D01*
X137278952Y-105798952D02*
X137183714Y-105751333D01*
X137136095Y-105703714D01*
X137088476Y-105608476D01*
X137088476Y-105560857D01*
X137136095Y-105465619D01*
X137183714Y-105418000D01*
X137278952Y-105370380D01*
X137469428Y-105370380D01*
X137564666Y-105418000D01*
X137612285Y-105465619D01*
X137659904Y-105560857D01*
X137659904Y-105608476D01*
X137612285Y-105703714D01*
X137564666Y-105751333D01*
X137469428Y-105798952D01*
X137278952Y-105798952D01*
X137183714Y-105846571D01*
X137136095Y-105894190D01*
X137088476Y-105989428D01*
X137088476Y-106179904D01*
X137136095Y-106275142D01*
X137183714Y-106322761D01*
X137278952Y-106370380D01*
X137469428Y-106370380D01*
X137564666Y-106322761D01*
X137612285Y-106275142D01*
X137659904Y-106179904D01*
X137659904Y-105989428D01*
X137612285Y-105894190D01*
X137564666Y-105846571D01*
X137469428Y-105798952D01*
X148280380Y-101734857D02*
X147804190Y-102068190D01*
X148280380Y-102306285D02*
X147280380Y-102306285D01*
X147280380Y-101925333D01*
X147328000Y-101830095D01*
X147375619Y-101782476D01*
X147470857Y-101734857D01*
X147613714Y-101734857D01*
X147708952Y-101782476D01*
X147756571Y-101830095D01*
X147804190Y-101925333D01*
X147804190Y-102306285D01*
X147375619Y-101353904D02*
X147328000Y-101306285D01*
X147280380Y-101211047D01*
X147280380Y-100972952D01*
X147328000Y-100877714D01*
X147375619Y-100830095D01*
X147470857Y-100782476D01*
X147566095Y-100782476D01*
X147708952Y-100830095D01*
X148280380Y-101401523D01*
X148280380Y-100782476D01*
X148280380Y-100306285D02*
X148280380Y-100115809D01*
X148232761Y-100020571D01*
X148185142Y-99972952D01*
X148042285Y-99877714D01*
X147851809Y-99830095D01*
X147470857Y-99830095D01*
X147375619Y-99877714D01*
X147328000Y-99925333D01*
X147280380Y-100020571D01*
X147280380Y-100211047D01*
X147328000Y-100306285D01*
X147375619Y-100353904D01*
X147470857Y-100401523D01*
X147708952Y-100401523D01*
X147804190Y-100353904D01*
X147851809Y-100306285D01*
X147899428Y-100211047D01*
X147899428Y-100020571D01*
X147851809Y-99925333D01*
X147804190Y-99877714D01*
X147708952Y-99830095D01*
X157480095Y-97332380D02*
X157480095Y-98141904D01*
X157527714Y-98237142D01*
X157575333Y-98284761D01*
X157670571Y-98332380D01*
X157861047Y-98332380D01*
X157956285Y-98284761D01*
X158003904Y-98237142D01*
X158051523Y-98141904D01*
X158051523Y-97332380D01*
X159051523Y-98332380D02*
X158480095Y-98332380D01*
X158765809Y-98332380D02*
X158765809Y-97332380D01*
X158670571Y-97475238D01*
X158575333Y-97570476D01*
X158480095Y-97618095D01*
X154392380Y-117601904D02*
X155201904Y-117601904D01*
X155297142Y-117554285D01*
X155344761Y-117506666D01*
X155392380Y-117411428D01*
X155392380Y-117220952D01*
X155344761Y-117125714D01*
X155297142Y-117078095D01*
X155201904Y-117030476D01*
X154392380Y-117030476D01*
X154487619Y-116601904D02*
X154440000Y-116554285D01*
X154392380Y-116459047D01*
X154392380Y-116220952D01*
X154440000Y-116125714D01*
X154487619Y-116078095D01*
X154582857Y-116030476D01*
X154678095Y-116030476D01*
X154820952Y-116078095D01*
X155392380Y-116649523D01*
X155392380Y-116030476D01*
X140970095Y-94575380D02*
X140970095Y-95384904D01*
X141017714Y-95480142D01*
X141065333Y-95527761D01*
X141160571Y-95575380D01*
X141351047Y-95575380D01*
X141446285Y-95527761D01*
X141493904Y-95480142D01*
X141541523Y-95384904D01*
X141541523Y-94575380D01*
X141922476Y-94575380D02*
X142541523Y-94575380D01*
X142208190Y-94956333D01*
X142351047Y-94956333D01*
X142446285Y-95003952D01*
X142493904Y-95051571D01*
X142541523Y-95146809D01*
X142541523Y-95384904D01*
X142493904Y-95480142D01*
X142446285Y-95527761D01*
X142351047Y-95575380D01*
X142065333Y-95575380D01*
X141970095Y-95527761D01*
X141922476Y-95480142D01*
X143764000Y-104608380D02*
X143764000Y-104846476D01*
X143525904Y-104751238D02*
X143764000Y-104846476D01*
X144002095Y-104751238D01*
X143621142Y-105036952D02*
X143764000Y-104846476D01*
X143906857Y-105036952D01*
X143814800Y-104608380D02*
X143814800Y-104846476D01*
X143576704Y-104751238D02*
X143814800Y-104846476D01*
X144052895Y-104751238D01*
X143671942Y-105036952D02*
X143814800Y-104846476D01*
X143957657Y-105036952D01*
X154432095Y-124684380D02*
X154432095Y-125493904D01*
X154479714Y-125589142D01*
X154527333Y-125636761D01*
X154622571Y-125684380D01*
X154813047Y-125684380D01*
X154908285Y-125636761D01*
X154955904Y-125589142D01*
X155003523Y-125493904D01*
X155003523Y-124684380D01*
X155908285Y-125017714D02*
X155908285Y-125684380D01*
X155670190Y-124636761D02*
X155432095Y-125351047D01*
X156051142Y-125351047D01*
X137668095Y-115022380D02*
X137668095Y-115831904D01*
X137715714Y-115927142D01*
X137763333Y-115974761D01*
X137858571Y-116022380D01*
X138049047Y-116022380D01*
X138144285Y-115974761D01*
X138191904Y-115927142D01*
X138239523Y-115831904D01*
X138239523Y-115022380D01*
X139191904Y-115022380D02*
X138715714Y-115022380D01*
X138668095Y-115498571D01*
X138715714Y-115450952D01*
X138810952Y-115403333D01*
X139049047Y-115403333D01*
X139144285Y-115450952D01*
X139191904Y-115498571D01*
X139239523Y-115593809D01*
X139239523Y-115831904D01*
X139191904Y-115927142D01*
X139144285Y-115974761D01*
X139049047Y-116022380D01*
X138810952Y-116022380D01*
X138715714Y-115974761D01*
X138668095Y-115927142D01*
X168616380Y-118109904D02*
X169425904Y-118109904D01*
X169521142Y-118062285D01*
X169568761Y-118014666D01*
X169616380Y-117919428D01*
X169616380Y-117728952D01*
X169568761Y-117633714D01*
X169521142Y-117586095D01*
X169425904Y-117538476D01*
X168616380Y-117538476D01*
X168616380Y-116633714D02*
X168616380Y-116824190D01*
X168664000Y-116919428D01*
X168711619Y-116967047D01*
X168854476Y-117062285D01*
X169044952Y-117109904D01*
X169425904Y-117109904D01*
X169521142Y-117062285D01*
X169568761Y-117014666D01*
X169616380Y-116919428D01*
X169616380Y-116728952D01*
X169568761Y-116633714D01*
X169521142Y-116586095D01*
X169425904Y-116538476D01*
X169187809Y-116538476D01*
X169092571Y-116586095D01*
X169044952Y-116633714D01*
X168997333Y-116728952D01*
X168997333Y-116919428D01*
X169044952Y-117014666D01*
X169092571Y-117062285D01*
X169187809Y-117109904D01*
X138938095Y-121880380D02*
X138938095Y-122689904D01*
X138985714Y-122785142D01*
X139033333Y-122832761D01*
X139128571Y-122880380D01*
X139319047Y-122880380D01*
X139414285Y-122832761D01*
X139461904Y-122785142D01*
X139509523Y-122689904D01*
X139509523Y-121880380D01*
X139890476Y-121880380D02*
X140557142Y-121880380D01*
X140128571Y-122880380D01*
X163155380Y-123443904D02*
X163964904Y-123443904D01*
X164060142Y-123396285D01*
X164107761Y-123348666D01*
X164155380Y-123253428D01*
X164155380Y-123062952D01*
X164107761Y-122967714D01*
X164060142Y-122920095D01*
X163964904Y-122872476D01*
X163155380Y-122872476D01*
X163583952Y-122253428D02*
X163536333Y-122348666D01*
X163488714Y-122396285D01*
X163393476Y-122443904D01*
X163345857Y-122443904D01*
X163250619Y-122396285D01*
X163203000Y-122348666D01*
X163155380Y-122253428D01*
X163155380Y-122062952D01*
X163203000Y-121967714D01*
X163250619Y-121920095D01*
X163345857Y-121872476D01*
X163393476Y-121872476D01*
X163488714Y-121920095D01*
X163536333Y-121967714D01*
X163583952Y-122062952D01*
X163583952Y-122253428D01*
X163631571Y-122348666D01*
X163679190Y-122396285D01*
X163774428Y-122443904D01*
X163964904Y-122443904D01*
X164060142Y-122396285D01*
X164107761Y-122348666D01*
X164155380Y-122253428D01*
X164155380Y-122062952D01*
X164107761Y-121967714D01*
X164060142Y-121920095D01*
X163964904Y-121872476D01*
X163774428Y-121872476D01*
X163679190Y-121920095D01*
X163631571Y-121967714D01*
X163583952Y-122062952D01*
X178659666Y-87386380D02*
X178659666Y-88100666D01*
X178612047Y-88243523D01*
X178516809Y-88338761D01*
X178373952Y-88386380D01*
X178278714Y-88386380D01*
X179612047Y-87386380D02*
X179135857Y-87386380D01*
X179088238Y-87862571D01*
X179135857Y-87814952D01*
X179231095Y-87767333D01*
X179469190Y-87767333D01*
X179564428Y-87814952D01*
X179612047Y-87862571D01*
X179659666Y-87957809D01*
X179659666Y-88195904D01*
X179612047Y-88291142D01*
X179564428Y-88338761D01*
X179469190Y-88386380D01*
X179231095Y-88386380D01*
X179135857Y-88338761D01*
X179088238Y-88291142D01*
X175434666Y-124928380D02*
X175434666Y-125642666D01*
X175387047Y-125785523D01*
X175291809Y-125880761D01*
X175148952Y-125928380D01*
X175053714Y-125928380D01*
X176339428Y-124928380D02*
X176148952Y-124928380D01*
X176053714Y-124976000D01*
X176006095Y-125023619D01*
X175910857Y-125166476D01*
X175863238Y-125356952D01*
X175863238Y-125737904D01*
X175910857Y-125833142D01*
X175958476Y-125880761D01*
X176053714Y-125928380D01*
X176244190Y-125928380D01*
X176339428Y-125880761D01*
X176387047Y-125833142D01*
X176434666Y-125737904D01*
X176434666Y-125499809D01*
X176387047Y-125404571D01*
X176339428Y-125356952D01*
X176244190Y-125309333D01*
X176053714Y-125309333D01*
X175958476Y-125356952D01*
X175910857Y-125404571D01*
X175863238Y-125499809D01*
M02*
