G04 #@! TF.GenerationSoftware,KiCad,Pcbnew,(5.1.5)-3*
G04 #@! TF.CreationDate,2020-07-17T01:19:51+01:00*
G04 #@! TF.ProjectId,power-board,706f7765-722d-4626-9f61-72642e6b6963,v0*
G04 #@! TF.SameCoordinates,Original*
G04 #@! TF.FileFunction,Copper,L2,Inr*
G04 #@! TF.FilePolarity,Positive*
%FSLAX46Y46*%
G04 Gerber Fmt 4.6, Leading zero omitted, Abs format (unit mm)*
G04 Created by KiCad (PCBNEW (5.1.5)-3) date 2020-07-17 01:19:51*
%MOMM*%
%LPD*%
G04 APERTURE LIST*
%ADD10C,0.635000*%
%ADD11C,1.540000*%
%ADD12C,2.540000*%
%ADD13C,0.254000*%
G04 APERTURE END LIST*
D10*
X152781000Y-112741400D03*
X152781000Y-113478000D03*
X152781000Y-114265400D03*
D11*
X135950000Y-88950000D03*
X138490000Y-88950000D03*
X141030000Y-88950000D03*
X143570000Y-88950000D03*
X146110000Y-88950000D03*
X148650000Y-88950000D03*
X151190000Y-88950000D03*
X153730000Y-88950000D03*
X156270000Y-88950000D03*
X158810000Y-88950000D03*
X161350000Y-88950000D03*
X163890000Y-88950000D03*
X166430000Y-88950000D03*
X168970000Y-88950000D03*
X171510000Y-88950000D03*
X174050000Y-88950000D03*
X174050000Y-127050000D03*
X171510000Y-127050000D03*
X168970000Y-127050000D03*
X166430000Y-127050000D03*
X163890000Y-127050000D03*
X161350000Y-127050000D03*
X158810000Y-127050000D03*
X156270000Y-127050000D03*
X153730000Y-127050000D03*
X151190000Y-127050000D03*
X148650000Y-127050000D03*
X146110000Y-127050000D03*
X143570000Y-127050000D03*
X141030000Y-127050000D03*
X138490000Y-127050000D03*
X135950000Y-127050000D03*
X135950000Y-91490000D03*
X135950000Y-94030000D03*
X135950000Y-96570000D03*
X135950000Y-99110000D03*
X135950000Y-124510000D03*
X135950000Y-121970000D03*
X135950000Y-119430000D03*
X135950000Y-116890000D03*
D12*
X174960000Y-113080000D03*
X135040000Y-113080000D03*
X174960000Y-102920000D03*
X135040000Y-102920000D03*
D11*
X174040000Y-94106200D03*
X174040000Y-99186200D03*
X174040000Y-96646200D03*
X174040000Y-91566200D03*
X171500000Y-99186200D03*
X174050000Y-121969800D03*
X174050000Y-116889800D03*
X174050000Y-119429800D03*
X174050000Y-124509800D03*
X171510000Y-116889800D03*
D10*
X152400000Y-111125000D03*
X153416000Y-111125000D03*
X151638000Y-102362000D03*
X159385000Y-121920000D03*
X140970000Y-110490000D03*
X145415000Y-122555000D03*
X152400000Y-96520000D03*
X165227000Y-99441000D03*
X162052000Y-106553000D03*
X156464000Y-104648000D03*
X140335000Y-92075000D03*
X140335000Y-115570000D03*
X140970000Y-123190000D03*
X144145000Y-118178500D03*
X147320000Y-119380000D03*
X160274000Y-112014000D03*
X167182750Y-118287750D03*
X158607000Y-123682000D03*
X162306000Y-123698000D03*
X171831000Y-107188000D03*
X144018000Y-110109000D03*
X160528000Y-118491000D03*
X161036000Y-118110000D03*
X153797000Y-118237000D03*
X152781000Y-118237000D03*
X151892000Y-117856000D03*
X153416000Y-108458000D03*
X146304000Y-117475000D03*
X146685000Y-110363000D03*
X139954000Y-111633000D03*
X169926000Y-121031000D03*
X169735500Y-121729500D03*
X169227500Y-122237500D03*
X155702000Y-123317000D03*
X151765000Y-123698000D03*
X154178000Y-123698000D03*
X148717000Y-124333000D03*
X140970000Y-111760000D03*
X145034000Y-125476000D03*
X141097000Y-119380000D03*
X159156500Y-115036500D03*
X155727500Y-115036500D03*
X169037000Y-117475000D03*
X165481000Y-117475000D03*
X158115000Y-119888000D03*
X141605000Y-101473000D03*
X143891000Y-92075000D03*
X140081000Y-98933000D03*
X138074500Y-110236000D03*
X145415000Y-104013000D03*
X155448000Y-122047000D03*
X145034000Y-96393000D03*
X157226000Y-120777000D03*
X140462000Y-97663000D03*
X154178000Y-121666000D03*
X139192000Y-105664000D03*
X152019000Y-120650000D03*
X162052000Y-107950000D03*
X143637000Y-105664000D03*
D13*
G36*
X175231842Y-86667097D02*
G01*
X175493330Y-86746045D01*
X175734503Y-86874278D01*
X175946177Y-87046915D01*
X176120283Y-87257375D01*
X176250200Y-87497650D01*
X176330972Y-87758583D01*
X176365000Y-88082338D01*
X176365000Y-101805655D01*
X176287852Y-101771753D01*
X175139605Y-102920000D01*
X176287852Y-104068247D01*
X176365000Y-104034345D01*
X176365001Y-111965655D01*
X176287852Y-111931753D01*
X175139605Y-113080000D01*
X176287852Y-114228247D01*
X176365001Y-114194345D01*
X176365001Y-127904480D01*
X176332903Y-128231840D01*
X176253955Y-128493329D01*
X176125721Y-128734503D01*
X175953084Y-128946177D01*
X175742625Y-129120283D01*
X175502350Y-129250200D01*
X175241417Y-129330972D01*
X174917663Y-129365000D01*
X135095510Y-129365000D01*
X134768160Y-129332903D01*
X134506671Y-129253955D01*
X134265497Y-129125721D01*
X134053823Y-128953084D01*
X133879717Y-128742625D01*
X133749800Y-128502350D01*
X133669028Y-128241417D01*
X133635000Y-127917663D01*
X133635000Y-121831620D01*
X134545000Y-121831620D01*
X134545000Y-122108380D01*
X134598994Y-122379823D01*
X134704905Y-122635517D01*
X134858665Y-122865635D01*
X135054365Y-123061335D01*
X135284483Y-123215095D01*
X135344610Y-123240000D01*
X135284483Y-123264905D01*
X135054365Y-123418665D01*
X134858665Y-123614365D01*
X134704905Y-123844483D01*
X134598994Y-124100177D01*
X134545000Y-124371620D01*
X134545000Y-124648380D01*
X134598994Y-124919823D01*
X134704905Y-125175517D01*
X134858665Y-125405635D01*
X135054365Y-125601335D01*
X135284483Y-125755095D01*
X135344610Y-125780000D01*
X135284483Y-125804905D01*
X135054365Y-125958665D01*
X134858665Y-126154365D01*
X134704905Y-126384483D01*
X134598994Y-126640177D01*
X134545000Y-126911620D01*
X134545000Y-127188380D01*
X134598994Y-127459823D01*
X134704905Y-127715517D01*
X134858665Y-127945635D01*
X135054365Y-128141335D01*
X135284483Y-128295095D01*
X135540177Y-128401006D01*
X135811620Y-128455000D01*
X136088380Y-128455000D01*
X136359823Y-128401006D01*
X136615517Y-128295095D01*
X136845635Y-128141335D01*
X137041335Y-127945635D01*
X137195095Y-127715517D01*
X137220000Y-127655390D01*
X137244905Y-127715517D01*
X137398665Y-127945635D01*
X137594365Y-128141335D01*
X137824483Y-128295095D01*
X138080177Y-128401006D01*
X138351620Y-128455000D01*
X138628380Y-128455000D01*
X138899823Y-128401006D01*
X139155517Y-128295095D01*
X139385635Y-128141335D01*
X139581335Y-127945635D01*
X139735095Y-127715517D01*
X139760000Y-127655390D01*
X139784905Y-127715517D01*
X139938665Y-127945635D01*
X140134365Y-128141335D01*
X140364483Y-128295095D01*
X140620177Y-128401006D01*
X140891620Y-128455000D01*
X141168380Y-128455000D01*
X141439823Y-128401006D01*
X141695517Y-128295095D01*
X141925635Y-128141335D01*
X142121335Y-127945635D01*
X142275095Y-127715517D01*
X142300000Y-127655390D01*
X142324905Y-127715517D01*
X142478665Y-127945635D01*
X142674365Y-128141335D01*
X142904483Y-128295095D01*
X143160177Y-128401006D01*
X143431620Y-128455000D01*
X143708380Y-128455000D01*
X143979823Y-128401006D01*
X144235517Y-128295095D01*
X144465635Y-128141335D01*
X144661335Y-127945635D01*
X144815095Y-127715517D01*
X144840000Y-127655390D01*
X144864905Y-127715517D01*
X145018665Y-127945635D01*
X145214365Y-128141335D01*
X145444483Y-128295095D01*
X145700177Y-128401006D01*
X145971620Y-128455000D01*
X146248380Y-128455000D01*
X146519823Y-128401006D01*
X146775517Y-128295095D01*
X147005635Y-128141335D01*
X147201335Y-127945635D01*
X147355095Y-127715517D01*
X147380000Y-127655390D01*
X147404905Y-127715517D01*
X147558665Y-127945635D01*
X147754365Y-128141335D01*
X147984483Y-128295095D01*
X148240177Y-128401006D01*
X148511620Y-128455000D01*
X148788380Y-128455000D01*
X149059823Y-128401006D01*
X149315517Y-128295095D01*
X149545635Y-128141335D01*
X149741335Y-127945635D01*
X149895095Y-127715517D01*
X149920000Y-127655390D01*
X149944905Y-127715517D01*
X150098665Y-127945635D01*
X150294365Y-128141335D01*
X150524483Y-128295095D01*
X150780177Y-128401006D01*
X151051620Y-128455000D01*
X151328380Y-128455000D01*
X151599823Y-128401006D01*
X151855517Y-128295095D01*
X152085635Y-128141335D01*
X152281335Y-127945635D01*
X152435095Y-127715517D01*
X152460000Y-127655390D01*
X152484905Y-127715517D01*
X152638665Y-127945635D01*
X152834365Y-128141335D01*
X153064483Y-128295095D01*
X153320177Y-128401006D01*
X153591620Y-128455000D01*
X153868380Y-128455000D01*
X154139823Y-128401006D01*
X154395517Y-128295095D01*
X154625635Y-128141335D01*
X154821335Y-127945635D01*
X154975095Y-127715517D01*
X155000000Y-127655390D01*
X155024905Y-127715517D01*
X155178665Y-127945635D01*
X155374365Y-128141335D01*
X155604483Y-128295095D01*
X155860177Y-128401006D01*
X156131620Y-128455000D01*
X156408380Y-128455000D01*
X156679823Y-128401006D01*
X156935517Y-128295095D01*
X157165635Y-128141335D01*
X157361335Y-127945635D01*
X157515095Y-127715517D01*
X157540000Y-127655390D01*
X157564905Y-127715517D01*
X157718665Y-127945635D01*
X157914365Y-128141335D01*
X158144483Y-128295095D01*
X158400177Y-128401006D01*
X158671620Y-128455000D01*
X158948380Y-128455000D01*
X159219823Y-128401006D01*
X159475517Y-128295095D01*
X159705635Y-128141335D01*
X159901335Y-127945635D01*
X160055095Y-127715517D01*
X160080000Y-127655390D01*
X160104905Y-127715517D01*
X160258665Y-127945635D01*
X160454365Y-128141335D01*
X160684483Y-128295095D01*
X160940177Y-128401006D01*
X161211620Y-128455000D01*
X161488380Y-128455000D01*
X161759823Y-128401006D01*
X162015517Y-128295095D01*
X162245635Y-128141335D01*
X162441335Y-127945635D01*
X162595095Y-127715517D01*
X162620000Y-127655390D01*
X162644905Y-127715517D01*
X162798665Y-127945635D01*
X162994365Y-128141335D01*
X163224483Y-128295095D01*
X163480177Y-128401006D01*
X163751620Y-128455000D01*
X164028380Y-128455000D01*
X164299823Y-128401006D01*
X164555517Y-128295095D01*
X164785635Y-128141335D01*
X164981335Y-127945635D01*
X165135095Y-127715517D01*
X165160000Y-127655390D01*
X165184905Y-127715517D01*
X165338665Y-127945635D01*
X165534365Y-128141335D01*
X165764483Y-128295095D01*
X166020177Y-128401006D01*
X166291620Y-128455000D01*
X166568380Y-128455000D01*
X166839823Y-128401006D01*
X167095517Y-128295095D01*
X167325635Y-128141335D01*
X167521335Y-127945635D01*
X167675095Y-127715517D01*
X167700000Y-127655390D01*
X167724905Y-127715517D01*
X167878665Y-127945635D01*
X168074365Y-128141335D01*
X168304483Y-128295095D01*
X168560177Y-128401006D01*
X168831620Y-128455000D01*
X169108380Y-128455000D01*
X169379823Y-128401006D01*
X169635517Y-128295095D01*
X169865635Y-128141335D01*
X170061335Y-127945635D01*
X170215095Y-127715517D01*
X170240000Y-127655390D01*
X170264905Y-127715517D01*
X170418665Y-127945635D01*
X170614365Y-128141335D01*
X170844483Y-128295095D01*
X171100177Y-128401006D01*
X171371620Y-128455000D01*
X171648380Y-128455000D01*
X171919823Y-128401006D01*
X172175517Y-128295095D01*
X172405635Y-128141335D01*
X172601335Y-127945635D01*
X172755095Y-127715517D01*
X172780000Y-127655390D01*
X172804905Y-127715517D01*
X172958665Y-127945635D01*
X173154365Y-128141335D01*
X173384483Y-128295095D01*
X173640177Y-128401006D01*
X173911620Y-128455000D01*
X174188380Y-128455000D01*
X174459823Y-128401006D01*
X174715517Y-128295095D01*
X174945635Y-128141335D01*
X175141335Y-127945635D01*
X175295095Y-127715517D01*
X175401006Y-127459823D01*
X175455000Y-127188380D01*
X175455000Y-126911620D01*
X175401006Y-126640177D01*
X175295095Y-126384483D01*
X175141335Y-126154365D01*
X174945635Y-125958665D01*
X174715517Y-125804905D01*
X174655149Y-125779900D01*
X174715517Y-125754895D01*
X174945635Y-125601135D01*
X175141335Y-125405435D01*
X175295095Y-125175317D01*
X175401006Y-124919623D01*
X175455000Y-124648180D01*
X175455000Y-124371420D01*
X175401006Y-124099977D01*
X175295095Y-123844283D01*
X175141335Y-123614165D01*
X174945635Y-123418465D01*
X174715517Y-123264705D01*
X174655390Y-123239800D01*
X174715517Y-123214895D01*
X174945635Y-123061135D01*
X175141335Y-122865435D01*
X175295095Y-122635317D01*
X175401006Y-122379623D01*
X175455000Y-122108180D01*
X175455000Y-121831420D01*
X175401006Y-121559977D01*
X175295095Y-121304283D01*
X175141335Y-121074165D01*
X174945635Y-120878465D01*
X174715517Y-120724705D01*
X174661122Y-120702174D01*
X174773724Y-120641987D01*
X174841673Y-120401078D01*
X174050000Y-119609405D01*
X173258327Y-120401078D01*
X173326276Y-120641987D01*
X173446976Y-120698820D01*
X173384483Y-120724705D01*
X173154365Y-120878465D01*
X172958665Y-121074165D01*
X172804905Y-121304283D01*
X172698994Y-121559977D01*
X172645000Y-121831420D01*
X172645000Y-122108180D01*
X172698994Y-122379623D01*
X172804905Y-122635317D01*
X172958665Y-122865435D01*
X173154365Y-123061135D01*
X173384483Y-123214895D01*
X173444610Y-123239800D01*
X173384483Y-123264705D01*
X173154365Y-123418465D01*
X172958665Y-123614165D01*
X172804905Y-123844283D01*
X172698994Y-124099977D01*
X172645000Y-124371420D01*
X172645000Y-124648180D01*
X172698994Y-124919623D01*
X172804905Y-125175317D01*
X172958665Y-125405435D01*
X173154365Y-125601135D01*
X173384483Y-125754895D01*
X173444851Y-125779900D01*
X173384483Y-125804905D01*
X173154365Y-125958665D01*
X172958665Y-126154365D01*
X172804905Y-126384483D01*
X172780000Y-126444610D01*
X172755095Y-126384483D01*
X172601335Y-126154365D01*
X172405635Y-125958665D01*
X172175517Y-125804905D01*
X171919823Y-125698994D01*
X171648380Y-125645000D01*
X171371620Y-125645000D01*
X171100177Y-125698994D01*
X170844483Y-125804905D01*
X170614365Y-125958665D01*
X170418665Y-126154365D01*
X170264905Y-126384483D01*
X170240000Y-126444610D01*
X170215095Y-126384483D01*
X170061335Y-126154365D01*
X169865635Y-125958665D01*
X169635517Y-125804905D01*
X169379823Y-125698994D01*
X169108380Y-125645000D01*
X168831620Y-125645000D01*
X168560177Y-125698994D01*
X168304483Y-125804905D01*
X168074365Y-125958665D01*
X167878665Y-126154365D01*
X167724905Y-126384483D01*
X167700000Y-126444610D01*
X167675095Y-126384483D01*
X167521335Y-126154365D01*
X167325635Y-125958665D01*
X167095517Y-125804905D01*
X166839823Y-125698994D01*
X166568380Y-125645000D01*
X166291620Y-125645000D01*
X166020177Y-125698994D01*
X165764483Y-125804905D01*
X165534365Y-125958665D01*
X165338665Y-126154365D01*
X165184905Y-126384483D01*
X165160000Y-126444610D01*
X165135095Y-126384483D01*
X164981335Y-126154365D01*
X164785635Y-125958665D01*
X164555517Y-125804905D01*
X164299823Y-125698994D01*
X164028380Y-125645000D01*
X163751620Y-125645000D01*
X163480177Y-125698994D01*
X163224483Y-125804905D01*
X162994365Y-125958665D01*
X162798665Y-126154365D01*
X162644905Y-126384483D01*
X162620000Y-126444610D01*
X162595095Y-126384483D01*
X162441335Y-126154365D01*
X162245635Y-125958665D01*
X162015517Y-125804905D01*
X161759823Y-125698994D01*
X161488380Y-125645000D01*
X161211620Y-125645000D01*
X160940177Y-125698994D01*
X160684483Y-125804905D01*
X160454365Y-125958665D01*
X160258665Y-126154365D01*
X160104905Y-126384483D01*
X160080000Y-126444610D01*
X160055095Y-126384483D01*
X159901335Y-126154365D01*
X159705635Y-125958665D01*
X159475517Y-125804905D01*
X159219823Y-125698994D01*
X158948380Y-125645000D01*
X158671620Y-125645000D01*
X158400177Y-125698994D01*
X158144483Y-125804905D01*
X157914365Y-125958665D01*
X157718665Y-126154365D01*
X157564905Y-126384483D01*
X157540000Y-126444610D01*
X157515095Y-126384483D01*
X157361335Y-126154365D01*
X157165635Y-125958665D01*
X156935517Y-125804905D01*
X156679823Y-125698994D01*
X156408380Y-125645000D01*
X156131620Y-125645000D01*
X155860177Y-125698994D01*
X155604483Y-125804905D01*
X155374365Y-125958665D01*
X155178665Y-126154365D01*
X155024905Y-126384483D01*
X155000000Y-126444610D01*
X154975095Y-126384483D01*
X154821335Y-126154365D01*
X154625635Y-125958665D01*
X154395517Y-125804905D01*
X154139823Y-125698994D01*
X153868380Y-125645000D01*
X153591620Y-125645000D01*
X153320177Y-125698994D01*
X153064483Y-125804905D01*
X152834365Y-125958665D01*
X152638665Y-126154365D01*
X152484905Y-126384483D01*
X152460000Y-126444610D01*
X152435095Y-126384483D01*
X152281335Y-126154365D01*
X152085635Y-125958665D01*
X151855517Y-125804905D01*
X151599823Y-125698994D01*
X151328380Y-125645000D01*
X151051620Y-125645000D01*
X150780177Y-125698994D01*
X150524483Y-125804905D01*
X150294365Y-125958665D01*
X150098665Y-126154365D01*
X149944905Y-126384483D01*
X149920000Y-126444610D01*
X149895095Y-126384483D01*
X149741335Y-126154365D01*
X149545635Y-125958665D01*
X149315517Y-125804905D01*
X149059823Y-125698994D01*
X148788380Y-125645000D01*
X148511620Y-125645000D01*
X148240177Y-125698994D01*
X147984483Y-125804905D01*
X147754365Y-125958665D01*
X147558665Y-126154365D01*
X147404905Y-126384483D01*
X147380000Y-126444610D01*
X147355095Y-126384483D01*
X147201335Y-126154365D01*
X147005635Y-125958665D01*
X146775517Y-125804905D01*
X146519823Y-125698994D01*
X146248380Y-125645000D01*
X145971620Y-125645000D01*
X145971541Y-125645016D01*
X145986500Y-125569813D01*
X145986500Y-125382187D01*
X145949896Y-125198166D01*
X145878095Y-125024822D01*
X145773855Y-124868816D01*
X145641184Y-124736145D01*
X145485178Y-124631905D01*
X145311834Y-124560104D01*
X145127813Y-124523500D01*
X144940187Y-124523500D01*
X144756166Y-124560104D01*
X144582822Y-124631905D01*
X144426816Y-124736145D01*
X144294145Y-124868816D01*
X144189905Y-125024822D01*
X144118104Y-125198166D01*
X144081500Y-125382187D01*
X144081500Y-125569813D01*
X144118104Y-125753834D01*
X144119323Y-125756776D01*
X143979823Y-125698994D01*
X143708380Y-125645000D01*
X143431620Y-125645000D01*
X143160177Y-125698994D01*
X142904483Y-125804905D01*
X142674365Y-125958665D01*
X142478665Y-126154365D01*
X142324905Y-126384483D01*
X142300000Y-126444610D01*
X142275095Y-126384483D01*
X142121335Y-126154365D01*
X141925635Y-125958665D01*
X141695517Y-125804905D01*
X141439823Y-125698994D01*
X141168380Y-125645000D01*
X140891620Y-125645000D01*
X140620177Y-125698994D01*
X140364483Y-125804905D01*
X140134365Y-125958665D01*
X139938665Y-126154365D01*
X139784905Y-126384483D01*
X139760000Y-126444610D01*
X139735095Y-126384483D01*
X139581335Y-126154365D01*
X139385635Y-125958665D01*
X139155517Y-125804905D01*
X138899823Y-125698994D01*
X138628380Y-125645000D01*
X138351620Y-125645000D01*
X138080177Y-125698994D01*
X137824483Y-125804905D01*
X137594365Y-125958665D01*
X137398665Y-126154365D01*
X137244905Y-126384483D01*
X137220000Y-126444610D01*
X137195095Y-126384483D01*
X137041335Y-126154365D01*
X136845635Y-125958665D01*
X136615517Y-125804905D01*
X136555390Y-125780000D01*
X136615517Y-125755095D01*
X136845635Y-125601335D01*
X137041335Y-125405635D01*
X137195095Y-125175517D01*
X137301006Y-124919823D01*
X137355000Y-124648380D01*
X137355000Y-124371620D01*
X137328658Y-124239187D01*
X147764500Y-124239187D01*
X147764500Y-124426813D01*
X147801104Y-124610834D01*
X147872905Y-124784178D01*
X147977145Y-124940184D01*
X148109816Y-125072855D01*
X148265822Y-125177095D01*
X148439166Y-125248896D01*
X148623187Y-125285500D01*
X148810813Y-125285500D01*
X148994834Y-125248896D01*
X149168178Y-125177095D01*
X149324184Y-125072855D01*
X149456855Y-124940184D01*
X149561095Y-124784178D01*
X149632896Y-124610834D01*
X149669500Y-124426813D01*
X149669500Y-124239187D01*
X149632896Y-124055166D01*
X149561095Y-123881822D01*
X149456855Y-123725816D01*
X149335226Y-123604187D01*
X150812500Y-123604187D01*
X150812500Y-123791813D01*
X150849104Y-123975834D01*
X150920905Y-124149178D01*
X151025145Y-124305184D01*
X151157816Y-124437855D01*
X151313822Y-124542095D01*
X151487166Y-124613896D01*
X151671187Y-124650500D01*
X151858813Y-124650500D01*
X152042834Y-124613896D01*
X152216178Y-124542095D01*
X152372184Y-124437855D01*
X152504855Y-124305184D01*
X152609095Y-124149178D01*
X152680896Y-123975834D01*
X152717500Y-123791813D01*
X152717500Y-123604187D01*
X152680896Y-123420166D01*
X152609095Y-123246822D01*
X152504855Y-123090816D01*
X152372184Y-122958145D01*
X152216178Y-122853905D01*
X152042834Y-122782104D01*
X151858813Y-122745500D01*
X151671187Y-122745500D01*
X151487166Y-122782104D01*
X151313822Y-122853905D01*
X151157816Y-122958145D01*
X151025145Y-123090816D01*
X150920905Y-123246822D01*
X150849104Y-123420166D01*
X150812500Y-123604187D01*
X149335226Y-123604187D01*
X149324184Y-123593145D01*
X149168178Y-123488905D01*
X148994834Y-123417104D01*
X148810813Y-123380500D01*
X148623187Y-123380500D01*
X148439166Y-123417104D01*
X148265822Y-123488905D01*
X148109816Y-123593145D01*
X147977145Y-123725816D01*
X147872905Y-123881822D01*
X147801104Y-124055166D01*
X147764500Y-124239187D01*
X137328658Y-124239187D01*
X137301006Y-124100177D01*
X137195095Y-123844483D01*
X137041335Y-123614365D01*
X136845635Y-123418665D01*
X136615517Y-123264905D01*
X136555390Y-123240000D01*
X136615517Y-123215095D01*
X136845635Y-123061335D01*
X137041335Y-122865635D01*
X137195095Y-122635517D01*
X137301006Y-122379823D01*
X137355000Y-122108380D01*
X137355000Y-121831620D01*
X137301006Y-121560177D01*
X137195095Y-121304483D01*
X137041335Y-121074365D01*
X136845635Y-120878665D01*
X136615517Y-120724905D01*
X136561122Y-120702374D01*
X136673724Y-120642187D01*
X136697980Y-120556187D01*
X151066500Y-120556187D01*
X151066500Y-120743813D01*
X151103104Y-120927834D01*
X151174905Y-121101178D01*
X151279145Y-121257184D01*
X151411816Y-121389855D01*
X151567822Y-121494095D01*
X151741166Y-121565896D01*
X151925187Y-121602500D01*
X152112813Y-121602500D01*
X152265206Y-121572187D01*
X153225500Y-121572187D01*
X153225500Y-121759813D01*
X153262104Y-121943834D01*
X153333905Y-122117178D01*
X153438145Y-122273184D01*
X153570816Y-122405855D01*
X153726822Y-122510095D01*
X153900166Y-122581896D01*
X154084187Y-122618500D01*
X154271813Y-122618500D01*
X154455834Y-122581896D01*
X154615620Y-122515711D01*
X154708145Y-122654184D01*
X154840816Y-122786855D01*
X154889108Y-122819123D01*
X154857905Y-122865822D01*
X154809565Y-122982526D01*
X154785184Y-122958145D01*
X154629178Y-122853905D01*
X154455834Y-122782104D01*
X154271813Y-122745500D01*
X154084187Y-122745500D01*
X153900166Y-122782104D01*
X153726822Y-122853905D01*
X153570816Y-122958145D01*
X153438145Y-123090816D01*
X153333905Y-123246822D01*
X153262104Y-123420166D01*
X153225500Y-123604187D01*
X153225500Y-123791813D01*
X153262104Y-123975834D01*
X153333905Y-124149178D01*
X153438145Y-124305184D01*
X153570816Y-124437855D01*
X153726822Y-124542095D01*
X153900166Y-124613896D01*
X154084187Y-124650500D01*
X154271813Y-124650500D01*
X154455834Y-124613896D01*
X154629178Y-124542095D01*
X154785184Y-124437855D01*
X154917855Y-124305184D01*
X155022095Y-124149178D01*
X155070435Y-124032474D01*
X155094816Y-124056855D01*
X155250822Y-124161095D01*
X155424166Y-124232896D01*
X155608187Y-124269500D01*
X155795813Y-124269500D01*
X155979834Y-124232896D01*
X156153178Y-124161095D01*
X156309184Y-124056855D01*
X156441855Y-123924184D01*
X156546095Y-123768178D01*
X156617896Y-123594834D01*
X156654500Y-123410813D01*
X156654500Y-123223187D01*
X156617896Y-123039166D01*
X156546095Y-122865822D01*
X156441855Y-122709816D01*
X156309184Y-122577145D01*
X156260892Y-122544877D01*
X156292095Y-122498178D01*
X156363896Y-122324834D01*
X156399928Y-122143687D01*
X168275000Y-122143687D01*
X168275000Y-122331313D01*
X168311604Y-122515334D01*
X168383405Y-122688678D01*
X168487645Y-122844684D01*
X168620316Y-122977355D01*
X168776322Y-123081595D01*
X168949666Y-123153396D01*
X169133687Y-123190000D01*
X169321313Y-123190000D01*
X169505334Y-123153396D01*
X169678678Y-123081595D01*
X169834684Y-122977355D01*
X169967355Y-122844684D01*
X170071595Y-122688678D01*
X170105302Y-122607302D01*
X170186678Y-122573595D01*
X170342684Y-122469355D01*
X170475355Y-122336684D01*
X170579595Y-122180678D01*
X170651396Y-122007334D01*
X170688000Y-121823313D01*
X170688000Y-121635687D01*
X170683303Y-121612072D01*
X170770095Y-121482178D01*
X170841896Y-121308834D01*
X170878500Y-121124813D01*
X170878500Y-120937187D01*
X170841896Y-120753166D01*
X170770095Y-120579822D01*
X170665855Y-120423816D01*
X170533184Y-120291145D01*
X170377178Y-120186905D01*
X170203834Y-120115104D01*
X170019813Y-120078500D01*
X169832187Y-120078500D01*
X169648166Y-120115104D01*
X169474822Y-120186905D01*
X169318816Y-120291145D01*
X169186145Y-120423816D01*
X169081905Y-120579822D01*
X169010104Y-120753166D01*
X168973500Y-120937187D01*
X168973500Y-121124813D01*
X168978197Y-121148428D01*
X168891405Y-121278322D01*
X168857698Y-121359698D01*
X168776322Y-121393405D01*
X168620316Y-121497645D01*
X168487645Y-121630316D01*
X168383405Y-121786322D01*
X168311604Y-121959666D01*
X168275000Y-122143687D01*
X156399928Y-122143687D01*
X156400500Y-122140813D01*
X156400500Y-121953187D01*
X156363896Y-121769166D01*
X156292095Y-121595822D01*
X156187855Y-121439816D01*
X156055184Y-121307145D01*
X155899178Y-121202905D01*
X155725834Y-121131104D01*
X155541813Y-121094500D01*
X155354187Y-121094500D01*
X155170166Y-121131104D01*
X155010380Y-121197289D01*
X154917855Y-121058816D01*
X154785184Y-120926145D01*
X154629178Y-120821905D01*
X154455834Y-120750104D01*
X154271813Y-120713500D01*
X154084187Y-120713500D01*
X153900166Y-120750104D01*
X153726822Y-120821905D01*
X153570816Y-120926145D01*
X153438145Y-121058816D01*
X153333905Y-121214822D01*
X153262104Y-121388166D01*
X153225500Y-121572187D01*
X152265206Y-121572187D01*
X152296834Y-121565896D01*
X152470178Y-121494095D01*
X152626184Y-121389855D01*
X152758855Y-121257184D01*
X152863095Y-121101178D01*
X152934896Y-120927834D01*
X152971500Y-120743813D01*
X152971500Y-120683187D01*
X156273500Y-120683187D01*
X156273500Y-120870813D01*
X156310104Y-121054834D01*
X156381905Y-121228178D01*
X156486145Y-121384184D01*
X156618816Y-121516855D01*
X156774822Y-121621095D01*
X156948166Y-121692896D01*
X157132187Y-121729500D01*
X157319813Y-121729500D01*
X157503834Y-121692896D01*
X157677178Y-121621095D01*
X157833184Y-121516855D01*
X157965855Y-121384184D01*
X158070095Y-121228178D01*
X158141896Y-121054834D01*
X158178500Y-120870813D01*
X158178500Y-120840500D01*
X158208813Y-120840500D01*
X158392834Y-120803896D01*
X158566178Y-120732095D01*
X158722184Y-120627855D01*
X158854855Y-120495184D01*
X158959095Y-120339178D01*
X159030896Y-120165834D01*
X159067500Y-119981813D01*
X159067500Y-119794187D01*
X159030896Y-119610166D01*
X158985886Y-119501501D01*
X172640023Y-119501501D01*
X172681104Y-119775195D01*
X172774790Y-120035617D01*
X172837813Y-120153524D01*
X173078722Y-120221473D01*
X173870395Y-119429800D01*
X174229605Y-119429800D01*
X175021278Y-120221473D01*
X175262187Y-120153524D01*
X175380087Y-119903132D01*
X175446872Y-119634550D01*
X175459977Y-119358099D01*
X175418896Y-119084405D01*
X175325210Y-118823983D01*
X175262187Y-118706076D01*
X175021278Y-118638127D01*
X174229605Y-119429800D01*
X173870395Y-119429800D01*
X173078722Y-118638127D01*
X172837813Y-118706076D01*
X172719913Y-118956468D01*
X172653128Y-119225050D01*
X172640023Y-119501501D01*
X158985886Y-119501501D01*
X158959095Y-119436822D01*
X158854855Y-119280816D01*
X158722184Y-119148145D01*
X158566178Y-119043905D01*
X158392834Y-118972104D01*
X158208813Y-118935500D01*
X158021187Y-118935500D01*
X157837166Y-118972104D01*
X157663822Y-119043905D01*
X157507816Y-119148145D01*
X157375145Y-119280816D01*
X157270905Y-119436822D01*
X157199104Y-119610166D01*
X157162500Y-119794187D01*
X157162500Y-119824500D01*
X157132187Y-119824500D01*
X156948166Y-119861104D01*
X156774822Y-119932905D01*
X156618816Y-120037145D01*
X156486145Y-120169816D01*
X156381905Y-120325822D01*
X156310104Y-120499166D01*
X156273500Y-120683187D01*
X152971500Y-120683187D01*
X152971500Y-120556187D01*
X152934896Y-120372166D01*
X152863095Y-120198822D01*
X152758855Y-120042816D01*
X152626184Y-119910145D01*
X152470178Y-119805905D01*
X152296834Y-119734104D01*
X152112813Y-119697500D01*
X151925187Y-119697500D01*
X151741166Y-119734104D01*
X151567822Y-119805905D01*
X151411816Y-119910145D01*
X151279145Y-120042816D01*
X151174905Y-120198822D01*
X151103104Y-120372166D01*
X151066500Y-120556187D01*
X136697980Y-120556187D01*
X136741673Y-120401278D01*
X135950000Y-119609605D01*
X135158327Y-120401278D01*
X135226276Y-120642187D01*
X135346976Y-120699020D01*
X135284483Y-120724905D01*
X135054365Y-120878665D01*
X134858665Y-121074365D01*
X134704905Y-121304483D01*
X134598994Y-121560177D01*
X134545000Y-121831620D01*
X133635000Y-121831620D01*
X133635000Y-119501701D01*
X134540023Y-119501701D01*
X134581104Y-119775395D01*
X134674790Y-120035817D01*
X134737813Y-120153724D01*
X134978722Y-120221673D01*
X135770395Y-119430000D01*
X136129605Y-119430000D01*
X136921278Y-120221673D01*
X137162187Y-120153724D01*
X137280087Y-119903332D01*
X137346872Y-119634750D01*
X137359977Y-119358299D01*
X137349154Y-119286187D01*
X140144500Y-119286187D01*
X140144500Y-119473813D01*
X140181104Y-119657834D01*
X140252905Y-119831178D01*
X140357145Y-119987184D01*
X140489816Y-120119855D01*
X140645822Y-120224095D01*
X140819166Y-120295896D01*
X141003187Y-120332500D01*
X141190813Y-120332500D01*
X141374834Y-120295896D01*
X141548178Y-120224095D01*
X141704184Y-120119855D01*
X141836855Y-119987184D01*
X141941095Y-119831178D01*
X142012896Y-119657834D01*
X142049500Y-119473813D01*
X142049500Y-119286187D01*
X142012896Y-119102166D01*
X141941095Y-118928822D01*
X141836855Y-118772816D01*
X141704184Y-118640145D01*
X141548178Y-118535905D01*
X141374834Y-118464104D01*
X141190813Y-118427500D01*
X141003187Y-118427500D01*
X140819166Y-118464104D01*
X140645822Y-118535905D01*
X140489816Y-118640145D01*
X140357145Y-118772816D01*
X140252905Y-118928822D01*
X140181104Y-119102166D01*
X140144500Y-119286187D01*
X137349154Y-119286187D01*
X137318896Y-119084605D01*
X137225210Y-118824183D01*
X137162187Y-118706276D01*
X136921278Y-118638327D01*
X136129605Y-119430000D01*
X135770395Y-119430000D01*
X134978722Y-118638327D01*
X134737813Y-118706276D01*
X134619913Y-118956668D01*
X134553128Y-119225250D01*
X134540023Y-119501701D01*
X133635000Y-119501701D01*
X133635000Y-116751620D01*
X134545000Y-116751620D01*
X134545000Y-117028380D01*
X134598994Y-117299823D01*
X134704905Y-117555517D01*
X134858665Y-117785635D01*
X135054365Y-117981335D01*
X135284483Y-118135095D01*
X135338878Y-118157626D01*
X135226276Y-118217813D01*
X135158327Y-118458722D01*
X135950000Y-119250395D01*
X136741673Y-118458722D01*
X136673724Y-118217813D01*
X136553024Y-118160980D01*
X136615517Y-118135095D01*
X136845635Y-117981335D01*
X137041335Y-117785635D01*
X137195095Y-117555517D01*
X137267304Y-117381187D01*
X145351500Y-117381187D01*
X145351500Y-117568813D01*
X145388104Y-117752834D01*
X145459905Y-117926178D01*
X145564145Y-118082184D01*
X145696816Y-118214855D01*
X145852822Y-118319095D01*
X146026166Y-118390896D01*
X146210187Y-118427500D01*
X146397813Y-118427500D01*
X146581834Y-118390896D01*
X146755178Y-118319095D01*
X146911184Y-118214855D01*
X147043855Y-118082184D01*
X147148095Y-117926178D01*
X147216021Y-117762187D01*
X150939500Y-117762187D01*
X150939500Y-117949813D01*
X150976104Y-118133834D01*
X151047905Y-118307178D01*
X151152145Y-118463184D01*
X151284816Y-118595855D01*
X151440822Y-118700095D01*
X151614166Y-118771896D01*
X151798187Y-118808500D01*
X151985813Y-118808500D01*
X152013608Y-118802971D01*
X152041145Y-118844184D01*
X152173816Y-118976855D01*
X152329822Y-119081095D01*
X152503166Y-119152896D01*
X152687187Y-119189500D01*
X152874813Y-119189500D01*
X153058834Y-119152896D01*
X153232178Y-119081095D01*
X153289000Y-119043128D01*
X153345822Y-119081095D01*
X153519166Y-119152896D01*
X153703187Y-119189500D01*
X153890813Y-119189500D01*
X154074834Y-119152896D01*
X154248178Y-119081095D01*
X154404184Y-118976855D01*
X154536855Y-118844184D01*
X154641095Y-118688178D01*
X154712896Y-118514834D01*
X154736297Y-118397187D01*
X159575500Y-118397187D01*
X159575500Y-118584813D01*
X159612104Y-118768834D01*
X159683905Y-118942178D01*
X159788145Y-119098184D01*
X159920816Y-119230855D01*
X160076822Y-119335095D01*
X160250166Y-119406896D01*
X160434187Y-119443500D01*
X160621813Y-119443500D01*
X160805834Y-119406896D01*
X160979178Y-119335095D01*
X161135184Y-119230855D01*
X161267855Y-119098184D01*
X161317045Y-119024566D01*
X161487178Y-118954095D01*
X161643184Y-118849855D01*
X161775855Y-118717184D01*
X161880095Y-118561178D01*
X161951896Y-118387834D01*
X161988500Y-118203813D01*
X161988500Y-118016187D01*
X161951896Y-117832166D01*
X161880095Y-117658822D01*
X161775855Y-117502816D01*
X161654226Y-117381187D01*
X164528500Y-117381187D01*
X164528500Y-117568813D01*
X164565104Y-117752834D01*
X164636905Y-117926178D01*
X164741145Y-118082184D01*
X164873816Y-118214855D01*
X165029822Y-118319095D01*
X165203166Y-118390896D01*
X165387187Y-118427500D01*
X165574813Y-118427500D01*
X165758834Y-118390896D01*
X165932178Y-118319095D01*
X166088184Y-118214855D01*
X166220855Y-118082184D01*
X166325095Y-117926178D01*
X166396896Y-117752834D01*
X166433500Y-117568813D01*
X166433500Y-117381187D01*
X168084500Y-117381187D01*
X168084500Y-117568813D01*
X168121104Y-117752834D01*
X168192905Y-117926178D01*
X168297145Y-118082184D01*
X168429816Y-118214855D01*
X168585822Y-118319095D01*
X168759166Y-118390896D01*
X168943187Y-118427500D01*
X169130813Y-118427500D01*
X169314834Y-118390896D01*
X169488178Y-118319095D01*
X169644184Y-118214855D01*
X169776855Y-118082184D01*
X169881095Y-117926178D01*
X169952896Y-117752834D01*
X169989500Y-117568813D01*
X169989500Y-117381187D01*
X169952896Y-117197166D01*
X169881095Y-117023822D01*
X169776855Y-116867816D01*
X169660459Y-116751420D01*
X170105000Y-116751420D01*
X170105000Y-117028180D01*
X170158994Y-117299623D01*
X170264905Y-117555317D01*
X170418665Y-117785435D01*
X170614365Y-117981135D01*
X170844483Y-118134895D01*
X171100177Y-118240806D01*
X171371620Y-118294800D01*
X171648380Y-118294800D01*
X171919823Y-118240806D01*
X172175517Y-118134895D01*
X172405635Y-117981135D01*
X172601335Y-117785435D01*
X172755095Y-117555317D01*
X172780000Y-117495190D01*
X172804905Y-117555317D01*
X172958665Y-117785435D01*
X173154365Y-117981135D01*
X173384483Y-118134895D01*
X173438878Y-118157426D01*
X173326276Y-118217613D01*
X173258327Y-118458522D01*
X174050000Y-119250195D01*
X174841673Y-118458522D01*
X174773724Y-118217613D01*
X174653024Y-118160780D01*
X174715517Y-118134895D01*
X174945635Y-117981135D01*
X175141335Y-117785435D01*
X175295095Y-117555317D01*
X175401006Y-117299623D01*
X175455000Y-117028180D01*
X175455000Y-116751420D01*
X175401006Y-116479977D01*
X175295095Y-116224283D01*
X175141335Y-115994165D01*
X174945635Y-115798465D01*
X174715517Y-115644705D01*
X174459823Y-115538794D01*
X174188380Y-115484800D01*
X173911620Y-115484800D01*
X173640177Y-115538794D01*
X173384483Y-115644705D01*
X173154365Y-115798465D01*
X172958665Y-115994165D01*
X172804905Y-116224283D01*
X172780000Y-116284410D01*
X172755095Y-116224283D01*
X172601335Y-115994165D01*
X172405635Y-115798465D01*
X172175517Y-115644705D01*
X171919823Y-115538794D01*
X171648380Y-115484800D01*
X171371620Y-115484800D01*
X171100177Y-115538794D01*
X170844483Y-115644705D01*
X170614365Y-115798465D01*
X170418665Y-115994165D01*
X170264905Y-116224283D01*
X170158994Y-116479977D01*
X170105000Y-116751420D01*
X169660459Y-116751420D01*
X169644184Y-116735145D01*
X169488178Y-116630905D01*
X169314834Y-116559104D01*
X169130813Y-116522500D01*
X168943187Y-116522500D01*
X168759166Y-116559104D01*
X168585822Y-116630905D01*
X168429816Y-116735145D01*
X168297145Y-116867816D01*
X168192905Y-117023822D01*
X168121104Y-117197166D01*
X168084500Y-117381187D01*
X166433500Y-117381187D01*
X166396896Y-117197166D01*
X166325095Y-117023822D01*
X166220855Y-116867816D01*
X166088184Y-116735145D01*
X165932178Y-116630905D01*
X165758834Y-116559104D01*
X165574813Y-116522500D01*
X165387187Y-116522500D01*
X165203166Y-116559104D01*
X165029822Y-116630905D01*
X164873816Y-116735145D01*
X164741145Y-116867816D01*
X164636905Y-117023822D01*
X164565104Y-117197166D01*
X164528500Y-117381187D01*
X161654226Y-117381187D01*
X161643184Y-117370145D01*
X161487178Y-117265905D01*
X161313834Y-117194104D01*
X161129813Y-117157500D01*
X160942187Y-117157500D01*
X160758166Y-117194104D01*
X160584822Y-117265905D01*
X160428816Y-117370145D01*
X160296145Y-117502816D01*
X160246955Y-117576434D01*
X160076822Y-117646905D01*
X159920816Y-117751145D01*
X159788145Y-117883816D01*
X159683905Y-118039822D01*
X159612104Y-118213166D01*
X159575500Y-118397187D01*
X154736297Y-118397187D01*
X154749500Y-118330813D01*
X154749500Y-118143187D01*
X154712896Y-117959166D01*
X154641095Y-117785822D01*
X154536855Y-117629816D01*
X154404184Y-117497145D01*
X154248178Y-117392905D01*
X154074834Y-117321104D01*
X153890813Y-117284500D01*
X153703187Y-117284500D01*
X153519166Y-117321104D01*
X153345822Y-117392905D01*
X153289000Y-117430872D01*
X153232178Y-117392905D01*
X153058834Y-117321104D01*
X152874813Y-117284500D01*
X152687187Y-117284500D01*
X152659392Y-117290029D01*
X152631855Y-117248816D01*
X152499184Y-117116145D01*
X152343178Y-117011905D01*
X152169834Y-116940104D01*
X151985813Y-116903500D01*
X151798187Y-116903500D01*
X151614166Y-116940104D01*
X151440822Y-117011905D01*
X151284816Y-117116145D01*
X151152145Y-117248816D01*
X151047905Y-117404822D01*
X150976104Y-117578166D01*
X150939500Y-117762187D01*
X147216021Y-117762187D01*
X147219896Y-117752834D01*
X147256500Y-117568813D01*
X147256500Y-117381187D01*
X147219896Y-117197166D01*
X147148095Y-117023822D01*
X147043855Y-116867816D01*
X146911184Y-116735145D01*
X146755178Y-116630905D01*
X146581834Y-116559104D01*
X146397813Y-116522500D01*
X146210187Y-116522500D01*
X146026166Y-116559104D01*
X145852822Y-116630905D01*
X145696816Y-116735145D01*
X145564145Y-116867816D01*
X145459905Y-117023822D01*
X145388104Y-117197166D01*
X145351500Y-117381187D01*
X137267304Y-117381187D01*
X137301006Y-117299823D01*
X137355000Y-117028380D01*
X137355000Y-116751620D01*
X137301006Y-116480177D01*
X137195095Y-116224483D01*
X137041335Y-115994365D01*
X136845635Y-115798665D01*
X136615517Y-115644905D01*
X136359823Y-115538994D01*
X136088380Y-115485000D01*
X135811620Y-115485000D01*
X135540177Y-115538994D01*
X135284483Y-115644905D01*
X135054365Y-115798665D01*
X134858665Y-115994365D01*
X134704905Y-116224483D01*
X134598994Y-116480177D01*
X134545000Y-116751620D01*
X133635000Y-116751620D01*
X133635000Y-114407852D01*
X133891753Y-114407852D01*
X134020076Y-114699871D01*
X134355695Y-114867723D01*
X134717611Y-114966874D01*
X135091916Y-114993514D01*
X135464227Y-114946618D01*
X135566497Y-114912539D01*
X152313466Y-114912539D01*
X152326145Y-115107519D01*
X152499174Y-115180075D01*
X152683034Y-115217482D01*
X152870658Y-115218300D01*
X153054837Y-115182499D01*
X153228493Y-115111455D01*
X153235855Y-115107519D01*
X153246573Y-114942687D01*
X154775000Y-114942687D01*
X154775000Y-115130313D01*
X154811604Y-115314334D01*
X154883405Y-115487678D01*
X154987645Y-115643684D01*
X155120316Y-115776355D01*
X155276322Y-115880595D01*
X155449666Y-115952396D01*
X155633687Y-115989000D01*
X155821313Y-115989000D01*
X156005334Y-115952396D01*
X156178678Y-115880595D01*
X156334684Y-115776355D01*
X156467355Y-115643684D01*
X156571595Y-115487678D01*
X156643396Y-115314334D01*
X156680000Y-115130313D01*
X156680000Y-114942687D01*
X158204000Y-114942687D01*
X158204000Y-115130313D01*
X158240604Y-115314334D01*
X158312405Y-115487678D01*
X158416645Y-115643684D01*
X158549316Y-115776355D01*
X158705322Y-115880595D01*
X158878666Y-115952396D01*
X159062687Y-115989000D01*
X159250313Y-115989000D01*
X159434334Y-115952396D01*
X159607678Y-115880595D01*
X159763684Y-115776355D01*
X159896355Y-115643684D01*
X160000595Y-115487678D01*
X160072396Y-115314334D01*
X160109000Y-115130313D01*
X160109000Y-114942687D01*
X160072396Y-114758666D01*
X160000595Y-114585322D01*
X159896355Y-114429316D01*
X159874891Y-114407852D01*
X173811753Y-114407852D01*
X173940076Y-114699871D01*
X174275695Y-114867723D01*
X174637611Y-114966874D01*
X175011916Y-114993514D01*
X175384227Y-114946618D01*
X175740235Y-114827988D01*
X175979924Y-114699871D01*
X176108247Y-114407852D01*
X174960000Y-113259605D01*
X173811753Y-114407852D01*
X159874891Y-114407852D01*
X159763684Y-114296645D01*
X159607678Y-114192405D01*
X159434334Y-114120604D01*
X159250313Y-114084000D01*
X159062687Y-114084000D01*
X158878666Y-114120604D01*
X158705322Y-114192405D01*
X158549316Y-114296645D01*
X158416645Y-114429316D01*
X158312405Y-114585322D01*
X158240604Y-114758666D01*
X158204000Y-114942687D01*
X156680000Y-114942687D01*
X156643396Y-114758666D01*
X156571595Y-114585322D01*
X156467355Y-114429316D01*
X156334684Y-114296645D01*
X156178678Y-114192405D01*
X156005334Y-114120604D01*
X155821313Y-114084000D01*
X155633687Y-114084000D01*
X155449666Y-114120604D01*
X155276322Y-114192405D01*
X155120316Y-114296645D01*
X154987645Y-114429316D01*
X154883405Y-114585322D01*
X154811604Y-114758666D01*
X154775000Y-114942687D01*
X153246573Y-114942687D01*
X153248534Y-114912539D01*
X152781000Y-114445005D01*
X152313466Y-114912539D01*
X135566497Y-114912539D01*
X135820235Y-114827988D01*
X136059924Y-114699871D01*
X136188247Y-114407852D01*
X135040000Y-113259605D01*
X133891753Y-114407852D01*
X133635000Y-114407852D01*
X133635000Y-114194346D01*
X133712148Y-114228247D01*
X134860395Y-113080000D01*
X135219605Y-113080000D01*
X136367852Y-114228247D01*
X136659871Y-114099924D01*
X136827723Y-113764305D01*
X136926874Y-113402389D01*
X136953514Y-113028084D01*
X136928697Y-112831058D01*
X151828100Y-112831058D01*
X151863901Y-113015237D01*
X151902566Y-113109748D01*
X151866325Y-113196174D01*
X151828918Y-113380034D01*
X151828100Y-113567658D01*
X151863901Y-113751837D01*
X151913086Y-113872061D01*
X151866325Y-113983574D01*
X151828918Y-114167434D01*
X151828100Y-114355058D01*
X151863901Y-114539237D01*
X151934945Y-114712893D01*
X151938881Y-114720255D01*
X152133861Y-114732934D01*
X152481522Y-114385273D01*
X152499174Y-114392675D01*
X152683034Y-114430082D01*
X152870658Y-114430900D01*
X153054837Y-114395099D01*
X153080007Y-114384802D01*
X153428139Y-114732934D01*
X153623119Y-114720255D01*
X153695675Y-114547226D01*
X153733082Y-114363366D01*
X153733900Y-114175742D01*
X153698099Y-113991563D01*
X153648914Y-113871339D01*
X153695675Y-113759826D01*
X153733082Y-113575966D01*
X153733900Y-113388342D01*
X153698099Y-113204163D01*
X153668543Y-113131916D01*
X173046486Y-113131916D01*
X173093382Y-113504227D01*
X173212012Y-113860235D01*
X173340129Y-114099924D01*
X173632148Y-114228247D01*
X174780395Y-113080000D01*
X173632148Y-111931753D01*
X173340129Y-112060076D01*
X173172277Y-112395695D01*
X173073126Y-112757611D01*
X173046486Y-113131916D01*
X153668543Y-113131916D01*
X153659434Y-113109652D01*
X153695675Y-113023226D01*
X153733082Y-112839366D01*
X153733900Y-112651742D01*
X153698099Y-112467563D01*
X153627055Y-112293907D01*
X153623119Y-112286545D01*
X153428139Y-112273866D01*
X153116270Y-112585735D01*
X153062826Y-112563325D01*
X152878966Y-112525918D01*
X152817147Y-112525648D01*
X153248534Y-112094261D01*
X153235855Y-111899281D01*
X153062826Y-111826725D01*
X152878966Y-111789318D01*
X152691342Y-111788500D01*
X152507163Y-111824301D01*
X152333507Y-111895345D01*
X152326145Y-111899281D01*
X152313466Y-112094261D01*
X152744537Y-112525332D01*
X152691342Y-112525100D01*
X152507163Y-112560901D01*
X152445942Y-112585947D01*
X152133861Y-112273866D01*
X151938881Y-112286545D01*
X151866325Y-112459574D01*
X151828918Y-112643434D01*
X151828100Y-112831058D01*
X136928697Y-112831058D01*
X136906618Y-112655773D01*
X136787988Y-112299765D01*
X136659871Y-112060076D01*
X136367852Y-111931753D01*
X135219605Y-113080000D01*
X134860395Y-113080000D01*
X133712148Y-111931753D01*
X133635000Y-111965654D01*
X133635000Y-111752148D01*
X133891753Y-111752148D01*
X135040000Y-112900395D01*
X136188247Y-111752148D01*
X136094665Y-111539187D01*
X139001500Y-111539187D01*
X139001500Y-111726813D01*
X139038104Y-111910834D01*
X139109905Y-112084178D01*
X139214145Y-112240184D01*
X139346816Y-112372855D01*
X139502822Y-112477095D01*
X139676166Y-112548896D01*
X139860187Y-112585500D01*
X140047813Y-112585500D01*
X140231834Y-112548896D01*
X140359130Y-112496169D01*
X140362816Y-112499855D01*
X140518822Y-112604095D01*
X140692166Y-112675896D01*
X140876187Y-112712500D01*
X141063813Y-112712500D01*
X141247834Y-112675896D01*
X141421178Y-112604095D01*
X141577184Y-112499855D01*
X141709855Y-112367184D01*
X141814095Y-112211178D01*
X141885896Y-112037834D01*
X141922500Y-111853813D01*
X141922500Y-111752148D01*
X173811753Y-111752148D01*
X174960000Y-112900395D01*
X176108247Y-111752148D01*
X175979924Y-111460129D01*
X175644305Y-111292277D01*
X175282389Y-111193126D01*
X174908084Y-111166486D01*
X174535773Y-111213382D01*
X174179765Y-111332012D01*
X173940076Y-111460129D01*
X173811753Y-111752148D01*
X141922500Y-111752148D01*
X141922500Y-111666187D01*
X141885896Y-111482166D01*
X141814095Y-111308822D01*
X141709855Y-111152816D01*
X141577184Y-111020145D01*
X141421178Y-110915905D01*
X141247834Y-110844104D01*
X141063813Y-110807500D01*
X140876187Y-110807500D01*
X140692166Y-110844104D01*
X140564870Y-110896831D01*
X140561184Y-110893145D01*
X140405178Y-110788905D01*
X140231834Y-110717104D01*
X140047813Y-110680500D01*
X139860187Y-110680500D01*
X139676166Y-110717104D01*
X139502822Y-110788905D01*
X139346816Y-110893145D01*
X139214145Y-111025816D01*
X139109905Y-111181822D01*
X139038104Y-111355166D01*
X139001500Y-111539187D01*
X136094665Y-111539187D01*
X136059924Y-111460129D01*
X135724305Y-111292277D01*
X135362389Y-111193126D01*
X134988084Y-111166486D01*
X134615773Y-111213382D01*
X134259765Y-111332012D01*
X134020076Y-111460129D01*
X133891753Y-111752148D01*
X133635000Y-111752148D01*
X133635000Y-110142187D01*
X137122000Y-110142187D01*
X137122000Y-110329813D01*
X137158604Y-110513834D01*
X137230405Y-110687178D01*
X137334645Y-110843184D01*
X137467316Y-110975855D01*
X137623322Y-111080095D01*
X137796666Y-111151896D01*
X137980687Y-111188500D01*
X138168313Y-111188500D01*
X138352334Y-111151896D01*
X138525678Y-111080095D01*
X138681684Y-110975855D01*
X138814355Y-110843184D01*
X138918595Y-110687178D01*
X138990396Y-110513834D01*
X139027000Y-110329813D01*
X139027000Y-110142187D01*
X139001739Y-110015187D01*
X143065500Y-110015187D01*
X143065500Y-110202813D01*
X143102104Y-110386834D01*
X143173905Y-110560178D01*
X143278145Y-110716184D01*
X143410816Y-110848855D01*
X143566822Y-110953095D01*
X143740166Y-111024896D01*
X143924187Y-111061500D01*
X144111813Y-111061500D01*
X144295834Y-111024896D01*
X144469178Y-110953095D01*
X144625184Y-110848855D01*
X144757855Y-110716184D01*
X144862095Y-110560178D01*
X144933896Y-110386834D01*
X144957297Y-110269187D01*
X145732500Y-110269187D01*
X145732500Y-110456813D01*
X145769104Y-110640834D01*
X145840905Y-110814178D01*
X145945145Y-110970184D01*
X146077816Y-111102855D01*
X146233822Y-111207095D01*
X146407166Y-111278896D01*
X146591187Y-111315500D01*
X146778813Y-111315500D01*
X146962834Y-111278896D01*
X147136178Y-111207095D01*
X147292184Y-111102855D01*
X147424855Y-110970184D01*
X147529095Y-110814178D01*
X147600896Y-110640834D01*
X147637500Y-110456813D01*
X147637500Y-110269187D01*
X147600896Y-110085166D01*
X147529095Y-109911822D01*
X147424855Y-109755816D01*
X147292184Y-109623145D01*
X147136178Y-109518905D01*
X146962834Y-109447104D01*
X146778813Y-109410500D01*
X146591187Y-109410500D01*
X146407166Y-109447104D01*
X146233822Y-109518905D01*
X146077816Y-109623145D01*
X145945145Y-109755816D01*
X145840905Y-109911822D01*
X145769104Y-110085166D01*
X145732500Y-110269187D01*
X144957297Y-110269187D01*
X144970500Y-110202813D01*
X144970500Y-110015187D01*
X144933896Y-109831166D01*
X144862095Y-109657822D01*
X144757855Y-109501816D01*
X144625184Y-109369145D01*
X144469178Y-109264905D01*
X144295834Y-109193104D01*
X144111813Y-109156500D01*
X143924187Y-109156500D01*
X143740166Y-109193104D01*
X143566822Y-109264905D01*
X143410816Y-109369145D01*
X143278145Y-109501816D01*
X143173905Y-109657822D01*
X143102104Y-109831166D01*
X143065500Y-110015187D01*
X139001739Y-110015187D01*
X138990396Y-109958166D01*
X138918595Y-109784822D01*
X138814355Y-109628816D01*
X138681684Y-109496145D01*
X138525678Y-109391905D01*
X138352334Y-109320104D01*
X138168313Y-109283500D01*
X137980687Y-109283500D01*
X137796666Y-109320104D01*
X137623322Y-109391905D01*
X137467316Y-109496145D01*
X137334645Y-109628816D01*
X137230405Y-109784822D01*
X137158604Y-109958166D01*
X137122000Y-110142187D01*
X133635000Y-110142187D01*
X133635000Y-108364187D01*
X152463500Y-108364187D01*
X152463500Y-108551813D01*
X152500104Y-108735834D01*
X152571905Y-108909178D01*
X152676145Y-109065184D01*
X152808816Y-109197855D01*
X152964822Y-109302095D01*
X153138166Y-109373896D01*
X153322187Y-109410500D01*
X153509813Y-109410500D01*
X153693834Y-109373896D01*
X153867178Y-109302095D01*
X154023184Y-109197855D01*
X154155855Y-109065184D01*
X154260095Y-108909178D01*
X154331896Y-108735834D01*
X154368500Y-108551813D01*
X154368500Y-108364187D01*
X154331896Y-108180166D01*
X154260095Y-108006822D01*
X154159444Y-107856187D01*
X161099500Y-107856187D01*
X161099500Y-108043813D01*
X161136104Y-108227834D01*
X161207905Y-108401178D01*
X161312145Y-108557184D01*
X161444816Y-108689855D01*
X161600822Y-108794095D01*
X161774166Y-108865896D01*
X161958187Y-108902500D01*
X162145813Y-108902500D01*
X162329834Y-108865896D01*
X162503178Y-108794095D01*
X162659184Y-108689855D01*
X162791855Y-108557184D01*
X162896095Y-108401178D01*
X162967896Y-108227834D01*
X163004500Y-108043813D01*
X163004500Y-107856187D01*
X162967896Y-107672166D01*
X162896095Y-107498822D01*
X162791855Y-107342816D01*
X162659184Y-107210145D01*
X162503178Y-107105905D01*
X162474889Y-107094187D01*
X170878500Y-107094187D01*
X170878500Y-107281813D01*
X170915104Y-107465834D01*
X170986905Y-107639178D01*
X171091145Y-107795184D01*
X171223816Y-107927855D01*
X171379822Y-108032095D01*
X171553166Y-108103896D01*
X171737187Y-108140500D01*
X171924813Y-108140500D01*
X172108834Y-108103896D01*
X172282178Y-108032095D01*
X172438184Y-107927855D01*
X172570855Y-107795184D01*
X172675095Y-107639178D01*
X172746896Y-107465834D01*
X172783500Y-107281813D01*
X172783500Y-107094187D01*
X172746896Y-106910166D01*
X172675095Y-106736822D01*
X172570855Y-106580816D01*
X172438184Y-106448145D01*
X172282178Y-106343905D01*
X172108834Y-106272104D01*
X171924813Y-106235500D01*
X171737187Y-106235500D01*
X171553166Y-106272104D01*
X171379822Y-106343905D01*
X171223816Y-106448145D01*
X171091145Y-106580816D01*
X170986905Y-106736822D01*
X170915104Y-106910166D01*
X170878500Y-107094187D01*
X162474889Y-107094187D01*
X162329834Y-107034104D01*
X162145813Y-106997500D01*
X161958187Y-106997500D01*
X161774166Y-107034104D01*
X161600822Y-107105905D01*
X161444816Y-107210145D01*
X161312145Y-107342816D01*
X161207905Y-107498822D01*
X161136104Y-107672166D01*
X161099500Y-107856187D01*
X154159444Y-107856187D01*
X154155855Y-107850816D01*
X154023184Y-107718145D01*
X153867178Y-107613905D01*
X153693834Y-107542104D01*
X153509813Y-107505500D01*
X153322187Y-107505500D01*
X153138166Y-107542104D01*
X152964822Y-107613905D01*
X152808816Y-107718145D01*
X152676145Y-107850816D01*
X152571905Y-108006822D01*
X152500104Y-108180166D01*
X152463500Y-108364187D01*
X133635000Y-108364187D01*
X133635000Y-105570187D01*
X138239500Y-105570187D01*
X138239500Y-105757813D01*
X138276104Y-105941834D01*
X138347905Y-106115178D01*
X138452145Y-106271184D01*
X138584816Y-106403855D01*
X138740822Y-106508095D01*
X138914166Y-106579896D01*
X139098187Y-106616500D01*
X139285813Y-106616500D01*
X139469834Y-106579896D01*
X139643178Y-106508095D01*
X139799184Y-106403855D01*
X139931855Y-106271184D01*
X140036095Y-106115178D01*
X140107896Y-105941834D01*
X140144500Y-105757813D01*
X140144500Y-105570187D01*
X142684500Y-105570187D01*
X142684500Y-105757813D01*
X142721104Y-105941834D01*
X142792905Y-106115178D01*
X142897145Y-106271184D01*
X143029816Y-106403855D01*
X143185822Y-106508095D01*
X143359166Y-106579896D01*
X143543187Y-106616500D01*
X143730813Y-106616500D01*
X143914834Y-106579896D01*
X144088178Y-106508095D01*
X144244184Y-106403855D01*
X144376855Y-106271184D01*
X144481095Y-106115178D01*
X144552896Y-105941834D01*
X144589500Y-105757813D01*
X144589500Y-105570187D01*
X144552896Y-105386166D01*
X144481095Y-105212822D01*
X144376855Y-105056816D01*
X144244184Y-104924145D01*
X144088178Y-104819905D01*
X143914834Y-104748104D01*
X143730813Y-104711500D01*
X143543187Y-104711500D01*
X143359166Y-104748104D01*
X143185822Y-104819905D01*
X143029816Y-104924145D01*
X142897145Y-105056816D01*
X142792905Y-105212822D01*
X142721104Y-105386166D01*
X142684500Y-105570187D01*
X140144500Y-105570187D01*
X140107896Y-105386166D01*
X140036095Y-105212822D01*
X139931855Y-105056816D01*
X139799184Y-104924145D01*
X139643178Y-104819905D01*
X139469834Y-104748104D01*
X139285813Y-104711500D01*
X139098187Y-104711500D01*
X138914166Y-104748104D01*
X138740822Y-104819905D01*
X138584816Y-104924145D01*
X138452145Y-105056816D01*
X138347905Y-105212822D01*
X138276104Y-105386166D01*
X138239500Y-105570187D01*
X133635000Y-105570187D01*
X133635000Y-104247852D01*
X133891753Y-104247852D01*
X134020076Y-104539871D01*
X134355695Y-104707723D01*
X134717611Y-104806874D01*
X135091916Y-104833514D01*
X135464227Y-104786618D01*
X135820235Y-104667988D01*
X136059924Y-104539871D01*
X136188247Y-104247852D01*
X135040000Y-103099605D01*
X133891753Y-104247852D01*
X133635000Y-104247852D01*
X133635000Y-104034346D01*
X133712148Y-104068247D01*
X134860395Y-102920000D01*
X135219605Y-102920000D01*
X136367852Y-104068247D01*
X136659871Y-103939924D01*
X136670242Y-103919187D01*
X144462500Y-103919187D01*
X144462500Y-104106813D01*
X144499104Y-104290834D01*
X144570905Y-104464178D01*
X144675145Y-104620184D01*
X144807816Y-104752855D01*
X144963822Y-104857095D01*
X145137166Y-104928896D01*
X145321187Y-104965500D01*
X145508813Y-104965500D01*
X145692834Y-104928896D01*
X145866178Y-104857095D01*
X146022184Y-104752855D01*
X146154855Y-104620184D01*
X146259095Y-104464178D01*
X146330896Y-104290834D01*
X146339445Y-104247852D01*
X173811753Y-104247852D01*
X173940076Y-104539871D01*
X174275695Y-104707723D01*
X174637611Y-104806874D01*
X175011916Y-104833514D01*
X175384227Y-104786618D01*
X175740235Y-104667988D01*
X175979924Y-104539871D01*
X176108247Y-104247852D01*
X174960000Y-103099605D01*
X173811753Y-104247852D01*
X146339445Y-104247852D01*
X146367500Y-104106813D01*
X146367500Y-103919187D01*
X146330896Y-103735166D01*
X146259095Y-103561822D01*
X146154855Y-103405816D01*
X146022184Y-103273145D01*
X145866178Y-103168905D01*
X145692834Y-103097104D01*
X145508813Y-103060500D01*
X145321187Y-103060500D01*
X145137166Y-103097104D01*
X144963822Y-103168905D01*
X144807816Y-103273145D01*
X144675145Y-103405816D01*
X144570905Y-103561822D01*
X144499104Y-103735166D01*
X144462500Y-103919187D01*
X136670242Y-103919187D01*
X136827723Y-103604305D01*
X136926874Y-103242389D01*
X136946124Y-102971916D01*
X173046486Y-102971916D01*
X173093382Y-103344227D01*
X173212012Y-103700235D01*
X173340129Y-103939924D01*
X173632148Y-104068247D01*
X174780395Y-102920000D01*
X173632148Y-101771753D01*
X173340129Y-101900076D01*
X173172277Y-102235695D01*
X173073126Y-102597611D01*
X173046486Y-102971916D01*
X136946124Y-102971916D01*
X136953514Y-102868084D01*
X136906618Y-102495773D01*
X136787988Y-102139765D01*
X136659871Y-101900076D01*
X136367852Y-101771753D01*
X135219605Y-102920000D01*
X134860395Y-102920000D01*
X133712148Y-101771753D01*
X133635000Y-101805654D01*
X133635000Y-101592148D01*
X133891753Y-101592148D01*
X135040000Y-102740395D01*
X136188247Y-101592148D01*
X136094665Y-101379187D01*
X140652500Y-101379187D01*
X140652500Y-101566813D01*
X140689104Y-101750834D01*
X140760905Y-101924178D01*
X140865145Y-102080184D01*
X140997816Y-102212855D01*
X141153822Y-102317095D01*
X141327166Y-102388896D01*
X141511187Y-102425500D01*
X141698813Y-102425500D01*
X141882834Y-102388896D01*
X142056178Y-102317095D01*
X142212184Y-102212855D01*
X142344855Y-102080184D01*
X142449095Y-101924178D01*
X142520896Y-101750834D01*
X142552460Y-101592148D01*
X173811753Y-101592148D01*
X174960000Y-102740395D01*
X176108247Y-101592148D01*
X175979924Y-101300129D01*
X175644305Y-101132277D01*
X175282389Y-101033126D01*
X174908084Y-101006486D01*
X174535773Y-101053382D01*
X174179765Y-101172012D01*
X173940076Y-101300129D01*
X173811753Y-101592148D01*
X142552460Y-101592148D01*
X142557500Y-101566813D01*
X142557500Y-101379187D01*
X142520896Y-101195166D01*
X142449095Y-101021822D01*
X142344855Y-100865816D01*
X142212184Y-100733145D01*
X142056178Y-100628905D01*
X141882834Y-100557104D01*
X141698813Y-100520500D01*
X141511187Y-100520500D01*
X141327166Y-100557104D01*
X141153822Y-100628905D01*
X140997816Y-100733145D01*
X140865145Y-100865816D01*
X140760905Y-101021822D01*
X140689104Y-101195166D01*
X140652500Y-101379187D01*
X136094665Y-101379187D01*
X136059924Y-101300129D01*
X135724305Y-101132277D01*
X135362389Y-101033126D01*
X134988084Y-101006486D01*
X134615773Y-101053382D01*
X134259765Y-101172012D01*
X134020076Y-101300129D01*
X133891753Y-101592148D01*
X133635000Y-101592148D01*
X133635000Y-98971620D01*
X134545000Y-98971620D01*
X134545000Y-99248380D01*
X134598994Y-99519823D01*
X134704905Y-99775517D01*
X134858665Y-100005635D01*
X135054365Y-100201335D01*
X135284483Y-100355095D01*
X135540177Y-100461006D01*
X135811620Y-100515000D01*
X136088380Y-100515000D01*
X136359823Y-100461006D01*
X136615517Y-100355095D01*
X136845635Y-100201335D01*
X137041335Y-100005635D01*
X137195095Y-99775517D01*
X137301006Y-99519823D01*
X137355000Y-99248380D01*
X137355000Y-98971620D01*
X137328658Y-98839187D01*
X139128500Y-98839187D01*
X139128500Y-99026813D01*
X139165104Y-99210834D01*
X139236905Y-99384178D01*
X139341145Y-99540184D01*
X139473816Y-99672855D01*
X139629822Y-99777095D01*
X139803166Y-99848896D01*
X139987187Y-99885500D01*
X140174813Y-99885500D01*
X140358834Y-99848896D01*
X140532178Y-99777095D01*
X140688184Y-99672855D01*
X140820855Y-99540184D01*
X140925095Y-99384178D01*
X140996896Y-99210834D01*
X141033500Y-99026813D01*
X141033500Y-98839187D01*
X140996896Y-98655166D01*
X140930711Y-98495380D01*
X141069184Y-98402855D01*
X141201855Y-98270184D01*
X141306095Y-98114178D01*
X141377896Y-97940834D01*
X141414500Y-97756813D01*
X141414500Y-97569187D01*
X141377896Y-97385166D01*
X141306095Y-97211822D01*
X141201855Y-97055816D01*
X141069184Y-96923145D01*
X140913178Y-96818905D01*
X140739834Y-96747104D01*
X140555813Y-96710500D01*
X140368187Y-96710500D01*
X140184166Y-96747104D01*
X140010822Y-96818905D01*
X139854816Y-96923145D01*
X139722145Y-97055816D01*
X139617905Y-97211822D01*
X139546104Y-97385166D01*
X139509500Y-97569187D01*
X139509500Y-97756813D01*
X139546104Y-97940834D01*
X139612289Y-98100620D01*
X139473816Y-98193145D01*
X139341145Y-98325816D01*
X139236905Y-98481822D01*
X139165104Y-98655166D01*
X139128500Y-98839187D01*
X137328658Y-98839187D01*
X137301006Y-98700177D01*
X137195095Y-98444483D01*
X137041335Y-98214365D01*
X136845635Y-98018665D01*
X136615517Y-97864905D01*
X136561122Y-97842374D01*
X136673724Y-97782187D01*
X136741673Y-97541278D01*
X135950000Y-96749605D01*
X135158327Y-97541278D01*
X135226276Y-97782187D01*
X135346976Y-97839020D01*
X135284483Y-97864905D01*
X135054365Y-98018665D01*
X134858665Y-98214365D01*
X134704905Y-98444483D01*
X134598994Y-98700177D01*
X134545000Y-98971620D01*
X133635000Y-98971620D01*
X133635000Y-96641701D01*
X134540023Y-96641701D01*
X134581104Y-96915395D01*
X134674790Y-97175817D01*
X134737813Y-97293724D01*
X134978722Y-97361673D01*
X135770395Y-96570000D01*
X136129605Y-96570000D01*
X136921278Y-97361673D01*
X137162187Y-97293724D01*
X137280087Y-97043332D01*
X137346872Y-96774750D01*
X137359977Y-96498299D01*
X137330091Y-96299187D01*
X144081500Y-96299187D01*
X144081500Y-96486813D01*
X144118104Y-96670834D01*
X144189905Y-96844178D01*
X144294145Y-97000184D01*
X144426816Y-97132855D01*
X144582822Y-97237095D01*
X144756166Y-97308896D01*
X144940187Y-97345500D01*
X145127813Y-97345500D01*
X145311834Y-97308896D01*
X145485178Y-97237095D01*
X145641184Y-97132855D01*
X145773855Y-97000184D01*
X145878095Y-96844178D01*
X145949896Y-96670834D01*
X145986500Y-96486813D01*
X145986500Y-96299187D01*
X145949896Y-96115166D01*
X145878095Y-95941822D01*
X145773855Y-95785816D01*
X145641184Y-95653145D01*
X145485178Y-95548905D01*
X145311834Y-95477104D01*
X145127813Y-95440500D01*
X144940187Y-95440500D01*
X144756166Y-95477104D01*
X144582822Y-95548905D01*
X144426816Y-95653145D01*
X144294145Y-95785816D01*
X144189905Y-95941822D01*
X144118104Y-96115166D01*
X144081500Y-96299187D01*
X137330091Y-96299187D01*
X137318896Y-96224605D01*
X137225210Y-95964183D01*
X137162187Y-95846276D01*
X136921278Y-95778327D01*
X136129605Y-96570000D01*
X135770395Y-96570000D01*
X134978722Y-95778327D01*
X134737813Y-95846276D01*
X134619913Y-96096668D01*
X134553128Y-96365250D01*
X134540023Y-96641701D01*
X133635000Y-96641701D01*
X133635000Y-88811620D01*
X134545000Y-88811620D01*
X134545000Y-89088380D01*
X134598994Y-89359823D01*
X134704905Y-89615517D01*
X134858665Y-89845635D01*
X135054365Y-90041335D01*
X135284483Y-90195095D01*
X135344610Y-90220000D01*
X135284483Y-90244905D01*
X135054365Y-90398665D01*
X134858665Y-90594365D01*
X134704905Y-90824483D01*
X134598994Y-91080177D01*
X134545000Y-91351620D01*
X134545000Y-91628380D01*
X134598994Y-91899823D01*
X134704905Y-92155517D01*
X134858665Y-92385635D01*
X135054365Y-92581335D01*
X135284483Y-92735095D01*
X135344610Y-92760000D01*
X135284483Y-92784905D01*
X135054365Y-92938665D01*
X134858665Y-93134365D01*
X134704905Y-93364483D01*
X134598994Y-93620177D01*
X134545000Y-93891620D01*
X134545000Y-94168380D01*
X134598994Y-94439823D01*
X134704905Y-94695517D01*
X134858665Y-94925635D01*
X135054365Y-95121335D01*
X135284483Y-95275095D01*
X135338878Y-95297626D01*
X135226276Y-95357813D01*
X135158327Y-95598722D01*
X135950000Y-96390395D01*
X136741673Y-95598722D01*
X136673724Y-95357813D01*
X136553024Y-95300980D01*
X136615517Y-95275095D01*
X136845635Y-95121335D01*
X137041335Y-94925635D01*
X137195095Y-94695517D01*
X137301006Y-94439823D01*
X137355000Y-94168380D01*
X137355000Y-93891620D01*
X137301006Y-93620177D01*
X137195095Y-93364483D01*
X137041335Y-93134365D01*
X136845635Y-92938665D01*
X136615517Y-92784905D01*
X136555390Y-92760000D01*
X136615517Y-92735095D01*
X136845635Y-92581335D01*
X137041335Y-92385635D01*
X137195095Y-92155517D01*
X137267304Y-91981187D01*
X142938500Y-91981187D01*
X142938500Y-92168813D01*
X142975104Y-92352834D01*
X143046905Y-92526178D01*
X143151145Y-92682184D01*
X143283816Y-92814855D01*
X143439822Y-92919095D01*
X143613166Y-92990896D01*
X143797187Y-93027500D01*
X143984813Y-93027500D01*
X144168834Y-92990896D01*
X144342178Y-92919095D01*
X144498184Y-92814855D01*
X144630855Y-92682184D01*
X144735095Y-92526178D01*
X144806896Y-92352834D01*
X144843500Y-92168813D01*
X144843500Y-91981187D01*
X144806896Y-91797166D01*
X144735095Y-91623822D01*
X144630855Y-91467816D01*
X144498184Y-91335145D01*
X144342178Y-91230905D01*
X144168834Y-91159104D01*
X143984813Y-91122500D01*
X143797187Y-91122500D01*
X143613166Y-91159104D01*
X143439822Y-91230905D01*
X143283816Y-91335145D01*
X143151145Y-91467816D01*
X143046905Y-91623822D01*
X142975104Y-91797166D01*
X142938500Y-91981187D01*
X137267304Y-91981187D01*
X137301006Y-91899823D01*
X137355000Y-91628380D01*
X137355000Y-91351620D01*
X137301006Y-91080177D01*
X137195095Y-90824483D01*
X137041335Y-90594365D01*
X136845635Y-90398665D01*
X136615517Y-90244905D01*
X136555390Y-90220000D01*
X136615517Y-90195095D01*
X136845635Y-90041335D01*
X137041335Y-89845635D01*
X137195095Y-89615517D01*
X137220000Y-89555390D01*
X137244905Y-89615517D01*
X137398665Y-89845635D01*
X137594365Y-90041335D01*
X137824483Y-90195095D01*
X138080177Y-90301006D01*
X138351620Y-90355000D01*
X138628380Y-90355000D01*
X138899823Y-90301006D01*
X139155517Y-90195095D01*
X139385635Y-90041335D01*
X139581335Y-89845635D01*
X139735095Y-89615517D01*
X139760000Y-89555390D01*
X139784905Y-89615517D01*
X139938665Y-89845635D01*
X140134365Y-90041335D01*
X140364483Y-90195095D01*
X140620177Y-90301006D01*
X140891620Y-90355000D01*
X141168380Y-90355000D01*
X141439823Y-90301006D01*
X141695517Y-90195095D01*
X141925635Y-90041335D01*
X142121335Y-89845635D01*
X142275095Y-89615517D01*
X142300000Y-89555390D01*
X142324905Y-89615517D01*
X142478665Y-89845635D01*
X142674365Y-90041335D01*
X142904483Y-90195095D01*
X143160177Y-90301006D01*
X143431620Y-90355000D01*
X143708380Y-90355000D01*
X143979823Y-90301006D01*
X144235517Y-90195095D01*
X144465635Y-90041335D01*
X144661335Y-89845635D01*
X144815095Y-89615517D01*
X144840000Y-89555390D01*
X144864905Y-89615517D01*
X145018665Y-89845635D01*
X145214365Y-90041335D01*
X145444483Y-90195095D01*
X145700177Y-90301006D01*
X145971620Y-90355000D01*
X146248380Y-90355000D01*
X146519823Y-90301006D01*
X146775517Y-90195095D01*
X147005635Y-90041335D01*
X147201335Y-89845635D01*
X147355095Y-89615517D01*
X147380000Y-89555390D01*
X147404905Y-89615517D01*
X147558665Y-89845635D01*
X147754365Y-90041335D01*
X147984483Y-90195095D01*
X148240177Y-90301006D01*
X148511620Y-90355000D01*
X148788380Y-90355000D01*
X149059823Y-90301006D01*
X149315517Y-90195095D01*
X149545635Y-90041335D01*
X149741335Y-89845635D01*
X149895095Y-89615517D01*
X149920000Y-89555390D01*
X149944905Y-89615517D01*
X150098665Y-89845635D01*
X150294365Y-90041335D01*
X150524483Y-90195095D01*
X150780177Y-90301006D01*
X151051620Y-90355000D01*
X151328380Y-90355000D01*
X151599823Y-90301006D01*
X151855517Y-90195095D01*
X152085635Y-90041335D01*
X152281335Y-89845635D01*
X152435095Y-89615517D01*
X152460000Y-89555390D01*
X152484905Y-89615517D01*
X152638665Y-89845635D01*
X152834365Y-90041335D01*
X153064483Y-90195095D01*
X153320177Y-90301006D01*
X153591620Y-90355000D01*
X153868380Y-90355000D01*
X154139823Y-90301006D01*
X154395517Y-90195095D01*
X154625635Y-90041335D01*
X154821335Y-89845635D01*
X154975095Y-89615517D01*
X155000000Y-89555390D01*
X155024905Y-89615517D01*
X155178665Y-89845635D01*
X155374365Y-90041335D01*
X155604483Y-90195095D01*
X155860177Y-90301006D01*
X156131620Y-90355000D01*
X156408380Y-90355000D01*
X156679823Y-90301006D01*
X156935517Y-90195095D01*
X157165635Y-90041335D01*
X157361335Y-89845635D01*
X157515095Y-89615517D01*
X157540000Y-89555390D01*
X157564905Y-89615517D01*
X157718665Y-89845635D01*
X157914365Y-90041335D01*
X158144483Y-90195095D01*
X158400177Y-90301006D01*
X158671620Y-90355000D01*
X158948380Y-90355000D01*
X159219823Y-90301006D01*
X159475517Y-90195095D01*
X159705635Y-90041335D01*
X159901335Y-89845635D01*
X160055095Y-89615517D01*
X160080000Y-89555390D01*
X160104905Y-89615517D01*
X160258665Y-89845635D01*
X160454365Y-90041335D01*
X160684483Y-90195095D01*
X160940177Y-90301006D01*
X161211620Y-90355000D01*
X161488380Y-90355000D01*
X161759823Y-90301006D01*
X162015517Y-90195095D01*
X162245635Y-90041335D01*
X162441335Y-89845635D01*
X162595095Y-89615517D01*
X162620000Y-89555390D01*
X162644905Y-89615517D01*
X162798665Y-89845635D01*
X162994365Y-90041335D01*
X163224483Y-90195095D01*
X163480177Y-90301006D01*
X163751620Y-90355000D01*
X164028380Y-90355000D01*
X164299823Y-90301006D01*
X164555517Y-90195095D01*
X164785635Y-90041335D01*
X164981335Y-89845635D01*
X165135095Y-89615517D01*
X165160000Y-89555390D01*
X165184905Y-89615517D01*
X165338665Y-89845635D01*
X165534365Y-90041335D01*
X165764483Y-90195095D01*
X166020177Y-90301006D01*
X166291620Y-90355000D01*
X166568380Y-90355000D01*
X166839823Y-90301006D01*
X167095517Y-90195095D01*
X167325635Y-90041335D01*
X167521335Y-89845635D01*
X167675095Y-89615517D01*
X167700000Y-89555390D01*
X167724905Y-89615517D01*
X167878665Y-89845635D01*
X168074365Y-90041335D01*
X168304483Y-90195095D01*
X168560177Y-90301006D01*
X168831620Y-90355000D01*
X169108380Y-90355000D01*
X169379823Y-90301006D01*
X169635517Y-90195095D01*
X169865635Y-90041335D01*
X170061335Y-89845635D01*
X170215095Y-89615517D01*
X170240000Y-89555390D01*
X170264905Y-89615517D01*
X170418665Y-89845635D01*
X170614365Y-90041335D01*
X170844483Y-90195095D01*
X171100177Y-90301006D01*
X171371620Y-90355000D01*
X171648380Y-90355000D01*
X171919823Y-90301006D01*
X172175517Y-90195095D01*
X172405635Y-90041335D01*
X172601335Y-89845635D01*
X172755095Y-89615517D01*
X172780000Y-89555390D01*
X172804905Y-89615517D01*
X172958665Y-89845635D01*
X173154365Y-90041335D01*
X173384483Y-90195095D01*
X173531592Y-90256029D01*
X173374483Y-90321105D01*
X173144365Y-90474865D01*
X172948665Y-90670565D01*
X172794905Y-90900683D01*
X172688994Y-91156377D01*
X172635000Y-91427820D01*
X172635000Y-91704580D01*
X172688994Y-91976023D01*
X172794905Y-92231717D01*
X172948665Y-92461835D01*
X173144365Y-92657535D01*
X173374483Y-92811295D01*
X173434610Y-92836200D01*
X173374483Y-92861105D01*
X173144365Y-93014865D01*
X172948665Y-93210565D01*
X172794905Y-93440683D01*
X172688994Y-93696377D01*
X172635000Y-93967820D01*
X172635000Y-94244580D01*
X172688994Y-94516023D01*
X172794905Y-94771717D01*
X172948665Y-95001835D01*
X173144365Y-95197535D01*
X173374483Y-95351295D01*
X173434610Y-95376200D01*
X173374483Y-95401105D01*
X173144365Y-95554865D01*
X172948665Y-95750565D01*
X172794905Y-95980683D01*
X172688994Y-96236377D01*
X172635000Y-96507820D01*
X172635000Y-96784580D01*
X172688994Y-97056023D01*
X172794905Y-97311717D01*
X172948665Y-97541835D01*
X173144365Y-97737535D01*
X173374483Y-97891295D01*
X173434610Y-97916200D01*
X173374483Y-97941105D01*
X173144365Y-98094865D01*
X172948665Y-98290565D01*
X172794905Y-98520683D01*
X172770000Y-98580810D01*
X172745095Y-98520683D01*
X172591335Y-98290565D01*
X172395635Y-98094865D01*
X172165517Y-97941105D01*
X171909823Y-97835194D01*
X171638380Y-97781200D01*
X171361620Y-97781200D01*
X171090177Y-97835194D01*
X170834483Y-97941105D01*
X170604365Y-98094865D01*
X170408665Y-98290565D01*
X170254905Y-98520683D01*
X170148994Y-98776377D01*
X170095000Y-99047820D01*
X170095000Y-99324580D01*
X170148994Y-99596023D01*
X170254905Y-99851717D01*
X170408665Y-100081835D01*
X170604365Y-100277535D01*
X170834483Y-100431295D01*
X171090177Y-100537206D01*
X171361620Y-100591200D01*
X171638380Y-100591200D01*
X171909823Y-100537206D01*
X172165517Y-100431295D01*
X172395635Y-100277535D01*
X172591335Y-100081835D01*
X172745095Y-99851717D01*
X172770000Y-99791590D01*
X172794905Y-99851717D01*
X172948665Y-100081835D01*
X173144365Y-100277535D01*
X173374483Y-100431295D01*
X173630177Y-100537206D01*
X173901620Y-100591200D01*
X174178380Y-100591200D01*
X174449823Y-100537206D01*
X174705517Y-100431295D01*
X174935635Y-100277535D01*
X175131335Y-100081835D01*
X175285095Y-99851717D01*
X175391006Y-99596023D01*
X175445000Y-99324580D01*
X175445000Y-99047820D01*
X175391006Y-98776377D01*
X175285095Y-98520683D01*
X175131335Y-98290565D01*
X174935635Y-98094865D01*
X174705517Y-97941105D01*
X174645390Y-97916200D01*
X174705517Y-97891295D01*
X174935635Y-97737535D01*
X175131335Y-97541835D01*
X175285095Y-97311717D01*
X175391006Y-97056023D01*
X175445000Y-96784580D01*
X175445000Y-96507820D01*
X175391006Y-96236377D01*
X175285095Y-95980683D01*
X175131335Y-95750565D01*
X174935635Y-95554865D01*
X174705517Y-95401105D01*
X174645390Y-95376200D01*
X174705517Y-95351295D01*
X174935635Y-95197535D01*
X175131335Y-95001835D01*
X175285095Y-94771717D01*
X175391006Y-94516023D01*
X175445000Y-94244580D01*
X175445000Y-93967820D01*
X175391006Y-93696377D01*
X175285095Y-93440683D01*
X175131335Y-93210565D01*
X174935635Y-93014865D01*
X174705517Y-92861105D01*
X174645390Y-92836200D01*
X174705517Y-92811295D01*
X174935635Y-92657535D01*
X175131335Y-92461835D01*
X175285095Y-92231717D01*
X175391006Y-91976023D01*
X175445000Y-91704580D01*
X175445000Y-91427820D01*
X175391006Y-91156377D01*
X175285095Y-90900683D01*
X175131335Y-90670565D01*
X174935635Y-90474865D01*
X174705517Y-90321105D01*
X174558408Y-90260171D01*
X174715517Y-90195095D01*
X174945635Y-90041335D01*
X175141335Y-89845635D01*
X175295095Y-89615517D01*
X175401006Y-89359823D01*
X175455000Y-89088380D01*
X175455000Y-88811620D01*
X175401006Y-88540177D01*
X175295095Y-88284483D01*
X175141335Y-88054365D01*
X174945635Y-87858665D01*
X174715517Y-87704905D01*
X174459823Y-87598994D01*
X174188380Y-87545000D01*
X173911620Y-87545000D01*
X173640177Y-87598994D01*
X173384483Y-87704905D01*
X173154365Y-87858665D01*
X172958665Y-88054365D01*
X172804905Y-88284483D01*
X172780000Y-88344610D01*
X172755095Y-88284483D01*
X172601335Y-88054365D01*
X172405635Y-87858665D01*
X172175517Y-87704905D01*
X171919823Y-87598994D01*
X171648380Y-87545000D01*
X171371620Y-87545000D01*
X171100177Y-87598994D01*
X170844483Y-87704905D01*
X170614365Y-87858665D01*
X170418665Y-88054365D01*
X170264905Y-88284483D01*
X170240000Y-88344610D01*
X170215095Y-88284483D01*
X170061335Y-88054365D01*
X169865635Y-87858665D01*
X169635517Y-87704905D01*
X169379823Y-87598994D01*
X169108380Y-87545000D01*
X168831620Y-87545000D01*
X168560177Y-87598994D01*
X168304483Y-87704905D01*
X168074365Y-87858665D01*
X167878665Y-88054365D01*
X167724905Y-88284483D01*
X167700000Y-88344610D01*
X167675095Y-88284483D01*
X167521335Y-88054365D01*
X167325635Y-87858665D01*
X167095517Y-87704905D01*
X166839823Y-87598994D01*
X166568380Y-87545000D01*
X166291620Y-87545000D01*
X166020177Y-87598994D01*
X165764483Y-87704905D01*
X165534365Y-87858665D01*
X165338665Y-88054365D01*
X165184905Y-88284483D01*
X165160000Y-88344610D01*
X165135095Y-88284483D01*
X164981335Y-88054365D01*
X164785635Y-87858665D01*
X164555517Y-87704905D01*
X164299823Y-87598994D01*
X164028380Y-87545000D01*
X163751620Y-87545000D01*
X163480177Y-87598994D01*
X163224483Y-87704905D01*
X162994365Y-87858665D01*
X162798665Y-88054365D01*
X162644905Y-88284483D01*
X162620000Y-88344610D01*
X162595095Y-88284483D01*
X162441335Y-88054365D01*
X162245635Y-87858665D01*
X162015517Y-87704905D01*
X161759823Y-87598994D01*
X161488380Y-87545000D01*
X161211620Y-87545000D01*
X160940177Y-87598994D01*
X160684483Y-87704905D01*
X160454365Y-87858665D01*
X160258665Y-88054365D01*
X160104905Y-88284483D01*
X160080000Y-88344610D01*
X160055095Y-88284483D01*
X159901335Y-88054365D01*
X159705635Y-87858665D01*
X159475517Y-87704905D01*
X159219823Y-87598994D01*
X158948380Y-87545000D01*
X158671620Y-87545000D01*
X158400177Y-87598994D01*
X158144483Y-87704905D01*
X157914365Y-87858665D01*
X157718665Y-88054365D01*
X157564905Y-88284483D01*
X157540000Y-88344610D01*
X157515095Y-88284483D01*
X157361335Y-88054365D01*
X157165635Y-87858665D01*
X156935517Y-87704905D01*
X156679823Y-87598994D01*
X156408380Y-87545000D01*
X156131620Y-87545000D01*
X155860177Y-87598994D01*
X155604483Y-87704905D01*
X155374365Y-87858665D01*
X155178665Y-88054365D01*
X155024905Y-88284483D01*
X155000000Y-88344610D01*
X154975095Y-88284483D01*
X154821335Y-88054365D01*
X154625635Y-87858665D01*
X154395517Y-87704905D01*
X154139823Y-87598994D01*
X153868380Y-87545000D01*
X153591620Y-87545000D01*
X153320177Y-87598994D01*
X153064483Y-87704905D01*
X152834365Y-87858665D01*
X152638665Y-88054365D01*
X152484905Y-88284483D01*
X152460000Y-88344610D01*
X152435095Y-88284483D01*
X152281335Y-88054365D01*
X152085635Y-87858665D01*
X151855517Y-87704905D01*
X151599823Y-87598994D01*
X151328380Y-87545000D01*
X151051620Y-87545000D01*
X150780177Y-87598994D01*
X150524483Y-87704905D01*
X150294365Y-87858665D01*
X150098665Y-88054365D01*
X149944905Y-88284483D01*
X149920000Y-88344610D01*
X149895095Y-88284483D01*
X149741335Y-88054365D01*
X149545635Y-87858665D01*
X149315517Y-87704905D01*
X149059823Y-87598994D01*
X148788380Y-87545000D01*
X148511620Y-87545000D01*
X148240177Y-87598994D01*
X147984483Y-87704905D01*
X147754365Y-87858665D01*
X147558665Y-88054365D01*
X147404905Y-88284483D01*
X147380000Y-88344610D01*
X147355095Y-88284483D01*
X147201335Y-88054365D01*
X147005635Y-87858665D01*
X146775517Y-87704905D01*
X146519823Y-87598994D01*
X146248380Y-87545000D01*
X145971620Y-87545000D01*
X145700177Y-87598994D01*
X145444483Y-87704905D01*
X145214365Y-87858665D01*
X145018665Y-88054365D01*
X144864905Y-88284483D01*
X144840000Y-88344610D01*
X144815095Y-88284483D01*
X144661335Y-88054365D01*
X144465635Y-87858665D01*
X144235517Y-87704905D01*
X143979823Y-87598994D01*
X143708380Y-87545000D01*
X143431620Y-87545000D01*
X143160177Y-87598994D01*
X142904483Y-87704905D01*
X142674365Y-87858665D01*
X142478665Y-88054365D01*
X142324905Y-88284483D01*
X142300000Y-88344610D01*
X142275095Y-88284483D01*
X142121335Y-88054365D01*
X141925635Y-87858665D01*
X141695517Y-87704905D01*
X141439823Y-87598994D01*
X141168380Y-87545000D01*
X140891620Y-87545000D01*
X140620177Y-87598994D01*
X140364483Y-87704905D01*
X140134365Y-87858665D01*
X139938665Y-88054365D01*
X139784905Y-88284483D01*
X139760000Y-88344610D01*
X139735095Y-88284483D01*
X139581335Y-88054365D01*
X139385635Y-87858665D01*
X139155517Y-87704905D01*
X138899823Y-87598994D01*
X138628380Y-87545000D01*
X138351620Y-87545000D01*
X138080177Y-87598994D01*
X137824483Y-87704905D01*
X137594365Y-87858665D01*
X137398665Y-88054365D01*
X137244905Y-88284483D01*
X137220000Y-88344610D01*
X137195095Y-88284483D01*
X137041335Y-88054365D01*
X136845635Y-87858665D01*
X136615517Y-87704905D01*
X136359823Y-87598994D01*
X136088380Y-87545000D01*
X135811620Y-87545000D01*
X135540177Y-87598994D01*
X135284483Y-87704905D01*
X135054365Y-87858665D01*
X134858665Y-88054365D01*
X134704905Y-88284483D01*
X134598994Y-88540177D01*
X134545000Y-88811620D01*
X133635000Y-88811620D01*
X133635000Y-88095510D01*
X133667097Y-87768158D01*
X133746045Y-87506670D01*
X133874278Y-87265497D01*
X134046915Y-87053823D01*
X134257375Y-86879717D01*
X134497650Y-86749800D01*
X134758583Y-86669028D01*
X135082338Y-86635000D01*
X174904490Y-86635000D01*
X175231842Y-86667097D01*
G37*
X175231842Y-86667097D02*
X175493330Y-86746045D01*
X175734503Y-86874278D01*
X175946177Y-87046915D01*
X176120283Y-87257375D01*
X176250200Y-87497650D01*
X176330972Y-87758583D01*
X176365000Y-88082338D01*
X176365000Y-101805655D01*
X176287852Y-101771753D01*
X175139605Y-102920000D01*
X176287852Y-104068247D01*
X176365000Y-104034345D01*
X176365001Y-111965655D01*
X176287852Y-111931753D01*
X175139605Y-113080000D01*
X176287852Y-114228247D01*
X176365001Y-114194345D01*
X176365001Y-127904480D01*
X176332903Y-128231840D01*
X176253955Y-128493329D01*
X176125721Y-128734503D01*
X175953084Y-128946177D01*
X175742625Y-129120283D01*
X175502350Y-129250200D01*
X175241417Y-129330972D01*
X174917663Y-129365000D01*
X135095510Y-129365000D01*
X134768160Y-129332903D01*
X134506671Y-129253955D01*
X134265497Y-129125721D01*
X134053823Y-128953084D01*
X133879717Y-128742625D01*
X133749800Y-128502350D01*
X133669028Y-128241417D01*
X133635000Y-127917663D01*
X133635000Y-121831620D01*
X134545000Y-121831620D01*
X134545000Y-122108380D01*
X134598994Y-122379823D01*
X134704905Y-122635517D01*
X134858665Y-122865635D01*
X135054365Y-123061335D01*
X135284483Y-123215095D01*
X135344610Y-123240000D01*
X135284483Y-123264905D01*
X135054365Y-123418665D01*
X134858665Y-123614365D01*
X134704905Y-123844483D01*
X134598994Y-124100177D01*
X134545000Y-124371620D01*
X134545000Y-124648380D01*
X134598994Y-124919823D01*
X134704905Y-125175517D01*
X134858665Y-125405635D01*
X135054365Y-125601335D01*
X135284483Y-125755095D01*
X135344610Y-125780000D01*
X135284483Y-125804905D01*
X135054365Y-125958665D01*
X134858665Y-126154365D01*
X134704905Y-126384483D01*
X134598994Y-126640177D01*
X134545000Y-126911620D01*
X134545000Y-127188380D01*
X134598994Y-127459823D01*
X134704905Y-127715517D01*
X134858665Y-127945635D01*
X135054365Y-128141335D01*
X135284483Y-128295095D01*
X135540177Y-128401006D01*
X135811620Y-128455000D01*
X136088380Y-128455000D01*
X136359823Y-128401006D01*
X136615517Y-128295095D01*
X136845635Y-128141335D01*
X137041335Y-127945635D01*
X137195095Y-127715517D01*
X137220000Y-127655390D01*
X137244905Y-127715517D01*
X137398665Y-127945635D01*
X137594365Y-128141335D01*
X137824483Y-128295095D01*
X138080177Y-128401006D01*
X138351620Y-128455000D01*
X138628380Y-128455000D01*
X138899823Y-128401006D01*
X139155517Y-128295095D01*
X139385635Y-128141335D01*
X139581335Y-127945635D01*
X139735095Y-127715517D01*
X139760000Y-127655390D01*
X139784905Y-127715517D01*
X139938665Y-127945635D01*
X140134365Y-128141335D01*
X140364483Y-128295095D01*
X140620177Y-128401006D01*
X140891620Y-128455000D01*
X141168380Y-128455000D01*
X141439823Y-128401006D01*
X141695517Y-128295095D01*
X141925635Y-128141335D01*
X142121335Y-127945635D01*
X142275095Y-127715517D01*
X142300000Y-127655390D01*
X142324905Y-127715517D01*
X142478665Y-127945635D01*
X142674365Y-128141335D01*
X142904483Y-128295095D01*
X143160177Y-128401006D01*
X143431620Y-128455000D01*
X143708380Y-128455000D01*
X143979823Y-128401006D01*
X144235517Y-128295095D01*
X144465635Y-128141335D01*
X144661335Y-127945635D01*
X144815095Y-127715517D01*
X144840000Y-127655390D01*
X144864905Y-127715517D01*
X145018665Y-127945635D01*
X145214365Y-128141335D01*
X145444483Y-128295095D01*
X145700177Y-128401006D01*
X145971620Y-128455000D01*
X146248380Y-128455000D01*
X146519823Y-128401006D01*
X146775517Y-128295095D01*
X147005635Y-128141335D01*
X147201335Y-127945635D01*
X147355095Y-127715517D01*
X147380000Y-127655390D01*
X147404905Y-127715517D01*
X147558665Y-127945635D01*
X147754365Y-128141335D01*
X147984483Y-128295095D01*
X148240177Y-128401006D01*
X148511620Y-128455000D01*
X148788380Y-128455000D01*
X149059823Y-128401006D01*
X149315517Y-128295095D01*
X149545635Y-128141335D01*
X149741335Y-127945635D01*
X149895095Y-127715517D01*
X149920000Y-127655390D01*
X149944905Y-127715517D01*
X150098665Y-127945635D01*
X150294365Y-128141335D01*
X150524483Y-128295095D01*
X150780177Y-128401006D01*
X151051620Y-128455000D01*
X151328380Y-128455000D01*
X151599823Y-128401006D01*
X151855517Y-128295095D01*
X152085635Y-128141335D01*
X152281335Y-127945635D01*
X152435095Y-127715517D01*
X152460000Y-127655390D01*
X152484905Y-127715517D01*
X152638665Y-127945635D01*
X152834365Y-128141335D01*
X153064483Y-128295095D01*
X153320177Y-128401006D01*
X153591620Y-128455000D01*
X153868380Y-128455000D01*
X154139823Y-128401006D01*
X154395517Y-128295095D01*
X154625635Y-128141335D01*
X154821335Y-127945635D01*
X154975095Y-127715517D01*
X155000000Y-127655390D01*
X155024905Y-127715517D01*
X155178665Y-127945635D01*
X155374365Y-128141335D01*
X155604483Y-128295095D01*
X155860177Y-128401006D01*
X156131620Y-128455000D01*
X156408380Y-128455000D01*
X156679823Y-128401006D01*
X156935517Y-128295095D01*
X157165635Y-128141335D01*
X157361335Y-127945635D01*
X157515095Y-127715517D01*
X157540000Y-127655390D01*
X157564905Y-127715517D01*
X157718665Y-127945635D01*
X157914365Y-128141335D01*
X158144483Y-128295095D01*
X158400177Y-128401006D01*
X158671620Y-128455000D01*
X158948380Y-128455000D01*
X159219823Y-128401006D01*
X159475517Y-128295095D01*
X159705635Y-128141335D01*
X159901335Y-127945635D01*
X160055095Y-127715517D01*
X160080000Y-127655390D01*
X160104905Y-127715517D01*
X160258665Y-127945635D01*
X160454365Y-128141335D01*
X160684483Y-128295095D01*
X160940177Y-128401006D01*
X161211620Y-128455000D01*
X161488380Y-128455000D01*
X161759823Y-128401006D01*
X162015517Y-128295095D01*
X162245635Y-128141335D01*
X162441335Y-127945635D01*
X162595095Y-127715517D01*
X162620000Y-127655390D01*
X162644905Y-127715517D01*
X162798665Y-127945635D01*
X162994365Y-128141335D01*
X163224483Y-128295095D01*
X163480177Y-128401006D01*
X163751620Y-128455000D01*
X164028380Y-128455000D01*
X164299823Y-128401006D01*
X164555517Y-128295095D01*
X164785635Y-128141335D01*
X164981335Y-127945635D01*
X165135095Y-127715517D01*
X165160000Y-127655390D01*
X165184905Y-127715517D01*
X165338665Y-127945635D01*
X165534365Y-128141335D01*
X165764483Y-128295095D01*
X166020177Y-128401006D01*
X166291620Y-128455000D01*
X166568380Y-128455000D01*
X166839823Y-128401006D01*
X167095517Y-128295095D01*
X167325635Y-128141335D01*
X167521335Y-127945635D01*
X167675095Y-127715517D01*
X167700000Y-127655390D01*
X167724905Y-127715517D01*
X167878665Y-127945635D01*
X168074365Y-128141335D01*
X168304483Y-128295095D01*
X168560177Y-128401006D01*
X168831620Y-128455000D01*
X169108380Y-128455000D01*
X169379823Y-128401006D01*
X169635517Y-128295095D01*
X169865635Y-128141335D01*
X170061335Y-127945635D01*
X170215095Y-127715517D01*
X170240000Y-127655390D01*
X170264905Y-127715517D01*
X170418665Y-127945635D01*
X170614365Y-128141335D01*
X170844483Y-128295095D01*
X171100177Y-128401006D01*
X171371620Y-128455000D01*
X171648380Y-128455000D01*
X171919823Y-128401006D01*
X172175517Y-128295095D01*
X172405635Y-128141335D01*
X172601335Y-127945635D01*
X172755095Y-127715517D01*
X172780000Y-127655390D01*
X172804905Y-127715517D01*
X172958665Y-127945635D01*
X173154365Y-128141335D01*
X173384483Y-128295095D01*
X173640177Y-128401006D01*
X173911620Y-128455000D01*
X174188380Y-128455000D01*
X174459823Y-128401006D01*
X174715517Y-128295095D01*
X174945635Y-128141335D01*
X175141335Y-127945635D01*
X175295095Y-127715517D01*
X175401006Y-127459823D01*
X175455000Y-127188380D01*
X175455000Y-126911620D01*
X175401006Y-126640177D01*
X175295095Y-126384483D01*
X175141335Y-126154365D01*
X174945635Y-125958665D01*
X174715517Y-125804905D01*
X174655149Y-125779900D01*
X174715517Y-125754895D01*
X174945635Y-125601135D01*
X175141335Y-125405435D01*
X175295095Y-125175317D01*
X175401006Y-124919623D01*
X175455000Y-124648180D01*
X175455000Y-124371420D01*
X175401006Y-124099977D01*
X175295095Y-123844283D01*
X175141335Y-123614165D01*
X174945635Y-123418465D01*
X174715517Y-123264705D01*
X174655390Y-123239800D01*
X174715517Y-123214895D01*
X174945635Y-123061135D01*
X175141335Y-122865435D01*
X175295095Y-122635317D01*
X175401006Y-122379623D01*
X175455000Y-122108180D01*
X175455000Y-121831420D01*
X175401006Y-121559977D01*
X175295095Y-121304283D01*
X175141335Y-121074165D01*
X174945635Y-120878465D01*
X174715517Y-120724705D01*
X174661122Y-120702174D01*
X174773724Y-120641987D01*
X174841673Y-120401078D01*
X174050000Y-119609405D01*
X173258327Y-120401078D01*
X173326276Y-120641987D01*
X173446976Y-120698820D01*
X173384483Y-120724705D01*
X173154365Y-120878465D01*
X172958665Y-121074165D01*
X172804905Y-121304283D01*
X172698994Y-121559977D01*
X172645000Y-121831420D01*
X172645000Y-122108180D01*
X172698994Y-122379623D01*
X172804905Y-122635317D01*
X172958665Y-122865435D01*
X173154365Y-123061135D01*
X173384483Y-123214895D01*
X173444610Y-123239800D01*
X173384483Y-123264705D01*
X173154365Y-123418465D01*
X172958665Y-123614165D01*
X172804905Y-123844283D01*
X172698994Y-124099977D01*
X172645000Y-124371420D01*
X172645000Y-124648180D01*
X172698994Y-124919623D01*
X172804905Y-125175317D01*
X172958665Y-125405435D01*
X173154365Y-125601135D01*
X173384483Y-125754895D01*
X173444851Y-125779900D01*
X173384483Y-125804905D01*
X173154365Y-125958665D01*
X172958665Y-126154365D01*
X172804905Y-126384483D01*
X172780000Y-126444610D01*
X172755095Y-126384483D01*
X172601335Y-126154365D01*
X172405635Y-125958665D01*
X172175517Y-125804905D01*
X171919823Y-125698994D01*
X171648380Y-125645000D01*
X171371620Y-125645000D01*
X171100177Y-125698994D01*
X170844483Y-125804905D01*
X170614365Y-125958665D01*
X170418665Y-126154365D01*
X170264905Y-126384483D01*
X170240000Y-126444610D01*
X170215095Y-126384483D01*
X170061335Y-126154365D01*
X169865635Y-125958665D01*
X169635517Y-125804905D01*
X169379823Y-125698994D01*
X169108380Y-125645000D01*
X168831620Y-125645000D01*
X168560177Y-125698994D01*
X168304483Y-125804905D01*
X168074365Y-125958665D01*
X167878665Y-126154365D01*
X167724905Y-126384483D01*
X167700000Y-126444610D01*
X167675095Y-126384483D01*
X167521335Y-126154365D01*
X167325635Y-125958665D01*
X167095517Y-125804905D01*
X166839823Y-125698994D01*
X166568380Y-125645000D01*
X166291620Y-125645000D01*
X166020177Y-125698994D01*
X165764483Y-125804905D01*
X165534365Y-125958665D01*
X165338665Y-126154365D01*
X165184905Y-126384483D01*
X165160000Y-126444610D01*
X165135095Y-126384483D01*
X164981335Y-126154365D01*
X164785635Y-125958665D01*
X164555517Y-125804905D01*
X164299823Y-125698994D01*
X164028380Y-125645000D01*
X163751620Y-125645000D01*
X163480177Y-125698994D01*
X163224483Y-125804905D01*
X162994365Y-125958665D01*
X162798665Y-126154365D01*
X162644905Y-126384483D01*
X162620000Y-126444610D01*
X162595095Y-126384483D01*
X162441335Y-126154365D01*
X162245635Y-125958665D01*
X162015517Y-125804905D01*
X161759823Y-125698994D01*
X161488380Y-125645000D01*
X161211620Y-125645000D01*
X160940177Y-125698994D01*
X160684483Y-125804905D01*
X160454365Y-125958665D01*
X160258665Y-126154365D01*
X160104905Y-126384483D01*
X160080000Y-126444610D01*
X160055095Y-126384483D01*
X159901335Y-126154365D01*
X159705635Y-125958665D01*
X159475517Y-125804905D01*
X159219823Y-125698994D01*
X158948380Y-125645000D01*
X158671620Y-125645000D01*
X158400177Y-125698994D01*
X158144483Y-125804905D01*
X157914365Y-125958665D01*
X157718665Y-126154365D01*
X157564905Y-126384483D01*
X157540000Y-126444610D01*
X157515095Y-126384483D01*
X157361335Y-126154365D01*
X157165635Y-125958665D01*
X156935517Y-125804905D01*
X156679823Y-125698994D01*
X156408380Y-125645000D01*
X156131620Y-125645000D01*
X155860177Y-125698994D01*
X155604483Y-125804905D01*
X155374365Y-125958665D01*
X155178665Y-126154365D01*
X155024905Y-126384483D01*
X155000000Y-126444610D01*
X154975095Y-126384483D01*
X154821335Y-126154365D01*
X154625635Y-125958665D01*
X154395517Y-125804905D01*
X154139823Y-125698994D01*
X153868380Y-125645000D01*
X153591620Y-125645000D01*
X153320177Y-125698994D01*
X153064483Y-125804905D01*
X152834365Y-125958665D01*
X152638665Y-126154365D01*
X152484905Y-126384483D01*
X152460000Y-126444610D01*
X152435095Y-126384483D01*
X152281335Y-126154365D01*
X152085635Y-125958665D01*
X151855517Y-125804905D01*
X151599823Y-125698994D01*
X151328380Y-125645000D01*
X151051620Y-125645000D01*
X150780177Y-125698994D01*
X150524483Y-125804905D01*
X150294365Y-125958665D01*
X150098665Y-126154365D01*
X149944905Y-126384483D01*
X149920000Y-126444610D01*
X149895095Y-126384483D01*
X149741335Y-126154365D01*
X149545635Y-125958665D01*
X149315517Y-125804905D01*
X149059823Y-125698994D01*
X148788380Y-125645000D01*
X148511620Y-125645000D01*
X148240177Y-125698994D01*
X147984483Y-125804905D01*
X147754365Y-125958665D01*
X147558665Y-126154365D01*
X147404905Y-126384483D01*
X147380000Y-126444610D01*
X147355095Y-126384483D01*
X147201335Y-126154365D01*
X147005635Y-125958665D01*
X146775517Y-125804905D01*
X146519823Y-125698994D01*
X146248380Y-125645000D01*
X145971620Y-125645000D01*
X145971541Y-125645016D01*
X145986500Y-125569813D01*
X145986500Y-125382187D01*
X145949896Y-125198166D01*
X145878095Y-125024822D01*
X145773855Y-124868816D01*
X145641184Y-124736145D01*
X145485178Y-124631905D01*
X145311834Y-124560104D01*
X145127813Y-124523500D01*
X144940187Y-124523500D01*
X144756166Y-124560104D01*
X144582822Y-124631905D01*
X144426816Y-124736145D01*
X144294145Y-124868816D01*
X144189905Y-125024822D01*
X144118104Y-125198166D01*
X144081500Y-125382187D01*
X144081500Y-125569813D01*
X144118104Y-125753834D01*
X144119323Y-125756776D01*
X143979823Y-125698994D01*
X143708380Y-125645000D01*
X143431620Y-125645000D01*
X143160177Y-125698994D01*
X142904483Y-125804905D01*
X142674365Y-125958665D01*
X142478665Y-126154365D01*
X142324905Y-126384483D01*
X142300000Y-126444610D01*
X142275095Y-126384483D01*
X142121335Y-126154365D01*
X141925635Y-125958665D01*
X141695517Y-125804905D01*
X141439823Y-125698994D01*
X141168380Y-125645000D01*
X140891620Y-125645000D01*
X140620177Y-125698994D01*
X140364483Y-125804905D01*
X140134365Y-125958665D01*
X139938665Y-126154365D01*
X139784905Y-126384483D01*
X139760000Y-126444610D01*
X139735095Y-126384483D01*
X139581335Y-126154365D01*
X139385635Y-125958665D01*
X139155517Y-125804905D01*
X138899823Y-125698994D01*
X138628380Y-125645000D01*
X138351620Y-125645000D01*
X138080177Y-125698994D01*
X137824483Y-125804905D01*
X137594365Y-125958665D01*
X137398665Y-126154365D01*
X137244905Y-126384483D01*
X137220000Y-126444610D01*
X137195095Y-126384483D01*
X137041335Y-126154365D01*
X136845635Y-125958665D01*
X136615517Y-125804905D01*
X136555390Y-125780000D01*
X136615517Y-125755095D01*
X136845635Y-125601335D01*
X137041335Y-125405635D01*
X137195095Y-125175517D01*
X137301006Y-124919823D01*
X137355000Y-124648380D01*
X137355000Y-124371620D01*
X137328658Y-124239187D01*
X147764500Y-124239187D01*
X147764500Y-124426813D01*
X147801104Y-124610834D01*
X147872905Y-124784178D01*
X147977145Y-124940184D01*
X148109816Y-125072855D01*
X148265822Y-125177095D01*
X148439166Y-125248896D01*
X148623187Y-125285500D01*
X148810813Y-125285500D01*
X148994834Y-125248896D01*
X149168178Y-125177095D01*
X149324184Y-125072855D01*
X149456855Y-124940184D01*
X149561095Y-124784178D01*
X149632896Y-124610834D01*
X149669500Y-124426813D01*
X149669500Y-124239187D01*
X149632896Y-124055166D01*
X149561095Y-123881822D01*
X149456855Y-123725816D01*
X149335226Y-123604187D01*
X150812500Y-123604187D01*
X150812500Y-123791813D01*
X150849104Y-123975834D01*
X150920905Y-124149178D01*
X151025145Y-124305184D01*
X151157816Y-124437855D01*
X151313822Y-124542095D01*
X151487166Y-124613896D01*
X151671187Y-124650500D01*
X151858813Y-124650500D01*
X152042834Y-124613896D01*
X152216178Y-124542095D01*
X152372184Y-124437855D01*
X152504855Y-124305184D01*
X152609095Y-124149178D01*
X152680896Y-123975834D01*
X152717500Y-123791813D01*
X152717500Y-123604187D01*
X152680896Y-123420166D01*
X152609095Y-123246822D01*
X152504855Y-123090816D01*
X152372184Y-122958145D01*
X152216178Y-122853905D01*
X152042834Y-122782104D01*
X151858813Y-122745500D01*
X151671187Y-122745500D01*
X151487166Y-122782104D01*
X151313822Y-122853905D01*
X151157816Y-122958145D01*
X151025145Y-123090816D01*
X150920905Y-123246822D01*
X150849104Y-123420166D01*
X150812500Y-123604187D01*
X149335226Y-123604187D01*
X149324184Y-123593145D01*
X149168178Y-123488905D01*
X148994834Y-123417104D01*
X148810813Y-123380500D01*
X148623187Y-123380500D01*
X148439166Y-123417104D01*
X148265822Y-123488905D01*
X148109816Y-123593145D01*
X147977145Y-123725816D01*
X147872905Y-123881822D01*
X147801104Y-124055166D01*
X147764500Y-124239187D01*
X137328658Y-124239187D01*
X137301006Y-124100177D01*
X137195095Y-123844483D01*
X137041335Y-123614365D01*
X136845635Y-123418665D01*
X136615517Y-123264905D01*
X136555390Y-123240000D01*
X136615517Y-123215095D01*
X136845635Y-123061335D01*
X137041335Y-122865635D01*
X137195095Y-122635517D01*
X137301006Y-122379823D01*
X137355000Y-122108380D01*
X137355000Y-121831620D01*
X137301006Y-121560177D01*
X137195095Y-121304483D01*
X137041335Y-121074365D01*
X136845635Y-120878665D01*
X136615517Y-120724905D01*
X136561122Y-120702374D01*
X136673724Y-120642187D01*
X136697980Y-120556187D01*
X151066500Y-120556187D01*
X151066500Y-120743813D01*
X151103104Y-120927834D01*
X151174905Y-121101178D01*
X151279145Y-121257184D01*
X151411816Y-121389855D01*
X151567822Y-121494095D01*
X151741166Y-121565896D01*
X151925187Y-121602500D01*
X152112813Y-121602500D01*
X152265206Y-121572187D01*
X153225500Y-121572187D01*
X153225500Y-121759813D01*
X153262104Y-121943834D01*
X153333905Y-122117178D01*
X153438145Y-122273184D01*
X153570816Y-122405855D01*
X153726822Y-122510095D01*
X153900166Y-122581896D01*
X154084187Y-122618500D01*
X154271813Y-122618500D01*
X154455834Y-122581896D01*
X154615620Y-122515711D01*
X154708145Y-122654184D01*
X154840816Y-122786855D01*
X154889108Y-122819123D01*
X154857905Y-122865822D01*
X154809565Y-122982526D01*
X154785184Y-122958145D01*
X154629178Y-122853905D01*
X154455834Y-122782104D01*
X154271813Y-122745500D01*
X154084187Y-122745500D01*
X153900166Y-122782104D01*
X153726822Y-122853905D01*
X153570816Y-122958145D01*
X153438145Y-123090816D01*
X153333905Y-123246822D01*
X153262104Y-123420166D01*
X153225500Y-123604187D01*
X153225500Y-123791813D01*
X153262104Y-123975834D01*
X153333905Y-124149178D01*
X153438145Y-124305184D01*
X153570816Y-124437855D01*
X153726822Y-124542095D01*
X153900166Y-124613896D01*
X154084187Y-124650500D01*
X154271813Y-124650500D01*
X154455834Y-124613896D01*
X154629178Y-124542095D01*
X154785184Y-124437855D01*
X154917855Y-124305184D01*
X155022095Y-124149178D01*
X155070435Y-124032474D01*
X155094816Y-124056855D01*
X155250822Y-124161095D01*
X155424166Y-124232896D01*
X155608187Y-124269500D01*
X155795813Y-124269500D01*
X155979834Y-124232896D01*
X156153178Y-124161095D01*
X156309184Y-124056855D01*
X156441855Y-123924184D01*
X156546095Y-123768178D01*
X156617896Y-123594834D01*
X156654500Y-123410813D01*
X156654500Y-123223187D01*
X156617896Y-123039166D01*
X156546095Y-122865822D01*
X156441855Y-122709816D01*
X156309184Y-122577145D01*
X156260892Y-122544877D01*
X156292095Y-122498178D01*
X156363896Y-122324834D01*
X156399928Y-122143687D01*
X168275000Y-122143687D01*
X168275000Y-122331313D01*
X168311604Y-122515334D01*
X168383405Y-122688678D01*
X168487645Y-122844684D01*
X168620316Y-122977355D01*
X168776322Y-123081595D01*
X168949666Y-123153396D01*
X169133687Y-123190000D01*
X169321313Y-123190000D01*
X169505334Y-123153396D01*
X169678678Y-123081595D01*
X169834684Y-122977355D01*
X169967355Y-122844684D01*
X170071595Y-122688678D01*
X170105302Y-122607302D01*
X170186678Y-122573595D01*
X170342684Y-122469355D01*
X170475355Y-122336684D01*
X170579595Y-122180678D01*
X170651396Y-122007334D01*
X170688000Y-121823313D01*
X170688000Y-121635687D01*
X170683303Y-121612072D01*
X170770095Y-121482178D01*
X170841896Y-121308834D01*
X170878500Y-121124813D01*
X170878500Y-120937187D01*
X170841896Y-120753166D01*
X170770095Y-120579822D01*
X170665855Y-120423816D01*
X170533184Y-120291145D01*
X170377178Y-120186905D01*
X170203834Y-120115104D01*
X170019813Y-120078500D01*
X169832187Y-120078500D01*
X169648166Y-120115104D01*
X169474822Y-120186905D01*
X169318816Y-120291145D01*
X169186145Y-120423816D01*
X169081905Y-120579822D01*
X169010104Y-120753166D01*
X168973500Y-120937187D01*
X168973500Y-121124813D01*
X168978197Y-121148428D01*
X168891405Y-121278322D01*
X168857698Y-121359698D01*
X168776322Y-121393405D01*
X168620316Y-121497645D01*
X168487645Y-121630316D01*
X168383405Y-121786322D01*
X168311604Y-121959666D01*
X168275000Y-122143687D01*
X156399928Y-122143687D01*
X156400500Y-122140813D01*
X156400500Y-121953187D01*
X156363896Y-121769166D01*
X156292095Y-121595822D01*
X156187855Y-121439816D01*
X156055184Y-121307145D01*
X155899178Y-121202905D01*
X155725834Y-121131104D01*
X155541813Y-121094500D01*
X155354187Y-121094500D01*
X155170166Y-121131104D01*
X155010380Y-121197289D01*
X154917855Y-121058816D01*
X154785184Y-120926145D01*
X154629178Y-120821905D01*
X154455834Y-120750104D01*
X154271813Y-120713500D01*
X154084187Y-120713500D01*
X153900166Y-120750104D01*
X153726822Y-120821905D01*
X153570816Y-120926145D01*
X153438145Y-121058816D01*
X153333905Y-121214822D01*
X153262104Y-121388166D01*
X153225500Y-121572187D01*
X152265206Y-121572187D01*
X152296834Y-121565896D01*
X152470178Y-121494095D01*
X152626184Y-121389855D01*
X152758855Y-121257184D01*
X152863095Y-121101178D01*
X152934896Y-120927834D01*
X152971500Y-120743813D01*
X152971500Y-120683187D01*
X156273500Y-120683187D01*
X156273500Y-120870813D01*
X156310104Y-121054834D01*
X156381905Y-121228178D01*
X156486145Y-121384184D01*
X156618816Y-121516855D01*
X156774822Y-121621095D01*
X156948166Y-121692896D01*
X157132187Y-121729500D01*
X157319813Y-121729500D01*
X157503834Y-121692896D01*
X157677178Y-121621095D01*
X157833184Y-121516855D01*
X157965855Y-121384184D01*
X158070095Y-121228178D01*
X158141896Y-121054834D01*
X158178500Y-120870813D01*
X158178500Y-120840500D01*
X158208813Y-120840500D01*
X158392834Y-120803896D01*
X158566178Y-120732095D01*
X158722184Y-120627855D01*
X158854855Y-120495184D01*
X158959095Y-120339178D01*
X159030896Y-120165834D01*
X159067500Y-119981813D01*
X159067500Y-119794187D01*
X159030896Y-119610166D01*
X158985886Y-119501501D01*
X172640023Y-119501501D01*
X172681104Y-119775195D01*
X172774790Y-120035617D01*
X172837813Y-120153524D01*
X173078722Y-120221473D01*
X173870395Y-119429800D01*
X174229605Y-119429800D01*
X175021278Y-120221473D01*
X175262187Y-120153524D01*
X175380087Y-119903132D01*
X175446872Y-119634550D01*
X175459977Y-119358099D01*
X175418896Y-119084405D01*
X175325210Y-118823983D01*
X175262187Y-118706076D01*
X175021278Y-118638127D01*
X174229605Y-119429800D01*
X173870395Y-119429800D01*
X173078722Y-118638127D01*
X172837813Y-118706076D01*
X172719913Y-118956468D01*
X172653128Y-119225050D01*
X172640023Y-119501501D01*
X158985886Y-119501501D01*
X158959095Y-119436822D01*
X158854855Y-119280816D01*
X158722184Y-119148145D01*
X158566178Y-119043905D01*
X158392834Y-118972104D01*
X158208813Y-118935500D01*
X158021187Y-118935500D01*
X157837166Y-118972104D01*
X157663822Y-119043905D01*
X157507816Y-119148145D01*
X157375145Y-119280816D01*
X157270905Y-119436822D01*
X157199104Y-119610166D01*
X157162500Y-119794187D01*
X157162500Y-119824500D01*
X157132187Y-119824500D01*
X156948166Y-119861104D01*
X156774822Y-119932905D01*
X156618816Y-120037145D01*
X156486145Y-120169816D01*
X156381905Y-120325822D01*
X156310104Y-120499166D01*
X156273500Y-120683187D01*
X152971500Y-120683187D01*
X152971500Y-120556187D01*
X152934896Y-120372166D01*
X152863095Y-120198822D01*
X152758855Y-120042816D01*
X152626184Y-119910145D01*
X152470178Y-119805905D01*
X152296834Y-119734104D01*
X152112813Y-119697500D01*
X151925187Y-119697500D01*
X151741166Y-119734104D01*
X151567822Y-119805905D01*
X151411816Y-119910145D01*
X151279145Y-120042816D01*
X151174905Y-120198822D01*
X151103104Y-120372166D01*
X151066500Y-120556187D01*
X136697980Y-120556187D01*
X136741673Y-120401278D01*
X135950000Y-119609605D01*
X135158327Y-120401278D01*
X135226276Y-120642187D01*
X135346976Y-120699020D01*
X135284483Y-120724905D01*
X135054365Y-120878665D01*
X134858665Y-121074365D01*
X134704905Y-121304483D01*
X134598994Y-121560177D01*
X134545000Y-121831620D01*
X133635000Y-121831620D01*
X133635000Y-119501701D01*
X134540023Y-119501701D01*
X134581104Y-119775395D01*
X134674790Y-120035817D01*
X134737813Y-120153724D01*
X134978722Y-120221673D01*
X135770395Y-119430000D01*
X136129605Y-119430000D01*
X136921278Y-120221673D01*
X137162187Y-120153724D01*
X137280087Y-119903332D01*
X137346872Y-119634750D01*
X137359977Y-119358299D01*
X137349154Y-119286187D01*
X140144500Y-119286187D01*
X140144500Y-119473813D01*
X140181104Y-119657834D01*
X140252905Y-119831178D01*
X140357145Y-119987184D01*
X140489816Y-120119855D01*
X140645822Y-120224095D01*
X140819166Y-120295896D01*
X141003187Y-120332500D01*
X141190813Y-120332500D01*
X141374834Y-120295896D01*
X141548178Y-120224095D01*
X141704184Y-120119855D01*
X141836855Y-119987184D01*
X141941095Y-119831178D01*
X142012896Y-119657834D01*
X142049500Y-119473813D01*
X142049500Y-119286187D01*
X142012896Y-119102166D01*
X141941095Y-118928822D01*
X141836855Y-118772816D01*
X141704184Y-118640145D01*
X141548178Y-118535905D01*
X141374834Y-118464104D01*
X141190813Y-118427500D01*
X141003187Y-118427500D01*
X140819166Y-118464104D01*
X140645822Y-118535905D01*
X140489816Y-118640145D01*
X140357145Y-118772816D01*
X140252905Y-118928822D01*
X140181104Y-119102166D01*
X140144500Y-119286187D01*
X137349154Y-119286187D01*
X137318896Y-119084605D01*
X137225210Y-118824183D01*
X137162187Y-118706276D01*
X136921278Y-118638327D01*
X136129605Y-119430000D01*
X135770395Y-119430000D01*
X134978722Y-118638327D01*
X134737813Y-118706276D01*
X134619913Y-118956668D01*
X134553128Y-119225250D01*
X134540023Y-119501701D01*
X133635000Y-119501701D01*
X133635000Y-116751620D01*
X134545000Y-116751620D01*
X134545000Y-117028380D01*
X134598994Y-117299823D01*
X134704905Y-117555517D01*
X134858665Y-117785635D01*
X135054365Y-117981335D01*
X135284483Y-118135095D01*
X135338878Y-118157626D01*
X135226276Y-118217813D01*
X135158327Y-118458722D01*
X135950000Y-119250395D01*
X136741673Y-118458722D01*
X136673724Y-118217813D01*
X136553024Y-118160980D01*
X136615517Y-118135095D01*
X136845635Y-117981335D01*
X137041335Y-117785635D01*
X137195095Y-117555517D01*
X137267304Y-117381187D01*
X145351500Y-117381187D01*
X145351500Y-117568813D01*
X145388104Y-117752834D01*
X145459905Y-117926178D01*
X145564145Y-118082184D01*
X145696816Y-118214855D01*
X145852822Y-118319095D01*
X146026166Y-118390896D01*
X146210187Y-118427500D01*
X146397813Y-118427500D01*
X146581834Y-118390896D01*
X146755178Y-118319095D01*
X146911184Y-118214855D01*
X147043855Y-118082184D01*
X147148095Y-117926178D01*
X147216021Y-117762187D01*
X150939500Y-117762187D01*
X150939500Y-117949813D01*
X150976104Y-118133834D01*
X151047905Y-118307178D01*
X151152145Y-118463184D01*
X151284816Y-118595855D01*
X151440822Y-118700095D01*
X151614166Y-118771896D01*
X151798187Y-118808500D01*
X151985813Y-118808500D01*
X152013608Y-118802971D01*
X152041145Y-118844184D01*
X152173816Y-118976855D01*
X152329822Y-119081095D01*
X152503166Y-119152896D01*
X152687187Y-119189500D01*
X152874813Y-119189500D01*
X153058834Y-119152896D01*
X153232178Y-119081095D01*
X153289000Y-119043128D01*
X153345822Y-119081095D01*
X153519166Y-119152896D01*
X153703187Y-119189500D01*
X153890813Y-119189500D01*
X154074834Y-119152896D01*
X154248178Y-119081095D01*
X154404184Y-118976855D01*
X154536855Y-118844184D01*
X154641095Y-118688178D01*
X154712896Y-118514834D01*
X154736297Y-118397187D01*
X159575500Y-118397187D01*
X159575500Y-118584813D01*
X159612104Y-118768834D01*
X159683905Y-118942178D01*
X159788145Y-119098184D01*
X159920816Y-119230855D01*
X160076822Y-119335095D01*
X160250166Y-119406896D01*
X160434187Y-119443500D01*
X160621813Y-119443500D01*
X160805834Y-119406896D01*
X160979178Y-119335095D01*
X161135184Y-119230855D01*
X161267855Y-119098184D01*
X161317045Y-119024566D01*
X161487178Y-118954095D01*
X161643184Y-118849855D01*
X161775855Y-118717184D01*
X161880095Y-118561178D01*
X161951896Y-118387834D01*
X161988500Y-118203813D01*
X161988500Y-118016187D01*
X161951896Y-117832166D01*
X161880095Y-117658822D01*
X161775855Y-117502816D01*
X161654226Y-117381187D01*
X164528500Y-117381187D01*
X164528500Y-117568813D01*
X164565104Y-117752834D01*
X164636905Y-117926178D01*
X164741145Y-118082184D01*
X164873816Y-118214855D01*
X165029822Y-118319095D01*
X165203166Y-118390896D01*
X165387187Y-118427500D01*
X165574813Y-118427500D01*
X165758834Y-118390896D01*
X165932178Y-118319095D01*
X166088184Y-118214855D01*
X166220855Y-118082184D01*
X166325095Y-117926178D01*
X166396896Y-117752834D01*
X166433500Y-117568813D01*
X166433500Y-117381187D01*
X168084500Y-117381187D01*
X168084500Y-117568813D01*
X168121104Y-117752834D01*
X168192905Y-117926178D01*
X168297145Y-118082184D01*
X168429816Y-118214855D01*
X168585822Y-118319095D01*
X168759166Y-118390896D01*
X168943187Y-118427500D01*
X169130813Y-118427500D01*
X169314834Y-118390896D01*
X169488178Y-118319095D01*
X169644184Y-118214855D01*
X169776855Y-118082184D01*
X169881095Y-117926178D01*
X169952896Y-117752834D01*
X169989500Y-117568813D01*
X169989500Y-117381187D01*
X169952896Y-117197166D01*
X169881095Y-117023822D01*
X169776855Y-116867816D01*
X169660459Y-116751420D01*
X170105000Y-116751420D01*
X170105000Y-117028180D01*
X170158994Y-117299623D01*
X170264905Y-117555317D01*
X170418665Y-117785435D01*
X170614365Y-117981135D01*
X170844483Y-118134895D01*
X171100177Y-118240806D01*
X171371620Y-118294800D01*
X171648380Y-118294800D01*
X171919823Y-118240806D01*
X172175517Y-118134895D01*
X172405635Y-117981135D01*
X172601335Y-117785435D01*
X172755095Y-117555317D01*
X172780000Y-117495190D01*
X172804905Y-117555317D01*
X172958665Y-117785435D01*
X173154365Y-117981135D01*
X173384483Y-118134895D01*
X173438878Y-118157426D01*
X173326276Y-118217613D01*
X173258327Y-118458522D01*
X174050000Y-119250195D01*
X174841673Y-118458522D01*
X174773724Y-118217613D01*
X174653024Y-118160780D01*
X174715517Y-118134895D01*
X174945635Y-117981135D01*
X175141335Y-117785435D01*
X175295095Y-117555317D01*
X175401006Y-117299623D01*
X175455000Y-117028180D01*
X175455000Y-116751420D01*
X175401006Y-116479977D01*
X175295095Y-116224283D01*
X175141335Y-115994165D01*
X174945635Y-115798465D01*
X174715517Y-115644705D01*
X174459823Y-115538794D01*
X174188380Y-115484800D01*
X173911620Y-115484800D01*
X173640177Y-115538794D01*
X173384483Y-115644705D01*
X173154365Y-115798465D01*
X172958665Y-115994165D01*
X172804905Y-116224283D01*
X172780000Y-116284410D01*
X172755095Y-116224283D01*
X172601335Y-115994165D01*
X172405635Y-115798465D01*
X172175517Y-115644705D01*
X171919823Y-115538794D01*
X171648380Y-115484800D01*
X171371620Y-115484800D01*
X171100177Y-115538794D01*
X170844483Y-115644705D01*
X170614365Y-115798465D01*
X170418665Y-115994165D01*
X170264905Y-116224283D01*
X170158994Y-116479977D01*
X170105000Y-116751420D01*
X169660459Y-116751420D01*
X169644184Y-116735145D01*
X169488178Y-116630905D01*
X169314834Y-116559104D01*
X169130813Y-116522500D01*
X168943187Y-116522500D01*
X168759166Y-116559104D01*
X168585822Y-116630905D01*
X168429816Y-116735145D01*
X168297145Y-116867816D01*
X168192905Y-117023822D01*
X168121104Y-117197166D01*
X168084500Y-117381187D01*
X166433500Y-117381187D01*
X166396896Y-117197166D01*
X166325095Y-117023822D01*
X166220855Y-116867816D01*
X166088184Y-116735145D01*
X165932178Y-116630905D01*
X165758834Y-116559104D01*
X165574813Y-116522500D01*
X165387187Y-116522500D01*
X165203166Y-116559104D01*
X165029822Y-116630905D01*
X164873816Y-116735145D01*
X164741145Y-116867816D01*
X164636905Y-117023822D01*
X164565104Y-117197166D01*
X164528500Y-117381187D01*
X161654226Y-117381187D01*
X161643184Y-117370145D01*
X161487178Y-117265905D01*
X161313834Y-117194104D01*
X161129813Y-117157500D01*
X160942187Y-117157500D01*
X160758166Y-117194104D01*
X160584822Y-117265905D01*
X160428816Y-117370145D01*
X160296145Y-117502816D01*
X160246955Y-117576434D01*
X160076822Y-117646905D01*
X159920816Y-117751145D01*
X159788145Y-117883816D01*
X159683905Y-118039822D01*
X159612104Y-118213166D01*
X159575500Y-118397187D01*
X154736297Y-118397187D01*
X154749500Y-118330813D01*
X154749500Y-118143187D01*
X154712896Y-117959166D01*
X154641095Y-117785822D01*
X154536855Y-117629816D01*
X154404184Y-117497145D01*
X154248178Y-117392905D01*
X154074834Y-117321104D01*
X153890813Y-117284500D01*
X153703187Y-117284500D01*
X153519166Y-117321104D01*
X153345822Y-117392905D01*
X153289000Y-117430872D01*
X153232178Y-117392905D01*
X153058834Y-117321104D01*
X152874813Y-117284500D01*
X152687187Y-117284500D01*
X152659392Y-117290029D01*
X152631855Y-117248816D01*
X152499184Y-117116145D01*
X152343178Y-117011905D01*
X152169834Y-116940104D01*
X151985813Y-116903500D01*
X151798187Y-116903500D01*
X151614166Y-116940104D01*
X151440822Y-117011905D01*
X151284816Y-117116145D01*
X151152145Y-117248816D01*
X151047905Y-117404822D01*
X150976104Y-117578166D01*
X150939500Y-117762187D01*
X147216021Y-117762187D01*
X147219896Y-117752834D01*
X147256500Y-117568813D01*
X147256500Y-117381187D01*
X147219896Y-117197166D01*
X147148095Y-117023822D01*
X147043855Y-116867816D01*
X146911184Y-116735145D01*
X146755178Y-116630905D01*
X146581834Y-116559104D01*
X146397813Y-116522500D01*
X146210187Y-116522500D01*
X146026166Y-116559104D01*
X145852822Y-116630905D01*
X145696816Y-116735145D01*
X145564145Y-116867816D01*
X145459905Y-117023822D01*
X145388104Y-117197166D01*
X145351500Y-117381187D01*
X137267304Y-117381187D01*
X137301006Y-117299823D01*
X137355000Y-117028380D01*
X137355000Y-116751620D01*
X137301006Y-116480177D01*
X137195095Y-116224483D01*
X137041335Y-115994365D01*
X136845635Y-115798665D01*
X136615517Y-115644905D01*
X136359823Y-115538994D01*
X136088380Y-115485000D01*
X135811620Y-115485000D01*
X135540177Y-115538994D01*
X135284483Y-115644905D01*
X135054365Y-115798665D01*
X134858665Y-115994365D01*
X134704905Y-116224483D01*
X134598994Y-116480177D01*
X134545000Y-116751620D01*
X133635000Y-116751620D01*
X133635000Y-114407852D01*
X133891753Y-114407852D01*
X134020076Y-114699871D01*
X134355695Y-114867723D01*
X134717611Y-114966874D01*
X135091916Y-114993514D01*
X135464227Y-114946618D01*
X135566497Y-114912539D01*
X152313466Y-114912539D01*
X152326145Y-115107519D01*
X152499174Y-115180075D01*
X152683034Y-115217482D01*
X152870658Y-115218300D01*
X153054837Y-115182499D01*
X153228493Y-115111455D01*
X153235855Y-115107519D01*
X153246573Y-114942687D01*
X154775000Y-114942687D01*
X154775000Y-115130313D01*
X154811604Y-115314334D01*
X154883405Y-115487678D01*
X154987645Y-115643684D01*
X155120316Y-115776355D01*
X155276322Y-115880595D01*
X155449666Y-115952396D01*
X155633687Y-115989000D01*
X155821313Y-115989000D01*
X156005334Y-115952396D01*
X156178678Y-115880595D01*
X156334684Y-115776355D01*
X156467355Y-115643684D01*
X156571595Y-115487678D01*
X156643396Y-115314334D01*
X156680000Y-115130313D01*
X156680000Y-114942687D01*
X158204000Y-114942687D01*
X158204000Y-115130313D01*
X158240604Y-115314334D01*
X158312405Y-115487678D01*
X158416645Y-115643684D01*
X158549316Y-115776355D01*
X158705322Y-115880595D01*
X158878666Y-115952396D01*
X159062687Y-115989000D01*
X159250313Y-115989000D01*
X159434334Y-115952396D01*
X159607678Y-115880595D01*
X159763684Y-115776355D01*
X159896355Y-115643684D01*
X160000595Y-115487678D01*
X160072396Y-115314334D01*
X160109000Y-115130313D01*
X160109000Y-114942687D01*
X160072396Y-114758666D01*
X160000595Y-114585322D01*
X159896355Y-114429316D01*
X159874891Y-114407852D01*
X173811753Y-114407852D01*
X173940076Y-114699871D01*
X174275695Y-114867723D01*
X174637611Y-114966874D01*
X175011916Y-114993514D01*
X175384227Y-114946618D01*
X175740235Y-114827988D01*
X175979924Y-114699871D01*
X176108247Y-114407852D01*
X174960000Y-113259605D01*
X173811753Y-114407852D01*
X159874891Y-114407852D01*
X159763684Y-114296645D01*
X159607678Y-114192405D01*
X159434334Y-114120604D01*
X159250313Y-114084000D01*
X159062687Y-114084000D01*
X158878666Y-114120604D01*
X158705322Y-114192405D01*
X158549316Y-114296645D01*
X158416645Y-114429316D01*
X158312405Y-114585322D01*
X158240604Y-114758666D01*
X158204000Y-114942687D01*
X156680000Y-114942687D01*
X156643396Y-114758666D01*
X156571595Y-114585322D01*
X156467355Y-114429316D01*
X156334684Y-114296645D01*
X156178678Y-114192405D01*
X156005334Y-114120604D01*
X155821313Y-114084000D01*
X155633687Y-114084000D01*
X155449666Y-114120604D01*
X155276322Y-114192405D01*
X155120316Y-114296645D01*
X154987645Y-114429316D01*
X154883405Y-114585322D01*
X154811604Y-114758666D01*
X154775000Y-114942687D01*
X153246573Y-114942687D01*
X153248534Y-114912539D01*
X152781000Y-114445005D01*
X152313466Y-114912539D01*
X135566497Y-114912539D01*
X135820235Y-114827988D01*
X136059924Y-114699871D01*
X136188247Y-114407852D01*
X135040000Y-113259605D01*
X133891753Y-114407852D01*
X133635000Y-114407852D01*
X133635000Y-114194346D01*
X133712148Y-114228247D01*
X134860395Y-113080000D01*
X135219605Y-113080000D01*
X136367852Y-114228247D01*
X136659871Y-114099924D01*
X136827723Y-113764305D01*
X136926874Y-113402389D01*
X136953514Y-113028084D01*
X136928697Y-112831058D01*
X151828100Y-112831058D01*
X151863901Y-113015237D01*
X151902566Y-113109748D01*
X151866325Y-113196174D01*
X151828918Y-113380034D01*
X151828100Y-113567658D01*
X151863901Y-113751837D01*
X151913086Y-113872061D01*
X151866325Y-113983574D01*
X151828918Y-114167434D01*
X151828100Y-114355058D01*
X151863901Y-114539237D01*
X151934945Y-114712893D01*
X151938881Y-114720255D01*
X152133861Y-114732934D01*
X152481522Y-114385273D01*
X152499174Y-114392675D01*
X152683034Y-114430082D01*
X152870658Y-114430900D01*
X153054837Y-114395099D01*
X153080007Y-114384802D01*
X153428139Y-114732934D01*
X153623119Y-114720255D01*
X153695675Y-114547226D01*
X153733082Y-114363366D01*
X153733900Y-114175742D01*
X153698099Y-113991563D01*
X153648914Y-113871339D01*
X153695675Y-113759826D01*
X153733082Y-113575966D01*
X153733900Y-113388342D01*
X153698099Y-113204163D01*
X153668543Y-113131916D01*
X173046486Y-113131916D01*
X173093382Y-113504227D01*
X173212012Y-113860235D01*
X173340129Y-114099924D01*
X173632148Y-114228247D01*
X174780395Y-113080000D01*
X173632148Y-111931753D01*
X173340129Y-112060076D01*
X173172277Y-112395695D01*
X173073126Y-112757611D01*
X173046486Y-113131916D01*
X153668543Y-113131916D01*
X153659434Y-113109652D01*
X153695675Y-113023226D01*
X153733082Y-112839366D01*
X153733900Y-112651742D01*
X153698099Y-112467563D01*
X153627055Y-112293907D01*
X153623119Y-112286545D01*
X153428139Y-112273866D01*
X153116270Y-112585735D01*
X153062826Y-112563325D01*
X152878966Y-112525918D01*
X152817147Y-112525648D01*
X153248534Y-112094261D01*
X153235855Y-111899281D01*
X153062826Y-111826725D01*
X152878966Y-111789318D01*
X152691342Y-111788500D01*
X152507163Y-111824301D01*
X152333507Y-111895345D01*
X152326145Y-111899281D01*
X152313466Y-112094261D01*
X152744537Y-112525332D01*
X152691342Y-112525100D01*
X152507163Y-112560901D01*
X152445942Y-112585947D01*
X152133861Y-112273866D01*
X151938881Y-112286545D01*
X151866325Y-112459574D01*
X151828918Y-112643434D01*
X151828100Y-112831058D01*
X136928697Y-112831058D01*
X136906618Y-112655773D01*
X136787988Y-112299765D01*
X136659871Y-112060076D01*
X136367852Y-111931753D01*
X135219605Y-113080000D01*
X134860395Y-113080000D01*
X133712148Y-111931753D01*
X133635000Y-111965654D01*
X133635000Y-111752148D01*
X133891753Y-111752148D01*
X135040000Y-112900395D01*
X136188247Y-111752148D01*
X136094665Y-111539187D01*
X139001500Y-111539187D01*
X139001500Y-111726813D01*
X139038104Y-111910834D01*
X139109905Y-112084178D01*
X139214145Y-112240184D01*
X139346816Y-112372855D01*
X139502822Y-112477095D01*
X139676166Y-112548896D01*
X139860187Y-112585500D01*
X140047813Y-112585500D01*
X140231834Y-112548896D01*
X140359130Y-112496169D01*
X140362816Y-112499855D01*
X140518822Y-112604095D01*
X140692166Y-112675896D01*
X140876187Y-112712500D01*
X141063813Y-112712500D01*
X141247834Y-112675896D01*
X141421178Y-112604095D01*
X141577184Y-112499855D01*
X141709855Y-112367184D01*
X141814095Y-112211178D01*
X141885896Y-112037834D01*
X141922500Y-111853813D01*
X141922500Y-111752148D01*
X173811753Y-111752148D01*
X174960000Y-112900395D01*
X176108247Y-111752148D01*
X175979924Y-111460129D01*
X175644305Y-111292277D01*
X175282389Y-111193126D01*
X174908084Y-111166486D01*
X174535773Y-111213382D01*
X174179765Y-111332012D01*
X173940076Y-111460129D01*
X173811753Y-111752148D01*
X141922500Y-111752148D01*
X141922500Y-111666187D01*
X141885896Y-111482166D01*
X141814095Y-111308822D01*
X141709855Y-111152816D01*
X141577184Y-111020145D01*
X141421178Y-110915905D01*
X141247834Y-110844104D01*
X141063813Y-110807500D01*
X140876187Y-110807500D01*
X140692166Y-110844104D01*
X140564870Y-110896831D01*
X140561184Y-110893145D01*
X140405178Y-110788905D01*
X140231834Y-110717104D01*
X140047813Y-110680500D01*
X139860187Y-110680500D01*
X139676166Y-110717104D01*
X139502822Y-110788905D01*
X139346816Y-110893145D01*
X139214145Y-111025816D01*
X139109905Y-111181822D01*
X139038104Y-111355166D01*
X139001500Y-111539187D01*
X136094665Y-111539187D01*
X136059924Y-111460129D01*
X135724305Y-111292277D01*
X135362389Y-111193126D01*
X134988084Y-111166486D01*
X134615773Y-111213382D01*
X134259765Y-111332012D01*
X134020076Y-111460129D01*
X133891753Y-111752148D01*
X133635000Y-111752148D01*
X133635000Y-110142187D01*
X137122000Y-110142187D01*
X137122000Y-110329813D01*
X137158604Y-110513834D01*
X137230405Y-110687178D01*
X137334645Y-110843184D01*
X137467316Y-110975855D01*
X137623322Y-111080095D01*
X137796666Y-111151896D01*
X137980687Y-111188500D01*
X138168313Y-111188500D01*
X138352334Y-111151896D01*
X138525678Y-111080095D01*
X138681684Y-110975855D01*
X138814355Y-110843184D01*
X138918595Y-110687178D01*
X138990396Y-110513834D01*
X139027000Y-110329813D01*
X139027000Y-110142187D01*
X139001739Y-110015187D01*
X143065500Y-110015187D01*
X143065500Y-110202813D01*
X143102104Y-110386834D01*
X143173905Y-110560178D01*
X143278145Y-110716184D01*
X143410816Y-110848855D01*
X143566822Y-110953095D01*
X143740166Y-111024896D01*
X143924187Y-111061500D01*
X144111813Y-111061500D01*
X144295834Y-111024896D01*
X144469178Y-110953095D01*
X144625184Y-110848855D01*
X144757855Y-110716184D01*
X144862095Y-110560178D01*
X144933896Y-110386834D01*
X144957297Y-110269187D01*
X145732500Y-110269187D01*
X145732500Y-110456813D01*
X145769104Y-110640834D01*
X145840905Y-110814178D01*
X145945145Y-110970184D01*
X146077816Y-111102855D01*
X146233822Y-111207095D01*
X146407166Y-111278896D01*
X146591187Y-111315500D01*
X146778813Y-111315500D01*
X146962834Y-111278896D01*
X147136178Y-111207095D01*
X147292184Y-111102855D01*
X147424855Y-110970184D01*
X147529095Y-110814178D01*
X147600896Y-110640834D01*
X147637500Y-110456813D01*
X147637500Y-110269187D01*
X147600896Y-110085166D01*
X147529095Y-109911822D01*
X147424855Y-109755816D01*
X147292184Y-109623145D01*
X147136178Y-109518905D01*
X146962834Y-109447104D01*
X146778813Y-109410500D01*
X146591187Y-109410500D01*
X146407166Y-109447104D01*
X146233822Y-109518905D01*
X146077816Y-109623145D01*
X145945145Y-109755816D01*
X145840905Y-109911822D01*
X145769104Y-110085166D01*
X145732500Y-110269187D01*
X144957297Y-110269187D01*
X144970500Y-110202813D01*
X144970500Y-110015187D01*
X144933896Y-109831166D01*
X144862095Y-109657822D01*
X144757855Y-109501816D01*
X144625184Y-109369145D01*
X144469178Y-109264905D01*
X144295834Y-109193104D01*
X144111813Y-109156500D01*
X143924187Y-109156500D01*
X143740166Y-109193104D01*
X143566822Y-109264905D01*
X143410816Y-109369145D01*
X143278145Y-109501816D01*
X143173905Y-109657822D01*
X143102104Y-109831166D01*
X143065500Y-110015187D01*
X139001739Y-110015187D01*
X138990396Y-109958166D01*
X138918595Y-109784822D01*
X138814355Y-109628816D01*
X138681684Y-109496145D01*
X138525678Y-109391905D01*
X138352334Y-109320104D01*
X138168313Y-109283500D01*
X137980687Y-109283500D01*
X137796666Y-109320104D01*
X137623322Y-109391905D01*
X137467316Y-109496145D01*
X137334645Y-109628816D01*
X137230405Y-109784822D01*
X137158604Y-109958166D01*
X137122000Y-110142187D01*
X133635000Y-110142187D01*
X133635000Y-108364187D01*
X152463500Y-108364187D01*
X152463500Y-108551813D01*
X152500104Y-108735834D01*
X152571905Y-108909178D01*
X152676145Y-109065184D01*
X152808816Y-109197855D01*
X152964822Y-109302095D01*
X153138166Y-109373896D01*
X153322187Y-109410500D01*
X153509813Y-109410500D01*
X153693834Y-109373896D01*
X153867178Y-109302095D01*
X154023184Y-109197855D01*
X154155855Y-109065184D01*
X154260095Y-108909178D01*
X154331896Y-108735834D01*
X154368500Y-108551813D01*
X154368500Y-108364187D01*
X154331896Y-108180166D01*
X154260095Y-108006822D01*
X154159444Y-107856187D01*
X161099500Y-107856187D01*
X161099500Y-108043813D01*
X161136104Y-108227834D01*
X161207905Y-108401178D01*
X161312145Y-108557184D01*
X161444816Y-108689855D01*
X161600822Y-108794095D01*
X161774166Y-108865896D01*
X161958187Y-108902500D01*
X162145813Y-108902500D01*
X162329834Y-108865896D01*
X162503178Y-108794095D01*
X162659184Y-108689855D01*
X162791855Y-108557184D01*
X162896095Y-108401178D01*
X162967896Y-108227834D01*
X163004500Y-108043813D01*
X163004500Y-107856187D01*
X162967896Y-107672166D01*
X162896095Y-107498822D01*
X162791855Y-107342816D01*
X162659184Y-107210145D01*
X162503178Y-107105905D01*
X162474889Y-107094187D01*
X170878500Y-107094187D01*
X170878500Y-107281813D01*
X170915104Y-107465834D01*
X170986905Y-107639178D01*
X171091145Y-107795184D01*
X171223816Y-107927855D01*
X171379822Y-108032095D01*
X171553166Y-108103896D01*
X171737187Y-108140500D01*
X171924813Y-108140500D01*
X172108834Y-108103896D01*
X172282178Y-108032095D01*
X172438184Y-107927855D01*
X172570855Y-107795184D01*
X172675095Y-107639178D01*
X172746896Y-107465834D01*
X172783500Y-107281813D01*
X172783500Y-107094187D01*
X172746896Y-106910166D01*
X172675095Y-106736822D01*
X172570855Y-106580816D01*
X172438184Y-106448145D01*
X172282178Y-106343905D01*
X172108834Y-106272104D01*
X171924813Y-106235500D01*
X171737187Y-106235500D01*
X171553166Y-106272104D01*
X171379822Y-106343905D01*
X171223816Y-106448145D01*
X171091145Y-106580816D01*
X170986905Y-106736822D01*
X170915104Y-106910166D01*
X170878500Y-107094187D01*
X162474889Y-107094187D01*
X162329834Y-107034104D01*
X162145813Y-106997500D01*
X161958187Y-106997500D01*
X161774166Y-107034104D01*
X161600822Y-107105905D01*
X161444816Y-107210145D01*
X161312145Y-107342816D01*
X161207905Y-107498822D01*
X161136104Y-107672166D01*
X161099500Y-107856187D01*
X154159444Y-107856187D01*
X154155855Y-107850816D01*
X154023184Y-107718145D01*
X153867178Y-107613905D01*
X153693834Y-107542104D01*
X153509813Y-107505500D01*
X153322187Y-107505500D01*
X153138166Y-107542104D01*
X152964822Y-107613905D01*
X152808816Y-107718145D01*
X152676145Y-107850816D01*
X152571905Y-108006822D01*
X152500104Y-108180166D01*
X152463500Y-108364187D01*
X133635000Y-108364187D01*
X133635000Y-105570187D01*
X138239500Y-105570187D01*
X138239500Y-105757813D01*
X138276104Y-105941834D01*
X138347905Y-106115178D01*
X138452145Y-106271184D01*
X138584816Y-106403855D01*
X138740822Y-106508095D01*
X138914166Y-106579896D01*
X139098187Y-106616500D01*
X139285813Y-106616500D01*
X139469834Y-106579896D01*
X139643178Y-106508095D01*
X139799184Y-106403855D01*
X139931855Y-106271184D01*
X140036095Y-106115178D01*
X140107896Y-105941834D01*
X140144500Y-105757813D01*
X140144500Y-105570187D01*
X142684500Y-105570187D01*
X142684500Y-105757813D01*
X142721104Y-105941834D01*
X142792905Y-106115178D01*
X142897145Y-106271184D01*
X143029816Y-106403855D01*
X143185822Y-106508095D01*
X143359166Y-106579896D01*
X143543187Y-106616500D01*
X143730813Y-106616500D01*
X143914834Y-106579896D01*
X144088178Y-106508095D01*
X144244184Y-106403855D01*
X144376855Y-106271184D01*
X144481095Y-106115178D01*
X144552896Y-105941834D01*
X144589500Y-105757813D01*
X144589500Y-105570187D01*
X144552896Y-105386166D01*
X144481095Y-105212822D01*
X144376855Y-105056816D01*
X144244184Y-104924145D01*
X144088178Y-104819905D01*
X143914834Y-104748104D01*
X143730813Y-104711500D01*
X143543187Y-104711500D01*
X143359166Y-104748104D01*
X143185822Y-104819905D01*
X143029816Y-104924145D01*
X142897145Y-105056816D01*
X142792905Y-105212822D01*
X142721104Y-105386166D01*
X142684500Y-105570187D01*
X140144500Y-105570187D01*
X140107896Y-105386166D01*
X140036095Y-105212822D01*
X139931855Y-105056816D01*
X139799184Y-104924145D01*
X139643178Y-104819905D01*
X139469834Y-104748104D01*
X139285813Y-104711500D01*
X139098187Y-104711500D01*
X138914166Y-104748104D01*
X138740822Y-104819905D01*
X138584816Y-104924145D01*
X138452145Y-105056816D01*
X138347905Y-105212822D01*
X138276104Y-105386166D01*
X138239500Y-105570187D01*
X133635000Y-105570187D01*
X133635000Y-104247852D01*
X133891753Y-104247852D01*
X134020076Y-104539871D01*
X134355695Y-104707723D01*
X134717611Y-104806874D01*
X135091916Y-104833514D01*
X135464227Y-104786618D01*
X135820235Y-104667988D01*
X136059924Y-104539871D01*
X136188247Y-104247852D01*
X135040000Y-103099605D01*
X133891753Y-104247852D01*
X133635000Y-104247852D01*
X133635000Y-104034346D01*
X133712148Y-104068247D01*
X134860395Y-102920000D01*
X135219605Y-102920000D01*
X136367852Y-104068247D01*
X136659871Y-103939924D01*
X136670242Y-103919187D01*
X144462500Y-103919187D01*
X144462500Y-104106813D01*
X144499104Y-104290834D01*
X144570905Y-104464178D01*
X144675145Y-104620184D01*
X144807816Y-104752855D01*
X144963822Y-104857095D01*
X145137166Y-104928896D01*
X145321187Y-104965500D01*
X145508813Y-104965500D01*
X145692834Y-104928896D01*
X145866178Y-104857095D01*
X146022184Y-104752855D01*
X146154855Y-104620184D01*
X146259095Y-104464178D01*
X146330896Y-104290834D01*
X146339445Y-104247852D01*
X173811753Y-104247852D01*
X173940076Y-104539871D01*
X174275695Y-104707723D01*
X174637611Y-104806874D01*
X175011916Y-104833514D01*
X175384227Y-104786618D01*
X175740235Y-104667988D01*
X175979924Y-104539871D01*
X176108247Y-104247852D01*
X174960000Y-103099605D01*
X173811753Y-104247852D01*
X146339445Y-104247852D01*
X146367500Y-104106813D01*
X146367500Y-103919187D01*
X146330896Y-103735166D01*
X146259095Y-103561822D01*
X146154855Y-103405816D01*
X146022184Y-103273145D01*
X145866178Y-103168905D01*
X145692834Y-103097104D01*
X145508813Y-103060500D01*
X145321187Y-103060500D01*
X145137166Y-103097104D01*
X144963822Y-103168905D01*
X144807816Y-103273145D01*
X144675145Y-103405816D01*
X144570905Y-103561822D01*
X144499104Y-103735166D01*
X144462500Y-103919187D01*
X136670242Y-103919187D01*
X136827723Y-103604305D01*
X136926874Y-103242389D01*
X136946124Y-102971916D01*
X173046486Y-102971916D01*
X173093382Y-103344227D01*
X173212012Y-103700235D01*
X173340129Y-103939924D01*
X173632148Y-104068247D01*
X174780395Y-102920000D01*
X173632148Y-101771753D01*
X173340129Y-101900076D01*
X173172277Y-102235695D01*
X173073126Y-102597611D01*
X173046486Y-102971916D01*
X136946124Y-102971916D01*
X136953514Y-102868084D01*
X136906618Y-102495773D01*
X136787988Y-102139765D01*
X136659871Y-101900076D01*
X136367852Y-101771753D01*
X135219605Y-102920000D01*
X134860395Y-102920000D01*
X133712148Y-101771753D01*
X133635000Y-101805654D01*
X133635000Y-101592148D01*
X133891753Y-101592148D01*
X135040000Y-102740395D01*
X136188247Y-101592148D01*
X136094665Y-101379187D01*
X140652500Y-101379187D01*
X140652500Y-101566813D01*
X140689104Y-101750834D01*
X140760905Y-101924178D01*
X140865145Y-102080184D01*
X140997816Y-102212855D01*
X141153822Y-102317095D01*
X141327166Y-102388896D01*
X141511187Y-102425500D01*
X141698813Y-102425500D01*
X141882834Y-102388896D01*
X142056178Y-102317095D01*
X142212184Y-102212855D01*
X142344855Y-102080184D01*
X142449095Y-101924178D01*
X142520896Y-101750834D01*
X142552460Y-101592148D01*
X173811753Y-101592148D01*
X174960000Y-102740395D01*
X176108247Y-101592148D01*
X175979924Y-101300129D01*
X175644305Y-101132277D01*
X175282389Y-101033126D01*
X174908084Y-101006486D01*
X174535773Y-101053382D01*
X174179765Y-101172012D01*
X173940076Y-101300129D01*
X173811753Y-101592148D01*
X142552460Y-101592148D01*
X142557500Y-101566813D01*
X142557500Y-101379187D01*
X142520896Y-101195166D01*
X142449095Y-101021822D01*
X142344855Y-100865816D01*
X142212184Y-100733145D01*
X142056178Y-100628905D01*
X141882834Y-100557104D01*
X141698813Y-100520500D01*
X141511187Y-100520500D01*
X141327166Y-100557104D01*
X141153822Y-100628905D01*
X140997816Y-100733145D01*
X140865145Y-100865816D01*
X140760905Y-101021822D01*
X140689104Y-101195166D01*
X140652500Y-101379187D01*
X136094665Y-101379187D01*
X136059924Y-101300129D01*
X135724305Y-101132277D01*
X135362389Y-101033126D01*
X134988084Y-101006486D01*
X134615773Y-101053382D01*
X134259765Y-101172012D01*
X134020076Y-101300129D01*
X133891753Y-101592148D01*
X133635000Y-101592148D01*
X133635000Y-98971620D01*
X134545000Y-98971620D01*
X134545000Y-99248380D01*
X134598994Y-99519823D01*
X134704905Y-99775517D01*
X134858665Y-100005635D01*
X135054365Y-100201335D01*
X135284483Y-100355095D01*
X135540177Y-100461006D01*
X135811620Y-100515000D01*
X136088380Y-100515000D01*
X136359823Y-100461006D01*
X136615517Y-100355095D01*
X136845635Y-100201335D01*
X137041335Y-100005635D01*
X137195095Y-99775517D01*
X137301006Y-99519823D01*
X137355000Y-99248380D01*
X137355000Y-98971620D01*
X137328658Y-98839187D01*
X139128500Y-98839187D01*
X139128500Y-99026813D01*
X139165104Y-99210834D01*
X139236905Y-99384178D01*
X139341145Y-99540184D01*
X139473816Y-99672855D01*
X139629822Y-99777095D01*
X139803166Y-99848896D01*
X139987187Y-99885500D01*
X140174813Y-99885500D01*
X140358834Y-99848896D01*
X140532178Y-99777095D01*
X140688184Y-99672855D01*
X140820855Y-99540184D01*
X140925095Y-99384178D01*
X140996896Y-99210834D01*
X141033500Y-99026813D01*
X141033500Y-98839187D01*
X140996896Y-98655166D01*
X140930711Y-98495380D01*
X141069184Y-98402855D01*
X141201855Y-98270184D01*
X141306095Y-98114178D01*
X141377896Y-97940834D01*
X141414500Y-97756813D01*
X141414500Y-97569187D01*
X141377896Y-97385166D01*
X141306095Y-97211822D01*
X141201855Y-97055816D01*
X141069184Y-96923145D01*
X140913178Y-96818905D01*
X140739834Y-96747104D01*
X140555813Y-96710500D01*
X140368187Y-96710500D01*
X140184166Y-96747104D01*
X140010822Y-96818905D01*
X139854816Y-96923145D01*
X139722145Y-97055816D01*
X139617905Y-97211822D01*
X139546104Y-97385166D01*
X139509500Y-97569187D01*
X139509500Y-97756813D01*
X139546104Y-97940834D01*
X139612289Y-98100620D01*
X139473816Y-98193145D01*
X139341145Y-98325816D01*
X139236905Y-98481822D01*
X139165104Y-98655166D01*
X139128500Y-98839187D01*
X137328658Y-98839187D01*
X137301006Y-98700177D01*
X137195095Y-98444483D01*
X137041335Y-98214365D01*
X136845635Y-98018665D01*
X136615517Y-97864905D01*
X136561122Y-97842374D01*
X136673724Y-97782187D01*
X136741673Y-97541278D01*
X135950000Y-96749605D01*
X135158327Y-97541278D01*
X135226276Y-97782187D01*
X135346976Y-97839020D01*
X135284483Y-97864905D01*
X135054365Y-98018665D01*
X134858665Y-98214365D01*
X134704905Y-98444483D01*
X134598994Y-98700177D01*
X134545000Y-98971620D01*
X133635000Y-98971620D01*
X133635000Y-96641701D01*
X134540023Y-96641701D01*
X134581104Y-96915395D01*
X134674790Y-97175817D01*
X134737813Y-97293724D01*
X134978722Y-97361673D01*
X135770395Y-96570000D01*
X136129605Y-96570000D01*
X136921278Y-97361673D01*
X137162187Y-97293724D01*
X137280087Y-97043332D01*
X137346872Y-96774750D01*
X137359977Y-96498299D01*
X137330091Y-96299187D01*
X144081500Y-96299187D01*
X144081500Y-96486813D01*
X144118104Y-96670834D01*
X144189905Y-96844178D01*
X144294145Y-97000184D01*
X144426816Y-97132855D01*
X144582822Y-97237095D01*
X144756166Y-97308896D01*
X144940187Y-97345500D01*
X145127813Y-97345500D01*
X145311834Y-97308896D01*
X145485178Y-97237095D01*
X145641184Y-97132855D01*
X145773855Y-97000184D01*
X145878095Y-96844178D01*
X145949896Y-96670834D01*
X145986500Y-96486813D01*
X145986500Y-96299187D01*
X145949896Y-96115166D01*
X145878095Y-95941822D01*
X145773855Y-95785816D01*
X145641184Y-95653145D01*
X145485178Y-95548905D01*
X145311834Y-95477104D01*
X145127813Y-95440500D01*
X144940187Y-95440500D01*
X144756166Y-95477104D01*
X144582822Y-95548905D01*
X144426816Y-95653145D01*
X144294145Y-95785816D01*
X144189905Y-95941822D01*
X144118104Y-96115166D01*
X144081500Y-96299187D01*
X137330091Y-96299187D01*
X137318896Y-96224605D01*
X137225210Y-95964183D01*
X137162187Y-95846276D01*
X136921278Y-95778327D01*
X136129605Y-96570000D01*
X135770395Y-96570000D01*
X134978722Y-95778327D01*
X134737813Y-95846276D01*
X134619913Y-96096668D01*
X134553128Y-96365250D01*
X134540023Y-96641701D01*
X133635000Y-96641701D01*
X133635000Y-88811620D01*
X134545000Y-88811620D01*
X134545000Y-89088380D01*
X134598994Y-89359823D01*
X134704905Y-89615517D01*
X134858665Y-89845635D01*
X135054365Y-90041335D01*
X135284483Y-90195095D01*
X135344610Y-90220000D01*
X135284483Y-90244905D01*
X135054365Y-90398665D01*
X134858665Y-90594365D01*
X134704905Y-90824483D01*
X134598994Y-91080177D01*
X134545000Y-91351620D01*
X134545000Y-91628380D01*
X134598994Y-91899823D01*
X134704905Y-92155517D01*
X134858665Y-92385635D01*
X135054365Y-92581335D01*
X135284483Y-92735095D01*
X135344610Y-92760000D01*
X135284483Y-92784905D01*
X135054365Y-92938665D01*
X134858665Y-93134365D01*
X134704905Y-93364483D01*
X134598994Y-93620177D01*
X134545000Y-93891620D01*
X134545000Y-94168380D01*
X134598994Y-94439823D01*
X134704905Y-94695517D01*
X134858665Y-94925635D01*
X135054365Y-95121335D01*
X135284483Y-95275095D01*
X135338878Y-95297626D01*
X135226276Y-95357813D01*
X135158327Y-95598722D01*
X135950000Y-96390395D01*
X136741673Y-95598722D01*
X136673724Y-95357813D01*
X136553024Y-95300980D01*
X136615517Y-95275095D01*
X136845635Y-95121335D01*
X137041335Y-94925635D01*
X137195095Y-94695517D01*
X137301006Y-94439823D01*
X137355000Y-94168380D01*
X137355000Y-93891620D01*
X137301006Y-93620177D01*
X137195095Y-93364483D01*
X137041335Y-93134365D01*
X136845635Y-92938665D01*
X136615517Y-92784905D01*
X136555390Y-92760000D01*
X136615517Y-92735095D01*
X136845635Y-92581335D01*
X137041335Y-92385635D01*
X137195095Y-92155517D01*
X137267304Y-91981187D01*
X142938500Y-91981187D01*
X142938500Y-92168813D01*
X142975104Y-92352834D01*
X143046905Y-92526178D01*
X143151145Y-92682184D01*
X143283816Y-92814855D01*
X143439822Y-92919095D01*
X143613166Y-92990896D01*
X143797187Y-93027500D01*
X143984813Y-93027500D01*
X144168834Y-92990896D01*
X144342178Y-92919095D01*
X144498184Y-92814855D01*
X144630855Y-92682184D01*
X144735095Y-92526178D01*
X144806896Y-92352834D01*
X144843500Y-92168813D01*
X144843500Y-91981187D01*
X144806896Y-91797166D01*
X144735095Y-91623822D01*
X144630855Y-91467816D01*
X144498184Y-91335145D01*
X144342178Y-91230905D01*
X144168834Y-91159104D01*
X143984813Y-91122500D01*
X143797187Y-91122500D01*
X143613166Y-91159104D01*
X143439822Y-91230905D01*
X143283816Y-91335145D01*
X143151145Y-91467816D01*
X143046905Y-91623822D01*
X142975104Y-91797166D01*
X142938500Y-91981187D01*
X137267304Y-91981187D01*
X137301006Y-91899823D01*
X137355000Y-91628380D01*
X137355000Y-91351620D01*
X137301006Y-91080177D01*
X137195095Y-90824483D01*
X137041335Y-90594365D01*
X136845635Y-90398665D01*
X136615517Y-90244905D01*
X136555390Y-90220000D01*
X136615517Y-90195095D01*
X136845635Y-90041335D01*
X137041335Y-89845635D01*
X137195095Y-89615517D01*
X137220000Y-89555390D01*
X137244905Y-89615517D01*
X137398665Y-89845635D01*
X137594365Y-90041335D01*
X137824483Y-90195095D01*
X138080177Y-90301006D01*
X138351620Y-90355000D01*
X138628380Y-90355000D01*
X138899823Y-90301006D01*
X139155517Y-90195095D01*
X139385635Y-90041335D01*
X139581335Y-89845635D01*
X139735095Y-89615517D01*
X139760000Y-89555390D01*
X139784905Y-89615517D01*
X139938665Y-89845635D01*
X140134365Y-90041335D01*
X140364483Y-90195095D01*
X140620177Y-90301006D01*
X140891620Y-90355000D01*
X141168380Y-90355000D01*
X141439823Y-90301006D01*
X141695517Y-90195095D01*
X141925635Y-90041335D01*
X142121335Y-89845635D01*
X142275095Y-89615517D01*
X142300000Y-89555390D01*
X142324905Y-89615517D01*
X142478665Y-89845635D01*
X142674365Y-90041335D01*
X142904483Y-90195095D01*
X143160177Y-90301006D01*
X143431620Y-90355000D01*
X143708380Y-90355000D01*
X143979823Y-90301006D01*
X144235517Y-90195095D01*
X144465635Y-90041335D01*
X144661335Y-89845635D01*
X144815095Y-89615517D01*
X144840000Y-89555390D01*
X144864905Y-89615517D01*
X145018665Y-89845635D01*
X145214365Y-90041335D01*
X145444483Y-90195095D01*
X145700177Y-90301006D01*
X145971620Y-90355000D01*
X146248380Y-90355000D01*
X146519823Y-90301006D01*
X146775517Y-90195095D01*
X147005635Y-90041335D01*
X147201335Y-89845635D01*
X147355095Y-89615517D01*
X147380000Y-89555390D01*
X147404905Y-89615517D01*
X147558665Y-89845635D01*
X147754365Y-90041335D01*
X147984483Y-90195095D01*
X148240177Y-90301006D01*
X148511620Y-90355000D01*
X148788380Y-90355000D01*
X149059823Y-90301006D01*
X149315517Y-90195095D01*
X149545635Y-90041335D01*
X149741335Y-89845635D01*
X149895095Y-89615517D01*
X149920000Y-89555390D01*
X149944905Y-89615517D01*
X150098665Y-89845635D01*
X150294365Y-90041335D01*
X150524483Y-90195095D01*
X150780177Y-90301006D01*
X151051620Y-90355000D01*
X151328380Y-90355000D01*
X151599823Y-90301006D01*
X151855517Y-90195095D01*
X152085635Y-90041335D01*
X152281335Y-89845635D01*
X152435095Y-89615517D01*
X152460000Y-89555390D01*
X152484905Y-89615517D01*
X152638665Y-89845635D01*
X152834365Y-90041335D01*
X153064483Y-90195095D01*
X153320177Y-90301006D01*
X153591620Y-90355000D01*
X153868380Y-90355000D01*
X154139823Y-90301006D01*
X154395517Y-90195095D01*
X154625635Y-90041335D01*
X154821335Y-89845635D01*
X154975095Y-89615517D01*
X155000000Y-89555390D01*
X155024905Y-89615517D01*
X155178665Y-89845635D01*
X155374365Y-90041335D01*
X155604483Y-90195095D01*
X155860177Y-90301006D01*
X156131620Y-90355000D01*
X156408380Y-90355000D01*
X156679823Y-90301006D01*
X156935517Y-90195095D01*
X157165635Y-90041335D01*
X157361335Y-89845635D01*
X157515095Y-89615517D01*
X157540000Y-89555390D01*
X157564905Y-89615517D01*
X157718665Y-89845635D01*
X157914365Y-90041335D01*
X158144483Y-90195095D01*
X158400177Y-90301006D01*
X158671620Y-90355000D01*
X158948380Y-90355000D01*
X159219823Y-90301006D01*
X159475517Y-90195095D01*
X159705635Y-90041335D01*
X159901335Y-89845635D01*
X160055095Y-89615517D01*
X160080000Y-89555390D01*
X160104905Y-89615517D01*
X160258665Y-89845635D01*
X160454365Y-90041335D01*
X160684483Y-90195095D01*
X160940177Y-90301006D01*
X161211620Y-90355000D01*
X161488380Y-90355000D01*
X161759823Y-90301006D01*
X162015517Y-90195095D01*
X162245635Y-90041335D01*
X162441335Y-89845635D01*
X162595095Y-89615517D01*
X162620000Y-89555390D01*
X162644905Y-89615517D01*
X162798665Y-89845635D01*
X162994365Y-90041335D01*
X163224483Y-90195095D01*
X163480177Y-90301006D01*
X163751620Y-90355000D01*
X164028380Y-90355000D01*
X164299823Y-90301006D01*
X164555517Y-90195095D01*
X164785635Y-90041335D01*
X164981335Y-89845635D01*
X165135095Y-89615517D01*
X165160000Y-89555390D01*
X165184905Y-89615517D01*
X165338665Y-89845635D01*
X165534365Y-90041335D01*
X165764483Y-90195095D01*
X166020177Y-90301006D01*
X166291620Y-90355000D01*
X166568380Y-90355000D01*
X166839823Y-90301006D01*
X167095517Y-90195095D01*
X167325635Y-90041335D01*
X167521335Y-89845635D01*
X167675095Y-89615517D01*
X167700000Y-89555390D01*
X167724905Y-89615517D01*
X167878665Y-89845635D01*
X168074365Y-90041335D01*
X168304483Y-90195095D01*
X168560177Y-90301006D01*
X168831620Y-90355000D01*
X169108380Y-90355000D01*
X169379823Y-90301006D01*
X169635517Y-90195095D01*
X169865635Y-90041335D01*
X170061335Y-89845635D01*
X170215095Y-89615517D01*
X170240000Y-89555390D01*
X170264905Y-89615517D01*
X170418665Y-89845635D01*
X170614365Y-90041335D01*
X170844483Y-90195095D01*
X171100177Y-90301006D01*
X171371620Y-90355000D01*
X171648380Y-90355000D01*
X171919823Y-90301006D01*
X172175517Y-90195095D01*
X172405635Y-90041335D01*
X172601335Y-89845635D01*
X172755095Y-89615517D01*
X172780000Y-89555390D01*
X172804905Y-89615517D01*
X172958665Y-89845635D01*
X173154365Y-90041335D01*
X173384483Y-90195095D01*
X173531592Y-90256029D01*
X173374483Y-90321105D01*
X173144365Y-90474865D01*
X172948665Y-90670565D01*
X172794905Y-90900683D01*
X172688994Y-91156377D01*
X172635000Y-91427820D01*
X172635000Y-91704580D01*
X172688994Y-91976023D01*
X172794905Y-92231717D01*
X172948665Y-92461835D01*
X173144365Y-92657535D01*
X173374483Y-92811295D01*
X173434610Y-92836200D01*
X173374483Y-92861105D01*
X173144365Y-93014865D01*
X172948665Y-93210565D01*
X172794905Y-93440683D01*
X172688994Y-93696377D01*
X172635000Y-93967820D01*
X172635000Y-94244580D01*
X172688994Y-94516023D01*
X172794905Y-94771717D01*
X172948665Y-95001835D01*
X173144365Y-95197535D01*
X173374483Y-95351295D01*
X173434610Y-95376200D01*
X173374483Y-95401105D01*
X173144365Y-95554865D01*
X172948665Y-95750565D01*
X172794905Y-95980683D01*
X172688994Y-96236377D01*
X172635000Y-96507820D01*
X172635000Y-96784580D01*
X172688994Y-97056023D01*
X172794905Y-97311717D01*
X172948665Y-97541835D01*
X173144365Y-97737535D01*
X173374483Y-97891295D01*
X173434610Y-97916200D01*
X173374483Y-97941105D01*
X173144365Y-98094865D01*
X172948665Y-98290565D01*
X172794905Y-98520683D01*
X172770000Y-98580810D01*
X172745095Y-98520683D01*
X172591335Y-98290565D01*
X172395635Y-98094865D01*
X172165517Y-97941105D01*
X171909823Y-97835194D01*
X171638380Y-97781200D01*
X171361620Y-97781200D01*
X171090177Y-97835194D01*
X170834483Y-97941105D01*
X170604365Y-98094865D01*
X170408665Y-98290565D01*
X170254905Y-98520683D01*
X170148994Y-98776377D01*
X170095000Y-99047820D01*
X170095000Y-99324580D01*
X170148994Y-99596023D01*
X170254905Y-99851717D01*
X170408665Y-100081835D01*
X170604365Y-100277535D01*
X170834483Y-100431295D01*
X171090177Y-100537206D01*
X171361620Y-100591200D01*
X171638380Y-100591200D01*
X171909823Y-100537206D01*
X172165517Y-100431295D01*
X172395635Y-100277535D01*
X172591335Y-100081835D01*
X172745095Y-99851717D01*
X172770000Y-99791590D01*
X172794905Y-99851717D01*
X172948665Y-100081835D01*
X173144365Y-100277535D01*
X173374483Y-100431295D01*
X173630177Y-100537206D01*
X173901620Y-100591200D01*
X174178380Y-100591200D01*
X174449823Y-100537206D01*
X174705517Y-100431295D01*
X174935635Y-100277535D01*
X175131335Y-100081835D01*
X175285095Y-99851717D01*
X175391006Y-99596023D01*
X175445000Y-99324580D01*
X175445000Y-99047820D01*
X175391006Y-98776377D01*
X175285095Y-98520683D01*
X175131335Y-98290565D01*
X174935635Y-98094865D01*
X174705517Y-97941105D01*
X174645390Y-97916200D01*
X174705517Y-97891295D01*
X174935635Y-97737535D01*
X175131335Y-97541835D01*
X175285095Y-97311717D01*
X175391006Y-97056023D01*
X175445000Y-96784580D01*
X175445000Y-96507820D01*
X175391006Y-96236377D01*
X175285095Y-95980683D01*
X175131335Y-95750565D01*
X174935635Y-95554865D01*
X174705517Y-95401105D01*
X174645390Y-95376200D01*
X174705517Y-95351295D01*
X174935635Y-95197535D01*
X175131335Y-95001835D01*
X175285095Y-94771717D01*
X175391006Y-94516023D01*
X175445000Y-94244580D01*
X175445000Y-93967820D01*
X175391006Y-93696377D01*
X175285095Y-93440683D01*
X175131335Y-93210565D01*
X174935635Y-93014865D01*
X174705517Y-92861105D01*
X174645390Y-92836200D01*
X174705517Y-92811295D01*
X174935635Y-92657535D01*
X175131335Y-92461835D01*
X175285095Y-92231717D01*
X175391006Y-91976023D01*
X175445000Y-91704580D01*
X175445000Y-91427820D01*
X175391006Y-91156377D01*
X175285095Y-90900683D01*
X175131335Y-90670565D01*
X174935635Y-90474865D01*
X174705517Y-90321105D01*
X174558408Y-90260171D01*
X174715517Y-90195095D01*
X174945635Y-90041335D01*
X175141335Y-89845635D01*
X175295095Y-89615517D01*
X175401006Y-89359823D01*
X175455000Y-89088380D01*
X175455000Y-88811620D01*
X175401006Y-88540177D01*
X175295095Y-88284483D01*
X175141335Y-88054365D01*
X174945635Y-87858665D01*
X174715517Y-87704905D01*
X174459823Y-87598994D01*
X174188380Y-87545000D01*
X173911620Y-87545000D01*
X173640177Y-87598994D01*
X173384483Y-87704905D01*
X173154365Y-87858665D01*
X172958665Y-88054365D01*
X172804905Y-88284483D01*
X172780000Y-88344610D01*
X172755095Y-88284483D01*
X172601335Y-88054365D01*
X172405635Y-87858665D01*
X172175517Y-87704905D01*
X171919823Y-87598994D01*
X171648380Y-87545000D01*
X171371620Y-87545000D01*
X171100177Y-87598994D01*
X170844483Y-87704905D01*
X170614365Y-87858665D01*
X170418665Y-88054365D01*
X170264905Y-88284483D01*
X170240000Y-88344610D01*
X170215095Y-88284483D01*
X170061335Y-88054365D01*
X169865635Y-87858665D01*
X169635517Y-87704905D01*
X169379823Y-87598994D01*
X169108380Y-87545000D01*
X168831620Y-87545000D01*
X168560177Y-87598994D01*
X168304483Y-87704905D01*
X168074365Y-87858665D01*
X167878665Y-88054365D01*
X167724905Y-88284483D01*
X167700000Y-88344610D01*
X167675095Y-88284483D01*
X167521335Y-88054365D01*
X167325635Y-87858665D01*
X167095517Y-87704905D01*
X166839823Y-87598994D01*
X166568380Y-87545000D01*
X166291620Y-87545000D01*
X166020177Y-87598994D01*
X165764483Y-87704905D01*
X165534365Y-87858665D01*
X165338665Y-88054365D01*
X165184905Y-88284483D01*
X165160000Y-88344610D01*
X165135095Y-88284483D01*
X164981335Y-88054365D01*
X164785635Y-87858665D01*
X164555517Y-87704905D01*
X164299823Y-87598994D01*
X164028380Y-87545000D01*
X163751620Y-87545000D01*
X163480177Y-87598994D01*
X163224483Y-87704905D01*
X162994365Y-87858665D01*
X162798665Y-88054365D01*
X162644905Y-88284483D01*
X162620000Y-88344610D01*
X162595095Y-88284483D01*
X162441335Y-88054365D01*
X162245635Y-87858665D01*
X162015517Y-87704905D01*
X161759823Y-87598994D01*
X161488380Y-87545000D01*
X161211620Y-87545000D01*
X160940177Y-87598994D01*
X160684483Y-87704905D01*
X160454365Y-87858665D01*
X160258665Y-88054365D01*
X160104905Y-88284483D01*
X160080000Y-88344610D01*
X160055095Y-88284483D01*
X159901335Y-88054365D01*
X159705635Y-87858665D01*
X159475517Y-87704905D01*
X159219823Y-87598994D01*
X158948380Y-87545000D01*
X158671620Y-87545000D01*
X158400177Y-87598994D01*
X158144483Y-87704905D01*
X157914365Y-87858665D01*
X157718665Y-88054365D01*
X157564905Y-88284483D01*
X157540000Y-88344610D01*
X157515095Y-88284483D01*
X157361335Y-88054365D01*
X157165635Y-87858665D01*
X156935517Y-87704905D01*
X156679823Y-87598994D01*
X156408380Y-87545000D01*
X156131620Y-87545000D01*
X155860177Y-87598994D01*
X155604483Y-87704905D01*
X155374365Y-87858665D01*
X155178665Y-88054365D01*
X155024905Y-88284483D01*
X155000000Y-88344610D01*
X154975095Y-88284483D01*
X154821335Y-88054365D01*
X154625635Y-87858665D01*
X154395517Y-87704905D01*
X154139823Y-87598994D01*
X153868380Y-87545000D01*
X153591620Y-87545000D01*
X153320177Y-87598994D01*
X153064483Y-87704905D01*
X152834365Y-87858665D01*
X152638665Y-88054365D01*
X152484905Y-88284483D01*
X152460000Y-88344610D01*
X152435095Y-88284483D01*
X152281335Y-88054365D01*
X152085635Y-87858665D01*
X151855517Y-87704905D01*
X151599823Y-87598994D01*
X151328380Y-87545000D01*
X151051620Y-87545000D01*
X150780177Y-87598994D01*
X150524483Y-87704905D01*
X150294365Y-87858665D01*
X150098665Y-88054365D01*
X149944905Y-88284483D01*
X149920000Y-88344610D01*
X149895095Y-88284483D01*
X149741335Y-88054365D01*
X149545635Y-87858665D01*
X149315517Y-87704905D01*
X149059823Y-87598994D01*
X148788380Y-87545000D01*
X148511620Y-87545000D01*
X148240177Y-87598994D01*
X147984483Y-87704905D01*
X147754365Y-87858665D01*
X147558665Y-88054365D01*
X147404905Y-88284483D01*
X147380000Y-88344610D01*
X147355095Y-88284483D01*
X147201335Y-88054365D01*
X147005635Y-87858665D01*
X146775517Y-87704905D01*
X146519823Y-87598994D01*
X146248380Y-87545000D01*
X145971620Y-87545000D01*
X145700177Y-87598994D01*
X145444483Y-87704905D01*
X145214365Y-87858665D01*
X145018665Y-88054365D01*
X144864905Y-88284483D01*
X144840000Y-88344610D01*
X144815095Y-88284483D01*
X144661335Y-88054365D01*
X144465635Y-87858665D01*
X144235517Y-87704905D01*
X143979823Y-87598994D01*
X143708380Y-87545000D01*
X143431620Y-87545000D01*
X143160177Y-87598994D01*
X142904483Y-87704905D01*
X142674365Y-87858665D01*
X142478665Y-88054365D01*
X142324905Y-88284483D01*
X142300000Y-88344610D01*
X142275095Y-88284483D01*
X142121335Y-88054365D01*
X141925635Y-87858665D01*
X141695517Y-87704905D01*
X141439823Y-87598994D01*
X141168380Y-87545000D01*
X140891620Y-87545000D01*
X140620177Y-87598994D01*
X140364483Y-87704905D01*
X140134365Y-87858665D01*
X139938665Y-88054365D01*
X139784905Y-88284483D01*
X139760000Y-88344610D01*
X139735095Y-88284483D01*
X139581335Y-88054365D01*
X139385635Y-87858665D01*
X139155517Y-87704905D01*
X138899823Y-87598994D01*
X138628380Y-87545000D01*
X138351620Y-87545000D01*
X138080177Y-87598994D01*
X137824483Y-87704905D01*
X137594365Y-87858665D01*
X137398665Y-88054365D01*
X137244905Y-88284483D01*
X137220000Y-88344610D01*
X137195095Y-88284483D01*
X137041335Y-88054365D01*
X136845635Y-87858665D01*
X136615517Y-87704905D01*
X136359823Y-87598994D01*
X136088380Y-87545000D01*
X135811620Y-87545000D01*
X135540177Y-87598994D01*
X135284483Y-87704905D01*
X135054365Y-87858665D01*
X134858665Y-88054365D01*
X134704905Y-88284483D01*
X134598994Y-88540177D01*
X134545000Y-88811620D01*
X133635000Y-88811620D01*
X133635000Y-88095510D01*
X133667097Y-87768158D01*
X133746045Y-87506670D01*
X133874278Y-87265497D01*
X134046915Y-87053823D01*
X134257375Y-86879717D01*
X134497650Y-86749800D01*
X134758583Y-86669028D01*
X135082338Y-86635000D01*
X174904490Y-86635000D01*
X175231842Y-86667097D01*
M02*
