G04 #@! TF.GenerationSoftware,KiCad,Pcbnew,(5.1.5)-3*
G04 #@! TF.CreationDate,2020-07-17T01:19:51+01:00*
G04 #@! TF.ProjectId,power-board,706f7765-722d-4626-9f61-72642e6b6963,v0*
G04 #@! TF.SameCoordinates,Original*
G04 #@! TF.FileFunction,Soldermask,Bot*
G04 #@! TF.FilePolarity,Negative*
%FSLAX46Y46*%
G04 Gerber Fmt 4.6, Leading zero omitted, Abs format (unit mm)*
G04 Created by KiCad (PCBNEW (5.1.5)-3) date 2020-07-17 01:19:51*
%MOMM*%
%LPD*%
G04 APERTURE LIST*
%ADD10C,1.565400*%
%ADD11C,2.565400*%
G04 APERTURE END LIST*
D10*
X135950000Y-88950000D03*
X138490000Y-88950000D03*
X141030000Y-88950000D03*
X143570000Y-88950000D03*
X146110000Y-88950000D03*
X148650000Y-88950000D03*
X151190000Y-88950000D03*
X153730000Y-88950000D03*
X156270000Y-88950000D03*
X158810000Y-88950000D03*
X161350000Y-88950000D03*
X163890000Y-88950000D03*
X166430000Y-88950000D03*
X168970000Y-88950000D03*
X171510000Y-88950000D03*
X174050000Y-88950000D03*
X174050000Y-127050000D03*
X171510000Y-127050000D03*
X168970000Y-127050000D03*
X166430000Y-127050000D03*
X163890000Y-127050000D03*
X161350000Y-127050000D03*
X158810000Y-127050000D03*
X156270000Y-127050000D03*
X153730000Y-127050000D03*
X151190000Y-127050000D03*
X148650000Y-127050000D03*
X146110000Y-127050000D03*
X143570000Y-127050000D03*
X141030000Y-127050000D03*
X138490000Y-127050000D03*
X135950000Y-127050000D03*
X135950000Y-91490000D03*
X135950000Y-94030000D03*
X135950000Y-96570000D03*
X135950000Y-99110000D03*
X135950000Y-124510000D03*
X135950000Y-121970000D03*
X135950000Y-119430000D03*
X135950000Y-116890000D03*
D11*
X174960000Y-113080000D03*
X135040000Y-113080000D03*
X174960000Y-102920000D03*
X135040000Y-102920000D03*
D10*
X174040000Y-94106200D03*
X174040000Y-99186200D03*
X174040000Y-96646200D03*
X174040000Y-91566200D03*
X171500000Y-99186200D03*
X174050000Y-121969800D03*
X174050000Y-116889800D03*
X174050000Y-119429800D03*
X174050000Y-124509800D03*
X171510000Y-116889800D03*
M02*
