G04 #@! TF.GenerationSoftware,KiCad,Pcbnew,(5.1.5)-3*
G04 #@! TF.CreationDate,2020-07-16T17:17:18+01:00*
G04 #@! TF.ProjectId,power-board,706f7765-722d-4626-9f61-72642e6b6963,v0*
G04 #@! TF.SameCoordinates,Original*
G04 #@! TF.FileFunction,Legend,Top*
G04 #@! TF.FilePolarity,Positive*
%FSLAX46Y46*%
G04 Gerber Fmt 4.6, Leading zero omitted, Abs format (unit mm)*
G04 Created by KiCad (PCBNEW (5.1.5)-3) date 2020-07-16 17:17:18*
%MOMM*%
%LPD*%
G04 APERTURE LIST*
%ADD10C,0.120000*%
%ADD11C,0.150000*%
%ADD12C,0.152400*%
G04 APERTURE END LIST*
D10*
X149227000Y-121955779D02*
X149227000Y-121630221D01*
X148207000Y-121955779D02*
X148207000Y-121630221D01*
X155450000Y-103977221D02*
X155450000Y-104302779D01*
X154430000Y-103977221D02*
X154430000Y-104302779D01*
X151008500Y-102415000D02*
X151008500Y-102645000D01*
X151008500Y-107135000D02*
X151008500Y-106905000D01*
X151008500Y-107135000D02*
X148288500Y-107135000D01*
X148288500Y-107135000D02*
X148288500Y-105825000D01*
X152148500Y-106905000D02*
X151008500Y-106905000D01*
X148288500Y-102415000D02*
X151008500Y-102415000D01*
X148288500Y-103725000D02*
X148288500Y-102415000D01*
X167642000Y-96992221D02*
X167642000Y-97317779D01*
X166622000Y-96992221D02*
X166622000Y-97317779D01*
X164717000Y-96992221D02*
X164717000Y-97317779D01*
X165737000Y-96992221D02*
X165737000Y-97317779D01*
X152525000Y-98587779D02*
X152525000Y-98262221D01*
X153545000Y-98587779D02*
X153545000Y-98262221D01*
X163832000Y-101127779D02*
X163832000Y-100802221D01*
X162812000Y-101127779D02*
X162812000Y-100802221D01*
X159349221Y-105920000D02*
X159674779Y-105920000D01*
X159349221Y-104900000D02*
X159674779Y-104900000D01*
X152237221Y-116330000D02*
X152562779Y-116330000D01*
X152237221Y-117350000D02*
X152562779Y-117350000D01*
X150657779Y-108968000D02*
X150332221Y-108968000D01*
X150657779Y-107948000D02*
X150332221Y-107948000D01*
X150657779Y-109853000D02*
X150332221Y-109853000D01*
X150657779Y-110873000D02*
X150332221Y-110873000D01*
X143982221Y-115445000D02*
X144307779Y-115445000D01*
X143982221Y-114425000D02*
X144307779Y-114425000D01*
X166622000Y-118963221D02*
X166622000Y-119288779D01*
X167642000Y-118963221D02*
X167642000Y-119288779D01*
X146941000Y-121955779D02*
X146941000Y-121630221D01*
X145921000Y-121955779D02*
X145921000Y-121630221D01*
X139227779Y-113540000D02*
X138902221Y-113540000D01*
X139227779Y-112520000D02*
X138902221Y-112520000D01*
X164754779Y-125097000D02*
X164429221Y-125097000D01*
X164754779Y-124077000D02*
X164429221Y-124077000D01*
X139537221Y-120140000D02*
X139862779Y-120140000D01*
X139537221Y-121160000D02*
X139862779Y-121160000D01*
X151386000Y-121955779D02*
X151386000Y-121630221D01*
X150366000Y-121955779D02*
X150366000Y-121630221D01*
X148225000Y-98720000D02*
X150225000Y-98720000D01*
X150225000Y-98720000D02*
X150225000Y-94870000D01*
X148225000Y-98720000D02*
X148225000Y-94870000D01*
D11*
X160982000Y-91240000D02*
X154232000Y-91240000D01*
X160982000Y-97990000D02*
X154232000Y-97990000D01*
X160982000Y-91240000D02*
X160982000Y-97990000D01*
X154200200Y-91240000D02*
X154200200Y-97990000D01*
D12*
X149301200Y-116205000D02*
G75*
G03X149301200Y-116205000I-76200J0D01*
G01*
D10*
X163705000Y-97317779D02*
X163705000Y-96992221D01*
X162685000Y-97317779D02*
X162685000Y-96992221D01*
X159349221Y-104015000D02*
X159674779Y-104015000D01*
X159349221Y-102995000D02*
X159674779Y-102995000D01*
X162524221Y-102995000D02*
X162849779Y-102995000D01*
X162524221Y-104015000D02*
X162849779Y-104015000D01*
X168183779Y-112143000D02*
X167858221Y-112143000D01*
X168183779Y-111123000D02*
X167858221Y-111123000D01*
X165008779Y-111123000D02*
X164683221Y-111123000D01*
X165008779Y-112143000D02*
X164683221Y-112143000D01*
X164721000Y-114645221D02*
X164721000Y-114970779D01*
X163701000Y-114645221D02*
X163701000Y-114970779D01*
X158587221Y-116203000D02*
X158912779Y-116203000D01*
X158587221Y-117223000D02*
X158912779Y-117223000D01*
X158531779Y-113155000D02*
X158206221Y-113155000D01*
X158531779Y-114175000D02*
X158206221Y-114175000D01*
X158912779Y-119001000D02*
X158587221Y-119001000D01*
X158912779Y-117981000D02*
X158587221Y-117981000D01*
X156466000Y-109184221D02*
X156466000Y-109509779D01*
X155446000Y-109184221D02*
X155446000Y-109509779D01*
X158079221Y-112397000D02*
X158404779Y-112397000D01*
X158079221Y-111377000D02*
X158404779Y-111377000D01*
X171071000Y-114137221D02*
X171071000Y-114462779D01*
X170051000Y-114137221D02*
X170051000Y-114462779D01*
X141132779Y-116330000D02*
X140807221Y-116330000D01*
X141132779Y-117350000D02*
X140807221Y-117350000D01*
X142275779Y-123696000D02*
X141950221Y-123696000D01*
X142275779Y-124716000D02*
X141950221Y-124716000D01*
X167642000Y-122265221D02*
X167642000Y-122590779D01*
X166622000Y-122265221D02*
X166622000Y-122590779D01*
X142712221Y-112520000D02*
X143037779Y-112520000D01*
X142712221Y-113540000D02*
X143037779Y-113540000D01*
X142365000Y-119923779D02*
X142365000Y-119598221D01*
X143385000Y-119923779D02*
X143385000Y-119598221D01*
X162341779Y-121287000D02*
X162016221Y-121287000D01*
X162341779Y-120267000D02*
X162016221Y-120267000D01*
X169692064Y-94420000D02*
X165587936Y-94420000D01*
X169692064Y-91000000D02*
X165587936Y-91000000D01*
X166857936Y-105850000D02*
X170962064Y-105850000D01*
X166857936Y-102430000D02*
X170962064Y-102430000D01*
X144815779Y-90422000D02*
X144490221Y-90422000D01*
X144815779Y-91442000D02*
X144490221Y-91442000D01*
X141259779Y-91442000D02*
X140934221Y-91442000D01*
X141259779Y-90422000D02*
X140934221Y-90422000D01*
X144942779Y-93470000D02*
X144617221Y-93470000D01*
X144942779Y-94490000D02*
X144617221Y-94490000D01*
X141386779Y-94490000D02*
X141061221Y-94490000D01*
X141386779Y-93470000D02*
X141061221Y-93470000D01*
X141259779Y-108456000D02*
X140934221Y-108456000D01*
X141259779Y-109476000D02*
X140934221Y-109476000D01*
X137449779Y-109476000D02*
X137124221Y-109476000D01*
X137449779Y-108456000D02*
X137124221Y-108456000D01*
X141259779Y-106551000D02*
X140934221Y-106551000D01*
X141259779Y-107571000D02*
X140934221Y-107571000D01*
X137449779Y-107571000D02*
X137124221Y-107571000D01*
X137449779Y-106551000D02*
X137124221Y-106551000D01*
X146941000Y-101381779D02*
X146941000Y-101056221D01*
X145921000Y-101381779D02*
X145921000Y-101056221D01*
X158242000Y-101940000D02*
X160442000Y-101940000D01*
X158242000Y-101940000D02*
X156042000Y-101940000D01*
X158242000Y-98720000D02*
X160442000Y-98720000D01*
X158242000Y-98720000D02*
X154642000Y-98720000D01*
X151141000Y-111868000D02*
X152146000Y-111868000D01*
X154391000Y-111868000D02*
X154391000Y-112098000D01*
X153416000Y-111868000D02*
X154391000Y-111868000D01*
X153416000Y-115088000D02*
X154391000Y-115088000D01*
X154391000Y-114858000D02*
X154391000Y-115088000D01*
X151171000Y-115088000D02*
X152146000Y-115088000D01*
X151171000Y-114858000D02*
X151171000Y-115088000D01*
D12*
X143217900Y-95707200D02*
X138976100Y-95707200D01*
X138976100Y-104698800D02*
X143217900Y-104698800D01*
X137134600Y-99123500D02*
X137134600Y-98742500D01*
X137134600Y-98742500D02*
X137388600Y-98742500D01*
X137388600Y-98742500D02*
X137388600Y-99123500D01*
X137388600Y-99123500D02*
X137134600Y-99123500D01*
D11*
X156819000Y-124307000D02*
X156819000Y-124132000D01*
X153569000Y-124307000D02*
X153569000Y-124032000D01*
X153569000Y-121057000D02*
X153569000Y-121332000D01*
X156819000Y-121057000D02*
X156819000Y-121332000D01*
X156819000Y-124307000D02*
X153569000Y-124307000D01*
X156819000Y-121057000D02*
X153569000Y-121057000D01*
X156819000Y-124132000D02*
X157894000Y-124132000D01*
D10*
X140347000Y-114181000D02*
X140347000Y-115181000D01*
X140347000Y-115181000D02*
X141847000Y-115181000D01*
X141847000Y-115181000D02*
X141847000Y-114181000D01*
X141847000Y-114181000D02*
X140347000Y-114181000D01*
X140047000Y-114181000D02*
G75*
G03X140047000Y-114181000I-50000J0D01*
G01*
X168996000Y-115708000D02*
X168996000Y-113908000D01*
X165776000Y-113908000D02*
X165776000Y-116358000D01*
X141194000Y-121637000D02*
G75*
G03X141194000Y-121637000I-50000J0D01*
G01*
X142994000Y-121637000D02*
X141494000Y-121637000D01*
X142994000Y-122637000D02*
X142994000Y-121637000D01*
X141494000Y-122637000D02*
X142994000Y-122637000D01*
X141494000Y-121637000D02*
X141494000Y-122637000D01*
X164523000Y-123274000D02*
G75*
G03X164523000Y-123274000I-50000J0D01*
G01*
X164473000Y-121424000D02*
X164473000Y-122924000D01*
X165473000Y-121424000D02*
X164473000Y-121424000D01*
X165473000Y-122924000D02*
X165473000Y-121424000D01*
X164473000Y-122924000D02*
X165473000Y-122924000D01*
D11*
X148455142Y-124531380D02*
X148121809Y-124055190D01*
X147883714Y-124531380D02*
X147883714Y-123531380D01*
X148264666Y-123531380D01*
X148359904Y-123579000D01*
X148407523Y-123626619D01*
X148455142Y-123721857D01*
X148455142Y-123864714D01*
X148407523Y-123959952D01*
X148359904Y-124007571D01*
X148264666Y-124055190D01*
X147883714Y-124055190D01*
X148788476Y-123531380D02*
X149407523Y-123531380D01*
X149074190Y-123912333D01*
X149217047Y-123912333D01*
X149312285Y-123959952D01*
X149359904Y-124007571D01*
X149407523Y-124102809D01*
X149407523Y-124340904D01*
X149359904Y-124436142D01*
X149312285Y-124483761D01*
X149217047Y-124531380D01*
X148931333Y-124531380D01*
X148836095Y-124483761D01*
X148788476Y-124436142D01*
X150026571Y-123531380D02*
X150121809Y-123531380D01*
X150217047Y-123579000D01*
X150264666Y-123626619D01*
X150312285Y-123721857D01*
X150359904Y-123912333D01*
X150359904Y-124150428D01*
X150312285Y-124340904D01*
X150264666Y-124436142D01*
X150217047Y-124483761D01*
X150121809Y-124531380D01*
X150026571Y-124531380D01*
X149931333Y-124483761D01*
X149883714Y-124436142D01*
X149836095Y-124340904D01*
X149788476Y-124150428D01*
X149788476Y-123912333D01*
X149836095Y-123721857D01*
X149883714Y-123626619D01*
X149931333Y-123579000D01*
X150026571Y-123531380D01*
X156567142Y-105576666D02*
X156614761Y-105624285D01*
X156662380Y-105767142D01*
X156662380Y-105862380D01*
X156614761Y-106005238D01*
X156519523Y-106100476D01*
X156424285Y-106148095D01*
X156233809Y-106195714D01*
X156090952Y-106195714D01*
X155900476Y-106148095D01*
X155805238Y-106100476D01*
X155710000Y-106005238D01*
X155662380Y-105862380D01*
X155662380Y-105767142D01*
X155710000Y-105624285D01*
X155757619Y-105576666D01*
X155995714Y-104719523D02*
X156662380Y-104719523D01*
X155614761Y-104957619D02*
X156329047Y-105195714D01*
X156329047Y-104576666D01*
X147686404Y-108402380D02*
X147686404Y-107402380D01*
X147924500Y-107402380D01*
X148067357Y-107450000D01*
X148162595Y-107545238D01*
X148210214Y-107640476D01*
X148257833Y-107830952D01*
X148257833Y-107973809D01*
X148210214Y-108164285D01*
X148162595Y-108259523D01*
X148067357Y-108354761D01*
X147924500Y-108402380D01*
X147686404Y-108402380D01*
X148638785Y-107497619D02*
X148686404Y-107450000D01*
X148781642Y-107402380D01*
X149019738Y-107402380D01*
X149114976Y-107450000D01*
X149162595Y-107497619D01*
X149210214Y-107592857D01*
X149210214Y-107688095D01*
X149162595Y-107830952D01*
X148591166Y-108402380D01*
X149210214Y-108402380D01*
X166965333Y-95607142D02*
X166917714Y-95654761D01*
X166774857Y-95702380D01*
X166679619Y-95702380D01*
X166536761Y-95654761D01*
X166441523Y-95559523D01*
X166393904Y-95464285D01*
X166346285Y-95273809D01*
X166346285Y-95130952D01*
X166393904Y-94940476D01*
X166441523Y-94845238D01*
X166536761Y-94750000D01*
X166679619Y-94702380D01*
X166774857Y-94702380D01*
X166917714Y-94750000D01*
X166965333Y-94797619D01*
X167917714Y-95702380D02*
X167346285Y-95702380D01*
X167632000Y-95702380D02*
X167632000Y-94702380D01*
X167536761Y-94845238D01*
X167441523Y-94940476D01*
X167346285Y-94988095D01*
X165060333Y-95607142D02*
X165012714Y-95654761D01*
X164869857Y-95702380D01*
X164774619Y-95702380D01*
X164631761Y-95654761D01*
X164536523Y-95559523D01*
X164488904Y-95464285D01*
X164441285Y-95273809D01*
X164441285Y-95130952D01*
X164488904Y-94940476D01*
X164536523Y-94845238D01*
X164631761Y-94750000D01*
X164774619Y-94702380D01*
X164869857Y-94702380D01*
X165012714Y-94750000D01*
X165060333Y-94797619D01*
X165441285Y-94797619D02*
X165488904Y-94750000D01*
X165584142Y-94702380D01*
X165822238Y-94702380D01*
X165917476Y-94750000D01*
X165965095Y-94797619D01*
X166012714Y-94892857D01*
X166012714Y-94988095D01*
X165965095Y-95130952D01*
X165393666Y-95702380D01*
X166012714Y-95702380D01*
X152233333Y-96877142D02*
X152185714Y-96924761D01*
X152042857Y-96972380D01*
X151947619Y-96972380D01*
X151804761Y-96924761D01*
X151709523Y-96829523D01*
X151661904Y-96734285D01*
X151614285Y-96543809D01*
X151614285Y-96400952D01*
X151661904Y-96210476D01*
X151709523Y-96115238D01*
X151804761Y-96020000D01*
X151947619Y-95972380D01*
X152042857Y-95972380D01*
X152185714Y-96020000D01*
X152233333Y-96067619D01*
X152566666Y-95972380D02*
X153185714Y-95972380D01*
X152852380Y-96353333D01*
X152995238Y-96353333D01*
X153090476Y-96400952D01*
X153138095Y-96448571D01*
X153185714Y-96543809D01*
X153185714Y-96781904D01*
X153138095Y-96877142D01*
X153090476Y-96924761D01*
X152995238Y-96972380D01*
X152709523Y-96972380D01*
X152614285Y-96924761D01*
X152566666Y-96877142D01*
X164949142Y-101131666D02*
X164996761Y-101179285D01*
X165044380Y-101322142D01*
X165044380Y-101417380D01*
X164996761Y-101560238D01*
X164901523Y-101655476D01*
X164806285Y-101703095D01*
X164615809Y-101750714D01*
X164472952Y-101750714D01*
X164282476Y-101703095D01*
X164187238Y-101655476D01*
X164092000Y-101560238D01*
X164044380Y-101417380D01*
X164044380Y-101322142D01*
X164092000Y-101179285D01*
X164139619Y-101131666D01*
X164044380Y-100226904D02*
X164044380Y-100703095D01*
X164520571Y-100750714D01*
X164472952Y-100703095D01*
X164425333Y-100607857D01*
X164425333Y-100369761D01*
X164472952Y-100274523D01*
X164520571Y-100226904D01*
X164615809Y-100179285D01*
X164853904Y-100179285D01*
X164949142Y-100226904D01*
X164996761Y-100274523D01*
X165044380Y-100369761D01*
X165044380Y-100607857D01*
X164996761Y-100703095D01*
X164949142Y-100750714D01*
X159345333Y-107037142D02*
X159297714Y-107084761D01*
X159154857Y-107132380D01*
X159059619Y-107132380D01*
X158916761Y-107084761D01*
X158821523Y-106989523D01*
X158773904Y-106894285D01*
X158726285Y-106703809D01*
X158726285Y-106560952D01*
X158773904Y-106370476D01*
X158821523Y-106275238D01*
X158916761Y-106180000D01*
X159059619Y-106132380D01*
X159154857Y-106132380D01*
X159297714Y-106180000D01*
X159345333Y-106227619D01*
X160202476Y-106132380D02*
X160012000Y-106132380D01*
X159916761Y-106180000D01*
X159869142Y-106227619D01*
X159773904Y-106370476D01*
X159726285Y-106560952D01*
X159726285Y-106941904D01*
X159773904Y-107037142D01*
X159821523Y-107084761D01*
X159916761Y-107132380D01*
X160107238Y-107132380D01*
X160202476Y-107084761D01*
X160250095Y-107037142D01*
X160297714Y-106941904D01*
X160297714Y-106703809D01*
X160250095Y-106608571D01*
X160202476Y-106560952D01*
X160107238Y-106513333D01*
X159916761Y-106513333D01*
X159821523Y-106560952D01*
X159773904Y-106608571D01*
X159726285Y-106703809D01*
X152233333Y-118467142D02*
X152185714Y-118514761D01*
X152042857Y-118562380D01*
X151947619Y-118562380D01*
X151804761Y-118514761D01*
X151709523Y-118419523D01*
X151661904Y-118324285D01*
X151614285Y-118133809D01*
X151614285Y-117990952D01*
X151661904Y-117800476D01*
X151709523Y-117705238D01*
X151804761Y-117610000D01*
X151947619Y-117562380D01*
X152042857Y-117562380D01*
X152185714Y-117610000D01*
X152233333Y-117657619D01*
X152804761Y-117990952D02*
X152709523Y-117943333D01*
X152661904Y-117895714D01*
X152614285Y-117800476D01*
X152614285Y-117752857D01*
X152661904Y-117657619D01*
X152709523Y-117610000D01*
X152804761Y-117562380D01*
X152995238Y-117562380D01*
X153090476Y-117610000D01*
X153138095Y-117657619D01*
X153185714Y-117752857D01*
X153185714Y-117800476D01*
X153138095Y-117895714D01*
X153090476Y-117943333D01*
X152995238Y-117990952D01*
X152804761Y-117990952D01*
X152709523Y-118038571D01*
X152661904Y-118086190D01*
X152614285Y-118181428D01*
X152614285Y-118371904D01*
X152661904Y-118467142D01*
X152709523Y-118514761D01*
X152804761Y-118562380D01*
X152995238Y-118562380D01*
X153090476Y-118514761D01*
X153138095Y-118467142D01*
X153185714Y-118371904D01*
X153185714Y-118181428D01*
X153138095Y-118086190D01*
X153090476Y-118038571D01*
X152995238Y-117990952D01*
X153249333Y-108688142D02*
X153201714Y-108735761D01*
X153058857Y-108783380D01*
X152963619Y-108783380D01*
X152820761Y-108735761D01*
X152725523Y-108640523D01*
X152677904Y-108545285D01*
X152630285Y-108354809D01*
X152630285Y-108211952D01*
X152677904Y-108021476D01*
X152725523Y-107926238D01*
X152820761Y-107831000D01*
X152963619Y-107783380D01*
X153058857Y-107783380D01*
X153201714Y-107831000D01*
X153249333Y-107878619D01*
X153725523Y-108783380D02*
X153916000Y-108783380D01*
X154011238Y-108735761D01*
X154058857Y-108688142D01*
X154154095Y-108545285D01*
X154201714Y-108354809D01*
X154201714Y-107973857D01*
X154154095Y-107878619D01*
X154106476Y-107831000D01*
X154011238Y-107783380D01*
X153820761Y-107783380D01*
X153725523Y-107831000D01*
X153677904Y-107878619D01*
X153630285Y-107973857D01*
X153630285Y-108211952D01*
X153677904Y-108307190D01*
X153725523Y-108354809D01*
X153820761Y-108402428D01*
X154011238Y-108402428D01*
X154106476Y-108354809D01*
X154154095Y-108307190D01*
X154201714Y-108211952D01*
X152773142Y-110593142D02*
X152725523Y-110640761D01*
X152582666Y-110688380D01*
X152487428Y-110688380D01*
X152344571Y-110640761D01*
X152249333Y-110545523D01*
X152201714Y-110450285D01*
X152154095Y-110259809D01*
X152154095Y-110116952D01*
X152201714Y-109926476D01*
X152249333Y-109831238D01*
X152344571Y-109736000D01*
X152487428Y-109688380D01*
X152582666Y-109688380D01*
X152725523Y-109736000D01*
X152773142Y-109783619D01*
X153725523Y-110688380D02*
X153154095Y-110688380D01*
X153439809Y-110688380D02*
X153439809Y-109688380D01*
X153344571Y-109831238D01*
X153249333Y-109926476D01*
X153154095Y-109974095D01*
X154344571Y-109688380D02*
X154439809Y-109688380D01*
X154535047Y-109736000D01*
X154582666Y-109783619D01*
X154630285Y-109878857D01*
X154677904Y-110069333D01*
X154677904Y-110307428D01*
X154630285Y-110497904D01*
X154582666Y-110593142D01*
X154535047Y-110640761D01*
X154439809Y-110688380D01*
X154344571Y-110688380D01*
X154249333Y-110640761D01*
X154201714Y-110593142D01*
X154154095Y-110497904D01*
X154106476Y-110307428D01*
X154106476Y-110069333D01*
X154154095Y-109878857D01*
X154201714Y-109783619D01*
X154249333Y-109736000D01*
X154344571Y-109688380D01*
X143502142Y-116562142D02*
X143454523Y-116609761D01*
X143311666Y-116657380D01*
X143216428Y-116657380D01*
X143073571Y-116609761D01*
X142978333Y-116514523D01*
X142930714Y-116419285D01*
X142883095Y-116228809D01*
X142883095Y-116085952D01*
X142930714Y-115895476D01*
X142978333Y-115800238D01*
X143073571Y-115705000D01*
X143216428Y-115657380D01*
X143311666Y-115657380D01*
X143454523Y-115705000D01*
X143502142Y-115752619D01*
X144454523Y-116657380D02*
X143883095Y-116657380D01*
X144168809Y-116657380D02*
X144168809Y-115657380D01*
X144073571Y-115800238D01*
X143978333Y-115895476D01*
X143883095Y-115943095D01*
X145406904Y-116657380D02*
X144835476Y-116657380D01*
X145121190Y-116657380D02*
X145121190Y-115657380D01*
X145025952Y-115800238D01*
X144930714Y-115895476D01*
X144835476Y-115943095D01*
X167489142Y-116720857D02*
X167536761Y-116768476D01*
X167584380Y-116911333D01*
X167584380Y-117006571D01*
X167536761Y-117149428D01*
X167441523Y-117244666D01*
X167346285Y-117292285D01*
X167155809Y-117339904D01*
X167012952Y-117339904D01*
X166822476Y-117292285D01*
X166727238Y-117244666D01*
X166632000Y-117149428D01*
X166584380Y-117006571D01*
X166584380Y-116911333D01*
X166632000Y-116768476D01*
X166679619Y-116720857D01*
X167584380Y-115768476D02*
X167584380Y-116339904D01*
X167584380Y-116054190D02*
X166584380Y-116054190D01*
X166727238Y-116149428D01*
X166822476Y-116244666D01*
X166870095Y-116339904D01*
X166679619Y-115387523D02*
X166632000Y-115339904D01*
X166584380Y-115244666D01*
X166584380Y-115006571D01*
X166632000Y-114911333D01*
X166679619Y-114863714D01*
X166774857Y-114816095D01*
X166870095Y-114816095D01*
X167012952Y-114863714D01*
X167584380Y-115435142D01*
X167584380Y-114816095D01*
X145407142Y-124436142D02*
X145359523Y-124483761D01*
X145216666Y-124531380D01*
X145121428Y-124531380D01*
X144978571Y-124483761D01*
X144883333Y-124388523D01*
X144835714Y-124293285D01*
X144788095Y-124102809D01*
X144788095Y-123959952D01*
X144835714Y-123769476D01*
X144883333Y-123674238D01*
X144978571Y-123579000D01*
X145121428Y-123531380D01*
X145216666Y-123531380D01*
X145359523Y-123579000D01*
X145407142Y-123626619D01*
X146359523Y-124531380D02*
X145788095Y-124531380D01*
X146073809Y-124531380D02*
X146073809Y-123531380D01*
X145978571Y-123674238D01*
X145883333Y-123769476D01*
X145788095Y-123817095D01*
X146692857Y-123531380D02*
X147311904Y-123531380D01*
X146978571Y-123912333D01*
X147121428Y-123912333D01*
X147216666Y-123959952D01*
X147264285Y-124007571D01*
X147311904Y-124102809D01*
X147311904Y-124340904D01*
X147264285Y-124436142D01*
X147216666Y-124483761D01*
X147121428Y-124531380D01*
X146835714Y-124531380D01*
X146740476Y-124483761D01*
X146692857Y-124436142D01*
X138295142Y-112117142D02*
X138247523Y-112164761D01*
X138104666Y-112212380D01*
X138009428Y-112212380D01*
X137866571Y-112164761D01*
X137771333Y-112069523D01*
X137723714Y-111974285D01*
X137676095Y-111783809D01*
X137676095Y-111640952D01*
X137723714Y-111450476D01*
X137771333Y-111355238D01*
X137866571Y-111260000D01*
X138009428Y-111212380D01*
X138104666Y-111212380D01*
X138247523Y-111260000D01*
X138295142Y-111307619D01*
X139247523Y-112212380D02*
X138676095Y-112212380D01*
X138961809Y-112212380D02*
X138961809Y-111212380D01*
X138866571Y-111355238D01*
X138771333Y-111450476D01*
X138676095Y-111498095D01*
X140104666Y-111545714D02*
X140104666Y-112212380D01*
X139866571Y-111164761D02*
X139628476Y-111879047D01*
X140247523Y-111879047D01*
X160901142Y-125198142D02*
X160853523Y-125245761D01*
X160710666Y-125293380D01*
X160615428Y-125293380D01*
X160472571Y-125245761D01*
X160377333Y-125150523D01*
X160329714Y-125055285D01*
X160282095Y-124864809D01*
X160282095Y-124721952D01*
X160329714Y-124531476D01*
X160377333Y-124436238D01*
X160472571Y-124341000D01*
X160615428Y-124293380D01*
X160710666Y-124293380D01*
X160853523Y-124341000D01*
X160901142Y-124388619D01*
X161853523Y-125293380D02*
X161282095Y-125293380D01*
X161567809Y-125293380D02*
X161567809Y-124293380D01*
X161472571Y-124436238D01*
X161377333Y-124531476D01*
X161282095Y-124579095D01*
X162758285Y-124293380D02*
X162282095Y-124293380D01*
X162234476Y-124769571D01*
X162282095Y-124721952D01*
X162377333Y-124674333D01*
X162615428Y-124674333D01*
X162710666Y-124721952D01*
X162758285Y-124769571D01*
X162805904Y-124864809D01*
X162805904Y-125102904D01*
X162758285Y-125198142D01*
X162710666Y-125245761D01*
X162615428Y-125293380D01*
X162377333Y-125293380D01*
X162282095Y-125245761D01*
X162234476Y-125198142D01*
X138152142Y-121292857D02*
X138199761Y-121340476D01*
X138247380Y-121483333D01*
X138247380Y-121578571D01*
X138199761Y-121721428D01*
X138104523Y-121816666D01*
X138009285Y-121864285D01*
X137818809Y-121911904D01*
X137675952Y-121911904D01*
X137485476Y-121864285D01*
X137390238Y-121816666D01*
X137295000Y-121721428D01*
X137247380Y-121578571D01*
X137247380Y-121483333D01*
X137295000Y-121340476D01*
X137342619Y-121292857D01*
X138247380Y-120340476D02*
X138247380Y-120911904D01*
X138247380Y-120626190D02*
X137247380Y-120626190D01*
X137390238Y-120721428D01*
X137485476Y-120816666D01*
X137533095Y-120911904D01*
X137247380Y-119483333D02*
X137247380Y-119673809D01*
X137295000Y-119769047D01*
X137342619Y-119816666D01*
X137485476Y-119911904D01*
X137675952Y-119959523D01*
X138056904Y-119959523D01*
X138152142Y-119911904D01*
X138199761Y-119864285D01*
X138247380Y-119769047D01*
X138247380Y-119578571D01*
X138199761Y-119483333D01*
X138152142Y-119435714D01*
X138056904Y-119388095D01*
X137818809Y-119388095D01*
X137723571Y-119435714D01*
X137675952Y-119483333D01*
X137628333Y-119578571D01*
X137628333Y-119769047D01*
X137675952Y-119864285D01*
X137723571Y-119911904D01*
X137818809Y-119959523D01*
X150360142Y-119991142D02*
X150312523Y-120038761D01*
X150169666Y-120086380D01*
X150074428Y-120086380D01*
X149931571Y-120038761D01*
X149836333Y-119943523D01*
X149788714Y-119848285D01*
X149741095Y-119657809D01*
X149741095Y-119514952D01*
X149788714Y-119324476D01*
X149836333Y-119229238D01*
X149931571Y-119134000D01*
X150074428Y-119086380D01*
X150169666Y-119086380D01*
X150312523Y-119134000D01*
X150360142Y-119181619D01*
X151312523Y-120086380D02*
X150741095Y-120086380D01*
X151026809Y-120086380D02*
X151026809Y-119086380D01*
X150931571Y-119229238D01*
X150836333Y-119324476D01*
X150741095Y-119372095D01*
X151645857Y-119086380D02*
X152312523Y-119086380D01*
X151883952Y-120086380D01*
X149677380Y-93448095D02*
X148677380Y-93448095D01*
X148677380Y-93210000D01*
X148725000Y-93067142D01*
X148820238Y-92971904D01*
X148915476Y-92924285D01*
X149105952Y-92876666D01*
X149248809Y-92876666D01*
X149439285Y-92924285D01*
X149534523Y-92971904D01*
X149629761Y-93067142D01*
X149677380Y-93210000D01*
X149677380Y-93448095D01*
X149677380Y-91924285D02*
X149677380Y-92495714D01*
X149677380Y-92210000D02*
X148677380Y-92210000D01*
X148820238Y-92305238D01*
X148915476Y-92400476D01*
X148963095Y-92495714D01*
X133711666Y-89037380D02*
X133711666Y-89751666D01*
X133664047Y-89894523D01*
X133568809Y-89989761D01*
X133425952Y-90037380D01*
X133330714Y-90037380D01*
X134711666Y-90037380D02*
X134140238Y-90037380D01*
X134425952Y-90037380D02*
X134425952Y-89037380D01*
X134330714Y-89180238D01*
X134235476Y-89275476D01*
X134140238Y-89323095D01*
X171176666Y-125232380D02*
X171176666Y-125946666D01*
X171129047Y-126089523D01*
X171033809Y-126184761D01*
X170890952Y-126232380D01*
X170795714Y-126232380D01*
X171605238Y-125327619D02*
X171652857Y-125280000D01*
X171748095Y-125232380D01*
X171986190Y-125232380D01*
X172081428Y-125280000D01*
X172129047Y-125327619D01*
X172176666Y-125422857D01*
X172176666Y-125518095D01*
X172129047Y-125660952D01*
X171557619Y-126232380D01*
X172176666Y-126232380D01*
X133711666Y-98562380D02*
X133711666Y-99276666D01*
X133664047Y-99419523D01*
X133568809Y-99514761D01*
X133425952Y-99562380D01*
X133330714Y-99562380D01*
X134092619Y-98562380D02*
X134711666Y-98562380D01*
X134378333Y-98943333D01*
X134521190Y-98943333D01*
X134616428Y-98990952D01*
X134664047Y-99038571D01*
X134711666Y-99133809D01*
X134711666Y-99371904D01*
X134664047Y-99467142D01*
X134616428Y-99514761D01*
X134521190Y-99562380D01*
X134235476Y-99562380D01*
X134140238Y-99514761D01*
X134092619Y-99467142D01*
X133905666Y-122769380D02*
X133905666Y-123483666D01*
X133858047Y-123626523D01*
X133762809Y-123721761D01*
X133619952Y-123769380D01*
X133524714Y-123769380D01*
X134810428Y-123102714D02*
X134810428Y-123769380D01*
X134572333Y-122721761D02*
X134334238Y-123436047D01*
X134953285Y-123436047D01*
X121371666Y-107452380D02*
X121371666Y-108166666D01*
X121324047Y-108309523D01*
X121228809Y-108404761D01*
X121085952Y-108452380D01*
X120990714Y-108452380D01*
X121752619Y-107452380D02*
X122419285Y-107452380D01*
X121990714Y-108452380D01*
X157440333Y-99512380D02*
X156964142Y-99512380D01*
X156964142Y-98512380D01*
X158297476Y-99512380D02*
X157726047Y-99512380D01*
X158011761Y-99512380D02*
X158011761Y-98512380D01*
X157916523Y-98655238D01*
X157821285Y-98750476D01*
X157726047Y-98798095D01*
X148407380Y-117006666D02*
X148407380Y-117482857D01*
X147407380Y-117482857D01*
X147502619Y-116720952D02*
X147455000Y-116673333D01*
X147407380Y-116578095D01*
X147407380Y-116340000D01*
X147455000Y-116244761D01*
X147502619Y-116197142D01*
X147597857Y-116149523D01*
X147693095Y-116149523D01*
X147835952Y-116197142D01*
X148407380Y-116768571D01*
X148407380Y-116149523D01*
X149947380Y-117475000D02*
X150185476Y-117475000D01*
X150090238Y-117713095D02*
X150185476Y-117475000D01*
X150090238Y-117236904D01*
X150375952Y-117617857D02*
X150185476Y-117475000D01*
X150375952Y-117332142D01*
X163028333Y-95702380D02*
X162695000Y-95226190D01*
X162456904Y-95702380D02*
X162456904Y-94702380D01*
X162837857Y-94702380D01*
X162933095Y-94750000D01*
X162980714Y-94797619D01*
X163028333Y-94892857D01*
X163028333Y-95035714D01*
X162980714Y-95130952D01*
X162933095Y-95178571D01*
X162837857Y-95226190D01*
X162456904Y-95226190D01*
X163980714Y-95702380D02*
X163409285Y-95702380D01*
X163695000Y-95702380D02*
X163695000Y-94702380D01*
X163599761Y-94845238D01*
X163504523Y-94940476D01*
X163409285Y-94988095D01*
X156678333Y-103322380D02*
X156345000Y-102846190D01*
X156106904Y-103322380D02*
X156106904Y-102322380D01*
X156487857Y-102322380D01*
X156583095Y-102370000D01*
X156630714Y-102417619D01*
X156678333Y-102512857D01*
X156678333Y-102655714D01*
X156630714Y-102750952D01*
X156583095Y-102798571D01*
X156487857Y-102846190D01*
X156106904Y-102846190D01*
X157059285Y-102417619D02*
X157106904Y-102370000D01*
X157202142Y-102322380D01*
X157440238Y-102322380D01*
X157535476Y-102370000D01*
X157583095Y-102417619D01*
X157630714Y-102512857D01*
X157630714Y-102608095D01*
X157583095Y-102750952D01*
X157011666Y-103322380D01*
X157630714Y-103322380D01*
X162520333Y-105227380D02*
X162187000Y-104751190D01*
X161948904Y-105227380D02*
X161948904Y-104227380D01*
X162329857Y-104227380D01*
X162425095Y-104275000D01*
X162472714Y-104322619D01*
X162520333Y-104417857D01*
X162520333Y-104560714D01*
X162472714Y-104655952D01*
X162425095Y-104703571D01*
X162329857Y-104751190D01*
X161948904Y-104751190D01*
X162853666Y-104227380D02*
X163472714Y-104227380D01*
X163139380Y-104608333D01*
X163282238Y-104608333D01*
X163377476Y-104655952D01*
X163425095Y-104703571D01*
X163472714Y-104798809D01*
X163472714Y-105036904D01*
X163425095Y-105132142D01*
X163377476Y-105179761D01*
X163282238Y-105227380D01*
X162996523Y-105227380D01*
X162901285Y-105179761D01*
X162853666Y-105132142D01*
X167854333Y-110815380D02*
X167521000Y-110339190D01*
X167282904Y-110815380D02*
X167282904Y-109815380D01*
X167663857Y-109815380D01*
X167759095Y-109863000D01*
X167806714Y-109910619D01*
X167854333Y-110005857D01*
X167854333Y-110148714D01*
X167806714Y-110243952D01*
X167759095Y-110291571D01*
X167663857Y-110339190D01*
X167282904Y-110339190D01*
X168711476Y-110148714D02*
X168711476Y-110815380D01*
X168473380Y-109767761D02*
X168235285Y-110482047D01*
X168854333Y-110482047D01*
X164044333Y-110815380D02*
X163711000Y-110339190D01*
X163472904Y-110815380D02*
X163472904Y-109815380D01*
X163853857Y-109815380D01*
X163949095Y-109863000D01*
X163996714Y-109910619D01*
X164044333Y-110005857D01*
X164044333Y-110148714D01*
X163996714Y-110243952D01*
X163949095Y-110291571D01*
X163853857Y-110339190D01*
X163472904Y-110339190D01*
X164949095Y-109815380D02*
X164472904Y-109815380D01*
X164425285Y-110291571D01*
X164472904Y-110243952D01*
X164568142Y-110196333D01*
X164806238Y-110196333D01*
X164901476Y-110243952D01*
X164949095Y-110291571D01*
X164996714Y-110386809D01*
X164996714Y-110624904D01*
X164949095Y-110720142D01*
X164901476Y-110767761D01*
X164806238Y-110815380D01*
X164568142Y-110815380D01*
X164472904Y-110767761D01*
X164425285Y-110720142D01*
X163012380Y-115736666D02*
X162536190Y-116070000D01*
X163012380Y-116308095D02*
X162012380Y-116308095D01*
X162012380Y-115927142D01*
X162060000Y-115831904D01*
X162107619Y-115784285D01*
X162202857Y-115736666D01*
X162345714Y-115736666D01*
X162440952Y-115784285D01*
X162488571Y-115831904D01*
X162536190Y-115927142D01*
X162536190Y-116308095D01*
X162012380Y-114879523D02*
X162012380Y-115070000D01*
X162060000Y-115165238D01*
X162107619Y-115212857D01*
X162250476Y-115308095D01*
X162440952Y-115355714D01*
X162821904Y-115355714D01*
X162917142Y-115308095D01*
X162964761Y-115260476D01*
X163012380Y-115165238D01*
X163012380Y-114974761D01*
X162964761Y-114879523D01*
X162917142Y-114831904D01*
X162821904Y-114784285D01*
X162583809Y-114784285D01*
X162488571Y-114831904D01*
X162440952Y-114879523D01*
X162393333Y-114974761D01*
X162393333Y-115165238D01*
X162440952Y-115260476D01*
X162488571Y-115308095D01*
X162583809Y-115355714D01*
X156297333Y-117292380D02*
X155964000Y-116816190D01*
X155725904Y-117292380D02*
X155725904Y-116292380D01*
X156106857Y-116292380D01*
X156202095Y-116340000D01*
X156249714Y-116387619D01*
X156297333Y-116482857D01*
X156297333Y-116625714D01*
X156249714Y-116720952D01*
X156202095Y-116768571D01*
X156106857Y-116816190D01*
X155725904Y-116816190D01*
X156630666Y-116292380D02*
X157297333Y-116292380D01*
X156868761Y-117292380D01*
X160980380Y-113831666D02*
X160504190Y-114165000D01*
X160980380Y-114403095D02*
X159980380Y-114403095D01*
X159980380Y-114022142D01*
X160028000Y-113926904D01*
X160075619Y-113879285D01*
X160170857Y-113831666D01*
X160313714Y-113831666D01*
X160408952Y-113879285D01*
X160456571Y-113926904D01*
X160504190Y-114022142D01*
X160504190Y-114403095D01*
X160408952Y-113260238D02*
X160361333Y-113355476D01*
X160313714Y-113403095D01*
X160218476Y-113450714D01*
X160170857Y-113450714D01*
X160075619Y-113403095D01*
X160028000Y-113355476D01*
X159980380Y-113260238D01*
X159980380Y-113069761D01*
X160028000Y-112974523D01*
X160075619Y-112926904D01*
X160170857Y-112879285D01*
X160218476Y-112879285D01*
X160313714Y-112926904D01*
X160361333Y-112974523D01*
X160408952Y-113069761D01*
X160408952Y-113260238D01*
X160456571Y-113355476D01*
X160504190Y-113403095D01*
X160599428Y-113450714D01*
X160789904Y-113450714D01*
X160885142Y-113403095D01*
X160932761Y-113355476D01*
X160980380Y-113260238D01*
X160980380Y-113069761D01*
X160932761Y-112974523D01*
X160885142Y-112926904D01*
X160789904Y-112879285D01*
X160599428Y-112879285D01*
X160504190Y-112926904D01*
X160456571Y-112974523D01*
X160408952Y-113069761D01*
X156043333Y-118943380D02*
X155710000Y-118467190D01*
X155471904Y-118943380D02*
X155471904Y-117943380D01*
X155852857Y-117943380D01*
X155948095Y-117991000D01*
X155995714Y-118038619D01*
X156043333Y-118133857D01*
X156043333Y-118276714D01*
X155995714Y-118371952D01*
X155948095Y-118419571D01*
X155852857Y-118467190D01*
X155471904Y-118467190D01*
X156519523Y-118943380D02*
X156710000Y-118943380D01*
X156805238Y-118895761D01*
X156852857Y-118848142D01*
X156948095Y-118705285D01*
X156995714Y-118514809D01*
X156995714Y-118133857D01*
X156948095Y-118038619D01*
X156900476Y-117991000D01*
X156805238Y-117943380D01*
X156614761Y-117943380D01*
X156519523Y-117991000D01*
X156471904Y-118038619D01*
X156424285Y-118133857D01*
X156424285Y-118371952D01*
X156471904Y-118467190D01*
X156519523Y-118514809D01*
X156614761Y-118562428D01*
X156805238Y-118562428D01*
X156900476Y-118514809D01*
X156948095Y-118467190D01*
X156995714Y-118371952D01*
X155313142Y-107894380D02*
X154979809Y-107418190D01*
X154741714Y-107894380D02*
X154741714Y-106894380D01*
X155122666Y-106894380D01*
X155217904Y-106942000D01*
X155265523Y-106989619D01*
X155313142Y-107084857D01*
X155313142Y-107227714D01*
X155265523Y-107322952D01*
X155217904Y-107370571D01*
X155122666Y-107418190D01*
X154741714Y-107418190D01*
X156265523Y-107894380D02*
X155694095Y-107894380D01*
X155979809Y-107894380D02*
X155979809Y-106894380D01*
X155884571Y-107037238D01*
X155789333Y-107132476D01*
X155694095Y-107180095D01*
X156884571Y-106894380D02*
X156979809Y-106894380D01*
X157075047Y-106942000D01*
X157122666Y-106989619D01*
X157170285Y-107084857D01*
X157217904Y-107275333D01*
X157217904Y-107513428D01*
X157170285Y-107703904D01*
X157122666Y-107799142D01*
X157075047Y-107846761D01*
X156979809Y-107894380D01*
X156884571Y-107894380D01*
X156789333Y-107846761D01*
X156741714Y-107799142D01*
X156694095Y-107703904D01*
X156646476Y-107513428D01*
X156646476Y-107275333D01*
X156694095Y-107084857D01*
X156741714Y-106989619D01*
X156789333Y-106942000D01*
X156884571Y-106894380D01*
X157726142Y-110942380D02*
X157392809Y-110466190D01*
X157154714Y-110942380D02*
X157154714Y-109942380D01*
X157535666Y-109942380D01*
X157630904Y-109990000D01*
X157678523Y-110037619D01*
X157726142Y-110132857D01*
X157726142Y-110275714D01*
X157678523Y-110370952D01*
X157630904Y-110418571D01*
X157535666Y-110466190D01*
X157154714Y-110466190D01*
X158678523Y-110942380D02*
X158107095Y-110942380D01*
X158392809Y-110942380D02*
X158392809Y-109942380D01*
X158297571Y-110085238D01*
X158202333Y-110180476D01*
X158107095Y-110228095D01*
X159630904Y-110942380D02*
X159059476Y-110942380D01*
X159345190Y-110942380D02*
X159345190Y-109942380D01*
X159249952Y-110085238D01*
X159154714Y-110180476D01*
X159059476Y-110228095D01*
X172283380Y-114942857D02*
X171807190Y-115276190D01*
X172283380Y-115514285D02*
X171283380Y-115514285D01*
X171283380Y-115133333D01*
X171331000Y-115038095D01*
X171378619Y-114990476D01*
X171473857Y-114942857D01*
X171616714Y-114942857D01*
X171711952Y-114990476D01*
X171759571Y-115038095D01*
X171807190Y-115133333D01*
X171807190Y-115514285D01*
X172283380Y-113990476D02*
X172283380Y-114561904D01*
X172283380Y-114276190D02*
X171283380Y-114276190D01*
X171426238Y-114371428D01*
X171521476Y-114466666D01*
X171569095Y-114561904D01*
X171378619Y-113609523D02*
X171331000Y-113561904D01*
X171283380Y-113466666D01*
X171283380Y-113228571D01*
X171331000Y-113133333D01*
X171378619Y-113085714D01*
X171473857Y-113038095D01*
X171569095Y-113038095D01*
X171711952Y-113085714D01*
X172283380Y-113657142D01*
X172283380Y-113038095D01*
X140327142Y-118562380D02*
X139993809Y-118086190D01*
X139755714Y-118562380D02*
X139755714Y-117562380D01*
X140136666Y-117562380D01*
X140231904Y-117610000D01*
X140279523Y-117657619D01*
X140327142Y-117752857D01*
X140327142Y-117895714D01*
X140279523Y-117990952D01*
X140231904Y-118038571D01*
X140136666Y-118086190D01*
X139755714Y-118086190D01*
X141279523Y-118562380D02*
X140708095Y-118562380D01*
X140993809Y-118562380D02*
X140993809Y-117562380D01*
X140898571Y-117705238D01*
X140803333Y-117800476D01*
X140708095Y-117848095D01*
X141612857Y-117562380D02*
X142231904Y-117562380D01*
X141898571Y-117943333D01*
X142041428Y-117943333D01*
X142136666Y-117990952D01*
X142184285Y-118038571D01*
X142231904Y-118133809D01*
X142231904Y-118371904D01*
X142184285Y-118467142D01*
X142136666Y-118514761D01*
X142041428Y-118562380D01*
X141755714Y-118562380D01*
X141660476Y-118514761D01*
X141612857Y-118467142D01*
X138930142Y-124658380D02*
X138596809Y-124182190D01*
X138358714Y-124658380D02*
X138358714Y-123658380D01*
X138739666Y-123658380D01*
X138834904Y-123706000D01*
X138882523Y-123753619D01*
X138930142Y-123848857D01*
X138930142Y-123991714D01*
X138882523Y-124086952D01*
X138834904Y-124134571D01*
X138739666Y-124182190D01*
X138358714Y-124182190D01*
X139882523Y-124658380D02*
X139311095Y-124658380D01*
X139596809Y-124658380D02*
X139596809Y-123658380D01*
X139501571Y-123801238D01*
X139406333Y-123896476D01*
X139311095Y-123944095D01*
X140739666Y-123991714D02*
X140739666Y-124658380D01*
X140501571Y-123610761D02*
X140263476Y-124325047D01*
X140882523Y-124325047D01*
X169108380Y-124086857D02*
X168632190Y-124420190D01*
X169108380Y-124658285D02*
X168108380Y-124658285D01*
X168108380Y-124277333D01*
X168156000Y-124182095D01*
X168203619Y-124134476D01*
X168298857Y-124086857D01*
X168441714Y-124086857D01*
X168536952Y-124134476D01*
X168584571Y-124182095D01*
X168632190Y-124277333D01*
X168632190Y-124658285D01*
X169108380Y-123134476D02*
X169108380Y-123705904D01*
X169108380Y-123420190D02*
X168108380Y-123420190D01*
X168251238Y-123515428D01*
X168346476Y-123610666D01*
X168394095Y-123705904D01*
X168108380Y-122229714D02*
X168108380Y-122705904D01*
X168584571Y-122753523D01*
X168536952Y-122705904D01*
X168489333Y-122610666D01*
X168489333Y-122372571D01*
X168536952Y-122277333D01*
X168584571Y-122229714D01*
X168679809Y-122182095D01*
X168917904Y-122182095D01*
X169013142Y-122229714D01*
X169060761Y-122277333D01*
X169108380Y-122372571D01*
X169108380Y-122610666D01*
X169060761Y-122705904D01*
X169013142Y-122753523D01*
X145232380Y-113037857D02*
X144756190Y-113371190D01*
X145232380Y-113609285D02*
X144232380Y-113609285D01*
X144232380Y-113228333D01*
X144280000Y-113133095D01*
X144327619Y-113085476D01*
X144422857Y-113037857D01*
X144565714Y-113037857D01*
X144660952Y-113085476D01*
X144708571Y-113133095D01*
X144756190Y-113228333D01*
X144756190Y-113609285D01*
X145232380Y-112085476D02*
X145232380Y-112656904D01*
X145232380Y-112371190D02*
X144232380Y-112371190D01*
X144375238Y-112466428D01*
X144470476Y-112561666D01*
X144518095Y-112656904D01*
X144232380Y-111228333D02*
X144232380Y-111418809D01*
X144280000Y-111514047D01*
X144327619Y-111561666D01*
X144470476Y-111656904D01*
X144660952Y-111704523D01*
X145041904Y-111704523D01*
X145137142Y-111656904D01*
X145184761Y-111609285D01*
X145232380Y-111514047D01*
X145232380Y-111323571D01*
X145184761Y-111228333D01*
X145137142Y-111180714D01*
X145041904Y-111133095D01*
X144803809Y-111133095D01*
X144708571Y-111180714D01*
X144660952Y-111228333D01*
X144613333Y-111323571D01*
X144613333Y-111514047D01*
X144660952Y-111609285D01*
X144708571Y-111656904D01*
X144803809Y-111704523D01*
X144851380Y-120530857D02*
X144375190Y-120864190D01*
X144851380Y-121102285D02*
X143851380Y-121102285D01*
X143851380Y-120721333D01*
X143899000Y-120626095D01*
X143946619Y-120578476D01*
X144041857Y-120530857D01*
X144184714Y-120530857D01*
X144279952Y-120578476D01*
X144327571Y-120626095D01*
X144375190Y-120721333D01*
X144375190Y-121102285D01*
X144851380Y-119578476D02*
X144851380Y-120149904D01*
X144851380Y-119864190D02*
X143851380Y-119864190D01*
X143994238Y-119959428D01*
X144089476Y-120054666D01*
X144137095Y-120149904D01*
X143851380Y-119245142D02*
X143851380Y-118578476D01*
X144851380Y-119007047D01*
X161536142Y-119959380D02*
X161202809Y-119483190D01*
X160964714Y-119959380D02*
X160964714Y-118959380D01*
X161345666Y-118959380D01*
X161440904Y-119007000D01*
X161488523Y-119054619D01*
X161536142Y-119149857D01*
X161536142Y-119292714D01*
X161488523Y-119387952D01*
X161440904Y-119435571D01*
X161345666Y-119483190D01*
X160964714Y-119483190D01*
X162488523Y-119959380D02*
X161917095Y-119959380D01*
X162202809Y-119959380D02*
X162202809Y-118959380D01*
X162107571Y-119102238D01*
X162012333Y-119197476D01*
X161917095Y-119245095D01*
X163059952Y-119387952D02*
X162964714Y-119340333D01*
X162917095Y-119292714D01*
X162869476Y-119197476D01*
X162869476Y-119149857D01*
X162917095Y-119054619D01*
X162964714Y-119007000D01*
X163059952Y-118959380D01*
X163250428Y-118959380D01*
X163345666Y-119007000D01*
X163393285Y-119054619D01*
X163440904Y-119149857D01*
X163440904Y-119197476D01*
X163393285Y-119292714D01*
X163345666Y-119340333D01*
X163250428Y-119387952D01*
X163059952Y-119387952D01*
X162964714Y-119435571D01*
X162917095Y-119483190D01*
X162869476Y-119578428D01*
X162869476Y-119768904D01*
X162917095Y-119864142D01*
X162964714Y-119911761D01*
X163059952Y-119959380D01*
X163250428Y-119959380D01*
X163345666Y-119911761D01*
X163393285Y-119864142D01*
X163440904Y-119768904D01*
X163440904Y-119578428D01*
X163393285Y-119483190D01*
X163345666Y-119435571D01*
X163250428Y-119387952D01*
X170807142Y-95782380D02*
X170473809Y-95306190D01*
X170235714Y-95782380D02*
X170235714Y-94782380D01*
X170616666Y-94782380D01*
X170711904Y-94830000D01*
X170759523Y-94877619D01*
X170807142Y-94972857D01*
X170807142Y-95115714D01*
X170759523Y-95210952D01*
X170711904Y-95258571D01*
X170616666Y-95306190D01*
X170235714Y-95306190D01*
X171759523Y-95782380D02*
X171188095Y-95782380D01*
X171473809Y-95782380D02*
X171473809Y-94782380D01*
X171378571Y-94925238D01*
X171283333Y-95020476D01*
X171188095Y-95068095D01*
X172235714Y-95782380D02*
X172426190Y-95782380D01*
X172521428Y-95734761D01*
X172569047Y-95687142D01*
X172664285Y-95544285D01*
X172711904Y-95353809D01*
X172711904Y-94972857D01*
X172664285Y-94877619D01*
X172616666Y-94830000D01*
X172521428Y-94782380D01*
X172330952Y-94782380D01*
X172235714Y-94830000D01*
X172188095Y-94877619D01*
X172140476Y-94972857D01*
X172140476Y-95210952D01*
X172188095Y-95306190D01*
X172235714Y-95353809D01*
X172330952Y-95401428D01*
X172521428Y-95401428D01*
X172616666Y-95353809D01*
X172664285Y-95306190D01*
X172711904Y-95210952D01*
X168267142Y-101972380D02*
X167933809Y-101496190D01*
X167695714Y-101972380D02*
X167695714Y-100972380D01*
X168076666Y-100972380D01*
X168171904Y-101020000D01*
X168219523Y-101067619D01*
X168267142Y-101162857D01*
X168267142Y-101305714D01*
X168219523Y-101400952D01*
X168171904Y-101448571D01*
X168076666Y-101496190D01*
X167695714Y-101496190D01*
X168648095Y-101067619D02*
X168695714Y-101020000D01*
X168790952Y-100972380D01*
X169029047Y-100972380D01*
X169124285Y-101020000D01*
X169171904Y-101067619D01*
X169219523Y-101162857D01*
X169219523Y-101258095D01*
X169171904Y-101400952D01*
X168600476Y-101972380D01*
X169219523Y-101972380D01*
X169838571Y-100972380D02*
X169933809Y-100972380D01*
X170029047Y-101020000D01*
X170076666Y-101067619D01*
X170124285Y-101162857D01*
X170171904Y-101353333D01*
X170171904Y-101591428D01*
X170124285Y-101781904D01*
X170076666Y-101877142D01*
X170029047Y-101924761D01*
X169933809Y-101972380D01*
X169838571Y-101972380D01*
X169743333Y-101924761D01*
X169695714Y-101877142D01*
X169648095Y-101781904D01*
X169600476Y-101591428D01*
X169600476Y-101353333D01*
X169648095Y-101162857D01*
X169695714Y-101067619D01*
X169743333Y-101020000D01*
X169838571Y-100972380D01*
X147645380Y-91574857D02*
X147169190Y-91908190D01*
X147645380Y-92146285D02*
X146645380Y-92146285D01*
X146645380Y-91765333D01*
X146693000Y-91670095D01*
X146740619Y-91622476D01*
X146835857Y-91574857D01*
X146978714Y-91574857D01*
X147073952Y-91622476D01*
X147121571Y-91670095D01*
X147169190Y-91765333D01*
X147169190Y-92146285D01*
X146740619Y-91193904D02*
X146693000Y-91146285D01*
X146645380Y-91051047D01*
X146645380Y-90812952D01*
X146693000Y-90717714D01*
X146740619Y-90670095D01*
X146835857Y-90622476D01*
X146931095Y-90622476D01*
X147073952Y-90670095D01*
X147645380Y-91241523D01*
X147645380Y-90622476D01*
X147645380Y-89670095D02*
X147645380Y-90241523D01*
X147645380Y-89955809D02*
X146645380Y-89955809D01*
X146788238Y-90051047D01*
X146883476Y-90146285D01*
X146931095Y-90241523D01*
X139517380Y-92082857D02*
X139041190Y-92416190D01*
X139517380Y-92654285D02*
X138517380Y-92654285D01*
X138517380Y-92273333D01*
X138565000Y-92178095D01*
X138612619Y-92130476D01*
X138707857Y-92082857D01*
X138850714Y-92082857D01*
X138945952Y-92130476D01*
X138993571Y-92178095D01*
X139041190Y-92273333D01*
X139041190Y-92654285D01*
X138612619Y-91701904D02*
X138565000Y-91654285D01*
X138517380Y-91559047D01*
X138517380Y-91320952D01*
X138565000Y-91225714D01*
X138612619Y-91178095D01*
X138707857Y-91130476D01*
X138803095Y-91130476D01*
X138945952Y-91178095D01*
X139517380Y-91749523D01*
X139517380Y-91130476D01*
X138612619Y-90749523D02*
X138565000Y-90701904D01*
X138517380Y-90606666D01*
X138517380Y-90368571D01*
X138565000Y-90273333D01*
X138612619Y-90225714D01*
X138707857Y-90178095D01*
X138803095Y-90178095D01*
X138945952Y-90225714D01*
X139517380Y-90797142D01*
X139517380Y-90178095D01*
X147772380Y-95003857D02*
X147296190Y-95337190D01*
X147772380Y-95575285D02*
X146772380Y-95575285D01*
X146772380Y-95194333D01*
X146820000Y-95099095D01*
X146867619Y-95051476D01*
X146962857Y-95003857D01*
X147105714Y-95003857D01*
X147200952Y-95051476D01*
X147248571Y-95099095D01*
X147296190Y-95194333D01*
X147296190Y-95575285D01*
X146867619Y-94622904D02*
X146820000Y-94575285D01*
X146772380Y-94480047D01*
X146772380Y-94241952D01*
X146820000Y-94146714D01*
X146867619Y-94099095D01*
X146962857Y-94051476D01*
X147058095Y-94051476D01*
X147200952Y-94099095D01*
X147772380Y-94670523D01*
X147772380Y-94051476D01*
X146772380Y-93718142D02*
X146772380Y-93099095D01*
X147153333Y-93432428D01*
X147153333Y-93289571D01*
X147200952Y-93194333D01*
X147248571Y-93146714D01*
X147343809Y-93099095D01*
X147581904Y-93099095D01*
X147677142Y-93146714D01*
X147724761Y-93194333D01*
X147772380Y-93289571D01*
X147772380Y-93575285D01*
X147724761Y-93670523D01*
X147677142Y-93718142D01*
X139517380Y-95638857D02*
X139041190Y-95972190D01*
X139517380Y-96210285D02*
X138517380Y-96210285D01*
X138517380Y-95829333D01*
X138565000Y-95734095D01*
X138612619Y-95686476D01*
X138707857Y-95638857D01*
X138850714Y-95638857D01*
X138945952Y-95686476D01*
X138993571Y-95734095D01*
X139041190Y-95829333D01*
X139041190Y-96210285D01*
X138612619Y-95257904D02*
X138565000Y-95210285D01*
X138517380Y-95115047D01*
X138517380Y-94876952D01*
X138565000Y-94781714D01*
X138612619Y-94734095D01*
X138707857Y-94686476D01*
X138803095Y-94686476D01*
X138945952Y-94734095D01*
X139517380Y-95305523D01*
X139517380Y-94686476D01*
X138850714Y-93829333D02*
X139517380Y-93829333D01*
X138469761Y-94067428D02*
X139184047Y-94305523D01*
X139184047Y-93686476D01*
X143708380Y-110751857D02*
X143232190Y-111085190D01*
X143708380Y-111323285D02*
X142708380Y-111323285D01*
X142708380Y-110942333D01*
X142756000Y-110847095D01*
X142803619Y-110799476D01*
X142898857Y-110751857D01*
X143041714Y-110751857D01*
X143136952Y-110799476D01*
X143184571Y-110847095D01*
X143232190Y-110942333D01*
X143232190Y-111323285D01*
X142803619Y-110370904D02*
X142756000Y-110323285D01*
X142708380Y-110228047D01*
X142708380Y-109989952D01*
X142756000Y-109894714D01*
X142803619Y-109847095D01*
X142898857Y-109799476D01*
X142994095Y-109799476D01*
X143136952Y-109847095D01*
X143708380Y-110418523D01*
X143708380Y-109799476D01*
X142708380Y-108894714D02*
X142708380Y-109370904D01*
X143184571Y-109418523D01*
X143136952Y-109370904D01*
X143089333Y-109275666D01*
X143089333Y-109037571D01*
X143136952Y-108942333D01*
X143184571Y-108894714D01*
X143279809Y-108847095D01*
X143517904Y-108847095D01*
X143613142Y-108894714D01*
X143660761Y-108942333D01*
X143708380Y-109037571D01*
X143708380Y-109275666D01*
X143660761Y-109370904D01*
X143613142Y-109418523D01*
X135326380Y-110370857D02*
X134850190Y-110704190D01*
X135326380Y-110942285D02*
X134326380Y-110942285D01*
X134326380Y-110561333D01*
X134374000Y-110466095D01*
X134421619Y-110418476D01*
X134516857Y-110370857D01*
X134659714Y-110370857D01*
X134754952Y-110418476D01*
X134802571Y-110466095D01*
X134850190Y-110561333D01*
X134850190Y-110942285D01*
X134421619Y-109989904D02*
X134374000Y-109942285D01*
X134326380Y-109847047D01*
X134326380Y-109608952D01*
X134374000Y-109513714D01*
X134421619Y-109466095D01*
X134516857Y-109418476D01*
X134612095Y-109418476D01*
X134754952Y-109466095D01*
X135326380Y-110037523D01*
X135326380Y-109418476D01*
X134326380Y-108561333D02*
X134326380Y-108751809D01*
X134374000Y-108847047D01*
X134421619Y-108894666D01*
X134564476Y-108989904D01*
X134754952Y-109037523D01*
X135135904Y-109037523D01*
X135231142Y-108989904D01*
X135278761Y-108942285D01*
X135326380Y-108847047D01*
X135326380Y-108656571D01*
X135278761Y-108561333D01*
X135231142Y-108513714D01*
X135135904Y-108466095D01*
X134897809Y-108466095D01*
X134802571Y-108513714D01*
X134754952Y-108561333D01*
X134707333Y-108656571D01*
X134707333Y-108847047D01*
X134754952Y-108942285D01*
X134802571Y-108989904D01*
X134897809Y-109037523D01*
X143835380Y-107830857D02*
X143359190Y-108164190D01*
X143835380Y-108402285D02*
X142835380Y-108402285D01*
X142835380Y-108021333D01*
X142883000Y-107926095D01*
X142930619Y-107878476D01*
X143025857Y-107830857D01*
X143168714Y-107830857D01*
X143263952Y-107878476D01*
X143311571Y-107926095D01*
X143359190Y-108021333D01*
X143359190Y-108402285D01*
X142930619Y-107449904D02*
X142883000Y-107402285D01*
X142835380Y-107307047D01*
X142835380Y-107068952D01*
X142883000Y-106973714D01*
X142930619Y-106926095D01*
X143025857Y-106878476D01*
X143121095Y-106878476D01*
X143263952Y-106926095D01*
X143835380Y-107497523D01*
X143835380Y-106878476D01*
X142835380Y-106545142D02*
X142835380Y-105878476D01*
X143835380Y-106307047D01*
X135326380Y-107449857D02*
X134850190Y-107783190D01*
X135326380Y-108021285D02*
X134326380Y-108021285D01*
X134326380Y-107640333D01*
X134374000Y-107545095D01*
X134421619Y-107497476D01*
X134516857Y-107449857D01*
X134659714Y-107449857D01*
X134754952Y-107497476D01*
X134802571Y-107545095D01*
X134850190Y-107640333D01*
X134850190Y-108021285D01*
X134421619Y-107068904D02*
X134374000Y-107021285D01*
X134326380Y-106926047D01*
X134326380Y-106687952D01*
X134374000Y-106592714D01*
X134421619Y-106545095D01*
X134516857Y-106497476D01*
X134612095Y-106497476D01*
X134754952Y-106545095D01*
X135326380Y-107116523D01*
X135326380Y-106497476D01*
X134754952Y-105926047D02*
X134707333Y-106021285D01*
X134659714Y-106068904D01*
X134564476Y-106116523D01*
X134516857Y-106116523D01*
X134421619Y-106068904D01*
X134374000Y-106021285D01*
X134326380Y-105926047D01*
X134326380Y-105735571D01*
X134374000Y-105640333D01*
X134421619Y-105592714D01*
X134516857Y-105545095D01*
X134564476Y-105545095D01*
X134659714Y-105592714D01*
X134707333Y-105640333D01*
X134754952Y-105735571D01*
X134754952Y-105926047D01*
X134802571Y-106021285D01*
X134850190Y-106068904D01*
X134945428Y-106116523D01*
X135135904Y-106116523D01*
X135231142Y-106068904D01*
X135278761Y-106021285D01*
X135326380Y-105926047D01*
X135326380Y-105735571D01*
X135278761Y-105640333D01*
X135231142Y-105592714D01*
X135135904Y-105545095D01*
X134945428Y-105545095D01*
X134850190Y-105592714D01*
X134802571Y-105640333D01*
X134754952Y-105735571D01*
X148407380Y-101226857D02*
X147931190Y-101560190D01*
X148407380Y-101798285D02*
X147407380Y-101798285D01*
X147407380Y-101417333D01*
X147455000Y-101322095D01*
X147502619Y-101274476D01*
X147597857Y-101226857D01*
X147740714Y-101226857D01*
X147835952Y-101274476D01*
X147883571Y-101322095D01*
X147931190Y-101417333D01*
X147931190Y-101798285D01*
X147502619Y-100845904D02*
X147455000Y-100798285D01*
X147407380Y-100703047D01*
X147407380Y-100464952D01*
X147455000Y-100369714D01*
X147502619Y-100322095D01*
X147597857Y-100274476D01*
X147693095Y-100274476D01*
X147835952Y-100322095D01*
X148407380Y-100893523D01*
X148407380Y-100274476D01*
X148407380Y-99798285D02*
X148407380Y-99607809D01*
X148359761Y-99512571D01*
X148312142Y-99464952D01*
X148169285Y-99369714D01*
X147978809Y-99322095D01*
X147597857Y-99322095D01*
X147502619Y-99369714D01*
X147455000Y-99417333D01*
X147407380Y-99512571D01*
X147407380Y-99703047D01*
X147455000Y-99798285D01*
X147502619Y-99845904D01*
X147597857Y-99893523D01*
X147835952Y-99893523D01*
X147931190Y-99845904D01*
X147978809Y-99798285D01*
X148026428Y-99703047D01*
X148026428Y-99512571D01*
X147978809Y-99417333D01*
X147931190Y-99369714D01*
X147835952Y-99322095D01*
X157480095Y-97332380D02*
X157480095Y-98141904D01*
X157527714Y-98237142D01*
X157575333Y-98284761D01*
X157670571Y-98332380D01*
X157861047Y-98332380D01*
X157956285Y-98284761D01*
X158003904Y-98237142D01*
X158051523Y-98141904D01*
X158051523Y-97332380D01*
X159051523Y-98332380D02*
X158480095Y-98332380D01*
X158765809Y-98332380D02*
X158765809Y-97332380D01*
X158670571Y-97475238D01*
X158575333Y-97570476D01*
X158480095Y-97618095D01*
X154392380Y-117601904D02*
X155201904Y-117601904D01*
X155297142Y-117554285D01*
X155344761Y-117506666D01*
X155392380Y-117411428D01*
X155392380Y-117220952D01*
X155344761Y-117125714D01*
X155297142Y-117078095D01*
X155201904Y-117030476D01*
X154392380Y-117030476D01*
X154487619Y-116601904D02*
X154440000Y-116554285D01*
X154392380Y-116459047D01*
X154392380Y-116220952D01*
X154440000Y-116125714D01*
X154487619Y-116078095D01*
X154582857Y-116030476D01*
X154678095Y-116030476D01*
X154820952Y-116078095D01*
X155392380Y-116649523D01*
X155392380Y-116030476D01*
X140970095Y-94575380D02*
X140970095Y-95384904D01*
X141017714Y-95480142D01*
X141065333Y-95527761D01*
X141160571Y-95575380D01*
X141351047Y-95575380D01*
X141446285Y-95527761D01*
X141493904Y-95480142D01*
X141541523Y-95384904D01*
X141541523Y-94575380D01*
X141922476Y-94575380D02*
X142541523Y-94575380D01*
X142208190Y-94956333D01*
X142351047Y-94956333D01*
X142446285Y-95003952D01*
X142493904Y-95051571D01*
X142541523Y-95146809D01*
X142541523Y-95384904D01*
X142493904Y-95480142D01*
X142446285Y-95527761D01*
X142351047Y-95575380D01*
X142065333Y-95575380D01*
X141970095Y-95527761D01*
X141922476Y-95480142D01*
X143814800Y-105167180D02*
X143814800Y-105405276D01*
X143576704Y-105310038D02*
X143814800Y-105405276D01*
X144052895Y-105310038D01*
X143671942Y-105595752D02*
X143814800Y-105405276D01*
X143957657Y-105595752D01*
X143814800Y-105167180D02*
X143814800Y-105405276D01*
X143576704Y-105310038D02*
X143814800Y-105405276D01*
X144052895Y-105310038D01*
X143671942Y-105595752D02*
X143814800Y-105405276D01*
X143957657Y-105595752D01*
X154432095Y-124684380D02*
X154432095Y-125493904D01*
X154479714Y-125589142D01*
X154527333Y-125636761D01*
X154622571Y-125684380D01*
X154813047Y-125684380D01*
X154908285Y-125636761D01*
X154955904Y-125589142D01*
X155003523Y-125493904D01*
X155003523Y-124684380D01*
X155908285Y-125017714D02*
X155908285Y-125684380D01*
X155670190Y-124636761D02*
X155432095Y-125351047D01*
X156051142Y-125351047D01*
X137668095Y-115022380D02*
X137668095Y-115831904D01*
X137715714Y-115927142D01*
X137763333Y-115974761D01*
X137858571Y-116022380D01*
X138049047Y-116022380D01*
X138144285Y-115974761D01*
X138191904Y-115927142D01*
X138239523Y-115831904D01*
X138239523Y-115022380D01*
X139191904Y-115022380D02*
X138715714Y-115022380D01*
X138668095Y-115498571D01*
X138715714Y-115450952D01*
X138810952Y-115403333D01*
X139049047Y-115403333D01*
X139144285Y-115450952D01*
X139191904Y-115498571D01*
X139239523Y-115593809D01*
X139239523Y-115831904D01*
X139191904Y-115927142D01*
X139144285Y-115974761D01*
X139049047Y-116022380D01*
X138810952Y-116022380D01*
X138715714Y-115974761D01*
X138668095Y-115927142D01*
X170267380Y-113156904D02*
X171076904Y-113156904D01*
X171172142Y-113109285D01*
X171219761Y-113061666D01*
X171267380Y-112966428D01*
X171267380Y-112775952D01*
X171219761Y-112680714D01*
X171172142Y-112633095D01*
X171076904Y-112585476D01*
X170267380Y-112585476D01*
X170267380Y-111680714D02*
X170267380Y-111871190D01*
X170315000Y-111966428D01*
X170362619Y-112014047D01*
X170505476Y-112109285D01*
X170695952Y-112156904D01*
X171076904Y-112156904D01*
X171172142Y-112109285D01*
X171219761Y-112061666D01*
X171267380Y-111966428D01*
X171267380Y-111775952D01*
X171219761Y-111680714D01*
X171172142Y-111633095D01*
X171076904Y-111585476D01*
X170838809Y-111585476D01*
X170743571Y-111633095D01*
X170695952Y-111680714D01*
X170648333Y-111775952D01*
X170648333Y-111966428D01*
X170695952Y-112061666D01*
X170743571Y-112109285D01*
X170838809Y-112156904D01*
X138938095Y-121372380D02*
X138938095Y-122181904D01*
X138985714Y-122277142D01*
X139033333Y-122324761D01*
X139128571Y-122372380D01*
X139319047Y-122372380D01*
X139414285Y-122324761D01*
X139461904Y-122277142D01*
X139509523Y-122181904D01*
X139509523Y-121372380D01*
X139890476Y-121372380D02*
X140557142Y-121372380D01*
X140128571Y-122372380D01*
X163155380Y-123443904D02*
X163964904Y-123443904D01*
X164060142Y-123396285D01*
X164107761Y-123348666D01*
X164155380Y-123253428D01*
X164155380Y-123062952D01*
X164107761Y-122967714D01*
X164060142Y-122920095D01*
X163964904Y-122872476D01*
X163155380Y-122872476D01*
X163583952Y-122253428D02*
X163536333Y-122348666D01*
X163488714Y-122396285D01*
X163393476Y-122443904D01*
X163345857Y-122443904D01*
X163250619Y-122396285D01*
X163203000Y-122348666D01*
X163155380Y-122253428D01*
X163155380Y-122062952D01*
X163203000Y-121967714D01*
X163250619Y-121920095D01*
X163345857Y-121872476D01*
X163393476Y-121872476D01*
X163488714Y-121920095D01*
X163536333Y-121967714D01*
X163583952Y-122062952D01*
X163583952Y-122253428D01*
X163631571Y-122348666D01*
X163679190Y-122396285D01*
X163774428Y-122443904D01*
X163964904Y-122443904D01*
X164060142Y-122396285D01*
X164107761Y-122348666D01*
X164155380Y-122253428D01*
X164155380Y-122062952D01*
X164107761Y-121967714D01*
X164060142Y-121920095D01*
X163964904Y-121872476D01*
X163774428Y-121872476D01*
X163679190Y-121920095D01*
X163631571Y-121967714D01*
X163583952Y-122062952D01*
X178659666Y-87386380D02*
X178659666Y-88100666D01*
X178612047Y-88243523D01*
X178516809Y-88338761D01*
X178373952Y-88386380D01*
X178278714Y-88386380D01*
X179612047Y-87386380D02*
X179135857Y-87386380D01*
X179088238Y-87862571D01*
X179135857Y-87814952D01*
X179231095Y-87767333D01*
X179469190Y-87767333D01*
X179564428Y-87814952D01*
X179612047Y-87862571D01*
X179659666Y-87957809D01*
X179659666Y-88195904D01*
X179612047Y-88291142D01*
X179564428Y-88338761D01*
X179469190Y-88386380D01*
X179231095Y-88386380D01*
X179135857Y-88338761D01*
X179088238Y-88291142D01*
X174418666Y-114590380D02*
X174418666Y-115304666D01*
X174371047Y-115447523D01*
X174275809Y-115542761D01*
X174132952Y-115590380D01*
X174037714Y-115590380D01*
X175323428Y-114590380D02*
X175132952Y-114590380D01*
X175037714Y-114638000D01*
X174990095Y-114685619D01*
X174894857Y-114828476D01*
X174847238Y-115018952D01*
X174847238Y-115399904D01*
X174894857Y-115495142D01*
X174942476Y-115542761D01*
X175037714Y-115590380D01*
X175228190Y-115590380D01*
X175323428Y-115542761D01*
X175371047Y-115495142D01*
X175418666Y-115399904D01*
X175418666Y-115161809D01*
X175371047Y-115066571D01*
X175323428Y-115018952D01*
X175228190Y-114971333D01*
X175037714Y-114971333D01*
X174942476Y-115018952D01*
X174894857Y-115066571D01*
X174847238Y-115161809D01*
M02*
