G04 #@! TF.GenerationSoftware,KiCad,Pcbnew,(5.1.5)-3*
G04 #@! TF.CreationDate,2020-08-24T21:30:03-04:00*
G04 #@! TF.ProjectId,power-board,706f7765-722d-4626-9f61-72642e6b6963,v0*
G04 #@! TF.SameCoordinates,Original*
G04 #@! TF.FileFunction,Copper,L3,Inr*
G04 #@! TF.FilePolarity,Positive*
%FSLAX46Y46*%
G04 Gerber Fmt 4.6, Leading zero omitted, Abs format (unit mm)*
G04 Created by KiCad (PCBNEW (5.1.5)-3) date 2020-08-24 21:30:03*
%MOMM*%
%LPD*%
G04 APERTURE LIST*
%ADD10C,2.400000*%
%ADD11C,0.635000*%
%ADD12C,1.540000*%
%ADD13C,2.540000*%
%ADD14C,0.406400*%
%ADD15C,0.304800*%
%ADD16C,0.508000*%
G04 APERTURE END LIST*
D10*
X145000000Y-107950000D03*
X165000000Y-107950000D03*
D11*
X152781000Y-112741400D03*
X152781000Y-113478000D03*
X152781000Y-114265400D03*
D12*
X135950000Y-88950000D03*
X138490000Y-88950000D03*
X141030000Y-88950000D03*
X143570000Y-88950000D03*
X146110000Y-88950000D03*
X148650000Y-88950000D03*
X151190000Y-88950000D03*
X153730000Y-88950000D03*
X156270000Y-88950000D03*
X158810000Y-88950000D03*
X161350000Y-88950000D03*
X163890000Y-88950000D03*
X166430000Y-88950000D03*
X168970000Y-88950000D03*
X171510000Y-88950000D03*
X174050000Y-88950000D03*
X174050000Y-127050000D03*
X171510000Y-127050000D03*
X168970000Y-127050000D03*
X166430000Y-127050000D03*
X163890000Y-127050000D03*
X161350000Y-127050000D03*
X158810000Y-127050000D03*
X156270000Y-127050000D03*
X153730000Y-127050000D03*
X151190000Y-127050000D03*
X148650000Y-127050000D03*
X146110000Y-127050000D03*
X143570000Y-127050000D03*
X141030000Y-127050000D03*
X138490000Y-127050000D03*
X135950000Y-127050000D03*
X135950000Y-91490000D03*
X135950000Y-94030000D03*
X135950000Y-96570000D03*
X135950000Y-99110000D03*
X135950000Y-124510000D03*
X135950000Y-121970000D03*
X135950000Y-119430000D03*
X135950000Y-116890000D03*
D13*
X174960000Y-113080000D03*
X135040000Y-113080000D03*
X174960000Y-102920000D03*
X135040000Y-102920000D03*
D12*
X174040000Y-94106200D03*
X174040000Y-99186200D03*
X174040000Y-96646200D03*
X174040000Y-91566200D03*
X171500000Y-99186200D03*
X174050000Y-121969800D03*
X174050000Y-116889800D03*
X174050000Y-119429800D03*
X174050000Y-124509800D03*
X171510000Y-116889800D03*
D11*
X152400000Y-111125000D03*
X153416000Y-111125000D03*
X151638000Y-102362000D03*
X159385000Y-121920000D03*
X141427200Y-110896400D03*
X145415000Y-122555000D03*
X152400000Y-96520000D03*
X165227000Y-99441000D03*
X162306000Y-106680000D03*
X156464000Y-106426000D03*
X139446000Y-92710000D03*
X140335000Y-115570000D03*
X140970000Y-123190000D03*
X144145000Y-118178500D03*
X147320000Y-119380000D03*
X160274000Y-112014000D03*
X158607000Y-123682000D03*
X161544000Y-123698000D03*
X165557200Y-110693200D03*
X167640000Y-118364000D03*
X153416000Y-108458000D03*
X146304000Y-117475000D03*
X146685000Y-110363000D03*
X139954000Y-111633000D03*
X165354000Y-125730000D03*
X166116000Y-125730000D03*
X166878000Y-125730000D03*
X155702000Y-123317000D03*
X151765000Y-123698000D03*
X154178000Y-123698000D03*
X148717000Y-124333000D03*
X140970000Y-111760000D03*
X145034000Y-125476000D03*
X141097000Y-119380000D03*
X159156500Y-115036500D03*
X155727500Y-115036500D03*
X169037000Y-117475000D03*
X165481000Y-117475000D03*
X158115000Y-119888000D03*
X141605000Y-101473000D03*
X143256000Y-92964000D03*
X140081000Y-98933000D03*
X138023600Y-105511600D03*
X145415000Y-104013000D03*
X155448000Y-122047000D03*
X139192000Y-105664000D03*
X152019000Y-120650000D03*
X143637000Y-105664000D03*
X167944800Y-106019600D03*
X160528000Y-118491000D03*
X161036000Y-118110000D03*
X153797000Y-118237000D03*
X152781000Y-118237000D03*
X151892000Y-117856000D03*
X170818000Y-110236000D03*
X170818000Y-109474000D03*
X156565600Y-107391200D03*
X144881600Y-110032800D03*
X145034000Y-96393000D03*
X157226000Y-120777000D03*
X138861900Y-110312100D03*
X140309600Y-97231200D03*
X140563600Y-95504000D03*
X154178000Y-121666000D03*
X144576800Y-111607600D03*
D14*
X140970000Y-114300000D02*
X140970000Y-111760000D01*
X148488401Y-124104401D02*
X145694401Y-124104401D01*
X142240000Y-120650000D02*
X142240000Y-115570000D01*
X148717000Y-124333000D02*
X148488401Y-124104401D01*
X142240000Y-115570000D02*
X140970000Y-114300000D01*
X145694401Y-124104401D02*
X142240000Y-120650000D01*
X145034000Y-125476000D02*
X141097000Y-121539000D01*
X141097000Y-121539000D02*
X141097000Y-119380000D01*
X141097000Y-119380000D02*
X141097000Y-119380000D01*
X159156500Y-115036500D02*
X155727500Y-115036500D01*
X155727500Y-115036500D02*
X155727500Y-115036500D01*
X169037000Y-117475000D02*
X165481000Y-117475000D01*
X165481000Y-117475000D02*
X165481000Y-117475000D01*
D15*
X158115000Y-119888000D02*
X158115000Y-119888000D01*
X163322000Y-117475000D02*
X165481000Y-117475000D01*
X158115000Y-119888000D02*
X160909000Y-119888000D01*
X160909000Y-119888000D02*
X163322000Y-117475000D01*
D14*
X142240000Y-92964000D02*
X143256000Y-92964000D01*
X141605000Y-101473000D02*
X141605000Y-93599000D01*
X141605000Y-93599000D02*
X142240000Y-92964000D01*
D16*
X138023600Y-100228400D02*
X138023600Y-105511600D01*
X140081000Y-98933000D02*
X139319000Y-98933000D01*
X139319000Y-98933000D02*
X138023600Y-100228400D01*
D14*
X155448000Y-122047000D02*
X155448000Y-122047000D01*
X145415000Y-104013000D02*
X147574000Y-107315000D01*
D16*
X155448000Y-121539000D02*
X155448000Y-122047000D01*
X152908000Y-119126000D02*
X155448000Y-120904000D01*
X151130000Y-119126000D02*
X152908000Y-119126000D01*
X155448000Y-120904000D02*
X155448000Y-121539000D01*
X147574000Y-113030000D02*
X150368000Y-115824000D01*
X147574000Y-107315000D02*
X147574000Y-113030000D01*
X150368000Y-115824000D02*
X150368000Y-118364000D01*
X150368000Y-118364000D02*
X151130000Y-119126000D01*
D15*
X151695711Y-120650000D02*
X152019000Y-120650000D01*
X148336000Y-118999000D02*
X149987000Y-120650000D01*
X148336000Y-118110000D02*
X148336000Y-118999000D01*
X139192000Y-107188000D02*
X142875000Y-111125000D01*
X139192000Y-105664000D02*
X139192000Y-107188000D01*
X149987000Y-120650000D02*
X151695711Y-120650000D01*
X142875000Y-111125000D02*
X144780000Y-112776000D01*
X144780000Y-112776000D02*
X144780000Y-114554000D01*
X144780000Y-114554000D02*
X148336000Y-118110000D01*
X157226000Y-120777000D02*
X157226000Y-120777000D01*
X145542000Y-97790000D02*
X148717000Y-102743000D01*
X152273000Y-115824000D02*
X157226000Y-120777000D01*
X148717000Y-113157000D02*
X151384000Y-115824000D01*
X145034000Y-96393000D02*
X145542000Y-97790000D01*
X151384000Y-115824000D02*
X152273000Y-115824000D01*
X148717000Y-102743000D02*
X148717000Y-113157000D01*
X138544401Y-109994601D02*
X138861900Y-110312100D01*
X137401299Y-99690489D02*
X137401299Y-108851499D01*
X139860588Y-97231200D02*
X137401299Y-99690489D01*
X137401299Y-108851499D02*
X138544401Y-109994601D01*
X140309600Y-97231200D02*
X139860588Y-97231200D01*
X154178000Y-121285000D02*
X154178000Y-121666000D01*
X152781000Y-119888000D02*
X154178000Y-121285000D01*
X149352000Y-118364000D02*
X150876000Y-119888000D01*
X150876000Y-119888000D02*
X152781000Y-119888000D01*
X149352000Y-116332000D02*
X149352000Y-118364000D01*
X144576800Y-111607600D02*
X149352000Y-116332000D01*
X143256000Y-110236000D02*
X144576800Y-111607600D01*
X143256000Y-107188000D02*
X143256000Y-110236000D01*
X141096990Y-100457010D02*
X140462000Y-101092000D01*
X140462000Y-101092000D02*
X140462000Y-104394000D01*
X141096990Y-96037390D02*
X141096990Y-100457010D01*
X140563600Y-95504000D02*
X141096990Y-96037390D01*
X140462000Y-104394000D02*
X143256000Y-107188000D01*
M02*
