M48
; DRILL file {KiCad (5.1.5)-3} date 7/17/2020 1:19:58 AM
; FORMAT={-:-/ absolute / inch / decimal}
; #@! TF.CreationDate,2020-07-17T01:19:58+01:00
; #@! TF.GenerationSoftware,Kicad,Pcbnew,(5.1.5)-3
; #@! TF.FileFunction,Plated,1,4,PTH
FMAT,2
INCH
T1C0.0150
T2C0.0394
T3C0.0858
%
G90
G05
T1
X5.436Y-4.34
X5.48Y-4.16
X5.51Y-4.395
X5.515Y-3.895
X5.525Y-3.625
X5.525Y-4.55
X5.53Y-3.845
X5.55Y-4.35
X5.55Y-4.4
X5.55Y-4.85
X5.555Y-4.7
X5.575Y-3.995
X5.655Y-4.16
X5.665Y-3.625
X5.67Y-4.335
X5.675Y-4.6527
X5.71Y-3.795
X5.71Y-4.94
X5.725Y-4.095
X5.725Y-4.825
X5.76Y-4.625
X5.775Y-4.345
X5.8Y-4.7
X5.855Y-4.895
X5.97Y-4.03
X5.975Y-4.87
X5.98Y-4.64
X5.985Y-4.75
X6.0Y-3.8
X6.0Y-4.375
X6.015Y-4.655
X6.04Y-4.27
X6.04Y-4.375
X6.055Y-4.655
X6.07Y-4.79
X6.07Y-4.87
X6.12Y-4.805
X6.13Y-4.855
X6.131Y-4.529
X6.16Y-4.12
X6.19Y-4.755
X6.225Y-4.72
X6.2444Y-4.8694
X6.266Y-4.529
X6.275Y-4.8
X6.31Y-4.41
X6.32Y-4.665
X6.34Y-4.65
X6.38Y-4.195
X6.38Y-4.25
X6.39Y-4.87
X6.505Y-3.915
X6.515Y-4.625
X6.582Y-4.657
X6.655Y-4.625
X6.6625Y-4.8125
X6.6825Y-4.7925
X6.69Y-4.765
X6.765Y-4.22
X6.015Y-4.4386
X6.015Y-4.4676
X6.015Y-4.4986
T2
X6.752Y-3.905
X6.852Y-3.605
X6.852Y-3.705
X6.852Y-3.805
X6.852Y-3.905
X5.3524Y-3.502
X5.4524Y-3.502
X5.5524Y-3.502
X5.6524Y-3.502
X5.7524Y-3.502
X5.8524Y-3.502
X5.9524Y-3.502
X6.0524Y-3.502
X6.1524Y-3.502
X6.2524Y-3.502
X6.3524Y-3.502
X6.4524Y-3.502
X6.5524Y-3.502
X6.6524Y-3.502
X6.7524Y-3.502
X6.8524Y-3.502
X5.3524Y-4.602
X5.3524Y-4.702
X5.3524Y-4.802
X5.3524Y-4.902
X6.7524Y-4.602
X6.8524Y-4.602
X6.8524Y-4.702
X6.8524Y-4.802
X6.8524Y-4.902
X5.3524Y-5.002
X5.4524Y-5.002
X5.5524Y-5.002
X5.6524Y-5.002
X5.7524Y-5.002
X5.8524Y-5.002
X5.9524Y-5.002
X6.0524Y-5.002
X6.1524Y-5.002
X6.2524Y-5.002
X6.3524Y-5.002
X6.4524Y-5.002
X6.5524Y-5.002
X6.6524Y-5.002
X6.7524Y-5.002
X6.8524Y-5.002
X5.3524Y-3.602
X5.3524Y-3.702
X5.3524Y-3.802
X5.3524Y-3.902
T3
X5.3165Y-4.052
X5.3165Y-4.452
X6.8882Y-4.052
X6.8882Y-4.452
T0
M30
