G04 #@! TF.GenerationSoftware,KiCad,Pcbnew,(5.1.5)-3*
G04 #@! TF.CreationDate,2020-07-16T22:13:53+01:00*
G04 #@! TF.ProjectId,power-board,706f7765-722d-4626-9f61-72642e6b6963,v0*
G04 #@! TF.SameCoordinates,Original*
G04 #@! TF.FileFunction,Copper,L2,Inr*
G04 #@! TF.FilePolarity,Positive*
%FSLAX46Y46*%
G04 Gerber Fmt 4.6, Leading zero omitted, Abs format (unit mm)*
G04 Created by KiCad (PCBNEW (5.1.5)-3) date 2020-07-16 22:13:53*
%MOMM*%
%LPD*%
G04 APERTURE LIST*
%ADD10C,1.540000*%
%ADD11C,2.540000*%
%ADD12C,0.500000*%
%ADD13C,0.457200*%
%ADD14C,0.254000*%
G04 APERTURE END LIST*
D10*
X135950000Y-88950000D03*
X138490000Y-88950000D03*
X141030000Y-88950000D03*
X143570000Y-88950000D03*
X146110000Y-88950000D03*
X148650000Y-88950000D03*
X151190000Y-88950000D03*
X153730000Y-88950000D03*
X156270000Y-88950000D03*
X158810000Y-88950000D03*
X161350000Y-88950000D03*
X163890000Y-88950000D03*
X166430000Y-88950000D03*
X168970000Y-88950000D03*
X171510000Y-88950000D03*
X174050000Y-88950000D03*
X174050000Y-127050000D03*
X171510000Y-127050000D03*
X168970000Y-127050000D03*
X166430000Y-127050000D03*
X163890000Y-127050000D03*
X161350000Y-127050000D03*
X158810000Y-127050000D03*
X156270000Y-127050000D03*
X153730000Y-127050000D03*
X151190000Y-127050000D03*
X148650000Y-127050000D03*
X146110000Y-127050000D03*
X143570000Y-127050000D03*
X141030000Y-127050000D03*
X138490000Y-127050000D03*
X135950000Y-127050000D03*
X135950000Y-91490000D03*
X135950000Y-94030000D03*
X135950000Y-96570000D03*
X135950000Y-99110000D03*
X135950000Y-124510000D03*
X135950000Y-121970000D03*
X135950000Y-119430000D03*
X135950000Y-116890000D03*
D11*
X174960000Y-113080000D03*
X135040000Y-113080000D03*
X174960000Y-102920000D03*
X135040000Y-102920000D03*
D12*
X152781000Y-112528000D03*
X153356000Y-113478000D03*
X152206000Y-113478000D03*
X152781000Y-114428000D03*
D10*
X174040000Y-94106200D03*
X174040000Y-99186200D03*
X174040000Y-96646200D03*
X174040000Y-91566200D03*
X171500000Y-99186200D03*
X174050000Y-121969800D03*
X174050000Y-116889800D03*
X174050000Y-119429800D03*
X174050000Y-124509800D03*
X171510000Y-116889800D03*
D13*
X152400000Y-111125000D03*
X153416000Y-111125000D03*
X151638000Y-102362000D03*
X163195000Y-123190000D03*
X159385000Y-121920000D03*
X140970000Y-110490000D03*
X145415000Y-122555000D03*
X152400000Y-96520000D03*
X165227000Y-99441000D03*
X162052000Y-106553000D03*
X156464000Y-104648000D03*
X140335000Y-92075000D03*
X140335000Y-115570000D03*
X140970000Y-123190000D03*
X144145000Y-118178500D03*
X147320000Y-119380000D03*
X160274000Y-112014000D03*
X167182750Y-118287750D03*
X158607000Y-123682000D03*
X171831000Y-107188000D03*
X144018000Y-110109000D03*
X153162000Y-118237000D03*
X160528000Y-118491000D03*
X153924000Y-118237000D03*
X152273000Y-118237000D03*
X161036000Y-118110000D03*
X153416000Y-108458000D03*
X146304000Y-117475000D03*
X146685000Y-110363000D03*
X139954000Y-111633000D03*
X169926000Y-121031000D03*
X169735500Y-121729500D03*
X169227500Y-122237500D03*
X155702000Y-123317000D03*
X151765000Y-123698000D03*
X154178000Y-123698000D03*
X148717000Y-124333000D03*
X140970000Y-111760000D03*
X145034000Y-125476000D03*
X141097000Y-119380000D03*
X159156500Y-115036500D03*
X155727500Y-115036500D03*
X169037000Y-117475000D03*
X165481000Y-117475000D03*
X158115000Y-119888000D03*
X141605000Y-101473000D03*
X143891000Y-92075000D03*
X140081000Y-98933000D03*
X138074500Y-110236000D03*
X145415000Y-104013000D03*
X155448000Y-122047000D03*
X145034000Y-96393000D03*
X157226000Y-120777000D03*
X140462000Y-97663000D03*
X154178000Y-121666000D03*
X139192000Y-105664000D03*
X152019000Y-120650000D03*
X162052000Y-107950000D03*
X143637000Y-105664000D03*
D14*
G36*
X175231842Y-86667097D02*
G01*
X175493330Y-86746045D01*
X175734503Y-86874278D01*
X175946177Y-87046915D01*
X176120283Y-87257375D01*
X176250200Y-87497650D01*
X176330972Y-87758583D01*
X176365000Y-88082338D01*
X176365000Y-101805655D01*
X176287852Y-101771753D01*
X175139605Y-102920000D01*
X176287852Y-104068247D01*
X176365000Y-104034345D01*
X176365001Y-111965655D01*
X176287852Y-111931753D01*
X175139605Y-113080000D01*
X176287852Y-114228247D01*
X176365001Y-114194345D01*
X176365001Y-127904480D01*
X176332903Y-128231840D01*
X176253955Y-128493329D01*
X176125721Y-128734503D01*
X175953084Y-128946177D01*
X175742625Y-129120283D01*
X175502350Y-129250200D01*
X175241417Y-129330972D01*
X174917663Y-129365000D01*
X135095510Y-129365000D01*
X134768160Y-129332903D01*
X134506671Y-129253955D01*
X134265497Y-129125721D01*
X134053823Y-128953084D01*
X133879717Y-128742625D01*
X133749800Y-128502350D01*
X133669028Y-128241417D01*
X133635000Y-127917663D01*
X133635000Y-121831620D01*
X134545000Y-121831620D01*
X134545000Y-122108380D01*
X134598994Y-122379823D01*
X134704905Y-122635517D01*
X134858665Y-122865635D01*
X135054365Y-123061335D01*
X135284483Y-123215095D01*
X135344610Y-123240000D01*
X135284483Y-123264905D01*
X135054365Y-123418665D01*
X134858665Y-123614365D01*
X134704905Y-123844483D01*
X134598994Y-124100177D01*
X134545000Y-124371620D01*
X134545000Y-124648380D01*
X134598994Y-124919823D01*
X134704905Y-125175517D01*
X134858665Y-125405635D01*
X135054365Y-125601335D01*
X135284483Y-125755095D01*
X135344610Y-125780000D01*
X135284483Y-125804905D01*
X135054365Y-125958665D01*
X134858665Y-126154365D01*
X134704905Y-126384483D01*
X134598994Y-126640177D01*
X134545000Y-126911620D01*
X134545000Y-127188380D01*
X134598994Y-127459823D01*
X134704905Y-127715517D01*
X134858665Y-127945635D01*
X135054365Y-128141335D01*
X135284483Y-128295095D01*
X135540177Y-128401006D01*
X135811620Y-128455000D01*
X136088380Y-128455000D01*
X136359823Y-128401006D01*
X136615517Y-128295095D01*
X136845635Y-128141335D01*
X137041335Y-127945635D01*
X137195095Y-127715517D01*
X137220000Y-127655390D01*
X137244905Y-127715517D01*
X137398665Y-127945635D01*
X137594365Y-128141335D01*
X137824483Y-128295095D01*
X138080177Y-128401006D01*
X138351620Y-128455000D01*
X138628380Y-128455000D01*
X138899823Y-128401006D01*
X139155517Y-128295095D01*
X139385635Y-128141335D01*
X139581335Y-127945635D01*
X139735095Y-127715517D01*
X139760000Y-127655390D01*
X139784905Y-127715517D01*
X139938665Y-127945635D01*
X140134365Y-128141335D01*
X140364483Y-128295095D01*
X140620177Y-128401006D01*
X140891620Y-128455000D01*
X141168380Y-128455000D01*
X141439823Y-128401006D01*
X141695517Y-128295095D01*
X141925635Y-128141335D01*
X142121335Y-127945635D01*
X142275095Y-127715517D01*
X142300000Y-127655390D01*
X142324905Y-127715517D01*
X142478665Y-127945635D01*
X142674365Y-128141335D01*
X142904483Y-128295095D01*
X143160177Y-128401006D01*
X143431620Y-128455000D01*
X143708380Y-128455000D01*
X143979823Y-128401006D01*
X144235517Y-128295095D01*
X144465635Y-128141335D01*
X144661335Y-127945635D01*
X144815095Y-127715517D01*
X144840000Y-127655390D01*
X144864905Y-127715517D01*
X145018665Y-127945635D01*
X145214365Y-128141335D01*
X145444483Y-128295095D01*
X145700177Y-128401006D01*
X145971620Y-128455000D01*
X146248380Y-128455000D01*
X146519823Y-128401006D01*
X146775517Y-128295095D01*
X147005635Y-128141335D01*
X147201335Y-127945635D01*
X147355095Y-127715517D01*
X147380000Y-127655390D01*
X147404905Y-127715517D01*
X147558665Y-127945635D01*
X147754365Y-128141335D01*
X147984483Y-128295095D01*
X148240177Y-128401006D01*
X148511620Y-128455000D01*
X148788380Y-128455000D01*
X149059823Y-128401006D01*
X149315517Y-128295095D01*
X149545635Y-128141335D01*
X149741335Y-127945635D01*
X149895095Y-127715517D01*
X149920000Y-127655390D01*
X149944905Y-127715517D01*
X150098665Y-127945635D01*
X150294365Y-128141335D01*
X150524483Y-128295095D01*
X150780177Y-128401006D01*
X151051620Y-128455000D01*
X151328380Y-128455000D01*
X151599823Y-128401006D01*
X151855517Y-128295095D01*
X152085635Y-128141335D01*
X152281335Y-127945635D01*
X152435095Y-127715517D01*
X152460000Y-127655390D01*
X152484905Y-127715517D01*
X152638665Y-127945635D01*
X152834365Y-128141335D01*
X153064483Y-128295095D01*
X153320177Y-128401006D01*
X153591620Y-128455000D01*
X153868380Y-128455000D01*
X154139823Y-128401006D01*
X154395517Y-128295095D01*
X154625635Y-128141335D01*
X154821335Y-127945635D01*
X154975095Y-127715517D01*
X155000000Y-127655390D01*
X155024905Y-127715517D01*
X155178665Y-127945635D01*
X155374365Y-128141335D01*
X155604483Y-128295095D01*
X155860177Y-128401006D01*
X156131620Y-128455000D01*
X156408380Y-128455000D01*
X156679823Y-128401006D01*
X156935517Y-128295095D01*
X157165635Y-128141335D01*
X157361335Y-127945635D01*
X157515095Y-127715517D01*
X157540000Y-127655390D01*
X157564905Y-127715517D01*
X157718665Y-127945635D01*
X157914365Y-128141335D01*
X158144483Y-128295095D01*
X158400177Y-128401006D01*
X158671620Y-128455000D01*
X158948380Y-128455000D01*
X159219823Y-128401006D01*
X159475517Y-128295095D01*
X159705635Y-128141335D01*
X159901335Y-127945635D01*
X160055095Y-127715517D01*
X160080000Y-127655390D01*
X160104905Y-127715517D01*
X160258665Y-127945635D01*
X160454365Y-128141335D01*
X160684483Y-128295095D01*
X160940177Y-128401006D01*
X161211620Y-128455000D01*
X161488380Y-128455000D01*
X161759823Y-128401006D01*
X162015517Y-128295095D01*
X162245635Y-128141335D01*
X162441335Y-127945635D01*
X162595095Y-127715517D01*
X162620000Y-127655390D01*
X162644905Y-127715517D01*
X162798665Y-127945635D01*
X162994365Y-128141335D01*
X163224483Y-128295095D01*
X163480177Y-128401006D01*
X163751620Y-128455000D01*
X164028380Y-128455000D01*
X164299823Y-128401006D01*
X164555517Y-128295095D01*
X164785635Y-128141335D01*
X164981335Y-127945635D01*
X165135095Y-127715517D01*
X165160000Y-127655390D01*
X165184905Y-127715517D01*
X165338665Y-127945635D01*
X165534365Y-128141335D01*
X165764483Y-128295095D01*
X166020177Y-128401006D01*
X166291620Y-128455000D01*
X166568380Y-128455000D01*
X166839823Y-128401006D01*
X167095517Y-128295095D01*
X167325635Y-128141335D01*
X167521335Y-127945635D01*
X167675095Y-127715517D01*
X167700000Y-127655390D01*
X167724905Y-127715517D01*
X167878665Y-127945635D01*
X168074365Y-128141335D01*
X168304483Y-128295095D01*
X168560177Y-128401006D01*
X168831620Y-128455000D01*
X169108380Y-128455000D01*
X169379823Y-128401006D01*
X169635517Y-128295095D01*
X169865635Y-128141335D01*
X170061335Y-127945635D01*
X170215095Y-127715517D01*
X170240000Y-127655390D01*
X170264905Y-127715517D01*
X170418665Y-127945635D01*
X170614365Y-128141335D01*
X170844483Y-128295095D01*
X171100177Y-128401006D01*
X171371620Y-128455000D01*
X171648380Y-128455000D01*
X171919823Y-128401006D01*
X172175517Y-128295095D01*
X172405635Y-128141335D01*
X172601335Y-127945635D01*
X172755095Y-127715517D01*
X172780000Y-127655390D01*
X172804905Y-127715517D01*
X172958665Y-127945635D01*
X173154365Y-128141335D01*
X173384483Y-128295095D01*
X173640177Y-128401006D01*
X173911620Y-128455000D01*
X174188380Y-128455000D01*
X174459823Y-128401006D01*
X174715517Y-128295095D01*
X174945635Y-128141335D01*
X175141335Y-127945635D01*
X175295095Y-127715517D01*
X175401006Y-127459823D01*
X175455000Y-127188380D01*
X175455000Y-126911620D01*
X175401006Y-126640177D01*
X175295095Y-126384483D01*
X175141335Y-126154365D01*
X174945635Y-125958665D01*
X174715517Y-125804905D01*
X174655149Y-125779900D01*
X174715517Y-125754895D01*
X174945635Y-125601135D01*
X175141335Y-125405435D01*
X175295095Y-125175317D01*
X175401006Y-124919623D01*
X175455000Y-124648180D01*
X175455000Y-124371420D01*
X175401006Y-124099977D01*
X175295095Y-123844283D01*
X175141335Y-123614165D01*
X174945635Y-123418465D01*
X174715517Y-123264705D01*
X174655390Y-123239800D01*
X174715517Y-123214895D01*
X174945635Y-123061135D01*
X175141335Y-122865435D01*
X175295095Y-122635317D01*
X175401006Y-122379623D01*
X175455000Y-122108180D01*
X175455000Y-121831420D01*
X175401006Y-121559977D01*
X175295095Y-121304283D01*
X175141335Y-121074165D01*
X174945635Y-120878465D01*
X174715517Y-120724705D01*
X174661122Y-120702174D01*
X174773724Y-120641987D01*
X174841673Y-120401078D01*
X174050000Y-119609405D01*
X173258327Y-120401078D01*
X173326276Y-120641987D01*
X173446976Y-120698820D01*
X173384483Y-120724705D01*
X173154365Y-120878465D01*
X172958665Y-121074165D01*
X172804905Y-121304283D01*
X172698994Y-121559977D01*
X172645000Y-121831420D01*
X172645000Y-122108180D01*
X172698994Y-122379623D01*
X172804905Y-122635317D01*
X172958665Y-122865435D01*
X173154365Y-123061135D01*
X173384483Y-123214895D01*
X173444610Y-123239800D01*
X173384483Y-123264705D01*
X173154365Y-123418465D01*
X172958665Y-123614165D01*
X172804905Y-123844283D01*
X172698994Y-124099977D01*
X172645000Y-124371420D01*
X172645000Y-124648180D01*
X172698994Y-124919623D01*
X172804905Y-125175317D01*
X172958665Y-125405435D01*
X173154365Y-125601135D01*
X173384483Y-125754895D01*
X173444851Y-125779900D01*
X173384483Y-125804905D01*
X173154365Y-125958665D01*
X172958665Y-126154365D01*
X172804905Y-126384483D01*
X172780000Y-126444610D01*
X172755095Y-126384483D01*
X172601335Y-126154365D01*
X172405635Y-125958665D01*
X172175517Y-125804905D01*
X171919823Y-125698994D01*
X171648380Y-125645000D01*
X171371620Y-125645000D01*
X171100177Y-125698994D01*
X170844483Y-125804905D01*
X170614365Y-125958665D01*
X170418665Y-126154365D01*
X170264905Y-126384483D01*
X170240000Y-126444610D01*
X170215095Y-126384483D01*
X170061335Y-126154365D01*
X169865635Y-125958665D01*
X169635517Y-125804905D01*
X169379823Y-125698994D01*
X169108380Y-125645000D01*
X168831620Y-125645000D01*
X168560177Y-125698994D01*
X168304483Y-125804905D01*
X168074365Y-125958665D01*
X167878665Y-126154365D01*
X167724905Y-126384483D01*
X167700000Y-126444610D01*
X167675095Y-126384483D01*
X167521335Y-126154365D01*
X167325635Y-125958665D01*
X167095517Y-125804905D01*
X166839823Y-125698994D01*
X166568380Y-125645000D01*
X166291620Y-125645000D01*
X166020177Y-125698994D01*
X165764483Y-125804905D01*
X165534365Y-125958665D01*
X165338665Y-126154365D01*
X165184905Y-126384483D01*
X165160000Y-126444610D01*
X165135095Y-126384483D01*
X164981335Y-126154365D01*
X164785635Y-125958665D01*
X164555517Y-125804905D01*
X164299823Y-125698994D01*
X164028380Y-125645000D01*
X163751620Y-125645000D01*
X163480177Y-125698994D01*
X163224483Y-125804905D01*
X162994365Y-125958665D01*
X162798665Y-126154365D01*
X162644905Y-126384483D01*
X162620000Y-126444610D01*
X162595095Y-126384483D01*
X162441335Y-126154365D01*
X162245635Y-125958665D01*
X162015517Y-125804905D01*
X161759823Y-125698994D01*
X161488380Y-125645000D01*
X161211620Y-125645000D01*
X160940177Y-125698994D01*
X160684483Y-125804905D01*
X160454365Y-125958665D01*
X160258665Y-126154365D01*
X160104905Y-126384483D01*
X160080000Y-126444610D01*
X160055095Y-126384483D01*
X159901335Y-126154365D01*
X159705635Y-125958665D01*
X159475517Y-125804905D01*
X159219823Y-125698994D01*
X158948380Y-125645000D01*
X158671620Y-125645000D01*
X158400177Y-125698994D01*
X158144483Y-125804905D01*
X157914365Y-125958665D01*
X157718665Y-126154365D01*
X157564905Y-126384483D01*
X157540000Y-126444610D01*
X157515095Y-126384483D01*
X157361335Y-126154365D01*
X157165635Y-125958665D01*
X156935517Y-125804905D01*
X156679823Y-125698994D01*
X156408380Y-125645000D01*
X156131620Y-125645000D01*
X155860177Y-125698994D01*
X155604483Y-125804905D01*
X155374365Y-125958665D01*
X155178665Y-126154365D01*
X155024905Y-126384483D01*
X155000000Y-126444610D01*
X154975095Y-126384483D01*
X154821335Y-126154365D01*
X154625635Y-125958665D01*
X154395517Y-125804905D01*
X154139823Y-125698994D01*
X153868380Y-125645000D01*
X153591620Y-125645000D01*
X153320177Y-125698994D01*
X153064483Y-125804905D01*
X152834365Y-125958665D01*
X152638665Y-126154365D01*
X152484905Y-126384483D01*
X152460000Y-126444610D01*
X152435095Y-126384483D01*
X152281335Y-126154365D01*
X152085635Y-125958665D01*
X151855517Y-125804905D01*
X151599823Y-125698994D01*
X151328380Y-125645000D01*
X151051620Y-125645000D01*
X150780177Y-125698994D01*
X150524483Y-125804905D01*
X150294365Y-125958665D01*
X150098665Y-126154365D01*
X149944905Y-126384483D01*
X149920000Y-126444610D01*
X149895095Y-126384483D01*
X149741335Y-126154365D01*
X149545635Y-125958665D01*
X149315517Y-125804905D01*
X149059823Y-125698994D01*
X148788380Y-125645000D01*
X148511620Y-125645000D01*
X148240177Y-125698994D01*
X147984483Y-125804905D01*
X147754365Y-125958665D01*
X147558665Y-126154365D01*
X147404905Y-126384483D01*
X147380000Y-126444610D01*
X147355095Y-126384483D01*
X147201335Y-126154365D01*
X147005635Y-125958665D01*
X146775517Y-125804905D01*
X146519823Y-125698994D01*
X146248380Y-125645000D01*
X145971620Y-125645000D01*
X145877166Y-125663788D01*
X145897600Y-125561057D01*
X145897600Y-125390943D01*
X145864413Y-125224097D01*
X145799313Y-125066932D01*
X145704802Y-124925487D01*
X145584513Y-124805198D01*
X145443068Y-124710687D01*
X145285903Y-124645587D01*
X145119057Y-124612400D01*
X144948943Y-124612400D01*
X144782097Y-124645587D01*
X144624932Y-124710687D01*
X144483487Y-124805198D01*
X144363198Y-124925487D01*
X144268687Y-125066932D01*
X144203587Y-125224097D01*
X144170400Y-125390943D01*
X144170400Y-125561057D01*
X144203587Y-125727903D01*
X144235475Y-125804888D01*
X143979823Y-125698994D01*
X143708380Y-125645000D01*
X143431620Y-125645000D01*
X143160177Y-125698994D01*
X142904483Y-125804905D01*
X142674365Y-125958665D01*
X142478665Y-126154365D01*
X142324905Y-126384483D01*
X142300000Y-126444610D01*
X142275095Y-126384483D01*
X142121335Y-126154365D01*
X141925635Y-125958665D01*
X141695517Y-125804905D01*
X141439823Y-125698994D01*
X141168380Y-125645000D01*
X140891620Y-125645000D01*
X140620177Y-125698994D01*
X140364483Y-125804905D01*
X140134365Y-125958665D01*
X139938665Y-126154365D01*
X139784905Y-126384483D01*
X139760000Y-126444610D01*
X139735095Y-126384483D01*
X139581335Y-126154365D01*
X139385635Y-125958665D01*
X139155517Y-125804905D01*
X138899823Y-125698994D01*
X138628380Y-125645000D01*
X138351620Y-125645000D01*
X138080177Y-125698994D01*
X137824483Y-125804905D01*
X137594365Y-125958665D01*
X137398665Y-126154365D01*
X137244905Y-126384483D01*
X137220000Y-126444610D01*
X137195095Y-126384483D01*
X137041335Y-126154365D01*
X136845635Y-125958665D01*
X136615517Y-125804905D01*
X136555390Y-125780000D01*
X136615517Y-125755095D01*
X136845635Y-125601335D01*
X137041335Y-125405635D01*
X137195095Y-125175517D01*
X137301006Y-124919823D01*
X137355000Y-124648380D01*
X137355000Y-124371620D01*
X137330399Y-124247943D01*
X147853400Y-124247943D01*
X147853400Y-124418057D01*
X147886587Y-124584903D01*
X147951687Y-124742068D01*
X148046198Y-124883513D01*
X148166487Y-125003802D01*
X148307932Y-125098313D01*
X148465097Y-125163413D01*
X148631943Y-125196600D01*
X148802057Y-125196600D01*
X148968903Y-125163413D01*
X149126068Y-125098313D01*
X149267513Y-125003802D01*
X149387802Y-124883513D01*
X149482313Y-124742068D01*
X149547413Y-124584903D01*
X149580600Y-124418057D01*
X149580600Y-124247943D01*
X149547413Y-124081097D01*
X149482313Y-123923932D01*
X149387802Y-123782487D01*
X149267513Y-123662198D01*
X149193799Y-123612943D01*
X150901400Y-123612943D01*
X150901400Y-123783057D01*
X150934587Y-123949903D01*
X150999687Y-124107068D01*
X151094198Y-124248513D01*
X151214487Y-124368802D01*
X151355932Y-124463313D01*
X151513097Y-124528413D01*
X151679943Y-124561600D01*
X151850057Y-124561600D01*
X152016903Y-124528413D01*
X152174068Y-124463313D01*
X152315513Y-124368802D01*
X152435802Y-124248513D01*
X152530313Y-124107068D01*
X152595413Y-123949903D01*
X152628600Y-123783057D01*
X152628600Y-123612943D01*
X152595413Y-123446097D01*
X152530313Y-123288932D01*
X152435802Y-123147487D01*
X152315513Y-123027198D01*
X152174068Y-122932687D01*
X152016903Y-122867587D01*
X151850057Y-122834400D01*
X151679943Y-122834400D01*
X151513097Y-122867587D01*
X151355932Y-122932687D01*
X151214487Y-123027198D01*
X151094198Y-123147487D01*
X150999687Y-123288932D01*
X150934587Y-123446097D01*
X150901400Y-123612943D01*
X149193799Y-123612943D01*
X149126068Y-123567687D01*
X148968903Y-123502587D01*
X148802057Y-123469400D01*
X148631943Y-123469400D01*
X148465097Y-123502587D01*
X148307932Y-123567687D01*
X148166487Y-123662198D01*
X148046198Y-123782487D01*
X147951687Y-123923932D01*
X147886587Y-124081097D01*
X147853400Y-124247943D01*
X137330399Y-124247943D01*
X137301006Y-124100177D01*
X137195095Y-123844483D01*
X137041335Y-123614365D01*
X136845635Y-123418665D01*
X136615517Y-123264905D01*
X136555390Y-123240000D01*
X136615517Y-123215095D01*
X136845635Y-123061335D01*
X137041335Y-122865635D01*
X137195095Y-122635517D01*
X137301006Y-122379823D01*
X137355000Y-122108380D01*
X137355000Y-121831620D01*
X137305137Y-121580943D01*
X153314400Y-121580943D01*
X153314400Y-121751057D01*
X153347587Y-121917903D01*
X153412687Y-122075068D01*
X153507198Y-122216513D01*
X153627487Y-122336802D01*
X153768932Y-122431313D01*
X153926097Y-122496413D01*
X154092943Y-122529600D01*
X154263057Y-122529600D01*
X154429903Y-122496413D01*
X154587068Y-122431313D01*
X154653928Y-122386638D01*
X154682687Y-122456068D01*
X154777198Y-122597513D01*
X154897487Y-122717802D01*
X155012416Y-122794596D01*
X154936687Y-122907932D01*
X154871587Y-123065097D01*
X154853732Y-123154865D01*
X154848802Y-123147487D01*
X154728513Y-123027198D01*
X154587068Y-122932687D01*
X154429903Y-122867587D01*
X154263057Y-122834400D01*
X154092943Y-122834400D01*
X153926097Y-122867587D01*
X153768932Y-122932687D01*
X153627487Y-123027198D01*
X153507198Y-123147487D01*
X153412687Y-123288932D01*
X153347587Y-123446097D01*
X153314400Y-123612943D01*
X153314400Y-123783057D01*
X153347587Y-123949903D01*
X153412687Y-124107068D01*
X153507198Y-124248513D01*
X153627487Y-124368802D01*
X153768932Y-124463313D01*
X153926097Y-124528413D01*
X154092943Y-124561600D01*
X154263057Y-124561600D01*
X154429903Y-124528413D01*
X154587068Y-124463313D01*
X154728513Y-124368802D01*
X154848802Y-124248513D01*
X154943313Y-124107068D01*
X155008413Y-123949903D01*
X155026268Y-123860135D01*
X155031198Y-123867513D01*
X155151487Y-123987802D01*
X155292932Y-124082313D01*
X155450097Y-124147413D01*
X155616943Y-124180600D01*
X155787057Y-124180600D01*
X155953903Y-124147413D01*
X156111068Y-124082313D01*
X156252513Y-123987802D01*
X156372802Y-123867513D01*
X156467313Y-123726068D01*
X156532413Y-123568903D01*
X156565600Y-123402057D01*
X156565600Y-123231943D01*
X156532413Y-123065097D01*
X156467313Y-122907932D01*
X156372802Y-122766487D01*
X156252513Y-122646198D01*
X156137584Y-122569404D01*
X156213313Y-122456068D01*
X156278413Y-122298903D01*
X156307545Y-122152443D01*
X168363900Y-122152443D01*
X168363900Y-122322557D01*
X168397087Y-122489403D01*
X168462187Y-122646568D01*
X168556698Y-122788013D01*
X168676987Y-122908302D01*
X168818432Y-123002813D01*
X168975597Y-123067913D01*
X169142443Y-123101100D01*
X169312557Y-123101100D01*
X169479403Y-123067913D01*
X169636568Y-123002813D01*
X169778013Y-122908302D01*
X169898302Y-122788013D01*
X169992813Y-122646568D01*
X170037261Y-122539261D01*
X170144568Y-122494813D01*
X170286013Y-122400302D01*
X170406302Y-122280013D01*
X170500813Y-122138568D01*
X170565913Y-121981403D01*
X170599100Y-121814557D01*
X170599100Y-121644443D01*
X170588278Y-121590037D01*
X170596802Y-121581513D01*
X170691313Y-121440068D01*
X170756413Y-121282903D01*
X170789600Y-121116057D01*
X170789600Y-120945943D01*
X170756413Y-120779097D01*
X170691313Y-120621932D01*
X170596802Y-120480487D01*
X170476513Y-120360198D01*
X170335068Y-120265687D01*
X170177903Y-120200587D01*
X170011057Y-120167400D01*
X169840943Y-120167400D01*
X169674097Y-120200587D01*
X169516932Y-120265687D01*
X169375487Y-120360198D01*
X169255198Y-120480487D01*
X169160687Y-120621932D01*
X169095587Y-120779097D01*
X169062400Y-120945943D01*
X169062400Y-121116057D01*
X169073222Y-121170463D01*
X169064698Y-121178987D01*
X168970187Y-121320432D01*
X168925739Y-121427739D01*
X168818432Y-121472187D01*
X168676987Y-121566698D01*
X168556698Y-121686987D01*
X168462187Y-121828432D01*
X168397087Y-121985597D01*
X168363900Y-122152443D01*
X156307545Y-122152443D01*
X156311600Y-122132057D01*
X156311600Y-121961943D01*
X156278413Y-121795097D01*
X156213313Y-121637932D01*
X156118802Y-121496487D01*
X155998513Y-121376198D01*
X155857068Y-121281687D01*
X155699903Y-121216587D01*
X155533057Y-121183400D01*
X155362943Y-121183400D01*
X155196097Y-121216587D01*
X155038932Y-121281687D01*
X154972072Y-121326362D01*
X154943313Y-121256932D01*
X154848802Y-121115487D01*
X154728513Y-120995198D01*
X154587068Y-120900687D01*
X154429903Y-120835587D01*
X154263057Y-120802400D01*
X154092943Y-120802400D01*
X153926097Y-120835587D01*
X153768932Y-120900687D01*
X153627487Y-120995198D01*
X153507198Y-121115487D01*
X153412687Y-121256932D01*
X153347587Y-121414097D01*
X153314400Y-121580943D01*
X137305137Y-121580943D01*
X137301006Y-121560177D01*
X137195095Y-121304483D01*
X137041335Y-121074365D01*
X136845635Y-120878665D01*
X136615517Y-120724905D01*
X136561122Y-120702374D01*
X136673724Y-120642187D01*
X136695510Y-120564943D01*
X151155400Y-120564943D01*
X151155400Y-120735057D01*
X151188587Y-120901903D01*
X151253687Y-121059068D01*
X151348198Y-121200513D01*
X151468487Y-121320802D01*
X151609932Y-121415313D01*
X151767097Y-121480413D01*
X151933943Y-121513600D01*
X152104057Y-121513600D01*
X152270903Y-121480413D01*
X152428068Y-121415313D01*
X152569513Y-121320802D01*
X152689802Y-121200513D01*
X152784313Y-121059068D01*
X152849413Y-120901903D01*
X152882600Y-120735057D01*
X152882600Y-120691943D01*
X156362400Y-120691943D01*
X156362400Y-120862057D01*
X156395587Y-121028903D01*
X156460687Y-121186068D01*
X156555198Y-121327513D01*
X156675487Y-121447802D01*
X156816932Y-121542313D01*
X156974097Y-121607413D01*
X157140943Y-121640600D01*
X157311057Y-121640600D01*
X157477903Y-121607413D01*
X157635068Y-121542313D01*
X157776513Y-121447802D01*
X157896802Y-121327513D01*
X157991313Y-121186068D01*
X158056413Y-121028903D01*
X158089600Y-120862057D01*
X158089600Y-120751600D01*
X158200057Y-120751600D01*
X158366903Y-120718413D01*
X158524068Y-120653313D01*
X158665513Y-120558802D01*
X158785802Y-120438513D01*
X158880313Y-120297068D01*
X158945413Y-120139903D01*
X158978600Y-119973057D01*
X158978600Y-119802943D01*
X158945413Y-119636097D01*
X158889662Y-119501501D01*
X172640023Y-119501501D01*
X172681104Y-119775195D01*
X172774790Y-120035617D01*
X172837813Y-120153524D01*
X173078722Y-120221473D01*
X173870395Y-119429800D01*
X174229605Y-119429800D01*
X175021278Y-120221473D01*
X175262187Y-120153524D01*
X175380087Y-119903132D01*
X175446872Y-119634550D01*
X175459977Y-119358099D01*
X175418896Y-119084405D01*
X175325210Y-118823983D01*
X175262187Y-118706076D01*
X175021278Y-118638127D01*
X174229605Y-119429800D01*
X173870395Y-119429800D01*
X173078722Y-118638127D01*
X172837813Y-118706076D01*
X172719913Y-118956468D01*
X172653128Y-119225050D01*
X172640023Y-119501501D01*
X158889662Y-119501501D01*
X158880313Y-119478932D01*
X158785802Y-119337487D01*
X158665513Y-119217198D01*
X158524068Y-119122687D01*
X158366903Y-119057587D01*
X158200057Y-119024400D01*
X158029943Y-119024400D01*
X157863097Y-119057587D01*
X157705932Y-119122687D01*
X157564487Y-119217198D01*
X157444198Y-119337487D01*
X157349687Y-119478932D01*
X157284587Y-119636097D01*
X157251400Y-119802943D01*
X157251400Y-119913400D01*
X157140943Y-119913400D01*
X156974097Y-119946587D01*
X156816932Y-120011687D01*
X156675487Y-120106198D01*
X156555198Y-120226487D01*
X156460687Y-120367932D01*
X156395587Y-120525097D01*
X156362400Y-120691943D01*
X152882600Y-120691943D01*
X152882600Y-120564943D01*
X152849413Y-120398097D01*
X152784313Y-120240932D01*
X152689802Y-120099487D01*
X152569513Y-119979198D01*
X152428068Y-119884687D01*
X152270903Y-119819587D01*
X152104057Y-119786400D01*
X151933943Y-119786400D01*
X151767097Y-119819587D01*
X151609932Y-119884687D01*
X151468487Y-119979198D01*
X151348198Y-120099487D01*
X151253687Y-120240932D01*
X151188587Y-120398097D01*
X151155400Y-120564943D01*
X136695510Y-120564943D01*
X136741673Y-120401278D01*
X135950000Y-119609605D01*
X135158327Y-120401278D01*
X135226276Y-120642187D01*
X135346976Y-120699020D01*
X135284483Y-120724905D01*
X135054365Y-120878665D01*
X134858665Y-121074365D01*
X134704905Y-121304483D01*
X134598994Y-121560177D01*
X134545000Y-121831620D01*
X133635000Y-121831620D01*
X133635000Y-119501701D01*
X134540023Y-119501701D01*
X134581104Y-119775395D01*
X134674790Y-120035817D01*
X134737813Y-120153724D01*
X134978722Y-120221673D01*
X135770395Y-119430000D01*
X136129605Y-119430000D01*
X136921278Y-120221673D01*
X137162187Y-120153724D01*
X137280087Y-119903332D01*
X137346872Y-119634750D01*
X137359977Y-119358299D01*
X137350468Y-119294943D01*
X140233400Y-119294943D01*
X140233400Y-119465057D01*
X140266587Y-119631903D01*
X140331687Y-119789068D01*
X140426198Y-119930513D01*
X140546487Y-120050802D01*
X140687932Y-120145313D01*
X140845097Y-120210413D01*
X141011943Y-120243600D01*
X141182057Y-120243600D01*
X141348903Y-120210413D01*
X141506068Y-120145313D01*
X141647513Y-120050802D01*
X141767802Y-119930513D01*
X141862313Y-119789068D01*
X141927413Y-119631903D01*
X141960600Y-119465057D01*
X141960600Y-119294943D01*
X141927413Y-119128097D01*
X141862313Y-118970932D01*
X141767802Y-118829487D01*
X141647513Y-118709198D01*
X141506068Y-118614687D01*
X141348903Y-118549587D01*
X141182057Y-118516400D01*
X141011943Y-118516400D01*
X140845097Y-118549587D01*
X140687932Y-118614687D01*
X140546487Y-118709198D01*
X140426198Y-118829487D01*
X140331687Y-118970932D01*
X140266587Y-119128097D01*
X140233400Y-119294943D01*
X137350468Y-119294943D01*
X137318896Y-119084605D01*
X137225210Y-118824183D01*
X137162187Y-118706276D01*
X136921278Y-118638327D01*
X136129605Y-119430000D01*
X135770395Y-119430000D01*
X134978722Y-118638327D01*
X134737813Y-118706276D01*
X134619913Y-118956668D01*
X134553128Y-119225250D01*
X134540023Y-119501701D01*
X133635000Y-119501701D01*
X133635000Y-116751620D01*
X134545000Y-116751620D01*
X134545000Y-117028380D01*
X134598994Y-117299823D01*
X134704905Y-117555517D01*
X134858665Y-117785635D01*
X135054365Y-117981335D01*
X135284483Y-118135095D01*
X135338878Y-118157626D01*
X135226276Y-118217813D01*
X135158327Y-118458722D01*
X135950000Y-119250395D01*
X136741673Y-118458722D01*
X136673724Y-118217813D01*
X136553024Y-118160980D01*
X136615517Y-118135095D01*
X136845635Y-117981335D01*
X137041335Y-117785635D01*
X137195095Y-117555517D01*
X137263677Y-117389943D01*
X145440400Y-117389943D01*
X145440400Y-117560057D01*
X145473587Y-117726903D01*
X145538687Y-117884068D01*
X145633198Y-118025513D01*
X145753487Y-118145802D01*
X145894932Y-118240313D01*
X146052097Y-118305413D01*
X146218943Y-118338600D01*
X146389057Y-118338600D01*
X146555903Y-118305413D01*
X146713068Y-118240313D01*
X146845322Y-118151943D01*
X151409400Y-118151943D01*
X151409400Y-118322057D01*
X151442587Y-118488903D01*
X151507687Y-118646068D01*
X151602198Y-118787513D01*
X151722487Y-118907802D01*
X151863932Y-119002313D01*
X152021097Y-119067413D01*
X152187943Y-119100600D01*
X152358057Y-119100600D01*
X152524903Y-119067413D01*
X152682068Y-119002313D01*
X152717500Y-118978638D01*
X152752932Y-119002313D01*
X152910097Y-119067413D01*
X153076943Y-119100600D01*
X153247057Y-119100600D01*
X153413903Y-119067413D01*
X153543000Y-119013939D01*
X153672097Y-119067413D01*
X153838943Y-119100600D01*
X154009057Y-119100600D01*
X154175903Y-119067413D01*
X154333068Y-119002313D01*
X154474513Y-118907802D01*
X154594802Y-118787513D01*
X154689313Y-118646068D01*
X154754413Y-118488903D01*
X154770914Y-118405943D01*
X159664400Y-118405943D01*
X159664400Y-118576057D01*
X159697587Y-118742903D01*
X159762687Y-118900068D01*
X159857198Y-119041513D01*
X159977487Y-119161802D01*
X160118932Y-119256313D01*
X160276097Y-119321413D01*
X160442943Y-119354600D01*
X160613057Y-119354600D01*
X160779903Y-119321413D01*
X160937068Y-119256313D01*
X161078513Y-119161802D01*
X161198802Y-119041513D01*
X161263052Y-118945356D01*
X161287903Y-118940413D01*
X161445068Y-118875313D01*
X161586513Y-118780802D01*
X161706802Y-118660513D01*
X161801313Y-118519068D01*
X161866413Y-118361903D01*
X161899600Y-118195057D01*
X161899600Y-118024943D01*
X161866413Y-117858097D01*
X161801313Y-117700932D01*
X161706802Y-117559487D01*
X161586513Y-117439198D01*
X161512799Y-117389943D01*
X164617400Y-117389943D01*
X164617400Y-117560057D01*
X164650587Y-117726903D01*
X164715687Y-117884068D01*
X164810198Y-118025513D01*
X164930487Y-118145802D01*
X165071932Y-118240313D01*
X165229097Y-118305413D01*
X165395943Y-118338600D01*
X165566057Y-118338600D01*
X165732903Y-118305413D01*
X165890068Y-118240313D01*
X166031513Y-118145802D01*
X166151802Y-118025513D01*
X166246313Y-117884068D01*
X166311413Y-117726903D01*
X166344600Y-117560057D01*
X166344600Y-117389943D01*
X168173400Y-117389943D01*
X168173400Y-117560057D01*
X168206587Y-117726903D01*
X168271687Y-117884068D01*
X168366198Y-118025513D01*
X168486487Y-118145802D01*
X168627932Y-118240313D01*
X168785097Y-118305413D01*
X168951943Y-118338600D01*
X169122057Y-118338600D01*
X169288903Y-118305413D01*
X169446068Y-118240313D01*
X169587513Y-118145802D01*
X169707802Y-118025513D01*
X169802313Y-117884068D01*
X169867413Y-117726903D01*
X169900600Y-117560057D01*
X169900600Y-117389943D01*
X169867413Y-117223097D01*
X169802313Y-117065932D01*
X169707802Y-116924487D01*
X169587513Y-116804198D01*
X169508526Y-116751420D01*
X170105000Y-116751420D01*
X170105000Y-117028180D01*
X170158994Y-117299623D01*
X170264905Y-117555317D01*
X170418665Y-117785435D01*
X170614365Y-117981135D01*
X170844483Y-118134895D01*
X171100177Y-118240806D01*
X171371620Y-118294800D01*
X171648380Y-118294800D01*
X171919823Y-118240806D01*
X172175517Y-118134895D01*
X172405635Y-117981135D01*
X172601335Y-117785435D01*
X172755095Y-117555317D01*
X172780000Y-117495190D01*
X172804905Y-117555317D01*
X172958665Y-117785435D01*
X173154365Y-117981135D01*
X173384483Y-118134895D01*
X173438878Y-118157426D01*
X173326276Y-118217613D01*
X173258327Y-118458522D01*
X174050000Y-119250195D01*
X174841673Y-118458522D01*
X174773724Y-118217613D01*
X174653024Y-118160780D01*
X174715517Y-118134895D01*
X174945635Y-117981135D01*
X175141335Y-117785435D01*
X175295095Y-117555317D01*
X175401006Y-117299623D01*
X175455000Y-117028180D01*
X175455000Y-116751420D01*
X175401006Y-116479977D01*
X175295095Y-116224283D01*
X175141335Y-115994165D01*
X174945635Y-115798465D01*
X174715517Y-115644705D01*
X174459823Y-115538794D01*
X174188380Y-115484800D01*
X173911620Y-115484800D01*
X173640177Y-115538794D01*
X173384483Y-115644705D01*
X173154365Y-115798465D01*
X172958665Y-115994165D01*
X172804905Y-116224283D01*
X172780000Y-116284410D01*
X172755095Y-116224283D01*
X172601335Y-115994165D01*
X172405635Y-115798465D01*
X172175517Y-115644705D01*
X171919823Y-115538794D01*
X171648380Y-115484800D01*
X171371620Y-115484800D01*
X171100177Y-115538794D01*
X170844483Y-115644705D01*
X170614365Y-115798465D01*
X170418665Y-115994165D01*
X170264905Y-116224283D01*
X170158994Y-116479977D01*
X170105000Y-116751420D01*
X169508526Y-116751420D01*
X169446068Y-116709687D01*
X169288903Y-116644587D01*
X169122057Y-116611400D01*
X168951943Y-116611400D01*
X168785097Y-116644587D01*
X168627932Y-116709687D01*
X168486487Y-116804198D01*
X168366198Y-116924487D01*
X168271687Y-117065932D01*
X168206587Y-117223097D01*
X168173400Y-117389943D01*
X166344600Y-117389943D01*
X166311413Y-117223097D01*
X166246313Y-117065932D01*
X166151802Y-116924487D01*
X166031513Y-116804198D01*
X165890068Y-116709687D01*
X165732903Y-116644587D01*
X165566057Y-116611400D01*
X165395943Y-116611400D01*
X165229097Y-116644587D01*
X165071932Y-116709687D01*
X164930487Y-116804198D01*
X164810198Y-116924487D01*
X164715687Y-117065932D01*
X164650587Y-117223097D01*
X164617400Y-117389943D01*
X161512799Y-117389943D01*
X161445068Y-117344687D01*
X161287903Y-117279587D01*
X161121057Y-117246400D01*
X160950943Y-117246400D01*
X160784097Y-117279587D01*
X160626932Y-117344687D01*
X160485487Y-117439198D01*
X160365198Y-117559487D01*
X160300948Y-117655644D01*
X160276097Y-117660587D01*
X160118932Y-117725687D01*
X159977487Y-117820198D01*
X159857198Y-117940487D01*
X159762687Y-118081932D01*
X159697587Y-118239097D01*
X159664400Y-118405943D01*
X154770914Y-118405943D01*
X154787600Y-118322057D01*
X154787600Y-118151943D01*
X154754413Y-117985097D01*
X154689313Y-117827932D01*
X154594802Y-117686487D01*
X154474513Y-117566198D01*
X154333068Y-117471687D01*
X154175903Y-117406587D01*
X154009057Y-117373400D01*
X153838943Y-117373400D01*
X153672097Y-117406587D01*
X153543000Y-117460061D01*
X153413903Y-117406587D01*
X153247057Y-117373400D01*
X153076943Y-117373400D01*
X152910097Y-117406587D01*
X152752932Y-117471687D01*
X152717500Y-117495362D01*
X152682068Y-117471687D01*
X152524903Y-117406587D01*
X152358057Y-117373400D01*
X152187943Y-117373400D01*
X152021097Y-117406587D01*
X151863932Y-117471687D01*
X151722487Y-117566198D01*
X151602198Y-117686487D01*
X151507687Y-117827932D01*
X151442587Y-117985097D01*
X151409400Y-118151943D01*
X146845322Y-118151943D01*
X146854513Y-118145802D01*
X146974802Y-118025513D01*
X147069313Y-117884068D01*
X147134413Y-117726903D01*
X147167600Y-117560057D01*
X147167600Y-117389943D01*
X147134413Y-117223097D01*
X147069313Y-117065932D01*
X146974802Y-116924487D01*
X146854513Y-116804198D01*
X146713068Y-116709687D01*
X146555903Y-116644587D01*
X146389057Y-116611400D01*
X146218943Y-116611400D01*
X146052097Y-116644587D01*
X145894932Y-116709687D01*
X145753487Y-116804198D01*
X145633198Y-116924487D01*
X145538687Y-117065932D01*
X145473587Y-117223097D01*
X145440400Y-117389943D01*
X137263677Y-117389943D01*
X137301006Y-117299823D01*
X137355000Y-117028380D01*
X137355000Y-116751620D01*
X137301006Y-116480177D01*
X137195095Y-116224483D01*
X137041335Y-115994365D01*
X136845635Y-115798665D01*
X136615517Y-115644905D01*
X136359823Y-115538994D01*
X136088380Y-115485000D01*
X135811620Y-115485000D01*
X135540177Y-115538994D01*
X135284483Y-115644905D01*
X135054365Y-115798665D01*
X134858665Y-115994365D01*
X134704905Y-116224483D01*
X134598994Y-116480177D01*
X134545000Y-116751620D01*
X133635000Y-116751620D01*
X133635000Y-115024164D01*
X152358784Y-115024164D01*
X152362826Y-115212827D01*
X152523974Y-115279328D01*
X152694998Y-115313113D01*
X152869328Y-115312884D01*
X153040264Y-115278649D01*
X153199174Y-115212827D01*
X153203216Y-115024164D01*
X153130495Y-114951443D01*
X154863900Y-114951443D01*
X154863900Y-115121557D01*
X154897087Y-115288403D01*
X154962187Y-115445568D01*
X155056698Y-115587013D01*
X155176987Y-115707302D01*
X155318432Y-115801813D01*
X155475597Y-115866913D01*
X155642443Y-115900100D01*
X155812557Y-115900100D01*
X155979403Y-115866913D01*
X156136568Y-115801813D01*
X156278013Y-115707302D01*
X156398302Y-115587013D01*
X156492813Y-115445568D01*
X156557913Y-115288403D01*
X156591100Y-115121557D01*
X156591100Y-114951443D01*
X158292900Y-114951443D01*
X158292900Y-115121557D01*
X158326087Y-115288403D01*
X158391187Y-115445568D01*
X158485698Y-115587013D01*
X158605987Y-115707302D01*
X158747432Y-115801813D01*
X158904597Y-115866913D01*
X159071443Y-115900100D01*
X159241557Y-115900100D01*
X159408403Y-115866913D01*
X159565568Y-115801813D01*
X159707013Y-115707302D01*
X159827302Y-115587013D01*
X159921813Y-115445568D01*
X159986913Y-115288403D01*
X160020100Y-115121557D01*
X160020100Y-114951443D01*
X159986913Y-114784597D01*
X159921813Y-114627432D01*
X159827302Y-114485987D01*
X159749167Y-114407852D01*
X173811753Y-114407852D01*
X173940076Y-114699871D01*
X174275695Y-114867723D01*
X174637611Y-114966874D01*
X175011916Y-114993514D01*
X175384227Y-114946618D01*
X175740235Y-114827988D01*
X175979924Y-114699871D01*
X176108247Y-114407852D01*
X174960000Y-113259605D01*
X173811753Y-114407852D01*
X159749167Y-114407852D01*
X159707013Y-114365698D01*
X159565568Y-114271187D01*
X159408403Y-114206087D01*
X159241557Y-114172900D01*
X159071443Y-114172900D01*
X158904597Y-114206087D01*
X158747432Y-114271187D01*
X158605987Y-114365698D01*
X158485698Y-114485987D01*
X158391187Y-114627432D01*
X158326087Y-114784597D01*
X158292900Y-114951443D01*
X156591100Y-114951443D01*
X156557913Y-114784597D01*
X156492813Y-114627432D01*
X156398302Y-114485987D01*
X156278013Y-114365698D01*
X156136568Y-114271187D01*
X155979403Y-114206087D01*
X155812557Y-114172900D01*
X155642443Y-114172900D01*
X155475597Y-114206087D01*
X155318432Y-114271187D01*
X155176987Y-114365698D01*
X155056698Y-114485987D01*
X154962187Y-114627432D01*
X154897087Y-114784597D01*
X154863900Y-114951443D01*
X153130495Y-114951443D01*
X152781000Y-114601948D01*
X152358784Y-115024164D01*
X133635000Y-115024164D01*
X133635000Y-114407852D01*
X133891753Y-114407852D01*
X134020076Y-114699871D01*
X134355695Y-114867723D01*
X134717611Y-114966874D01*
X135091916Y-114993514D01*
X135464227Y-114946618D01*
X135820235Y-114827988D01*
X136059924Y-114699871D01*
X136188247Y-114407852D01*
X135040000Y-113259605D01*
X133891753Y-114407852D01*
X133635000Y-114407852D01*
X133635000Y-114194346D01*
X133712148Y-114228247D01*
X134860395Y-113080000D01*
X135219605Y-113080000D01*
X136367852Y-114228247D01*
X136659871Y-114099924D01*
X136827723Y-113764305D01*
X136926874Y-113402389D01*
X136927613Y-113391998D01*
X151320887Y-113391998D01*
X151321116Y-113566328D01*
X151355351Y-113737264D01*
X151421173Y-113896174D01*
X151609836Y-113900216D01*
X152032052Y-113478000D01*
X151609836Y-113055784D01*
X151421173Y-113059826D01*
X151354672Y-113220974D01*
X151320887Y-113391998D01*
X136927613Y-113391998D01*
X136953514Y-113028084D01*
X136935093Y-112881836D01*
X151783784Y-112881836D01*
X152206000Y-113304052D01*
X152222971Y-113287081D01*
X152396919Y-113461029D01*
X152379948Y-113478000D01*
X152396919Y-113494971D01*
X152222971Y-113668919D01*
X152206000Y-113651948D01*
X151783784Y-114074164D01*
X151787826Y-114262827D01*
X151902203Y-114310027D01*
X151895887Y-114341998D01*
X151896116Y-114516328D01*
X151930351Y-114687264D01*
X151996173Y-114846174D01*
X152184836Y-114850216D01*
X152607052Y-114428000D01*
X152590081Y-114411029D01*
X152764029Y-114237081D01*
X152781000Y-114254052D01*
X152797971Y-114237081D01*
X152971919Y-114411029D01*
X152954948Y-114428000D01*
X153377164Y-114850216D01*
X153565827Y-114846174D01*
X153632328Y-114685026D01*
X153666113Y-114514002D01*
X153665884Y-114339672D01*
X153659968Y-114310132D01*
X153774174Y-114262827D01*
X153778216Y-114074164D01*
X153356000Y-113651948D01*
X153339029Y-113668919D01*
X153165081Y-113494971D01*
X153182052Y-113478000D01*
X153529948Y-113478000D01*
X153952164Y-113900216D01*
X154140827Y-113896174D01*
X154207328Y-113735026D01*
X154241113Y-113564002D01*
X154240884Y-113389672D01*
X154206649Y-113218736D01*
X154170688Y-113131916D01*
X173046486Y-113131916D01*
X173093382Y-113504227D01*
X173212012Y-113860235D01*
X173340129Y-114099924D01*
X173632148Y-114228247D01*
X174780395Y-113080000D01*
X173632148Y-111931753D01*
X173340129Y-112060076D01*
X173172277Y-112395695D01*
X173073126Y-112757611D01*
X173046486Y-113131916D01*
X154170688Y-113131916D01*
X154140827Y-113059826D01*
X153952164Y-113055784D01*
X153529948Y-113478000D01*
X153182052Y-113478000D01*
X153165081Y-113461029D01*
X153339029Y-113287081D01*
X153356000Y-113304052D01*
X153778216Y-112881836D01*
X153774174Y-112693173D01*
X153659797Y-112645973D01*
X153666113Y-112614002D01*
X153665884Y-112439672D01*
X153631649Y-112268736D01*
X153565827Y-112109826D01*
X153377164Y-112105784D01*
X152954948Y-112528000D01*
X152971919Y-112544971D01*
X152797971Y-112718919D01*
X152781000Y-112701948D01*
X152764029Y-112718919D01*
X152590081Y-112544971D01*
X152607052Y-112528000D01*
X152184836Y-112105784D01*
X151996173Y-112109826D01*
X151929672Y-112270974D01*
X151895887Y-112441998D01*
X151896116Y-112616328D01*
X151902032Y-112645868D01*
X151787826Y-112693173D01*
X151783784Y-112881836D01*
X136935093Y-112881836D01*
X136906618Y-112655773D01*
X136787988Y-112299765D01*
X136659871Y-112060076D01*
X136367852Y-111931753D01*
X135219605Y-113080000D01*
X134860395Y-113080000D01*
X133712148Y-111931753D01*
X133635000Y-111965654D01*
X133635000Y-111752148D01*
X133891753Y-111752148D01*
X135040000Y-112900395D01*
X136188247Y-111752148D01*
X136098513Y-111547943D01*
X139090400Y-111547943D01*
X139090400Y-111718057D01*
X139123587Y-111884903D01*
X139188687Y-112042068D01*
X139283198Y-112183513D01*
X139403487Y-112303802D01*
X139544932Y-112398313D01*
X139702097Y-112463413D01*
X139868943Y-112496600D01*
X140039057Y-112496600D01*
X140205903Y-112463413D01*
X140363068Y-112398313D01*
X140377413Y-112388728D01*
X140419487Y-112430802D01*
X140560932Y-112525313D01*
X140718097Y-112590413D01*
X140884943Y-112623600D01*
X141055057Y-112623600D01*
X141221903Y-112590413D01*
X141379068Y-112525313D01*
X141520513Y-112430802D01*
X141640802Y-112310513D01*
X141735313Y-112169068D01*
X141800413Y-112011903D01*
X141816338Y-111931836D01*
X152358784Y-111931836D01*
X152781000Y-112354052D01*
X153203216Y-111931836D01*
X153199367Y-111752148D01*
X173811753Y-111752148D01*
X174960000Y-112900395D01*
X176108247Y-111752148D01*
X175979924Y-111460129D01*
X175644305Y-111292277D01*
X175282389Y-111193126D01*
X174908084Y-111166486D01*
X174535773Y-111213382D01*
X174179765Y-111332012D01*
X173940076Y-111460129D01*
X173811753Y-111752148D01*
X153199367Y-111752148D01*
X153199174Y-111743173D01*
X153038026Y-111676672D01*
X152867002Y-111642887D01*
X152692672Y-111643116D01*
X152521736Y-111677351D01*
X152362826Y-111743173D01*
X152358784Y-111931836D01*
X141816338Y-111931836D01*
X141833600Y-111845057D01*
X141833600Y-111674943D01*
X141800413Y-111508097D01*
X141735313Y-111350932D01*
X141640802Y-111209487D01*
X141520513Y-111089198D01*
X141379068Y-110994687D01*
X141221903Y-110929587D01*
X141055057Y-110896400D01*
X140884943Y-110896400D01*
X140718097Y-110929587D01*
X140560932Y-110994687D01*
X140546587Y-111004272D01*
X140504513Y-110962198D01*
X140363068Y-110867687D01*
X140205903Y-110802587D01*
X140039057Y-110769400D01*
X139868943Y-110769400D01*
X139702097Y-110802587D01*
X139544932Y-110867687D01*
X139403487Y-110962198D01*
X139283198Y-111082487D01*
X139188687Y-111223932D01*
X139123587Y-111381097D01*
X139090400Y-111547943D01*
X136098513Y-111547943D01*
X136059924Y-111460129D01*
X135724305Y-111292277D01*
X135362389Y-111193126D01*
X134988084Y-111166486D01*
X134615773Y-111213382D01*
X134259765Y-111332012D01*
X134020076Y-111460129D01*
X133891753Y-111752148D01*
X133635000Y-111752148D01*
X133635000Y-110150943D01*
X137210900Y-110150943D01*
X137210900Y-110321057D01*
X137244087Y-110487903D01*
X137309187Y-110645068D01*
X137403698Y-110786513D01*
X137523987Y-110906802D01*
X137665432Y-111001313D01*
X137822597Y-111066413D01*
X137989443Y-111099600D01*
X138159557Y-111099600D01*
X138326403Y-111066413D01*
X138483568Y-111001313D01*
X138625013Y-110906802D01*
X138745302Y-110786513D01*
X138839813Y-110645068D01*
X138904913Y-110487903D01*
X138938100Y-110321057D01*
X138938100Y-110150943D01*
X138912839Y-110023943D01*
X143154400Y-110023943D01*
X143154400Y-110194057D01*
X143187587Y-110360903D01*
X143252687Y-110518068D01*
X143347198Y-110659513D01*
X143467487Y-110779802D01*
X143608932Y-110874313D01*
X143766097Y-110939413D01*
X143932943Y-110972600D01*
X144103057Y-110972600D01*
X144269903Y-110939413D01*
X144427068Y-110874313D01*
X144568513Y-110779802D01*
X144688802Y-110659513D01*
X144783313Y-110518068D01*
X144848413Y-110360903D01*
X144864914Y-110277943D01*
X145821400Y-110277943D01*
X145821400Y-110448057D01*
X145854587Y-110614903D01*
X145919687Y-110772068D01*
X146014198Y-110913513D01*
X146134487Y-111033802D01*
X146275932Y-111128313D01*
X146433097Y-111193413D01*
X146599943Y-111226600D01*
X146770057Y-111226600D01*
X146936903Y-111193413D01*
X147094068Y-111128313D01*
X147235513Y-111033802D01*
X147355802Y-110913513D01*
X147450313Y-110772068D01*
X147515413Y-110614903D01*
X147548600Y-110448057D01*
X147548600Y-110277943D01*
X147515413Y-110111097D01*
X147450313Y-109953932D01*
X147355802Y-109812487D01*
X147235513Y-109692198D01*
X147094068Y-109597687D01*
X146936903Y-109532587D01*
X146770057Y-109499400D01*
X146599943Y-109499400D01*
X146433097Y-109532587D01*
X146275932Y-109597687D01*
X146134487Y-109692198D01*
X146014198Y-109812487D01*
X145919687Y-109953932D01*
X145854587Y-110111097D01*
X145821400Y-110277943D01*
X144864914Y-110277943D01*
X144881600Y-110194057D01*
X144881600Y-110023943D01*
X144848413Y-109857097D01*
X144783313Y-109699932D01*
X144688802Y-109558487D01*
X144568513Y-109438198D01*
X144427068Y-109343687D01*
X144269903Y-109278587D01*
X144103057Y-109245400D01*
X143932943Y-109245400D01*
X143766097Y-109278587D01*
X143608932Y-109343687D01*
X143467487Y-109438198D01*
X143347198Y-109558487D01*
X143252687Y-109699932D01*
X143187587Y-109857097D01*
X143154400Y-110023943D01*
X138912839Y-110023943D01*
X138904913Y-109984097D01*
X138839813Y-109826932D01*
X138745302Y-109685487D01*
X138625013Y-109565198D01*
X138483568Y-109470687D01*
X138326403Y-109405587D01*
X138159557Y-109372400D01*
X137989443Y-109372400D01*
X137822597Y-109405587D01*
X137665432Y-109470687D01*
X137523987Y-109565198D01*
X137403698Y-109685487D01*
X137309187Y-109826932D01*
X137244087Y-109984097D01*
X137210900Y-110150943D01*
X133635000Y-110150943D01*
X133635000Y-108372943D01*
X152552400Y-108372943D01*
X152552400Y-108543057D01*
X152585587Y-108709903D01*
X152650687Y-108867068D01*
X152745198Y-109008513D01*
X152865487Y-109128802D01*
X153006932Y-109223313D01*
X153164097Y-109288413D01*
X153330943Y-109321600D01*
X153501057Y-109321600D01*
X153667903Y-109288413D01*
X153825068Y-109223313D01*
X153966513Y-109128802D01*
X154086802Y-109008513D01*
X154181313Y-108867068D01*
X154246413Y-108709903D01*
X154279600Y-108543057D01*
X154279600Y-108372943D01*
X154246413Y-108206097D01*
X154181313Y-108048932D01*
X154086802Y-107907487D01*
X154044258Y-107864943D01*
X161188400Y-107864943D01*
X161188400Y-108035057D01*
X161221587Y-108201903D01*
X161286687Y-108359068D01*
X161381198Y-108500513D01*
X161501487Y-108620802D01*
X161642932Y-108715313D01*
X161800097Y-108780413D01*
X161966943Y-108813600D01*
X162137057Y-108813600D01*
X162303903Y-108780413D01*
X162461068Y-108715313D01*
X162602513Y-108620802D01*
X162722802Y-108500513D01*
X162817313Y-108359068D01*
X162882413Y-108201903D01*
X162915600Y-108035057D01*
X162915600Y-107864943D01*
X162882413Y-107698097D01*
X162817313Y-107540932D01*
X162722802Y-107399487D01*
X162602513Y-107279198D01*
X162461068Y-107184687D01*
X162303903Y-107119587D01*
X162220227Y-107102943D01*
X170967400Y-107102943D01*
X170967400Y-107273057D01*
X171000587Y-107439903D01*
X171065687Y-107597068D01*
X171160198Y-107738513D01*
X171280487Y-107858802D01*
X171421932Y-107953313D01*
X171579097Y-108018413D01*
X171745943Y-108051600D01*
X171916057Y-108051600D01*
X172082903Y-108018413D01*
X172240068Y-107953313D01*
X172381513Y-107858802D01*
X172501802Y-107738513D01*
X172596313Y-107597068D01*
X172661413Y-107439903D01*
X172694600Y-107273057D01*
X172694600Y-107102943D01*
X172661413Y-106936097D01*
X172596313Y-106778932D01*
X172501802Y-106637487D01*
X172381513Y-106517198D01*
X172240068Y-106422687D01*
X172082903Y-106357587D01*
X171916057Y-106324400D01*
X171745943Y-106324400D01*
X171579097Y-106357587D01*
X171421932Y-106422687D01*
X171280487Y-106517198D01*
X171160198Y-106637487D01*
X171065687Y-106778932D01*
X171000587Y-106936097D01*
X170967400Y-107102943D01*
X162220227Y-107102943D01*
X162137057Y-107086400D01*
X161966943Y-107086400D01*
X161800097Y-107119587D01*
X161642932Y-107184687D01*
X161501487Y-107279198D01*
X161381198Y-107399487D01*
X161286687Y-107540932D01*
X161221587Y-107698097D01*
X161188400Y-107864943D01*
X154044258Y-107864943D01*
X153966513Y-107787198D01*
X153825068Y-107692687D01*
X153667903Y-107627587D01*
X153501057Y-107594400D01*
X153330943Y-107594400D01*
X153164097Y-107627587D01*
X153006932Y-107692687D01*
X152865487Y-107787198D01*
X152745198Y-107907487D01*
X152650687Y-108048932D01*
X152585587Y-108206097D01*
X152552400Y-108372943D01*
X133635000Y-108372943D01*
X133635000Y-105578943D01*
X138328400Y-105578943D01*
X138328400Y-105749057D01*
X138361587Y-105915903D01*
X138426687Y-106073068D01*
X138521198Y-106214513D01*
X138641487Y-106334802D01*
X138782932Y-106429313D01*
X138940097Y-106494413D01*
X139106943Y-106527600D01*
X139277057Y-106527600D01*
X139443903Y-106494413D01*
X139601068Y-106429313D01*
X139742513Y-106334802D01*
X139862802Y-106214513D01*
X139957313Y-106073068D01*
X140022413Y-105915903D01*
X140055600Y-105749057D01*
X140055600Y-105578943D01*
X142773400Y-105578943D01*
X142773400Y-105749057D01*
X142806587Y-105915903D01*
X142871687Y-106073068D01*
X142966198Y-106214513D01*
X143086487Y-106334802D01*
X143227932Y-106429313D01*
X143385097Y-106494413D01*
X143551943Y-106527600D01*
X143722057Y-106527600D01*
X143888903Y-106494413D01*
X144046068Y-106429313D01*
X144187513Y-106334802D01*
X144307802Y-106214513D01*
X144402313Y-106073068D01*
X144467413Y-105915903D01*
X144500600Y-105749057D01*
X144500600Y-105578943D01*
X144467413Y-105412097D01*
X144402313Y-105254932D01*
X144307802Y-105113487D01*
X144187513Y-104993198D01*
X144046068Y-104898687D01*
X143888903Y-104833587D01*
X143722057Y-104800400D01*
X143551943Y-104800400D01*
X143385097Y-104833587D01*
X143227932Y-104898687D01*
X143086487Y-104993198D01*
X142966198Y-105113487D01*
X142871687Y-105254932D01*
X142806587Y-105412097D01*
X142773400Y-105578943D01*
X140055600Y-105578943D01*
X140022413Y-105412097D01*
X139957313Y-105254932D01*
X139862802Y-105113487D01*
X139742513Y-104993198D01*
X139601068Y-104898687D01*
X139443903Y-104833587D01*
X139277057Y-104800400D01*
X139106943Y-104800400D01*
X138940097Y-104833587D01*
X138782932Y-104898687D01*
X138641487Y-104993198D01*
X138521198Y-105113487D01*
X138426687Y-105254932D01*
X138361587Y-105412097D01*
X138328400Y-105578943D01*
X133635000Y-105578943D01*
X133635000Y-104247852D01*
X133891753Y-104247852D01*
X134020076Y-104539871D01*
X134355695Y-104707723D01*
X134717611Y-104806874D01*
X135091916Y-104833514D01*
X135464227Y-104786618D01*
X135820235Y-104667988D01*
X136059924Y-104539871D01*
X136188247Y-104247852D01*
X135040000Y-103099605D01*
X133891753Y-104247852D01*
X133635000Y-104247852D01*
X133635000Y-104034346D01*
X133712148Y-104068247D01*
X134860395Y-102920000D01*
X135219605Y-102920000D01*
X136367852Y-104068247D01*
X136659871Y-103939924D01*
X136665863Y-103927943D01*
X144551400Y-103927943D01*
X144551400Y-104098057D01*
X144584587Y-104264903D01*
X144649687Y-104422068D01*
X144744198Y-104563513D01*
X144864487Y-104683802D01*
X145005932Y-104778313D01*
X145163097Y-104843413D01*
X145329943Y-104876600D01*
X145500057Y-104876600D01*
X145666903Y-104843413D01*
X145824068Y-104778313D01*
X145965513Y-104683802D01*
X146085802Y-104563513D01*
X146180313Y-104422068D01*
X146245413Y-104264903D01*
X146248804Y-104247852D01*
X173811753Y-104247852D01*
X173940076Y-104539871D01*
X174275695Y-104707723D01*
X174637611Y-104806874D01*
X175011916Y-104833514D01*
X175384227Y-104786618D01*
X175740235Y-104667988D01*
X175979924Y-104539871D01*
X176108247Y-104247852D01*
X174960000Y-103099605D01*
X173811753Y-104247852D01*
X146248804Y-104247852D01*
X146278600Y-104098057D01*
X146278600Y-103927943D01*
X146245413Y-103761097D01*
X146180313Y-103603932D01*
X146085802Y-103462487D01*
X145965513Y-103342198D01*
X145824068Y-103247687D01*
X145666903Y-103182587D01*
X145500057Y-103149400D01*
X145329943Y-103149400D01*
X145163097Y-103182587D01*
X145005932Y-103247687D01*
X144864487Y-103342198D01*
X144744198Y-103462487D01*
X144649687Y-103603932D01*
X144584587Y-103761097D01*
X144551400Y-103927943D01*
X136665863Y-103927943D01*
X136827723Y-103604305D01*
X136926874Y-103242389D01*
X136946124Y-102971916D01*
X173046486Y-102971916D01*
X173093382Y-103344227D01*
X173212012Y-103700235D01*
X173340129Y-103939924D01*
X173632148Y-104068247D01*
X174780395Y-102920000D01*
X173632148Y-101771753D01*
X173340129Y-101900076D01*
X173172277Y-102235695D01*
X173073126Y-102597611D01*
X173046486Y-102971916D01*
X136946124Y-102971916D01*
X136953514Y-102868084D01*
X136906618Y-102495773D01*
X136787988Y-102139765D01*
X136659871Y-101900076D01*
X136367852Y-101771753D01*
X135219605Y-102920000D01*
X134860395Y-102920000D01*
X133712148Y-101771753D01*
X133635000Y-101805654D01*
X133635000Y-101592148D01*
X133891753Y-101592148D01*
X135040000Y-102740395D01*
X136188247Y-101592148D01*
X136098513Y-101387943D01*
X140741400Y-101387943D01*
X140741400Y-101558057D01*
X140774587Y-101724903D01*
X140839687Y-101882068D01*
X140934198Y-102023513D01*
X141054487Y-102143802D01*
X141195932Y-102238313D01*
X141353097Y-102303413D01*
X141519943Y-102336600D01*
X141690057Y-102336600D01*
X141856903Y-102303413D01*
X142014068Y-102238313D01*
X142155513Y-102143802D01*
X142275802Y-102023513D01*
X142370313Y-101882068D01*
X142435413Y-101724903D01*
X142461819Y-101592148D01*
X173811753Y-101592148D01*
X174960000Y-102740395D01*
X176108247Y-101592148D01*
X175979924Y-101300129D01*
X175644305Y-101132277D01*
X175282389Y-101033126D01*
X174908084Y-101006486D01*
X174535773Y-101053382D01*
X174179765Y-101172012D01*
X173940076Y-101300129D01*
X173811753Y-101592148D01*
X142461819Y-101592148D01*
X142468600Y-101558057D01*
X142468600Y-101387943D01*
X142435413Y-101221097D01*
X142370313Y-101063932D01*
X142275802Y-100922487D01*
X142155513Y-100802198D01*
X142014068Y-100707687D01*
X141856903Y-100642587D01*
X141690057Y-100609400D01*
X141519943Y-100609400D01*
X141353097Y-100642587D01*
X141195932Y-100707687D01*
X141054487Y-100802198D01*
X140934198Y-100922487D01*
X140839687Y-101063932D01*
X140774587Y-101221097D01*
X140741400Y-101387943D01*
X136098513Y-101387943D01*
X136059924Y-101300129D01*
X135724305Y-101132277D01*
X135362389Y-101033126D01*
X134988084Y-101006486D01*
X134615773Y-101053382D01*
X134259765Y-101172012D01*
X134020076Y-101300129D01*
X133891753Y-101592148D01*
X133635000Y-101592148D01*
X133635000Y-98971620D01*
X134545000Y-98971620D01*
X134545000Y-99248380D01*
X134598994Y-99519823D01*
X134704905Y-99775517D01*
X134858665Y-100005635D01*
X135054365Y-100201335D01*
X135284483Y-100355095D01*
X135540177Y-100461006D01*
X135811620Y-100515000D01*
X136088380Y-100515000D01*
X136359823Y-100461006D01*
X136615517Y-100355095D01*
X136845635Y-100201335D01*
X137041335Y-100005635D01*
X137195095Y-99775517D01*
X137301006Y-99519823D01*
X137355000Y-99248380D01*
X137355000Y-98971620D01*
X137330399Y-98847943D01*
X139217400Y-98847943D01*
X139217400Y-99018057D01*
X139250587Y-99184903D01*
X139315687Y-99342068D01*
X139410198Y-99483513D01*
X139530487Y-99603802D01*
X139671932Y-99698313D01*
X139829097Y-99763413D01*
X139995943Y-99796600D01*
X140166057Y-99796600D01*
X140332903Y-99763413D01*
X140490068Y-99698313D01*
X140631513Y-99603802D01*
X140751802Y-99483513D01*
X140846313Y-99342068D01*
X140911413Y-99184903D01*
X140944600Y-99018057D01*
X140944600Y-98847943D01*
X140911413Y-98681097D01*
X140846313Y-98523932D01*
X140801638Y-98457072D01*
X140871068Y-98428313D01*
X141012513Y-98333802D01*
X141132802Y-98213513D01*
X141227313Y-98072068D01*
X141292413Y-97914903D01*
X141325600Y-97748057D01*
X141325600Y-97577943D01*
X141292413Y-97411097D01*
X141227313Y-97253932D01*
X141132802Y-97112487D01*
X141012513Y-96992198D01*
X140871068Y-96897687D01*
X140713903Y-96832587D01*
X140547057Y-96799400D01*
X140376943Y-96799400D01*
X140210097Y-96832587D01*
X140052932Y-96897687D01*
X139911487Y-96992198D01*
X139791198Y-97112487D01*
X139696687Y-97253932D01*
X139631587Y-97411097D01*
X139598400Y-97577943D01*
X139598400Y-97748057D01*
X139631587Y-97914903D01*
X139696687Y-98072068D01*
X139741362Y-98138928D01*
X139671932Y-98167687D01*
X139530487Y-98262198D01*
X139410198Y-98382487D01*
X139315687Y-98523932D01*
X139250587Y-98681097D01*
X139217400Y-98847943D01*
X137330399Y-98847943D01*
X137301006Y-98700177D01*
X137195095Y-98444483D01*
X137041335Y-98214365D01*
X136845635Y-98018665D01*
X136615517Y-97864905D01*
X136561122Y-97842374D01*
X136673724Y-97782187D01*
X136741673Y-97541278D01*
X135950000Y-96749605D01*
X135158327Y-97541278D01*
X135226276Y-97782187D01*
X135346976Y-97839020D01*
X135284483Y-97864905D01*
X135054365Y-98018665D01*
X134858665Y-98214365D01*
X134704905Y-98444483D01*
X134598994Y-98700177D01*
X134545000Y-98971620D01*
X133635000Y-98971620D01*
X133635000Y-96641701D01*
X134540023Y-96641701D01*
X134581104Y-96915395D01*
X134674790Y-97175817D01*
X134737813Y-97293724D01*
X134978722Y-97361673D01*
X135770395Y-96570000D01*
X136129605Y-96570000D01*
X136921278Y-97361673D01*
X137162187Y-97293724D01*
X137280087Y-97043332D01*
X137346872Y-96774750D01*
X137359977Y-96498299D01*
X137331405Y-96307943D01*
X144170400Y-96307943D01*
X144170400Y-96478057D01*
X144203587Y-96644903D01*
X144268687Y-96802068D01*
X144363198Y-96943513D01*
X144483487Y-97063802D01*
X144624932Y-97158313D01*
X144782097Y-97223413D01*
X144948943Y-97256600D01*
X145119057Y-97256600D01*
X145285903Y-97223413D01*
X145443068Y-97158313D01*
X145584513Y-97063802D01*
X145704802Y-96943513D01*
X145799313Y-96802068D01*
X145864413Y-96644903D01*
X145897600Y-96478057D01*
X145897600Y-96307943D01*
X145864413Y-96141097D01*
X145799313Y-95983932D01*
X145704802Y-95842487D01*
X145584513Y-95722198D01*
X145443068Y-95627687D01*
X145285903Y-95562587D01*
X145119057Y-95529400D01*
X144948943Y-95529400D01*
X144782097Y-95562587D01*
X144624932Y-95627687D01*
X144483487Y-95722198D01*
X144363198Y-95842487D01*
X144268687Y-95983932D01*
X144203587Y-96141097D01*
X144170400Y-96307943D01*
X137331405Y-96307943D01*
X137318896Y-96224605D01*
X137225210Y-95964183D01*
X137162187Y-95846276D01*
X136921278Y-95778327D01*
X136129605Y-96570000D01*
X135770395Y-96570000D01*
X134978722Y-95778327D01*
X134737813Y-95846276D01*
X134619913Y-96096668D01*
X134553128Y-96365250D01*
X134540023Y-96641701D01*
X133635000Y-96641701D01*
X133635000Y-88811620D01*
X134545000Y-88811620D01*
X134545000Y-89088380D01*
X134598994Y-89359823D01*
X134704905Y-89615517D01*
X134858665Y-89845635D01*
X135054365Y-90041335D01*
X135284483Y-90195095D01*
X135344610Y-90220000D01*
X135284483Y-90244905D01*
X135054365Y-90398665D01*
X134858665Y-90594365D01*
X134704905Y-90824483D01*
X134598994Y-91080177D01*
X134545000Y-91351620D01*
X134545000Y-91628380D01*
X134598994Y-91899823D01*
X134704905Y-92155517D01*
X134858665Y-92385635D01*
X135054365Y-92581335D01*
X135284483Y-92735095D01*
X135344610Y-92760000D01*
X135284483Y-92784905D01*
X135054365Y-92938665D01*
X134858665Y-93134365D01*
X134704905Y-93364483D01*
X134598994Y-93620177D01*
X134545000Y-93891620D01*
X134545000Y-94168380D01*
X134598994Y-94439823D01*
X134704905Y-94695517D01*
X134858665Y-94925635D01*
X135054365Y-95121335D01*
X135284483Y-95275095D01*
X135338878Y-95297626D01*
X135226276Y-95357813D01*
X135158327Y-95598722D01*
X135950000Y-96390395D01*
X136741673Y-95598722D01*
X136673724Y-95357813D01*
X136553024Y-95300980D01*
X136615517Y-95275095D01*
X136845635Y-95121335D01*
X137041335Y-94925635D01*
X137195095Y-94695517D01*
X137301006Y-94439823D01*
X137355000Y-94168380D01*
X137355000Y-93891620D01*
X137301006Y-93620177D01*
X137195095Y-93364483D01*
X137041335Y-93134365D01*
X136845635Y-92938665D01*
X136615517Y-92784905D01*
X136555390Y-92760000D01*
X136615517Y-92735095D01*
X136845635Y-92581335D01*
X137041335Y-92385635D01*
X137195095Y-92155517D01*
X137263677Y-91989943D01*
X143027400Y-91989943D01*
X143027400Y-92160057D01*
X143060587Y-92326903D01*
X143125687Y-92484068D01*
X143220198Y-92625513D01*
X143340487Y-92745802D01*
X143481932Y-92840313D01*
X143639097Y-92905413D01*
X143805943Y-92938600D01*
X143976057Y-92938600D01*
X144142903Y-92905413D01*
X144300068Y-92840313D01*
X144441513Y-92745802D01*
X144561802Y-92625513D01*
X144656313Y-92484068D01*
X144721413Y-92326903D01*
X144754600Y-92160057D01*
X144754600Y-91989943D01*
X144721413Y-91823097D01*
X144656313Y-91665932D01*
X144561802Y-91524487D01*
X144441513Y-91404198D01*
X144300068Y-91309687D01*
X144142903Y-91244587D01*
X143976057Y-91211400D01*
X143805943Y-91211400D01*
X143639097Y-91244587D01*
X143481932Y-91309687D01*
X143340487Y-91404198D01*
X143220198Y-91524487D01*
X143125687Y-91665932D01*
X143060587Y-91823097D01*
X143027400Y-91989943D01*
X137263677Y-91989943D01*
X137301006Y-91899823D01*
X137355000Y-91628380D01*
X137355000Y-91351620D01*
X137301006Y-91080177D01*
X137195095Y-90824483D01*
X137041335Y-90594365D01*
X136845635Y-90398665D01*
X136615517Y-90244905D01*
X136555390Y-90220000D01*
X136615517Y-90195095D01*
X136845635Y-90041335D01*
X137041335Y-89845635D01*
X137195095Y-89615517D01*
X137220000Y-89555390D01*
X137244905Y-89615517D01*
X137398665Y-89845635D01*
X137594365Y-90041335D01*
X137824483Y-90195095D01*
X138080177Y-90301006D01*
X138351620Y-90355000D01*
X138628380Y-90355000D01*
X138899823Y-90301006D01*
X139155517Y-90195095D01*
X139385635Y-90041335D01*
X139581335Y-89845635D01*
X139735095Y-89615517D01*
X139760000Y-89555390D01*
X139784905Y-89615517D01*
X139938665Y-89845635D01*
X140134365Y-90041335D01*
X140364483Y-90195095D01*
X140620177Y-90301006D01*
X140891620Y-90355000D01*
X141168380Y-90355000D01*
X141439823Y-90301006D01*
X141695517Y-90195095D01*
X141925635Y-90041335D01*
X142121335Y-89845635D01*
X142275095Y-89615517D01*
X142300000Y-89555390D01*
X142324905Y-89615517D01*
X142478665Y-89845635D01*
X142674365Y-90041335D01*
X142904483Y-90195095D01*
X143160177Y-90301006D01*
X143431620Y-90355000D01*
X143708380Y-90355000D01*
X143979823Y-90301006D01*
X144235517Y-90195095D01*
X144465635Y-90041335D01*
X144661335Y-89845635D01*
X144815095Y-89615517D01*
X144840000Y-89555390D01*
X144864905Y-89615517D01*
X145018665Y-89845635D01*
X145214365Y-90041335D01*
X145444483Y-90195095D01*
X145700177Y-90301006D01*
X145971620Y-90355000D01*
X146248380Y-90355000D01*
X146519823Y-90301006D01*
X146775517Y-90195095D01*
X147005635Y-90041335D01*
X147201335Y-89845635D01*
X147355095Y-89615517D01*
X147380000Y-89555390D01*
X147404905Y-89615517D01*
X147558665Y-89845635D01*
X147754365Y-90041335D01*
X147984483Y-90195095D01*
X148240177Y-90301006D01*
X148511620Y-90355000D01*
X148788380Y-90355000D01*
X149059823Y-90301006D01*
X149315517Y-90195095D01*
X149545635Y-90041335D01*
X149741335Y-89845635D01*
X149895095Y-89615517D01*
X149920000Y-89555390D01*
X149944905Y-89615517D01*
X150098665Y-89845635D01*
X150294365Y-90041335D01*
X150524483Y-90195095D01*
X150780177Y-90301006D01*
X151051620Y-90355000D01*
X151328380Y-90355000D01*
X151599823Y-90301006D01*
X151855517Y-90195095D01*
X152085635Y-90041335D01*
X152281335Y-89845635D01*
X152435095Y-89615517D01*
X152460000Y-89555390D01*
X152484905Y-89615517D01*
X152638665Y-89845635D01*
X152834365Y-90041335D01*
X153064483Y-90195095D01*
X153320177Y-90301006D01*
X153591620Y-90355000D01*
X153868380Y-90355000D01*
X154139823Y-90301006D01*
X154395517Y-90195095D01*
X154625635Y-90041335D01*
X154821335Y-89845635D01*
X154975095Y-89615517D01*
X155000000Y-89555390D01*
X155024905Y-89615517D01*
X155178665Y-89845635D01*
X155374365Y-90041335D01*
X155604483Y-90195095D01*
X155860177Y-90301006D01*
X156131620Y-90355000D01*
X156408380Y-90355000D01*
X156679823Y-90301006D01*
X156935517Y-90195095D01*
X157165635Y-90041335D01*
X157361335Y-89845635D01*
X157515095Y-89615517D01*
X157540000Y-89555390D01*
X157564905Y-89615517D01*
X157718665Y-89845635D01*
X157914365Y-90041335D01*
X158144483Y-90195095D01*
X158400177Y-90301006D01*
X158671620Y-90355000D01*
X158948380Y-90355000D01*
X159219823Y-90301006D01*
X159475517Y-90195095D01*
X159705635Y-90041335D01*
X159901335Y-89845635D01*
X160055095Y-89615517D01*
X160080000Y-89555390D01*
X160104905Y-89615517D01*
X160258665Y-89845635D01*
X160454365Y-90041335D01*
X160684483Y-90195095D01*
X160940177Y-90301006D01*
X161211620Y-90355000D01*
X161488380Y-90355000D01*
X161759823Y-90301006D01*
X162015517Y-90195095D01*
X162245635Y-90041335D01*
X162441335Y-89845635D01*
X162595095Y-89615517D01*
X162620000Y-89555390D01*
X162644905Y-89615517D01*
X162798665Y-89845635D01*
X162994365Y-90041335D01*
X163224483Y-90195095D01*
X163480177Y-90301006D01*
X163751620Y-90355000D01*
X164028380Y-90355000D01*
X164299823Y-90301006D01*
X164555517Y-90195095D01*
X164785635Y-90041335D01*
X164981335Y-89845635D01*
X165135095Y-89615517D01*
X165160000Y-89555390D01*
X165184905Y-89615517D01*
X165338665Y-89845635D01*
X165534365Y-90041335D01*
X165764483Y-90195095D01*
X166020177Y-90301006D01*
X166291620Y-90355000D01*
X166568380Y-90355000D01*
X166839823Y-90301006D01*
X167095517Y-90195095D01*
X167325635Y-90041335D01*
X167521335Y-89845635D01*
X167675095Y-89615517D01*
X167700000Y-89555390D01*
X167724905Y-89615517D01*
X167878665Y-89845635D01*
X168074365Y-90041335D01*
X168304483Y-90195095D01*
X168560177Y-90301006D01*
X168831620Y-90355000D01*
X169108380Y-90355000D01*
X169379823Y-90301006D01*
X169635517Y-90195095D01*
X169865635Y-90041335D01*
X170061335Y-89845635D01*
X170215095Y-89615517D01*
X170240000Y-89555390D01*
X170264905Y-89615517D01*
X170418665Y-89845635D01*
X170614365Y-90041335D01*
X170844483Y-90195095D01*
X171100177Y-90301006D01*
X171371620Y-90355000D01*
X171648380Y-90355000D01*
X171919823Y-90301006D01*
X172175517Y-90195095D01*
X172405635Y-90041335D01*
X172601335Y-89845635D01*
X172755095Y-89615517D01*
X172780000Y-89555390D01*
X172804905Y-89615517D01*
X172958665Y-89845635D01*
X173154365Y-90041335D01*
X173384483Y-90195095D01*
X173531592Y-90256029D01*
X173374483Y-90321105D01*
X173144365Y-90474865D01*
X172948665Y-90670565D01*
X172794905Y-90900683D01*
X172688994Y-91156377D01*
X172635000Y-91427820D01*
X172635000Y-91704580D01*
X172688994Y-91976023D01*
X172794905Y-92231717D01*
X172948665Y-92461835D01*
X173144365Y-92657535D01*
X173374483Y-92811295D01*
X173434610Y-92836200D01*
X173374483Y-92861105D01*
X173144365Y-93014865D01*
X172948665Y-93210565D01*
X172794905Y-93440683D01*
X172688994Y-93696377D01*
X172635000Y-93967820D01*
X172635000Y-94244580D01*
X172688994Y-94516023D01*
X172794905Y-94771717D01*
X172948665Y-95001835D01*
X173144365Y-95197535D01*
X173374483Y-95351295D01*
X173434610Y-95376200D01*
X173374483Y-95401105D01*
X173144365Y-95554865D01*
X172948665Y-95750565D01*
X172794905Y-95980683D01*
X172688994Y-96236377D01*
X172635000Y-96507820D01*
X172635000Y-96784580D01*
X172688994Y-97056023D01*
X172794905Y-97311717D01*
X172948665Y-97541835D01*
X173144365Y-97737535D01*
X173374483Y-97891295D01*
X173434610Y-97916200D01*
X173374483Y-97941105D01*
X173144365Y-98094865D01*
X172948665Y-98290565D01*
X172794905Y-98520683D01*
X172770000Y-98580810D01*
X172745095Y-98520683D01*
X172591335Y-98290565D01*
X172395635Y-98094865D01*
X172165517Y-97941105D01*
X171909823Y-97835194D01*
X171638380Y-97781200D01*
X171361620Y-97781200D01*
X171090177Y-97835194D01*
X170834483Y-97941105D01*
X170604365Y-98094865D01*
X170408665Y-98290565D01*
X170254905Y-98520683D01*
X170148994Y-98776377D01*
X170095000Y-99047820D01*
X170095000Y-99324580D01*
X170148994Y-99596023D01*
X170254905Y-99851717D01*
X170408665Y-100081835D01*
X170604365Y-100277535D01*
X170834483Y-100431295D01*
X171090177Y-100537206D01*
X171361620Y-100591200D01*
X171638380Y-100591200D01*
X171909823Y-100537206D01*
X172165517Y-100431295D01*
X172395635Y-100277535D01*
X172591335Y-100081835D01*
X172745095Y-99851717D01*
X172770000Y-99791590D01*
X172794905Y-99851717D01*
X172948665Y-100081835D01*
X173144365Y-100277535D01*
X173374483Y-100431295D01*
X173630177Y-100537206D01*
X173901620Y-100591200D01*
X174178380Y-100591200D01*
X174449823Y-100537206D01*
X174705517Y-100431295D01*
X174935635Y-100277535D01*
X175131335Y-100081835D01*
X175285095Y-99851717D01*
X175391006Y-99596023D01*
X175445000Y-99324580D01*
X175445000Y-99047820D01*
X175391006Y-98776377D01*
X175285095Y-98520683D01*
X175131335Y-98290565D01*
X174935635Y-98094865D01*
X174705517Y-97941105D01*
X174645390Y-97916200D01*
X174705517Y-97891295D01*
X174935635Y-97737535D01*
X175131335Y-97541835D01*
X175285095Y-97311717D01*
X175391006Y-97056023D01*
X175445000Y-96784580D01*
X175445000Y-96507820D01*
X175391006Y-96236377D01*
X175285095Y-95980683D01*
X175131335Y-95750565D01*
X174935635Y-95554865D01*
X174705517Y-95401105D01*
X174645390Y-95376200D01*
X174705517Y-95351295D01*
X174935635Y-95197535D01*
X175131335Y-95001835D01*
X175285095Y-94771717D01*
X175391006Y-94516023D01*
X175445000Y-94244580D01*
X175445000Y-93967820D01*
X175391006Y-93696377D01*
X175285095Y-93440683D01*
X175131335Y-93210565D01*
X174935635Y-93014865D01*
X174705517Y-92861105D01*
X174645390Y-92836200D01*
X174705517Y-92811295D01*
X174935635Y-92657535D01*
X175131335Y-92461835D01*
X175285095Y-92231717D01*
X175391006Y-91976023D01*
X175445000Y-91704580D01*
X175445000Y-91427820D01*
X175391006Y-91156377D01*
X175285095Y-90900683D01*
X175131335Y-90670565D01*
X174935635Y-90474865D01*
X174705517Y-90321105D01*
X174558408Y-90260171D01*
X174715517Y-90195095D01*
X174945635Y-90041335D01*
X175141335Y-89845635D01*
X175295095Y-89615517D01*
X175401006Y-89359823D01*
X175455000Y-89088380D01*
X175455000Y-88811620D01*
X175401006Y-88540177D01*
X175295095Y-88284483D01*
X175141335Y-88054365D01*
X174945635Y-87858665D01*
X174715517Y-87704905D01*
X174459823Y-87598994D01*
X174188380Y-87545000D01*
X173911620Y-87545000D01*
X173640177Y-87598994D01*
X173384483Y-87704905D01*
X173154365Y-87858665D01*
X172958665Y-88054365D01*
X172804905Y-88284483D01*
X172780000Y-88344610D01*
X172755095Y-88284483D01*
X172601335Y-88054365D01*
X172405635Y-87858665D01*
X172175517Y-87704905D01*
X171919823Y-87598994D01*
X171648380Y-87545000D01*
X171371620Y-87545000D01*
X171100177Y-87598994D01*
X170844483Y-87704905D01*
X170614365Y-87858665D01*
X170418665Y-88054365D01*
X170264905Y-88284483D01*
X170240000Y-88344610D01*
X170215095Y-88284483D01*
X170061335Y-88054365D01*
X169865635Y-87858665D01*
X169635517Y-87704905D01*
X169379823Y-87598994D01*
X169108380Y-87545000D01*
X168831620Y-87545000D01*
X168560177Y-87598994D01*
X168304483Y-87704905D01*
X168074365Y-87858665D01*
X167878665Y-88054365D01*
X167724905Y-88284483D01*
X167700000Y-88344610D01*
X167675095Y-88284483D01*
X167521335Y-88054365D01*
X167325635Y-87858665D01*
X167095517Y-87704905D01*
X166839823Y-87598994D01*
X166568380Y-87545000D01*
X166291620Y-87545000D01*
X166020177Y-87598994D01*
X165764483Y-87704905D01*
X165534365Y-87858665D01*
X165338665Y-88054365D01*
X165184905Y-88284483D01*
X165160000Y-88344610D01*
X165135095Y-88284483D01*
X164981335Y-88054365D01*
X164785635Y-87858665D01*
X164555517Y-87704905D01*
X164299823Y-87598994D01*
X164028380Y-87545000D01*
X163751620Y-87545000D01*
X163480177Y-87598994D01*
X163224483Y-87704905D01*
X162994365Y-87858665D01*
X162798665Y-88054365D01*
X162644905Y-88284483D01*
X162620000Y-88344610D01*
X162595095Y-88284483D01*
X162441335Y-88054365D01*
X162245635Y-87858665D01*
X162015517Y-87704905D01*
X161759823Y-87598994D01*
X161488380Y-87545000D01*
X161211620Y-87545000D01*
X160940177Y-87598994D01*
X160684483Y-87704905D01*
X160454365Y-87858665D01*
X160258665Y-88054365D01*
X160104905Y-88284483D01*
X160080000Y-88344610D01*
X160055095Y-88284483D01*
X159901335Y-88054365D01*
X159705635Y-87858665D01*
X159475517Y-87704905D01*
X159219823Y-87598994D01*
X158948380Y-87545000D01*
X158671620Y-87545000D01*
X158400177Y-87598994D01*
X158144483Y-87704905D01*
X157914365Y-87858665D01*
X157718665Y-88054365D01*
X157564905Y-88284483D01*
X157540000Y-88344610D01*
X157515095Y-88284483D01*
X157361335Y-88054365D01*
X157165635Y-87858665D01*
X156935517Y-87704905D01*
X156679823Y-87598994D01*
X156408380Y-87545000D01*
X156131620Y-87545000D01*
X155860177Y-87598994D01*
X155604483Y-87704905D01*
X155374365Y-87858665D01*
X155178665Y-88054365D01*
X155024905Y-88284483D01*
X155000000Y-88344610D01*
X154975095Y-88284483D01*
X154821335Y-88054365D01*
X154625635Y-87858665D01*
X154395517Y-87704905D01*
X154139823Y-87598994D01*
X153868380Y-87545000D01*
X153591620Y-87545000D01*
X153320177Y-87598994D01*
X153064483Y-87704905D01*
X152834365Y-87858665D01*
X152638665Y-88054365D01*
X152484905Y-88284483D01*
X152460000Y-88344610D01*
X152435095Y-88284483D01*
X152281335Y-88054365D01*
X152085635Y-87858665D01*
X151855517Y-87704905D01*
X151599823Y-87598994D01*
X151328380Y-87545000D01*
X151051620Y-87545000D01*
X150780177Y-87598994D01*
X150524483Y-87704905D01*
X150294365Y-87858665D01*
X150098665Y-88054365D01*
X149944905Y-88284483D01*
X149920000Y-88344610D01*
X149895095Y-88284483D01*
X149741335Y-88054365D01*
X149545635Y-87858665D01*
X149315517Y-87704905D01*
X149059823Y-87598994D01*
X148788380Y-87545000D01*
X148511620Y-87545000D01*
X148240177Y-87598994D01*
X147984483Y-87704905D01*
X147754365Y-87858665D01*
X147558665Y-88054365D01*
X147404905Y-88284483D01*
X147380000Y-88344610D01*
X147355095Y-88284483D01*
X147201335Y-88054365D01*
X147005635Y-87858665D01*
X146775517Y-87704905D01*
X146519823Y-87598994D01*
X146248380Y-87545000D01*
X145971620Y-87545000D01*
X145700177Y-87598994D01*
X145444483Y-87704905D01*
X145214365Y-87858665D01*
X145018665Y-88054365D01*
X144864905Y-88284483D01*
X144840000Y-88344610D01*
X144815095Y-88284483D01*
X144661335Y-88054365D01*
X144465635Y-87858665D01*
X144235517Y-87704905D01*
X143979823Y-87598994D01*
X143708380Y-87545000D01*
X143431620Y-87545000D01*
X143160177Y-87598994D01*
X142904483Y-87704905D01*
X142674365Y-87858665D01*
X142478665Y-88054365D01*
X142324905Y-88284483D01*
X142300000Y-88344610D01*
X142275095Y-88284483D01*
X142121335Y-88054365D01*
X141925635Y-87858665D01*
X141695517Y-87704905D01*
X141439823Y-87598994D01*
X141168380Y-87545000D01*
X140891620Y-87545000D01*
X140620177Y-87598994D01*
X140364483Y-87704905D01*
X140134365Y-87858665D01*
X139938665Y-88054365D01*
X139784905Y-88284483D01*
X139760000Y-88344610D01*
X139735095Y-88284483D01*
X139581335Y-88054365D01*
X139385635Y-87858665D01*
X139155517Y-87704905D01*
X138899823Y-87598994D01*
X138628380Y-87545000D01*
X138351620Y-87545000D01*
X138080177Y-87598994D01*
X137824483Y-87704905D01*
X137594365Y-87858665D01*
X137398665Y-88054365D01*
X137244905Y-88284483D01*
X137220000Y-88344610D01*
X137195095Y-88284483D01*
X137041335Y-88054365D01*
X136845635Y-87858665D01*
X136615517Y-87704905D01*
X136359823Y-87598994D01*
X136088380Y-87545000D01*
X135811620Y-87545000D01*
X135540177Y-87598994D01*
X135284483Y-87704905D01*
X135054365Y-87858665D01*
X134858665Y-88054365D01*
X134704905Y-88284483D01*
X134598994Y-88540177D01*
X134545000Y-88811620D01*
X133635000Y-88811620D01*
X133635000Y-88095510D01*
X133667097Y-87768158D01*
X133746045Y-87506670D01*
X133874278Y-87265497D01*
X134046915Y-87053823D01*
X134257375Y-86879717D01*
X134497650Y-86749800D01*
X134758583Y-86669028D01*
X135082338Y-86635000D01*
X174904490Y-86635000D01*
X175231842Y-86667097D01*
G37*
X175231842Y-86667097D02*
X175493330Y-86746045D01*
X175734503Y-86874278D01*
X175946177Y-87046915D01*
X176120283Y-87257375D01*
X176250200Y-87497650D01*
X176330972Y-87758583D01*
X176365000Y-88082338D01*
X176365000Y-101805655D01*
X176287852Y-101771753D01*
X175139605Y-102920000D01*
X176287852Y-104068247D01*
X176365000Y-104034345D01*
X176365001Y-111965655D01*
X176287852Y-111931753D01*
X175139605Y-113080000D01*
X176287852Y-114228247D01*
X176365001Y-114194345D01*
X176365001Y-127904480D01*
X176332903Y-128231840D01*
X176253955Y-128493329D01*
X176125721Y-128734503D01*
X175953084Y-128946177D01*
X175742625Y-129120283D01*
X175502350Y-129250200D01*
X175241417Y-129330972D01*
X174917663Y-129365000D01*
X135095510Y-129365000D01*
X134768160Y-129332903D01*
X134506671Y-129253955D01*
X134265497Y-129125721D01*
X134053823Y-128953084D01*
X133879717Y-128742625D01*
X133749800Y-128502350D01*
X133669028Y-128241417D01*
X133635000Y-127917663D01*
X133635000Y-121831620D01*
X134545000Y-121831620D01*
X134545000Y-122108380D01*
X134598994Y-122379823D01*
X134704905Y-122635517D01*
X134858665Y-122865635D01*
X135054365Y-123061335D01*
X135284483Y-123215095D01*
X135344610Y-123240000D01*
X135284483Y-123264905D01*
X135054365Y-123418665D01*
X134858665Y-123614365D01*
X134704905Y-123844483D01*
X134598994Y-124100177D01*
X134545000Y-124371620D01*
X134545000Y-124648380D01*
X134598994Y-124919823D01*
X134704905Y-125175517D01*
X134858665Y-125405635D01*
X135054365Y-125601335D01*
X135284483Y-125755095D01*
X135344610Y-125780000D01*
X135284483Y-125804905D01*
X135054365Y-125958665D01*
X134858665Y-126154365D01*
X134704905Y-126384483D01*
X134598994Y-126640177D01*
X134545000Y-126911620D01*
X134545000Y-127188380D01*
X134598994Y-127459823D01*
X134704905Y-127715517D01*
X134858665Y-127945635D01*
X135054365Y-128141335D01*
X135284483Y-128295095D01*
X135540177Y-128401006D01*
X135811620Y-128455000D01*
X136088380Y-128455000D01*
X136359823Y-128401006D01*
X136615517Y-128295095D01*
X136845635Y-128141335D01*
X137041335Y-127945635D01*
X137195095Y-127715517D01*
X137220000Y-127655390D01*
X137244905Y-127715517D01*
X137398665Y-127945635D01*
X137594365Y-128141335D01*
X137824483Y-128295095D01*
X138080177Y-128401006D01*
X138351620Y-128455000D01*
X138628380Y-128455000D01*
X138899823Y-128401006D01*
X139155517Y-128295095D01*
X139385635Y-128141335D01*
X139581335Y-127945635D01*
X139735095Y-127715517D01*
X139760000Y-127655390D01*
X139784905Y-127715517D01*
X139938665Y-127945635D01*
X140134365Y-128141335D01*
X140364483Y-128295095D01*
X140620177Y-128401006D01*
X140891620Y-128455000D01*
X141168380Y-128455000D01*
X141439823Y-128401006D01*
X141695517Y-128295095D01*
X141925635Y-128141335D01*
X142121335Y-127945635D01*
X142275095Y-127715517D01*
X142300000Y-127655390D01*
X142324905Y-127715517D01*
X142478665Y-127945635D01*
X142674365Y-128141335D01*
X142904483Y-128295095D01*
X143160177Y-128401006D01*
X143431620Y-128455000D01*
X143708380Y-128455000D01*
X143979823Y-128401006D01*
X144235517Y-128295095D01*
X144465635Y-128141335D01*
X144661335Y-127945635D01*
X144815095Y-127715517D01*
X144840000Y-127655390D01*
X144864905Y-127715517D01*
X145018665Y-127945635D01*
X145214365Y-128141335D01*
X145444483Y-128295095D01*
X145700177Y-128401006D01*
X145971620Y-128455000D01*
X146248380Y-128455000D01*
X146519823Y-128401006D01*
X146775517Y-128295095D01*
X147005635Y-128141335D01*
X147201335Y-127945635D01*
X147355095Y-127715517D01*
X147380000Y-127655390D01*
X147404905Y-127715517D01*
X147558665Y-127945635D01*
X147754365Y-128141335D01*
X147984483Y-128295095D01*
X148240177Y-128401006D01*
X148511620Y-128455000D01*
X148788380Y-128455000D01*
X149059823Y-128401006D01*
X149315517Y-128295095D01*
X149545635Y-128141335D01*
X149741335Y-127945635D01*
X149895095Y-127715517D01*
X149920000Y-127655390D01*
X149944905Y-127715517D01*
X150098665Y-127945635D01*
X150294365Y-128141335D01*
X150524483Y-128295095D01*
X150780177Y-128401006D01*
X151051620Y-128455000D01*
X151328380Y-128455000D01*
X151599823Y-128401006D01*
X151855517Y-128295095D01*
X152085635Y-128141335D01*
X152281335Y-127945635D01*
X152435095Y-127715517D01*
X152460000Y-127655390D01*
X152484905Y-127715517D01*
X152638665Y-127945635D01*
X152834365Y-128141335D01*
X153064483Y-128295095D01*
X153320177Y-128401006D01*
X153591620Y-128455000D01*
X153868380Y-128455000D01*
X154139823Y-128401006D01*
X154395517Y-128295095D01*
X154625635Y-128141335D01*
X154821335Y-127945635D01*
X154975095Y-127715517D01*
X155000000Y-127655390D01*
X155024905Y-127715517D01*
X155178665Y-127945635D01*
X155374365Y-128141335D01*
X155604483Y-128295095D01*
X155860177Y-128401006D01*
X156131620Y-128455000D01*
X156408380Y-128455000D01*
X156679823Y-128401006D01*
X156935517Y-128295095D01*
X157165635Y-128141335D01*
X157361335Y-127945635D01*
X157515095Y-127715517D01*
X157540000Y-127655390D01*
X157564905Y-127715517D01*
X157718665Y-127945635D01*
X157914365Y-128141335D01*
X158144483Y-128295095D01*
X158400177Y-128401006D01*
X158671620Y-128455000D01*
X158948380Y-128455000D01*
X159219823Y-128401006D01*
X159475517Y-128295095D01*
X159705635Y-128141335D01*
X159901335Y-127945635D01*
X160055095Y-127715517D01*
X160080000Y-127655390D01*
X160104905Y-127715517D01*
X160258665Y-127945635D01*
X160454365Y-128141335D01*
X160684483Y-128295095D01*
X160940177Y-128401006D01*
X161211620Y-128455000D01*
X161488380Y-128455000D01*
X161759823Y-128401006D01*
X162015517Y-128295095D01*
X162245635Y-128141335D01*
X162441335Y-127945635D01*
X162595095Y-127715517D01*
X162620000Y-127655390D01*
X162644905Y-127715517D01*
X162798665Y-127945635D01*
X162994365Y-128141335D01*
X163224483Y-128295095D01*
X163480177Y-128401006D01*
X163751620Y-128455000D01*
X164028380Y-128455000D01*
X164299823Y-128401006D01*
X164555517Y-128295095D01*
X164785635Y-128141335D01*
X164981335Y-127945635D01*
X165135095Y-127715517D01*
X165160000Y-127655390D01*
X165184905Y-127715517D01*
X165338665Y-127945635D01*
X165534365Y-128141335D01*
X165764483Y-128295095D01*
X166020177Y-128401006D01*
X166291620Y-128455000D01*
X166568380Y-128455000D01*
X166839823Y-128401006D01*
X167095517Y-128295095D01*
X167325635Y-128141335D01*
X167521335Y-127945635D01*
X167675095Y-127715517D01*
X167700000Y-127655390D01*
X167724905Y-127715517D01*
X167878665Y-127945635D01*
X168074365Y-128141335D01*
X168304483Y-128295095D01*
X168560177Y-128401006D01*
X168831620Y-128455000D01*
X169108380Y-128455000D01*
X169379823Y-128401006D01*
X169635517Y-128295095D01*
X169865635Y-128141335D01*
X170061335Y-127945635D01*
X170215095Y-127715517D01*
X170240000Y-127655390D01*
X170264905Y-127715517D01*
X170418665Y-127945635D01*
X170614365Y-128141335D01*
X170844483Y-128295095D01*
X171100177Y-128401006D01*
X171371620Y-128455000D01*
X171648380Y-128455000D01*
X171919823Y-128401006D01*
X172175517Y-128295095D01*
X172405635Y-128141335D01*
X172601335Y-127945635D01*
X172755095Y-127715517D01*
X172780000Y-127655390D01*
X172804905Y-127715517D01*
X172958665Y-127945635D01*
X173154365Y-128141335D01*
X173384483Y-128295095D01*
X173640177Y-128401006D01*
X173911620Y-128455000D01*
X174188380Y-128455000D01*
X174459823Y-128401006D01*
X174715517Y-128295095D01*
X174945635Y-128141335D01*
X175141335Y-127945635D01*
X175295095Y-127715517D01*
X175401006Y-127459823D01*
X175455000Y-127188380D01*
X175455000Y-126911620D01*
X175401006Y-126640177D01*
X175295095Y-126384483D01*
X175141335Y-126154365D01*
X174945635Y-125958665D01*
X174715517Y-125804905D01*
X174655149Y-125779900D01*
X174715517Y-125754895D01*
X174945635Y-125601135D01*
X175141335Y-125405435D01*
X175295095Y-125175317D01*
X175401006Y-124919623D01*
X175455000Y-124648180D01*
X175455000Y-124371420D01*
X175401006Y-124099977D01*
X175295095Y-123844283D01*
X175141335Y-123614165D01*
X174945635Y-123418465D01*
X174715517Y-123264705D01*
X174655390Y-123239800D01*
X174715517Y-123214895D01*
X174945635Y-123061135D01*
X175141335Y-122865435D01*
X175295095Y-122635317D01*
X175401006Y-122379623D01*
X175455000Y-122108180D01*
X175455000Y-121831420D01*
X175401006Y-121559977D01*
X175295095Y-121304283D01*
X175141335Y-121074165D01*
X174945635Y-120878465D01*
X174715517Y-120724705D01*
X174661122Y-120702174D01*
X174773724Y-120641987D01*
X174841673Y-120401078D01*
X174050000Y-119609405D01*
X173258327Y-120401078D01*
X173326276Y-120641987D01*
X173446976Y-120698820D01*
X173384483Y-120724705D01*
X173154365Y-120878465D01*
X172958665Y-121074165D01*
X172804905Y-121304283D01*
X172698994Y-121559977D01*
X172645000Y-121831420D01*
X172645000Y-122108180D01*
X172698994Y-122379623D01*
X172804905Y-122635317D01*
X172958665Y-122865435D01*
X173154365Y-123061135D01*
X173384483Y-123214895D01*
X173444610Y-123239800D01*
X173384483Y-123264705D01*
X173154365Y-123418465D01*
X172958665Y-123614165D01*
X172804905Y-123844283D01*
X172698994Y-124099977D01*
X172645000Y-124371420D01*
X172645000Y-124648180D01*
X172698994Y-124919623D01*
X172804905Y-125175317D01*
X172958665Y-125405435D01*
X173154365Y-125601135D01*
X173384483Y-125754895D01*
X173444851Y-125779900D01*
X173384483Y-125804905D01*
X173154365Y-125958665D01*
X172958665Y-126154365D01*
X172804905Y-126384483D01*
X172780000Y-126444610D01*
X172755095Y-126384483D01*
X172601335Y-126154365D01*
X172405635Y-125958665D01*
X172175517Y-125804905D01*
X171919823Y-125698994D01*
X171648380Y-125645000D01*
X171371620Y-125645000D01*
X171100177Y-125698994D01*
X170844483Y-125804905D01*
X170614365Y-125958665D01*
X170418665Y-126154365D01*
X170264905Y-126384483D01*
X170240000Y-126444610D01*
X170215095Y-126384483D01*
X170061335Y-126154365D01*
X169865635Y-125958665D01*
X169635517Y-125804905D01*
X169379823Y-125698994D01*
X169108380Y-125645000D01*
X168831620Y-125645000D01*
X168560177Y-125698994D01*
X168304483Y-125804905D01*
X168074365Y-125958665D01*
X167878665Y-126154365D01*
X167724905Y-126384483D01*
X167700000Y-126444610D01*
X167675095Y-126384483D01*
X167521335Y-126154365D01*
X167325635Y-125958665D01*
X167095517Y-125804905D01*
X166839823Y-125698994D01*
X166568380Y-125645000D01*
X166291620Y-125645000D01*
X166020177Y-125698994D01*
X165764483Y-125804905D01*
X165534365Y-125958665D01*
X165338665Y-126154365D01*
X165184905Y-126384483D01*
X165160000Y-126444610D01*
X165135095Y-126384483D01*
X164981335Y-126154365D01*
X164785635Y-125958665D01*
X164555517Y-125804905D01*
X164299823Y-125698994D01*
X164028380Y-125645000D01*
X163751620Y-125645000D01*
X163480177Y-125698994D01*
X163224483Y-125804905D01*
X162994365Y-125958665D01*
X162798665Y-126154365D01*
X162644905Y-126384483D01*
X162620000Y-126444610D01*
X162595095Y-126384483D01*
X162441335Y-126154365D01*
X162245635Y-125958665D01*
X162015517Y-125804905D01*
X161759823Y-125698994D01*
X161488380Y-125645000D01*
X161211620Y-125645000D01*
X160940177Y-125698994D01*
X160684483Y-125804905D01*
X160454365Y-125958665D01*
X160258665Y-126154365D01*
X160104905Y-126384483D01*
X160080000Y-126444610D01*
X160055095Y-126384483D01*
X159901335Y-126154365D01*
X159705635Y-125958665D01*
X159475517Y-125804905D01*
X159219823Y-125698994D01*
X158948380Y-125645000D01*
X158671620Y-125645000D01*
X158400177Y-125698994D01*
X158144483Y-125804905D01*
X157914365Y-125958665D01*
X157718665Y-126154365D01*
X157564905Y-126384483D01*
X157540000Y-126444610D01*
X157515095Y-126384483D01*
X157361335Y-126154365D01*
X157165635Y-125958665D01*
X156935517Y-125804905D01*
X156679823Y-125698994D01*
X156408380Y-125645000D01*
X156131620Y-125645000D01*
X155860177Y-125698994D01*
X155604483Y-125804905D01*
X155374365Y-125958665D01*
X155178665Y-126154365D01*
X155024905Y-126384483D01*
X155000000Y-126444610D01*
X154975095Y-126384483D01*
X154821335Y-126154365D01*
X154625635Y-125958665D01*
X154395517Y-125804905D01*
X154139823Y-125698994D01*
X153868380Y-125645000D01*
X153591620Y-125645000D01*
X153320177Y-125698994D01*
X153064483Y-125804905D01*
X152834365Y-125958665D01*
X152638665Y-126154365D01*
X152484905Y-126384483D01*
X152460000Y-126444610D01*
X152435095Y-126384483D01*
X152281335Y-126154365D01*
X152085635Y-125958665D01*
X151855517Y-125804905D01*
X151599823Y-125698994D01*
X151328380Y-125645000D01*
X151051620Y-125645000D01*
X150780177Y-125698994D01*
X150524483Y-125804905D01*
X150294365Y-125958665D01*
X150098665Y-126154365D01*
X149944905Y-126384483D01*
X149920000Y-126444610D01*
X149895095Y-126384483D01*
X149741335Y-126154365D01*
X149545635Y-125958665D01*
X149315517Y-125804905D01*
X149059823Y-125698994D01*
X148788380Y-125645000D01*
X148511620Y-125645000D01*
X148240177Y-125698994D01*
X147984483Y-125804905D01*
X147754365Y-125958665D01*
X147558665Y-126154365D01*
X147404905Y-126384483D01*
X147380000Y-126444610D01*
X147355095Y-126384483D01*
X147201335Y-126154365D01*
X147005635Y-125958665D01*
X146775517Y-125804905D01*
X146519823Y-125698994D01*
X146248380Y-125645000D01*
X145971620Y-125645000D01*
X145877166Y-125663788D01*
X145897600Y-125561057D01*
X145897600Y-125390943D01*
X145864413Y-125224097D01*
X145799313Y-125066932D01*
X145704802Y-124925487D01*
X145584513Y-124805198D01*
X145443068Y-124710687D01*
X145285903Y-124645587D01*
X145119057Y-124612400D01*
X144948943Y-124612400D01*
X144782097Y-124645587D01*
X144624932Y-124710687D01*
X144483487Y-124805198D01*
X144363198Y-124925487D01*
X144268687Y-125066932D01*
X144203587Y-125224097D01*
X144170400Y-125390943D01*
X144170400Y-125561057D01*
X144203587Y-125727903D01*
X144235475Y-125804888D01*
X143979823Y-125698994D01*
X143708380Y-125645000D01*
X143431620Y-125645000D01*
X143160177Y-125698994D01*
X142904483Y-125804905D01*
X142674365Y-125958665D01*
X142478665Y-126154365D01*
X142324905Y-126384483D01*
X142300000Y-126444610D01*
X142275095Y-126384483D01*
X142121335Y-126154365D01*
X141925635Y-125958665D01*
X141695517Y-125804905D01*
X141439823Y-125698994D01*
X141168380Y-125645000D01*
X140891620Y-125645000D01*
X140620177Y-125698994D01*
X140364483Y-125804905D01*
X140134365Y-125958665D01*
X139938665Y-126154365D01*
X139784905Y-126384483D01*
X139760000Y-126444610D01*
X139735095Y-126384483D01*
X139581335Y-126154365D01*
X139385635Y-125958665D01*
X139155517Y-125804905D01*
X138899823Y-125698994D01*
X138628380Y-125645000D01*
X138351620Y-125645000D01*
X138080177Y-125698994D01*
X137824483Y-125804905D01*
X137594365Y-125958665D01*
X137398665Y-126154365D01*
X137244905Y-126384483D01*
X137220000Y-126444610D01*
X137195095Y-126384483D01*
X137041335Y-126154365D01*
X136845635Y-125958665D01*
X136615517Y-125804905D01*
X136555390Y-125780000D01*
X136615517Y-125755095D01*
X136845635Y-125601335D01*
X137041335Y-125405635D01*
X137195095Y-125175517D01*
X137301006Y-124919823D01*
X137355000Y-124648380D01*
X137355000Y-124371620D01*
X137330399Y-124247943D01*
X147853400Y-124247943D01*
X147853400Y-124418057D01*
X147886587Y-124584903D01*
X147951687Y-124742068D01*
X148046198Y-124883513D01*
X148166487Y-125003802D01*
X148307932Y-125098313D01*
X148465097Y-125163413D01*
X148631943Y-125196600D01*
X148802057Y-125196600D01*
X148968903Y-125163413D01*
X149126068Y-125098313D01*
X149267513Y-125003802D01*
X149387802Y-124883513D01*
X149482313Y-124742068D01*
X149547413Y-124584903D01*
X149580600Y-124418057D01*
X149580600Y-124247943D01*
X149547413Y-124081097D01*
X149482313Y-123923932D01*
X149387802Y-123782487D01*
X149267513Y-123662198D01*
X149193799Y-123612943D01*
X150901400Y-123612943D01*
X150901400Y-123783057D01*
X150934587Y-123949903D01*
X150999687Y-124107068D01*
X151094198Y-124248513D01*
X151214487Y-124368802D01*
X151355932Y-124463313D01*
X151513097Y-124528413D01*
X151679943Y-124561600D01*
X151850057Y-124561600D01*
X152016903Y-124528413D01*
X152174068Y-124463313D01*
X152315513Y-124368802D01*
X152435802Y-124248513D01*
X152530313Y-124107068D01*
X152595413Y-123949903D01*
X152628600Y-123783057D01*
X152628600Y-123612943D01*
X152595413Y-123446097D01*
X152530313Y-123288932D01*
X152435802Y-123147487D01*
X152315513Y-123027198D01*
X152174068Y-122932687D01*
X152016903Y-122867587D01*
X151850057Y-122834400D01*
X151679943Y-122834400D01*
X151513097Y-122867587D01*
X151355932Y-122932687D01*
X151214487Y-123027198D01*
X151094198Y-123147487D01*
X150999687Y-123288932D01*
X150934587Y-123446097D01*
X150901400Y-123612943D01*
X149193799Y-123612943D01*
X149126068Y-123567687D01*
X148968903Y-123502587D01*
X148802057Y-123469400D01*
X148631943Y-123469400D01*
X148465097Y-123502587D01*
X148307932Y-123567687D01*
X148166487Y-123662198D01*
X148046198Y-123782487D01*
X147951687Y-123923932D01*
X147886587Y-124081097D01*
X147853400Y-124247943D01*
X137330399Y-124247943D01*
X137301006Y-124100177D01*
X137195095Y-123844483D01*
X137041335Y-123614365D01*
X136845635Y-123418665D01*
X136615517Y-123264905D01*
X136555390Y-123240000D01*
X136615517Y-123215095D01*
X136845635Y-123061335D01*
X137041335Y-122865635D01*
X137195095Y-122635517D01*
X137301006Y-122379823D01*
X137355000Y-122108380D01*
X137355000Y-121831620D01*
X137305137Y-121580943D01*
X153314400Y-121580943D01*
X153314400Y-121751057D01*
X153347587Y-121917903D01*
X153412687Y-122075068D01*
X153507198Y-122216513D01*
X153627487Y-122336802D01*
X153768932Y-122431313D01*
X153926097Y-122496413D01*
X154092943Y-122529600D01*
X154263057Y-122529600D01*
X154429903Y-122496413D01*
X154587068Y-122431313D01*
X154653928Y-122386638D01*
X154682687Y-122456068D01*
X154777198Y-122597513D01*
X154897487Y-122717802D01*
X155012416Y-122794596D01*
X154936687Y-122907932D01*
X154871587Y-123065097D01*
X154853732Y-123154865D01*
X154848802Y-123147487D01*
X154728513Y-123027198D01*
X154587068Y-122932687D01*
X154429903Y-122867587D01*
X154263057Y-122834400D01*
X154092943Y-122834400D01*
X153926097Y-122867587D01*
X153768932Y-122932687D01*
X153627487Y-123027198D01*
X153507198Y-123147487D01*
X153412687Y-123288932D01*
X153347587Y-123446097D01*
X153314400Y-123612943D01*
X153314400Y-123783057D01*
X153347587Y-123949903D01*
X153412687Y-124107068D01*
X153507198Y-124248513D01*
X153627487Y-124368802D01*
X153768932Y-124463313D01*
X153926097Y-124528413D01*
X154092943Y-124561600D01*
X154263057Y-124561600D01*
X154429903Y-124528413D01*
X154587068Y-124463313D01*
X154728513Y-124368802D01*
X154848802Y-124248513D01*
X154943313Y-124107068D01*
X155008413Y-123949903D01*
X155026268Y-123860135D01*
X155031198Y-123867513D01*
X155151487Y-123987802D01*
X155292932Y-124082313D01*
X155450097Y-124147413D01*
X155616943Y-124180600D01*
X155787057Y-124180600D01*
X155953903Y-124147413D01*
X156111068Y-124082313D01*
X156252513Y-123987802D01*
X156372802Y-123867513D01*
X156467313Y-123726068D01*
X156532413Y-123568903D01*
X156565600Y-123402057D01*
X156565600Y-123231943D01*
X156532413Y-123065097D01*
X156467313Y-122907932D01*
X156372802Y-122766487D01*
X156252513Y-122646198D01*
X156137584Y-122569404D01*
X156213313Y-122456068D01*
X156278413Y-122298903D01*
X156307545Y-122152443D01*
X168363900Y-122152443D01*
X168363900Y-122322557D01*
X168397087Y-122489403D01*
X168462187Y-122646568D01*
X168556698Y-122788013D01*
X168676987Y-122908302D01*
X168818432Y-123002813D01*
X168975597Y-123067913D01*
X169142443Y-123101100D01*
X169312557Y-123101100D01*
X169479403Y-123067913D01*
X169636568Y-123002813D01*
X169778013Y-122908302D01*
X169898302Y-122788013D01*
X169992813Y-122646568D01*
X170037261Y-122539261D01*
X170144568Y-122494813D01*
X170286013Y-122400302D01*
X170406302Y-122280013D01*
X170500813Y-122138568D01*
X170565913Y-121981403D01*
X170599100Y-121814557D01*
X170599100Y-121644443D01*
X170588278Y-121590037D01*
X170596802Y-121581513D01*
X170691313Y-121440068D01*
X170756413Y-121282903D01*
X170789600Y-121116057D01*
X170789600Y-120945943D01*
X170756413Y-120779097D01*
X170691313Y-120621932D01*
X170596802Y-120480487D01*
X170476513Y-120360198D01*
X170335068Y-120265687D01*
X170177903Y-120200587D01*
X170011057Y-120167400D01*
X169840943Y-120167400D01*
X169674097Y-120200587D01*
X169516932Y-120265687D01*
X169375487Y-120360198D01*
X169255198Y-120480487D01*
X169160687Y-120621932D01*
X169095587Y-120779097D01*
X169062400Y-120945943D01*
X169062400Y-121116057D01*
X169073222Y-121170463D01*
X169064698Y-121178987D01*
X168970187Y-121320432D01*
X168925739Y-121427739D01*
X168818432Y-121472187D01*
X168676987Y-121566698D01*
X168556698Y-121686987D01*
X168462187Y-121828432D01*
X168397087Y-121985597D01*
X168363900Y-122152443D01*
X156307545Y-122152443D01*
X156311600Y-122132057D01*
X156311600Y-121961943D01*
X156278413Y-121795097D01*
X156213313Y-121637932D01*
X156118802Y-121496487D01*
X155998513Y-121376198D01*
X155857068Y-121281687D01*
X155699903Y-121216587D01*
X155533057Y-121183400D01*
X155362943Y-121183400D01*
X155196097Y-121216587D01*
X155038932Y-121281687D01*
X154972072Y-121326362D01*
X154943313Y-121256932D01*
X154848802Y-121115487D01*
X154728513Y-120995198D01*
X154587068Y-120900687D01*
X154429903Y-120835587D01*
X154263057Y-120802400D01*
X154092943Y-120802400D01*
X153926097Y-120835587D01*
X153768932Y-120900687D01*
X153627487Y-120995198D01*
X153507198Y-121115487D01*
X153412687Y-121256932D01*
X153347587Y-121414097D01*
X153314400Y-121580943D01*
X137305137Y-121580943D01*
X137301006Y-121560177D01*
X137195095Y-121304483D01*
X137041335Y-121074365D01*
X136845635Y-120878665D01*
X136615517Y-120724905D01*
X136561122Y-120702374D01*
X136673724Y-120642187D01*
X136695510Y-120564943D01*
X151155400Y-120564943D01*
X151155400Y-120735057D01*
X151188587Y-120901903D01*
X151253687Y-121059068D01*
X151348198Y-121200513D01*
X151468487Y-121320802D01*
X151609932Y-121415313D01*
X151767097Y-121480413D01*
X151933943Y-121513600D01*
X152104057Y-121513600D01*
X152270903Y-121480413D01*
X152428068Y-121415313D01*
X152569513Y-121320802D01*
X152689802Y-121200513D01*
X152784313Y-121059068D01*
X152849413Y-120901903D01*
X152882600Y-120735057D01*
X152882600Y-120691943D01*
X156362400Y-120691943D01*
X156362400Y-120862057D01*
X156395587Y-121028903D01*
X156460687Y-121186068D01*
X156555198Y-121327513D01*
X156675487Y-121447802D01*
X156816932Y-121542313D01*
X156974097Y-121607413D01*
X157140943Y-121640600D01*
X157311057Y-121640600D01*
X157477903Y-121607413D01*
X157635068Y-121542313D01*
X157776513Y-121447802D01*
X157896802Y-121327513D01*
X157991313Y-121186068D01*
X158056413Y-121028903D01*
X158089600Y-120862057D01*
X158089600Y-120751600D01*
X158200057Y-120751600D01*
X158366903Y-120718413D01*
X158524068Y-120653313D01*
X158665513Y-120558802D01*
X158785802Y-120438513D01*
X158880313Y-120297068D01*
X158945413Y-120139903D01*
X158978600Y-119973057D01*
X158978600Y-119802943D01*
X158945413Y-119636097D01*
X158889662Y-119501501D01*
X172640023Y-119501501D01*
X172681104Y-119775195D01*
X172774790Y-120035617D01*
X172837813Y-120153524D01*
X173078722Y-120221473D01*
X173870395Y-119429800D01*
X174229605Y-119429800D01*
X175021278Y-120221473D01*
X175262187Y-120153524D01*
X175380087Y-119903132D01*
X175446872Y-119634550D01*
X175459977Y-119358099D01*
X175418896Y-119084405D01*
X175325210Y-118823983D01*
X175262187Y-118706076D01*
X175021278Y-118638127D01*
X174229605Y-119429800D01*
X173870395Y-119429800D01*
X173078722Y-118638127D01*
X172837813Y-118706076D01*
X172719913Y-118956468D01*
X172653128Y-119225050D01*
X172640023Y-119501501D01*
X158889662Y-119501501D01*
X158880313Y-119478932D01*
X158785802Y-119337487D01*
X158665513Y-119217198D01*
X158524068Y-119122687D01*
X158366903Y-119057587D01*
X158200057Y-119024400D01*
X158029943Y-119024400D01*
X157863097Y-119057587D01*
X157705932Y-119122687D01*
X157564487Y-119217198D01*
X157444198Y-119337487D01*
X157349687Y-119478932D01*
X157284587Y-119636097D01*
X157251400Y-119802943D01*
X157251400Y-119913400D01*
X157140943Y-119913400D01*
X156974097Y-119946587D01*
X156816932Y-120011687D01*
X156675487Y-120106198D01*
X156555198Y-120226487D01*
X156460687Y-120367932D01*
X156395587Y-120525097D01*
X156362400Y-120691943D01*
X152882600Y-120691943D01*
X152882600Y-120564943D01*
X152849413Y-120398097D01*
X152784313Y-120240932D01*
X152689802Y-120099487D01*
X152569513Y-119979198D01*
X152428068Y-119884687D01*
X152270903Y-119819587D01*
X152104057Y-119786400D01*
X151933943Y-119786400D01*
X151767097Y-119819587D01*
X151609932Y-119884687D01*
X151468487Y-119979198D01*
X151348198Y-120099487D01*
X151253687Y-120240932D01*
X151188587Y-120398097D01*
X151155400Y-120564943D01*
X136695510Y-120564943D01*
X136741673Y-120401278D01*
X135950000Y-119609605D01*
X135158327Y-120401278D01*
X135226276Y-120642187D01*
X135346976Y-120699020D01*
X135284483Y-120724905D01*
X135054365Y-120878665D01*
X134858665Y-121074365D01*
X134704905Y-121304483D01*
X134598994Y-121560177D01*
X134545000Y-121831620D01*
X133635000Y-121831620D01*
X133635000Y-119501701D01*
X134540023Y-119501701D01*
X134581104Y-119775395D01*
X134674790Y-120035817D01*
X134737813Y-120153724D01*
X134978722Y-120221673D01*
X135770395Y-119430000D01*
X136129605Y-119430000D01*
X136921278Y-120221673D01*
X137162187Y-120153724D01*
X137280087Y-119903332D01*
X137346872Y-119634750D01*
X137359977Y-119358299D01*
X137350468Y-119294943D01*
X140233400Y-119294943D01*
X140233400Y-119465057D01*
X140266587Y-119631903D01*
X140331687Y-119789068D01*
X140426198Y-119930513D01*
X140546487Y-120050802D01*
X140687932Y-120145313D01*
X140845097Y-120210413D01*
X141011943Y-120243600D01*
X141182057Y-120243600D01*
X141348903Y-120210413D01*
X141506068Y-120145313D01*
X141647513Y-120050802D01*
X141767802Y-119930513D01*
X141862313Y-119789068D01*
X141927413Y-119631903D01*
X141960600Y-119465057D01*
X141960600Y-119294943D01*
X141927413Y-119128097D01*
X141862313Y-118970932D01*
X141767802Y-118829487D01*
X141647513Y-118709198D01*
X141506068Y-118614687D01*
X141348903Y-118549587D01*
X141182057Y-118516400D01*
X141011943Y-118516400D01*
X140845097Y-118549587D01*
X140687932Y-118614687D01*
X140546487Y-118709198D01*
X140426198Y-118829487D01*
X140331687Y-118970932D01*
X140266587Y-119128097D01*
X140233400Y-119294943D01*
X137350468Y-119294943D01*
X137318896Y-119084605D01*
X137225210Y-118824183D01*
X137162187Y-118706276D01*
X136921278Y-118638327D01*
X136129605Y-119430000D01*
X135770395Y-119430000D01*
X134978722Y-118638327D01*
X134737813Y-118706276D01*
X134619913Y-118956668D01*
X134553128Y-119225250D01*
X134540023Y-119501701D01*
X133635000Y-119501701D01*
X133635000Y-116751620D01*
X134545000Y-116751620D01*
X134545000Y-117028380D01*
X134598994Y-117299823D01*
X134704905Y-117555517D01*
X134858665Y-117785635D01*
X135054365Y-117981335D01*
X135284483Y-118135095D01*
X135338878Y-118157626D01*
X135226276Y-118217813D01*
X135158327Y-118458722D01*
X135950000Y-119250395D01*
X136741673Y-118458722D01*
X136673724Y-118217813D01*
X136553024Y-118160980D01*
X136615517Y-118135095D01*
X136845635Y-117981335D01*
X137041335Y-117785635D01*
X137195095Y-117555517D01*
X137263677Y-117389943D01*
X145440400Y-117389943D01*
X145440400Y-117560057D01*
X145473587Y-117726903D01*
X145538687Y-117884068D01*
X145633198Y-118025513D01*
X145753487Y-118145802D01*
X145894932Y-118240313D01*
X146052097Y-118305413D01*
X146218943Y-118338600D01*
X146389057Y-118338600D01*
X146555903Y-118305413D01*
X146713068Y-118240313D01*
X146845322Y-118151943D01*
X151409400Y-118151943D01*
X151409400Y-118322057D01*
X151442587Y-118488903D01*
X151507687Y-118646068D01*
X151602198Y-118787513D01*
X151722487Y-118907802D01*
X151863932Y-119002313D01*
X152021097Y-119067413D01*
X152187943Y-119100600D01*
X152358057Y-119100600D01*
X152524903Y-119067413D01*
X152682068Y-119002313D01*
X152717500Y-118978638D01*
X152752932Y-119002313D01*
X152910097Y-119067413D01*
X153076943Y-119100600D01*
X153247057Y-119100600D01*
X153413903Y-119067413D01*
X153543000Y-119013939D01*
X153672097Y-119067413D01*
X153838943Y-119100600D01*
X154009057Y-119100600D01*
X154175903Y-119067413D01*
X154333068Y-119002313D01*
X154474513Y-118907802D01*
X154594802Y-118787513D01*
X154689313Y-118646068D01*
X154754413Y-118488903D01*
X154770914Y-118405943D01*
X159664400Y-118405943D01*
X159664400Y-118576057D01*
X159697587Y-118742903D01*
X159762687Y-118900068D01*
X159857198Y-119041513D01*
X159977487Y-119161802D01*
X160118932Y-119256313D01*
X160276097Y-119321413D01*
X160442943Y-119354600D01*
X160613057Y-119354600D01*
X160779903Y-119321413D01*
X160937068Y-119256313D01*
X161078513Y-119161802D01*
X161198802Y-119041513D01*
X161263052Y-118945356D01*
X161287903Y-118940413D01*
X161445068Y-118875313D01*
X161586513Y-118780802D01*
X161706802Y-118660513D01*
X161801313Y-118519068D01*
X161866413Y-118361903D01*
X161899600Y-118195057D01*
X161899600Y-118024943D01*
X161866413Y-117858097D01*
X161801313Y-117700932D01*
X161706802Y-117559487D01*
X161586513Y-117439198D01*
X161512799Y-117389943D01*
X164617400Y-117389943D01*
X164617400Y-117560057D01*
X164650587Y-117726903D01*
X164715687Y-117884068D01*
X164810198Y-118025513D01*
X164930487Y-118145802D01*
X165071932Y-118240313D01*
X165229097Y-118305413D01*
X165395943Y-118338600D01*
X165566057Y-118338600D01*
X165732903Y-118305413D01*
X165890068Y-118240313D01*
X166031513Y-118145802D01*
X166151802Y-118025513D01*
X166246313Y-117884068D01*
X166311413Y-117726903D01*
X166344600Y-117560057D01*
X166344600Y-117389943D01*
X168173400Y-117389943D01*
X168173400Y-117560057D01*
X168206587Y-117726903D01*
X168271687Y-117884068D01*
X168366198Y-118025513D01*
X168486487Y-118145802D01*
X168627932Y-118240313D01*
X168785097Y-118305413D01*
X168951943Y-118338600D01*
X169122057Y-118338600D01*
X169288903Y-118305413D01*
X169446068Y-118240313D01*
X169587513Y-118145802D01*
X169707802Y-118025513D01*
X169802313Y-117884068D01*
X169867413Y-117726903D01*
X169900600Y-117560057D01*
X169900600Y-117389943D01*
X169867413Y-117223097D01*
X169802313Y-117065932D01*
X169707802Y-116924487D01*
X169587513Y-116804198D01*
X169508526Y-116751420D01*
X170105000Y-116751420D01*
X170105000Y-117028180D01*
X170158994Y-117299623D01*
X170264905Y-117555317D01*
X170418665Y-117785435D01*
X170614365Y-117981135D01*
X170844483Y-118134895D01*
X171100177Y-118240806D01*
X171371620Y-118294800D01*
X171648380Y-118294800D01*
X171919823Y-118240806D01*
X172175517Y-118134895D01*
X172405635Y-117981135D01*
X172601335Y-117785435D01*
X172755095Y-117555317D01*
X172780000Y-117495190D01*
X172804905Y-117555317D01*
X172958665Y-117785435D01*
X173154365Y-117981135D01*
X173384483Y-118134895D01*
X173438878Y-118157426D01*
X173326276Y-118217613D01*
X173258327Y-118458522D01*
X174050000Y-119250195D01*
X174841673Y-118458522D01*
X174773724Y-118217613D01*
X174653024Y-118160780D01*
X174715517Y-118134895D01*
X174945635Y-117981135D01*
X175141335Y-117785435D01*
X175295095Y-117555317D01*
X175401006Y-117299623D01*
X175455000Y-117028180D01*
X175455000Y-116751420D01*
X175401006Y-116479977D01*
X175295095Y-116224283D01*
X175141335Y-115994165D01*
X174945635Y-115798465D01*
X174715517Y-115644705D01*
X174459823Y-115538794D01*
X174188380Y-115484800D01*
X173911620Y-115484800D01*
X173640177Y-115538794D01*
X173384483Y-115644705D01*
X173154365Y-115798465D01*
X172958665Y-115994165D01*
X172804905Y-116224283D01*
X172780000Y-116284410D01*
X172755095Y-116224283D01*
X172601335Y-115994165D01*
X172405635Y-115798465D01*
X172175517Y-115644705D01*
X171919823Y-115538794D01*
X171648380Y-115484800D01*
X171371620Y-115484800D01*
X171100177Y-115538794D01*
X170844483Y-115644705D01*
X170614365Y-115798465D01*
X170418665Y-115994165D01*
X170264905Y-116224283D01*
X170158994Y-116479977D01*
X170105000Y-116751420D01*
X169508526Y-116751420D01*
X169446068Y-116709687D01*
X169288903Y-116644587D01*
X169122057Y-116611400D01*
X168951943Y-116611400D01*
X168785097Y-116644587D01*
X168627932Y-116709687D01*
X168486487Y-116804198D01*
X168366198Y-116924487D01*
X168271687Y-117065932D01*
X168206587Y-117223097D01*
X168173400Y-117389943D01*
X166344600Y-117389943D01*
X166311413Y-117223097D01*
X166246313Y-117065932D01*
X166151802Y-116924487D01*
X166031513Y-116804198D01*
X165890068Y-116709687D01*
X165732903Y-116644587D01*
X165566057Y-116611400D01*
X165395943Y-116611400D01*
X165229097Y-116644587D01*
X165071932Y-116709687D01*
X164930487Y-116804198D01*
X164810198Y-116924487D01*
X164715687Y-117065932D01*
X164650587Y-117223097D01*
X164617400Y-117389943D01*
X161512799Y-117389943D01*
X161445068Y-117344687D01*
X161287903Y-117279587D01*
X161121057Y-117246400D01*
X160950943Y-117246400D01*
X160784097Y-117279587D01*
X160626932Y-117344687D01*
X160485487Y-117439198D01*
X160365198Y-117559487D01*
X160300948Y-117655644D01*
X160276097Y-117660587D01*
X160118932Y-117725687D01*
X159977487Y-117820198D01*
X159857198Y-117940487D01*
X159762687Y-118081932D01*
X159697587Y-118239097D01*
X159664400Y-118405943D01*
X154770914Y-118405943D01*
X154787600Y-118322057D01*
X154787600Y-118151943D01*
X154754413Y-117985097D01*
X154689313Y-117827932D01*
X154594802Y-117686487D01*
X154474513Y-117566198D01*
X154333068Y-117471687D01*
X154175903Y-117406587D01*
X154009057Y-117373400D01*
X153838943Y-117373400D01*
X153672097Y-117406587D01*
X153543000Y-117460061D01*
X153413903Y-117406587D01*
X153247057Y-117373400D01*
X153076943Y-117373400D01*
X152910097Y-117406587D01*
X152752932Y-117471687D01*
X152717500Y-117495362D01*
X152682068Y-117471687D01*
X152524903Y-117406587D01*
X152358057Y-117373400D01*
X152187943Y-117373400D01*
X152021097Y-117406587D01*
X151863932Y-117471687D01*
X151722487Y-117566198D01*
X151602198Y-117686487D01*
X151507687Y-117827932D01*
X151442587Y-117985097D01*
X151409400Y-118151943D01*
X146845322Y-118151943D01*
X146854513Y-118145802D01*
X146974802Y-118025513D01*
X147069313Y-117884068D01*
X147134413Y-117726903D01*
X147167600Y-117560057D01*
X147167600Y-117389943D01*
X147134413Y-117223097D01*
X147069313Y-117065932D01*
X146974802Y-116924487D01*
X146854513Y-116804198D01*
X146713068Y-116709687D01*
X146555903Y-116644587D01*
X146389057Y-116611400D01*
X146218943Y-116611400D01*
X146052097Y-116644587D01*
X145894932Y-116709687D01*
X145753487Y-116804198D01*
X145633198Y-116924487D01*
X145538687Y-117065932D01*
X145473587Y-117223097D01*
X145440400Y-117389943D01*
X137263677Y-117389943D01*
X137301006Y-117299823D01*
X137355000Y-117028380D01*
X137355000Y-116751620D01*
X137301006Y-116480177D01*
X137195095Y-116224483D01*
X137041335Y-115994365D01*
X136845635Y-115798665D01*
X136615517Y-115644905D01*
X136359823Y-115538994D01*
X136088380Y-115485000D01*
X135811620Y-115485000D01*
X135540177Y-115538994D01*
X135284483Y-115644905D01*
X135054365Y-115798665D01*
X134858665Y-115994365D01*
X134704905Y-116224483D01*
X134598994Y-116480177D01*
X134545000Y-116751620D01*
X133635000Y-116751620D01*
X133635000Y-115024164D01*
X152358784Y-115024164D01*
X152362826Y-115212827D01*
X152523974Y-115279328D01*
X152694998Y-115313113D01*
X152869328Y-115312884D01*
X153040264Y-115278649D01*
X153199174Y-115212827D01*
X153203216Y-115024164D01*
X153130495Y-114951443D01*
X154863900Y-114951443D01*
X154863900Y-115121557D01*
X154897087Y-115288403D01*
X154962187Y-115445568D01*
X155056698Y-115587013D01*
X155176987Y-115707302D01*
X155318432Y-115801813D01*
X155475597Y-115866913D01*
X155642443Y-115900100D01*
X155812557Y-115900100D01*
X155979403Y-115866913D01*
X156136568Y-115801813D01*
X156278013Y-115707302D01*
X156398302Y-115587013D01*
X156492813Y-115445568D01*
X156557913Y-115288403D01*
X156591100Y-115121557D01*
X156591100Y-114951443D01*
X158292900Y-114951443D01*
X158292900Y-115121557D01*
X158326087Y-115288403D01*
X158391187Y-115445568D01*
X158485698Y-115587013D01*
X158605987Y-115707302D01*
X158747432Y-115801813D01*
X158904597Y-115866913D01*
X159071443Y-115900100D01*
X159241557Y-115900100D01*
X159408403Y-115866913D01*
X159565568Y-115801813D01*
X159707013Y-115707302D01*
X159827302Y-115587013D01*
X159921813Y-115445568D01*
X159986913Y-115288403D01*
X160020100Y-115121557D01*
X160020100Y-114951443D01*
X159986913Y-114784597D01*
X159921813Y-114627432D01*
X159827302Y-114485987D01*
X159749167Y-114407852D01*
X173811753Y-114407852D01*
X173940076Y-114699871D01*
X174275695Y-114867723D01*
X174637611Y-114966874D01*
X175011916Y-114993514D01*
X175384227Y-114946618D01*
X175740235Y-114827988D01*
X175979924Y-114699871D01*
X176108247Y-114407852D01*
X174960000Y-113259605D01*
X173811753Y-114407852D01*
X159749167Y-114407852D01*
X159707013Y-114365698D01*
X159565568Y-114271187D01*
X159408403Y-114206087D01*
X159241557Y-114172900D01*
X159071443Y-114172900D01*
X158904597Y-114206087D01*
X158747432Y-114271187D01*
X158605987Y-114365698D01*
X158485698Y-114485987D01*
X158391187Y-114627432D01*
X158326087Y-114784597D01*
X158292900Y-114951443D01*
X156591100Y-114951443D01*
X156557913Y-114784597D01*
X156492813Y-114627432D01*
X156398302Y-114485987D01*
X156278013Y-114365698D01*
X156136568Y-114271187D01*
X155979403Y-114206087D01*
X155812557Y-114172900D01*
X155642443Y-114172900D01*
X155475597Y-114206087D01*
X155318432Y-114271187D01*
X155176987Y-114365698D01*
X155056698Y-114485987D01*
X154962187Y-114627432D01*
X154897087Y-114784597D01*
X154863900Y-114951443D01*
X153130495Y-114951443D01*
X152781000Y-114601948D01*
X152358784Y-115024164D01*
X133635000Y-115024164D01*
X133635000Y-114407852D01*
X133891753Y-114407852D01*
X134020076Y-114699871D01*
X134355695Y-114867723D01*
X134717611Y-114966874D01*
X135091916Y-114993514D01*
X135464227Y-114946618D01*
X135820235Y-114827988D01*
X136059924Y-114699871D01*
X136188247Y-114407852D01*
X135040000Y-113259605D01*
X133891753Y-114407852D01*
X133635000Y-114407852D01*
X133635000Y-114194346D01*
X133712148Y-114228247D01*
X134860395Y-113080000D01*
X135219605Y-113080000D01*
X136367852Y-114228247D01*
X136659871Y-114099924D01*
X136827723Y-113764305D01*
X136926874Y-113402389D01*
X136927613Y-113391998D01*
X151320887Y-113391998D01*
X151321116Y-113566328D01*
X151355351Y-113737264D01*
X151421173Y-113896174D01*
X151609836Y-113900216D01*
X152032052Y-113478000D01*
X151609836Y-113055784D01*
X151421173Y-113059826D01*
X151354672Y-113220974D01*
X151320887Y-113391998D01*
X136927613Y-113391998D01*
X136953514Y-113028084D01*
X136935093Y-112881836D01*
X151783784Y-112881836D01*
X152206000Y-113304052D01*
X152222971Y-113287081D01*
X152396919Y-113461029D01*
X152379948Y-113478000D01*
X152396919Y-113494971D01*
X152222971Y-113668919D01*
X152206000Y-113651948D01*
X151783784Y-114074164D01*
X151787826Y-114262827D01*
X151902203Y-114310027D01*
X151895887Y-114341998D01*
X151896116Y-114516328D01*
X151930351Y-114687264D01*
X151996173Y-114846174D01*
X152184836Y-114850216D01*
X152607052Y-114428000D01*
X152590081Y-114411029D01*
X152764029Y-114237081D01*
X152781000Y-114254052D01*
X152797971Y-114237081D01*
X152971919Y-114411029D01*
X152954948Y-114428000D01*
X153377164Y-114850216D01*
X153565827Y-114846174D01*
X153632328Y-114685026D01*
X153666113Y-114514002D01*
X153665884Y-114339672D01*
X153659968Y-114310132D01*
X153774174Y-114262827D01*
X153778216Y-114074164D01*
X153356000Y-113651948D01*
X153339029Y-113668919D01*
X153165081Y-113494971D01*
X153182052Y-113478000D01*
X153529948Y-113478000D01*
X153952164Y-113900216D01*
X154140827Y-113896174D01*
X154207328Y-113735026D01*
X154241113Y-113564002D01*
X154240884Y-113389672D01*
X154206649Y-113218736D01*
X154170688Y-113131916D01*
X173046486Y-113131916D01*
X173093382Y-113504227D01*
X173212012Y-113860235D01*
X173340129Y-114099924D01*
X173632148Y-114228247D01*
X174780395Y-113080000D01*
X173632148Y-111931753D01*
X173340129Y-112060076D01*
X173172277Y-112395695D01*
X173073126Y-112757611D01*
X173046486Y-113131916D01*
X154170688Y-113131916D01*
X154140827Y-113059826D01*
X153952164Y-113055784D01*
X153529948Y-113478000D01*
X153182052Y-113478000D01*
X153165081Y-113461029D01*
X153339029Y-113287081D01*
X153356000Y-113304052D01*
X153778216Y-112881836D01*
X153774174Y-112693173D01*
X153659797Y-112645973D01*
X153666113Y-112614002D01*
X153665884Y-112439672D01*
X153631649Y-112268736D01*
X153565827Y-112109826D01*
X153377164Y-112105784D01*
X152954948Y-112528000D01*
X152971919Y-112544971D01*
X152797971Y-112718919D01*
X152781000Y-112701948D01*
X152764029Y-112718919D01*
X152590081Y-112544971D01*
X152607052Y-112528000D01*
X152184836Y-112105784D01*
X151996173Y-112109826D01*
X151929672Y-112270974D01*
X151895887Y-112441998D01*
X151896116Y-112616328D01*
X151902032Y-112645868D01*
X151787826Y-112693173D01*
X151783784Y-112881836D01*
X136935093Y-112881836D01*
X136906618Y-112655773D01*
X136787988Y-112299765D01*
X136659871Y-112060076D01*
X136367852Y-111931753D01*
X135219605Y-113080000D01*
X134860395Y-113080000D01*
X133712148Y-111931753D01*
X133635000Y-111965654D01*
X133635000Y-111752148D01*
X133891753Y-111752148D01*
X135040000Y-112900395D01*
X136188247Y-111752148D01*
X136098513Y-111547943D01*
X139090400Y-111547943D01*
X139090400Y-111718057D01*
X139123587Y-111884903D01*
X139188687Y-112042068D01*
X139283198Y-112183513D01*
X139403487Y-112303802D01*
X139544932Y-112398313D01*
X139702097Y-112463413D01*
X139868943Y-112496600D01*
X140039057Y-112496600D01*
X140205903Y-112463413D01*
X140363068Y-112398313D01*
X140377413Y-112388728D01*
X140419487Y-112430802D01*
X140560932Y-112525313D01*
X140718097Y-112590413D01*
X140884943Y-112623600D01*
X141055057Y-112623600D01*
X141221903Y-112590413D01*
X141379068Y-112525313D01*
X141520513Y-112430802D01*
X141640802Y-112310513D01*
X141735313Y-112169068D01*
X141800413Y-112011903D01*
X141816338Y-111931836D01*
X152358784Y-111931836D01*
X152781000Y-112354052D01*
X153203216Y-111931836D01*
X153199367Y-111752148D01*
X173811753Y-111752148D01*
X174960000Y-112900395D01*
X176108247Y-111752148D01*
X175979924Y-111460129D01*
X175644305Y-111292277D01*
X175282389Y-111193126D01*
X174908084Y-111166486D01*
X174535773Y-111213382D01*
X174179765Y-111332012D01*
X173940076Y-111460129D01*
X173811753Y-111752148D01*
X153199367Y-111752148D01*
X153199174Y-111743173D01*
X153038026Y-111676672D01*
X152867002Y-111642887D01*
X152692672Y-111643116D01*
X152521736Y-111677351D01*
X152362826Y-111743173D01*
X152358784Y-111931836D01*
X141816338Y-111931836D01*
X141833600Y-111845057D01*
X141833600Y-111674943D01*
X141800413Y-111508097D01*
X141735313Y-111350932D01*
X141640802Y-111209487D01*
X141520513Y-111089198D01*
X141379068Y-110994687D01*
X141221903Y-110929587D01*
X141055057Y-110896400D01*
X140884943Y-110896400D01*
X140718097Y-110929587D01*
X140560932Y-110994687D01*
X140546587Y-111004272D01*
X140504513Y-110962198D01*
X140363068Y-110867687D01*
X140205903Y-110802587D01*
X140039057Y-110769400D01*
X139868943Y-110769400D01*
X139702097Y-110802587D01*
X139544932Y-110867687D01*
X139403487Y-110962198D01*
X139283198Y-111082487D01*
X139188687Y-111223932D01*
X139123587Y-111381097D01*
X139090400Y-111547943D01*
X136098513Y-111547943D01*
X136059924Y-111460129D01*
X135724305Y-111292277D01*
X135362389Y-111193126D01*
X134988084Y-111166486D01*
X134615773Y-111213382D01*
X134259765Y-111332012D01*
X134020076Y-111460129D01*
X133891753Y-111752148D01*
X133635000Y-111752148D01*
X133635000Y-110150943D01*
X137210900Y-110150943D01*
X137210900Y-110321057D01*
X137244087Y-110487903D01*
X137309187Y-110645068D01*
X137403698Y-110786513D01*
X137523987Y-110906802D01*
X137665432Y-111001313D01*
X137822597Y-111066413D01*
X137989443Y-111099600D01*
X138159557Y-111099600D01*
X138326403Y-111066413D01*
X138483568Y-111001313D01*
X138625013Y-110906802D01*
X138745302Y-110786513D01*
X138839813Y-110645068D01*
X138904913Y-110487903D01*
X138938100Y-110321057D01*
X138938100Y-110150943D01*
X138912839Y-110023943D01*
X143154400Y-110023943D01*
X143154400Y-110194057D01*
X143187587Y-110360903D01*
X143252687Y-110518068D01*
X143347198Y-110659513D01*
X143467487Y-110779802D01*
X143608932Y-110874313D01*
X143766097Y-110939413D01*
X143932943Y-110972600D01*
X144103057Y-110972600D01*
X144269903Y-110939413D01*
X144427068Y-110874313D01*
X144568513Y-110779802D01*
X144688802Y-110659513D01*
X144783313Y-110518068D01*
X144848413Y-110360903D01*
X144864914Y-110277943D01*
X145821400Y-110277943D01*
X145821400Y-110448057D01*
X145854587Y-110614903D01*
X145919687Y-110772068D01*
X146014198Y-110913513D01*
X146134487Y-111033802D01*
X146275932Y-111128313D01*
X146433097Y-111193413D01*
X146599943Y-111226600D01*
X146770057Y-111226600D01*
X146936903Y-111193413D01*
X147094068Y-111128313D01*
X147235513Y-111033802D01*
X147355802Y-110913513D01*
X147450313Y-110772068D01*
X147515413Y-110614903D01*
X147548600Y-110448057D01*
X147548600Y-110277943D01*
X147515413Y-110111097D01*
X147450313Y-109953932D01*
X147355802Y-109812487D01*
X147235513Y-109692198D01*
X147094068Y-109597687D01*
X146936903Y-109532587D01*
X146770057Y-109499400D01*
X146599943Y-109499400D01*
X146433097Y-109532587D01*
X146275932Y-109597687D01*
X146134487Y-109692198D01*
X146014198Y-109812487D01*
X145919687Y-109953932D01*
X145854587Y-110111097D01*
X145821400Y-110277943D01*
X144864914Y-110277943D01*
X144881600Y-110194057D01*
X144881600Y-110023943D01*
X144848413Y-109857097D01*
X144783313Y-109699932D01*
X144688802Y-109558487D01*
X144568513Y-109438198D01*
X144427068Y-109343687D01*
X144269903Y-109278587D01*
X144103057Y-109245400D01*
X143932943Y-109245400D01*
X143766097Y-109278587D01*
X143608932Y-109343687D01*
X143467487Y-109438198D01*
X143347198Y-109558487D01*
X143252687Y-109699932D01*
X143187587Y-109857097D01*
X143154400Y-110023943D01*
X138912839Y-110023943D01*
X138904913Y-109984097D01*
X138839813Y-109826932D01*
X138745302Y-109685487D01*
X138625013Y-109565198D01*
X138483568Y-109470687D01*
X138326403Y-109405587D01*
X138159557Y-109372400D01*
X137989443Y-109372400D01*
X137822597Y-109405587D01*
X137665432Y-109470687D01*
X137523987Y-109565198D01*
X137403698Y-109685487D01*
X137309187Y-109826932D01*
X137244087Y-109984097D01*
X137210900Y-110150943D01*
X133635000Y-110150943D01*
X133635000Y-108372943D01*
X152552400Y-108372943D01*
X152552400Y-108543057D01*
X152585587Y-108709903D01*
X152650687Y-108867068D01*
X152745198Y-109008513D01*
X152865487Y-109128802D01*
X153006932Y-109223313D01*
X153164097Y-109288413D01*
X153330943Y-109321600D01*
X153501057Y-109321600D01*
X153667903Y-109288413D01*
X153825068Y-109223313D01*
X153966513Y-109128802D01*
X154086802Y-109008513D01*
X154181313Y-108867068D01*
X154246413Y-108709903D01*
X154279600Y-108543057D01*
X154279600Y-108372943D01*
X154246413Y-108206097D01*
X154181313Y-108048932D01*
X154086802Y-107907487D01*
X154044258Y-107864943D01*
X161188400Y-107864943D01*
X161188400Y-108035057D01*
X161221587Y-108201903D01*
X161286687Y-108359068D01*
X161381198Y-108500513D01*
X161501487Y-108620802D01*
X161642932Y-108715313D01*
X161800097Y-108780413D01*
X161966943Y-108813600D01*
X162137057Y-108813600D01*
X162303903Y-108780413D01*
X162461068Y-108715313D01*
X162602513Y-108620802D01*
X162722802Y-108500513D01*
X162817313Y-108359068D01*
X162882413Y-108201903D01*
X162915600Y-108035057D01*
X162915600Y-107864943D01*
X162882413Y-107698097D01*
X162817313Y-107540932D01*
X162722802Y-107399487D01*
X162602513Y-107279198D01*
X162461068Y-107184687D01*
X162303903Y-107119587D01*
X162220227Y-107102943D01*
X170967400Y-107102943D01*
X170967400Y-107273057D01*
X171000587Y-107439903D01*
X171065687Y-107597068D01*
X171160198Y-107738513D01*
X171280487Y-107858802D01*
X171421932Y-107953313D01*
X171579097Y-108018413D01*
X171745943Y-108051600D01*
X171916057Y-108051600D01*
X172082903Y-108018413D01*
X172240068Y-107953313D01*
X172381513Y-107858802D01*
X172501802Y-107738513D01*
X172596313Y-107597068D01*
X172661413Y-107439903D01*
X172694600Y-107273057D01*
X172694600Y-107102943D01*
X172661413Y-106936097D01*
X172596313Y-106778932D01*
X172501802Y-106637487D01*
X172381513Y-106517198D01*
X172240068Y-106422687D01*
X172082903Y-106357587D01*
X171916057Y-106324400D01*
X171745943Y-106324400D01*
X171579097Y-106357587D01*
X171421932Y-106422687D01*
X171280487Y-106517198D01*
X171160198Y-106637487D01*
X171065687Y-106778932D01*
X171000587Y-106936097D01*
X170967400Y-107102943D01*
X162220227Y-107102943D01*
X162137057Y-107086400D01*
X161966943Y-107086400D01*
X161800097Y-107119587D01*
X161642932Y-107184687D01*
X161501487Y-107279198D01*
X161381198Y-107399487D01*
X161286687Y-107540932D01*
X161221587Y-107698097D01*
X161188400Y-107864943D01*
X154044258Y-107864943D01*
X153966513Y-107787198D01*
X153825068Y-107692687D01*
X153667903Y-107627587D01*
X153501057Y-107594400D01*
X153330943Y-107594400D01*
X153164097Y-107627587D01*
X153006932Y-107692687D01*
X152865487Y-107787198D01*
X152745198Y-107907487D01*
X152650687Y-108048932D01*
X152585587Y-108206097D01*
X152552400Y-108372943D01*
X133635000Y-108372943D01*
X133635000Y-105578943D01*
X138328400Y-105578943D01*
X138328400Y-105749057D01*
X138361587Y-105915903D01*
X138426687Y-106073068D01*
X138521198Y-106214513D01*
X138641487Y-106334802D01*
X138782932Y-106429313D01*
X138940097Y-106494413D01*
X139106943Y-106527600D01*
X139277057Y-106527600D01*
X139443903Y-106494413D01*
X139601068Y-106429313D01*
X139742513Y-106334802D01*
X139862802Y-106214513D01*
X139957313Y-106073068D01*
X140022413Y-105915903D01*
X140055600Y-105749057D01*
X140055600Y-105578943D01*
X142773400Y-105578943D01*
X142773400Y-105749057D01*
X142806587Y-105915903D01*
X142871687Y-106073068D01*
X142966198Y-106214513D01*
X143086487Y-106334802D01*
X143227932Y-106429313D01*
X143385097Y-106494413D01*
X143551943Y-106527600D01*
X143722057Y-106527600D01*
X143888903Y-106494413D01*
X144046068Y-106429313D01*
X144187513Y-106334802D01*
X144307802Y-106214513D01*
X144402313Y-106073068D01*
X144467413Y-105915903D01*
X144500600Y-105749057D01*
X144500600Y-105578943D01*
X144467413Y-105412097D01*
X144402313Y-105254932D01*
X144307802Y-105113487D01*
X144187513Y-104993198D01*
X144046068Y-104898687D01*
X143888903Y-104833587D01*
X143722057Y-104800400D01*
X143551943Y-104800400D01*
X143385097Y-104833587D01*
X143227932Y-104898687D01*
X143086487Y-104993198D01*
X142966198Y-105113487D01*
X142871687Y-105254932D01*
X142806587Y-105412097D01*
X142773400Y-105578943D01*
X140055600Y-105578943D01*
X140022413Y-105412097D01*
X139957313Y-105254932D01*
X139862802Y-105113487D01*
X139742513Y-104993198D01*
X139601068Y-104898687D01*
X139443903Y-104833587D01*
X139277057Y-104800400D01*
X139106943Y-104800400D01*
X138940097Y-104833587D01*
X138782932Y-104898687D01*
X138641487Y-104993198D01*
X138521198Y-105113487D01*
X138426687Y-105254932D01*
X138361587Y-105412097D01*
X138328400Y-105578943D01*
X133635000Y-105578943D01*
X133635000Y-104247852D01*
X133891753Y-104247852D01*
X134020076Y-104539871D01*
X134355695Y-104707723D01*
X134717611Y-104806874D01*
X135091916Y-104833514D01*
X135464227Y-104786618D01*
X135820235Y-104667988D01*
X136059924Y-104539871D01*
X136188247Y-104247852D01*
X135040000Y-103099605D01*
X133891753Y-104247852D01*
X133635000Y-104247852D01*
X133635000Y-104034346D01*
X133712148Y-104068247D01*
X134860395Y-102920000D01*
X135219605Y-102920000D01*
X136367852Y-104068247D01*
X136659871Y-103939924D01*
X136665863Y-103927943D01*
X144551400Y-103927943D01*
X144551400Y-104098057D01*
X144584587Y-104264903D01*
X144649687Y-104422068D01*
X144744198Y-104563513D01*
X144864487Y-104683802D01*
X145005932Y-104778313D01*
X145163097Y-104843413D01*
X145329943Y-104876600D01*
X145500057Y-104876600D01*
X145666903Y-104843413D01*
X145824068Y-104778313D01*
X145965513Y-104683802D01*
X146085802Y-104563513D01*
X146180313Y-104422068D01*
X146245413Y-104264903D01*
X146248804Y-104247852D01*
X173811753Y-104247852D01*
X173940076Y-104539871D01*
X174275695Y-104707723D01*
X174637611Y-104806874D01*
X175011916Y-104833514D01*
X175384227Y-104786618D01*
X175740235Y-104667988D01*
X175979924Y-104539871D01*
X176108247Y-104247852D01*
X174960000Y-103099605D01*
X173811753Y-104247852D01*
X146248804Y-104247852D01*
X146278600Y-104098057D01*
X146278600Y-103927943D01*
X146245413Y-103761097D01*
X146180313Y-103603932D01*
X146085802Y-103462487D01*
X145965513Y-103342198D01*
X145824068Y-103247687D01*
X145666903Y-103182587D01*
X145500057Y-103149400D01*
X145329943Y-103149400D01*
X145163097Y-103182587D01*
X145005932Y-103247687D01*
X144864487Y-103342198D01*
X144744198Y-103462487D01*
X144649687Y-103603932D01*
X144584587Y-103761097D01*
X144551400Y-103927943D01*
X136665863Y-103927943D01*
X136827723Y-103604305D01*
X136926874Y-103242389D01*
X136946124Y-102971916D01*
X173046486Y-102971916D01*
X173093382Y-103344227D01*
X173212012Y-103700235D01*
X173340129Y-103939924D01*
X173632148Y-104068247D01*
X174780395Y-102920000D01*
X173632148Y-101771753D01*
X173340129Y-101900076D01*
X173172277Y-102235695D01*
X173073126Y-102597611D01*
X173046486Y-102971916D01*
X136946124Y-102971916D01*
X136953514Y-102868084D01*
X136906618Y-102495773D01*
X136787988Y-102139765D01*
X136659871Y-101900076D01*
X136367852Y-101771753D01*
X135219605Y-102920000D01*
X134860395Y-102920000D01*
X133712148Y-101771753D01*
X133635000Y-101805654D01*
X133635000Y-101592148D01*
X133891753Y-101592148D01*
X135040000Y-102740395D01*
X136188247Y-101592148D01*
X136098513Y-101387943D01*
X140741400Y-101387943D01*
X140741400Y-101558057D01*
X140774587Y-101724903D01*
X140839687Y-101882068D01*
X140934198Y-102023513D01*
X141054487Y-102143802D01*
X141195932Y-102238313D01*
X141353097Y-102303413D01*
X141519943Y-102336600D01*
X141690057Y-102336600D01*
X141856903Y-102303413D01*
X142014068Y-102238313D01*
X142155513Y-102143802D01*
X142275802Y-102023513D01*
X142370313Y-101882068D01*
X142435413Y-101724903D01*
X142461819Y-101592148D01*
X173811753Y-101592148D01*
X174960000Y-102740395D01*
X176108247Y-101592148D01*
X175979924Y-101300129D01*
X175644305Y-101132277D01*
X175282389Y-101033126D01*
X174908084Y-101006486D01*
X174535773Y-101053382D01*
X174179765Y-101172012D01*
X173940076Y-101300129D01*
X173811753Y-101592148D01*
X142461819Y-101592148D01*
X142468600Y-101558057D01*
X142468600Y-101387943D01*
X142435413Y-101221097D01*
X142370313Y-101063932D01*
X142275802Y-100922487D01*
X142155513Y-100802198D01*
X142014068Y-100707687D01*
X141856903Y-100642587D01*
X141690057Y-100609400D01*
X141519943Y-100609400D01*
X141353097Y-100642587D01*
X141195932Y-100707687D01*
X141054487Y-100802198D01*
X140934198Y-100922487D01*
X140839687Y-101063932D01*
X140774587Y-101221097D01*
X140741400Y-101387943D01*
X136098513Y-101387943D01*
X136059924Y-101300129D01*
X135724305Y-101132277D01*
X135362389Y-101033126D01*
X134988084Y-101006486D01*
X134615773Y-101053382D01*
X134259765Y-101172012D01*
X134020076Y-101300129D01*
X133891753Y-101592148D01*
X133635000Y-101592148D01*
X133635000Y-98971620D01*
X134545000Y-98971620D01*
X134545000Y-99248380D01*
X134598994Y-99519823D01*
X134704905Y-99775517D01*
X134858665Y-100005635D01*
X135054365Y-100201335D01*
X135284483Y-100355095D01*
X135540177Y-100461006D01*
X135811620Y-100515000D01*
X136088380Y-100515000D01*
X136359823Y-100461006D01*
X136615517Y-100355095D01*
X136845635Y-100201335D01*
X137041335Y-100005635D01*
X137195095Y-99775517D01*
X137301006Y-99519823D01*
X137355000Y-99248380D01*
X137355000Y-98971620D01*
X137330399Y-98847943D01*
X139217400Y-98847943D01*
X139217400Y-99018057D01*
X139250587Y-99184903D01*
X139315687Y-99342068D01*
X139410198Y-99483513D01*
X139530487Y-99603802D01*
X139671932Y-99698313D01*
X139829097Y-99763413D01*
X139995943Y-99796600D01*
X140166057Y-99796600D01*
X140332903Y-99763413D01*
X140490068Y-99698313D01*
X140631513Y-99603802D01*
X140751802Y-99483513D01*
X140846313Y-99342068D01*
X140911413Y-99184903D01*
X140944600Y-99018057D01*
X140944600Y-98847943D01*
X140911413Y-98681097D01*
X140846313Y-98523932D01*
X140801638Y-98457072D01*
X140871068Y-98428313D01*
X141012513Y-98333802D01*
X141132802Y-98213513D01*
X141227313Y-98072068D01*
X141292413Y-97914903D01*
X141325600Y-97748057D01*
X141325600Y-97577943D01*
X141292413Y-97411097D01*
X141227313Y-97253932D01*
X141132802Y-97112487D01*
X141012513Y-96992198D01*
X140871068Y-96897687D01*
X140713903Y-96832587D01*
X140547057Y-96799400D01*
X140376943Y-96799400D01*
X140210097Y-96832587D01*
X140052932Y-96897687D01*
X139911487Y-96992198D01*
X139791198Y-97112487D01*
X139696687Y-97253932D01*
X139631587Y-97411097D01*
X139598400Y-97577943D01*
X139598400Y-97748057D01*
X139631587Y-97914903D01*
X139696687Y-98072068D01*
X139741362Y-98138928D01*
X139671932Y-98167687D01*
X139530487Y-98262198D01*
X139410198Y-98382487D01*
X139315687Y-98523932D01*
X139250587Y-98681097D01*
X139217400Y-98847943D01*
X137330399Y-98847943D01*
X137301006Y-98700177D01*
X137195095Y-98444483D01*
X137041335Y-98214365D01*
X136845635Y-98018665D01*
X136615517Y-97864905D01*
X136561122Y-97842374D01*
X136673724Y-97782187D01*
X136741673Y-97541278D01*
X135950000Y-96749605D01*
X135158327Y-97541278D01*
X135226276Y-97782187D01*
X135346976Y-97839020D01*
X135284483Y-97864905D01*
X135054365Y-98018665D01*
X134858665Y-98214365D01*
X134704905Y-98444483D01*
X134598994Y-98700177D01*
X134545000Y-98971620D01*
X133635000Y-98971620D01*
X133635000Y-96641701D01*
X134540023Y-96641701D01*
X134581104Y-96915395D01*
X134674790Y-97175817D01*
X134737813Y-97293724D01*
X134978722Y-97361673D01*
X135770395Y-96570000D01*
X136129605Y-96570000D01*
X136921278Y-97361673D01*
X137162187Y-97293724D01*
X137280087Y-97043332D01*
X137346872Y-96774750D01*
X137359977Y-96498299D01*
X137331405Y-96307943D01*
X144170400Y-96307943D01*
X144170400Y-96478057D01*
X144203587Y-96644903D01*
X144268687Y-96802068D01*
X144363198Y-96943513D01*
X144483487Y-97063802D01*
X144624932Y-97158313D01*
X144782097Y-97223413D01*
X144948943Y-97256600D01*
X145119057Y-97256600D01*
X145285903Y-97223413D01*
X145443068Y-97158313D01*
X145584513Y-97063802D01*
X145704802Y-96943513D01*
X145799313Y-96802068D01*
X145864413Y-96644903D01*
X145897600Y-96478057D01*
X145897600Y-96307943D01*
X145864413Y-96141097D01*
X145799313Y-95983932D01*
X145704802Y-95842487D01*
X145584513Y-95722198D01*
X145443068Y-95627687D01*
X145285903Y-95562587D01*
X145119057Y-95529400D01*
X144948943Y-95529400D01*
X144782097Y-95562587D01*
X144624932Y-95627687D01*
X144483487Y-95722198D01*
X144363198Y-95842487D01*
X144268687Y-95983932D01*
X144203587Y-96141097D01*
X144170400Y-96307943D01*
X137331405Y-96307943D01*
X137318896Y-96224605D01*
X137225210Y-95964183D01*
X137162187Y-95846276D01*
X136921278Y-95778327D01*
X136129605Y-96570000D01*
X135770395Y-96570000D01*
X134978722Y-95778327D01*
X134737813Y-95846276D01*
X134619913Y-96096668D01*
X134553128Y-96365250D01*
X134540023Y-96641701D01*
X133635000Y-96641701D01*
X133635000Y-88811620D01*
X134545000Y-88811620D01*
X134545000Y-89088380D01*
X134598994Y-89359823D01*
X134704905Y-89615517D01*
X134858665Y-89845635D01*
X135054365Y-90041335D01*
X135284483Y-90195095D01*
X135344610Y-90220000D01*
X135284483Y-90244905D01*
X135054365Y-90398665D01*
X134858665Y-90594365D01*
X134704905Y-90824483D01*
X134598994Y-91080177D01*
X134545000Y-91351620D01*
X134545000Y-91628380D01*
X134598994Y-91899823D01*
X134704905Y-92155517D01*
X134858665Y-92385635D01*
X135054365Y-92581335D01*
X135284483Y-92735095D01*
X135344610Y-92760000D01*
X135284483Y-92784905D01*
X135054365Y-92938665D01*
X134858665Y-93134365D01*
X134704905Y-93364483D01*
X134598994Y-93620177D01*
X134545000Y-93891620D01*
X134545000Y-94168380D01*
X134598994Y-94439823D01*
X134704905Y-94695517D01*
X134858665Y-94925635D01*
X135054365Y-95121335D01*
X135284483Y-95275095D01*
X135338878Y-95297626D01*
X135226276Y-95357813D01*
X135158327Y-95598722D01*
X135950000Y-96390395D01*
X136741673Y-95598722D01*
X136673724Y-95357813D01*
X136553024Y-95300980D01*
X136615517Y-95275095D01*
X136845635Y-95121335D01*
X137041335Y-94925635D01*
X137195095Y-94695517D01*
X137301006Y-94439823D01*
X137355000Y-94168380D01*
X137355000Y-93891620D01*
X137301006Y-93620177D01*
X137195095Y-93364483D01*
X137041335Y-93134365D01*
X136845635Y-92938665D01*
X136615517Y-92784905D01*
X136555390Y-92760000D01*
X136615517Y-92735095D01*
X136845635Y-92581335D01*
X137041335Y-92385635D01*
X137195095Y-92155517D01*
X137263677Y-91989943D01*
X143027400Y-91989943D01*
X143027400Y-92160057D01*
X143060587Y-92326903D01*
X143125687Y-92484068D01*
X143220198Y-92625513D01*
X143340487Y-92745802D01*
X143481932Y-92840313D01*
X143639097Y-92905413D01*
X143805943Y-92938600D01*
X143976057Y-92938600D01*
X144142903Y-92905413D01*
X144300068Y-92840313D01*
X144441513Y-92745802D01*
X144561802Y-92625513D01*
X144656313Y-92484068D01*
X144721413Y-92326903D01*
X144754600Y-92160057D01*
X144754600Y-91989943D01*
X144721413Y-91823097D01*
X144656313Y-91665932D01*
X144561802Y-91524487D01*
X144441513Y-91404198D01*
X144300068Y-91309687D01*
X144142903Y-91244587D01*
X143976057Y-91211400D01*
X143805943Y-91211400D01*
X143639097Y-91244587D01*
X143481932Y-91309687D01*
X143340487Y-91404198D01*
X143220198Y-91524487D01*
X143125687Y-91665932D01*
X143060587Y-91823097D01*
X143027400Y-91989943D01*
X137263677Y-91989943D01*
X137301006Y-91899823D01*
X137355000Y-91628380D01*
X137355000Y-91351620D01*
X137301006Y-91080177D01*
X137195095Y-90824483D01*
X137041335Y-90594365D01*
X136845635Y-90398665D01*
X136615517Y-90244905D01*
X136555390Y-90220000D01*
X136615517Y-90195095D01*
X136845635Y-90041335D01*
X137041335Y-89845635D01*
X137195095Y-89615517D01*
X137220000Y-89555390D01*
X137244905Y-89615517D01*
X137398665Y-89845635D01*
X137594365Y-90041335D01*
X137824483Y-90195095D01*
X138080177Y-90301006D01*
X138351620Y-90355000D01*
X138628380Y-90355000D01*
X138899823Y-90301006D01*
X139155517Y-90195095D01*
X139385635Y-90041335D01*
X139581335Y-89845635D01*
X139735095Y-89615517D01*
X139760000Y-89555390D01*
X139784905Y-89615517D01*
X139938665Y-89845635D01*
X140134365Y-90041335D01*
X140364483Y-90195095D01*
X140620177Y-90301006D01*
X140891620Y-90355000D01*
X141168380Y-90355000D01*
X141439823Y-90301006D01*
X141695517Y-90195095D01*
X141925635Y-90041335D01*
X142121335Y-89845635D01*
X142275095Y-89615517D01*
X142300000Y-89555390D01*
X142324905Y-89615517D01*
X142478665Y-89845635D01*
X142674365Y-90041335D01*
X142904483Y-90195095D01*
X143160177Y-90301006D01*
X143431620Y-90355000D01*
X143708380Y-90355000D01*
X143979823Y-90301006D01*
X144235517Y-90195095D01*
X144465635Y-90041335D01*
X144661335Y-89845635D01*
X144815095Y-89615517D01*
X144840000Y-89555390D01*
X144864905Y-89615517D01*
X145018665Y-89845635D01*
X145214365Y-90041335D01*
X145444483Y-90195095D01*
X145700177Y-90301006D01*
X145971620Y-90355000D01*
X146248380Y-90355000D01*
X146519823Y-90301006D01*
X146775517Y-90195095D01*
X147005635Y-90041335D01*
X147201335Y-89845635D01*
X147355095Y-89615517D01*
X147380000Y-89555390D01*
X147404905Y-89615517D01*
X147558665Y-89845635D01*
X147754365Y-90041335D01*
X147984483Y-90195095D01*
X148240177Y-90301006D01*
X148511620Y-90355000D01*
X148788380Y-90355000D01*
X149059823Y-90301006D01*
X149315517Y-90195095D01*
X149545635Y-90041335D01*
X149741335Y-89845635D01*
X149895095Y-89615517D01*
X149920000Y-89555390D01*
X149944905Y-89615517D01*
X150098665Y-89845635D01*
X150294365Y-90041335D01*
X150524483Y-90195095D01*
X150780177Y-90301006D01*
X151051620Y-90355000D01*
X151328380Y-90355000D01*
X151599823Y-90301006D01*
X151855517Y-90195095D01*
X152085635Y-90041335D01*
X152281335Y-89845635D01*
X152435095Y-89615517D01*
X152460000Y-89555390D01*
X152484905Y-89615517D01*
X152638665Y-89845635D01*
X152834365Y-90041335D01*
X153064483Y-90195095D01*
X153320177Y-90301006D01*
X153591620Y-90355000D01*
X153868380Y-90355000D01*
X154139823Y-90301006D01*
X154395517Y-90195095D01*
X154625635Y-90041335D01*
X154821335Y-89845635D01*
X154975095Y-89615517D01*
X155000000Y-89555390D01*
X155024905Y-89615517D01*
X155178665Y-89845635D01*
X155374365Y-90041335D01*
X155604483Y-90195095D01*
X155860177Y-90301006D01*
X156131620Y-90355000D01*
X156408380Y-90355000D01*
X156679823Y-90301006D01*
X156935517Y-90195095D01*
X157165635Y-90041335D01*
X157361335Y-89845635D01*
X157515095Y-89615517D01*
X157540000Y-89555390D01*
X157564905Y-89615517D01*
X157718665Y-89845635D01*
X157914365Y-90041335D01*
X158144483Y-90195095D01*
X158400177Y-90301006D01*
X158671620Y-90355000D01*
X158948380Y-90355000D01*
X159219823Y-90301006D01*
X159475517Y-90195095D01*
X159705635Y-90041335D01*
X159901335Y-89845635D01*
X160055095Y-89615517D01*
X160080000Y-89555390D01*
X160104905Y-89615517D01*
X160258665Y-89845635D01*
X160454365Y-90041335D01*
X160684483Y-90195095D01*
X160940177Y-90301006D01*
X161211620Y-90355000D01*
X161488380Y-90355000D01*
X161759823Y-90301006D01*
X162015517Y-90195095D01*
X162245635Y-90041335D01*
X162441335Y-89845635D01*
X162595095Y-89615517D01*
X162620000Y-89555390D01*
X162644905Y-89615517D01*
X162798665Y-89845635D01*
X162994365Y-90041335D01*
X163224483Y-90195095D01*
X163480177Y-90301006D01*
X163751620Y-90355000D01*
X164028380Y-90355000D01*
X164299823Y-90301006D01*
X164555517Y-90195095D01*
X164785635Y-90041335D01*
X164981335Y-89845635D01*
X165135095Y-89615517D01*
X165160000Y-89555390D01*
X165184905Y-89615517D01*
X165338665Y-89845635D01*
X165534365Y-90041335D01*
X165764483Y-90195095D01*
X166020177Y-90301006D01*
X166291620Y-90355000D01*
X166568380Y-90355000D01*
X166839823Y-90301006D01*
X167095517Y-90195095D01*
X167325635Y-90041335D01*
X167521335Y-89845635D01*
X167675095Y-89615517D01*
X167700000Y-89555390D01*
X167724905Y-89615517D01*
X167878665Y-89845635D01*
X168074365Y-90041335D01*
X168304483Y-90195095D01*
X168560177Y-90301006D01*
X168831620Y-90355000D01*
X169108380Y-90355000D01*
X169379823Y-90301006D01*
X169635517Y-90195095D01*
X169865635Y-90041335D01*
X170061335Y-89845635D01*
X170215095Y-89615517D01*
X170240000Y-89555390D01*
X170264905Y-89615517D01*
X170418665Y-89845635D01*
X170614365Y-90041335D01*
X170844483Y-90195095D01*
X171100177Y-90301006D01*
X171371620Y-90355000D01*
X171648380Y-90355000D01*
X171919823Y-90301006D01*
X172175517Y-90195095D01*
X172405635Y-90041335D01*
X172601335Y-89845635D01*
X172755095Y-89615517D01*
X172780000Y-89555390D01*
X172804905Y-89615517D01*
X172958665Y-89845635D01*
X173154365Y-90041335D01*
X173384483Y-90195095D01*
X173531592Y-90256029D01*
X173374483Y-90321105D01*
X173144365Y-90474865D01*
X172948665Y-90670565D01*
X172794905Y-90900683D01*
X172688994Y-91156377D01*
X172635000Y-91427820D01*
X172635000Y-91704580D01*
X172688994Y-91976023D01*
X172794905Y-92231717D01*
X172948665Y-92461835D01*
X173144365Y-92657535D01*
X173374483Y-92811295D01*
X173434610Y-92836200D01*
X173374483Y-92861105D01*
X173144365Y-93014865D01*
X172948665Y-93210565D01*
X172794905Y-93440683D01*
X172688994Y-93696377D01*
X172635000Y-93967820D01*
X172635000Y-94244580D01*
X172688994Y-94516023D01*
X172794905Y-94771717D01*
X172948665Y-95001835D01*
X173144365Y-95197535D01*
X173374483Y-95351295D01*
X173434610Y-95376200D01*
X173374483Y-95401105D01*
X173144365Y-95554865D01*
X172948665Y-95750565D01*
X172794905Y-95980683D01*
X172688994Y-96236377D01*
X172635000Y-96507820D01*
X172635000Y-96784580D01*
X172688994Y-97056023D01*
X172794905Y-97311717D01*
X172948665Y-97541835D01*
X173144365Y-97737535D01*
X173374483Y-97891295D01*
X173434610Y-97916200D01*
X173374483Y-97941105D01*
X173144365Y-98094865D01*
X172948665Y-98290565D01*
X172794905Y-98520683D01*
X172770000Y-98580810D01*
X172745095Y-98520683D01*
X172591335Y-98290565D01*
X172395635Y-98094865D01*
X172165517Y-97941105D01*
X171909823Y-97835194D01*
X171638380Y-97781200D01*
X171361620Y-97781200D01*
X171090177Y-97835194D01*
X170834483Y-97941105D01*
X170604365Y-98094865D01*
X170408665Y-98290565D01*
X170254905Y-98520683D01*
X170148994Y-98776377D01*
X170095000Y-99047820D01*
X170095000Y-99324580D01*
X170148994Y-99596023D01*
X170254905Y-99851717D01*
X170408665Y-100081835D01*
X170604365Y-100277535D01*
X170834483Y-100431295D01*
X171090177Y-100537206D01*
X171361620Y-100591200D01*
X171638380Y-100591200D01*
X171909823Y-100537206D01*
X172165517Y-100431295D01*
X172395635Y-100277535D01*
X172591335Y-100081835D01*
X172745095Y-99851717D01*
X172770000Y-99791590D01*
X172794905Y-99851717D01*
X172948665Y-100081835D01*
X173144365Y-100277535D01*
X173374483Y-100431295D01*
X173630177Y-100537206D01*
X173901620Y-100591200D01*
X174178380Y-100591200D01*
X174449823Y-100537206D01*
X174705517Y-100431295D01*
X174935635Y-100277535D01*
X175131335Y-100081835D01*
X175285095Y-99851717D01*
X175391006Y-99596023D01*
X175445000Y-99324580D01*
X175445000Y-99047820D01*
X175391006Y-98776377D01*
X175285095Y-98520683D01*
X175131335Y-98290565D01*
X174935635Y-98094865D01*
X174705517Y-97941105D01*
X174645390Y-97916200D01*
X174705517Y-97891295D01*
X174935635Y-97737535D01*
X175131335Y-97541835D01*
X175285095Y-97311717D01*
X175391006Y-97056023D01*
X175445000Y-96784580D01*
X175445000Y-96507820D01*
X175391006Y-96236377D01*
X175285095Y-95980683D01*
X175131335Y-95750565D01*
X174935635Y-95554865D01*
X174705517Y-95401105D01*
X174645390Y-95376200D01*
X174705517Y-95351295D01*
X174935635Y-95197535D01*
X175131335Y-95001835D01*
X175285095Y-94771717D01*
X175391006Y-94516023D01*
X175445000Y-94244580D01*
X175445000Y-93967820D01*
X175391006Y-93696377D01*
X175285095Y-93440683D01*
X175131335Y-93210565D01*
X174935635Y-93014865D01*
X174705517Y-92861105D01*
X174645390Y-92836200D01*
X174705517Y-92811295D01*
X174935635Y-92657535D01*
X175131335Y-92461835D01*
X175285095Y-92231717D01*
X175391006Y-91976023D01*
X175445000Y-91704580D01*
X175445000Y-91427820D01*
X175391006Y-91156377D01*
X175285095Y-90900683D01*
X175131335Y-90670565D01*
X174935635Y-90474865D01*
X174705517Y-90321105D01*
X174558408Y-90260171D01*
X174715517Y-90195095D01*
X174945635Y-90041335D01*
X175141335Y-89845635D01*
X175295095Y-89615517D01*
X175401006Y-89359823D01*
X175455000Y-89088380D01*
X175455000Y-88811620D01*
X175401006Y-88540177D01*
X175295095Y-88284483D01*
X175141335Y-88054365D01*
X174945635Y-87858665D01*
X174715517Y-87704905D01*
X174459823Y-87598994D01*
X174188380Y-87545000D01*
X173911620Y-87545000D01*
X173640177Y-87598994D01*
X173384483Y-87704905D01*
X173154365Y-87858665D01*
X172958665Y-88054365D01*
X172804905Y-88284483D01*
X172780000Y-88344610D01*
X172755095Y-88284483D01*
X172601335Y-88054365D01*
X172405635Y-87858665D01*
X172175517Y-87704905D01*
X171919823Y-87598994D01*
X171648380Y-87545000D01*
X171371620Y-87545000D01*
X171100177Y-87598994D01*
X170844483Y-87704905D01*
X170614365Y-87858665D01*
X170418665Y-88054365D01*
X170264905Y-88284483D01*
X170240000Y-88344610D01*
X170215095Y-88284483D01*
X170061335Y-88054365D01*
X169865635Y-87858665D01*
X169635517Y-87704905D01*
X169379823Y-87598994D01*
X169108380Y-87545000D01*
X168831620Y-87545000D01*
X168560177Y-87598994D01*
X168304483Y-87704905D01*
X168074365Y-87858665D01*
X167878665Y-88054365D01*
X167724905Y-88284483D01*
X167700000Y-88344610D01*
X167675095Y-88284483D01*
X167521335Y-88054365D01*
X167325635Y-87858665D01*
X167095517Y-87704905D01*
X166839823Y-87598994D01*
X166568380Y-87545000D01*
X166291620Y-87545000D01*
X166020177Y-87598994D01*
X165764483Y-87704905D01*
X165534365Y-87858665D01*
X165338665Y-88054365D01*
X165184905Y-88284483D01*
X165160000Y-88344610D01*
X165135095Y-88284483D01*
X164981335Y-88054365D01*
X164785635Y-87858665D01*
X164555517Y-87704905D01*
X164299823Y-87598994D01*
X164028380Y-87545000D01*
X163751620Y-87545000D01*
X163480177Y-87598994D01*
X163224483Y-87704905D01*
X162994365Y-87858665D01*
X162798665Y-88054365D01*
X162644905Y-88284483D01*
X162620000Y-88344610D01*
X162595095Y-88284483D01*
X162441335Y-88054365D01*
X162245635Y-87858665D01*
X162015517Y-87704905D01*
X161759823Y-87598994D01*
X161488380Y-87545000D01*
X161211620Y-87545000D01*
X160940177Y-87598994D01*
X160684483Y-87704905D01*
X160454365Y-87858665D01*
X160258665Y-88054365D01*
X160104905Y-88284483D01*
X160080000Y-88344610D01*
X160055095Y-88284483D01*
X159901335Y-88054365D01*
X159705635Y-87858665D01*
X159475517Y-87704905D01*
X159219823Y-87598994D01*
X158948380Y-87545000D01*
X158671620Y-87545000D01*
X158400177Y-87598994D01*
X158144483Y-87704905D01*
X157914365Y-87858665D01*
X157718665Y-88054365D01*
X157564905Y-88284483D01*
X157540000Y-88344610D01*
X157515095Y-88284483D01*
X157361335Y-88054365D01*
X157165635Y-87858665D01*
X156935517Y-87704905D01*
X156679823Y-87598994D01*
X156408380Y-87545000D01*
X156131620Y-87545000D01*
X155860177Y-87598994D01*
X155604483Y-87704905D01*
X155374365Y-87858665D01*
X155178665Y-88054365D01*
X155024905Y-88284483D01*
X155000000Y-88344610D01*
X154975095Y-88284483D01*
X154821335Y-88054365D01*
X154625635Y-87858665D01*
X154395517Y-87704905D01*
X154139823Y-87598994D01*
X153868380Y-87545000D01*
X153591620Y-87545000D01*
X153320177Y-87598994D01*
X153064483Y-87704905D01*
X152834365Y-87858665D01*
X152638665Y-88054365D01*
X152484905Y-88284483D01*
X152460000Y-88344610D01*
X152435095Y-88284483D01*
X152281335Y-88054365D01*
X152085635Y-87858665D01*
X151855517Y-87704905D01*
X151599823Y-87598994D01*
X151328380Y-87545000D01*
X151051620Y-87545000D01*
X150780177Y-87598994D01*
X150524483Y-87704905D01*
X150294365Y-87858665D01*
X150098665Y-88054365D01*
X149944905Y-88284483D01*
X149920000Y-88344610D01*
X149895095Y-88284483D01*
X149741335Y-88054365D01*
X149545635Y-87858665D01*
X149315517Y-87704905D01*
X149059823Y-87598994D01*
X148788380Y-87545000D01*
X148511620Y-87545000D01*
X148240177Y-87598994D01*
X147984483Y-87704905D01*
X147754365Y-87858665D01*
X147558665Y-88054365D01*
X147404905Y-88284483D01*
X147380000Y-88344610D01*
X147355095Y-88284483D01*
X147201335Y-88054365D01*
X147005635Y-87858665D01*
X146775517Y-87704905D01*
X146519823Y-87598994D01*
X146248380Y-87545000D01*
X145971620Y-87545000D01*
X145700177Y-87598994D01*
X145444483Y-87704905D01*
X145214365Y-87858665D01*
X145018665Y-88054365D01*
X144864905Y-88284483D01*
X144840000Y-88344610D01*
X144815095Y-88284483D01*
X144661335Y-88054365D01*
X144465635Y-87858665D01*
X144235517Y-87704905D01*
X143979823Y-87598994D01*
X143708380Y-87545000D01*
X143431620Y-87545000D01*
X143160177Y-87598994D01*
X142904483Y-87704905D01*
X142674365Y-87858665D01*
X142478665Y-88054365D01*
X142324905Y-88284483D01*
X142300000Y-88344610D01*
X142275095Y-88284483D01*
X142121335Y-88054365D01*
X141925635Y-87858665D01*
X141695517Y-87704905D01*
X141439823Y-87598994D01*
X141168380Y-87545000D01*
X140891620Y-87545000D01*
X140620177Y-87598994D01*
X140364483Y-87704905D01*
X140134365Y-87858665D01*
X139938665Y-88054365D01*
X139784905Y-88284483D01*
X139760000Y-88344610D01*
X139735095Y-88284483D01*
X139581335Y-88054365D01*
X139385635Y-87858665D01*
X139155517Y-87704905D01*
X138899823Y-87598994D01*
X138628380Y-87545000D01*
X138351620Y-87545000D01*
X138080177Y-87598994D01*
X137824483Y-87704905D01*
X137594365Y-87858665D01*
X137398665Y-88054365D01*
X137244905Y-88284483D01*
X137220000Y-88344610D01*
X137195095Y-88284483D01*
X137041335Y-88054365D01*
X136845635Y-87858665D01*
X136615517Y-87704905D01*
X136359823Y-87598994D01*
X136088380Y-87545000D01*
X135811620Y-87545000D01*
X135540177Y-87598994D01*
X135284483Y-87704905D01*
X135054365Y-87858665D01*
X134858665Y-88054365D01*
X134704905Y-88284483D01*
X134598994Y-88540177D01*
X134545000Y-88811620D01*
X133635000Y-88811620D01*
X133635000Y-88095510D01*
X133667097Y-87768158D01*
X133746045Y-87506670D01*
X133874278Y-87265497D01*
X134046915Y-87053823D01*
X134257375Y-86879717D01*
X134497650Y-86749800D01*
X134758583Y-86669028D01*
X135082338Y-86635000D01*
X174904490Y-86635000D01*
X175231842Y-86667097D01*
M02*
