G04 #@! TF.GenerationSoftware,KiCad,Pcbnew,(5.1.5)-3*
G04 #@! TF.CreationDate,2020-07-27T23:24:25+01:00*
G04 #@! TF.ProjectId,ta-ctrl,74612d63-7472-46c2-9e6b-696361645f70,v0*
G04 #@! TF.SameCoordinates,Original*
G04 #@! TF.FileFunction,Copper,L2,Inr*
G04 #@! TF.FilePolarity,Positive*
%FSLAX46Y46*%
G04 Gerber Fmt 4.6, Leading zero omitted, Abs format (unit mm)*
G04 Created by KiCad (PCBNEW (5.1.5)-3) date 2020-07-27 23:24:25*
%MOMM*%
%LPD*%
G04 APERTURE LIST*
%ADD10C,1.540000*%
%ADD11C,2.540000*%
%ADD12C,0.635000*%
%ADD13C,0.254000*%
G04 APERTURE END LIST*
D10*
X135950000Y-88950000D03*
X138490000Y-88950000D03*
X141030000Y-88950000D03*
X143570000Y-88950000D03*
X146110000Y-88950000D03*
X148650000Y-88950000D03*
X151190000Y-88950000D03*
X153730000Y-88950000D03*
X156270000Y-88950000D03*
X158810000Y-88950000D03*
X161350000Y-88950000D03*
X163890000Y-88950000D03*
X166430000Y-88950000D03*
X168970000Y-88950000D03*
X171510000Y-88950000D03*
X174050000Y-88950000D03*
X174050000Y-127050000D03*
X171510000Y-127050000D03*
X168970000Y-127050000D03*
X166430000Y-127050000D03*
X163890000Y-127050000D03*
X161350000Y-127050000D03*
X158810000Y-127050000D03*
X156270000Y-127050000D03*
X153730000Y-127050000D03*
X151190000Y-127050000D03*
X148650000Y-127050000D03*
X146110000Y-127050000D03*
X143570000Y-127050000D03*
X141030000Y-127050000D03*
X138490000Y-127050000D03*
X135950000Y-127050000D03*
D11*
X174960000Y-113080000D03*
X135040000Y-113080000D03*
X174960000Y-102920000D03*
X135040000Y-102920000D03*
D10*
X135950000Y-124510000D03*
X135950000Y-121970000D03*
X135950000Y-119430000D03*
X135950000Y-116890000D03*
X135950000Y-99110000D03*
X135950000Y-96570000D03*
X135950000Y-94030000D03*
X135950000Y-91490000D03*
X174050000Y-121969800D03*
X174050000Y-116889800D03*
X174050000Y-119429800D03*
X174050000Y-124509800D03*
X171510000Y-116889800D03*
X174050000Y-94106200D03*
X174050000Y-99186200D03*
X174050000Y-96646200D03*
X174050000Y-91566200D03*
X171510000Y-99186200D03*
D12*
X159359600Y-92405200D03*
X149733000Y-91948000D03*
X159385000Y-109194600D03*
X162890200Y-112852200D03*
X170332400Y-111226600D03*
X164439600Y-98552000D03*
X157276800Y-99364800D03*
X171424600Y-92278200D03*
X142849600Y-108153200D03*
X151688800Y-101041200D03*
X151612600Y-99796600D03*
X151003000Y-99009200D03*
X160629600Y-104470200D03*
X149377400Y-99517200D03*
X146659600Y-102362000D03*
X164058600Y-92481400D03*
X145821400Y-101523800D03*
X144932400Y-104165400D03*
X144932400Y-100330000D03*
X145034000Y-102285800D03*
X168910000Y-123317000D03*
X172440600Y-97739200D03*
X153136600Y-103606600D03*
X152831800Y-104597200D03*
X163423600Y-121437400D03*
X148005800Y-105333800D03*
X163398200Y-120599200D03*
X150901400Y-107873800D03*
X156565600Y-101041200D03*
X166954200Y-121107200D03*
X157581600Y-101473000D03*
X166801800Y-122199400D03*
X153593800Y-100330000D03*
X163855400Y-95453200D03*
X154178000Y-101092000D03*
X163880800Y-96367600D03*
X166903400Y-96901000D03*
X152908000Y-96545400D03*
X166954200Y-93446600D03*
X154178000Y-96570800D03*
X157378400Y-103454200D03*
X165658800Y-104648000D03*
X141833600Y-98526600D03*
X146354800Y-99644200D03*
X141046200Y-97790000D03*
X145923000Y-98831400D03*
X140309600Y-99009200D03*
X145796402Y-96291400D03*
X139076799Y-99034600D03*
X146841199Y-95453200D03*
X166497000Y-123291600D03*
X164490400Y-104622600D03*
X160680400Y-106121200D03*
X157911800Y-93497400D03*
X149606000Y-93472000D03*
X140970000Y-91211400D03*
X146075400Y-97485200D03*
X143865600Y-104140000D03*
X144932400Y-109931200D03*
X149961600Y-110286800D03*
X165404800Y-114757200D03*
D13*
G36*
X175324545Y-86198909D02*
G01*
X175675208Y-86304780D01*
X175998625Y-86476744D01*
X176282484Y-86708254D01*
X176515965Y-86990486D01*
X176690183Y-87312695D01*
X176798502Y-87662614D01*
X176840000Y-88057443D01*
X176840000Y-102602017D01*
X176826618Y-102495773D01*
X176707988Y-102139765D01*
X176579871Y-101900076D01*
X176287852Y-101771753D01*
X175139605Y-102920000D01*
X176287852Y-104068247D01*
X176579871Y-103939924D01*
X176747723Y-103604305D01*
X176840000Y-103267479D01*
X176840001Y-112762019D01*
X176826618Y-112655773D01*
X176707988Y-112299765D01*
X176579871Y-112060076D01*
X176287852Y-111931753D01*
X175139605Y-113080000D01*
X176287852Y-114228247D01*
X176579871Y-114099924D01*
X176747723Y-113764305D01*
X176840001Y-113427478D01*
X176840001Y-127927711D01*
X176801091Y-128324545D01*
X176695220Y-128675206D01*
X176523257Y-128998623D01*
X176291748Y-129282482D01*
X176009514Y-129515965D01*
X175687304Y-129690184D01*
X175337385Y-129798502D01*
X174942557Y-129840000D01*
X135072279Y-129840000D01*
X134675455Y-129801091D01*
X134324794Y-129695220D01*
X134001377Y-129523257D01*
X133717518Y-129291748D01*
X133484035Y-129009514D01*
X133309816Y-128687304D01*
X133201498Y-128337385D01*
X133160000Y-127942557D01*
X133160000Y-121831620D01*
X134545000Y-121831620D01*
X134545000Y-122108380D01*
X134598994Y-122379823D01*
X134704905Y-122635517D01*
X134858665Y-122865635D01*
X135054365Y-123061335D01*
X135284483Y-123215095D01*
X135344610Y-123240000D01*
X135284483Y-123264905D01*
X135054365Y-123418665D01*
X134858665Y-123614365D01*
X134704905Y-123844483D01*
X134598994Y-124100177D01*
X134545000Y-124371620D01*
X134545000Y-124648380D01*
X134598994Y-124919823D01*
X134704905Y-125175517D01*
X134858665Y-125405635D01*
X135054365Y-125601335D01*
X135284483Y-125755095D01*
X135344610Y-125780000D01*
X135284483Y-125804905D01*
X135054365Y-125958665D01*
X134858665Y-126154365D01*
X134704905Y-126384483D01*
X134598994Y-126640177D01*
X134545000Y-126911620D01*
X134545000Y-127188380D01*
X134598994Y-127459823D01*
X134704905Y-127715517D01*
X134858665Y-127945635D01*
X135054365Y-128141335D01*
X135284483Y-128295095D01*
X135540177Y-128401006D01*
X135811620Y-128455000D01*
X136088380Y-128455000D01*
X136359823Y-128401006D01*
X136615517Y-128295095D01*
X136845635Y-128141335D01*
X137041335Y-127945635D01*
X137195095Y-127715517D01*
X137220000Y-127655390D01*
X137244905Y-127715517D01*
X137398665Y-127945635D01*
X137594365Y-128141335D01*
X137824483Y-128295095D01*
X138080177Y-128401006D01*
X138351620Y-128455000D01*
X138628380Y-128455000D01*
X138899823Y-128401006D01*
X139155517Y-128295095D01*
X139385635Y-128141335D01*
X139581335Y-127945635D01*
X139735095Y-127715517D01*
X139760000Y-127655390D01*
X139784905Y-127715517D01*
X139938665Y-127945635D01*
X140134365Y-128141335D01*
X140364483Y-128295095D01*
X140620177Y-128401006D01*
X140891620Y-128455000D01*
X141168380Y-128455000D01*
X141439823Y-128401006D01*
X141695517Y-128295095D01*
X141925635Y-128141335D01*
X142121335Y-127945635D01*
X142275095Y-127715517D01*
X142300000Y-127655390D01*
X142324905Y-127715517D01*
X142478665Y-127945635D01*
X142674365Y-128141335D01*
X142904483Y-128295095D01*
X143160177Y-128401006D01*
X143431620Y-128455000D01*
X143708380Y-128455000D01*
X143979823Y-128401006D01*
X144235517Y-128295095D01*
X144465635Y-128141335D01*
X144661335Y-127945635D01*
X144815095Y-127715517D01*
X144840000Y-127655390D01*
X144864905Y-127715517D01*
X145018665Y-127945635D01*
X145214365Y-128141335D01*
X145444483Y-128295095D01*
X145700177Y-128401006D01*
X145971620Y-128455000D01*
X146248380Y-128455000D01*
X146519823Y-128401006D01*
X146775517Y-128295095D01*
X147005635Y-128141335D01*
X147201335Y-127945635D01*
X147355095Y-127715517D01*
X147380000Y-127655390D01*
X147404905Y-127715517D01*
X147558665Y-127945635D01*
X147754365Y-128141335D01*
X147984483Y-128295095D01*
X148240177Y-128401006D01*
X148511620Y-128455000D01*
X148788380Y-128455000D01*
X149059823Y-128401006D01*
X149315517Y-128295095D01*
X149545635Y-128141335D01*
X149741335Y-127945635D01*
X149895095Y-127715517D01*
X149920000Y-127655390D01*
X149944905Y-127715517D01*
X150098665Y-127945635D01*
X150294365Y-128141335D01*
X150524483Y-128295095D01*
X150780177Y-128401006D01*
X151051620Y-128455000D01*
X151328380Y-128455000D01*
X151599823Y-128401006D01*
X151855517Y-128295095D01*
X152085635Y-128141335D01*
X152281335Y-127945635D01*
X152435095Y-127715517D01*
X152460000Y-127655390D01*
X152484905Y-127715517D01*
X152638665Y-127945635D01*
X152834365Y-128141335D01*
X153064483Y-128295095D01*
X153320177Y-128401006D01*
X153591620Y-128455000D01*
X153868380Y-128455000D01*
X154139823Y-128401006D01*
X154395517Y-128295095D01*
X154625635Y-128141335D01*
X154821335Y-127945635D01*
X154975095Y-127715517D01*
X155000000Y-127655390D01*
X155024905Y-127715517D01*
X155178665Y-127945635D01*
X155374365Y-128141335D01*
X155604483Y-128295095D01*
X155860177Y-128401006D01*
X156131620Y-128455000D01*
X156408380Y-128455000D01*
X156679823Y-128401006D01*
X156935517Y-128295095D01*
X157165635Y-128141335D01*
X157361335Y-127945635D01*
X157515095Y-127715517D01*
X157540000Y-127655390D01*
X157564905Y-127715517D01*
X157718665Y-127945635D01*
X157914365Y-128141335D01*
X158144483Y-128295095D01*
X158400177Y-128401006D01*
X158671620Y-128455000D01*
X158948380Y-128455000D01*
X159219823Y-128401006D01*
X159475517Y-128295095D01*
X159705635Y-128141335D01*
X159901335Y-127945635D01*
X160055095Y-127715517D01*
X160080000Y-127655390D01*
X160104905Y-127715517D01*
X160258665Y-127945635D01*
X160454365Y-128141335D01*
X160684483Y-128295095D01*
X160940177Y-128401006D01*
X161211620Y-128455000D01*
X161488380Y-128455000D01*
X161759823Y-128401006D01*
X162015517Y-128295095D01*
X162245635Y-128141335D01*
X162441335Y-127945635D01*
X162595095Y-127715517D01*
X162620000Y-127655390D01*
X162644905Y-127715517D01*
X162798665Y-127945635D01*
X162994365Y-128141335D01*
X163224483Y-128295095D01*
X163480177Y-128401006D01*
X163751620Y-128455000D01*
X164028380Y-128455000D01*
X164299823Y-128401006D01*
X164555517Y-128295095D01*
X164785635Y-128141335D01*
X164981335Y-127945635D01*
X165135095Y-127715517D01*
X165160000Y-127655390D01*
X165184905Y-127715517D01*
X165338665Y-127945635D01*
X165534365Y-128141335D01*
X165764483Y-128295095D01*
X166020177Y-128401006D01*
X166291620Y-128455000D01*
X166568380Y-128455000D01*
X166839823Y-128401006D01*
X167095517Y-128295095D01*
X167325635Y-128141335D01*
X167521335Y-127945635D01*
X167675095Y-127715517D01*
X167700000Y-127655390D01*
X167724905Y-127715517D01*
X167878665Y-127945635D01*
X168074365Y-128141335D01*
X168304483Y-128295095D01*
X168560177Y-128401006D01*
X168831620Y-128455000D01*
X169108380Y-128455000D01*
X169379823Y-128401006D01*
X169635517Y-128295095D01*
X169865635Y-128141335D01*
X170061335Y-127945635D01*
X170215095Y-127715517D01*
X170240000Y-127655390D01*
X170264905Y-127715517D01*
X170418665Y-127945635D01*
X170614365Y-128141335D01*
X170844483Y-128295095D01*
X171100177Y-128401006D01*
X171371620Y-128455000D01*
X171648380Y-128455000D01*
X171919823Y-128401006D01*
X172175517Y-128295095D01*
X172405635Y-128141335D01*
X172601335Y-127945635D01*
X172755095Y-127715517D01*
X172780000Y-127655390D01*
X172804905Y-127715517D01*
X172958665Y-127945635D01*
X173154365Y-128141335D01*
X173384483Y-128295095D01*
X173640177Y-128401006D01*
X173911620Y-128455000D01*
X174188380Y-128455000D01*
X174459823Y-128401006D01*
X174715517Y-128295095D01*
X174945635Y-128141335D01*
X175141335Y-127945635D01*
X175295095Y-127715517D01*
X175401006Y-127459823D01*
X175455000Y-127188380D01*
X175455000Y-126911620D01*
X175401006Y-126640177D01*
X175295095Y-126384483D01*
X175141335Y-126154365D01*
X174945635Y-125958665D01*
X174715517Y-125804905D01*
X174655149Y-125779900D01*
X174715517Y-125754895D01*
X174945635Y-125601135D01*
X175141335Y-125405435D01*
X175295095Y-125175317D01*
X175401006Y-124919623D01*
X175455000Y-124648180D01*
X175455000Y-124371420D01*
X175401006Y-124099977D01*
X175295095Y-123844283D01*
X175141335Y-123614165D01*
X174945635Y-123418465D01*
X174715517Y-123264705D01*
X174655390Y-123239800D01*
X174715517Y-123214895D01*
X174945635Y-123061135D01*
X175141335Y-122865435D01*
X175295095Y-122635317D01*
X175401006Y-122379623D01*
X175455000Y-122108180D01*
X175455000Y-121831420D01*
X175401006Y-121559977D01*
X175295095Y-121304283D01*
X175141335Y-121074165D01*
X174945635Y-120878465D01*
X174715517Y-120724705D01*
X174661122Y-120702174D01*
X174773724Y-120641987D01*
X174841673Y-120401078D01*
X174050000Y-119609405D01*
X173258327Y-120401078D01*
X173326276Y-120641987D01*
X173446976Y-120698820D01*
X173384483Y-120724705D01*
X173154365Y-120878465D01*
X172958665Y-121074165D01*
X172804905Y-121304283D01*
X172698994Y-121559977D01*
X172645000Y-121831420D01*
X172645000Y-122108180D01*
X172698994Y-122379623D01*
X172804905Y-122635317D01*
X172958665Y-122865435D01*
X173154365Y-123061135D01*
X173384483Y-123214895D01*
X173444610Y-123239800D01*
X173384483Y-123264705D01*
X173154365Y-123418465D01*
X172958665Y-123614165D01*
X172804905Y-123844283D01*
X172698994Y-124099977D01*
X172645000Y-124371420D01*
X172645000Y-124648180D01*
X172698994Y-124919623D01*
X172804905Y-125175317D01*
X172958665Y-125405435D01*
X173154365Y-125601135D01*
X173384483Y-125754895D01*
X173444851Y-125779900D01*
X173384483Y-125804905D01*
X173154365Y-125958665D01*
X172958665Y-126154365D01*
X172804905Y-126384483D01*
X172780000Y-126444610D01*
X172755095Y-126384483D01*
X172601335Y-126154365D01*
X172405635Y-125958665D01*
X172175517Y-125804905D01*
X171919823Y-125698994D01*
X171648380Y-125645000D01*
X171371620Y-125645000D01*
X171100177Y-125698994D01*
X170844483Y-125804905D01*
X170614365Y-125958665D01*
X170418665Y-126154365D01*
X170264905Y-126384483D01*
X170240000Y-126444610D01*
X170215095Y-126384483D01*
X170061335Y-126154365D01*
X169865635Y-125958665D01*
X169635517Y-125804905D01*
X169379823Y-125698994D01*
X169108380Y-125645000D01*
X168831620Y-125645000D01*
X168560177Y-125698994D01*
X168304483Y-125804905D01*
X168074365Y-125958665D01*
X167878665Y-126154365D01*
X167724905Y-126384483D01*
X167700000Y-126444610D01*
X167675095Y-126384483D01*
X167521335Y-126154365D01*
X167325635Y-125958665D01*
X167095517Y-125804905D01*
X166839823Y-125698994D01*
X166568380Y-125645000D01*
X166291620Y-125645000D01*
X166020177Y-125698994D01*
X165764483Y-125804905D01*
X165534365Y-125958665D01*
X165338665Y-126154365D01*
X165184905Y-126384483D01*
X165160000Y-126444610D01*
X165135095Y-126384483D01*
X164981335Y-126154365D01*
X164785635Y-125958665D01*
X164555517Y-125804905D01*
X164299823Y-125698994D01*
X164028380Y-125645000D01*
X163751620Y-125645000D01*
X163480177Y-125698994D01*
X163224483Y-125804905D01*
X162994365Y-125958665D01*
X162798665Y-126154365D01*
X162644905Y-126384483D01*
X162620000Y-126444610D01*
X162595095Y-126384483D01*
X162441335Y-126154365D01*
X162245635Y-125958665D01*
X162015517Y-125804905D01*
X161759823Y-125698994D01*
X161488380Y-125645000D01*
X161211620Y-125645000D01*
X160940177Y-125698994D01*
X160684483Y-125804905D01*
X160454365Y-125958665D01*
X160258665Y-126154365D01*
X160104905Y-126384483D01*
X160080000Y-126444610D01*
X160055095Y-126384483D01*
X159901335Y-126154365D01*
X159705635Y-125958665D01*
X159475517Y-125804905D01*
X159219823Y-125698994D01*
X158948380Y-125645000D01*
X158671620Y-125645000D01*
X158400177Y-125698994D01*
X158144483Y-125804905D01*
X157914365Y-125958665D01*
X157718665Y-126154365D01*
X157564905Y-126384483D01*
X157540000Y-126444610D01*
X157515095Y-126384483D01*
X157361335Y-126154365D01*
X157165635Y-125958665D01*
X156935517Y-125804905D01*
X156679823Y-125698994D01*
X156408380Y-125645000D01*
X156131620Y-125645000D01*
X155860177Y-125698994D01*
X155604483Y-125804905D01*
X155374365Y-125958665D01*
X155178665Y-126154365D01*
X155024905Y-126384483D01*
X155000000Y-126444610D01*
X154975095Y-126384483D01*
X154821335Y-126154365D01*
X154625635Y-125958665D01*
X154395517Y-125804905D01*
X154139823Y-125698994D01*
X153868380Y-125645000D01*
X153591620Y-125645000D01*
X153320177Y-125698994D01*
X153064483Y-125804905D01*
X152834365Y-125958665D01*
X152638665Y-126154365D01*
X152484905Y-126384483D01*
X152460000Y-126444610D01*
X152435095Y-126384483D01*
X152281335Y-126154365D01*
X152085635Y-125958665D01*
X151855517Y-125804905D01*
X151599823Y-125698994D01*
X151328380Y-125645000D01*
X151051620Y-125645000D01*
X150780177Y-125698994D01*
X150524483Y-125804905D01*
X150294365Y-125958665D01*
X150098665Y-126154365D01*
X149944905Y-126384483D01*
X149920000Y-126444610D01*
X149895095Y-126384483D01*
X149741335Y-126154365D01*
X149545635Y-125958665D01*
X149315517Y-125804905D01*
X149059823Y-125698994D01*
X148788380Y-125645000D01*
X148511620Y-125645000D01*
X148240177Y-125698994D01*
X147984483Y-125804905D01*
X147754365Y-125958665D01*
X147558665Y-126154365D01*
X147404905Y-126384483D01*
X147380000Y-126444610D01*
X147355095Y-126384483D01*
X147201335Y-126154365D01*
X147005635Y-125958665D01*
X146775517Y-125804905D01*
X146519823Y-125698994D01*
X146248380Y-125645000D01*
X145971620Y-125645000D01*
X145700177Y-125698994D01*
X145444483Y-125804905D01*
X145214365Y-125958665D01*
X145018665Y-126154365D01*
X144864905Y-126384483D01*
X144840000Y-126444610D01*
X144815095Y-126384483D01*
X144661335Y-126154365D01*
X144465635Y-125958665D01*
X144235517Y-125804905D01*
X143979823Y-125698994D01*
X143708380Y-125645000D01*
X143431620Y-125645000D01*
X143160177Y-125698994D01*
X142904483Y-125804905D01*
X142674365Y-125958665D01*
X142478665Y-126154365D01*
X142324905Y-126384483D01*
X142300000Y-126444610D01*
X142275095Y-126384483D01*
X142121335Y-126154365D01*
X141925635Y-125958665D01*
X141695517Y-125804905D01*
X141439823Y-125698994D01*
X141168380Y-125645000D01*
X140891620Y-125645000D01*
X140620177Y-125698994D01*
X140364483Y-125804905D01*
X140134365Y-125958665D01*
X139938665Y-126154365D01*
X139784905Y-126384483D01*
X139760000Y-126444610D01*
X139735095Y-126384483D01*
X139581335Y-126154365D01*
X139385635Y-125958665D01*
X139155517Y-125804905D01*
X138899823Y-125698994D01*
X138628380Y-125645000D01*
X138351620Y-125645000D01*
X138080177Y-125698994D01*
X137824483Y-125804905D01*
X137594365Y-125958665D01*
X137398665Y-126154365D01*
X137244905Y-126384483D01*
X137220000Y-126444610D01*
X137195095Y-126384483D01*
X137041335Y-126154365D01*
X136845635Y-125958665D01*
X136615517Y-125804905D01*
X136555390Y-125780000D01*
X136615517Y-125755095D01*
X136845635Y-125601335D01*
X137041335Y-125405635D01*
X137195095Y-125175517D01*
X137301006Y-124919823D01*
X137355000Y-124648380D01*
X137355000Y-124371620D01*
X137301006Y-124100177D01*
X137195095Y-123844483D01*
X137041335Y-123614365D01*
X136845635Y-123418665D01*
X136615517Y-123264905D01*
X136555390Y-123240000D01*
X136615517Y-123215095D01*
X136641420Y-123197787D01*
X165544500Y-123197787D01*
X165544500Y-123385413D01*
X165581104Y-123569434D01*
X165652905Y-123742778D01*
X165757145Y-123898784D01*
X165889816Y-124031455D01*
X166045822Y-124135695D01*
X166219166Y-124207496D01*
X166403187Y-124244100D01*
X166590813Y-124244100D01*
X166774834Y-124207496D01*
X166948178Y-124135695D01*
X167104184Y-124031455D01*
X167236855Y-123898784D01*
X167341095Y-123742778D01*
X167412896Y-123569434D01*
X167449500Y-123385413D01*
X167449500Y-123223187D01*
X167957500Y-123223187D01*
X167957500Y-123410813D01*
X167994104Y-123594834D01*
X168065905Y-123768178D01*
X168170145Y-123924184D01*
X168302816Y-124056855D01*
X168458822Y-124161095D01*
X168632166Y-124232896D01*
X168816187Y-124269500D01*
X169003813Y-124269500D01*
X169187834Y-124232896D01*
X169361178Y-124161095D01*
X169517184Y-124056855D01*
X169649855Y-123924184D01*
X169754095Y-123768178D01*
X169825896Y-123594834D01*
X169862500Y-123410813D01*
X169862500Y-123223187D01*
X169825896Y-123039166D01*
X169754095Y-122865822D01*
X169649855Y-122709816D01*
X169517184Y-122577145D01*
X169361178Y-122472905D01*
X169187834Y-122401104D01*
X169003813Y-122364500D01*
X168816187Y-122364500D01*
X168632166Y-122401104D01*
X168458822Y-122472905D01*
X168302816Y-122577145D01*
X168170145Y-122709816D01*
X168065905Y-122865822D01*
X167994104Y-123039166D01*
X167957500Y-123223187D01*
X167449500Y-123223187D01*
X167449500Y-123197787D01*
X167412896Y-123013766D01*
X167387875Y-122953360D01*
X167408984Y-122939255D01*
X167541655Y-122806584D01*
X167645895Y-122650578D01*
X167717696Y-122477234D01*
X167754300Y-122293213D01*
X167754300Y-122105587D01*
X167717696Y-121921566D01*
X167650090Y-121758349D01*
X167694055Y-121714384D01*
X167798295Y-121558378D01*
X167870096Y-121385034D01*
X167906700Y-121201013D01*
X167906700Y-121013387D01*
X167870096Y-120829366D01*
X167798295Y-120656022D01*
X167694055Y-120500016D01*
X167561384Y-120367345D01*
X167405378Y-120263105D01*
X167232034Y-120191304D01*
X167048013Y-120154700D01*
X166860387Y-120154700D01*
X166676366Y-120191304D01*
X166503022Y-120263105D01*
X166347016Y-120367345D01*
X166214345Y-120500016D01*
X166110105Y-120656022D01*
X166038304Y-120829366D01*
X166001700Y-121013387D01*
X166001700Y-121201013D01*
X166038304Y-121385034D01*
X166105910Y-121548251D01*
X166061945Y-121592216D01*
X165957705Y-121748222D01*
X165885904Y-121921566D01*
X165849300Y-122105587D01*
X165849300Y-122293213D01*
X165885904Y-122477234D01*
X165910925Y-122537640D01*
X165889816Y-122551745D01*
X165757145Y-122684416D01*
X165652905Y-122840422D01*
X165581104Y-123013766D01*
X165544500Y-123197787D01*
X136641420Y-123197787D01*
X136845635Y-123061335D01*
X137041335Y-122865635D01*
X137195095Y-122635517D01*
X137301006Y-122379823D01*
X137355000Y-122108380D01*
X137355000Y-121831620D01*
X137301006Y-121560177D01*
X137195095Y-121304483D01*
X137041335Y-121074365D01*
X136845635Y-120878665D01*
X136615517Y-120724905D01*
X136561122Y-120702374D01*
X136673724Y-120642187D01*
X136712308Y-120505387D01*
X162445700Y-120505387D01*
X162445700Y-120693013D01*
X162482304Y-120877034D01*
X162553518Y-121048961D01*
X162507704Y-121159566D01*
X162471100Y-121343587D01*
X162471100Y-121531213D01*
X162507704Y-121715234D01*
X162579505Y-121888578D01*
X162683745Y-122044584D01*
X162816416Y-122177255D01*
X162972422Y-122281495D01*
X163145766Y-122353296D01*
X163329787Y-122389900D01*
X163517413Y-122389900D01*
X163701434Y-122353296D01*
X163874778Y-122281495D01*
X164030784Y-122177255D01*
X164163455Y-122044584D01*
X164267695Y-121888578D01*
X164339496Y-121715234D01*
X164376100Y-121531213D01*
X164376100Y-121343587D01*
X164339496Y-121159566D01*
X164268282Y-120987639D01*
X164314096Y-120877034D01*
X164350700Y-120693013D01*
X164350700Y-120505387D01*
X164314096Y-120321366D01*
X164242295Y-120148022D01*
X164138055Y-119992016D01*
X164005384Y-119859345D01*
X163849378Y-119755105D01*
X163676034Y-119683304D01*
X163492013Y-119646700D01*
X163304387Y-119646700D01*
X163120366Y-119683304D01*
X162947022Y-119755105D01*
X162791016Y-119859345D01*
X162658345Y-119992016D01*
X162554105Y-120148022D01*
X162482304Y-120321366D01*
X162445700Y-120505387D01*
X136712308Y-120505387D01*
X136741673Y-120401278D01*
X135950000Y-119609605D01*
X135158327Y-120401278D01*
X135226276Y-120642187D01*
X135346976Y-120699020D01*
X135284483Y-120724905D01*
X135054365Y-120878665D01*
X134858665Y-121074365D01*
X134704905Y-121304483D01*
X134598994Y-121560177D01*
X134545000Y-121831620D01*
X133160000Y-121831620D01*
X133160000Y-119501701D01*
X134540023Y-119501701D01*
X134581104Y-119775395D01*
X134674790Y-120035817D01*
X134737813Y-120153724D01*
X134978722Y-120221673D01*
X135770395Y-119430000D01*
X136129605Y-119430000D01*
X136921278Y-120221673D01*
X137162187Y-120153724D01*
X137280087Y-119903332D01*
X137346872Y-119634750D01*
X137353188Y-119501501D01*
X172640023Y-119501501D01*
X172681104Y-119775195D01*
X172774790Y-120035617D01*
X172837813Y-120153524D01*
X173078722Y-120221473D01*
X173870395Y-119429800D01*
X174229605Y-119429800D01*
X175021278Y-120221473D01*
X175262187Y-120153524D01*
X175380087Y-119903132D01*
X175446872Y-119634550D01*
X175459977Y-119358099D01*
X175418896Y-119084405D01*
X175325210Y-118823983D01*
X175262187Y-118706076D01*
X175021278Y-118638127D01*
X174229605Y-119429800D01*
X173870395Y-119429800D01*
X173078722Y-118638127D01*
X172837813Y-118706076D01*
X172719913Y-118956468D01*
X172653128Y-119225050D01*
X172640023Y-119501501D01*
X137353188Y-119501501D01*
X137359977Y-119358299D01*
X137318896Y-119084605D01*
X137225210Y-118824183D01*
X137162187Y-118706276D01*
X136921278Y-118638327D01*
X136129605Y-119430000D01*
X135770395Y-119430000D01*
X134978722Y-118638327D01*
X134737813Y-118706276D01*
X134619913Y-118956668D01*
X134553128Y-119225250D01*
X134540023Y-119501701D01*
X133160000Y-119501701D01*
X133160000Y-116751620D01*
X134545000Y-116751620D01*
X134545000Y-117028380D01*
X134598994Y-117299823D01*
X134704905Y-117555517D01*
X134858665Y-117785635D01*
X135054365Y-117981335D01*
X135284483Y-118135095D01*
X135338878Y-118157626D01*
X135226276Y-118217813D01*
X135158327Y-118458722D01*
X135950000Y-119250395D01*
X136741673Y-118458722D01*
X136673724Y-118217813D01*
X136553024Y-118160980D01*
X136615517Y-118135095D01*
X136845635Y-117981335D01*
X137041335Y-117785635D01*
X137195095Y-117555517D01*
X137301006Y-117299823D01*
X137355000Y-117028380D01*
X137355000Y-116751620D01*
X137354961Y-116751420D01*
X170105000Y-116751420D01*
X170105000Y-117028180D01*
X170158994Y-117299623D01*
X170264905Y-117555317D01*
X170418665Y-117785435D01*
X170614365Y-117981135D01*
X170844483Y-118134895D01*
X171100177Y-118240806D01*
X171371620Y-118294800D01*
X171648380Y-118294800D01*
X171919823Y-118240806D01*
X172175517Y-118134895D01*
X172405635Y-117981135D01*
X172601335Y-117785435D01*
X172755095Y-117555317D01*
X172780000Y-117495190D01*
X172804905Y-117555317D01*
X172958665Y-117785435D01*
X173154365Y-117981135D01*
X173384483Y-118134895D01*
X173438878Y-118157426D01*
X173326276Y-118217613D01*
X173258327Y-118458522D01*
X174050000Y-119250195D01*
X174841673Y-118458522D01*
X174773724Y-118217613D01*
X174653024Y-118160780D01*
X174715517Y-118134895D01*
X174945635Y-117981135D01*
X175141335Y-117785435D01*
X175295095Y-117555317D01*
X175401006Y-117299623D01*
X175455000Y-117028180D01*
X175455000Y-116751420D01*
X175401006Y-116479977D01*
X175295095Y-116224283D01*
X175141335Y-115994165D01*
X174945635Y-115798465D01*
X174715517Y-115644705D01*
X174459823Y-115538794D01*
X174188380Y-115484800D01*
X173911620Y-115484800D01*
X173640177Y-115538794D01*
X173384483Y-115644705D01*
X173154365Y-115798465D01*
X172958665Y-115994165D01*
X172804905Y-116224283D01*
X172780000Y-116284410D01*
X172755095Y-116224283D01*
X172601335Y-115994165D01*
X172405635Y-115798465D01*
X172175517Y-115644705D01*
X171919823Y-115538794D01*
X171648380Y-115484800D01*
X171371620Y-115484800D01*
X171100177Y-115538794D01*
X170844483Y-115644705D01*
X170614365Y-115798465D01*
X170418665Y-115994165D01*
X170264905Y-116224283D01*
X170158994Y-116479977D01*
X170105000Y-116751420D01*
X137354961Y-116751420D01*
X137301006Y-116480177D01*
X137195095Y-116224483D01*
X137041335Y-115994365D01*
X136845635Y-115798665D01*
X136615517Y-115644905D01*
X136359823Y-115538994D01*
X136088380Y-115485000D01*
X135811620Y-115485000D01*
X135540177Y-115538994D01*
X135284483Y-115644905D01*
X135054365Y-115798665D01*
X134858665Y-115994365D01*
X134704905Y-116224483D01*
X134598994Y-116480177D01*
X134545000Y-116751620D01*
X133160000Y-116751620D01*
X133160000Y-114407852D01*
X133891753Y-114407852D01*
X134020076Y-114699871D01*
X134355695Y-114867723D01*
X134717611Y-114966874D01*
X135091916Y-114993514D01*
X135464227Y-114946618D01*
X135820235Y-114827988D01*
X136059924Y-114699871D01*
X136075956Y-114663387D01*
X164452300Y-114663387D01*
X164452300Y-114851013D01*
X164488904Y-115035034D01*
X164560705Y-115208378D01*
X164664945Y-115364384D01*
X164797616Y-115497055D01*
X164953622Y-115601295D01*
X165126966Y-115673096D01*
X165310987Y-115709700D01*
X165498613Y-115709700D01*
X165682634Y-115673096D01*
X165855978Y-115601295D01*
X166011984Y-115497055D01*
X166144655Y-115364384D01*
X166248895Y-115208378D01*
X166320696Y-115035034D01*
X166357300Y-114851013D01*
X166357300Y-114663387D01*
X166320696Y-114479366D01*
X166291075Y-114407852D01*
X173811753Y-114407852D01*
X173940076Y-114699871D01*
X174275695Y-114867723D01*
X174637611Y-114966874D01*
X175011916Y-114993514D01*
X175384227Y-114946618D01*
X175740235Y-114827988D01*
X175979924Y-114699871D01*
X176108247Y-114407852D01*
X174960000Y-113259605D01*
X173811753Y-114407852D01*
X166291075Y-114407852D01*
X166248895Y-114306022D01*
X166144655Y-114150016D01*
X166011984Y-114017345D01*
X165855978Y-113913105D01*
X165682634Y-113841304D01*
X165498613Y-113804700D01*
X165310987Y-113804700D01*
X165126966Y-113841304D01*
X164953622Y-113913105D01*
X164797616Y-114017345D01*
X164664945Y-114150016D01*
X164560705Y-114306022D01*
X164488904Y-114479366D01*
X164452300Y-114663387D01*
X136075956Y-114663387D01*
X136188247Y-114407852D01*
X135040000Y-113259605D01*
X133891753Y-114407852D01*
X133160000Y-114407852D01*
X133160000Y-113397986D01*
X133173382Y-113504227D01*
X133292012Y-113860235D01*
X133420129Y-114099924D01*
X133712148Y-114228247D01*
X134860395Y-113080000D01*
X135219605Y-113080000D01*
X136367852Y-114228247D01*
X136659871Y-114099924D01*
X136827723Y-113764305D01*
X136926874Y-113402389D01*
X136946124Y-113131916D01*
X173046486Y-113131916D01*
X173093382Y-113504227D01*
X173212012Y-113860235D01*
X173340129Y-114099924D01*
X173632148Y-114228247D01*
X174780395Y-113080000D01*
X173632148Y-111931753D01*
X173340129Y-112060076D01*
X173172277Y-112395695D01*
X173073126Y-112757611D01*
X173046486Y-113131916D01*
X136946124Y-113131916D01*
X136953514Y-113028084D01*
X136906618Y-112655773D01*
X136787988Y-112299765D01*
X136659871Y-112060076D01*
X136367852Y-111931753D01*
X135219605Y-113080000D01*
X134860395Y-113080000D01*
X133712148Y-111931753D01*
X133420129Y-112060076D01*
X133252277Y-112395695D01*
X133160000Y-112732520D01*
X133160000Y-111752148D01*
X133891753Y-111752148D01*
X135040000Y-112900395D01*
X136188247Y-111752148D01*
X173811753Y-111752148D01*
X174960000Y-112900395D01*
X176108247Y-111752148D01*
X175979924Y-111460129D01*
X175644305Y-111292277D01*
X175282389Y-111193126D01*
X174908084Y-111166486D01*
X174535773Y-111213382D01*
X174179765Y-111332012D01*
X173940076Y-111460129D01*
X173811753Y-111752148D01*
X136188247Y-111752148D01*
X136059924Y-111460129D01*
X135724305Y-111292277D01*
X135362389Y-111193126D01*
X134988084Y-111166486D01*
X134615773Y-111213382D01*
X134259765Y-111332012D01*
X134020076Y-111460129D01*
X133891753Y-111752148D01*
X133160000Y-111752148D01*
X133160000Y-109837387D01*
X143979900Y-109837387D01*
X143979900Y-110025013D01*
X144016504Y-110209034D01*
X144088305Y-110382378D01*
X144192545Y-110538384D01*
X144325216Y-110671055D01*
X144481222Y-110775295D01*
X144654566Y-110847096D01*
X144838587Y-110883700D01*
X145026213Y-110883700D01*
X145210234Y-110847096D01*
X145383578Y-110775295D01*
X145539584Y-110671055D01*
X145672255Y-110538384D01*
X145776495Y-110382378D01*
X145848296Y-110209034D01*
X145851487Y-110192987D01*
X149009100Y-110192987D01*
X149009100Y-110380613D01*
X149045704Y-110564634D01*
X149117505Y-110737978D01*
X149221745Y-110893984D01*
X149354416Y-111026655D01*
X149510422Y-111130895D01*
X149683766Y-111202696D01*
X149867787Y-111239300D01*
X150055413Y-111239300D01*
X150239434Y-111202696D01*
X150412778Y-111130895D01*
X150568784Y-111026655D01*
X150701455Y-110893984D01*
X150805695Y-110737978D01*
X150877496Y-110564634D01*
X150914100Y-110380613D01*
X150914100Y-110192987D01*
X150877496Y-110008966D01*
X150805695Y-109835622D01*
X150701455Y-109679616D01*
X150568784Y-109546945D01*
X150412778Y-109442705D01*
X150239434Y-109370904D01*
X150055413Y-109334300D01*
X149867787Y-109334300D01*
X149683766Y-109370904D01*
X149510422Y-109442705D01*
X149354416Y-109546945D01*
X149221745Y-109679616D01*
X149117505Y-109835622D01*
X149045704Y-110008966D01*
X149009100Y-110192987D01*
X145851487Y-110192987D01*
X145884900Y-110025013D01*
X145884900Y-109837387D01*
X145848296Y-109653366D01*
X145776495Y-109480022D01*
X145672255Y-109324016D01*
X145539584Y-109191345D01*
X145383578Y-109087105D01*
X145210234Y-109015304D01*
X145026213Y-108978700D01*
X144838587Y-108978700D01*
X144654566Y-109015304D01*
X144481222Y-109087105D01*
X144325216Y-109191345D01*
X144192545Y-109324016D01*
X144088305Y-109480022D01*
X144016504Y-109653366D01*
X143979900Y-109837387D01*
X133160000Y-109837387D01*
X133160000Y-107779987D01*
X149948900Y-107779987D01*
X149948900Y-107967613D01*
X149985504Y-108151634D01*
X150057305Y-108324978D01*
X150161545Y-108480984D01*
X150294216Y-108613655D01*
X150450222Y-108717895D01*
X150623566Y-108789696D01*
X150807587Y-108826300D01*
X150995213Y-108826300D01*
X151179234Y-108789696D01*
X151352578Y-108717895D01*
X151508584Y-108613655D01*
X151641255Y-108480984D01*
X151745495Y-108324978D01*
X151817296Y-108151634D01*
X151853900Y-107967613D01*
X151853900Y-107779987D01*
X151817296Y-107595966D01*
X151745495Y-107422622D01*
X151641255Y-107266616D01*
X151508584Y-107133945D01*
X151352578Y-107029705D01*
X151179234Y-106957904D01*
X150995213Y-106921300D01*
X150807587Y-106921300D01*
X150623566Y-106957904D01*
X150450222Y-107029705D01*
X150294216Y-107133945D01*
X150161545Y-107266616D01*
X150057305Y-107422622D01*
X149985504Y-107595966D01*
X149948900Y-107779987D01*
X133160000Y-107779987D01*
X133160000Y-105239987D01*
X147053300Y-105239987D01*
X147053300Y-105427613D01*
X147089904Y-105611634D01*
X147161705Y-105784978D01*
X147265945Y-105940984D01*
X147398616Y-106073655D01*
X147554622Y-106177895D01*
X147727966Y-106249696D01*
X147911987Y-106286300D01*
X148099613Y-106286300D01*
X148283634Y-106249696D01*
X148456978Y-106177895D01*
X148612984Y-106073655D01*
X148745655Y-105940984D01*
X148849895Y-105784978D01*
X148921696Y-105611634D01*
X148958300Y-105427613D01*
X148958300Y-105239987D01*
X148921696Y-105055966D01*
X148849895Y-104882622D01*
X148745655Y-104726616D01*
X148612984Y-104593945D01*
X148477455Y-104503387D01*
X151879300Y-104503387D01*
X151879300Y-104691013D01*
X151915904Y-104875034D01*
X151987705Y-105048378D01*
X152091945Y-105204384D01*
X152224616Y-105337055D01*
X152380622Y-105441295D01*
X152553966Y-105513096D01*
X152737987Y-105549700D01*
X152925613Y-105549700D01*
X153109634Y-105513096D01*
X153282978Y-105441295D01*
X153438984Y-105337055D01*
X153571655Y-105204384D01*
X153675895Y-105048378D01*
X153747696Y-104875034D01*
X153784300Y-104691013D01*
X153784300Y-104503387D01*
X153751541Y-104338698D01*
X153876455Y-104213784D01*
X153980695Y-104057778D01*
X154052496Y-103884434D01*
X154089100Y-103700413D01*
X154089100Y-103512787D01*
X154058786Y-103360387D01*
X156425900Y-103360387D01*
X156425900Y-103548013D01*
X156462504Y-103732034D01*
X156534305Y-103905378D01*
X156638545Y-104061384D01*
X156771216Y-104194055D01*
X156927222Y-104298295D01*
X157100566Y-104370096D01*
X157284587Y-104406700D01*
X157472213Y-104406700D01*
X157624606Y-104376387D01*
X159677100Y-104376387D01*
X159677100Y-104564013D01*
X159713704Y-104748034D01*
X159785505Y-104921378D01*
X159889745Y-105077384D01*
X160022416Y-105210055D01*
X160175993Y-105312672D01*
X160073216Y-105381345D01*
X159940545Y-105514016D01*
X159836305Y-105670022D01*
X159764504Y-105843366D01*
X159727900Y-106027387D01*
X159727900Y-106215013D01*
X159764504Y-106399034D01*
X159836305Y-106572378D01*
X159940545Y-106728384D01*
X160073216Y-106861055D01*
X160229222Y-106965295D01*
X160402566Y-107037096D01*
X160586587Y-107073700D01*
X160774213Y-107073700D01*
X160958234Y-107037096D01*
X161131578Y-106965295D01*
X161287584Y-106861055D01*
X161420255Y-106728384D01*
X161524495Y-106572378D01*
X161596296Y-106399034D01*
X161632900Y-106215013D01*
X161632900Y-106027387D01*
X161596296Y-105843366D01*
X161524495Y-105670022D01*
X161420255Y-105514016D01*
X161287584Y-105381345D01*
X161134007Y-105278728D01*
X161236784Y-105210055D01*
X161369455Y-105077384D01*
X161473695Y-104921378D01*
X161545496Y-104748034D01*
X161582100Y-104564013D01*
X161582100Y-104528787D01*
X163537900Y-104528787D01*
X163537900Y-104716413D01*
X163574504Y-104900434D01*
X163646305Y-105073778D01*
X163750545Y-105229784D01*
X163883216Y-105362455D01*
X164039222Y-105466695D01*
X164212566Y-105538496D01*
X164396587Y-105575100D01*
X164584213Y-105575100D01*
X164768234Y-105538496D01*
X164941578Y-105466695D01*
X165055593Y-105390512D01*
X165207622Y-105492095D01*
X165380966Y-105563896D01*
X165564987Y-105600500D01*
X165752613Y-105600500D01*
X165936634Y-105563896D01*
X166109978Y-105492095D01*
X166265984Y-105387855D01*
X166398655Y-105255184D01*
X166502895Y-105099178D01*
X166574696Y-104925834D01*
X166611300Y-104741813D01*
X166611300Y-104554187D01*
X166574696Y-104370166D01*
X166524033Y-104247852D01*
X173811753Y-104247852D01*
X173940076Y-104539871D01*
X174275695Y-104707723D01*
X174637611Y-104806874D01*
X175011916Y-104833514D01*
X175384227Y-104786618D01*
X175740235Y-104667988D01*
X175979924Y-104539871D01*
X176108247Y-104247852D01*
X174960000Y-103099605D01*
X173811753Y-104247852D01*
X166524033Y-104247852D01*
X166502895Y-104196822D01*
X166398655Y-104040816D01*
X166265984Y-103908145D01*
X166109978Y-103803905D01*
X165936634Y-103732104D01*
X165752613Y-103695500D01*
X165564987Y-103695500D01*
X165380966Y-103732104D01*
X165207622Y-103803905D01*
X165093607Y-103880088D01*
X164941578Y-103778505D01*
X164768234Y-103706704D01*
X164584213Y-103670100D01*
X164396587Y-103670100D01*
X164212566Y-103706704D01*
X164039222Y-103778505D01*
X163883216Y-103882745D01*
X163750545Y-104015416D01*
X163646305Y-104171422D01*
X163574504Y-104344766D01*
X163537900Y-104528787D01*
X161582100Y-104528787D01*
X161582100Y-104376387D01*
X161545496Y-104192366D01*
X161473695Y-104019022D01*
X161369455Y-103863016D01*
X161236784Y-103730345D01*
X161080778Y-103626105D01*
X160907434Y-103554304D01*
X160723413Y-103517700D01*
X160535787Y-103517700D01*
X160351766Y-103554304D01*
X160178422Y-103626105D01*
X160022416Y-103730345D01*
X159889745Y-103863016D01*
X159785505Y-104019022D01*
X159713704Y-104192366D01*
X159677100Y-104376387D01*
X157624606Y-104376387D01*
X157656234Y-104370096D01*
X157829578Y-104298295D01*
X157985584Y-104194055D01*
X158118255Y-104061384D01*
X158222495Y-103905378D01*
X158294296Y-103732034D01*
X158330900Y-103548013D01*
X158330900Y-103360387D01*
X158294296Y-103176366D01*
X158222495Y-103003022D01*
X158201711Y-102971916D01*
X173046486Y-102971916D01*
X173093382Y-103344227D01*
X173212012Y-103700235D01*
X173340129Y-103939924D01*
X173632148Y-104068247D01*
X174780395Y-102920000D01*
X173632148Y-101771753D01*
X173340129Y-101900076D01*
X173172277Y-102235695D01*
X173073126Y-102597611D01*
X173046486Y-102971916D01*
X158201711Y-102971916D01*
X158118255Y-102847016D01*
X157985584Y-102714345D01*
X157829578Y-102610105D01*
X157656234Y-102538304D01*
X157472213Y-102501700D01*
X157284587Y-102501700D01*
X157100566Y-102538304D01*
X156927222Y-102610105D01*
X156771216Y-102714345D01*
X156638545Y-102847016D01*
X156534305Y-103003022D01*
X156462504Y-103176366D01*
X156425900Y-103360387D01*
X154058786Y-103360387D01*
X154052496Y-103328766D01*
X153980695Y-103155422D01*
X153876455Y-102999416D01*
X153743784Y-102866745D01*
X153587778Y-102762505D01*
X153414434Y-102690704D01*
X153230413Y-102654100D01*
X153042787Y-102654100D01*
X152858766Y-102690704D01*
X152685422Y-102762505D01*
X152529416Y-102866745D01*
X152396745Y-102999416D01*
X152292505Y-103155422D01*
X152220704Y-103328766D01*
X152184100Y-103512787D01*
X152184100Y-103700413D01*
X152216859Y-103865102D01*
X152091945Y-103990016D01*
X151987705Y-104146022D01*
X151915904Y-104319366D01*
X151879300Y-104503387D01*
X148477455Y-104503387D01*
X148456978Y-104489705D01*
X148283634Y-104417904D01*
X148099613Y-104381300D01*
X147911987Y-104381300D01*
X147727966Y-104417904D01*
X147554622Y-104489705D01*
X147398616Y-104593945D01*
X147265945Y-104726616D01*
X147161705Y-104882622D01*
X147089904Y-105055966D01*
X147053300Y-105239987D01*
X133160000Y-105239987D01*
X133160000Y-104247852D01*
X133891753Y-104247852D01*
X134020076Y-104539871D01*
X134355695Y-104707723D01*
X134717611Y-104806874D01*
X135091916Y-104833514D01*
X135464227Y-104786618D01*
X135820235Y-104667988D01*
X136059924Y-104539871D01*
X136188247Y-104247852D01*
X135040000Y-103099605D01*
X133891753Y-104247852D01*
X133160000Y-104247852D01*
X133160000Y-103237986D01*
X133173382Y-103344227D01*
X133292012Y-103700235D01*
X133420129Y-103939924D01*
X133712148Y-104068247D01*
X134860395Y-102920000D01*
X135219605Y-102920000D01*
X136367852Y-104068247D01*
X136418052Y-104046187D01*
X142913100Y-104046187D01*
X142913100Y-104233813D01*
X142949704Y-104417834D01*
X143021505Y-104591178D01*
X143125745Y-104747184D01*
X143258416Y-104879855D01*
X143414422Y-104984095D01*
X143587766Y-105055896D01*
X143771787Y-105092500D01*
X143959413Y-105092500D01*
X144143434Y-105055896D01*
X144316778Y-104984095D01*
X144379993Y-104941856D01*
X144481222Y-105009495D01*
X144654566Y-105081296D01*
X144838587Y-105117900D01*
X145026213Y-105117900D01*
X145210234Y-105081296D01*
X145383578Y-105009495D01*
X145539584Y-104905255D01*
X145672255Y-104772584D01*
X145776495Y-104616578D01*
X145848296Y-104443234D01*
X145884900Y-104259213D01*
X145884900Y-104071587D01*
X145848296Y-103887566D01*
X145776495Y-103714222D01*
X145672255Y-103558216D01*
X145539584Y-103425545D01*
X145383578Y-103321305D01*
X145210234Y-103249504D01*
X145140860Y-103235705D01*
X145311834Y-103201696D01*
X145485178Y-103129895D01*
X145641184Y-103025655D01*
X145773855Y-102892984D01*
X145821342Y-102821914D01*
X145919745Y-102969184D01*
X146052416Y-103101855D01*
X146208422Y-103206095D01*
X146381766Y-103277896D01*
X146565787Y-103314500D01*
X146753413Y-103314500D01*
X146937434Y-103277896D01*
X147110778Y-103206095D01*
X147266784Y-103101855D01*
X147399455Y-102969184D01*
X147503695Y-102813178D01*
X147575496Y-102639834D01*
X147612100Y-102455813D01*
X147612100Y-102268187D01*
X147575496Y-102084166D01*
X147503695Y-101910822D01*
X147399455Y-101754816D01*
X147266784Y-101622145D01*
X147110778Y-101517905D01*
X146937434Y-101446104D01*
X146770501Y-101412899D01*
X146737296Y-101245966D01*
X146665495Y-101072622D01*
X146561255Y-100916616D01*
X146428584Y-100783945D01*
X146272578Y-100679705D01*
X146099234Y-100607904D01*
X145915213Y-100571300D01*
X145855563Y-100571300D01*
X145875775Y-100469688D01*
X145903622Y-100488295D01*
X146076966Y-100560096D01*
X146260987Y-100596700D01*
X146448613Y-100596700D01*
X146632634Y-100560096D01*
X146805978Y-100488295D01*
X146961984Y-100384055D01*
X147094655Y-100251384D01*
X147198895Y-100095378D01*
X147270696Y-99922034D01*
X147307300Y-99738013D01*
X147307300Y-99550387D01*
X147282039Y-99423387D01*
X148424900Y-99423387D01*
X148424900Y-99611013D01*
X148461504Y-99795034D01*
X148533305Y-99968378D01*
X148637545Y-100124384D01*
X148770216Y-100257055D01*
X148926222Y-100361295D01*
X149099566Y-100433096D01*
X149283587Y-100469700D01*
X149471213Y-100469700D01*
X149655234Y-100433096D01*
X149828578Y-100361295D01*
X149984584Y-100257055D01*
X150117255Y-100124384D01*
X150221495Y-99968378D01*
X150293296Y-99795034D01*
X150317934Y-99671173D01*
X150395816Y-99749055D01*
X150551822Y-99853295D01*
X150661776Y-99898839D01*
X150696704Y-100074434D01*
X150768505Y-100247778D01*
X150872745Y-100403784D01*
X150930533Y-100461572D01*
X150844705Y-100590022D01*
X150772904Y-100763366D01*
X150736300Y-100947387D01*
X150736300Y-101135013D01*
X150772904Y-101319034D01*
X150844705Y-101492378D01*
X150948945Y-101648384D01*
X151081616Y-101781055D01*
X151237622Y-101885295D01*
X151410966Y-101957096D01*
X151594987Y-101993700D01*
X151782613Y-101993700D01*
X151966634Y-101957096D01*
X152139978Y-101885295D01*
X152295984Y-101781055D01*
X152428655Y-101648384D01*
X152532895Y-101492378D01*
X152604696Y-101319034D01*
X152641300Y-101135013D01*
X152641300Y-100947387D01*
X152604696Y-100763366D01*
X152532895Y-100590022D01*
X152428655Y-100434016D01*
X152370867Y-100376228D01*
X152456695Y-100247778D01*
X152461496Y-100236187D01*
X152641300Y-100236187D01*
X152641300Y-100423813D01*
X152677904Y-100607834D01*
X152749705Y-100781178D01*
X152853945Y-100937184D01*
X152986616Y-101069855D01*
X153142622Y-101174095D01*
X153230401Y-101210454D01*
X153262104Y-101369834D01*
X153333905Y-101543178D01*
X153438145Y-101699184D01*
X153570816Y-101831855D01*
X153726822Y-101936095D01*
X153900166Y-102007896D01*
X154084187Y-102044500D01*
X154271813Y-102044500D01*
X154455834Y-102007896D01*
X154629178Y-101936095D01*
X154785184Y-101831855D01*
X154917855Y-101699184D01*
X155022095Y-101543178D01*
X155093896Y-101369834D01*
X155130500Y-101185813D01*
X155130500Y-100998187D01*
X155120396Y-100947387D01*
X155613100Y-100947387D01*
X155613100Y-101135013D01*
X155649704Y-101319034D01*
X155721505Y-101492378D01*
X155825745Y-101648384D01*
X155958416Y-101781055D01*
X156114422Y-101885295D01*
X156287766Y-101957096D01*
X156471787Y-101993700D01*
X156659413Y-101993700D01*
X156769347Y-101971833D01*
X156841745Y-102080184D01*
X156974416Y-102212855D01*
X157130422Y-102317095D01*
X157303766Y-102388896D01*
X157487787Y-102425500D01*
X157675413Y-102425500D01*
X157859434Y-102388896D01*
X158032778Y-102317095D01*
X158188784Y-102212855D01*
X158321455Y-102080184D01*
X158425695Y-101924178D01*
X158497496Y-101750834D01*
X158529060Y-101592148D01*
X173811753Y-101592148D01*
X174960000Y-102740395D01*
X176108247Y-101592148D01*
X175979924Y-101300129D01*
X175644305Y-101132277D01*
X175282389Y-101033126D01*
X174908084Y-101006486D01*
X174535773Y-101053382D01*
X174179765Y-101172012D01*
X173940076Y-101300129D01*
X173811753Y-101592148D01*
X158529060Y-101592148D01*
X158534100Y-101566813D01*
X158534100Y-101379187D01*
X158497496Y-101195166D01*
X158425695Y-101021822D01*
X158321455Y-100865816D01*
X158188784Y-100733145D01*
X158032778Y-100628905D01*
X157859434Y-100557104D01*
X157675413Y-100520500D01*
X157487787Y-100520500D01*
X157377853Y-100542367D01*
X157305455Y-100434016D01*
X157172784Y-100301345D01*
X157016778Y-100197105D01*
X156843434Y-100125304D01*
X156659413Y-100088700D01*
X156471787Y-100088700D01*
X156287766Y-100125304D01*
X156114422Y-100197105D01*
X155958416Y-100301345D01*
X155825745Y-100434016D01*
X155721505Y-100590022D01*
X155649704Y-100763366D01*
X155613100Y-100947387D01*
X155120396Y-100947387D01*
X155093896Y-100814166D01*
X155022095Y-100640822D01*
X154917855Y-100484816D01*
X154785184Y-100352145D01*
X154629178Y-100247905D01*
X154541399Y-100211546D01*
X154509696Y-100052166D01*
X154437895Y-99878822D01*
X154333655Y-99722816D01*
X154200984Y-99590145D01*
X154044978Y-99485905D01*
X153871634Y-99414104D01*
X153687613Y-99377500D01*
X153499987Y-99377500D01*
X153315966Y-99414104D01*
X153142622Y-99485905D01*
X152986616Y-99590145D01*
X152853945Y-99722816D01*
X152749705Y-99878822D01*
X152677904Y-100052166D01*
X152641300Y-100236187D01*
X152461496Y-100236187D01*
X152528496Y-100074434D01*
X152565100Y-99890413D01*
X152565100Y-99702787D01*
X152528496Y-99518766D01*
X152456695Y-99345422D01*
X152352455Y-99189416D01*
X152219784Y-99056745D01*
X152063778Y-98952505D01*
X151953824Y-98906961D01*
X151918896Y-98731366D01*
X151847095Y-98558022D01*
X151742855Y-98402016D01*
X151610184Y-98269345D01*
X151454178Y-98165105D01*
X151280834Y-98093304D01*
X151096813Y-98056700D01*
X150909187Y-98056700D01*
X150725166Y-98093304D01*
X150551822Y-98165105D01*
X150395816Y-98269345D01*
X150263145Y-98402016D01*
X150158905Y-98558022D01*
X150087104Y-98731366D01*
X150062466Y-98855227D01*
X149984584Y-98777345D01*
X149828578Y-98673105D01*
X149655234Y-98601304D01*
X149471213Y-98564700D01*
X149283587Y-98564700D01*
X149099566Y-98601304D01*
X148926222Y-98673105D01*
X148770216Y-98777345D01*
X148637545Y-98910016D01*
X148533305Y-99066022D01*
X148461504Y-99239366D01*
X148424900Y-99423387D01*
X147282039Y-99423387D01*
X147270696Y-99366366D01*
X147198895Y-99193022D01*
X147094655Y-99037016D01*
X146961984Y-98904345D01*
X146875500Y-98846558D01*
X146875500Y-98737587D01*
X146838896Y-98553566D01*
X146767095Y-98380222D01*
X146669332Y-98233910D01*
X146682584Y-98225055D01*
X146815255Y-98092384D01*
X146919495Y-97936378D01*
X146991296Y-97763034D01*
X147027900Y-97579013D01*
X147027900Y-97391387D01*
X146991296Y-97207366D01*
X146919495Y-97034022D01*
X146815255Y-96878016D01*
X146682584Y-96745345D01*
X146648723Y-96722720D01*
X146712298Y-96569234D01*
X146735699Y-96451587D01*
X151955500Y-96451587D01*
X151955500Y-96639213D01*
X151992104Y-96823234D01*
X152063905Y-96996578D01*
X152168145Y-97152584D01*
X152300816Y-97285255D01*
X152456822Y-97389495D01*
X152630166Y-97461296D01*
X152814187Y-97497900D01*
X153001813Y-97497900D01*
X153185834Y-97461296D01*
X153359178Y-97389495D01*
X153515184Y-97285255D01*
X153530300Y-97270139D01*
X153570816Y-97310655D01*
X153726822Y-97414895D01*
X153900166Y-97486696D01*
X154084187Y-97523300D01*
X154271813Y-97523300D01*
X154455834Y-97486696D01*
X154629178Y-97414895D01*
X154785184Y-97310655D01*
X154917855Y-97177984D01*
X155022095Y-97021978D01*
X155093896Y-96848634D01*
X155130500Y-96664613D01*
X155130500Y-96476987D01*
X155093896Y-96292966D01*
X155022095Y-96119622D01*
X154917855Y-95963616D01*
X154785184Y-95830945D01*
X154629178Y-95726705D01*
X154455834Y-95654904D01*
X154271813Y-95618300D01*
X154084187Y-95618300D01*
X153900166Y-95654904D01*
X153726822Y-95726705D01*
X153570816Y-95830945D01*
X153555700Y-95846061D01*
X153515184Y-95805545D01*
X153359178Y-95701305D01*
X153185834Y-95629504D01*
X153001813Y-95592900D01*
X152814187Y-95592900D01*
X152630166Y-95629504D01*
X152456822Y-95701305D01*
X152300816Y-95805545D01*
X152168145Y-95938216D01*
X152063905Y-96094222D01*
X151992104Y-96267566D01*
X151955500Y-96451587D01*
X146735699Y-96451587D01*
X146744924Y-96405210D01*
X146747386Y-96405700D01*
X146935012Y-96405700D01*
X147119033Y-96369096D01*
X147292377Y-96297295D01*
X147448383Y-96193055D01*
X147581054Y-96060384D01*
X147685294Y-95904378D01*
X147757095Y-95731034D01*
X147793699Y-95547013D01*
X147793699Y-95359387D01*
X162902900Y-95359387D01*
X162902900Y-95547013D01*
X162939504Y-95731034D01*
X163011305Y-95904378D01*
X163030065Y-95932454D01*
X162964904Y-96089766D01*
X162928300Y-96273787D01*
X162928300Y-96461413D01*
X162964904Y-96645434D01*
X163036705Y-96818778D01*
X163140945Y-96974784D01*
X163273616Y-97107455D01*
X163429622Y-97211695D01*
X163602966Y-97283496D01*
X163786987Y-97320100D01*
X163974613Y-97320100D01*
X164158634Y-97283496D01*
X164331978Y-97211695D01*
X164487984Y-97107455D01*
X164620655Y-96974784D01*
X164724895Y-96818778D01*
X164729696Y-96807187D01*
X165950900Y-96807187D01*
X165950900Y-96994813D01*
X165987504Y-97178834D01*
X166059305Y-97352178D01*
X166163545Y-97508184D01*
X166296216Y-97640855D01*
X166452222Y-97745095D01*
X166625566Y-97816896D01*
X166809587Y-97853500D01*
X166997213Y-97853500D01*
X167181234Y-97816896D01*
X167354578Y-97745095D01*
X167510584Y-97640855D01*
X167643255Y-97508184D01*
X167747495Y-97352178D01*
X167819296Y-97178834D01*
X167855900Y-96994813D01*
X167855900Y-96807187D01*
X167819296Y-96623166D01*
X167747495Y-96449822D01*
X167643255Y-96293816D01*
X167510584Y-96161145D01*
X167354578Y-96056905D01*
X167181234Y-95985104D01*
X166997213Y-95948500D01*
X166809587Y-95948500D01*
X166625566Y-95985104D01*
X166452222Y-96056905D01*
X166296216Y-96161145D01*
X166163545Y-96293816D01*
X166059305Y-96449822D01*
X165987504Y-96623166D01*
X165950900Y-96807187D01*
X164729696Y-96807187D01*
X164796696Y-96645434D01*
X164833300Y-96461413D01*
X164833300Y-96273787D01*
X164796696Y-96089766D01*
X164724895Y-95916422D01*
X164706135Y-95888346D01*
X164771296Y-95731034D01*
X164807900Y-95547013D01*
X164807900Y-95359387D01*
X164771296Y-95175366D01*
X164699495Y-95002022D01*
X164595255Y-94846016D01*
X164462584Y-94713345D01*
X164306578Y-94609105D01*
X164133234Y-94537304D01*
X163949213Y-94500700D01*
X163761587Y-94500700D01*
X163577566Y-94537304D01*
X163404222Y-94609105D01*
X163248216Y-94713345D01*
X163115545Y-94846016D01*
X163011305Y-95002022D01*
X162939504Y-95175366D01*
X162902900Y-95359387D01*
X147793699Y-95359387D01*
X147757095Y-95175366D01*
X147685294Y-95002022D01*
X147581054Y-94846016D01*
X147448383Y-94713345D01*
X147292377Y-94609105D01*
X147119033Y-94537304D01*
X146935012Y-94500700D01*
X146747386Y-94500700D01*
X146563365Y-94537304D01*
X146390021Y-94609105D01*
X146234015Y-94713345D01*
X146101344Y-94846016D01*
X145997104Y-95002022D01*
X145925303Y-95175366D01*
X145892677Y-95339390D01*
X145890215Y-95338900D01*
X145702589Y-95338900D01*
X145518568Y-95375504D01*
X145345224Y-95447305D01*
X145189218Y-95551545D01*
X145056547Y-95684216D01*
X144952307Y-95840222D01*
X144880506Y-96013566D01*
X144843902Y-96197587D01*
X144843902Y-96385213D01*
X144880506Y-96569234D01*
X144952307Y-96742578D01*
X145056547Y-96898584D01*
X145189218Y-97031255D01*
X145223079Y-97053880D01*
X145159504Y-97207366D01*
X145122900Y-97391387D01*
X145122900Y-97579013D01*
X145159504Y-97763034D01*
X145231305Y-97936378D01*
X145329068Y-98082690D01*
X145315816Y-98091545D01*
X145183145Y-98224216D01*
X145078905Y-98380222D01*
X145007104Y-98553566D01*
X144970500Y-98737587D01*
X144970500Y-98925213D01*
X145007104Y-99109234D01*
X145078905Y-99282578D01*
X145160128Y-99404137D01*
X145026213Y-99377500D01*
X144838587Y-99377500D01*
X144654566Y-99414104D01*
X144481222Y-99485905D01*
X144325216Y-99590145D01*
X144192545Y-99722816D01*
X144088305Y-99878822D01*
X144016504Y-100052166D01*
X143979900Y-100236187D01*
X143979900Y-100423813D01*
X144016504Y-100607834D01*
X144088305Y-100781178D01*
X144192545Y-100937184D01*
X144325216Y-101069855D01*
X144481222Y-101174095D01*
X144654566Y-101245896D01*
X144838587Y-101282500D01*
X144898237Y-101282500D01*
X144885988Y-101344081D01*
X144756166Y-101369904D01*
X144582822Y-101441705D01*
X144426816Y-101545945D01*
X144294145Y-101678616D01*
X144189905Y-101834622D01*
X144118104Y-102007966D01*
X144081500Y-102191987D01*
X144081500Y-102379613D01*
X144118104Y-102563634D01*
X144189905Y-102736978D01*
X144294145Y-102892984D01*
X144426816Y-103025655D01*
X144582822Y-103129895D01*
X144756166Y-103201696D01*
X144825540Y-103215495D01*
X144654566Y-103249504D01*
X144481222Y-103321305D01*
X144418007Y-103363544D01*
X144316778Y-103295905D01*
X144143434Y-103224104D01*
X143959413Y-103187500D01*
X143771787Y-103187500D01*
X143587766Y-103224104D01*
X143414422Y-103295905D01*
X143258416Y-103400145D01*
X143125745Y-103532816D01*
X143021505Y-103688822D01*
X142949704Y-103862166D01*
X142913100Y-104046187D01*
X136418052Y-104046187D01*
X136659871Y-103939924D01*
X136827723Y-103604305D01*
X136926874Y-103242389D01*
X136953514Y-102868084D01*
X136906618Y-102495773D01*
X136787988Y-102139765D01*
X136659871Y-101900076D01*
X136367852Y-101771753D01*
X135219605Y-102920000D01*
X134860395Y-102920000D01*
X133712148Y-101771753D01*
X133420129Y-101900076D01*
X133252277Y-102235695D01*
X133160000Y-102572520D01*
X133160000Y-101592148D01*
X133891753Y-101592148D01*
X135040000Y-102740395D01*
X136188247Y-101592148D01*
X136059924Y-101300129D01*
X135724305Y-101132277D01*
X135362389Y-101033126D01*
X134988084Y-101006486D01*
X134615773Y-101053382D01*
X134259765Y-101172012D01*
X134020076Y-101300129D01*
X133891753Y-101592148D01*
X133160000Y-101592148D01*
X133160000Y-98971620D01*
X134545000Y-98971620D01*
X134545000Y-99248380D01*
X134598994Y-99519823D01*
X134704905Y-99775517D01*
X134858665Y-100005635D01*
X135054365Y-100201335D01*
X135284483Y-100355095D01*
X135540177Y-100461006D01*
X135811620Y-100515000D01*
X136088380Y-100515000D01*
X136359823Y-100461006D01*
X136615517Y-100355095D01*
X136845635Y-100201335D01*
X137041335Y-100005635D01*
X137195095Y-99775517D01*
X137301006Y-99519823D01*
X137355000Y-99248380D01*
X137355000Y-98971620D01*
X137348867Y-98940787D01*
X138124299Y-98940787D01*
X138124299Y-99128413D01*
X138160903Y-99312434D01*
X138232704Y-99485778D01*
X138336944Y-99641784D01*
X138469615Y-99774455D01*
X138625621Y-99878695D01*
X138798965Y-99950496D01*
X138982986Y-99987100D01*
X139170612Y-99987100D01*
X139354633Y-99950496D01*
X139527977Y-99878695D01*
X139683983Y-99774455D01*
X139706592Y-99751846D01*
X139858422Y-99853295D01*
X140031766Y-99925096D01*
X140215787Y-99961700D01*
X140403413Y-99961700D01*
X140587434Y-99925096D01*
X140760778Y-99853295D01*
X140916784Y-99749055D01*
X141049455Y-99616384D01*
X141153695Y-99460378D01*
X141225496Y-99287034D01*
X141229217Y-99268327D01*
X141382422Y-99370695D01*
X141555766Y-99442496D01*
X141739787Y-99479100D01*
X141927413Y-99479100D01*
X142111434Y-99442496D01*
X142284778Y-99370695D01*
X142440784Y-99266455D01*
X142573455Y-99133784D01*
X142677695Y-98977778D01*
X142749496Y-98804434D01*
X142786100Y-98620413D01*
X142786100Y-98432787D01*
X142749496Y-98248766D01*
X142677695Y-98075422D01*
X142573455Y-97919416D01*
X142440784Y-97786745D01*
X142284778Y-97682505D01*
X142111434Y-97610704D01*
X141976352Y-97583835D01*
X141962096Y-97512166D01*
X141890295Y-97338822D01*
X141786055Y-97182816D01*
X141653384Y-97050145D01*
X141497378Y-96945905D01*
X141324034Y-96874104D01*
X141140013Y-96837500D01*
X140952387Y-96837500D01*
X140768366Y-96874104D01*
X140595022Y-96945905D01*
X140439016Y-97050145D01*
X140306345Y-97182816D01*
X140202105Y-97338822D01*
X140130304Y-97512166D01*
X140093700Y-97696187D01*
X140093700Y-97883813D01*
X140130304Y-98067834D01*
X140132550Y-98073257D01*
X140031766Y-98093304D01*
X139858422Y-98165105D01*
X139702416Y-98269345D01*
X139679807Y-98291954D01*
X139527977Y-98190505D01*
X139354633Y-98118704D01*
X139170612Y-98082100D01*
X138982986Y-98082100D01*
X138798965Y-98118704D01*
X138625621Y-98190505D01*
X138469615Y-98294745D01*
X138336944Y-98427416D01*
X138232704Y-98583422D01*
X138160903Y-98756766D01*
X138124299Y-98940787D01*
X137348867Y-98940787D01*
X137301006Y-98700177D01*
X137195095Y-98444483D01*
X137041335Y-98214365D01*
X136845635Y-98018665D01*
X136615517Y-97864905D01*
X136561122Y-97842374D01*
X136673724Y-97782187D01*
X136741673Y-97541278D01*
X135950000Y-96749605D01*
X135158327Y-97541278D01*
X135226276Y-97782187D01*
X135346976Y-97839020D01*
X135284483Y-97864905D01*
X135054365Y-98018665D01*
X134858665Y-98214365D01*
X134704905Y-98444483D01*
X134598994Y-98700177D01*
X134545000Y-98971620D01*
X133160000Y-98971620D01*
X133160000Y-96641701D01*
X134540023Y-96641701D01*
X134581104Y-96915395D01*
X134674790Y-97175817D01*
X134737813Y-97293724D01*
X134978722Y-97361673D01*
X135770395Y-96570000D01*
X136129605Y-96570000D01*
X136921278Y-97361673D01*
X137162187Y-97293724D01*
X137280087Y-97043332D01*
X137346872Y-96774750D01*
X137359977Y-96498299D01*
X137318896Y-96224605D01*
X137225210Y-95964183D01*
X137162187Y-95846276D01*
X136921278Y-95778327D01*
X136129605Y-96570000D01*
X135770395Y-96570000D01*
X134978722Y-95778327D01*
X134737813Y-95846276D01*
X134619913Y-96096668D01*
X134553128Y-96365250D01*
X134540023Y-96641701D01*
X133160000Y-96641701D01*
X133160000Y-88811620D01*
X134545000Y-88811620D01*
X134545000Y-89088380D01*
X134598994Y-89359823D01*
X134704905Y-89615517D01*
X134858665Y-89845635D01*
X135054365Y-90041335D01*
X135284483Y-90195095D01*
X135344610Y-90220000D01*
X135284483Y-90244905D01*
X135054365Y-90398665D01*
X134858665Y-90594365D01*
X134704905Y-90824483D01*
X134598994Y-91080177D01*
X134545000Y-91351620D01*
X134545000Y-91628380D01*
X134598994Y-91899823D01*
X134704905Y-92155517D01*
X134858665Y-92385635D01*
X135054365Y-92581335D01*
X135284483Y-92735095D01*
X135344610Y-92760000D01*
X135284483Y-92784905D01*
X135054365Y-92938665D01*
X134858665Y-93134365D01*
X134704905Y-93364483D01*
X134598994Y-93620177D01*
X134545000Y-93891620D01*
X134545000Y-94168380D01*
X134598994Y-94439823D01*
X134704905Y-94695517D01*
X134858665Y-94925635D01*
X135054365Y-95121335D01*
X135284483Y-95275095D01*
X135338878Y-95297626D01*
X135226276Y-95357813D01*
X135158327Y-95598722D01*
X135950000Y-96390395D01*
X136741673Y-95598722D01*
X136673724Y-95357813D01*
X136553024Y-95300980D01*
X136615517Y-95275095D01*
X136845635Y-95121335D01*
X137041335Y-94925635D01*
X137195095Y-94695517D01*
X137301006Y-94439823D01*
X137355000Y-94168380D01*
X137355000Y-93891620D01*
X137301006Y-93620177D01*
X137200772Y-93378187D01*
X148653500Y-93378187D01*
X148653500Y-93565813D01*
X148690104Y-93749834D01*
X148761905Y-93923178D01*
X148866145Y-94079184D01*
X148998816Y-94211855D01*
X149154822Y-94316095D01*
X149328166Y-94387896D01*
X149512187Y-94424500D01*
X149699813Y-94424500D01*
X149883834Y-94387896D01*
X150057178Y-94316095D01*
X150213184Y-94211855D01*
X150345855Y-94079184D01*
X150450095Y-93923178D01*
X150521896Y-93749834D01*
X150558500Y-93565813D01*
X150558500Y-93403587D01*
X156959300Y-93403587D01*
X156959300Y-93591213D01*
X156995904Y-93775234D01*
X157067705Y-93948578D01*
X157171945Y-94104584D01*
X157304616Y-94237255D01*
X157460622Y-94341495D01*
X157633966Y-94413296D01*
X157817987Y-94449900D01*
X158005613Y-94449900D01*
X158189634Y-94413296D01*
X158362978Y-94341495D01*
X158518984Y-94237255D01*
X158651655Y-94104584D01*
X158755895Y-93948578D01*
X158827696Y-93775234D01*
X158864300Y-93591213D01*
X158864300Y-93403587D01*
X158827696Y-93219566D01*
X158755895Y-93046222D01*
X158651655Y-92890216D01*
X158518984Y-92757545D01*
X158362978Y-92653305D01*
X158189634Y-92581504D01*
X158005613Y-92544900D01*
X157817987Y-92544900D01*
X157633966Y-92581504D01*
X157460622Y-92653305D01*
X157304616Y-92757545D01*
X157171945Y-92890216D01*
X157067705Y-93046222D01*
X156995904Y-93219566D01*
X156959300Y-93403587D01*
X150558500Y-93403587D01*
X150558500Y-93378187D01*
X150521896Y-93194166D01*
X150450095Y-93020822D01*
X150345855Y-92864816D01*
X150213184Y-92732145D01*
X150057178Y-92627905D01*
X149883834Y-92556104D01*
X149699813Y-92519500D01*
X149512187Y-92519500D01*
X149328166Y-92556104D01*
X149154822Y-92627905D01*
X148998816Y-92732145D01*
X148866145Y-92864816D01*
X148761905Y-93020822D01*
X148690104Y-93194166D01*
X148653500Y-93378187D01*
X137200772Y-93378187D01*
X137195095Y-93364483D01*
X137041335Y-93134365D01*
X136845635Y-92938665D01*
X136615517Y-92784905D01*
X136555390Y-92760000D01*
X136615517Y-92735095D01*
X136845635Y-92581335D01*
X137039383Y-92387587D01*
X163106100Y-92387587D01*
X163106100Y-92575213D01*
X163142704Y-92759234D01*
X163214505Y-92932578D01*
X163318745Y-93088584D01*
X163451416Y-93221255D01*
X163607422Y-93325495D01*
X163780766Y-93397296D01*
X163964787Y-93433900D01*
X164152413Y-93433900D01*
X164336434Y-93397296D01*
X164443888Y-93352787D01*
X166001700Y-93352787D01*
X166001700Y-93540413D01*
X166038304Y-93724434D01*
X166110105Y-93897778D01*
X166214345Y-94053784D01*
X166347016Y-94186455D01*
X166503022Y-94290695D01*
X166676366Y-94362496D01*
X166860387Y-94399100D01*
X167048013Y-94399100D01*
X167232034Y-94362496D01*
X167405378Y-94290695D01*
X167561384Y-94186455D01*
X167694055Y-94053784D01*
X167798295Y-93897778D01*
X167870096Y-93724434D01*
X167906700Y-93540413D01*
X167906700Y-93352787D01*
X167870096Y-93168766D01*
X167798295Y-92995422D01*
X167694055Y-92839416D01*
X167561384Y-92706745D01*
X167405378Y-92602505D01*
X167232034Y-92530704D01*
X167048013Y-92494100D01*
X166860387Y-92494100D01*
X166676366Y-92530704D01*
X166503022Y-92602505D01*
X166347016Y-92706745D01*
X166214345Y-92839416D01*
X166110105Y-92995422D01*
X166038304Y-93168766D01*
X166001700Y-93352787D01*
X164443888Y-93352787D01*
X164509778Y-93325495D01*
X164665784Y-93221255D01*
X164798455Y-93088584D01*
X164902695Y-92932578D01*
X164974496Y-92759234D01*
X165011100Y-92575213D01*
X165011100Y-92387587D01*
X164974496Y-92203566D01*
X164902695Y-92030222D01*
X164798455Y-91874216D01*
X164665784Y-91741545D01*
X164509778Y-91637305D01*
X164336434Y-91565504D01*
X164152413Y-91528900D01*
X163964787Y-91528900D01*
X163780766Y-91565504D01*
X163607422Y-91637305D01*
X163451416Y-91741545D01*
X163318745Y-91874216D01*
X163214505Y-92030222D01*
X163142704Y-92203566D01*
X163106100Y-92387587D01*
X137039383Y-92387587D01*
X137041335Y-92385635D01*
X137195095Y-92155517D01*
X137301006Y-91899823D01*
X137355000Y-91628380D01*
X137355000Y-91351620D01*
X137308448Y-91117587D01*
X140017500Y-91117587D01*
X140017500Y-91305213D01*
X140054104Y-91489234D01*
X140125905Y-91662578D01*
X140230145Y-91818584D01*
X140362816Y-91951255D01*
X140518822Y-92055495D01*
X140692166Y-92127296D01*
X140876187Y-92163900D01*
X141063813Y-92163900D01*
X141247834Y-92127296D01*
X141421178Y-92055495D01*
X141577184Y-91951255D01*
X141709855Y-91818584D01*
X141814095Y-91662578D01*
X141885896Y-91489234D01*
X141922500Y-91305213D01*
X141922500Y-91117587D01*
X141885896Y-90933566D01*
X141814095Y-90760222D01*
X141709855Y-90604216D01*
X141577184Y-90471545D01*
X141421178Y-90367305D01*
X141323216Y-90326728D01*
X141375395Y-90318896D01*
X141635817Y-90225210D01*
X141753724Y-90162187D01*
X141821673Y-89921278D01*
X141030000Y-89129605D01*
X140238327Y-89921278D01*
X140306276Y-90162187D01*
X140556668Y-90280087D01*
X140664595Y-90306924D01*
X140518822Y-90367305D01*
X140362816Y-90471545D01*
X140230145Y-90604216D01*
X140125905Y-90760222D01*
X140054104Y-90933566D01*
X140017500Y-91117587D01*
X137308448Y-91117587D01*
X137301006Y-91080177D01*
X137195095Y-90824483D01*
X137041335Y-90594365D01*
X136845635Y-90398665D01*
X136615517Y-90244905D01*
X136555390Y-90220000D01*
X136615517Y-90195095D01*
X136845635Y-90041335D01*
X137041335Y-89845635D01*
X137195095Y-89615517D01*
X137220000Y-89555390D01*
X137244905Y-89615517D01*
X137398665Y-89845635D01*
X137594365Y-90041335D01*
X137824483Y-90195095D01*
X138080177Y-90301006D01*
X138351620Y-90355000D01*
X138628380Y-90355000D01*
X138899823Y-90301006D01*
X139155517Y-90195095D01*
X139385635Y-90041335D01*
X139581335Y-89845635D01*
X139735095Y-89615517D01*
X139757626Y-89561122D01*
X139817813Y-89673724D01*
X140058722Y-89741673D01*
X140850395Y-88950000D01*
X141209605Y-88950000D01*
X142001278Y-89741673D01*
X142242187Y-89673724D01*
X142299020Y-89553024D01*
X142324905Y-89615517D01*
X142478665Y-89845635D01*
X142674365Y-90041335D01*
X142904483Y-90195095D01*
X143160177Y-90301006D01*
X143431620Y-90355000D01*
X143708380Y-90355000D01*
X143979823Y-90301006D01*
X144235517Y-90195095D01*
X144465635Y-90041335D01*
X144661335Y-89845635D01*
X144815095Y-89615517D01*
X144840000Y-89555390D01*
X144864905Y-89615517D01*
X145018665Y-89845635D01*
X145214365Y-90041335D01*
X145444483Y-90195095D01*
X145700177Y-90301006D01*
X145971620Y-90355000D01*
X146248380Y-90355000D01*
X146519823Y-90301006D01*
X146775517Y-90195095D01*
X147005635Y-90041335D01*
X147201335Y-89845635D01*
X147355095Y-89615517D01*
X147380000Y-89555390D01*
X147404905Y-89615517D01*
X147558665Y-89845635D01*
X147754365Y-90041335D01*
X147984483Y-90195095D01*
X148240177Y-90301006D01*
X148511620Y-90355000D01*
X148788380Y-90355000D01*
X149059823Y-90301006D01*
X149315517Y-90195095D01*
X149545635Y-90041335D01*
X149741335Y-89845635D01*
X149895095Y-89615517D01*
X149920000Y-89555390D01*
X149944905Y-89615517D01*
X150098665Y-89845635D01*
X150294365Y-90041335D01*
X150524483Y-90195095D01*
X150780177Y-90301006D01*
X151051620Y-90355000D01*
X151328380Y-90355000D01*
X151599823Y-90301006D01*
X151855517Y-90195095D01*
X152085635Y-90041335D01*
X152281335Y-89845635D01*
X152435095Y-89615517D01*
X152460000Y-89555390D01*
X152484905Y-89615517D01*
X152638665Y-89845635D01*
X152834365Y-90041335D01*
X153064483Y-90195095D01*
X153320177Y-90301006D01*
X153591620Y-90355000D01*
X153868380Y-90355000D01*
X154139823Y-90301006D01*
X154395517Y-90195095D01*
X154625635Y-90041335D01*
X154821335Y-89845635D01*
X154975095Y-89615517D01*
X155000000Y-89555390D01*
X155024905Y-89615517D01*
X155178665Y-89845635D01*
X155374365Y-90041335D01*
X155604483Y-90195095D01*
X155860177Y-90301006D01*
X156131620Y-90355000D01*
X156408380Y-90355000D01*
X156679823Y-90301006D01*
X156935517Y-90195095D01*
X157165635Y-90041335D01*
X157361335Y-89845635D01*
X157515095Y-89615517D01*
X157540000Y-89555390D01*
X157564905Y-89615517D01*
X157718665Y-89845635D01*
X157914365Y-90041335D01*
X158144483Y-90195095D01*
X158400177Y-90301006D01*
X158671620Y-90355000D01*
X158948380Y-90355000D01*
X159219823Y-90301006D01*
X159475517Y-90195095D01*
X159705635Y-90041335D01*
X159901335Y-89845635D01*
X160055095Y-89615517D01*
X160080000Y-89555390D01*
X160104905Y-89615517D01*
X160258665Y-89845635D01*
X160454365Y-90041335D01*
X160684483Y-90195095D01*
X160940177Y-90301006D01*
X161211620Y-90355000D01*
X161488380Y-90355000D01*
X161759823Y-90301006D01*
X162015517Y-90195095D01*
X162245635Y-90041335D01*
X162441335Y-89845635D01*
X162595095Y-89615517D01*
X162620000Y-89555390D01*
X162644905Y-89615517D01*
X162798665Y-89845635D01*
X162994365Y-90041335D01*
X163224483Y-90195095D01*
X163480177Y-90301006D01*
X163751620Y-90355000D01*
X164028380Y-90355000D01*
X164299823Y-90301006D01*
X164555517Y-90195095D01*
X164785635Y-90041335D01*
X164981335Y-89845635D01*
X165135095Y-89615517D01*
X165160000Y-89555390D01*
X165184905Y-89615517D01*
X165338665Y-89845635D01*
X165534365Y-90041335D01*
X165764483Y-90195095D01*
X166020177Y-90301006D01*
X166291620Y-90355000D01*
X166568380Y-90355000D01*
X166839823Y-90301006D01*
X167095517Y-90195095D01*
X167325635Y-90041335D01*
X167521335Y-89845635D01*
X167675095Y-89615517D01*
X167700000Y-89555390D01*
X167724905Y-89615517D01*
X167878665Y-89845635D01*
X168074365Y-90041335D01*
X168304483Y-90195095D01*
X168560177Y-90301006D01*
X168831620Y-90355000D01*
X169108380Y-90355000D01*
X169379823Y-90301006D01*
X169635517Y-90195095D01*
X169865635Y-90041335D01*
X170061335Y-89845635D01*
X170215095Y-89615517D01*
X170240000Y-89555390D01*
X170264905Y-89615517D01*
X170418665Y-89845635D01*
X170614365Y-90041335D01*
X170844483Y-90195095D01*
X171100177Y-90301006D01*
X171371620Y-90355000D01*
X171648380Y-90355000D01*
X171919823Y-90301006D01*
X172175517Y-90195095D01*
X172405635Y-90041335D01*
X172601335Y-89845635D01*
X172755095Y-89615517D01*
X172780000Y-89555390D01*
X172804905Y-89615517D01*
X172958665Y-89845635D01*
X173154365Y-90041335D01*
X173384483Y-90195095D01*
X173536592Y-90258100D01*
X173384483Y-90321105D01*
X173154365Y-90474865D01*
X172958665Y-90670565D01*
X172804905Y-90900683D01*
X172698994Y-91156377D01*
X172645000Y-91427820D01*
X172645000Y-91704580D01*
X172698994Y-91976023D01*
X172804905Y-92231717D01*
X172958665Y-92461835D01*
X173154365Y-92657535D01*
X173384483Y-92811295D01*
X173444610Y-92836200D01*
X173384483Y-92861105D01*
X173154365Y-93014865D01*
X172958665Y-93210565D01*
X172804905Y-93440683D01*
X172698994Y-93696377D01*
X172645000Y-93967820D01*
X172645000Y-94244580D01*
X172698994Y-94516023D01*
X172804905Y-94771717D01*
X172958665Y-95001835D01*
X173154365Y-95197535D01*
X173384483Y-95351295D01*
X173444610Y-95376200D01*
X173384483Y-95401105D01*
X173154365Y-95554865D01*
X172958665Y-95750565D01*
X172804905Y-95980683D01*
X172698994Y-96236377D01*
X172645000Y-96507820D01*
X172645000Y-96784580D01*
X172649995Y-96809691D01*
X172534413Y-96786700D01*
X172346787Y-96786700D01*
X172162766Y-96823304D01*
X171989422Y-96895105D01*
X171833416Y-96999345D01*
X171700745Y-97132016D01*
X171596505Y-97288022D01*
X171524704Y-97461366D01*
X171488100Y-97645387D01*
X171488100Y-97781200D01*
X171371620Y-97781200D01*
X171100177Y-97835194D01*
X170844483Y-97941105D01*
X170614365Y-98094865D01*
X170418665Y-98290565D01*
X170264905Y-98520683D01*
X170158994Y-98776377D01*
X170105000Y-99047820D01*
X170105000Y-99324580D01*
X170158994Y-99596023D01*
X170264905Y-99851717D01*
X170418665Y-100081835D01*
X170614365Y-100277535D01*
X170844483Y-100431295D01*
X171100177Y-100537206D01*
X171371620Y-100591200D01*
X171648380Y-100591200D01*
X171919823Y-100537206D01*
X172175517Y-100431295D01*
X172405635Y-100277535D01*
X172601335Y-100081835D01*
X172755095Y-99851717D01*
X172780000Y-99791590D01*
X172804905Y-99851717D01*
X172958665Y-100081835D01*
X173154365Y-100277535D01*
X173384483Y-100431295D01*
X173640177Y-100537206D01*
X173911620Y-100591200D01*
X174188380Y-100591200D01*
X174459823Y-100537206D01*
X174715517Y-100431295D01*
X174945635Y-100277535D01*
X175141335Y-100081835D01*
X175295095Y-99851717D01*
X175401006Y-99596023D01*
X175455000Y-99324580D01*
X175455000Y-99047820D01*
X175401006Y-98776377D01*
X175295095Y-98520683D01*
X175141335Y-98290565D01*
X174945635Y-98094865D01*
X174715517Y-97941105D01*
X174655390Y-97916200D01*
X174715517Y-97891295D01*
X174945635Y-97737535D01*
X175141335Y-97541835D01*
X175295095Y-97311717D01*
X175401006Y-97056023D01*
X175455000Y-96784580D01*
X175455000Y-96507820D01*
X175401006Y-96236377D01*
X175295095Y-95980683D01*
X175141335Y-95750565D01*
X174945635Y-95554865D01*
X174715517Y-95401105D01*
X174655390Y-95376200D01*
X174715517Y-95351295D01*
X174945635Y-95197535D01*
X175141335Y-95001835D01*
X175295095Y-94771717D01*
X175401006Y-94516023D01*
X175455000Y-94244580D01*
X175455000Y-93967820D01*
X175401006Y-93696377D01*
X175295095Y-93440683D01*
X175141335Y-93210565D01*
X174945635Y-93014865D01*
X174715517Y-92861105D01*
X174655390Y-92836200D01*
X174715517Y-92811295D01*
X174945635Y-92657535D01*
X175141335Y-92461835D01*
X175295095Y-92231717D01*
X175401006Y-91976023D01*
X175455000Y-91704580D01*
X175455000Y-91427820D01*
X175401006Y-91156377D01*
X175295095Y-90900683D01*
X175141335Y-90670565D01*
X174945635Y-90474865D01*
X174715517Y-90321105D01*
X174563408Y-90258100D01*
X174715517Y-90195095D01*
X174945635Y-90041335D01*
X175141335Y-89845635D01*
X175295095Y-89615517D01*
X175401006Y-89359823D01*
X175455000Y-89088380D01*
X175455000Y-88811620D01*
X175401006Y-88540177D01*
X175295095Y-88284483D01*
X175141335Y-88054365D01*
X174945635Y-87858665D01*
X174715517Y-87704905D01*
X174459823Y-87598994D01*
X174188380Y-87545000D01*
X173911620Y-87545000D01*
X173640177Y-87598994D01*
X173384483Y-87704905D01*
X173154365Y-87858665D01*
X172958665Y-88054365D01*
X172804905Y-88284483D01*
X172780000Y-88344610D01*
X172755095Y-88284483D01*
X172601335Y-88054365D01*
X172405635Y-87858665D01*
X172175517Y-87704905D01*
X171919823Y-87598994D01*
X171648380Y-87545000D01*
X171371620Y-87545000D01*
X171100177Y-87598994D01*
X170844483Y-87704905D01*
X170614365Y-87858665D01*
X170418665Y-88054365D01*
X170264905Y-88284483D01*
X170240000Y-88344610D01*
X170215095Y-88284483D01*
X170061335Y-88054365D01*
X169865635Y-87858665D01*
X169635517Y-87704905D01*
X169379823Y-87598994D01*
X169108380Y-87545000D01*
X168831620Y-87545000D01*
X168560177Y-87598994D01*
X168304483Y-87704905D01*
X168074365Y-87858665D01*
X167878665Y-88054365D01*
X167724905Y-88284483D01*
X167700000Y-88344610D01*
X167675095Y-88284483D01*
X167521335Y-88054365D01*
X167325635Y-87858665D01*
X167095517Y-87704905D01*
X166839823Y-87598994D01*
X166568380Y-87545000D01*
X166291620Y-87545000D01*
X166020177Y-87598994D01*
X165764483Y-87704905D01*
X165534365Y-87858665D01*
X165338665Y-88054365D01*
X165184905Y-88284483D01*
X165160000Y-88344610D01*
X165135095Y-88284483D01*
X164981335Y-88054365D01*
X164785635Y-87858665D01*
X164555517Y-87704905D01*
X164299823Y-87598994D01*
X164028380Y-87545000D01*
X163751620Y-87545000D01*
X163480177Y-87598994D01*
X163224483Y-87704905D01*
X162994365Y-87858665D01*
X162798665Y-88054365D01*
X162644905Y-88284483D01*
X162620000Y-88344610D01*
X162595095Y-88284483D01*
X162441335Y-88054365D01*
X162245635Y-87858665D01*
X162015517Y-87704905D01*
X161759823Y-87598994D01*
X161488380Y-87545000D01*
X161211620Y-87545000D01*
X160940177Y-87598994D01*
X160684483Y-87704905D01*
X160454365Y-87858665D01*
X160258665Y-88054365D01*
X160104905Y-88284483D01*
X160080000Y-88344610D01*
X160055095Y-88284483D01*
X159901335Y-88054365D01*
X159705635Y-87858665D01*
X159475517Y-87704905D01*
X159219823Y-87598994D01*
X158948380Y-87545000D01*
X158671620Y-87545000D01*
X158400177Y-87598994D01*
X158144483Y-87704905D01*
X157914365Y-87858665D01*
X157718665Y-88054365D01*
X157564905Y-88284483D01*
X157540000Y-88344610D01*
X157515095Y-88284483D01*
X157361335Y-88054365D01*
X157165635Y-87858665D01*
X156935517Y-87704905D01*
X156679823Y-87598994D01*
X156408380Y-87545000D01*
X156131620Y-87545000D01*
X155860177Y-87598994D01*
X155604483Y-87704905D01*
X155374365Y-87858665D01*
X155178665Y-88054365D01*
X155024905Y-88284483D01*
X155000000Y-88344610D01*
X154975095Y-88284483D01*
X154821335Y-88054365D01*
X154625635Y-87858665D01*
X154395517Y-87704905D01*
X154139823Y-87598994D01*
X153868380Y-87545000D01*
X153591620Y-87545000D01*
X153320177Y-87598994D01*
X153064483Y-87704905D01*
X152834365Y-87858665D01*
X152638665Y-88054365D01*
X152484905Y-88284483D01*
X152460000Y-88344610D01*
X152435095Y-88284483D01*
X152281335Y-88054365D01*
X152085635Y-87858665D01*
X151855517Y-87704905D01*
X151599823Y-87598994D01*
X151328380Y-87545000D01*
X151051620Y-87545000D01*
X150780177Y-87598994D01*
X150524483Y-87704905D01*
X150294365Y-87858665D01*
X150098665Y-88054365D01*
X149944905Y-88284483D01*
X149920000Y-88344610D01*
X149895095Y-88284483D01*
X149741335Y-88054365D01*
X149545635Y-87858665D01*
X149315517Y-87704905D01*
X149059823Y-87598994D01*
X148788380Y-87545000D01*
X148511620Y-87545000D01*
X148240177Y-87598994D01*
X147984483Y-87704905D01*
X147754365Y-87858665D01*
X147558665Y-88054365D01*
X147404905Y-88284483D01*
X147380000Y-88344610D01*
X147355095Y-88284483D01*
X147201335Y-88054365D01*
X147005635Y-87858665D01*
X146775517Y-87704905D01*
X146519823Y-87598994D01*
X146248380Y-87545000D01*
X145971620Y-87545000D01*
X145700177Y-87598994D01*
X145444483Y-87704905D01*
X145214365Y-87858665D01*
X145018665Y-88054365D01*
X144864905Y-88284483D01*
X144840000Y-88344610D01*
X144815095Y-88284483D01*
X144661335Y-88054365D01*
X144465635Y-87858665D01*
X144235517Y-87704905D01*
X143979823Y-87598994D01*
X143708380Y-87545000D01*
X143431620Y-87545000D01*
X143160177Y-87598994D01*
X142904483Y-87704905D01*
X142674365Y-87858665D01*
X142478665Y-88054365D01*
X142324905Y-88284483D01*
X142302374Y-88338878D01*
X142242187Y-88226276D01*
X142001278Y-88158327D01*
X141209605Y-88950000D01*
X140850395Y-88950000D01*
X140058722Y-88158327D01*
X139817813Y-88226276D01*
X139760980Y-88346976D01*
X139735095Y-88284483D01*
X139581335Y-88054365D01*
X139505692Y-87978722D01*
X140238327Y-87978722D01*
X141030000Y-88770395D01*
X141821673Y-87978722D01*
X141753724Y-87737813D01*
X141503332Y-87619913D01*
X141234750Y-87553128D01*
X140958299Y-87540023D01*
X140684605Y-87581104D01*
X140424183Y-87674790D01*
X140306276Y-87737813D01*
X140238327Y-87978722D01*
X139505692Y-87978722D01*
X139385635Y-87858665D01*
X139155517Y-87704905D01*
X138899823Y-87598994D01*
X138628380Y-87545000D01*
X138351620Y-87545000D01*
X138080177Y-87598994D01*
X137824483Y-87704905D01*
X137594365Y-87858665D01*
X137398665Y-88054365D01*
X137244905Y-88284483D01*
X137220000Y-88344610D01*
X137195095Y-88284483D01*
X137041335Y-88054365D01*
X136845635Y-87858665D01*
X136615517Y-87704905D01*
X136359823Y-87598994D01*
X136088380Y-87545000D01*
X135811620Y-87545000D01*
X135540177Y-87598994D01*
X135284483Y-87704905D01*
X135054365Y-87858665D01*
X134858665Y-88054365D01*
X134704905Y-88284483D01*
X134598994Y-88540177D01*
X134545000Y-88811620D01*
X133160000Y-88811620D01*
X133160000Y-88072279D01*
X133198909Y-87675455D01*
X133304780Y-87324792D01*
X133476744Y-87001375D01*
X133708254Y-86717516D01*
X133990486Y-86484035D01*
X134312695Y-86309817D01*
X134662614Y-86201498D01*
X135057443Y-86160000D01*
X174927721Y-86160000D01*
X175324545Y-86198909D01*
G37*
X175324545Y-86198909D02*
X175675208Y-86304780D01*
X175998625Y-86476744D01*
X176282484Y-86708254D01*
X176515965Y-86990486D01*
X176690183Y-87312695D01*
X176798502Y-87662614D01*
X176840000Y-88057443D01*
X176840000Y-102602017D01*
X176826618Y-102495773D01*
X176707988Y-102139765D01*
X176579871Y-101900076D01*
X176287852Y-101771753D01*
X175139605Y-102920000D01*
X176287852Y-104068247D01*
X176579871Y-103939924D01*
X176747723Y-103604305D01*
X176840000Y-103267479D01*
X176840001Y-112762019D01*
X176826618Y-112655773D01*
X176707988Y-112299765D01*
X176579871Y-112060076D01*
X176287852Y-111931753D01*
X175139605Y-113080000D01*
X176287852Y-114228247D01*
X176579871Y-114099924D01*
X176747723Y-113764305D01*
X176840001Y-113427478D01*
X176840001Y-127927711D01*
X176801091Y-128324545D01*
X176695220Y-128675206D01*
X176523257Y-128998623D01*
X176291748Y-129282482D01*
X176009514Y-129515965D01*
X175687304Y-129690184D01*
X175337385Y-129798502D01*
X174942557Y-129840000D01*
X135072279Y-129840000D01*
X134675455Y-129801091D01*
X134324794Y-129695220D01*
X134001377Y-129523257D01*
X133717518Y-129291748D01*
X133484035Y-129009514D01*
X133309816Y-128687304D01*
X133201498Y-128337385D01*
X133160000Y-127942557D01*
X133160000Y-121831620D01*
X134545000Y-121831620D01*
X134545000Y-122108380D01*
X134598994Y-122379823D01*
X134704905Y-122635517D01*
X134858665Y-122865635D01*
X135054365Y-123061335D01*
X135284483Y-123215095D01*
X135344610Y-123240000D01*
X135284483Y-123264905D01*
X135054365Y-123418665D01*
X134858665Y-123614365D01*
X134704905Y-123844483D01*
X134598994Y-124100177D01*
X134545000Y-124371620D01*
X134545000Y-124648380D01*
X134598994Y-124919823D01*
X134704905Y-125175517D01*
X134858665Y-125405635D01*
X135054365Y-125601335D01*
X135284483Y-125755095D01*
X135344610Y-125780000D01*
X135284483Y-125804905D01*
X135054365Y-125958665D01*
X134858665Y-126154365D01*
X134704905Y-126384483D01*
X134598994Y-126640177D01*
X134545000Y-126911620D01*
X134545000Y-127188380D01*
X134598994Y-127459823D01*
X134704905Y-127715517D01*
X134858665Y-127945635D01*
X135054365Y-128141335D01*
X135284483Y-128295095D01*
X135540177Y-128401006D01*
X135811620Y-128455000D01*
X136088380Y-128455000D01*
X136359823Y-128401006D01*
X136615517Y-128295095D01*
X136845635Y-128141335D01*
X137041335Y-127945635D01*
X137195095Y-127715517D01*
X137220000Y-127655390D01*
X137244905Y-127715517D01*
X137398665Y-127945635D01*
X137594365Y-128141335D01*
X137824483Y-128295095D01*
X138080177Y-128401006D01*
X138351620Y-128455000D01*
X138628380Y-128455000D01*
X138899823Y-128401006D01*
X139155517Y-128295095D01*
X139385635Y-128141335D01*
X139581335Y-127945635D01*
X139735095Y-127715517D01*
X139760000Y-127655390D01*
X139784905Y-127715517D01*
X139938665Y-127945635D01*
X140134365Y-128141335D01*
X140364483Y-128295095D01*
X140620177Y-128401006D01*
X140891620Y-128455000D01*
X141168380Y-128455000D01*
X141439823Y-128401006D01*
X141695517Y-128295095D01*
X141925635Y-128141335D01*
X142121335Y-127945635D01*
X142275095Y-127715517D01*
X142300000Y-127655390D01*
X142324905Y-127715517D01*
X142478665Y-127945635D01*
X142674365Y-128141335D01*
X142904483Y-128295095D01*
X143160177Y-128401006D01*
X143431620Y-128455000D01*
X143708380Y-128455000D01*
X143979823Y-128401006D01*
X144235517Y-128295095D01*
X144465635Y-128141335D01*
X144661335Y-127945635D01*
X144815095Y-127715517D01*
X144840000Y-127655390D01*
X144864905Y-127715517D01*
X145018665Y-127945635D01*
X145214365Y-128141335D01*
X145444483Y-128295095D01*
X145700177Y-128401006D01*
X145971620Y-128455000D01*
X146248380Y-128455000D01*
X146519823Y-128401006D01*
X146775517Y-128295095D01*
X147005635Y-128141335D01*
X147201335Y-127945635D01*
X147355095Y-127715517D01*
X147380000Y-127655390D01*
X147404905Y-127715517D01*
X147558665Y-127945635D01*
X147754365Y-128141335D01*
X147984483Y-128295095D01*
X148240177Y-128401006D01*
X148511620Y-128455000D01*
X148788380Y-128455000D01*
X149059823Y-128401006D01*
X149315517Y-128295095D01*
X149545635Y-128141335D01*
X149741335Y-127945635D01*
X149895095Y-127715517D01*
X149920000Y-127655390D01*
X149944905Y-127715517D01*
X150098665Y-127945635D01*
X150294365Y-128141335D01*
X150524483Y-128295095D01*
X150780177Y-128401006D01*
X151051620Y-128455000D01*
X151328380Y-128455000D01*
X151599823Y-128401006D01*
X151855517Y-128295095D01*
X152085635Y-128141335D01*
X152281335Y-127945635D01*
X152435095Y-127715517D01*
X152460000Y-127655390D01*
X152484905Y-127715517D01*
X152638665Y-127945635D01*
X152834365Y-128141335D01*
X153064483Y-128295095D01*
X153320177Y-128401006D01*
X153591620Y-128455000D01*
X153868380Y-128455000D01*
X154139823Y-128401006D01*
X154395517Y-128295095D01*
X154625635Y-128141335D01*
X154821335Y-127945635D01*
X154975095Y-127715517D01*
X155000000Y-127655390D01*
X155024905Y-127715517D01*
X155178665Y-127945635D01*
X155374365Y-128141335D01*
X155604483Y-128295095D01*
X155860177Y-128401006D01*
X156131620Y-128455000D01*
X156408380Y-128455000D01*
X156679823Y-128401006D01*
X156935517Y-128295095D01*
X157165635Y-128141335D01*
X157361335Y-127945635D01*
X157515095Y-127715517D01*
X157540000Y-127655390D01*
X157564905Y-127715517D01*
X157718665Y-127945635D01*
X157914365Y-128141335D01*
X158144483Y-128295095D01*
X158400177Y-128401006D01*
X158671620Y-128455000D01*
X158948380Y-128455000D01*
X159219823Y-128401006D01*
X159475517Y-128295095D01*
X159705635Y-128141335D01*
X159901335Y-127945635D01*
X160055095Y-127715517D01*
X160080000Y-127655390D01*
X160104905Y-127715517D01*
X160258665Y-127945635D01*
X160454365Y-128141335D01*
X160684483Y-128295095D01*
X160940177Y-128401006D01*
X161211620Y-128455000D01*
X161488380Y-128455000D01*
X161759823Y-128401006D01*
X162015517Y-128295095D01*
X162245635Y-128141335D01*
X162441335Y-127945635D01*
X162595095Y-127715517D01*
X162620000Y-127655390D01*
X162644905Y-127715517D01*
X162798665Y-127945635D01*
X162994365Y-128141335D01*
X163224483Y-128295095D01*
X163480177Y-128401006D01*
X163751620Y-128455000D01*
X164028380Y-128455000D01*
X164299823Y-128401006D01*
X164555517Y-128295095D01*
X164785635Y-128141335D01*
X164981335Y-127945635D01*
X165135095Y-127715517D01*
X165160000Y-127655390D01*
X165184905Y-127715517D01*
X165338665Y-127945635D01*
X165534365Y-128141335D01*
X165764483Y-128295095D01*
X166020177Y-128401006D01*
X166291620Y-128455000D01*
X166568380Y-128455000D01*
X166839823Y-128401006D01*
X167095517Y-128295095D01*
X167325635Y-128141335D01*
X167521335Y-127945635D01*
X167675095Y-127715517D01*
X167700000Y-127655390D01*
X167724905Y-127715517D01*
X167878665Y-127945635D01*
X168074365Y-128141335D01*
X168304483Y-128295095D01*
X168560177Y-128401006D01*
X168831620Y-128455000D01*
X169108380Y-128455000D01*
X169379823Y-128401006D01*
X169635517Y-128295095D01*
X169865635Y-128141335D01*
X170061335Y-127945635D01*
X170215095Y-127715517D01*
X170240000Y-127655390D01*
X170264905Y-127715517D01*
X170418665Y-127945635D01*
X170614365Y-128141335D01*
X170844483Y-128295095D01*
X171100177Y-128401006D01*
X171371620Y-128455000D01*
X171648380Y-128455000D01*
X171919823Y-128401006D01*
X172175517Y-128295095D01*
X172405635Y-128141335D01*
X172601335Y-127945635D01*
X172755095Y-127715517D01*
X172780000Y-127655390D01*
X172804905Y-127715517D01*
X172958665Y-127945635D01*
X173154365Y-128141335D01*
X173384483Y-128295095D01*
X173640177Y-128401006D01*
X173911620Y-128455000D01*
X174188380Y-128455000D01*
X174459823Y-128401006D01*
X174715517Y-128295095D01*
X174945635Y-128141335D01*
X175141335Y-127945635D01*
X175295095Y-127715517D01*
X175401006Y-127459823D01*
X175455000Y-127188380D01*
X175455000Y-126911620D01*
X175401006Y-126640177D01*
X175295095Y-126384483D01*
X175141335Y-126154365D01*
X174945635Y-125958665D01*
X174715517Y-125804905D01*
X174655149Y-125779900D01*
X174715517Y-125754895D01*
X174945635Y-125601135D01*
X175141335Y-125405435D01*
X175295095Y-125175317D01*
X175401006Y-124919623D01*
X175455000Y-124648180D01*
X175455000Y-124371420D01*
X175401006Y-124099977D01*
X175295095Y-123844283D01*
X175141335Y-123614165D01*
X174945635Y-123418465D01*
X174715517Y-123264705D01*
X174655390Y-123239800D01*
X174715517Y-123214895D01*
X174945635Y-123061135D01*
X175141335Y-122865435D01*
X175295095Y-122635317D01*
X175401006Y-122379623D01*
X175455000Y-122108180D01*
X175455000Y-121831420D01*
X175401006Y-121559977D01*
X175295095Y-121304283D01*
X175141335Y-121074165D01*
X174945635Y-120878465D01*
X174715517Y-120724705D01*
X174661122Y-120702174D01*
X174773724Y-120641987D01*
X174841673Y-120401078D01*
X174050000Y-119609405D01*
X173258327Y-120401078D01*
X173326276Y-120641987D01*
X173446976Y-120698820D01*
X173384483Y-120724705D01*
X173154365Y-120878465D01*
X172958665Y-121074165D01*
X172804905Y-121304283D01*
X172698994Y-121559977D01*
X172645000Y-121831420D01*
X172645000Y-122108180D01*
X172698994Y-122379623D01*
X172804905Y-122635317D01*
X172958665Y-122865435D01*
X173154365Y-123061135D01*
X173384483Y-123214895D01*
X173444610Y-123239800D01*
X173384483Y-123264705D01*
X173154365Y-123418465D01*
X172958665Y-123614165D01*
X172804905Y-123844283D01*
X172698994Y-124099977D01*
X172645000Y-124371420D01*
X172645000Y-124648180D01*
X172698994Y-124919623D01*
X172804905Y-125175317D01*
X172958665Y-125405435D01*
X173154365Y-125601135D01*
X173384483Y-125754895D01*
X173444851Y-125779900D01*
X173384483Y-125804905D01*
X173154365Y-125958665D01*
X172958665Y-126154365D01*
X172804905Y-126384483D01*
X172780000Y-126444610D01*
X172755095Y-126384483D01*
X172601335Y-126154365D01*
X172405635Y-125958665D01*
X172175517Y-125804905D01*
X171919823Y-125698994D01*
X171648380Y-125645000D01*
X171371620Y-125645000D01*
X171100177Y-125698994D01*
X170844483Y-125804905D01*
X170614365Y-125958665D01*
X170418665Y-126154365D01*
X170264905Y-126384483D01*
X170240000Y-126444610D01*
X170215095Y-126384483D01*
X170061335Y-126154365D01*
X169865635Y-125958665D01*
X169635517Y-125804905D01*
X169379823Y-125698994D01*
X169108380Y-125645000D01*
X168831620Y-125645000D01*
X168560177Y-125698994D01*
X168304483Y-125804905D01*
X168074365Y-125958665D01*
X167878665Y-126154365D01*
X167724905Y-126384483D01*
X167700000Y-126444610D01*
X167675095Y-126384483D01*
X167521335Y-126154365D01*
X167325635Y-125958665D01*
X167095517Y-125804905D01*
X166839823Y-125698994D01*
X166568380Y-125645000D01*
X166291620Y-125645000D01*
X166020177Y-125698994D01*
X165764483Y-125804905D01*
X165534365Y-125958665D01*
X165338665Y-126154365D01*
X165184905Y-126384483D01*
X165160000Y-126444610D01*
X165135095Y-126384483D01*
X164981335Y-126154365D01*
X164785635Y-125958665D01*
X164555517Y-125804905D01*
X164299823Y-125698994D01*
X164028380Y-125645000D01*
X163751620Y-125645000D01*
X163480177Y-125698994D01*
X163224483Y-125804905D01*
X162994365Y-125958665D01*
X162798665Y-126154365D01*
X162644905Y-126384483D01*
X162620000Y-126444610D01*
X162595095Y-126384483D01*
X162441335Y-126154365D01*
X162245635Y-125958665D01*
X162015517Y-125804905D01*
X161759823Y-125698994D01*
X161488380Y-125645000D01*
X161211620Y-125645000D01*
X160940177Y-125698994D01*
X160684483Y-125804905D01*
X160454365Y-125958665D01*
X160258665Y-126154365D01*
X160104905Y-126384483D01*
X160080000Y-126444610D01*
X160055095Y-126384483D01*
X159901335Y-126154365D01*
X159705635Y-125958665D01*
X159475517Y-125804905D01*
X159219823Y-125698994D01*
X158948380Y-125645000D01*
X158671620Y-125645000D01*
X158400177Y-125698994D01*
X158144483Y-125804905D01*
X157914365Y-125958665D01*
X157718665Y-126154365D01*
X157564905Y-126384483D01*
X157540000Y-126444610D01*
X157515095Y-126384483D01*
X157361335Y-126154365D01*
X157165635Y-125958665D01*
X156935517Y-125804905D01*
X156679823Y-125698994D01*
X156408380Y-125645000D01*
X156131620Y-125645000D01*
X155860177Y-125698994D01*
X155604483Y-125804905D01*
X155374365Y-125958665D01*
X155178665Y-126154365D01*
X155024905Y-126384483D01*
X155000000Y-126444610D01*
X154975095Y-126384483D01*
X154821335Y-126154365D01*
X154625635Y-125958665D01*
X154395517Y-125804905D01*
X154139823Y-125698994D01*
X153868380Y-125645000D01*
X153591620Y-125645000D01*
X153320177Y-125698994D01*
X153064483Y-125804905D01*
X152834365Y-125958665D01*
X152638665Y-126154365D01*
X152484905Y-126384483D01*
X152460000Y-126444610D01*
X152435095Y-126384483D01*
X152281335Y-126154365D01*
X152085635Y-125958665D01*
X151855517Y-125804905D01*
X151599823Y-125698994D01*
X151328380Y-125645000D01*
X151051620Y-125645000D01*
X150780177Y-125698994D01*
X150524483Y-125804905D01*
X150294365Y-125958665D01*
X150098665Y-126154365D01*
X149944905Y-126384483D01*
X149920000Y-126444610D01*
X149895095Y-126384483D01*
X149741335Y-126154365D01*
X149545635Y-125958665D01*
X149315517Y-125804905D01*
X149059823Y-125698994D01*
X148788380Y-125645000D01*
X148511620Y-125645000D01*
X148240177Y-125698994D01*
X147984483Y-125804905D01*
X147754365Y-125958665D01*
X147558665Y-126154365D01*
X147404905Y-126384483D01*
X147380000Y-126444610D01*
X147355095Y-126384483D01*
X147201335Y-126154365D01*
X147005635Y-125958665D01*
X146775517Y-125804905D01*
X146519823Y-125698994D01*
X146248380Y-125645000D01*
X145971620Y-125645000D01*
X145700177Y-125698994D01*
X145444483Y-125804905D01*
X145214365Y-125958665D01*
X145018665Y-126154365D01*
X144864905Y-126384483D01*
X144840000Y-126444610D01*
X144815095Y-126384483D01*
X144661335Y-126154365D01*
X144465635Y-125958665D01*
X144235517Y-125804905D01*
X143979823Y-125698994D01*
X143708380Y-125645000D01*
X143431620Y-125645000D01*
X143160177Y-125698994D01*
X142904483Y-125804905D01*
X142674365Y-125958665D01*
X142478665Y-126154365D01*
X142324905Y-126384483D01*
X142300000Y-126444610D01*
X142275095Y-126384483D01*
X142121335Y-126154365D01*
X141925635Y-125958665D01*
X141695517Y-125804905D01*
X141439823Y-125698994D01*
X141168380Y-125645000D01*
X140891620Y-125645000D01*
X140620177Y-125698994D01*
X140364483Y-125804905D01*
X140134365Y-125958665D01*
X139938665Y-126154365D01*
X139784905Y-126384483D01*
X139760000Y-126444610D01*
X139735095Y-126384483D01*
X139581335Y-126154365D01*
X139385635Y-125958665D01*
X139155517Y-125804905D01*
X138899823Y-125698994D01*
X138628380Y-125645000D01*
X138351620Y-125645000D01*
X138080177Y-125698994D01*
X137824483Y-125804905D01*
X137594365Y-125958665D01*
X137398665Y-126154365D01*
X137244905Y-126384483D01*
X137220000Y-126444610D01*
X137195095Y-126384483D01*
X137041335Y-126154365D01*
X136845635Y-125958665D01*
X136615517Y-125804905D01*
X136555390Y-125780000D01*
X136615517Y-125755095D01*
X136845635Y-125601335D01*
X137041335Y-125405635D01*
X137195095Y-125175517D01*
X137301006Y-124919823D01*
X137355000Y-124648380D01*
X137355000Y-124371620D01*
X137301006Y-124100177D01*
X137195095Y-123844483D01*
X137041335Y-123614365D01*
X136845635Y-123418665D01*
X136615517Y-123264905D01*
X136555390Y-123240000D01*
X136615517Y-123215095D01*
X136641420Y-123197787D01*
X165544500Y-123197787D01*
X165544500Y-123385413D01*
X165581104Y-123569434D01*
X165652905Y-123742778D01*
X165757145Y-123898784D01*
X165889816Y-124031455D01*
X166045822Y-124135695D01*
X166219166Y-124207496D01*
X166403187Y-124244100D01*
X166590813Y-124244100D01*
X166774834Y-124207496D01*
X166948178Y-124135695D01*
X167104184Y-124031455D01*
X167236855Y-123898784D01*
X167341095Y-123742778D01*
X167412896Y-123569434D01*
X167449500Y-123385413D01*
X167449500Y-123223187D01*
X167957500Y-123223187D01*
X167957500Y-123410813D01*
X167994104Y-123594834D01*
X168065905Y-123768178D01*
X168170145Y-123924184D01*
X168302816Y-124056855D01*
X168458822Y-124161095D01*
X168632166Y-124232896D01*
X168816187Y-124269500D01*
X169003813Y-124269500D01*
X169187834Y-124232896D01*
X169361178Y-124161095D01*
X169517184Y-124056855D01*
X169649855Y-123924184D01*
X169754095Y-123768178D01*
X169825896Y-123594834D01*
X169862500Y-123410813D01*
X169862500Y-123223187D01*
X169825896Y-123039166D01*
X169754095Y-122865822D01*
X169649855Y-122709816D01*
X169517184Y-122577145D01*
X169361178Y-122472905D01*
X169187834Y-122401104D01*
X169003813Y-122364500D01*
X168816187Y-122364500D01*
X168632166Y-122401104D01*
X168458822Y-122472905D01*
X168302816Y-122577145D01*
X168170145Y-122709816D01*
X168065905Y-122865822D01*
X167994104Y-123039166D01*
X167957500Y-123223187D01*
X167449500Y-123223187D01*
X167449500Y-123197787D01*
X167412896Y-123013766D01*
X167387875Y-122953360D01*
X167408984Y-122939255D01*
X167541655Y-122806584D01*
X167645895Y-122650578D01*
X167717696Y-122477234D01*
X167754300Y-122293213D01*
X167754300Y-122105587D01*
X167717696Y-121921566D01*
X167650090Y-121758349D01*
X167694055Y-121714384D01*
X167798295Y-121558378D01*
X167870096Y-121385034D01*
X167906700Y-121201013D01*
X167906700Y-121013387D01*
X167870096Y-120829366D01*
X167798295Y-120656022D01*
X167694055Y-120500016D01*
X167561384Y-120367345D01*
X167405378Y-120263105D01*
X167232034Y-120191304D01*
X167048013Y-120154700D01*
X166860387Y-120154700D01*
X166676366Y-120191304D01*
X166503022Y-120263105D01*
X166347016Y-120367345D01*
X166214345Y-120500016D01*
X166110105Y-120656022D01*
X166038304Y-120829366D01*
X166001700Y-121013387D01*
X166001700Y-121201013D01*
X166038304Y-121385034D01*
X166105910Y-121548251D01*
X166061945Y-121592216D01*
X165957705Y-121748222D01*
X165885904Y-121921566D01*
X165849300Y-122105587D01*
X165849300Y-122293213D01*
X165885904Y-122477234D01*
X165910925Y-122537640D01*
X165889816Y-122551745D01*
X165757145Y-122684416D01*
X165652905Y-122840422D01*
X165581104Y-123013766D01*
X165544500Y-123197787D01*
X136641420Y-123197787D01*
X136845635Y-123061335D01*
X137041335Y-122865635D01*
X137195095Y-122635517D01*
X137301006Y-122379823D01*
X137355000Y-122108380D01*
X137355000Y-121831620D01*
X137301006Y-121560177D01*
X137195095Y-121304483D01*
X137041335Y-121074365D01*
X136845635Y-120878665D01*
X136615517Y-120724905D01*
X136561122Y-120702374D01*
X136673724Y-120642187D01*
X136712308Y-120505387D01*
X162445700Y-120505387D01*
X162445700Y-120693013D01*
X162482304Y-120877034D01*
X162553518Y-121048961D01*
X162507704Y-121159566D01*
X162471100Y-121343587D01*
X162471100Y-121531213D01*
X162507704Y-121715234D01*
X162579505Y-121888578D01*
X162683745Y-122044584D01*
X162816416Y-122177255D01*
X162972422Y-122281495D01*
X163145766Y-122353296D01*
X163329787Y-122389900D01*
X163517413Y-122389900D01*
X163701434Y-122353296D01*
X163874778Y-122281495D01*
X164030784Y-122177255D01*
X164163455Y-122044584D01*
X164267695Y-121888578D01*
X164339496Y-121715234D01*
X164376100Y-121531213D01*
X164376100Y-121343587D01*
X164339496Y-121159566D01*
X164268282Y-120987639D01*
X164314096Y-120877034D01*
X164350700Y-120693013D01*
X164350700Y-120505387D01*
X164314096Y-120321366D01*
X164242295Y-120148022D01*
X164138055Y-119992016D01*
X164005384Y-119859345D01*
X163849378Y-119755105D01*
X163676034Y-119683304D01*
X163492013Y-119646700D01*
X163304387Y-119646700D01*
X163120366Y-119683304D01*
X162947022Y-119755105D01*
X162791016Y-119859345D01*
X162658345Y-119992016D01*
X162554105Y-120148022D01*
X162482304Y-120321366D01*
X162445700Y-120505387D01*
X136712308Y-120505387D01*
X136741673Y-120401278D01*
X135950000Y-119609605D01*
X135158327Y-120401278D01*
X135226276Y-120642187D01*
X135346976Y-120699020D01*
X135284483Y-120724905D01*
X135054365Y-120878665D01*
X134858665Y-121074365D01*
X134704905Y-121304483D01*
X134598994Y-121560177D01*
X134545000Y-121831620D01*
X133160000Y-121831620D01*
X133160000Y-119501701D01*
X134540023Y-119501701D01*
X134581104Y-119775395D01*
X134674790Y-120035817D01*
X134737813Y-120153724D01*
X134978722Y-120221673D01*
X135770395Y-119430000D01*
X136129605Y-119430000D01*
X136921278Y-120221673D01*
X137162187Y-120153724D01*
X137280087Y-119903332D01*
X137346872Y-119634750D01*
X137353188Y-119501501D01*
X172640023Y-119501501D01*
X172681104Y-119775195D01*
X172774790Y-120035617D01*
X172837813Y-120153524D01*
X173078722Y-120221473D01*
X173870395Y-119429800D01*
X174229605Y-119429800D01*
X175021278Y-120221473D01*
X175262187Y-120153524D01*
X175380087Y-119903132D01*
X175446872Y-119634550D01*
X175459977Y-119358099D01*
X175418896Y-119084405D01*
X175325210Y-118823983D01*
X175262187Y-118706076D01*
X175021278Y-118638127D01*
X174229605Y-119429800D01*
X173870395Y-119429800D01*
X173078722Y-118638127D01*
X172837813Y-118706076D01*
X172719913Y-118956468D01*
X172653128Y-119225050D01*
X172640023Y-119501501D01*
X137353188Y-119501501D01*
X137359977Y-119358299D01*
X137318896Y-119084605D01*
X137225210Y-118824183D01*
X137162187Y-118706276D01*
X136921278Y-118638327D01*
X136129605Y-119430000D01*
X135770395Y-119430000D01*
X134978722Y-118638327D01*
X134737813Y-118706276D01*
X134619913Y-118956668D01*
X134553128Y-119225250D01*
X134540023Y-119501701D01*
X133160000Y-119501701D01*
X133160000Y-116751620D01*
X134545000Y-116751620D01*
X134545000Y-117028380D01*
X134598994Y-117299823D01*
X134704905Y-117555517D01*
X134858665Y-117785635D01*
X135054365Y-117981335D01*
X135284483Y-118135095D01*
X135338878Y-118157626D01*
X135226276Y-118217813D01*
X135158327Y-118458722D01*
X135950000Y-119250395D01*
X136741673Y-118458722D01*
X136673724Y-118217813D01*
X136553024Y-118160980D01*
X136615517Y-118135095D01*
X136845635Y-117981335D01*
X137041335Y-117785635D01*
X137195095Y-117555517D01*
X137301006Y-117299823D01*
X137355000Y-117028380D01*
X137355000Y-116751620D01*
X137354961Y-116751420D01*
X170105000Y-116751420D01*
X170105000Y-117028180D01*
X170158994Y-117299623D01*
X170264905Y-117555317D01*
X170418665Y-117785435D01*
X170614365Y-117981135D01*
X170844483Y-118134895D01*
X171100177Y-118240806D01*
X171371620Y-118294800D01*
X171648380Y-118294800D01*
X171919823Y-118240806D01*
X172175517Y-118134895D01*
X172405635Y-117981135D01*
X172601335Y-117785435D01*
X172755095Y-117555317D01*
X172780000Y-117495190D01*
X172804905Y-117555317D01*
X172958665Y-117785435D01*
X173154365Y-117981135D01*
X173384483Y-118134895D01*
X173438878Y-118157426D01*
X173326276Y-118217613D01*
X173258327Y-118458522D01*
X174050000Y-119250195D01*
X174841673Y-118458522D01*
X174773724Y-118217613D01*
X174653024Y-118160780D01*
X174715517Y-118134895D01*
X174945635Y-117981135D01*
X175141335Y-117785435D01*
X175295095Y-117555317D01*
X175401006Y-117299623D01*
X175455000Y-117028180D01*
X175455000Y-116751420D01*
X175401006Y-116479977D01*
X175295095Y-116224283D01*
X175141335Y-115994165D01*
X174945635Y-115798465D01*
X174715517Y-115644705D01*
X174459823Y-115538794D01*
X174188380Y-115484800D01*
X173911620Y-115484800D01*
X173640177Y-115538794D01*
X173384483Y-115644705D01*
X173154365Y-115798465D01*
X172958665Y-115994165D01*
X172804905Y-116224283D01*
X172780000Y-116284410D01*
X172755095Y-116224283D01*
X172601335Y-115994165D01*
X172405635Y-115798465D01*
X172175517Y-115644705D01*
X171919823Y-115538794D01*
X171648380Y-115484800D01*
X171371620Y-115484800D01*
X171100177Y-115538794D01*
X170844483Y-115644705D01*
X170614365Y-115798465D01*
X170418665Y-115994165D01*
X170264905Y-116224283D01*
X170158994Y-116479977D01*
X170105000Y-116751420D01*
X137354961Y-116751420D01*
X137301006Y-116480177D01*
X137195095Y-116224483D01*
X137041335Y-115994365D01*
X136845635Y-115798665D01*
X136615517Y-115644905D01*
X136359823Y-115538994D01*
X136088380Y-115485000D01*
X135811620Y-115485000D01*
X135540177Y-115538994D01*
X135284483Y-115644905D01*
X135054365Y-115798665D01*
X134858665Y-115994365D01*
X134704905Y-116224483D01*
X134598994Y-116480177D01*
X134545000Y-116751620D01*
X133160000Y-116751620D01*
X133160000Y-114407852D01*
X133891753Y-114407852D01*
X134020076Y-114699871D01*
X134355695Y-114867723D01*
X134717611Y-114966874D01*
X135091916Y-114993514D01*
X135464227Y-114946618D01*
X135820235Y-114827988D01*
X136059924Y-114699871D01*
X136075956Y-114663387D01*
X164452300Y-114663387D01*
X164452300Y-114851013D01*
X164488904Y-115035034D01*
X164560705Y-115208378D01*
X164664945Y-115364384D01*
X164797616Y-115497055D01*
X164953622Y-115601295D01*
X165126966Y-115673096D01*
X165310987Y-115709700D01*
X165498613Y-115709700D01*
X165682634Y-115673096D01*
X165855978Y-115601295D01*
X166011984Y-115497055D01*
X166144655Y-115364384D01*
X166248895Y-115208378D01*
X166320696Y-115035034D01*
X166357300Y-114851013D01*
X166357300Y-114663387D01*
X166320696Y-114479366D01*
X166291075Y-114407852D01*
X173811753Y-114407852D01*
X173940076Y-114699871D01*
X174275695Y-114867723D01*
X174637611Y-114966874D01*
X175011916Y-114993514D01*
X175384227Y-114946618D01*
X175740235Y-114827988D01*
X175979924Y-114699871D01*
X176108247Y-114407852D01*
X174960000Y-113259605D01*
X173811753Y-114407852D01*
X166291075Y-114407852D01*
X166248895Y-114306022D01*
X166144655Y-114150016D01*
X166011984Y-114017345D01*
X165855978Y-113913105D01*
X165682634Y-113841304D01*
X165498613Y-113804700D01*
X165310987Y-113804700D01*
X165126966Y-113841304D01*
X164953622Y-113913105D01*
X164797616Y-114017345D01*
X164664945Y-114150016D01*
X164560705Y-114306022D01*
X164488904Y-114479366D01*
X164452300Y-114663387D01*
X136075956Y-114663387D01*
X136188247Y-114407852D01*
X135040000Y-113259605D01*
X133891753Y-114407852D01*
X133160000Y-114407852D01*
X133160000Y-113397986D01*
X133173382Y-113504227D01*
X133292012Y-113860235D01*
X133420129Y-114099924D01*
X133712148Y-114228247D01*
X134860395Y-113080000D01*
X135219605Y-113080000D01*
X136367852Y-114228247D01*
X136659871Y-114099924D01*
X136827723Y-113764305D01*
X136926874Y-113402389D01*
X136946124Y-113131916D01*
X173046486Y-113131916D01*
X173093382Y-113504227D01*
X173212012Y-113860235D01*
X173340129Y-114099924D01*
X173632148Y-114228247D01*
X174780395Y-113080000D01*
X173632148Y-111931753D01*
X173340129Y-112060076D01*
X173172277Y-112395695D01*
X173073126Y-112757611D01*
X173046486Y-113131916D01*
X136946124Y-113131916D01*
X136953514Y-113028084D01*
X136906618Y-112655773D01*
X136787988Y-112299765D01*
X136659871Y-112060076D01*
X136367852Y-111931753D01*
X135219605Y-113080000D01*
X134860395Y-113080000D01*
X133712148Y-111931753D01*
X133420129Y-112060076D01*
X133252277Y-112395695D01*
X133160000Y-112732520D01*
X133160000Y-111752148D01*
X133891753Y-111752148D01*
X135040000Y-112900395D01*
X136188247Y-111752148D01*
X173811753Y-111752148D01*
X174960000Y-112900395D01*
X176108247Y-111752148D01*
X175979924Y-111460129D01*
X175644305Y-111292277D01*
X175282389Y-111193126D01*
X174908084Y-111166486D01*
X174535773Y-111213382D01*
X174179765Y-111332012D01*
X173940076Y-111460129D01*
X173811753Y-111752148D01*
X136188247Y-111752148D01*
X136059924Y-111460129D01*
X135724305Y-111292277D01*
X135362389Y-111193126D01*
X134988084Y-111166486D01*
X134615773Y-111213382D01*
X134259765Y-111332012D01*
X134020076Y-111460129D01*
X133891753Y-111752148D01*
X133160000Y-111752148D01*
X133160000Y-109837387D01*
X143979900Y-109837387D01*
X143979900Y-110025013D01*
X144016504Y-110209034D01*
X144088305Y-110382378D01*
X144192545Y-110538384D01*
X144325216Y-110671055D01*
X144481222Y-110775295D01*
X144654566Y-110847096D01*
X144838587Y-110883700D01*
X145026213Y-110883700D01*
X145210234Y-110847096D01*
X145383578Y-110775295D01*
X145539584Y-110671055D01*
X145672255Y-110538384D01*
X145776495Y-110382378D01*
X145848296Y-110209034D01*
X145851487Y-110192987D01*
X149009100Y-110192987D01*
X149009100Y-110380613D01*
X149045704Y-110564634D01*
X149117505Y-110737978D01*
X149221745Y-110893984D01*
X149354416Y-111026655D01*
X149510422Y-111130895D01*
X149683766Y-111202696D01*
X149867787Y-111239300D01*
X150055413Y-111239300D01*
X150239434Y-111202696D01*
X150412778Y-111130895D01*
X150568784Y-111026655D01*
X150701455Y-110893984D01*
X150805695Y-110737978D01*
X150877496Y-110564634D01*
X150914100Y-110380613D01*
X150914100Y-110192987D01*
X150877496Y-110008966D01*
X150805695Y-109835622D01*
X150701455Y-109679616D01*
X150568784Y-109546945D01*
X150412778Y-109442705D01*
X150239434Y-109370904D01*
X150055413Y-109334300D01*
X149867787Y-109334300D01*
X149683766Y-109370904D01*
X149510422Y-109442705D01*
X149354416Y-109546945D01*
X149221745Y-109679616D01*
X149117505Y-109835622D01*
X149045704Y-110008966D01*
X149009100Y-110192987D01*
X145851487Y-110192987D01*
X145884900Y-110025013D01*
X145884900Y-109837387D01*
X145848296Y-109653366D01*
X145776495Y-109480022D01*
X145672255Y-109324016D01*
X145539584Y-109191345D01*
X145383578Y-109087105D01*
X145210234Y-109015304D01*
X145026213Y-108978700D01*
X144838587Y-108978700D01*
X144654566Y-109015304D01*
X144481222Y-109087105D01*
X144325216Y-109191345D01*
X144192545Y-109324016D01*
X144088305Y-109480022D01*
X144016504Y-109653366D01*
X143979900Y-109837387D01*
X133160000Y-109837387D01*
X133160000Y-107779987D01*
X149948900Y-107779987D01*
X149948900Y-107967613D01*
X149985504Y-108151634D01*
X150057305Y-108324978D01*
X150161545Y-108480984D01*
X150294216Y-108613655D01*
X150450222Y-108717895D01*
X150623566Y-108789696D01*
X150807587Y-108826300D01*
X150995213Y-108826300D01*
X151179234Y-108789696D01*
X151352578Y-108717895D01*
X151508584Y-108613655D01*
X151641255Y-108480984D01*
X151745495Y-108324978D01*
X151817296Y-108151634D01*
X151853900Y-107967613D01*
X151853900Y-107779987D01*
X151817296Y-107595966D01*
X151745495Y-107422622D01*
X151641255Y-107266616D01*
X151508584Y-107133945D01*
X151352578Y-107029705D01*
X151179234Y-106957904D01*
X150995213Y-106921300D01*
X150807587Y-106921300D01*
X150623566Y-106957904D01*
X150450222Y-107029705D01*
X150294216Y-107133945D01*
X150161545Y-107266616D01*
X150057305Y-107422622D01*
X149985504Y-107595966D01*
X149948900Y-107779987D01*
X133160000Y-107779987D01*
X133160000Y-105239987D01*
X147053300Y-105239987D01*
X147053300Y-105427613D01*
X147089904Y-105611634D01*
X147161705Y-105784978D01*
X147265945Y-105940984D01*
X147398616Y-106073655D01*
X147554622Y-106177895D01*
X147727966Y-106249696D01*
X147911987Y-106286300D01*
X148099613Y-106286300D01*
X148283634Y-106249696D01*
X148456978Y-106177895D01*
X148612984Y-106073655D01*
X148745655Y-105940984D01*
X148849895Y-105784978D01*
X148921696Y-105611634D01*
X148958300Y-105427613D01*
X148958300Y-105239987D01*
X148921696Y-105055966D01*
X148849895Y-104882622D01*
X148745655Y-104726616D01*
X148612984Y-104593945D01*
X148477455Y-104503387D01*
X151879300Y-104503387D01*
X151879300Y-104691013D01*
X151915904Y-104875034D01*
X151987705Y-105048378D01*
X152091945Y-105204384D01*
X152224616Y-105337055D01*
X152380622Y-105441295D01*
X152553966Y-105513096D01*
X152737987Y-105549700D01*
X152925613Y-105549700D01*
X153109634Y-105513096D01*
X153282978Y-105441295D01*
X153438984Y-105337055D01*
X153571655Y-105204384D01*
X153675895Y-105048378D01*
X153747696Y-104875034D01*
X153784300Y-104691013D01*
X153784300Y-104503387D01*
X153751541Y-104338698D01*
X153876455Y-104213784D01*
X153980695Y-104057778D01*
X154052496Y-103884434D01*
X154089100Y-103700413D01*
X154089100Y-103512787D01*
X154058786Y-103360387D01*
X156425900Y-103360387D01*
X156425900Y-103548013D01*
X156462504Y-103732034D01*
X156534305Y-103905378D01*
X156638545Y-104061384D01*
X156771216Y-104194055D01*
X156927222Y-104298295D01*
X157100566Y-104370096D01*
X157284587Y-104406700D01*
X157472213Y-104406700D01*
X157624606Y-104376387D01*
X159677100Y-104376387D01*
X159677100Y-104564013D01*
X159713704Y-104748034D01*
X159785505Y-104921378D01*
X159889745Y-105077384D01*
X160022416Y-105210055D01*
X160175993Y-105312672D01*
X160073216Y-105381345D01*
X159940545Y-105514016D01*
X159836305Y-105670022D01*
X159764504Y-105843366D01*
X159727900Y-106027387D01*
X159727900Y-106215013D01*
X159764504Y-106399034D01*
X159836305Y-106572378D01*
X159940545Y-106728384D01*
X160073216Y-106861055D01*
X160229222Y-106965295D01*
X160402566Y-107037096D01*
X160586587Y-107073700D01*
X160774213Y-107073700D01*
X160958234Y-107037096D01*
X161131578Y-106965295D01*
X161287584Y-106861055D01*
X161420255Y-106728384D01*
X161524495Y-106572378D01*
X161596296Y-106399034D01*
X161632900Y-106215013D01*
X161632900Y-106027387D01*
X161596296Y-105843366D01*
X161524495Y-105670022D01*
X161420255Y-105514016D01*
X161287584Y-105381345D01*
X161134007Y-105278728D01*
X161236784Y-105210055D01*
X161369455Y-105077384D01*
X161473695Y-104921378D01*
X161545496Y-104748034D01*
X161582100Y-104564013D01*
X161582100Y-104528787D01*
X163537900Y-104528787D01*
X163537900Y-104716413D01*
X163574504Y-104900434D01*
X163646305Y-105073778D01*
X163750545Y-105229784D01*
X163883216Y-105362455D01*
X164039222Y-105466695D01*
X164212566Y-105538496D01*
X164396587Y-105575100D01*
X164584213Y-105575100D01*
X164768234Y-105538496D01*
X164941578Y-105466695D01*
X165055593Y-105390512D01*
X165207622Y-105492095D01*
X165380966Y-105563896D01*
X165564987Y-105600500D01*
X165752613Y-105600500D01*
X165936634Y-105563896D01*
X166109978Y-105492095D01*
X166265984Y-105387855D01*
X166398655Y-105255184D01*
X166502895Y-105099178D01*
X166574696Y-104925834D01*
X166611300Y-104741813D01*
X166611300Y-104554187D01*
X166574696Y-104370166D01*
X166524033Y-104247852D01*
X173811753Y-104247852D01*
X173940076Y-104539871D01*
X174275695Y-104707723D01*
X174637611Y-104806874D01*
X175011916Y-104833514D01*
X175384227Y-104786618D01*
X175740235Y-104667988D01*
X175979924Y-104539871D01*
X176108247Y-104247852D01*
X174960000Y-103099605D01*
X173811753Y-104247852D01*
X166524033Y-104247852D01*
X166502895Y-104196822D01*
X166398655Y-104040816D01*
X166265984Y-103908145D01*
X166109978Y-103803905D01*
X165936634Y-103732104D01*
X165752613Y-103695500D01*
X165564987Y-103695500D01*
X165380966Y-103732104D01*
X165207622Y-103803905D01*
X165093607Y-103880088D01*
X164941578Y-103778505D01*
X164768234Y-103706704D01*
X164584213Y-103670100D01*
X164396587Y-103670100D01*
X164212566Y-103706704D01*
X164039222Y-103778505D01*
X163883216Y-103882745D01*
X163750545Y-104015416D01*
X163646305Y-104171422D01*
X163574504Y-104344766D01*
X163537900Y-104528787D01*
X161582100Y-104528787D01*
X161582100Y-104376387D01*
X161545496Y-104192366D01*
X161473695Y-104019022D01*
X161369455Y-103863016D01*
X161236784Y-103730345D01*
X161080778Y-103626105D01*
X160907434Y-103554304D01*
X160723413Y-103517700D01*
X160535787Y-103517700D01*
X160351766Y-103554304D01*
X160178422Y-103626105D01*
X160022416Y-103730345D01*
X159889745Y-103863016D01*
X159785505Y-104019022D01*
X159713704Y-104192366D01*
X159677100Y-104376387D01*
X157624606Y-104376387D01*
X157656234Y-104370096D01*
X157829578Y-104298295D01*
X157985584Y-104194055D01*
X158118255Y-104061384D01*
X158222495Y-103905378D01*
X158294296Y-103732034D01*
X158330900Y-103548013D01*
X158330900Y-103360387D01*
X158294296Y-103176366D01*
X158222495Y-103003022D01*
X158201711Y-102971916D01*
X173046486Y-102971916D01*
X173093382Y-103344227D01*
X173212012Y-103700235D01*
X173340129Y-103939924D01*
X173632148Y-104068247D01*
X174780395Y-102920000D01*
X173632148Y-101771753D01*
X173340129Y-101900076D01*
X173172277Y-102235695D01*
X173073126Y-102597611D01*
X173046486Y-102971916D01*
X158201711Y-102971916D01*
X158118255Y-102847016D01*
X157985584Y-102714345D01*
X157829578Y-102610105D01*
X157656234Y-102538304D01*
X157472213Y-102501700D01*
X157284587Y-102501700D01*
X157100566Y-102538304D01*
X156927222Y-102610105D01*
X156771216Y-102714345D01*
X156638545Y-102847016D01*
X156534305Y-103003022D01*
X156462504Y-103176366D01*
X156425900Y-103360387D01*
X154058786Y-103360387D01*
X154052496Y-103328766D01*
X153980695Y-103155422D01*
X153876455Y-102999416D01*
X153743784Y-102866745D01*
X153587778Y-102762505D01*
X153414434Y-102690704D01*
X153230413Y-102654100D01*
X153042787Y-102654100D01*
X152858766Y-102690704D01*
X152685422Y-102762505D01*
X152529416Y-102866745D01*
X152396745Y-102999416D01*
X152292505Y-103155422D01*
X152220704Y-103328766D01*
X152184100Y-103512787D01*
X152184100Y-103700413D01*
X152216859Y-103865102D01*
X152091945Y-103990016D01*
X151987705Y-104146022D01*
X151915904Y-104319366D01*
X151879300Y-104503387D01*
X148477455Y-104503387D01*
X148456978Y-104489705D01*
X148283634Y-104417904D01*
X148099613Y-104381300D01*
X147911987Y-104381300D01*
X147727966Y-104417904D01*
X147554622Y-104489705D01*
X147398616Y-104593945D01*
X147265945Y-104726616D01*
X147161705Y-104882622D01*
X147089904Y-105055966D01*
X147053300Y-105239987D01*
X133160000Y-105239987D01*
X133160000Y-104247852D01*
X133891753Y-104247852D01*
X134020076Y-104539871D01*
X134355695Y-104707723D01*
X134717611Y-104806874D01*
X135091916Y-104833514D01*
X135464227Y-104786618D01*
X135820235Y-104667988D01*
X136059924Y-104539871D01*
X136188247Y-104247852D01*
X135040000Y-103099605D01*
X133891753Y-104247852D01*
X133160000Y-104247852D01*
X133160000Y-103237986D01*
X133173382Y-103344227D01*
X133292012Y-103700235D01*
X133420129Y-103939924D01*
X133712148Y-104068247D01*
X134860395Y-102920000D01*
X135219605Y-102920000D01*
X136367852Y-104068247D01*
X136418052Y-104046187D01*
X142913100Y-104046187D01*
X142913100Y-104233813D01*
X142949704Y-104417834D01*
X143021505Y-104591178D01*
X143125745Y-104747184D01*
X143258416Y-104879855D01*
X143414422Y-104984095D01*
X143587766Y-105055896D01*
X143771787Y-105092500D01*
X143959413Y-105092500D01*
X144143434Y-105055896D01*
X144316778Y-104984095D01*
X144379993Y-104941856D01*
X144481222Y-105009495D01*
X144654566Y-105081296D01*
X144838587Y-105117900D01*
X145026213Y-105117900D01*
X145210234Y-105081296D01*
X145383578Y-105009495D01*
X145539584Y-104905255D01*
X145672255Y-104772584D01*
X145776495Y-104616578D01*
X145848296Y-104443234D01*
X145884900Y-104259213D01*
X145884900Y-104071587D01*
X145848296Y-103887566D01*
X145776495Y-103714222D01*
X145672255Y-103558216D01*
X145539584Y-103425545D01*
X145383578Y-103321305D01*
X145210234Y-103249504D01*
X145140860Y-103235705D01*
X145311834Y-103201696D01*
X145485178Y-103129895D01*
X145641184Y-103025655D01*
X145773855Y-102892984D01*
X145821342Y-102821914D01*
X145919745Y-102969184D01*
X146052416Y-103101855D01*
X146208422Y-103206095D01*
X146381766Y-103277896D01*
X146565787Y-103314500D01*
X146753413Y-103314500D01*
X146937434Y-103277896D01*
X147110778Y-103206095D01*
X147266784Y-103101855D01*
X147399455Y-102969184D01*
X147503695Y-102813178D01*
X147575496Y-102639834D01*
X147612100Y-102455813D01*
X147612100Y-102268187D01*
X147575496Y-102084166D01*
X147503695Y-101910822D01*
X147399455Y-101754816D01*
X147266784Y-101622145D01*
X147110778Y-101517905D01*
X146937434Y-101446104D01*
X146770501Y-101412899D01*
X146737296Y-101245966D01*
X146665495Y-101072622D01*
X146561255Y-100916616D01*
X146428584Y-100783945D01*
X146272578Y-100679705D01*
X146099234Y-100607904D01*
X145915213Y-100571300D01*
X145855563Y-100571300D01*
X145875775Y-100469688D01*
X145903622Y-100488295D01*
X146076966Y-100560096D01*
X146260987Y-100596700D01*
X146448613Y-100596700D01*
X146632634Y-100560096D01*
X146805978Y-100488295D01*
X146961984Y-100384055D01*
X147094655Y-100251384D01*
X147198895Y-100095378D01*
X147270696Y-99922034D01*
X147307300Y-99738013D01*
X147307300Y-99550387D01*
X147282039Y-99423387D01*
X148424900Y-99423387D01*
X148424900Y-99611013D01*
X148461504Y-99795034D01*
X148533305Y-99968378D01*
X148637545Y-100124384D01*
X148770216Y-100257055D01*
X148926222Y-100361295D01*
X149099566Y-100433096D01*
X149283587Y-100469700D01*
X149471213Y-100469700D01*
X149655234Y-100433096D01*
X149828578Y-100361295D01*
X149984584Y-100257055D01*
X150117255Y-100124384D01*
X150221495Y-99968378D01*
X150293296Y-99795034D01*
X150317934Y-99671173D01*
X150395816Y-99749055D01*
X150551822Y-99853295D01*
X150661776Y-99898839D01*
X150696704Y-100074434D01*
X150768505Y-100247778D01*
X150872745Y-100403784D01*
X150930533Y-100461572D01*
X150844705Y-100590022D01*
X150772904Y-100763366D01*
X150736300Y-100947387D01*
X150736300Y-101135013D01*
X150772904Y-101319034D01*
X150844705Y-101492378D01*
X150948945Y-101648384D01*
X151081616Y-101781055D01*
X151237622Y-101885295D01*
X151410966Y-101957096D01*
X151594987Y-101993700D01*
X151782613Y-101993700D01*
X151966634Y-101957096D01*
X152139978Y-101885295D01*
X152295984Y-101781055D01*
X152428655Y-101648384D01*
X152532895Y-101492378D01*
X152604696Y-101319034D01*
X152641300Y-101135013D01*
X152641300Y-100947387D01*
X152604696Y-100763366D01*
X152532895Y-100590022D01*
X152428655Y-100434016D01*
X152370867Y-100376228D01*
X152456695Y-100247778D01*
X152461496Y-100236187D01*
X152641300Y-100236187D01*
X152641300Y-100423813D01*
X152677904Y-100607834D01*
X152749705Y-100781178D01*
X152853945Y-100937184D01*
X152986616Y-101069855D01*
X153142622Y-101174095D01*
X153230401Y-101210454D01*
X153262104Y-101369834D01*
X153333905Y-101543178D01*
X153438145Y-101699184D01*
X153570816Y-101831855D01*
X153726822Y-101936095D01*
X153900166Y-102007896D01*
X154084187Y-102044500D01*
X154271813Y-102044500D01*
X154455834Y-102007896D01*
X154629178Y-101936095D01*
X154785184Y-101831855D01*
X154917855Y-101699184D01*
X155022095Y-101543178D01*
X155093896Y-101369834D01*
X155130500Y-101185813D01*
X155130500Y-100998187D01*
X155120396Y-100947387D01*
X155613100Y-100947387D01*
X155613100Y-101135013D01*
X155649704Y-101319034D01*
X155721505Y-101492378D01*
X155825745Y-101648384D01*
X155958416Y-101781055D01*
X156114422Y-101885295D01*
X156287766Y-101957096D01*
X156471787Y-101993700D01*
X156659413Y-101993700D01*
X156769347Y-101971833D01*
X156841745Y-102080184D01*
X156974416Y-102212855D01*
X157130422Y-102317095D01*
X157303766Y-102388896D01*
X157487787Y-102425500D01*
X157675413Y-102425500D01*
X157859434Y-102388896D01*
X158032778Y-102317095D01*
X158188784Y-102212855D01*
X158321455Y-102080184D01*
X158425695Y-101924178D01*
X158497496Y-101750834D01*
X158529060Y-101592148D01*
X173811753Y-101592148D01*
X174960000Y-102740395D01*
X176108247Y-101592148D01*
X175979924Y-101300129D01*
X175644305Y-101132277D01*
X175282389Y-101033126D01*
X174908084Y-101006486D01*
X174535773Y-101053382D01*
X174179765Y-101172012D01*
X173940076Y-101300129D01*
X173811753Y-101592148D01*
X158529060Y-101592148D01*
X158534100Y-101566813D01*
X158534100Y-101379187D01*
X158497496Y-101195166D01*
X158425695Y-101021822D01*
X158321455Y-100865816D01*
X158188784Y-100733145D01*
X158032778Y-100628905D01*
X157859434Y-100557104D01*
X157675413Y-100520500D01*
X157487787Y-100520500D01*
X157377853Y-100542367D01*
X157305455Y-100434016D01*
X157172784Y-100301345D01*
X157016778Y-100197105D01*
X156843434Y-100125304D01*
X156659413Y-100088700D01*
X156471787Y-100088700D01*
X156287766Y-100125304D01*
X156114422Y-100197105D01*
X155958416Y-100301345D01*
X155825745Y-100434016D01*
X155721505Y-100590022D01*
X155649704Y-100763366D01*
X155613100Y-100947387D01*
X155120396Y-100947387D01*
X155093896Y-100814166D01*
X155022095Y-100640822D01*
X154917855Y-100484816D01*
X154785184Y-100352145D01*
X154629178Y-100247905D01*
X154541399Y-100211546D01*
X154509696Y-100052166D01*
X154437895Y-99878822D01*
X154333655Y-99722816D01*
X154200984Y-99590145D01*
X154044978Y-99485905D01*
X153871634Y-99414104D01*
X153687613Y-99377500D01*
X153499987Y-99377500D01*
X153315966Y-99414104D01*
X153142622Y-99485905D01*
X152986616Y-99590145D01*
X152853945Y-99722816D01*
X152749705Y-99878822D01*
X152677904Y-100052166D01*
X152641300Y-100236187D01*
X152461496Y-100236187D01*
X152528496Y-100074434D01*
X152565100Y-99890413D01*
X152565100Y-99702787D01*
X152528496Y-99518766D01*
X152456695Y-99345422D01*
X152352455Y-99189416D01*
X152219784Y-99056745D01*
X152063778Y-98952505D01*
X151953824Y-98906961D01*
X151918896Y-98731366D01*
X151847095Y-98558022D01*
X151742855Y-98402016D01*
X151610184Y-98269345D01*
X151454178Y-98165105D01*
X151280834Y-98093304D01*
X151096813Y-98056700D01*
X150909187Y-98056700D01*
X150725166Y-98093304D01*
X150551822Y-98165105D01*
X150395816Y-98269345D01*
X150263145Y-98402016D01*
X150158905Y-98558022D01*
X150087104Y-98731366D01*
X150062466Y-98855227D01*
X149984584Y-98777345D01*
X149828578Y-98673105D01*
X149655234Y-98601304D01*
X149471213Y-98564700D01*
X149283587Y-98564700D01*
X149099566Y-98601304D01*
X148926222Y-98673105D01*
X148770216Y-98777345D01*
X148637545Y-98910016D01*
X148533305Y-99066022D01*
X148461504Y-99239366D01*
X148424900Y-99423387D01*
X147282039Y-99423387D01*
X147270696Y-99366366D01*
X147198895Y-99193022D01*
X147094655Y-99037016D01*
X146961984Y-98904345D01*
X146875500Y-98846558D01*
X146875500Y-98737587D01*
X146838896Y-98553566D01*
X146767095Y-98380222D01*
X146669332Y-98233910D01*
X146682584Y-98225055D01*
X146815255Y-98092384D01*
X146919495Y-97936378D01*
X146991296Y-97763034D01*
X147027900Y-97579013D01*
X147027900Y-97391387D01*
X146991296Y-97207366D01*
X146919495Y-97034022D01*
X146815255Y-96878016D01*
X146682584Y-96745345D01*
X146648723Y-96722720D01*
X146712298Y-96569234D01*
X146735699Y-96451587D01*
X151955500Y-96451587D01*
X151955500Y-96639213D01*
X151992104Y-96823234D01*
X152063905Y-96996578D01*
X152168145Y-97152584D01*
X152300816Y-97285255D01*
X152456822Y-97389495D01*
X152630166Y-97461296D01*
X152814187Y-97497900D01*
X153001813Y-97497900D01*
X153185834Y-97461296D01*
X153359178Y-97389495D01*
X153515184Y-97285255D01*
X153530300Y-97270139D01*
X153570816Y-97310655D01*
X153726822Y-97414895D01*
X153900166Y-97486696D01*
X154084187Y-97523300D01*
X154271813Y-97523300D01*
X154455834Y-97486696D01*
X154629178Y-97414895D01*
X154785184Y-97310655D01*
X154917855Y-97177984D01*
X155022095Y-97021978D01*
X155093896Y-96848634D01*
X155130500Y-96664613D01*
X155130500Y-96476987D01*
X155093896Y-96292966D01*
X155022095Y-96119622D01*
X154917855Y-95963616D01*
X154785184Y-95830945D01*
X154629178Y-95726705D01*
X154455834Y-95654904D01*
X154271813Y-95618300D01*
X154084187Y-95618300D01*
X153900166Y-95654904D01*
X153726822Y-95726705D01*
X153570816Y-95830945D01*
X153555700Y-95846061D01*
X153515184Y-95805545D01*
X153359178Y-95701305D01*
X153185834Y-95629504D01*
X153001813Y-95592900D01*
X152814187Y-95592900D01*
X152630166Y-95629504D01*
X152456822Y-95701305D01*
X152300816Y-95805545D01*
X152168145Y-95938216D01*
X152063905Y-96094222D01*
X151992104Y-96267566D01*
X151955500Y-96451587D01*
X146735699Y-96451587D01*
X146744924Y-96405210D01*
X146747386Y-96405700D01*
X146935012Y-96405700D01*
X147119033Y-96369096D01*
X147292377Y-96297295D01*
X147448383Y-96193055D01*
X147581054Y-96060384D01*
X147685294Y-95904378D01*
X147757095Y-95731034D01*
X147793699Y-95547013D01*
X147793699Y-95359387D01*
X162902900Y-95359387D01*
X162902900Y-95547013D01*
X162939504Y-95731034D01*
X163011305Y-95904378D01*
X163030065Y-95932454D01*
X162964904Y-96089766D01*
X162928300Y-96273787D01*
X162928300Y-96461413D01*
X162964904Y-96645434D01*
X163036705Y-96818778D01*
X163140945Y-96974784D01*
X163273616Y-97107455D01*
X163429622Y-97211695D01*
X163602966Y-97283496D01*
X163786987Y-97320100D01*
X163974613Y-97320100D01*
X164158634Y-97283496D01*
X164331978Y-97211695D01*
X164487984Y-97107455D01*
X164620655Y-96974784D01*
X164724895Y-96818778D01*
X164729696Y-96807187D01*
X165950900Y-96807187D01*
X165950900Y-96994813D01*
X165987504Y-97178834D01*
X166059305Y-97352178D01*
X166163545Y-97508184D01*
X166296216Y-97640855D01*
X166452222Y-97745095D01*
X166625566Y-97816896D01*
X166809587Y-97853500D01*
X166997213Y-97853500D01*
X167181234Y-97816896D01*
X167354578Y-97745095D01*
X167510584Y-97640855D01*
X167643255Y-97508184D01*
X167747495Y-97352178D01*
X167819296Y-97178834D01*
X167855900Y-96994813D01*
X167855900Y-96807187D01*
X167819296Y-96623166D01*
X167747495Y-96449822D01*
X167643255Y-96293816D01*
X167510584Y-96161145D01*
X167354578Y-96056905D01*
X167181234Y-95985104D01*
X166997213Y-95948500D01*
X166809587Y-95948500D01*
X166625566Y-95985104D01*
X166452222Y-96056905D01*
X166296216Y-96161145D01*
X166163545Y-96293816D01*
X166059305Y-96449822D01*
X165987504Y-96623166D01*
X165950900Y-96807187D01*
X164729696Y-96807187D01*
X164796696Y-96645434D01*
X164833300Y-96461413D01*
X164833300Y-96273787D01*
X164796696Y-96089766D01*
X164724895Y-95916422D01*
X164706135Y-95888346D01*
X164771296Y-95731034D01*
X164807900Y-95547013D01*
X164807900Y-95359387D01*
X164771296Y-95175366D01*
X164699495Y-95002022D01*
X164595255Y-94846016D01*
X164462584Y-94713345D01*
X164306578Y-94609105D01*
X164133234Y-94537304D01*
X163949213Y-94500700D01*
X163761587Y-94500700D01*
X163577566Y-94537304D01*
X163404222Y-94609105D01*
X163248216Y-94713345D01*
X163115545Y-94846016D01*
X163011305Y-95002022D01*
X162939504Y-95175366D01*
X162902900Y-95359387D01*
X147793699Y-95359387D01*
X147757095Y-95175366D01*
X147685294Y-95002022D01*
X147581054Y-94846016D01*
X147448383Y-94713345D01*
X147292377Y-94609105D01*
X147119033Y-94537304D01*
X146935012Y-94500700D01*
X146747386Y-94500700D01*
X146563365Y-94537304D01*
X146390021Y-94609105D01*
X146234015Y-94713345D01*
X146101344Y-94846016D01*
X145997104Y-95002022D01*
X145925303Y-95175366D01*
X145892677Y-95339390D01*
X145890215Y-95338900D01*
X145702589Y-95338900D01*
X145518568Y-95375504D01*
X145345224Y-95447305D01*
X145189218Y-95551545D01*
X145056547Y-95684216D01*
X144952307Y-95840222D01*
X144880506Y-96013566D01*
X144843902Y-96197587D01*
X144843902Y-96385213D01*
X144880506Y-96569234D01*
X144952307Y-96742578D01*
X145056547Y-96898584D01*
X145189218Y-97031255D01*
X145223079Y-97053880D01*
X145159504Y-97207366D01*
X145122900Y-97391387D01*
X145122900Y-97579013D01*
X145159504Y-97763034D01*
X145231305Y-97936378D01*
X145329068Y-98082690D01*
X145315816Y-98091545D01*
X145183145Y-98224216D01*
X145078905Y-98380222D01*
X145007104Y-98553566D01*
X144970500Y-98737587D01*
X144970500Y-98925213D01*
X145007104Y-99109234D01*
X145078905Y-99282578D01*
X145160128Y-99404137D01*
X145026213Y-99377500D01*
X144838587Y-99377500D01*
X144654566Y-99414104D01*
X144481222Y-99485905D01*
X144325216Y-99590145D01*
X144192545Y-99722816D01*
X144088305Y-99878822D01*
X144016504Y-100052166D01*
X143979900Y-100236187D01*
X143979900Y-100423813D01*
X144016504Y-100607834D01*
X144088305Y-100781178D01*
X144192545Y-100937184D01*
X144325216Y-101069855D01*
X144481222Y-101174095D01*
X144654566Y-101245896D01*
X144838587Y-101282500D01*
X144898237Y-101282500D01*
X144885988Y-101344081D01*
X144756166Y-101369904D01*
X144582822Y-101441705D01*
X144426816Y-101545945D01*
X144294145Y-101678616D01*
X144189905Y-101834622D01*
X144118104Y-102007966D01*
X144081500Y-102191987D01*
X144081500Y-102379613D01*
X144118104Y-102563634D01*
X144189905Y-102736978D01*
X144294145Y-102892984D01*
X144426816Y-103025655D01*
X144582822Y-103129895D01*
X144756166Y-103201696D01*
X144825540Y-103215495D01*
X144654566Y-103249504D01*
X144481222Y-103321305D01*
X144418007Y-103363544D01*
X144316778Y-103295905D01*
X144143434Y-103224104D01*
X143959413Y-103187500D01*
X143771787Y-103187500D01*
X143587766Y-103224104D01*
X143414422Y-103295905D01*
X143258416Y-103400145D01*
X143125745Y-103532816D01*
X143021505Y-103688822D01*
X142949704Y-103862166D01*
X142913100Y-104046187D01*
X136418052Y-104046187D01*
X136659871Y-103939924D01*
X136827723Y-103604305D01*
X136926874Y-103242389D01*
X136953514Y-102868084D01*
X136906618Y-102495773D01*
X136787988Y-102139765D01*
X136659871Y-101900076D01*
X136367852Y-101771753D01*
X135219605Y-102920000D01*
X134860395Y-102920000D01*
X133712148Y-101771753D01*
X133420129Y-101900076D01*
X133252277Y-102235695D01*
X133160000Y-102572520D01*
X133160000Y-101592148D01*
X133891753Y-101592148D01*
X135040000Y-102740395D01*
X136188247Y-101592148D01*
X136059924Y-101300129D01*
X135724305Y-101132277D01*
X135362389Y-101033126D01*
X134988084Y-101006486D01*
X134615773Y-101053382D01*
X134259765Y-101172012D01*
X134020076Y-101300129D01*
X133891753Y-101592148D01*
X133160000Y-101592148D01*
X133160000Y-98971620D01*
X134545000Y-98971620D01*
X134545000Y-99248380D01*
X134598994Y-99519823D01*
X134704905Y-99775517D01*
X134858665Y-100005635D01*
X135054365Y-100201335D01*
X135284483Y-100355095D01*
X135540177Y-100461006D01*
X135811620Y-100515000D01*
X136088380Y-100515000D01*
X136359823Y-100461006D01*
X136615517Y-100355095D01*
X136845635Y-100201335D01*
X137041335Y-100005635D01*
X137195095Y-99775517D01*
X137301006Y-99519823D01*
X137355000Y-99248380D01*
X137355000Y-98971620D01*
X137348867Y-98940787D01*
X138124299Y-98940787D01*
X138124299Y-99128413D01*
X138160903Y-99312434D01*
X138232704Y-99485778D01*
X138336944Y-99641784D01*
X138469615Y-99774455D01*
X138625621Y-99878695D01*
X138798965Y-99950496D01*
X138982986Y-99987100D01*
X139170612Y-99987100D01*
X139354633Y-99950496D01*
X139527977Y-99878695D01*
X139683983Y-99774455D01*
X139706592Y-99751846D01*
X139858422Y-99853295D01*
X140031766Y-99925096D01*
X140215787Y-99961700D01*
X140403413Y-99961700D01*
X140587434Y-99925096D01*
X140760778Y-99853295D01*
X140916784Y-99749055D01*
X141049455Y-99616384D01*
X141153695Y-99460378D01*
X141225496Y-99287034D01*
X141229217Y-99268327D01*
X141382422Y-99370695D01*
X141555766Y-99442496D01*
X141739787Y-99479100D01*
X141927413Y-99479100D01*
X142111434Y-99442496D01*
X142284778Y-99370695D01*
X142440784Y-99266455D01*
X142573455Y-99133784D01*
X142677695Y-98977778D01*
X142749496Y-98804434D01*
X142786100Y-98620413D01*
X142786100Y-98432787D01*
X142749496Y-98248766D01*
X142677695Y-98075422D01*
X142573455Y-97919416D01*
X142440784Y-97786745D01*
X142284778Y-97682505D01*
X142111434Y-97610704D01*
X141976352Y-97583835D01*
X141962096Y-97512166D01*
X141890295Y-97338822D01*
X141786055Y-97182816D01*
X141653384Y-97050145D01*
X141497378Y-96945905D01*
X141324034Y-96874104D01*
X141140013Y-96837500D01*
X140952387Y-96837500D01*
X140768366Y-96874104D01*
X140595022Y-96945905D01*
X140439016Y-97050145D01*
X140306345Y-97182816D01*
X140202105Y-97338822D01*
X140130304Y-97512166D01*
X140093700Y-97696187D01*
X140093700Y-97883813D01*
X140130304Y-98067834D01*
X140132550Y-98073257D01*
X140031766Y-98093304D01*
X139858422Y-98165105D01*
X139702416Y-98269345D01*
X139679807Y-98291954D01*
X139527977Y-98190505D01*
X139354633Y-98118704D01*
X139170612Y-98082100D01*
X138982986Y-98082100D01*
X138798965Y-98118704D01*
X138625621Y-98190505D01*
X138469615Y-98294745D01*
X138336944Y-98427416D01*
X138232704Y-98583422D01*
X138160903Y-98756766D01*
X138124299Y-98940787D01*
X137348867Y-98940787D01*
X137301006Y-98700177D01*
X137195095Y-98444483D01*
X137041335Y-98214365D01*
X136845635Y-98018665D01*
X136615517Y-97864905D01*
X136561122Y-97842374D01*
X136673724Y-97782187D01*
X136741673Y-97541278D01*
X135950000Y-96749605D01*
X135158327Y-97541278D01*
X135226276Y-97782187D01*
X135346976Y-97839020D01*
X135284483Y-97864905D01*
X135054365Y-98018665D01*
X134858665Y-98214365D01*
X134704905Y-98444483D01*
X134598994Y-98700177D01*
X134545000Y-98971620D01*
X133160000Y-98971620D01*
X133160000Y-96641701D01*
X134540023Y-96641701D01*
X134581104Y-96915395D01*
X134674790Y-97175817D01*
X134737813Y-97293724D01*
X134978722Y-97361673D01*
X135770395Y-96570000D01*
X136129605Y-96570000D01*
X136921278Y-97361673D01*
X137162187Y-97293724D01*
X137280087Y-97043332D01*
X137346872Y-96774750D01*
X137359977Y-96498299D01*
X137318896Y-96224605D01*
X137225210Y-95964183D01*
X137162187Y-95846276D01*
X136921278Y-95778327D01*
X136129605Y-96570000D01*
X135770395Y-96570000D01*
X134978722Y-95778327D01*
X134737813Y-95846276D01*
X134619913Y-96096668D01*
X134553128Y-96365250D01*
X134540023Y-96641701D01*
X133160000Y-96641701D01*
X133160000Y-88811620D01*
X134545000Y-88811620D01*
X134545000Y-89088380D01*
X134598994Y-89359823D01*
X134704905Y-89615517D01*
X134858665Y-89845635D01*
X135054365Y-90041335D01*
X135284483Y-90195095D01*
X135344610Y-90220000D01*
X135284483Y-90244905D01*
X135054365Y-90398665D01*
X134858665Y-90594365D01*
X134704905Y-90824483D01*
X134598994Y-91080177D01*
X134545000Y-91351620D01*
X134545000Y-91628380D01*
X134598994Y-91899823D01*
X134704905Y-92155517D01*
X134858665Y-92385635D01*
X135054365Y-92581335D01*
X135284483Y-92735095D01*
X135344610Y-92760000D01*
X135284483Y-92784905D01*
X135054365Y-92938665D01*
X134858665Y-93134365D01*
X134704905Y-93364483D01*
X134598994Y-93620177D01*
X134545000Y-93891620D01*
X134545000Y-94168380D01*
X134598994Y-94439823D01*
X134704905Y-94695517D01*
X134858665Y-94925635D01*
X135054365Y-95121335D01*
X135284483Y-95275095D01*
X135338878Y-95297626D01*
X135226276Y-95357813D01*
X135158327Y-95598722D01*
X135950000Y-96390395D01*
X136741673Y-95598722D01*
X136673724Y-95357813D01*
X136553024Y-95300980D01*
X136615517Y-95275095D01*
X136845635Y-95121335D01*
X137041335Y-94925635D01*
X137195095Y-94695517D01*
X137301006Y-94439823D01*
X137355000Y-94168380D01*
X137355000Y-93891620D01*
X137301006Y-93620177D01*
X137200772Y-93378187D01*
X148653500Y-93378187D01*
X148653500Y-93565813D01*
X148690104Y-93749834D01*
X148761905Y-93923178D01*
X148866145Y-94079184D01*
X148998816Y-94211855D01*
X149154822Y-94316095D01*
X149328166Y-94387896D01*
X149512187Y-94424500D01*
X149699813Y-94424500D01*
X149883834Y-94387896D01*
X150057178Y-94316095D01*
X150213184Y-94211855D01*
X150345855Y-94079184D01*
X150450095Y-93923178D01*
X150521896Y-93749834D01*
X150558500Y-93565813D01*
X150558500Y-93403587D01*
X156959300Y-93403587D01*
X156959300Y-93591213D01*
X156995904Y-93775234D01*
X157067705Y-93948578D01*
X157171945Y-94104584D01*
X157304616Y-94237255D01*
X157460622Y-94341495D01*
X157633966Y-94413296D01*
X157817987Y-94449900D01*
X158005613Y-94449900D01*
X158189634Y-94413296D01*
X158362978Y-94341495D01*
X158518984Y-94237255D01*
X158651655Y-94104584D01*
X158755895Y-93948578D01*
X158827696Y-93775234D01*
X158864300Y-93591213D01*
X158864300Y-93403587D01*
X158827696Y-93219566D01*
X158755895Y-93046222D01*
X158651655Y-92890216D01*
X158518984Y-92757545D01*
X158362978Y-92653305D01*
X158189634Y-92581504D01*
X158005613Y-92544900D01*
X157817987Y-92544900D01*
X157633966Y-92581504D01*
X157460622Y-92653305D01*
X157304616Y-92757545D01*
X157171945Y-92890216D01*
X157067705Y-93046222D01*
X156995904Y-93219566D01*
X156959300Y-93403587D01*
X150558500Y-93403587D01*
X150558500Y-93378187D01*
X150521896Y-93194166D01*
X150450095Y-93020822D01*
X150345855Y-92864816D01*
X150213184Y-92732145D01*
X150057178Y-92627905D01*
X149883834Y-92556104D01*
X149699813Y-92519500D01*
X149512187Y-92519500D01*
X149328166Y-92556104D01*
X149154822Y-92627905D01*
X148998816Y-92732145D01*
X148866145Y-92864816D01*
X148761905Y-93020822D01*
X148690104Y-93194166D01*
X148653500Y-93378187D01*
X137200772Y-93378187D01*
X137195095Y-93364483D01*
X137041335Y-93134365D01*
X136845635Y-92938665D01*
X136615517Y-92784905D01*
X136555390Y-92760000D01*
X136615517Y-92735095D01*
X136845635Y-92581335D01*
X137039383Y-92387587D01*
X163106100Y-92387587D01*
X163106100Y-92575213D01*
X163142704Y-92759234D01*
X163214505Y-92932578D01*
X163318745Y-93088584D01*
X163451416Y-93221255D01*
X163607422Y-93325495D01*
X163780766Y-93397296D01*
X163964787Y-93433900D01*
X164152413Y-93433900D01*
X164336434Y-93397296D01*
X164443888Y-93352787D01*
X166001700Y-93352787D01*
X166001700Y-93540413D01*
X166038304Y-93724434D01*
X166110105Y-93897778D01*
X166214345Y-94053784D01*
X166347016Y-94186455D01*
X166503022Y-94290695D01*
X166676366Y-94362496D01*
X166860387Y-94399100D01*
X167048013Y-94399100D01*
X167232034Y-94362496D01*
X167405378Y-94290695D01*
X167561384Y-94186455D01*
X167694055Y-94053784D01*
X167798295Y-93897778D01*
X167870096Y-93724434D01*
X167906700Y-93540413D01*
X167906700Y-93352787D01*
X167870096Y-93168766D01*
X167798295Y-92995422D01*
X167694055Y-92839416D01*
X167561384Y-92706745D01*
X167405378Y-92602505D01*
X167232034Y-92530704D01*
X167048013Y-92494100D01*
X166860387Y-92494100D01*
X166676366Y-92530704D01*
X166503022Y-92602505D01*
X166347016Y-92706745D01*
X166214345Y-92839416D01*
X166110105Y-92995422D01*
X166038304Y-93168766D01*
X166001700Y-93352787D01*
X164443888Y-93352787D01*
X164509778Y-93325495D01*
X164665784Y-93221255D01*
X164798455Y-93088584D01*
X164902695Y-92932578D01*
X164974496Y-92759234D01*
X165011100Y-92575213D01*
X165011100Y-92387587D01*
X164974496Y-92203566D01*
X164902695Y-92030222D01*
X164798455Y-91874216D01*
X164665784Y-91741545D01*
X164509778Y-91637305D01*
X164336434Y-91565504D01*
X164152413Y-91528900D01*
X163964787Y-91528900D01*
X163780766Y-91565504D01*
X163607422Y-91637305D01*
X163451416Y-91741545D01*
X163318745Y-91874216D01*
X163214505Y-92030222D01*
X163142704Y-92203566D01*
X163106100Y-92387587D01*
X137039383Y-92387587D01*
X137041335Y-92385635D01*
X137195095Y-92155517D01*
X137301006Y-91899823D01*
X137355000Y-91628380D01*
X137355000Y-91351620D01*
X137308448Y-91117587D01*
X140017500Y-91117587D01*
X140017500Y-91305213D01*
X140054104Y-91489234D01*
X140125905Y-91662578D01*
X140230145Y-91818584D01*
X140362816Y-91951255D01*
X140518822Y-92055495D01*
X140692166Y-92127296D01*
X140876187Y-92163900D01*
X141063813Y-92163900D01*
X141247834Y-92127296D01*
X141421178Y-92055495D01*
X141577184Y-91951255D01*
X141709855Y-91818584D01*
X141814095Y-91662578D01*
X141885896Y-91489234D01*
X141922500Y-91305213D01*
X141922500Y-91117587D01*
X141885896Y-90933566D01*
X141814095Y-90760222D01*
X141709855Y-90604216D01*
X141577184Y-90471545D01*
X141421178Y-90367305D01*
X141323216Y-90326728D01*
X141375395Y-90318896D01*
X141635817Y-90225210D01*
X141753724Y-90162187D01*
X141821673Y-89921278D01*
X141030000Y-89129605D01*
X140238327Y-89921278D01*
X140306276Y-90162187D01*
X140556668Y-90280087D01*
X140664595Y-90306924D01*
X140518822Y-90367305D01*
X140362816Y-90471545D01*
X140230145Y-90604216D01*
X140125905Y-90760222D01*
X140054104Y-90933566D01*
X140017500Y-91117587D01*
X137308448Y-91117587D01*
X137301006Y-91080177D01*
X137195095Y-90824483D01*
X137041335Y-90594365D01*
X136845635Y-90398665D01*
X136615517Y-90244905D01*
X136555390Y-90220000D01*
X136615517Y-90195095D01*
X136845635Y-90041335D01*
X137041335Y-89845635D01*
X137195095Y-89615517D01*
X137220000Y-89555390D01*
X137244905Y-89615517D01*
X137398665Y-89845635D01*
X137594365Y-90041335D01*
X137824483Y-90195095D01*
X138080177Y-90301006D01*
X138351620Y-90355000D01*
X138628380Y-90355000D01*
X138899823Y-90301006D01*
X139155517Y-90195095D01*
X139385635Y-90041335D01*
X139581335Y-89845635D01*
X139735095Y-89615517D01*
X139757626Y-89561122D01*
X139817813Y-89673724D01*
X140058722Y-89741673D01*
X140850395Y-88950000D01*
X141209605Y-88950000D01*
X142001278Y-89741673D01*
X142242187Y-89673724D01*
X142299020Y-89553024D01*
X142324905Y-89615517D01*
X142478665Y-89845635D01*
X142674365Y-90041335D01*
X142904483Y-90195095D01*
X143160177Y-90301006D01*
X143431620Y-90355000D01*
X143708380Y-90355000D01*
X143979823Y-90301006D01*
X144235517Y-90195095D01*
X144465635Y-90041335D01*
X144661335Y-89845635D01*
X144815095Y-89615517D01*
X144840000Y-89555390D01*
X144864905Y-89615517D01*
X145018665Y-89845635D01*
X145214365Y-90041335D01*
X145444483Y-90195095D01*
X145700177Y-90301006D01*
X145971620Y-90355000D01*
X146248380Y-90355000D01*
X146519823Y-90301006D01*
X146775517Y-90195095D01*
X147005635Y-90041335D01*
X147201335Y-89845635D01*
X147355095Y-89615517D01*
X147380000Y-89555390D01*
X147404905Y-89615517D01*
X147558665Y-89845635D01*
X147754365Y-90041335D01*
X147984483Y-90195095D01*
X148240177Y-90301006D01*
X148511620Y-90355000D01*
X148788380Y-90355000D01*
X149059823Y-90301006D01*
X149315517Y-90195095D01*
X149545635Y-90041335D01*
X149741335Y-89845635D01*
X149895095Y-89615517D01*
X149920000Y-89555390D01*
X149944905Y-89615517D01*
X150098665Y-89845635D01*
X150294365Y-90041335D01*
X150524483Y-90195095D01*
X150780177Y-90301006D01*
X151051620Y-90355000D01*
X151328380Y-90355000D01*
X151599823Y-90301006D01*
X151855517Y-90195095D01*
X152085635Y-90041335D01*
X152281335Y-89845635D01*
X152435095Y-89615517D01*
X152460000Y-89555390D01*
X152484905Y-89615517D01*
X152638665Y-89845635D01*
X152834365Y-90041335D01*
X153064483Y-90195095D01*
X153320177Y-90301006D01*
X153591620Y-90355000D01*
X153868380Y-90355000D01*
X154139823Y-90301006D01*
X154395517Y-90195095D01*
X154625635Y-90041335D01*
X154821335Y-89845635D01*
X154975095Y-89615517D01*
X155000000Y-89555390D01*
X155024905Y-89615517D01*
X155178665Y-89845635D01*
X155374365Y-90041335D01*
X155604483Y-90195095D01*
X155860177Y-90301006D01*
X156131620Y-90355000D01*
X156408380Y-90355000D01*
X156679823Y-90301006D01*
X156935517Y-90195095D01*
X157165635Y-90041335D01*
X157361335Y-89845635D01*
X157515095Y-89615517D01*
X157540000Y-89555390D01*
X157564905Y-89615517D01*
X157718665Y-89845635D01*
X157914365Y-90041335D01*
X158144483Y-90195095D01*
X158400177Y-90301006D01*
X158671620Y-90355000D01*
X158948380Y-90355000D01*
X159219823Y-90301006D01*
X159475517Y-90195095D01*
X159705635Y-90041335D01*
X159901335Y-89845635D01*
X160055095Y-89615517D01*
X160080000Y-89555390D01*
X160104905Y-89615517D01*
X160258665Y-89845635D01*
X160454365Y-90041335D01*
X160684483Y-90195095D01*
X160940177Y-90301006D01*
X161211620Y-90355000D01*
X161488380Y-90355000D01*
X161759823Y-90301006D01*
X162015517Y-90195095D01*
X162245635Y-90041335D01*
X162441335Y-89845635D01*
X162595095Y-89615517D01*
X162620000Y-89555390D01*
X162644905Y-89615517D01*
X162798665Y-89845635D01*
X162994365Y-90041335D01*
X163224483Y-90195095D01*
X163480177Y-90301006D01*
X163751620Y-90355000D01*
X164028380Y-90355000D01*
X164299823Y-90301006D01*
X164555517Y-90195095D01*
X164785635Y-90041335D01*
X164981335Y-89845635D01*
X165135095Y-89615517D01*
X165160000Y-89555390D01*
X165184905Y-89615517D01*
X165338665Y-89845635D01*
X165534365Y-90041335D01*
X165764483Y-90195095D01*
X166020177Y-90301006D01*
X166291620Y-90355000D01*
X166568380Y-90355000D01*
X166839823Y-90301006D01*
X167095517Y-90195095D01*
X167325635Y-90041335D01*
X167521335Y-89845635D01*
X167675095Y-89615517D01*
X167700000Y-89555390D01*
X167724905Y-89615517D01*
X167878665Y-89845635D01*
X168074365Y-90041335D01*
X168304483Y-90195095D01*
X168560177Y-90301006D01*
X168831620Y-90355000D01*
X169108380Y-90355000D01*
X169379823Y-90301006D01*
X169635517Y-90195095D01*
X169865635Y-90041335D01*
X170061335Y-89845635D01*
X170215095Y-89615517D01*
X170240000Y-89555390D01*
X170264905Y-89615517D01*
X170418665Y-89845635D01*
X170614365Y-90041335D01*
X170844483Y-90195095D01*
X171100177Y-90301006D01*
X171371620Y-90355000D01*
X171648380Y-90355000D01*
X171919823Y-90301006D01*
X172175517Y-90195095D01*
X172405635Y-90041335D01*
X172601335Y-89845635D01*
X172755095Y-89615517D01*
X172780000Y-89555390D01*
X172804905Y-89615517D01*
X172958665Y-89845635D01*
X173154365Y-90041335D01*
X173384483Y-90195095D01*
X173536592Y-90258100D01*
X173384483Y-90321105D01*
X173154365Y-90474865D01*
X172958665Y-90670565D01*
X172804905Y-90900683D01*
X172698994Y-91156377D01*
X172645000Y-91427820D01*
X172645000Y-91704580D01*
X172698994Y-91976023D01*
X172804905Y-92231717D01*
X172958665Y-92461835D01*
X173154365Y-92657535D01*
X173384483Y-92811295D01*
X173444610Y-92836200D01*
X173384483Y-92861105D01*
X173154365Y-93014865D01*
X172958665Y-93210565D01*
X172804905Y-93440683D01*
X172698994Y-93696377D01*
X172645000Y-93967820D01*
X172645000Y-94244580D01*
X172698994Y-94516023D01*
X172804905Y-94771717D01*
X172958665Y-95001835D01*
X173154365Y-95197535D01*
X173384483Y-95351295D01*
X173444610Y-95376200D01*
X173384483Y-95401105D01*
X173154365Y-95554865D01*
X172958665Y-95750565D01*
X172804905Y-95980683D01*
X172698994Y-96236377D01*
X172645000Y-96507820D01*
X172645000Y-96784580D01*
X172649995Y-96809691D01*
X172534413Y-96786700D01*
X172346787Y-96786700D01*
X172162766Y-96823304D01*
X171989422Y-96895105D01*
X171833416Y-96999345D01*
X171700745Y-97132016D01*
X171596505Y-97288022D01*
X171524704Y-97461366D01*
X171488100Y-97645387D01*
X171488100Y-97781200D01*
X171371620Y-97781200D01*
X171100177Y-97835194D01*
X170844483Y-97941105D01*
X170614365Y-98094865D01*
X170418665Y-98290565D01*
X170264905Y-98520683D01*
X170158994Y-98776377D01*
X170105000Y-99047820D01*
X170105000Y-99324580D01*
X170158994Y-99596023D01*
X170264905Y-99851717D01*
X170418665Y-100081835D01*
X170614365Y-100277535D01*
X170844483Y-100431295D01*
X171100177Y-100537206D01*
X171371620Y-100591200D01*
X171648380Y-100591200D01*
X171919823Y-100537206D01*
X172175517Y-100431295D01*
X172405635Y-100277535D01*
X172601335Y-100081835D01*
X172755095Y-99851717D01*
X172780000Y-99791590D01*
X172804905Y-99851717D01*
X172958665Y-100081835D01*
X173154365Y-100277535D01*
X173384483Y-100431295D01*
X173640177Y-100537206D01*
X173911620Y-100591200D01*
X174188380Y-100591200D01*
X174459823Y-100537206D01*
X174715517Y-100431295D01*
X174945635Y-100277535D01*
X175141335Y-100081835D01*
X175295095Y-99851717D01*
X175401006Y-99596023D01*
X175455000Y-99324580D01*
X175455000Y-99047820D01*
X175401006Y-98776377D01*
X175295095Y-98520683D01*
X175141335Y-98290565D01*
X174945635Y-98094865D01*
X174715517Y-97941105D01*
X174655390Y-97916200D01*
X174715517Y-97891295D01*
X174945635Y-97737535D01*
X175141335Y-97541835D01*
X175295095Y-97311717D01*
X175401006Y-97056023D01*
X175455000Y-96784580D01*
X175455000Y-96507820D01*
X175401006Y-96236377D01*
X175295095Y-95980683D01*
X175141335Y-95750565D01*
X174945635Y-95554865D01*
X174715517Y-95401105D01*
X174655390Y-95376200D01*
X174715517Y-95351295D01*
X174945635Y-95197535D01*
X175141335Y-95001835D01*
X175295095Y-94771717D01*
X175401006Y-94516023D01*
X175455000Y-94244580D01*
X175455000Y-93967820D01*
X175401006Y-93696377D01*
X175295095Y-93440683D01*
X175141335Y-93210565D01*
X174945635Y-93014865D01*
X174715517Y-92861105D01*
X174655390Y-92836200D01*
X174715517Y-92811295D01*
X174945635Y-92657535D01*
X175141335Y-92461835D01*
X175295095Y-92231717D01*
X175401006Y-91976023D01*
X175455000Y-91704580D01*
X175455000Y-91427820D01*
X175401006Y-91156377D01*
X175295095Y-90900683D01*
X175141335Y-90670565D01*
X174945635Y-90474865D01*
X174715517Y-90321105D01*
X174563408Y-90258100D01*
X174715517Y-90195095D01*
X174945635Y-90041335D01*
X175141335Y-89845635D01*
X175295095Y-89615517D01*
X175401006Y-89359823D01*
X175455000Y-89088380D01*
X175455000Y-88811620D01*
X175401006Y-88540177D01*
X175295095Y-88284483D01*
X175141335Y-88054365D01*
X174945635Y-87858665D01*
X174715517Y-87704905D01*
X174459823Y-87598994D01*
X174188380Y-87545000D01*
X173911620Y-87545000D01*
X173640177Y-87598994D01*
X173384483Y-87704905D01*
X173154365Y-87858665D01*
X172958665Y-88054365D01*
X172804905Y-88284483D01*
X172780000Y-88344610D01*
X172755095Y-88284483D01*
X172601335Y-88054365D01*
X172405635Y-87858665D01*
X172175517Y-87704905D01*
X171919823Y-87598994D01*
X171648380Y-87545000D01*
X171371620Y-87545000D01*
X171100177Y-87598994D01*
X170844483Y-87704905D01*
X170614365Y-87858665D01*
X170418665Y-88054365D01*
X170264905Y-88284483D01*
X170240000Y-88344610D01*
X170215095Y-88284483D01*
X170061335Y-88054365D01*
X169865635Y-87858665D01*
X169635517Y-87704905D01*
X169379823Y-87598994D01*
X169108380Y-87545000D01*
X168831620Y-87545000D01*
X168560177Y-87598994D01*
X168304483Y-87704905D01*
X168074365Y-87858665D01*
X167878665Y-88054365D01*
X167724905Y-88284483D01*
X167700000Y-88344610D01*
X167675095Y-88284483D01*
X167521335Y-88054365D01*
X167325635Y-87858665D01*
X167095517Y-87704905D01*
X166839823Y-87598994D01*
X166568380Y-87545000D01*
X166291620Y-87545000D01*
X166020177Y-87598994D01*
X165764483Y-87704905D01*
X165534365Y-87858665D01*
X165338665Y-88054365D01*
X165184905Y-88284483D01*
X165160000Y-88344610D01*
X165135095Y-88284483D01*
X164981335Y-88054365D01*
X164785635Y-87858665D01*
X164555517Y-87704905D01*
X164299823Y-87598994D01*
X164028380Y-87545000D01*
X163751620Y-87545000D01*
X163480177Y-87598994D01*
X163224483Y-87704905D01*
X162994365Y-87858665D01*
X162798665Y-88054365D01*
X162644905Y-88284483D01*
X162620000Y-88344610D01*
X162595095Y-88284483D01*
X162441335Y-88054365D01*
X162245635Y-87858665D01*
X162015517Y-87704905D01*
X161759823Y-87598994D01*
X161488380Y-87545000D01*
X161211620Y-87545000D01*
X160940177Y-87598994D01*
X160684483Y-87704905D01*
X160454365Y-87858665D01*
X160258665Y-88054365D01*
X160104905Y-88284483D01*
X160080000Y-88344610D01*
X160055095Y-88284483D01*
X159901335Y-88054365D01*
X159705635Y-87858665D01*
X159475517Y-87704905D01*
X159219823Y-87598994D01*
X158948380Y-87545000D01*
X158671620Y-87545000D01*
X158400177Y-87598994D01*
X158144483Y-87704905D01*
X157914365Y-87858665D01*
X157718665Y-88054365D01*
X157564905Y-88284483D01*
X157540000Y-88344610D01*
X157515095Y-88284483D01*
X157361335Y-88054365D01*
X157165635Y-87858665D01*
X156935517Y-87704905D01*
X156679823Y-87598994D01*
X156408380Y-87545000D01*
X156131620Y-87545000D01*
X155860177Y-87598994D01*
X155604483Y-87704905D01*
X155374365Y-87858665D01*
X155178665Y-88054365D01*
X155024905Y-88284483D01*
X155000000Y-88344610D01*
X154975095Y-88284483D01*
X154821335Y-88054365D01*
X154625635Y-87858665D01*
X154395517Y-87704905D01*
X154139823Y-87598994D01*
X153868380Y-87545000D01*
X153591620Y-87545000D01*
X153320177Y-87598994D01*
X153064483Y-87704905D01*
X152834365Y-87858665D01*
X152638665Y-88054365D01*
X152484905Y-88284483D01*
X152460000Y-88344610D01*
X152435095Y-88284483D01*
X152281335Y-88054365D01*
X152085635Y-87858665D01*
X151855517Y-87704905D01*
X151599823Y-87598994D01*
X151328380Y-87545000D01*
X151051620Y-87545000D01*
X150780177Y-87598994D01*
X150524483Y-87704905D01*
X150294365Y-87858665D01*
X150098665Y-88054365D01*
X149944905Y-88284483D01*
X149920000Y-88344610D01*
X149895095Y-88284483D01*
X149741335Y-88054365D01*
X149545635Y-87858665D01*
X149315517Y-87704905D01*
X149059823Y-87598994D01*
X148788380Y-87545000D01*
X148511620Y-87545000D01*
X148240177Y-87598994D01*
X147984483Y-87704905D01*
X147754365Y-87858665D01*
X147558665Y-88054365D01*
X147404905Y-88284483D01*
X147380000Y-88344610D01*
X147355095Y-88284483D01*
X147201335Y-88054365D01*
X147005635Y-87858665D01*
X146775517Y-87704905D01*
X146519823Y-87598994D01*
X146248380Y-87545000D01*
X145971620Y-87545000D01*
X145700177Y-87598994D01*
X145444483Y-87704905D01*
X145214365Y-87858665D01*
X145018665Y-88054365D01*
X144864905Y-88284483D01*
X144840000Y-88344610D01*
X144815095Y-88284483D01*
X144661335Y-88054365D01*
X144465635Y-87858665D01*
X144235517Y-87704905D01*
X143979823Y-87598994D01*
X143708380Y-87545000D01*
X143431620Y-87545000D01*
X143160177Y-87598994D01*
X142904483Y-87704905D01*
X142674365Y-87858665D01*
X142478665Y-88054365D01*
X142324905Y-88284483D01*
X142302374Y-88338878D01*
X142242187Y-88226276D01*
X142001278Y-88158327D01*
X141209605Y-88950000D01*
X140850395Y-88950000D01*
X140058722Y-88158327D01*
X139817813Y-88226276D01*
X139760980Y-88346976D01*
X139735095Y-88284483D01*
X139581335Y-88054365D01*
X139505692Y-87978722D01*
X140238327Y-87978722D01*
X141030000Y-88770395D01*
X141821673Y-87978722D01*
X141753724Y-87737813D01*
X141503332Y-87619913D01*
X141234750Y-87553128D01*
X140958299Y-87540023D01*
X140684605Y-87581104D01*
X140424183Y-87674790D01*
X140306276Y-87737813D01*
X140238327Y-87978722D01*
X139505692Y-87978722D01*
X139385635Y-87858665D01*
X139155517Y-87704905D01*
X138899823Y-87598994D01*
X138628380Y-87545000D01*
X138351620Y-87545000D01*
X138080177Y-87598994D01*
X137824483Y-87704905D01*
X137594365Y-87858665D01*
X137398665Y-88054365D01*
X137244905Y-88284483D01*
X137220000Y-88344610D01*
X137195095Y-88284483D01*
X137041335Y-88054365D01*
X136845635Y-87858665D01*
X136615517Y-87704905D01*
X136359823Y-87598994D01*
X136088380Y-87545000D01*
X135811620Y-87545000D01*
X135540177Y-87598994D01*
X135284483Y-87704905D01*
X135054365Y-87858665D01*
X134858665Y-88054365D01*
X134704905Y-88284483D01*
X134598994Y-88540177D01*
X134545000Y-88811620D01*
X133160000Y-88811620D01*
X133160000Y-88072279D01*
X133198909Y-87675455D01*
X133304780Y-87324792D01*
X133476744Y-87001375D01*
X133708254Y-86717516D01*
X133990486Y-86484035D01*
X134312695Y-86309817D01*
X134662614Y-86201498D01*
X135057443Y-86160000D01*
X174927721Y-86160000D01*
X175324545Y-86198909D01*
M02*
