M48
; DRILL file {KiCad (5.1.5)-3} date 8/24/2020 10:14:17 PM
; FORMAT={-:-/ absolute / inch / decimal}
; #@! TF.CreationDate,2020-08-24T22:14:17-04:00
; #@! TF.GenerationSoftware,Kicad,Pcbnew,(5.1.5)-3
; #@! TF.FileFunction,Plated,1,4,PTH
FMAT,2
INCH
T1C0.0150
T2C0.0394
T3C0.0858
%
G90
G05
T1
X5.4755Y-3.899
X5.524Y-3.898
X5.55Y-3.591
X5.553Y-3.85
X5.584Y-3.879
X5.624Y-4.258
X5.664Y-4.1
X5.706Y-3.95
X5.706Y-4.101
X5.706Y-4.328
X5.71Y-4.027
X5.74Y-3.791
X5.741Y-3.997
X5.745Y-3.891
X5.751Y-3.838
X5.762Y-3.923
X5.774Y-4.03
X5.7811Y-3.758
X5.827Y-4.147
X5.881Y-3.918
X5.89Y-3.68
X5.895Y-3.62
X5.904Y-4.342
X5.941Y-4.247
X5.945Y-3.898
X5.969Y-3.929
X5.972Y-3.634
X5.972Y-3.978
X6.017Y-4.118
X6.02Y-3.801
X6.029Y-4.079
X6.047Y-3.95
X6.07Y-3.802
X6.07Y-3.98
X6.164Y-3.978
X6.192Y-3.912
X6.196Y-4.073
X6.204Y-3.995
X6.21Y-3.67
X6.274Y-3.638
X6.275Y-4.299
X6.324Y-4.113
X6.326Y-4.178
X6.413Y-4.443
X6.433Y-4.748
X6.434Y-4.781
X6.451Y-3.758
X6.452Y-3.794
X6.459Y-3.641
X6.474Y-3.88
X6.476Y-4.119
X6.512Y-4.518
X6.522Y-4.12
X6.555Y-4.854
X6.567Y-4.811
X6.571Y-3.815
X6.573Y-3.679
X6.573Y-4.768
X6.653Y-4.855
X6.672Y-3.816
X6.706Y-4.379
X6.749Y-3.633
T2
X5.3524Y-3.602
X5.3524Y-3.702
X5.3524Y-3.802
X5.3524Y-3.902
X5.3524Y-5.002
X5.4524Y-5.002
X5.5524Y-5.002
X5.6524Y-5.002
X5.7524Y-5.002
X5.8524Y-5.002
X5.9524Y-5.002
X6.0524Y-5.002
X6.1524Y-5.002
X6.2524Y-5.002
X6.3524Y-5.002
X6.4524Y-5.002
X6.5524Y-5.002
X6.6524Y-5.002
X6.7524Y-5.002
X6.8524Y-5.002
X5.3524Y-4.602
X5.3524Y-4.702
X5.3524Y-4.802
X5.3524Y-4.902
X5.3524Y-3.502
X5.4524Y-3.502
X5.5524Y-3.502
X5.6524Y-3.502
X5.7524Y-3.502
X5.8524Y-3.502
X5.9524Y-3.502
X6.0524Y-3.502
X6.1524Y-3.502
X6.2524Y-3.502
X6.3524Y-3.502
X6.4524Y-3.502
X6.5524Y-3.502
X6.6524Y-3.502
X6.7524Y-3.502
X6.8524Y-3.502
X6.7524Y-3.905
X6.8524Y-3.605
X6.8524Y-3.705
X6.8524Y-3.805
X6.8524Y-3.905
X6.7524Y-4.602
X6.8524Y-4.602
X6.8524Y-4.702
X6.8524Y-4.802
X6.8524Y-4.902
T3
X5.3165Y-4.052
X5.3165Y-4.452
X6.8882Y-4.052
X6.8882Y-4.452
T0
M30
