G04 #@! TF.GenerationSoftware,KiCad,Pcbnew,(5.1.5)-3*
G04 #@! TF.CreationDate,2020-08-24T22:14:14-04:00*
G04 #@! TF.ProjectId,ta-ctrl,74612d63-7472-46c2-9e6b-696361645f70,v0*
G04 #@! TF.SameCoordinates,Original*
G04 #@! TF.FileFunction,Legend,Top*
G04 #@! TF.FilePolarity,Positive*
%FSLAX46Y46*%
G04 Gerber Fmt 4.6, Leading zero omitted, Abs format (unit mm)*
G04 Created by KiCad (PCBNEW (5.1.5)-3) date 2020-08-24 22:14:14*
%MOMM*%
%LPD*%
G04 APERTURE LIST*
%ADD10C,0.150000*%
%ADD11C,0.120000*%
%ADD12C,0.152400*%
%ADD13C,0.100000*%
%ADD14C,0.200000*%
%ADD15C,0.254000*%
G04 APERTURE END LIST*
D10*
X134060180Y-110983352D02*
X134060180Y-110411923D01*
X135060180Y-110697638D02*
X134060180Y-110697638D01*
X134774466Y-110126209D02*
X134774466Y-109650019D01*
X135060180Y-110221447D02*
X134060180Y-109888114D01*
X135060180Y-109554780D01*
X134964942Y-107888114D02*
X135012561Y-107935733D01*
X135060180Y-108078590D01*
X135060180Y-108173828D01*
X135012561Y-108316685D01*
X134917323Y-108411923D01*
X134822085Y-108459542D01*
X134631609Y-108507161D01*
X134488752Y-108507161D01*
X134298276Y-108459542D01*
X134203038Y-108411923D01*
X134107800Y-108316685D01*
X134060180Y-108173828D01*
X134060180Y-108078590D01*
X134107800Y-107935733D01*
X134155419Y-107888114D01*
X134060180Y-107602400D02*
X134060180Y-107030971D01*
X135060180Y-107316685D02*
X134060180Y-107316685D01*
X135060180Y-106126209D02*
X134583990Y-106459542D01*
X135060180Y-106697638D02*
X134060180Y-106697638D01*
X134060180Y-106316685D01*
X134107800Y-106221447D01*
X134155419Y-106173828D01*
X134250657Y-106126209D01*
X134393514Y-106126209D01*
X134488752Y-106173828D01*
X134536371Y-106221447D01*
X134583990Y-106316685D01*
X134583990Y-106697638D01*
X135060180Y-105221447D02*
X135060180Y-105697638D01*
X134060180Y-105697638D01*
X136043514Y-111816685D02*
X136710180Y-111578590D01*
X136043514Y-111340495D01*
X135710180Y-110769066D02*
X135710180Y-110673828D01*
X135757800Y-110578590D01*
X135805419Y-110530971D01*
X135900657Y-110483352D01*
X136091133Y-110435733D01*
X136329228Y-110435733D01*
X136519704Y-110483352D01*
X136614942Y-110530971D01*
X136662561Y-110578590D01*
X136710180Y-110673828D01*
X136710180Y-110769066D01*
X136662561Y-110864304D01*
X136614942Y-110911923D01*
X136519704Y-110959542D01*
X136329228Y-111007161D01*
X136091133Y-111007161D01*
X135900657Y-110959542D01*
X135805419Y-110911923D01*
X135757800Y-110864304D01*
X135710180Y-110769066D01*
X136614942Y-110007161D02*
X136662561Y-109959542D01*
X136710180Y-110007161D01*
X136662561Y-110054780D01*
X136614942Y-110007161D01*
X136710180Y-110007161D01*
X136710180Y-109007161D02*
X136710180Y-109578590D01*
X136710180Y-109292876D02*
X135710180Y-109292876D01*
X135853038Y-109388114D01*
X135948276Y-109483352D01*
X135995895Y-109578590D01*
X135805419Y-107864304D02*
X135757800Y-107816685D01*
X135710180Y-107721447D01*
X135710180Y-107483352D01*
X135757800Y-107388114D01*
X135805419Y-107340495D01*
X135900657Y-107292876D01*
X135995895Y-107292876D01*
X136138752Y-107340495D01*
X136710180Y-107911923D01*
X136710180Y-107292876D01*
X135710180Y-106673828D02*
X135710180Y-106578590D01*
X135757800Y-106483352D01*
X135805419Y-106435733D01*
X135900657Y-106388114D01*
X136091133Y-106340495D01*
X136329228Y-106340495D01*
X136519704Y-106388114D01*
X136614942Y-106435733D01*
X136662561Y-106483352D01*
X136710180Y-106578590D01*
X136710180Y-106673828D01*
X136662561Y-106769066D01*
X136614942Y-106816685D01*
X136519704Y-106864304D01*
X136329228Y-106911923D01*
X136091133Y-106911923D01*
X135900657Y-106864304D01*
X135805419Y-106816685D01*
X135757800Y-106769066D01*
X135710180Y-106673828D01*
X135805419Y-105959542D02*
X135757800Y-105911923D01*
X135710180Y-105816685D01*
X135710180Y-105578590D01*
X135757800Y-105483352D01*
X135805419Y-105435733D01*
X135900657Y-105388114D01*
X135995895Y-105388114D01*
X136138752Y-105435733D01*
X136710180Y-106007161D01*
X136710180Y-105388114D01*
X135710180Y-104769066D02*
X135710180Y-104673828D01*
X135757800Y-104578590D01*
X135805419Y-104530971D01*
X135900657Y-104483352D01*
X136091133Y-104435733D01*
X136329228Y-104435733D01*
X136519704Y-104483352D01*
X136614942Y-104530971D01*
X136662561Y-104578590D01*
X136710180Y-104673828D01*
X136710180Y-104769066D01*
X136662561Y-104864304D01*
X136614942Y-104911923D01*
X136519704Y-104959542D01*
X136329228Y-105007161D01*
X136091133Y-105007161D01*
X135900657Y-104959542D01*
X135805419Y-104911923D01*
X135757800Y-104864304D01*
X135710180Y-104769066D01*
X133269123Y-118200514D02*
X133269123Y-119010038D01*
X133221504Y-119105276D01*
X133173885Y-119152895D01*
X133078647Y-119200514D01*
X132935790Y-119200514D01*
X132840552Y-119152895D01*
X133269123Y-118819561D02*
X133173885Y-118867180D01*
X132983409Y-118867180D01*
X132888171Y-118819561D01*
X132840552Y-118771942D01*
X132792933Y-118676704D01*
X132792933Y-118390990D01*
X132840552Y-118295752D01*
X132888171Y-118248133D01*
X132983409Y-118200514D01*
X133173885Y-118200514D01*
X133269123Y-118248133D01*
X133745314Y-118200514D02*
X133745314Y-118867180D01*
X133745314Y-118295752D02*
X133792933Y-118248133D01*
X133888171Y-118200514D01*
X134031028Y-118200514D01*
X134126266Y-118248133D01*
X134173885Y-118343371D01*
X134173885Y-118867180D01*
X135078647Y-118867180D02*
X135078647Y-117867180D01*
X135078647Y-118819561D02*
X134983409Y-118867180D01*
X134792933Y-118867180D01*
X134697695Y-118819561D01*
X134650076Y-118771942D01*
X134602457Y-118676704D01*
X134602457Y-118390990D01*
X134650076Y-118295752D01*
X134697695Y-118248133D01*
X134792933Y-118200514D01*
X134983409Y-118200514D01*
X135078647Y-118248133D01*
X132921523Y-115752571D02*
X133254857Y-115752571D01*
X133397714Y-116276380D02*
X132921523Y-116276380D01*
X132921523Y-115276380D01*
X133397714Y-115276380D01*
X133731047Y-115276380D02*
X134397714Y-116276380D01*
X134397714Y-115276380D02*
X133731047Y-116276380D01*
X134778666Y-116276380D02*
X134778666Y-115276380D01*
X135159619Y-115276380D01*
X135254857Y-115324000D01*
X135302476Y-115371619D01*
X135350095Y-115466857D01*
X135350095Y-115609714D01*
X135302476Y-115704952D01*
X135254857Y-115752571D01*
X135159619Y-115800190D01*
X134778666Y-115800190D01*
D11*
X164693600Y-127965200D02*
X165201600Y-127050800D01*
X163372800Y-128574800D02*
X164693600Y-127965200D01*
D10*
X159183676Y-129439942D02*
X159136057Y-129487561D01*
X158993200Y-129535180D01*
X158897961Y-129535180D01*
X158755104Y-129487561D01*
X158659866Y-129392323D01*
X158612247Y-129297085D01*
X158564628Y-129106609D01*
X158564628Y-128963752D01*
X158612247Y-128773276D01*
X158659866Y-128678038D01*
X158755104Y-128582800D01*
X158897961Y-128535180D01*
X158993200Y-128535180D01*
X159136057Y-128582800D01*
X159183676Y-128630419D01*
X159755104Y-129535180D02*
X159659866Y-129487561D01*
X159612247Y-129439942D01*
X159564628Y-129344704D01*
X159564628Y-129058990D01*
X159612247Y-128963752D01*
X159659866Y-128916133D01*
X159755104Y-128868514D01*
X159897961Y-128868514D01*
X159993200Y-128916133D01*
X160040819Y-128963752D01*
X160088438Y-129058990D01*
X160088438Y-129344704D01*
X160040819Y-129439942D01*
X159993200Y-129487561D01*
X159897961Y-129535180D01*
X159755104Y-129535180D01*
X160517009Y-129439942D02*
X160564628Y-129487561D01*
X160517009Y-129535180D01*
X160469390Y-129487561D01*
X160517009Y-129439942D01*
X160517009Y-129535180D01*
X161755104Y-128868514D02*
X161755104Y-129868514D01*
X161755104Y-128916133D02*
X161850342Y-128868514D01*
X162040819Y-128868514D01*
X162136057Y-128916133D01*
X162183676Y-128963752D01*
X162231295Y-129058990D01*
X162231295Y-129344704D01*
X162183676Y-129439942D01*
X162136057Y-129487561D01*
X162040819Y-129535180D01*
X161850342Y-129535180D01*
X161755104Y-129487561D01*
X162659866Y-129535180D02*
X162659866Y-128868514D01*
X162659866Y-128535180D02*
X162612247Y-128582800D01*
X162659866Y-128630419D01*
X162707485Y-128582800D01*
X162659866Y-128535180D01*
X162659866Y-128630419D01*
X163136057Y-128868514D02*
X163136057Y-129535180D01*
X163136057Y-128963752D02*
X163183676Y-128916133D01*
X163278914Y-128868514D01*
X163421771Y-128868514D01*
X163517009Y-128916133D01*
X163564628Y-129011371D01*
X163564628Y-129535180D01*
X163993200Y-129487561D02*
X164088438Y-129535180D01*
X164278914Y-129535180D01*
X164374152Y-129487561D01*
X164421771Y-129392323D01*
X164421771Y-129344704D01*
X164374152Y-129249466D01*
X164278914Y-129201847D01*
X164136057Y-129201847D01*
X164040819Y-129154228D01*
X163993200Y-129058990D01*
X163993200Y-129011371D01*
X164040819Y-128916133D01*
X164136057Y-128868514D01*
X164278914Y-128868514D01*
X164374152Y-128916133D01*
D11*
X165201600Y-125831600D02*
X165201600Y-127050800D01*
X175158400Y-125831600D02*
X165201600Y-125831600D01*
X175158400Y-127000000D02*
X175158400Y-125831600D01*
D10*
X173747180Y-129692304D02*
X173747180Y-129120876D01*
X174747180Y-129406590D02*
X173747180Y-129406590D01*
X173747180Y-128882780D02*
X174747180Y-128216114D01*
X173747180Y-128216114D02*
X174747180Y-128882780D01*
X172054780Y-129147866D02*
X171578590Y-129481200D01*
X172054780Y-129719295D02*
X171054780Y-129719295D01*
X171054780Y-129338342D01*
X171102400Y-129243104D01*
X171150019Y-129195485D01*
X171245257Y-129147866D01*
X171388114Y-129147866D01*
X171483352Y-129195485D01*
X171530971Y-129243104D01*
X171578590Y-129338342D01*
X171578590Y-129719295D01*
X171054780Y-128814533D02*
X172054780Y-128147866D01*
X171054780Y-128147866D02*
X172054780Y-128814533D01*
X169419542Y-129681219D02*
X169467161Y-129728838D01*
X169514780Y-129871695D01*
X169514780Y-129966933D01*
X169467161Y-130109790D01*
X169371923Y-130205028D01*
X169276685Y-130252647D01*
X169086209Y-130300266D01*
X168943352Y-130300266D01*
X168752876Y-130252647D01*
X168657638Y-130205028D01*
X168562400Y-130109790D01*
X168514780Y-129966933D01*
X168514780Y-129871695D01*
X168562400Y-129728838D01*
X168610019Y-129681219D01*
X168514780Y-129395504D02*
X168514780Y-128824076D01*
X169514780Y-129109790D02*
X168514780Y-129109790D01*
X169467161Y-128538361D02*
X169514780Y-128395504D01*
X169514780Y-128157409D01*
X169467161Y-128062171D01*
X169419542Y-128014552D01*
X169324304Y-127966933D01*
X169229066Y-127966933D01*
X169133828Y-128014552D01*
X169086209Y-128062171D01*
X169038590Y-128157409D01*
X168990971Y-128347885D01*
X168943352Y-128443123D01*
X168895733Y-128490742D01*
X168800495Y-128538361D01*
X168705257Y-128538361D01*
X168610019Y-128490742D01*
X168562400Y-128443123D01*
X168514780Y-128347885D01*
X168514780Y-128109790D01*
X168562400Y-127966933D01*
X166873180Y-129681219D02*
X166396990Y-130014552D01*
X166873180Y-130252647D02*
X165873180Y-130252647D01*
X165873180Y-129871695D01*
X165920800Y-129776457D01*
X165968419Y-129728838D01*
X166063657Y-129681219D01*
X166206514Y-129681219D01*
X166301752Y-129728838D01*
X166349371Y-129776457D01*
X166396990Y-129871695D01*
X166396990Y-130252647D01*
X165873180Y-129395504D02*
X165873180Y-128824076D01*
X166873180Y-129109790D02*
X165873180Y-129109790D01*
X166825561Y-128538361D02*
X166873180Y-128395504D01*
X166873180Y-128157409D01*
X166825561Y-128062171D01*
X166777942Y-128014552D01*
X166682704Y-127966933D01*
X166587466Y-127966933D01*
X166492228Y-128014552D01*
X166444609Y-128062171D01*
X166396990Y-128157409D01*
X166349371Y-128347885D01*
X166301752Y-128443123D01*
X166254133Y-128490742D01*
X166158895Y-128538361D01*
X166063657Y-128538361D01*
X165968419Y-128490742D01*
X165920800Y-128443123D01*
X165873180Y-128347885D01*
X165873180Y-128109790D01*
X165920800Y-127966933D01*
X154070133Y-128560961D02*
X153974895Y-128608580D01*
X153784419Y-128608580D01*
X153689180Y-128560961D01*
X153641561Y-128465723D01*
X153641561Y-128084771D01*
X153689180Y-127989533D01*
X153784419Y-127941914D01*
X153974895Y-127941914D01*
X154070133Y-127989533D01*
X154117752Y-128084771D01*
X154117752Y-128180009D01*
X153641561Y-128275247D01*
X154451085Y-128608580D02*
X154974895Y-127941914D01*
X154451085Y-127941914D02*
X154974895Y-128608580D01*
X155355847Y-127941914D02*
X155355847Y-128941914D01*
X155355847Y-127989533D02*
X155451085Y-127941914D01*
X155641561Y-127941914D01*
X155736800Y-127989533D01*
X155784419Y-128037152D01*
X155832038Y-128132390D01*
X155832038Y-128418104D01*
X155784419Y-128513342D01*
X155736800Y-128560961D01*
X155641561Y-128608580D01*
X155451085Y-128608580D01*
X155355847Y-128560961D01*
X153332038Y-130258580D02*
X153332038Y-129258580D01*
X153332038Y-129639533D02*
X153427276Y-129591914D01*
X153617752Y-129591914D01*
X153712990Y-129639533D01*
X153760609Y-129687152D01*
X153808228Y-129782390D01*
X153808228Y-130068104D01*
X153760609Y-130163342D01*
X153712990Y-130210961D01*
X153617752Y-130258580D01*
X153427276Y-130258580D01*
X153332038Y-130210961D01*
X154379657Y-130258580D02*
X154284419Y-130210961D01*
X154236800Y-130163342D01*
X154189180Y-130068104D01*
X154189180Y-129782390D01*
X154236800Y-129687152D01*
X154284419Y-129639533D01*
X154379657Y-129591914D01*
X154522514Y-129591914D01*
X154617752Y-129639533D01*
X154665371Y-129687152D01*
X154712990Y-129782390D01*
X154712990Y-130068104D01*
X154665371Y-130163342D01*
X154617752Y-130210961D01*
X154522514Y-130258580D01*
X154379657Y-130258580D01*
X155284419Y-130258580D02*
X155189180Y-130210961D01*
X155141561Y-130163342D01*
X155093942Y-130068104D01*
X155093942Y-129782390D01*
X155141561Y-129687152D01*
X155189180Y-129639533D01*
X155284419Y-129591914D01*
X155427276Y-129591914D01*
X155522514Y-129639533D01*
X155570133Y-129687152D01*
X155617752Y-129782390D01*
X155617752Y-130068104D01*
X155570133Y-130163342D01*
X155522514Y-130210961D01*
X155427276Y-130258580D01*
X155284419Y-130258580D01*
X155903466Y-129591914D02*
X156284419Y-129591914D01*
X156046323Y-129258580D02*
X156046323Y-130115723D01*
X156093942Y-130210961D01*
X156189180Y-130258580D01*
X156284419Y-130258580D01*
X151322114Y-128611761D02*
X151226876Y-128659380D01*
X151036400Y-128659380D01*
X150941161Y-128611761D01*
X150893542Y-128564142D01*
X150845923Y-128468904D01*
X150845923Y-128183190D01*
X150893542Y-128087952D01*
X150941161Y-128040333D01*
X151036400Y-127992714D01*
X151226876Y-127992714D01*
X151322114Y-128040333D01*
X151893542Y-128659380D02*
X151798304Y-128611761D01*
X151750685Y-128564142D01*
X151703066Y-128468904D01*
X151703066Y-128183190D01*
X151750685Y-128087952D01*
X151798304Y-128040333D01*
X151893542Y-127992714D01*
X152036400Y-127992714D01*
X152131638Y-128040333D01*
X152179257Y-128087952D01*
X152226876Y-128183190D01*
X152226876Y-128468904D01*
X152179257Y-128564142D01*
X152131638Y-128611761D01*
X152036400Y-128659380D01*
X151893542Y-128659380D01*
X150774495Y-130309380D02*
X150774495Y-129642714D01*
X150774495Y-129833190D02*
X150822114Y-129737952D01*
X150869733Y-129690333D01*
X150964971Y-129642714D01*
X151060209Y-129642714D01*
X151345923Y-130261761D02*
X151441161Y-130309380D01*
X151631638Y-130309380D01*
X151726876Y-130261761D01*
X151774495Y-130166523D01*
X151774495Y-130118904D01*
X151726876Y-130023666D01*
X151631638Y-129976047D01*
X151488780Y-129976047D01*
X151393542Y-129928428D01*
X151345923Y-129833190D01*
X151345923Y-129785571D01*
X151393542Y-129690333D01*
X151488780Y-129642714D01*
X151631638Y-129642714D01*
X151726876Y-129690333D01*
X152060209Y-129642714D02*
X152441161Y-129642714D01*
X152203066Y-129309380D02*
X152203066Y-130166523D01*
X152250685Y-130261761D01*
X152345923Y-130309380D01*
X152441161Y-130309380D01*
X148150342Y-128043514D02*
X148150342Y-128853038D01*
X148102723Y-128948276D01*
X148055104Y-128995895D01*
X147959866Y-129043514D01*
X147817009Y-129043514D01*
X147721771Y-128995895D01*
X148150342Y-128662561D02*
X148055104Y-128710180D01*
X147864628Y-128710180D01*
X147769390Y-128662561D01*
X147721771Y-128614942D01*
X147674152Y-128519704D01*
X147674152Y-128233990D01*
X147721771Y-128138752D01*
X147769390Y-128091133D01*
X147864628Y-128043514D01*
X148055104Y-128043514D01*
X148150342Y-128091133D01*
X148626533Y-128043514D02*
X148626533Y-129043514D01*
X148626533Y-128091133D02*
X148721771Y-128043514D01*
X148912247Y-128043514D01*
X149007485Y-128091133D01*
X149055104Y-128138752D01*
X149102723Y-128233990D01*
X149102723Y-128519704D01*
X149055104Y-128614942D01*
X149007485Y-128662561D01*
X148912247Y-128710180D01*
X148721771Y-128710180D01*
X148626533Y-128662561D01*
X149483676Y-128662561D02*
X149578914Y-128710180D01*
X149769390Y-128710180D01*
X149864628Y-128662561D01*
X149912247Y-128567323D01*
X149912247Y-128519704D01*
X149864628Y-128424466D01*
X149769390Y-128376847D01*
X149626533Y-128376847D01*
X149531295Y-128329228D01*
X149483676Y-128233990D01*
X149483676Y-128186371D01*
X149531295Y-128091133D01*
X149626533Y-128043514D01*
X149769390Y-128043514D01*
X149864628Y-128091133D01*
X148531295Y-130312561D02*
X148436057Y-130360180D01*
X148245580Y-130360180D01*
X148150342Y-130312561D01*
X148102723Y-130217323D01*
X148102723Y-129836371D01*
X148150342Y-129741133D01*
X148245580Y-129693514D01*
X148436057Y-129693514D01*
X148531295Y-129741133D01*
X148578914Y-129836371D01*
X148578914Y-129931609D01*
X148102723Y-130026847D01*
X149007485Y-129693514D02*
X149007485Y-130360180D01*
X149007485Y-129788752D02*
X149055104Y-129741133D01*
X149150342Y-129693514D01*
X149293200Y-129693514D01*
X149388438Y-129741133D01*
X149436057Y-129836371D01*
X149436057Y-130360180D01*
X146089714Y-128611761D02*
X145994476Y-128659380D01*
X145804000Y-128659380D01*
X145708761Y-128611761D01*
X145661142Y-128564142D01*
X145613523Y-128468904D01*
X145613523Y-128183190D01*
X145661142Y-128087952D01*
X145708761Y-128040333D01*
X145804000Y-127992714D01*
X145994476Y-127992714D01*
X146089714Y-128040333D01*
X146661142Y-128659380D02*
X146565904Y-128611761D01*
X146518285Y-128564142D01*
X146470666Y-128468904D01*
X146470666Y-128183190D01*
X146518285Y-128087952D01*
X146565904Y-128040333D01*
X146661142Y-127992714D01*
X146804000Y-127992714D01*
X146899238Y-128040333D01*
X146946857Y-128087952D01*
X146994476Y-128183190D01*
X146994476Y-128468904D01*
X146946857Y-128564142D01*
X146899238Y-128611761D01*
X146804000Y-128659380D01*
X146661142Y-128659380D01*
X146042095Y-130261761D02*
X145946857Y-130309380D01*
X145756380Y-130309380D01*
X145661142Y-130261761D01*
X145613523Y-130166523D01*
X145613523Y-129785571D01*
X145661142Y-129690333D01*
X145756380Y-129642714D01*
X145946857Y-129642714D01*
X146042095Y-129690333D01*
X146089714Y-129785571D01*
X146089714Y-129880809D01*
X145613523Y-129976047D01*
X146518285Y-129642714D02*
X146518285Y-130309380D01*
X146518285Y-129737952D02*
X146565904Y-129690333D01*
X146661142Y-129642714D01*
X146804000Y-129642714D01*
X146899238Y-129690333D01*
X146946857Y-129785571D01*
X146946857Y-130309380D01*
X142944933Y-128560961D02*
X142849695Y-128608580D01*
X142659219Y-128608580D01*
X142563980Y-128560961D01*
X142516361Y-128465723D01*
X142516361Y-128084771D01*
X142563980Y-127989533D01*
X142659219Y-127941914D01*
X142849695Y-127941914D01*
X142944933Y-127989533D01*
X142992552Y-128084771D01*
X142992552Y-128180009D01*
X142516361Y-128275247D01*
X143325885Y-128608580D02*
X143849695Y-127941914D01*
X143325885Y-127941914D02*
X143849695Y-128608580D01*
X144230647Y-127941914D02*
X144230647Y-128941914D01*
X144230647Y-127989533D02*
X144325885Y-127941914D01*
X144516361Y-127941914D01*
X144611600Y-127989533D01*
X144659219Y-128037152D01*
X144706838Y-128132390D01*
X144706838Y-128418104D01*
X144659219Y-128513342D01*
X144611600Y-128560961D01*
X144516361Y-128608580D01*
X144325885Y-128608580D01*
X144230647Y-128560961D01*
X143349695Y-130210961D02*
X143254457Y-130258580D01*
X143063980Y-130258580D01*
X142968742Y-130210961D01*
X142921123Y-130115723D01*
X142921123Y-129734771D01*
X142968742Y-129639533D01*
X143063980Y-129591914D01*
X143254457Y-129591914D01*
X143349695Y-129639533D01*
X143397314Y-129734771D01*
X143397314Y-129830009D01*
X142921123Y-129925247D01*
X143825885Y-129591914D02*
X143825885Y-130258580D01*
X143825885Y-129687152D02*
X143873504Y-129639533D01*
X143968742Y-129591914D01*
X144111600Y-129591914D01*
X144206838Y-129639533D01*
X144254457Y-129734771D01*
X144254457Y-130258580D01*
X141269980Y-129749466D02*
X140746171Y-129749466D01*
X140650933Y-129797085D01*
X140603314Y-129892323D01*
X140603314Y-130082800D01*
X140650933Y-130178038D01*
X141222361Y-129749466D02*
X141269980Y-129844704D01*
X141269980Y-130082800D01*
X141222361Y-130178038D01*
X141127123Y-130225657D01*
X141031885Y-130225657D01*
X140936647Y-130178038D01*
X140889028Y-130082800D01*
X140889028Y-129844704D01*
X140841409Y-129749466D01*
X141269980Y-128844704D02*
X140269980Y-128844704D01*
X141222361Y-128844704D02*
X141269980Y-128939942D01*
X141269980Y-129130419D01*
X141222361Y-129225657D01*
X141174742Y-129273276D01*
X141079504Y-129320895D01*
X140793790Y-129320895D01*
X140698552Y-129273276D01*
X140650933Y-129225657D01*
X140603314Y-129130419D01*
X140603314Y-128939942D01*
X140650933Y-128844704D01*
X141222361Y-127939942D02*
X141269980Y-128035180D01*
X141269980Y-128225657D01*
X141222361Y-128320895D01*
X141174742Y-128368514D01*
X141079504Y-128416133D01*
X140793790Y-128416133D01*
X140698552Y-128368514D01*
X140650933Y-128320895D01*
X140603314Y-128225657D01*
X140603314Y-128035180D01*
X140650933Y-127939942D01*
X138733161Y-130139961D02*
X138780780Y-130044723D01*
X138780780Y-129854247D01*
X138733161Y-129759009D01*
X138637923Y-129711390D01*
X138590304Y-129711390D01*
X138495066Y-129759009D01*
X138447447Y-129854247D01*
X138447447Y-129997104D01*
X138399828Y-130092342D01*
X138304590Y-130139961D01*
X138256971Y-130139961D01*
X138161733Y-130092342D01*
X138114114Y-129997104D01*
X138114114Y-129854247D01*
X138161733Y-129759009D01*
X138733161Y-128854247D02*
X138780780Y-128949485D01*
X138780780Y-129139961D01*
X138733161Y-129235200D01*
X138685542Y-129282819D01*
X138590304Y-129330438D01*
X138304590Y-129330438D01*
X138209352Y-129282819D01*
X138161733Y-129235200D01*
X138114114Y-129139961D01*
X138114114Y-128949485D01*
X138161733Y-128854247D01*
X138780780Y-128282819D02*
X138733161Y-128378057D01*
X138637923Y-128425676D01*
X137780780Y-128425676D01*
X136091561Y-130303447D02*
X136139180Y-130208209D01*
X136139180Y-130017733D01*
X136091561Y-129922495D01*
X135996323Y-129874876D01*
X135948704Y-129874876D01*
X135853466Y-129922495D01*
X135805847Y-130017733D01*
X135805847Y-130160590D01*
X135758228Y-130255828D01*
X135662990Y-130303447D01*
X135615371Y-130303447D01*
X135520133Y-130255828D01*
X135472514Y-130160590D01*
X135472514Y-130017733D01*
X135520133Y-129922495D01*
X136139180Y-129017733D02*
X135139180Y-129017733D01*
X136091561Y-129017733D02*
X136139180Y-129112971D01*
X136139180Y-129303447D01*
X136091561Y-129398685D01*
X136043942Y-129446304D01*
X135948704Y-129493923D01*
X135662990Y-129493923D01*
X135567752Y-129446304D01*
X135520133Y-129398685D01*
X135472514Y-129303447D01*
X135472514Y-129112971D01*
X135520133Y-129017733D01*
X136139180Y-128112971D02*
X135615371Y-128112971D01*
X135520133Y-128160590D01*
X135472514Y-128255828D01*
X135472514Y-128446304D01*
X135520133Y-128541542D01*
X136091561Y-128112971D02*
X136139180Y-128208209D01*
X136139180Y-128446304D01*
X136091561Y-128541542D01*
X135996323Y-128589161D01*
X135901085Y-128589161D01*
X135805847Y-128541542D01*
X135758228Y-128446304D01*
X135758228Y-128208209D01*
X135710609Y-128112971D01*
X169578400Y-117706685D02*
X169530780Y-117801923D01*
X169530780Y-117944780D01*
X169578400Y-118087638D01*
X169673638Y-118182876D01*
X169768876Y-118230495D01*
X169959352Y-118278114D01*
X170102209Y-118278114D01*
X170292685Y-118230495D01*
X170387923Y-118182876D01*
X170483161Y-118087638D01*
X170530780Y-117944780D01*
X170530780Y-117849542D01*
X170483161Y-117706685D01*
X170435542Y-117659066D01*
X170102209Y-117659066D01*
X170102209Y-117849542D01*
X170530780Y-117230495D02*
X169530780Y-117230495D01*
X169530780Y-116849542D01*
X169578400Y-116754304D01*
X169626019Y-116706685D01*
X169721257Y-116659066D01*
X169864114Y-116659066D01*
X169959352Y-116706685D01*
X170006971Y-116754304D01*
X170054590Y-116849542D01*
X170054590Y-117230495D01*
X170483161Y-116278114D02*
X170530780Y-116135257D01*
X170530780Y-115897161D01*
X170483161Y-115801923D01*
X170435542Y-115754304D01*
X170340304Y-115706685D01*
X170245066Y-115706685D01*
X170149828Y-115754304D01*
X170102209Y-115801923D01*
X170054590Y-115897161D01*
X170006971Y-116087638D01*
X169959352Y-116182876D01*
X169911733Y-116230495D01*
X169816495Y-116278114D01*
X169721257Y-116278114D01*
X169626019Y-116230495D01*
X169578400Y-116182876D01*
X169530780Y-116087638D01*
X169530780Y-115849542D01*
X169578400Y-115706685D01*
X174885504Y-116444780D02*
X175218838Y-117444780D01*
X175552171Y-116444780D01*
X176314076Y-117444780D02*
X176314076Y-116444780D01*
X176314076Y-117397161D02*
X176218838Y-117444780D01*
X176028361Y-117444780D01*
X175933123Y-117397161D01*
X175885504Y-117349542D01*
X175837885Y-117254304D01*
X175837885Y-116968590D01*
X175885504Y-116873352D01*
X175933123Y-116825733D01*
X176028361Y-116778114D01*
X176218838Y-116778114D01*
X176314076Y-116825733D01*
X177218838Y-117444780D02*
X177218838Y-116444780D01*
X177218838Y-117397161D02*
X177123600Y-117444780D01*
X176933123Y-117444780D01*
X176837885Y-117397161D01*
X176790266Y-117349542D01*
X176742647Y-117254304D01*
X176742647Y-116968590D01*
X176790266Y-116873352D01*
X176837885Y-116825733D01*
X176933123Y-116778114D01*
X177123600Y-116778114D01*
X177218838Y-116825733D01*
X175483923Y-119114914D02*
X175483923Y-119924438D01*
X175436304Y-120019676D01*
X175388685Y-120067295D01*
X175293447Y-120114914D01*
X175150590Y-120114914D01*
X175055352Y-120067295D01*
X175483923Y-119733961D02*
X175388685Y-119781580D01*
X175198209Y-119781580D01*
X175102971Y-119733961D01*
X175055352Y-119686342D01*
X175007733Y-119591104D01*
X175007733Y-119305390D01*
X175055352Y-119210152D01*
X175102971Y-119162533D01*
X175198209Y-119114914D01*
X175388685Y-119114914D01*
X175483923Y-119162533D01*
X175960114Y-119114914D02*
X175960114Y-119781580D01*
X175960114Y-119210152D02*
X176007733Y-119162533D01*
X176102971Y-119114914D01*
X176245828Y-119114914D01*
X176341066Y-119162533D01*
X176388685Y-119257771D01*
X176388685Y-119781580D01*
X177293447Y-119781580D02*
X177293447Y-118781580D01*
X177293447Y-119733961D02*
X177198209Y-119781580D01*
X177007733Y-119781580D01*
X176912495Y-119733961D01*
X176864876Y-119686342D01*
X176817257Y-119591104D01*
X176817257Y-119305390D01*
X176864876Y-119210152D01*
X176912495Y-119162533D01*
X177007733Y-119114914D01*
X177198209Y-119114914D01*
X177293447Y-119162533D01*
X175626780Y-125115580D02*
X175293447Y-124639390D01*
X175055352Y-125115580D02*
X175055352Y-124115580D01*
X175436304Y-124115580D01*
X175531542Y-124163200D01*
X175579161Y-124210819D01*
X175626780Y-124306057D01*
X175626780Y-124448914D01*
X175579161Y-124544152D01*
X175531542Y-124591771D01*
X175436304Y-124639390D01*
X175055352Y-124639390D01*
X176007733Y-125067961D02*
X176150590Y-125115580D01*
X176388685Y-125115580D01*
X176483923Y-125067961D01*
X176531542Y-125020342D01*
X176579161Y-124925104D01*
X176579161Y-124829866D01*
X176531542Y-124734628D01*
X176483923Y-124687009D01*
X176388685Y-124639390D01*
X176198209Y-124591771D01*
X176102971Y-124544152D01*
X176055352Y-124496533D01*
X176007733Y-124401295D01*
X176007733Y-124306057D01*
X176055352Y-124210819D01*
X176102971Y-124163200D01*
X176198209Y-124115580D01*
X176436304Y-124115580D01*
X176579161Y-124163200D01*
X176864876Y-124115580D02*
X177436304Y-124115580D01*
X177150590Y-125115580D02*
X177150590Y-124115580D01*
X175031542Y-121575580D02*
X175602971Y-121575580D01*
X175317257Y-122575580D02*
X175317257Y-121575580D01*
X175888685Y-122527961D02*
X176031542Y-122575580D01*
X176269638Y-122575580D01*
X176364876Y-122527961D01*
X176412495Y-122480342D01*
X176460114Y-122385104D01*
X176460114Y-122289866D01*
X176412495Y-122194628D01*
X176364876Y-122147009D01*
X176269638Y-122099390D01*
X176079161Y-122051771D01*
X175983923Y-122004152D01*
X175936304Y-121956533D01*
X175888685Y-121861295D01*
X175888685Y-121766057D01*
X175936304Y-121670819D01*
X175983923Y-121623200D01*
X176079161Y-121575580D01*
X176317257Y-121575580D01*
X176460114Y-121623200D01*
X176745828Y-121575580D02*
X177317257Y-121575580D01*
X177031542Y-122575580D02*
X177031542Y-121575580D01*
X148907904Y-90555771D02*
X149241238Y-90555771D01*
X149384095Y-91079580D02*
X148907904Y-91079580D01*
X148907904Y-90079580D01*
X149384095Y-90079580D01*
X149717428Y-91079580D02*
X150241238Y-90412914D01*
X149717428Y-90412914D02*
X150241238Y-91079580D01*
X150622190Y-90412914D02*
X150622190Y-91412914D01*
X150622190Y-90460533D02*
X150717428Y-90412914D01*
X150907904Y-90412914D01*
X151003142Y-90460533D01*
X151050761Y-90508152D01*
X151098380Y-90603390D01*
X151098380Y-90889104D01*
X151050761Y-90984342D01*
X151003142Y-91031961D01*
X150907904Y-91079580D01*
X150717428Y-91079580D01*
X150622190Y-91031961D01*
X151526952Y-90984342D02*
X151574571Y-91031961D01*
X151526952Y-91079580D01*
X151479333Y-91031961D01*
X151526952Y-90984342D01*
X151526952Y-91079580D01*
X152765047Y-90412914D02*
X152765047Y-91412914D01*
X152765047Y-90460533D02*
X152860285Y-90412914D01*
X153050761Y-90412914D01*
X153146000Y-90460533D01*
X153193619Y-90508152D01*
X153241238Y-90603390D01*
X153241238Y-90889104D01*
X153193619Y-90984342D01*
X153146000Y-91031961D01*
X153050761Y-91079580D01*
X152860285Y-91079580D01*
X152765047Y-91031961D01*
X153669809Y-91079580D02*
X153669809Y-90412914D01*
X153669809Y-90079580D02*
X153622190Y-90127200D01*
X153669809Y-90174819D01*
X153717428Y-90127200D01*
X153669809Y-90079580D01*
X153669809Y-90174819D01*
X154146000Y-90412914D02*
X154146000Y-91079580D01*
X154146000Y-90508152D02*
X154193619Y-90460533D01*
X154288857Y-90412914D01*
X154431714Y-90412914D01*
X154526952Y-90460533D01*
X154574571Y-90555771D01*
X154574571Y-91079580D01*
X155003142Y-91031961D02*
X155098380Y-91079580D01*
X155288857Y-91079580D01*
X155384095Y-91031961D01*
X155431714Y-90936723D01*
X155431714Y-90889104D01*
X155384095Y-90793866D01*
X155288857Y-90746247D01*
X155146000Y-90746247D01*
X155050761Y-90698628D01*
X155003142Y-90603390D01*
X155003142Y-90555771D01*
X155050761Y-90460533D01*
X155146000Y-90412914D01*
X155288857Y-90412914D01*
X155384095Y-90460533D01*
X165404800Y-89966800D02*
X165404800Y-89154000D01*
X149910800Y-89966800D02*
X165404800Y-89966800D01*
X149910800Y-88950800D02*
X149910800Y-89966800D01*
X164434780Y-87466419D02*
X163958590Y-87799752D01*
X164434780Y-88037847D02*
X163434780Y-88037847D01*
X163434780Y-87656895D01*
X163482400Y-87561657D01*
X163530019Y-87514038D01*
X163625257Y-87466419D01*
X163768114Y-87466419D01*
X163863352Y-87514038D01*
X163910971Y-87561657D01*
X163958590Y-87656895D01*
X163958590Y-88037847D01*
X163434780Y-87180704D02*
X163434780Y-86609276D01*
X164434780Y-86894990D02*
X163434780Y-86894990D01*
X164387161Y-86323561D02*
X164434780Y-86180704D01*
X164434780Y-85942609D01*
X164387161Y-85847371D01*
X164339542Y-85799752D01*
X164244304Y-85752133D01*
X164149066Y-85752133D01*
X164053828Y-85799752D01*
X164006209Y-85847371D01*
X163958590Y-85942609D01*
X163910971Y-86133085D01*
X163863352Y-86228323D01*
X163815733Y-86275942D01*
X163720495Y-86323561D01*
X163625257Y-86323561D01*
X163530019Y-86275942D01*
X163482400Y-86228323D01*
X163434780Y-86133085D01*
X163434780Y-85894990D01*
X163482400Y-85752133D01*
X161945580Y-87390266D02*
X161469390Y-87723600D01*
X161945580Y-87961695D02*
X160945580Y-87961695D01*
X160945580Y-87580742D01*
X160993200Y-87485504D01*
X161040819Y-87437885D01*
X161136057Y-87390266D01*
X161278914Y-87390266D01*
X161374152Y-87437885D01*
X161421771Y-87485504D01*
X161469390Y-87580742D01*
X161469390Y-87961695D01*
X160945580Y-87056933D02*
X161945580Y-86390266D01*
X160945580Y-86390266D02*
X161945580Y-87056933D01*
X158405580Y-87985504D02*
X158405580Y-87414076D01*
X159405580Y-87699790D02*
X158405580Y-87699790D01*
X158405580Y-87175980D02*
X159405580Y-86509314D01*
X158405580Y-86509314D02*
X159405580Y-87175980D01*
X156770342Y-87415619D02*
X156817961Y-87463238D01*
X156865580Y-87606095D01*
X156865580Y-87701333D01*
X156817961Y-87844190D01*
X156722723Y-87939428D01*
X156627485Y-87987047D01*
X156437009Y-88034666D01*
X156294152Y-88034666D01*
X156103676Y-87987047D01*
X156008438Y-87939428D01*
X155913200Y-87844190D01*
X155865580Y-87701333D01*
X155865580Y-87606095D01*
X155913200Y-87463238D01*
X155960819Y-87415619D01*
X155865580Y-87129904D02*
X155865580Y-86558476D01*
X156865580Y-86844190D02*
X155865580Y-86844190D01*
X156817961Y-86272761D02*
X156865580Y-86129904D01*
X156865580Y-85891809D01*
X156817961Y-85796571D01*
X156770342Y-85748952D01*
X156675104Y-85701333D01*
X156579866Y-85701333D01*
X156484628Y-85748952D01*
X156437009Y-85796571D01*
X156389390Y-85891809D01*
X156341771Y-86082285D01*
X156294152Y-86177523D01*
X156246533Y-86225142D01*
X156151295Y-86272761D01*
X156056057Y-86272761D01*
X155960819Y-86225142D01*
X155913200Y-86177523D01*
X155865580Y-86082285D01*
X155865580Y-85844190D01*
X155913200Y-85701333D01*
X154077942Y-87414076D02*
X154125561Y-87461695D01*
X154173180Y-87604552D01*
X154173180Y-87699790D01*
X154125561Y-87842647D01*
X154030323Y-87937885D01*
X153935085Y-87985504D01*
X153744609Y-88033123D01*
X153601752Y-88033123D01*
X153411276Y-87985504D01*
X153316038Y-87937885D01*
X153220800Y-87842647D01*
X153173180Y-87699790D01*
X153173180Y-87604552D01*
X153220800Y-87461695D01*
X153268419Y-87414076D01*
X154173180Y-86985504D02*
X153173180Y-86985504D01*
X154173180Y-86414076D02*
X153601752Y-86842647D01*
X153173180Y-86414076D02*
X153744609Y-86985504D01*
X151379180Y-87415619D02*
X150902990Y-87748952D01*
X151379180Y-87987047D02*
X150379180Y-87987047D01*
X150379180Y-87606095D01*
X150426800Y-87510857D01*
X150474419Y-87463238D01*
X150569657Y-87415619D01*
X150712514Y-87415619D01*
X150807752Y-87463238D01*
X150855371Y-87510857D01*
X150902990Y-87606095D01*
X150902990Y-87987047D01*
X151331561Y-87034666D02*
X151379180Y-86891809D01*
X151379180Y-86653714D01*
X151331561Y-86558476D01*
X151283942Y-86510857D01*
X151188704Y-86463238D01*
X151093466Y-86463238D01*
X150998228Y-86510857D01*
X150950609Y-86558476D01*
X150902990Y-86653714D01*
X150855371Y-86844190D01*
X150807752Y-86939428D01*
X150760133Y-86987047D01*
X150664895Y-87034666D01*
X150569657Y-87034666D01*
X150474419Y-86987047D01*
X150426800Y-86939428D01*
X150379180Y-86844190D01*
X150379180Y-86606095D01*
X150426800Y-86463238D01*
X150379180Y-86177523D02*
X150379180Y-85606095D01*
X151379180Y-85891809D02*
X150379180Y-85891809D01*
X148635980Y-87633085D02*
X147635980Y-87633085D01*
X148588361Y-87633085D02*
X148635980Y-87728323D01*
X148635980Y-87918800D01*
X148588361Y-88014038D01*
X148540742Y-88061657D01*
X148445504Y-88109276D01*
X148159790Y-88109276D01*
X148064552Y-88061657D01*
X148016933Y-88014038D01*
X147969314Y-87918800D01*
X147969314Y-87728323D01*
X148016933Y-87633085D01*
X148635980Y-87156895D02*
X147635980Y-87156895D01*
X148016933Y-87156895D02*
X147969314Y-87061657D01*
X147969314Y-86871180D01*
X148016933Y-86775942D01*
X148064552Y-86728323D01*
X148159790Y-86680704D01*
X148445504Y-86680704D01*
X148540742Y-86728323D01*
X148588361Y-86775942D01*
X148635980Y-86871180D01*
X148635980Y-87061657D01*
X148588361Y-87156895D01*
X147731219Y-86299752D02*
X147683600Y-86252133D01*
X147635980Y-86156895D01*
X147635980Y-85918800D01*
X147683600Y-85823561D01*
X147731219Y-85775942D01*
X147826457Y-85728323D01*
X147921695Y-85728323D01*
X148064552Y-85775942D01*
X148635980Y-86347371D01*
X148635980Y-85728323D01*
X146045180Y-87480685D02*
X145045180Y-87480685D01*
X145997561Y-87480685D02*
X146045180Y-87575923D01*
X146045180Y-87766400D01*
X145997561Y-87861638D01*
X145949942Y-87909257D01*
X145854704Y-87956876D01*
X145568990Y-87956876D01*
X145473752Y-87909257D01*
X145426133Y-87861638D01*
X145378514Y-87766400D01*
X145378514Y-87575923D01*
X145426133Y-87480685D01*
X146045180Y-87004495D02*
X145045180Y-87004495D01*
X145426133Y-87004495D02*
X145378514Y-86909257D01*
X145378514Y-86718780D01*
X145426133Y-86623542D01*
X145473752Y-86575923D01*
X145568990Y-86528304D01*
X145854704Y-86528304D01*
X145949942Y-86575923D01*
X145997561Y-86623542D01*
X146045180Y-86718780D01*
X146045180Y-86909257D01*
X145997561Y-87004495D01*
X146045180Y-85575923D02*
X146045180Y-86147352D01*
X146045180Y-85861638D02*
X145045180Y-85861638D01*
X145188038Y-85956876D01*
X145283276Y-86052114D01*
X145330895Y-86147352D01*
X143657580Y-87531485D02*
X142657580Y-87531485D01*
X143609961Y-87531485D02*
X143657580Y-87626723D01*
X143657580Y-87817200D01*
X143609961Y-87912438D01*
X143562342Y-87960057D01*
X143467104Y-88007676D01*
X143181390Y-88007676D01*
X143086152Y-87960057D01*
X143038533Y-87912438D01*
X142990914Y-87817200D01*
X142990914Y-87626723D01*
X143038533Y-87531485D01*
X143657580Y-87055295D02*
X142657580Y-87055295D01*
X143038533Y-87055295D02*
X142990914Y-86960057D01*
X142990914Y-86769580D01*
X143038533Y-86674342D01*
X143086152Y-86626723D01*
X143181390Y-86579104D01*
X143467104Y-86579104D01*
X143562342Y-86626723D01*
X143609961Y-86674342D01*
X143657580Y-86769580D01*
X143657580Y-86960057D01*
X143609961Y-87055295D01*
X142657580Y-85960057D02*
X142657580Y-85864819D01*
X142705200Y-85769580D01*
X142752819Y-85721961D01*
X142848057Y-85674342D01*
X143038533Y-85626723D01*
X143276628Y-85626723D01*
X143467104Y-85674342D01*
X143562342Y-85721961D01*
X143609961Y-85769580D01*
X143657580Y-85864819D01*
X143657580Y-85960057D01*
X143609961Y-86055295D01*
X143562342Y-86102914D01*
X143467104Y-86150533D01*
X143276628Y-86198152D01*
X143038533Y-86198152D01*
X142848057Y-86150533D01*
X142752819Y-86102914D01*
X142705200Y-86055295D01*
X142657580Y-85960057D01*
X140654114Y-87507676D02*
X141463638Y-87507676D01*
X141558876Y-87555295D01*
X141606495Y-87602914D01*
X141654114Y-87698152D01*
X141654114Y-87841009D01*
X141606495Y-87936247D01*
X141273161Y-87507676D02*
X141320780Y-87602914D01*
X141320780Y-87793390D01*
X141273161Y-87888628D01*
X141225542Y-87936247D01*
X141130304Y-87983866D01*
X140844590Y-87983866D01*
X140749352Y-87936247D01*
X140701733Y-87888628D01*
X140654114Y-87793390D01*
X140654114Y-87602914D01*
X140701733Y-87507676D01*
X140654114Y-87031485D02*
X141320780Y-87031485D01*
X140749352Y-87031485D02*
X140701733Y-86983866D01*
X140654114Y-86888628D01*
X140654114Y-86745771D01*
X140701733Y-86650533D01*
X140796971Y-86602914D01*
X141320780Y-86602914D01*
X141320780Y-85698152D02*
X140320780Y-85698152D01*
X141273161Y-85698152D02*
X141320780Y-85793390D01*
X141320780Y-85983866D01*
X141273161Y-86079104D01*
X141225542Y-86126723D01*
X141130304Y-86174342D01*
X140844590Y-86174342D01*
X140749352Y-86126723D01*
X140701733Y-86079104D01*
X140654114Y-85983866D01*
X140654114Y-85793390D01*
X140701733Y-85698152D01*
X133218323Y-97169314D02*
X133218323Y-97978838D01*
X133170704Y-98074076D01*
X133123085Y-98121695D01*
X133027847Y-98169314D01*
X132884990Y-98169314D01*
X132789752Y-98121695D01*
X133218323Y-97788361D02*
X133123085Y-97835980D01*
X132932609Y-97835980D01*
X132837371Y-97788361D01*
X132789752Y-97740742D01*
X132742133Y-97645504D01*
X132742133Y-97359790D01*
X132789752Y-97264552D01*
X132837371Y-97216933D01*
X132932609Y-97169314D01*
X133123085Y-97169314D01*
X133218323Y-97216933D01*
X133694514Y-97169314D02*
X133694514Y-97835980D01*
X133694514Y-97264552D02*
X133742133Y-97216933D01*
X133837371Y-97169314D01*
X133980228Y-97169314D01*
X134075466Y-97216933D01*
X134123085Y-97312171D01*
X134123085Y-97835980D01*
X135027847Y-97835980D02*
X135027847Y-96835980D01*
X135027847Y-97788361D02*
X134932609Y-97835980D01*
X134742133Y-97835980D01*
X134646895Y-97788361D01*
X134599276Y-97740742D01*
X134551657Y-97645504D01*
X134551657Y-97359790D01*
X134599276Y-97264552D01*
X134646895Y-97216933D01*
X134742133Y-97169314D01*
X134932609Y-97169314D01*
X135027847Y-97216933D01*
X133643714Y-100382342D02*
X133596095Y-100429961D01*
X133453238Y-100477580D01*
X133358000Y-100477580D01*
X133215142Y-100429961D01*
X133119904Y-100334723D01*
X133072285Y-100239485D01*
X133024666Y-100049009D01*
X133024666Y-99906152D01*
X133072285Y-99715676D01*
X133119904Y-99620438D01*
X133215142Y-99525200D01*
X133358000Y-99477580D01*
X133453238Y-99477580D01*
X133596095Y-99525200D01*
X133643714Y-99572819D01*
X134262761Y-99477580D02*
X134453238Y-99477580D01*
X134548476Y-99525200D01*
X134643714Y-99620438D01*
X134691333Y-99810914D01*
X134691333Y-100144247D01*
X134643714Y-100334723D01*
X134548476Y-100429961D01*
X134453238Y-100477580D01*
X134262761Y-100477580D01*
X134167523Y-100429961D01*
X134072285Y-100334723D01*
X134024666Y-100144247D01*
X134024666Y-99810914D01*
X134072285Y-99620438D01*
X134167523Y-99525200D01*
X134262761Y-99477580D01*
D11*
X163675600Y-114899221D02*
X163675600Y-115224779D01*
X164695600Y-114899221D02*
X164695600Y-115224779D01*
X161491200Y-114848421D02*
X161491200Y-115173979D01*
X162511200Y-114848421D02*
X162511200Y-115173979D01*
D12*
X141478899Y-102974600D02*
X141859899Y-102974600D01*
X141478899Y-103228600D02*
X141478899Y-102974600D01*
X141859899Y-103228600D02*
X141478899Y-103228600D01*
X141859899Y-102974600D02*
X141859899Y-103228600D01*
X141048900Y-99412600D02*
X141429900Y-99412600D01*
X141048900Y-99158600D02*
X141048900Y-99412600D01*
X141429900Y-99158600D02*
X141048900Y-99158600D01*
X141429900Y-99412600D02*
X141429900Y-99158600D01*
D11*
X163393906Y-102336600D02*
G75*
G03X163393906Y-102336600I-148106J0D01*
G01*
X161417000Y-102057200D02*
X163017200Y-102057200D01*
X163030000Y-102057200D02*
X163030000Y-99999800D01*
X161404400Y-99999800D02*
X163017200Y-99999800D01*
X161404400Y-102057200D02*
X161404400Y-99999800D01*
D12*
X157220001Y-97461001D02*
G75*
G03X157220001Y-97461001I-300000J0D01*
G01*
X158245002Y-95161001D02*
G75*
G03X158245002Y-95161001I-125001J0D01*
G01*
X149420001Y-96461001D02*
X149420001Y-104961002D01*
X157920002Y-96461001D02*
X157920002Y-104961002D01*
X149420001Y-104961002D02*
X157920002Y-104961002D01*
X149420001Y-96461001D02*
X157920002Y-96461001D01*
D11*
X168275000Y-92640000D02*
X166075000Y-92640000D01*
X168275000Y-92640000D02*
X170475000Y-92640000D01*
X168275000Y-97860000D02*
X166075000Y-97860000D01*
X168275000Y-97860000D02*
X171875000Y-97860000D01*
X167782021Y-116283200D02*
X168107579Y-116283200D01*
X167782021Y-115263200D02*
X168107579Y-115263200D01*
X138609800Y-107228421D02*
X138609800Y-107553979D01*
X137589800Y-107228421D02*
X137589800Y-107553979D01*
X142339600Y-105653621D02*
X142339600Y-105979179D01*
X143359600Y-105653621D02*
X143359600Y-105979179D01*
X145290000Y-107152221D02*
X145290000Y-107477779D01*
X144270000Y-107152221D02*
X144270000Y-107477779D01*
X139748800Y-107203021D02*
X139748800Y-107528579D01*
X140768800Y-107203021D02*
X140768800Y-107528579D01*
X171575000Y-113954779D02*
X171575000Y-113629221D01*
X172595000Y-113954779D02*
X172595000Y-113629221D01*
X155788579Y-91768200D02*
X155463021Y-91768200D01*
X155788579Y-92788200D02*
X155463021Y-92788200D01*
X147775200Y-92898179D02*
X147775200Y-92572621D01*
X148795200Y-92898179D02*
X148795200Y-92572621D01*
X159869600Y-94523779D02*
X159869600Y-94198221D01*
X158849600Y-94523779D02*
X158849600Y-94198221D01*
X159920400Y-106745821D02*
X159920400Y-107071379D01*
X158900400Y-106745821D02*
X158900400Y-107071379D01*
X167257600Y-101994600D02*
X167257600Y-103694600D01*
X167257600Y-103694600D02*
X169807600Y-103694600D01*
X167257600Y-101994600D02*
X169807600Y-101994600D01*
X167731221Y-116888800D02*
X168056779Y-116888800D01*
X167731221Y-117908800D02*
X168056779Y-117908800D01*
X164607021Y-124356400D02*
X164932579Y-124356400D01*
X164607021Y-125376400D02*
X164932579Y-125376400D01*
X168620221Y-124407200D02*
X168945779Y-124407200D01*
X168620221Y-125427200D02*
X168945779Y-125427200D01*
X169280621Y-91107800D02*
X169606179Y-91107800D01*
X169280621Y-92127800D02*
X169606179Y-92127800D01*
X167934421Y-99265200D02*
X168259979Y-99265200D01*
X167934421Y-98245200D02*
X168259979Y-98245200D01*
X167909021Y-100916200D02*
X168234579Y-100916200D01*
X167909021Y-99896200D02*
X168234579Y-99896200D01*
X166004021Y-91082400D02*
X166329579Y-91082400D01*
X166004021Y-92102400D02*
X166329579Y-92102400D01*
X170432000Y-108777821D02*
X170432000Y-109103379D01*
X171452000Y-108777821D02*
X171452000Y-109103379D01*
X176633600Y-108803221D02*
X176633600Y-109128779D01*
X175613600Y-108803221D02*
X175613600Y-109128779D01*
X173937200Y-108777821D02*
X173937200Y-109103379D01*
X174957200Y-108777821D02*
X174957200Y-109103379D01*
X173255400Y-108777821D02*
X173255400Y-109103379D01*
X172235400Y-108777821D02*
X172235400Y-109103379D01*
X148334000Y-108468379D02*
X148334000Y-108142821D01*
X149354000Y-108468379D02*
X149354000Y-108142821D01*
X147322000Y-108417579D02*
X147322000Y-108092021D01*
X146302000Y-108417579D02*
X146302000Y-108092021D01*
X140743400Y-92534521D02*
X140743400Y-92860079D01*
X139723400Y-92534521D02*
X139723400Y-92860079D01*
X143152400Y-92547221D02*
X143152400Y-92872779D01*
X144172400Y-92547221D02*
X144172400Y-92872779D01*
X137945400Y-92534521D02*
X137945400Y-92860079D01*
X138965400Y-92534521D02*
X138965400Y-92860079D01*
X141437900Y-92860079D02*
X141437900Y-92534521D01*
X142457900Y-92860079D02*
X142457900Y-92534521D01*
X162511200Y-118526779D02*
X162511200Y-118201221D01*
X161491200Y-118526779D02*
X161491200Y-118201221D01*
X167843200Y-118649600D02*
X165643200Y-118649600D01*
X167843200Y-118649600D02*
X170043200Y-118649600D01*
X167843200Y-123869600D02*
X165643200Y-123869600D01*
X167843200Y-123869600D02*
X171443200Y-123869600D01*
X164395000Y-109220000D02*
X164395000Y-112820000D01*
X164395000Y-109220000D02*
X164395000Y-107020000D01*
X169615000Y-109220000D02*
X169615000Y-111420000D01*
X169615000Y-109220000D02*
X169615000Y-107020000D01*
D13*
G36*
X156514800Y-121970800D02*
G01*
X159689800Y-121970800D01*
X159689800Y-124510800D01*
X156514800Y-124510800D01*
X156514800Y-121970800D01*
G37*
X156514800Y-121970800D02*
X159689800Y-121970800D01*
X159689800Y-124510800D01*
X156514800Y-124510800D01*
X156514800Y-121970800D01*
D11*
X139369800Y-125780800D02*
X139369800Y-110540800D01*
X139369800Y-110540800D02*
X159689800Y-110540800D01*
X159689800Y-110540800D02*
X159689800Y-125780800D01*
X159689800Y-125780800D02*
X139369800Y-125780800D01*
D13*
X161505200Y-93819600D02*
X161505200Y-92819600D01*
X163005200Y-93819600D02*
X163005200Y-92819600D01*
D14*
X162155200Y-95519600D02*
X162155200Y-95519600D01*
X162355200Y-95519600D02*
X162355200Y-95519600D01*
X162355200Y-95519600D02*
G75*
G03X162155200Y-95519600I-100000J0D01*
G01*
X162155200Y-95519600D02*
G75*
G03X162355200Y-95519600I100000J0D01*
G01*
D10*
X164180780Y-118244857D02*
X163704590Y-118578190D01*
X164180780Y-118816285D02*
X163180780Y-118816285D01*
X163180780Y-118435333D01*
X163228400Y-118340095D01*
X163276019Y-118292476D01*
X163371257Y-118244857D01*
X163514114Y-118244857D01*
X163609352Y-118292476D01*
X163656971Y-118340095D01*
X163704590Y-118435333D01*
X163704590Y-118816285D01*
X163276019Y-117863904D02*
X163228400Y-117816285D01*
X163180780Y-117721047D01*
X163180780Y-117482952D01*
X163228400Y-117387714D01*
X163276019Y-117340095D01*
X163371257Y-117292476D01*
X163466495Y-117292476D01*
X163609352Y-117340095D01*
X164180780Y-117911523D01*
X164180780Y-117292476D01*
X164180780Y-116340095D02*
X164180780Y-116911523D01*
X164180780Y-116625809D02*
X163180780Y-116625809D01*
X163323638Y-116721047D01*
X163418876Y-116816285D01*
X163466495Y-116911523D01*
X162453580Y-112758457D02*
X161977390Y-113091790D01*
X162453580Y-113329885D02*
X161453580Y-113329885D01*
X161453580Y-112948933D01*
X161501200Y-112853695D01*
X161548819Y-112806076D01*
X161644057Y-112758457D01*
X161786914Y-112758457D01*
X161882152Y-112806076D01*
X161929771Y-112853695D01*
X161977390Y-112948933D01*
X161977390Y-113329885D01*
X161548819Y-112377504D02*
X161501200Y-112329885D01*
X161453580Y-112234647D01*
X161453580Y-111996552D01*
X161501200Y-111901314D01*
X161548819Y-111853695D01*
X161644057Y-111806076D01*
X161739295Y-111806076D01*
X161882152Y-111853695D01*
X162453580Y-112425123D01*
X162453580Y-111806076D01*
X161453580Y-111187028D02*
X161453580Y-111091790D01*
X161501200Y-110996552D01*
X161548819Y-110948933D01*
X161644057Y-110901314D01*
X161834533Y-110853695D01*
X162072628Y-110853695D01*
X162263104Y-110901314D01*
X162358342Y-110948933D01*
X162405961Y-110996552D01*
X162453580Y-111091790D01*
X162453580Y-111187028D01*
X162405961Y-111282266D01*
X162358342Y-111329885D01*
X162263104Y-111377504D01*
X162072628Y-111425123D01*
X161834533Y-111425123D01*
X161644057Y-111377504D01*
X161548819Y-111329885D01*
X161501200Y-111282266D01*
X161453580Y-111187028D01*
X138568180Y-102031704D02*
X139377704Y-102031704D01*
X139472942Y-101984085D01*
X139520561Y-101936466D01*
X139568180Y-101841228D01*
X139568180Y-101650752D01*
X139520561Y-101555514D01*
X139472942Y-101507895D01*
X139377704Y-101460276D01*
X138568180Y-101460276D01*
X138901514Y-100555514D02*
X139568180Y-100555514D01*
X138520561Y-100793609D02*
X139234847Y-101031704D01*
X139234847Y-100412657D01*
X144296401Y-101505980D02*
X144296401Y-101744076D01*
X144058305Y-101648838D02*
X144296401Y-101744076D01*
X144534496Y-101648838D01*
X144153543Y-101934552D02*
X144296401Y-101744076D01*
X144439258Y-101934552D01*
X144296401Y-101505980D02*
X144296401Y-101744076D01*
X144058305Y-101648838D02*
X144296401Y-101744076D01*
X144534496Y-101648838D01*
X144153543Y-101934552D02*
X144296401Y-101744076D01*
X144439258Y-101934552D01*
X162078990Y-103625590D02*
X162555180Y-103625590D01*
X161555180Y-103958923D02*
X162078990Y-103625590D01*
X161555180Y-103292257D01*
X161650419Y-103006542D02*
X161602800Y-102958923D01*
X161555180Y-102863685D01*
X161555180Y-102625590D01*
X161602800Y-102530352D01*
X161650419Y-102482733D01*
X161745657Y-102435114D01*
X161840895Y-102435114D01*
X161983752Y-102482733D01*
X162555180Y-103054161D01*
X162555180Y-102435114D01*
X147218495Y-94803980D02*
X147218495Y-95613504D01*
X147266114Y-95708742D01*
X147313733Y-95756361D01*
X147408971Y-95803980D01*
X147599447Y-95803980D01*
X147694685Y-95756361D01*
X147742304Y-95708742D01*
X147789923Y-95613504D01*
X147789923Y-94803980D01*
X148694685Y-94803980D02*
X148504209Y-94803980D01*
X148408971Y-94851600D01*
X148361352Y-94899219D01*
X148266114Y-95042076D01*
X148218495Y-95232552D01*
X148218495Y-95613504D01*
X148266114Y-95708742D01*
X148313733Y-95756361D01*
X148408971Y-95803980D01*
X148599447Y-95803980D01*
X148694685Y-95756361D01*
X148742304Y-95708742D01*
X148789923Y-95613504D01*
X148789923Y-95375409D01*
X148742304Y-95280171D01*
X148694685Y-95232552D01*
X148599447Y-95184933D01*
X148408971Y-95184933D01*
X148313733Y-95232552D01*
X148266114Y-95280171D01*
X148218495Y-95375409D01*
X153122380Y-100711000D02*
X153360476Y-100711000D01*
X153265238Y-100949095D02*
X153360476Y-100711000D01*
X153265238Y-100472904D01*
X153550952Y-100853857D02*
X153360476Y-100711000D01*
X153550952Y-100568142D01*
X164577780Y-99593304D02*
X165387304Y-99593304D01*
X165482542Y-99545685D01*
X165530161Y-99498066D01*
X165577780Y-99402828D01*
X165577780Y-99212352D01*
X165530161Y-99117114D01*
X165482542Y-99069495D01*
X165387304Y-99021876D01*
X164577780Y-99021876D01*
X164673019Y-98593304D02*
X164625400Y-98545685D01*
X164577780Y-98450447D01*
X164577780Y-98212352D01*
X164625400Y-98117114D01*
X164673019Y-98069495D01*
X164768257Y-98021876D01*
X164863495Y-98021876D01*
X165006352Y-98069495D01*
X165577780Y-98640923D01*
X165577780Y-98021876D01*
X165441333Y-116327180D02*
X165108000Y-115850990D01*
X164869904Y-116327180D02*
X164869904Y-115327180D01*
X165250857Y-115327180D01*
X165346095Y-115374800D01*
X165393714Y-115422419D01*
X165441333Y-115517657D01*
X165441333Y-115660514D01*
X165393714Y-115755752D01*
X165346095Y-115803371D01*
X165250857Y-115850990D01*
X164869904Y-115850990D01*
X165822285Y-115422419D02*
X165869904Y-115374800D01*
X165965142Y-115327180D01*
X166203238Y-115327180D01*
X166298476Y-115374800D01*
X166346095Y-115422419D01*
X166393714Y-115517657D01*
X166393714Y-115612895D01*
X166346095Y-115755752D01*
X165774666Y-116327180D01*
X166393714Y-116327180D01*
X138380742Y-104992466D02*
X138428361Y-105040085D01*
X138475980Y-105182942D01*
X138475980Y-105278180D01*
X138428361Y-105421038D01*
X138333123Y-105516276D01*
X138237885Y-105563895D01*
X138047409Y-105611514D01*
X137904552Y-105611514D01*
X137714076Y-105563895D01*
X137618838Y-105516276D01*
X137523600Y-105421038D01*
X137475980Y-105278180D01*
X137475980Y-105182942D01*
X137523600Y-105040085D01*
X137571219Y-104992466D01*
X138475980Y-104040085D02*
X138475980Y-104611514D01*
X138475980Y-104325800D02*
X137475980Y-104325800D01*
X137618838Y-104421038D01*
X137714076Y-104516276D01*
X137761695Y-104611514D01*
X143130542Y-103417666D02*
X143178161Y-103465285D01*
X143225780Y-103608142D01*
X143225780Y-103703380D01*
X143178161Y-103846238D01*
X143082923Y-103941476D01*
X142987685Y-103989095D01*
X142797209Y-104036714D01*
X142654352Y-104036714D01*
X142463876Y-103989095D01*
X142368638Y-103941476D01*
X142273400Y-103846238D01*
X142225780Y-103703380D01*
X142225780Y-103608142D01*
X142273400Y-103465285D01*
X142321019Y-103417666D01*
X142321019Y-103036714D02*
X142273400Y-102989095D01*
X142225780Y-102893857D01*
X142225780Y-102655761D01*
X142273400Y-102560523D01*
X142321019Y-102512904D01*
X142416257Y-102465285D01*
X142511495Y-102465285D01*
X142654352Y-102512904D01*
X143225780Y-103084333D01*
X143225780Y-102465285D01*
X145060942Y-104916266D02*
X145108561Y-104963885D01*
X145156180Y-105106742D01*
X145156180Y-105201980D01*
X145108561Y-105344838D01*
X145013323Y-105440076D01*
X144918085Y-105487695D01*
X144727609Y-105535314D01*
X144584752Y-105535314D01*
X144394276Y-105487695D01*
X144299038Y-105440076D01*
X144203800Y-105344838D01*
X144156180Y-105201980D01*
X144156180Y-105106742D01*
X144203800Y-104963885D01*
X144251419Y-104916266D01*
X144156180Y-104582933D02*
X144156180Y-103963885D01*
X144537133Y-104297219D01*
X144537133Y-104154361D01*
X144584752Y-104059123D01*
X144632371Y-104011504D01*
X144727609Y-103963885D01*
X144965704Y-103963885D01*
X145060942Y-104011504D01*
X145108561Y-104059123D01*
X145156180Y-104154361D01*
X145156180Y-104440076D01*
X145108561Y-104535314D01*
X145060942Y-104582933D01*
X140590542Y-105068666D02*
X140638161Y-105116285D01*
X140685780Y-105259142D01*
X140685780Y-105354380D01*
X140638161Y-105497238D01*
X140542923Y-105592476D01*
X140447685Y-105640095D01*
X140257209Y-105687714D01*
X140114352Y-105687714D01*
X139923876Y-105640095D01*
X139828638Y-105592476D01*
X139733400Y-105497238D01*
X139685780Y-105354380D01*
X139685780Y-105259142D01*
X139733400Y-105116285D01*
X139781019Y-105068666D01*
X140019114Y-104211523D02*
X140685780Y-104211523D01*
X139638161Y-104449619D02*
X140352447Y-104687714D01*
X140352447Y-104068666D01*
X171410333Y-116358942D02*
X171362714Y-116406561D01*
X171219857Y-116454180D01*
X171124619Y-116454180D01*
X170981761Y-116406561D01*
X170886523Y-116311323D01*
X170838904Y-116216085D01*
X170791285Y-116025609D01*
X170791285Y-115882752D01*
X170838904Y-115692276D01*
X170886523Y-115597038D01*
X170981761Y-115501800D01*
X171124619Y-115454180D01*
X171219857Y-115454180D01*
X171362714Y-115501800D01*
X171410333Y-115549419D01*
X172315095Y-115454180D02*
X171838904Y-115454180D01*
X171791285Y-115930371D01*
X171838904Y-115882752D01*
X171934142Y-115835133D01*
X172172238Y-115835133D01*
X172267476Y-115882752D01*
X172315095Y-115930371D01*
X172362714Y-116025609D01*
X172362714Y-116263704D01*
X172315095Y-116358942D01*
X172267476Y-116406561D01*
X172172238Y-116454180D01*
X171934142Y-116454180D01*
X171838904Y-116406561D01*
X171791285Y-116358942D01*
X152893733Y-92609942D02*
X152846114Y-92657561D01*
X152703257Y-92705180D01*
X152608019Y-92705180D01*
X152465161Y-92657561D01*
X152369923Y-92562323D01*
X152322304Y-92467085D01*
X152274685Y-92276609D01*
X152274685Y-92133752D01*
X152322304Y-91943276D01*
X152369923Y-91848038D01*
X152465161Y-91752800D01*
X152608019Y-91705180D01*
X152703257Y-91705180D01*
X152846114Y-91752800D01*
X152893733Y-91800419D01*
X153750876Y-91705180D02*
X153560400Y-91705180D01*
X153465161Y-91752800D01*
X153417542Y-91800419D01*
X153322304Y-91943276D01*
X153274685Y-92133752D01*
X153274685Y-92514704D01*
X153322304Y-92609942D01*
X153369923Y-92657561D01*
X153465161Y-92705180D01*
X153655638Y-92705180D01*
X153750876Y-92657561D01*
X153798495Y-92609942D01*
X153846114Y-92514704D01*
X153846114Y-92276609D01*
X153798495Y-92181371D01*
X153750876Y-92133752D01*
X153655638Y-92086133D01*
X153465161Y-92086133D01*
X153369923Y-92133752D01*
X153322304Y-92181371D01*
X153274685Y-92276609D01*
X161859933Y-99010742D02*
X161812314Y-99058361D01*
X161669457Y-99105980D01*
X161574219Y-99105980D01*
X161431361Y-99058361D01*
X161336123Y-98963123D01*
X161288504Y-98867885D01*
X161240885Y-98677409D01*
X161240885Y-98534552D01*
X161288504Y-98344076D01*
X161336123Y-98248838D01*
X161431361Y-98153600D01*
X161574219Y-98105980D01*
X161669457Y-98105980D01*
X161812314Y-98153600D01*
X161859933Y-98201219D01*
X162193266Y-98105980D02*
X162859933Y-98105980D01*
X162431361Y-99105980D01*
X149963142Y-92978266D02*
X150010761Y-93025885D01*
X150058380Y-93168742D01*
X150058380Y-93263980D01*
X150010761Y-93406838D01*
X149915523Y-93502076D01*
X149820285Y-93549695D01*
X149629809Y-93597314D01*
X149486952Y-93597314D01*
X149296476Y-93549695D01*
X149201238Y-93502076D01*
X149106000Y-93406838D01*
X149058380Y-93263980D01*
X149058380Y-93168742D01*
X149106000Y-93025885D01*
X149153619Y-92978266D01*
X149486952Y-92406838D02*
X149439333Y-92502076D01*
X149391714Y-92549695D01*
X149296476Y-92597314D01*
X149248857Y-92597314D01*
X149153619Y-92549695D01*
X149106000Y-92502076D01*
X149058380Y-92406838D01*
X149058380Y-92216361D01*
X149106000Y-92121123D01*
X149153619Y-92073504D01*
X149248857Y-92025885D01*
X149296476Y-92025885D01*
X149391714Y-92073504D01*
X149439333Y-92121123D01*
X149486952Y-92216361D01*
X149486952Y-92406838D01*
X149534571Y-92502076D01*
X149582190Y-92549695D01*
X149677428Y-92597314D01*
X149867904Y-92597314D01*
X149963142Y-92549695D01*
X150010761Y-92502076D01*
X150058380Y-92406838D01*
X150058380Y-92216361D01*
X150010761Y-92121123D01*
X149963142Y-92073504D01*
X149867904Y-92025885D01*
X149677428Y-92025885D01*
X149582190Y-92073504D01*
X149534571Y-92121123D01*
X149486952Y-92216361D01*
X157440333Y-91543142D02*
X157392714Y-91590761D01*
X157249857Y-91638380D01*
X157154619Y-91638380D01*
X157011761Y-91590761D01*
X156916523Y-91495523D01*
X156868904Y-91400285D01*
X156821285Y-91209809D01*
X156821285Y-91066952D01*
X156868904Y-90876476D01*
X156916523Y-90781238D01*
X157011761Y-90686000D01*
X157154619Y-90638380D01*
X157249857Y-90638380D01*
X157392714Y-90686000D01*
X157440333Y-90733619D01*
X157916523Y-91638380D02*
X158107000Y-91638380D01*
X158202238Y-91590761D01*
X158249857Y-91543142D01*
X158345095Y-91400285D01*
X158392714Y-91209809D01*
X158392714Y-90828857D01*
X158345095Y-90733619D01*
X158297476Y-90686000D01*
X158202238Y-90638380D01*
X158011761Y-90638380D01*
X157916523Y-90686000D01*
X157868904Y-90733619D01*
X157821285Y-90828857D01*
X157821285Y-91066952D01*
X157868904Y-91162190D01*
X157916523Y-91209809D01*
X158011761Y-91257428D01*
X158202238Y-91257428D01*
X158297476Y-91209809D01*
X158345095Y-91162190D01*
X158392714Y-91066952D01*
X158056342Y-92609942D02*
X158008723Y-92657561D01*
X157865866Y-92705180D01*
X157770628Y-92705180D01*
X157627771Y-92657561D01*
X157532533Y-92562323D01*
X157484914Y-92467085D01*
X157437295Y-92276609D01*
X157437295Y-92133752D01*
X157484914Y-91943276D01*
X157532533Y-91848038D01*
X157627771Y-91752800D01*
X157770628Y-91705180D01*
X157865866Y-91705180D01*
X158008723Y-91752800D01*
X158056342Y-91800419D01*
X159008723Y-92705180D02*
X158437295Y-92705180D01*
X158723009Y-92705180D02*
X158723009Y-91705180D01*
X158627771Y-91848038D01*
X158532533Y-91943276D01*
X158437295Y-91990895D01*
X159627771Y-91705180D02*
X159723009Y-91705180D01*
X159818247Y-91752800D01*
X159865866Y-91800419D01*
X159913485Y-91895657D01*
X159961104Y-92086133D01*
X159961104Y-92324228D01*
X159913485Y-92514704D01*
X159865866Y-92609942D01*
X159818247Y-92657561D01*
X159723009Y-92705180D01*
X159627771Y-92705180D01*
X159532533Y-92657561D01*
X159484914Y-92609942D01*
X159437295Y-92514704D01*
X159389676Y-92324228D01*
X159389676Y-92086133D01*
X159437295Y-91895657D01*
X159484914Y-91800419D01*
X159532533Y-91752800D01*
X159627771Y-91705180D01*
X166015942Y-103970057D02*
X166063561Y-104017676D01*
X166111180Y-104160533D01*
X166111180Y-104255771D01*
X166063561Y-104398628D01*
X165968323Y-104493866D01*
X165873085Y-104541485D01*
X165682609Y-104589104D01*
X165539752Y-104589104D01*
X165349276Y-104541485D01*
X165254038Y-104493866D01*
X165158800Y-104398628D01*
X165111180Y-104255771D01*
X165111180Y-104160533D01*
X165158800Y-104017676D01*
X165206419Y-103970057D01*
X166111180Y-103017676D02*
X166111180Y-103589104D01*
X166111180Y-103303390D02*
X165111180Y-103303390D01*
X165254038Y-103398628D01*
X165349276Y-103493866D01*
X165396895Y-103589104D01*
X166111180Y-102065295D02*
X166111180Y-102636723D01*
X166111180Y-102351009D02*
X165111180Y-102351009D01*
X165254038Y-102446247D01*
X165349276Y-102541485D01*
X165396895Y-102636723D01*
X161197542Y-108821457D02*
X161245161Y-108869076D01*
X161292780Y-109011933D01*
X161292780Y-109107171D01*
X161245161Y-109250028D01*
X161149923Y-109345266D01*
X161054685Y-109392885D01*
X160864209Y-109440504D01*
X160721352Y-109440504D01*
X160530876Y-109392885D01*
X160435638Y-109345266D01*
X160340400Y-109250028D01*
X160292780Y-109107171D01*
X160292780Y-109011933D01*
X160340400Y-108869076D01*
X160388019Y-108821457D01*
X161292780Y-107869076D02*
X161292780Y-108440504D01*
X161292780Y-108154790D02*
X160292780Y-108154790D01*
X160435638Y-108250028D01*
X160530876Y-108345266D01*
X160578495Y-108440504D01*
X160388019Y-107488123D02*
X160340400Y-107440504D01*
X160292780Y-107345266D01*
X160292780Y-107107171D01*
X160340400Y-107011933D01*
X160388019Y-106964314D01*
X160483257Y-106916695D01*
X160578495Y-106916695D01*
X160721352Y-106964314D01*
X161292780Y-107535742D01*
X161292780Y-106916695D01*
X164593542Y-104071657D02*
X164641161Y-104119276D01*
X164688780Y-104262133D01*
X164688780Y-104357371D01*
X164641161Y-104500228D01*
X164545923Y-104595466D01*
X164450685Y-104643085D01*
X164260209Y-104690704D01*
X164117352Y-104690704D01*
X163926876Y-104643085D01*
X163831638Y-104595466D01*
X163736400Y-104500228D01*
X163688780Y-104357371D01*
X163688780Y-104262133D01*
X163736400Y-104119276D01*
X163784019Y-104071657D01*
X164688780Y-103119276D02*
X164688780Y-103690704D01*
X164688780Y-103404990D02*
X163688780Y-103404990D01*
X163831638Y-103500228D01*
X163926876Y-103595466D01*
X163974495Y-103690704D01*
X163688780Y-102785942D02*
X163688780Y-102166895D01*
X164069733Y-102500228D01*
X164069733Y-102357371D01*
X164117352Y-102262133D01*
X164164971Y-102214514D01*
X164260209Y-102166895D01*
X164498304Y-102166895D01*
X164593542Y-102214514D01*
X164641161Y-102262133D01*
X164688780Y-102357371D01*
X164688780Y-102643085D01*
X164641161Y-102738323D01*
X164593542Y-102785942D01*
X168044904Y-104973380D02*
X168044904Y-103973380D01*
X168283000Y-103973380D01*
X168425857Y-104021000D01*
X168521095Y-104116238D01*
X168568714Y-104211476D01*
X168616333Y-104401952D01*
X168616333Y-104544809D01*
X168568714Y-104735285D01*
X168521095Y-104830523D01*
X168425857Y-104925761D01*
X168283000Y-104973380D01*
X168044904Y-104973380D01*
X169568714Y-104973380D02*
X168997285Y-104973380D01*
X169283000Y-104973380D02*
X169283000Y-103973380D01*
X169187761Y-104116238D01*
X169092523Y-104211476D01*
X168997285Y-104259095D01*
X133524666Y-88657180D02*
X133524666Y-89371466D01*
X133477047Y-89514323D01*
X133381809Y-89609561D01*
X133238952Y-89657180D01*
X133143714Y-89657180D01*
X134524666Y-89657180D02*
X133953238Y-89657180D01*
X134238952Y-89657180D02*
X134238952Y-88657180D01*
X134143714Y-88800038D01*
X134048476Y-88895276D01*
X133953238Y-88942895D01*
X133727866Y-126401580D02*
X133727866Y-127115866D01*
X133680247Y-127258723D01*
X133585009Y-127353961D01*
X133442152Y-127401580D01*
X133346914Y-127401580D01*
X134156438Y-126496819D02*
X134204057Y-126449200D01*
X134299295Y-126401580D01*
X134537390Y-126401580D01*
X134632628Y-126449200D01*
X134680247Y-126496819D01*
X134727866Y-126592057D01*
X134727866Y-126687295D01*
X134680247Y-126830152D01*
X134108819Y-127401580D01*
X134727866Y-127401580D01*
X133818380Y-91824133D02*
X134532666Y-91824133D01*
X134675523Y-91871752D01*
X134770761Y-91966990D01*
X134818380Y-92109847D01*
X134818380Y-92205085D01*
X134151714Y-90919371D02*
X134818380Y-90919371D01*
X133770761Y-91157466D02*
X134485047Y-91395561D01*
X134485047Y-90776514D01*
X133970780Y-124742533D02*
X134685066Y-124742533D01*
X134827923Y-124790152D01*
X134923161Y-124885390D01*
X134970780Y-125028247D01*
X134970780Y-125123485D01*
X133970780Y-123790152D02*
X133970780Y-124266342D01*
X134446971Y-124313961D01*
X134399352Y-124266342D01*
X134351733Y-124171104D01*
X134351733Y-123933009D01*
X134399352Y-123837771D01*
X134446971Y-123790152D01*
X134542209Y-123742533D01*
X134780304Y-123742533D01*
X134875542Y-123790152D01*
X134923161Y-123837771D01*
X134970780Y-123933009D01*
X134970780Y-124171104D01*
X134923161Y-124266342D01*
X134875542Y-124313961D01*
X174001180Y-115547733D02*
X174715466Y-115547733D01*
X174858323Y-115595352D01*
X174953561Y-115690590D01*
X175001180Y-115833447D01*
X175001180Y-115928685D01*
X174001180Y-114642971D02*
X174001180Y-114833447D01*
X174048800Y-114928685D01*
X174096419Y-114976304D01*
X174239276Y-115071542D01*
X174429752Y-115119161D01*
X174810704Y-115119161D01*
X174905942Y-115071542D01*
X174953561Y-115023923D01*
X175001180Y-114928685D01*
X175001180Y-114738209D01*
X174953561Y-114642971D01*
X174905942Y-114595352D01*
X174810704Y-114547733D01*
X174572609Y-114547733D01*
X174477371Y-114595352D01*
X174429752Y-114642971D01*
X174382133Y-114738209D01*
X174382133Y-114928685D01*
X174429752Y-115023923D01*
X174477371Y-115071542D01*
X174572609Y-115119161D01*
X175982380Y-99393333D02*
X176696666Y-99393333D01*
X176839523Y-99440952D01*
X176934761Y-99536190D01*
X176982380Y-99679047D01*
X176982380Y-99774285D01*
X175982380Y-99012380D02*
X175982380Y-98345714D01*
X176982380Y-98774285D01*
X165288933Y-117978180D02*
X164955600Y-117501990D01*
X164717504Y-117978180D02*
X164717504Y-116978180D01*
X165098457Y-116978180D01*
X165193695Y-117025800D01*
X165241314Y-117073419D01*
X165288933Y-117168657D01*
X165288933Y-117311514D01*
X165241314Y-117406752D01*
X165193695Y-117454371D01*
X165098457Y-117501990D01*
X164717504Y-117501990D01*
X166241314Y-117978180D02*
X165669885Y-117978180D01*
X165955600Y-117978180D02*
X165955600Y-116978180D01*
X165860361Y-117121038D01*
X165765123Y-117216276D01*
X165669885Y-117263895D01*
X163723580Y-123458266D02*
X163247390Y-123791600D01*
X163723580Y-124029695D02*
X162723580Y-124029695D01*
X162723580Y-123648742D01*
X162771200Y-123553504D01*
X162818819Y-123505885D01*
X162914057Y-123458266D01*
X163056914Y-123458266D01*
X163152152Y-123505885D01*
X163199771Y-123553504D01*
X163247390Y-123648742D01*
X163247390Y-124029695D01*
X162723580Y-123124933D02*
X162723580Y-122505885D01*
X163104533Y-122839219D01*
X163104533Y-122696361D01*
X163152152Y-122601123D01*
X163199771Y-122553504D01*
X163295009Y-122505885D01*
X163533104Y-122505885D01*
X163628342Y-122553504D01*
X163675961Y-122601123D01*
X163723580Y-122696361D01*
X163723580Y-122982076D01*
X163675961Y-123077314D01*
X163628342Y-123124933D01*
X167330380Y-125033066D02*
X166854190Y-125366400D01*
X167330380Y-125604495D02*
X166330380Y-125604495D01*
X166330380Y-125223542D01*
X166378000Y-125128304D01*
X166425619Y-125080685D01*
X166520857Y-125033066D01*
X166663714Y-125033066D01*
X166758952Y-125080685D01*
X166806571Y-125128304D01*
X166854190Y-125223542D01*
X166854190Y-125604495D01*
X166663714Y-124175923D02*
X167330380Y-124175923D01*
X166282761Y-124414019D02*
X166997047Y-124652114D01*
X166997047Y-124033066D01*
X171816733Y-91943180D02*
X171483400Y-91466990D01*
X171245304Y-91943180D02*
X171245304Y-90943180D01*
X171626257Y-90943180D01*
X171721495Y-90990800D01*
X171769114Y-91038419D01*
X171816733Y-91133657D01*
X171816733Y-91276514D01*
X171769114Y-91371752D01*
X171721495Y-91419371D01*
X171626257Y-91466990D01*
X171245304Y-91466990D01*
X172721495Y-90943180D02*
X172245304Y-90943180D01*
X172197685Y-91419371D01*
X172245304Y-91371752D01*
X172340542Y-91324133D01*
X172578638Y-91324133D01*
X172673876Y-91371752D01*
X172721495Y-91419371D01*
X172769114Y-91514609D01*
X172769114Y-91752704D01*
X172721495Y-91847942D01*
X172673876Y-91895561D01*
X172578638Y-91943180D01*
X172340542Y-91943180D01*
X172245304Y-91895561D01*
X172197685Y-91847942D01*
X170530780Y-99074266D02*
X170054590Y-99407600D01*
X170530780Y-99645695D02*
X169530780Y-99645695D01*
X169530780Y-99264742D01*
X169578400Y-99169504D01*
X169626019Y-99121885D01*
X169721257Y-99074266D01*
X169864114Y-99074266D01*
X169959352Y-99121885D01*
X170006971Y-99169504D01*
X170054590Y-99264742D01*
X170054590Y-99645695D01*
X169530780Y-98217123D02*
X169530780Y-98407600D01*
X169578400Y-98502838D01*
X169626019Y-98550457D01*
X169768876Y-98645695D01*
X169959352Y-98693314D01*
X170340304Y-98693314D01*
X170435542Y-98645695D01*
X170483161Y-98598076D01*
X170530780Y-98502838D01*
X170530780Y-98312361D01*
X170483161Y-98217123D01*
X170435542Y-98169504D01*
X170340304Y-98121885D01*
X170102209Y-98121885D01*
X170006971Y-98169504D01*
X169959352Y-98217123D01*
X169911733Y-98312361D01*
X169911733Y-98502838D01*
X169959352Y-98598076D01*
X170006971Y-98645695D01*
X170102209Y-98693314D01*
X170343533Y-101722180D02*
X170010200Y-101245990D01*
X169772104Y-101722180D02*
X169772104Y-100722180D01*
X170153057Y-100722180D01*
X170248295Y-100769800D01*
X170295914Y-100817419D01*
X170343533Y-100912657D01*
X170343533Y-101055514D01*
X170295914Y-101150752D01*
X170248295Y-101198371D01*
X170153057Y-101245990D01*
X169772104Y-101245990D01*
X170676866Y-100722180D02*
X171343533Y-100722180D01*
X170914961Y-101722180D01*
X164841180Y-91708266D02*
X164364990Y-92041600D01*
X164841180Y-92279695D02*
X163841180Y-92279695D01*
X163841180Y-91898742D01*
X163888800Y-91803504D01*
X163936419Y-91755885D01*
X164031657Y-91708266D01*
X164174514Y-91708266D01*
X164269752Y-91755885D01*
X164317371Y-91803504D01*
X164364990Y-91898742D01*
X164364990Y-92279695D01*
X164269752Y-91136838D02*
X164222133Y-91232076D01*
X164174514Y-91279695D01*
X164079276Y-91327314D01*
X164031657Y-91327314D01*
X163936419Y-91279695D01*
X163888800Y-91232076D01*
X163841180Y-91136838D01*
X163841180Y-90946361D01*
X163888800Y-90851123D01*
X163936419Y-90803504D01*
X164031657Y-90755885D01*
X164079276Y-90755885D01*
X164174514Y-90803504D01*
X164222133Y-90851123D01*
X164269752Y-90946361D01*
X164269752Y-91136838D01*
X164317371Y-91232076D01*
X164364990Y-91279695D01*
X164460228Y-91327314D01*
X164650704Y-91327314D01*
X164745942Y-91279695D01*
X164793561Y-91232076D01*
X164841180Y-91136838D01*
X164841180Y-90946361D01*
X164793561Y-90851123D01*
X164745942Y-90803504D01*
X164650704Y-90755885D01*
X164460228Y-90755885D01*
X164364990Y-90803504D01*
X164317371Y-90851123D01*
X164269752Y-90946361D01*
X171546780Y-106516466D02*
X171070590Y-106849800D01*
X171546780Y-107087895D02*
X170546780Y-107087895D01*
X170546780Y-106706942D01*
X170594400Y-106611704D01*
X170642019Y-106564085D01*
X170737257Y-106516466D01*
X170880114Y-106516466D01*
X170975352Y-106564085D01*
X171022971Y-106611704D01*
X171070590Y-106706942D01*
X171070590Y-107087895D01*
X171546780Y-106040276D02*
X171546780Y-105849800D01*
X171499161Y-105754561D01*
X171451542Y-105706942D01*
X171308685Y-105611704D01*
X171118209Y-105564085D01*
X170737257Y-105564085D01*
X170642019Y-105611704D01*
X170594400Y-105659323D01*
X170546780Y-105754561D01*
X170546780Y-105945038D01*
X170594400Y-106040276D01*
X170642019Y-106087895D01*
X170737257Y-106135514D01*
X170975352Y-106135514D01*
X171070590Y-106087895D01*
X171118209Y-106040276D01*
X171165828Y-105945038D01*
X171165828Y-105754561D01*
X171118209Y-105659323D01*
X171070590Y-105611704D01*
X170975352Y-105564085D01*
X176601380Y-106738657D02*
X176125190Y-107071990D01*
X176601380Y-107310085D02*
X175601380Y-107310085D01*
X175601380Y-106929133D01*
X175649000Y-106833895D01*
X175696619Y-106786276D01*
X175791857Y-106738657D01*
X175934714Y-106738657D01*
X176029952Y-106786276D01*
X176077571Y-106833895D01*
X176125190Y-106929133D01*
X176125190Y-107310085D01*
X176601380Y-105786276D02*
X176601380Y-106357704D01*
X176601380Y-106071990D02*
X175601380Y-106071990D01*
X175744238Y-106167228D01*
X175839476Y-106262466D01*
X175887095Y-106357704D01*
X175601380Y-105167228D02*
X175601380Y-105071990D01*
X175649000Y-104976752D01*
X175696619Y-104929133D01*
X175791857Y-104881514D01*
X175982333Y-104833895D01*
X176220428Y-104833895D01*
X176410904Y-104881514D01*
X176506142Y-104929133D01*
X176553761Y-104976752D01*
X176601380Y-105071990D01*
X176601380Y-105167228D01*
X176553761Y-105262466D01*
X176506142Y-105310085D01*
X176410904Y-105357704D01*
X176220428Y-105405323D01*
X175982333Y-105405323D01*
X175791857Y-105357704D01*
X175696619Y-105310085D01*
X175649000Y-105262466D01*
X175601380Y-105167228D01*
X174823380Y-106459257D02*
X174347190Y-106792590D01*
X174823380Y-107030685D02*
X173823380Y-107030685D01*
X173823380Y-106649733D01*
X173871000Y-106554495D01*
X173918619Y-106506876D01*
X174013857Y-106459257D01*
X174156714Y-106459257D01*
X174251952Y-106506876D01*
X174299571Y-106554495D01*
X174347190Y-106649733D01*
X174347190Y-107030685D01*
X174823380Y-105506876D02*
X174823380Y-106078304D01*
X174823380Y-105792590D02*
X173823380Y-105792590D01*
X173966238Y-105887828D01*
X174061476Y-105983066D01*
X174109095Y-106078304D01*
X174823380Y-104554495D02*
X174823380Y-105125923D01*
X174823380Y-104840209D02*
X173823380Y-104840209D01*
X173966238Y-104935447D01*
X174061476Y-105030685D01*
X174109095Y-105125923D01*
X173248580Y-106687857D02*
X172772390Y-107021190D01*
X173248580Y-107259285D02*
X172248580Y-107259285D01*
X172248580Y-106878333D01*
X172296200Y-106783095D01*
X172343819Y-106735476D01*
X172439057Y-106687857D01*
X172581914Y-106687857D01*
X172677152Y-106735476D01*
X172724771Y-106783095D01*
X172772390Y-106878333D01*
X172772390Y-107259285D01*
X173248580Y-105735476D02*
X173248580Y-106306904D01*
X173248580Y-106021190D02*
X172248580Y-106021190D01*
X172391438Y-106116428D01*
X172486676Y-106211666D01*
X172534295Y-106306904D01*
X172343819Y-105354523D02*
X172296200Y-105306904D01*
X172248580Y-105211666D01*
X172248580Y-104973571D01*
X172296200Y-104878333D01*
X172343819Y-104830714D01*
X172439057Y-104783095D01*
X172534295Y-104783095D01*
X172677152Y-104830714D01*
X173248580Y-105402142D01*
X173248580Y-104783095D01*
X150871180Y-109304057D02*
X150394990Y-109637390D01*
X150871180Y-109875485D02*
X149871180Y-109875485D01*
X149871180Y-109494533D01*
X149918800Y-109399295D01*
X149966419Y-109351676D01*
X150061657Y-109304057D01*
X150204514Y-109304057D01*
X150299752Y-109351676D01*
X150347371Y-109399295D01*
X150394990Y-109494533D01*
X150394990Y-109875485D01*
X150871180Y-108351676D02*
X150871180Y-108923104D01*
X150871180Y-108637390D02*
X149871180Y-108637390D01*
X150014038Y-108732628D01*
X150109276Y-108827866D01*
X150156895Y-108923104D01*
X149871180Y-108018342D02*
X149871180Y-107399295D01*
X150252133Y-107732628D01*
X150252133Y-107589771D01*
X150299752Y-107494533D01*
X150347371Y-107446914D01*
X150442609Y-107399295D01*
X150680704Y-107399295D01*
X150775942Y-107446914D01*
X150823561Y-107494533D01*
X150871180Y-107589771D01*
X150871180Y-107875485D01*
X150823561Y-107970723D01*
X150775942Y-108018342D01*
X146756380Y-105849657D02*
X146280190Y-106182990D01*
X146756380Y-106421085D02*
X145756380Y-106421085D01*
X145756380Y-106040133D01*
X145804000Y-105944895D01*
X145851619Y-105897276D01*
X145946857Y-105849657D01*
X146089714Y-105849657D01*
X146184952Y-105897276D01*
X146232571Y-105944895D01*
X146280190Y-106040133D01*
X146280190Y-106421085D01*
X146756380Y-104897276D02*
X146756380Y-105468704D01*
X146756380Y-105182990D02*
X145756380Y-105182990D01*
X145899238Y-105278228D01*
X145994476Y-105373466D01*
X146042095Y-105468704D01*
X146089714Y-104040133D02*
X146756380Y-104040133D01*
X145708761Y-104278228D02*
X146423047Y-104516323D01*
X146423047Y-103897276D01*
X140685780Y-96515157D02*
X140209590Y-96848490D01*
X140685780Y-97086585D02*
X139685780Y-97086585D01*
X139685780Y-96705633D01*
X139733400Y-96610395D01*
X139781019Y-96562776D01*
X139876257Y-96515157D01*
X140019114Y-96515157D01*
X140114352Y-96562776D01*
X140161971Y-96610395D01*
X140209590Y-96705633D01*
X140209590Y-97086585D01*
X140685780Y-95562776D02*
X140685780Y-96134204D01*
X140685780Y-95848490D02*
X139685780Y-95848490D01*
X139828638Y-95943728D01*
X139923876Y-96038966D01*
X139971495Y-96134204D01*
X139685780Y-94658014D02*
X139685780Y-95134204D01*
X140161971Y-95181823D01*
X140114352Y-95134204D01*
X140066733Y-95038966D01*
X140066733Y-94800871D01*
X140114352Y-94705633D01*
X140161971Y-94658014D01*
X140257209Y-94610395D01*
X140495304Y-94610395D01*
X140590542Y-94658014D01*
X140638161Y-94705633D01*
X140685780Y-94800871D01*
X140685780Y-95038966D01*
X140638161Y-95134204D01*
X140590542Y-95181823D01*
X144114780Y-96527857D02*
X143638590Y-96861190D01*
X144114780Y-97099285D02*
X143114780Y-97099285D01*
X143114780Y-96718333D01*
X143162400Y-96623095D01*
X143210019Y-96575476D01*
X143305257Y-96527857D01*
X143448114Y-96527857D01*
X143543352Y-96575476D01*
X143590971Y-96623095D01*
X143638590Y-96718333D01*
X143638590Y-97099285D01*
X144114780Y-95575476D02*
X144114780Y-96146904D01*
X144114780Y-95861190D02*
X143114780Y-95861190D01*
X143257638Y-95956428D01*
X143352876Y-96051666D01*
X143400495Y-96146904D01*
X143114780Y-94718333D02*
X143114780Y-94908809D01*
X143162400Y-95004047D01*
X143210019Y-95051666D01*
X143352876Y-95146904D01*
X143543352Y-95194523D01*
X143924304Y-95194523D01*
X144019542Y-95146904D01*
X144067161Y-95099285D01*
X144114780Y-95004047D01*
X144114780Y-94813571D01*
X144067161Y-94718333D01*
X144019542Y-94670714D01*
X143924304Y-94623095D01*
X143686209Y-94623095D01*
X143590971Y-94670714D01*
X143543352Y-94718333D01*
X143495733Y-94813571D01*
X143495733Y-95004047D01*
X143543352Y-95099285D01*
X143590971Y-95146904D01*
X143686209Y-95194523D01*
X138933180Y-96629457D02*
X138456990Y-96962790D01*
X138933180Y-97200885D02*
X137933180Y-97200885D01*
X137933180Y-96819933D01*
X137980800Y-96724695D01*
X138028419Y-96677076D01*
X138123657Y-96629457D01*
X138266514Y-96629457D01*
X138361752Y-96677076D01*
X138409371Y-96724695D01*
X138456990Y-96819933D01*
X138456990Y-97200885D01*
X138933180Y-95677076D02*
X138933180Y-96248504D01*
X138933180Y-95962790D02*
X137933180Y-95962790D01*
X138076038Y-96058028D01*
X138171276Y-96153266D01*
X138218895Y-96248504D01*
X137933180Y-95343742D02*
X137933180Y-94677076D01*
X138933180Y-95105647D01*
X142438380Y-96400857D02*
X141962190Y-96734190D01*
X142438380Y-96972285D02*
X141438380Y-96972285D01*
X141438380Y-96591333D01*
X141486000Y-96496095D01*
X141533619Y-96448476D01*
X141628857Y-96400857D01*
X141771714Y-96400857D01*
X141866952Y-96448476D01*
X141914571Y-96496095D01*
X141962190Y-96591333D01*
X141962190Y-96972285D01*
X142438380Y-95448476D02*
X142438380Y-96019904D01*
X142438380Y-95734190D02*
X141438380Y-95734190D01*
X141581238Y-95829428D01*
X141676476Y-95924666D01*
X141724095Y-96019904D01*
X141866952Y-94877047D02*
X141819333Y-94972285D01*
X141771714Y-95019904D01*
X141676476Y-95067523D01*
X141628857Y-95067523D01*
X141533619Y-95019904D01*
X141486000Y-94972285D01*
X141438380Y-94877047D01*
X141438380Y-94686571D01*
X141486000Y-94591333D01*
X141533619Y-94543714D01*
X141628857Y-94496095D01*
X141676476Y-94496095D01*
X141771714Y-94543714D01*
X141819333Y-94591333D01*
X141866952Y-94686571D01*
X141866952Y-94877047D01*
X141914571Y-94972285D01*
X141962190Y-95019904D01*
X142057428Y-95067523D01*
X142247904Y-95067523D01*
X142343142Y-95019904D01*
X142390761Y-94972285D01*
X142438380Y-94877047D01*
X142438380Y-94686571D01*
X142390761Y-94591333D01*
X142343142Y-94543714D01*
X142247904Y-94496095D01*
X142057428Y-94496095D01*
X141962190Y-94543714D01*
X141914571Y-94591333D01*
X141866952Y-94686571D01*
X162402780Y-121902457D02*
X161926590Y-122235790D01*
X162402780Y-122473885D02*
X161402780Y-122473885D01*
X161402780Y-122092933D01*
X161450400Y-121997695D01*
X161498019Y-121950076D01*
X161593257Y-121902457D01*
X161736114Y-121902457D01*
X161831352Y-121950076D01*
X161878971Y-121997695D01*
X161926590Y-122092933D01*
X161926590Y-122473885D01*
X162402780Y-120950076D02*
X162402780Y-121521504D01*
X162402780Y-121235790D02*
X161402780Y-121235790D01*
X161545638Y-121331028D01*
X161640876Y-121426266D01*
X161688495Y-121521504D01*
X162402780Y-120473885D02*
X162402780Y-120283409D01*
X162355161Y-120188171D01*
X162307542Y-120140552D01*
X162164685Y-120045314D01*
X161974209Y-119997695D01*
X161593257Y-119997695D01*
X161498019Y-120045314D01*
X161450400Y-120092933D01*
X161402780Y-120188171D01*
X161402780Y-120378647D01*
X161450400Y-120473885D01*
X161498019Y-120521504D01*
X161593257Y-120569123D01*
X161831352Y-120569123D01*
X161926590Y-120521504D01*
X161974209Y-120473885D01*
X162021828Y-120378647D01*
X162021828Y-120188171D01*
X161974209Y-120092933D01*
X161926590Y-120045314D01*
X161831352Y-119997695D01*
X170789695Y-124217180D02*
X170789695Y-125026704D01*
X170837314Y-125121942D01*
X170884933Y-125169561D01*
X170980171Y-125217180D01*
X171170647Y-125217180D01*
X171265885Y-125169561D01*
X171313504Y-125121942D01*
X171361123Y-125026704D01*
X171361123Y-124217180D01*
X172361123Y-125217180D02*
X171789695Y-125217180D01*
X172075409Y-125217180D02*
X172075409Y-124217180D01*
X171980171Y-124360038D01*
X171884933Y-124455276D01*
X171789695Y-124502895D01*
X163079180Y-109981904D02*
X163888704Y-109981904D01*
X163983942Y-109934285D01*
X164031561Y-109886666D01*
X164079180Y-109791428D01*
X164079180Y-109600952D01*
X164031561Y-109505714D01*
X163983942Y-109458095D01*
X163888704Y-109410476D01*
X163079180Y-109410476D01*
X163079180Y-109029523D02*
X163079180Y-108410476D01*
X163460133Y-108743809D01*
X163460133Y-108600952D01*
X163507752Y-108505714D01*
X163555371Y-108458095D01*
X163650609Y-108410476D01*
X163888704Y-108410476D01*
X163983942Y-108458095D01*
X164031561Y-108505714D01*
X164079180Y-108600952D01*
X164079180Y-108886666D01*
X164031561Y-108981904D01*
X163983942Y-109029523D01*
X137337895Y-124598180D02*
X137337895Y-125407704D01*
X137385514Y-125502942D01*
X137433133Y-125550561D01*
X137528371Y-125598180D01*
X137718847Y-125598180D01*
X137814085Y-125550561D01*
X137861704Y-125502942D01*
X137909323Y-125407704D01*
X137909323Y-124598180D01*
X138861704Y-124598180D02*
X138385514Y-124598180D01*
X138337895Y-125074371D01*
X138385514Y-125026752D01*
X138480752Y-124979133D01*
X138718847Y-124979133D01*
X138814085Y-125026752D01*
X138861704Y-125074371D01*
X138909323Y-125169609D01*
X138909323Y-125407704D01*
X138861704Y-125502942D01*
X138814085Y-125550561D01*
X138718847Y-125598180D01*
X138480752Y-125598180D01*
X138385514Y-125550561D01*
X138337895Y-125502942D01*
D15*
X161771390Y-90755409D02*
X161771390Y-91239219D01*
X161432723Y-90223219D02*
X161771390Y-90755409D01*
X162110057Y-90223219D01*
X162980914Y-91239219D02*
X162400342Y-91239219D01*
X162690628Y-91239219D02*
X162690628Y-90223219D01*
X162593866Y-90368361D01*
X162497104Y-90465123D01*
X162400342Y-90513504D01*
M02*
