G04 #@! TF.GenerationSoftware,KiCad,Pcbnew,(5.1.5)-3*
G04 #@! TF.CreationDate,2020-07-27T23:24:25+01:00*
G04 #@! TF.ProjectId,ta-ctrl,74612d63-7472-46c2-9e6b-696361645f70,v0*
G04 #@! TF.SameCoordinates,Original*
G04 #@! TF.FileFunction,Copper,L4,Bot*
G04 #@! TF.FilePolarity,Positive*
%FSLAX46Y46*%
G04 Gerber Fmt 4.6, Leading zero omitted, Abs format (unit mm)*
G04 Created by KiCad (PCBNEW (5.1.5)-3) date 2020-07-27 23:24:25*
%MOMM*%
%LPD*%
G04 APERTURE LIST*
%ADD10C,1.540000*%
%ADD11C,2.540000*%
%ADD12C,0.635000*%
%ADD13C,0.508000*%
%ADD14C,0.304800*%
%ADD15C,0.406400*%
G04 APERTURE END LIST*
D10*
X135950000Y-88950000D03*
X138490000Y-88950000D03*
X141030000Y-88950000D03*
X143570000Y-88950000D03*
X146110000Y-88950000D03*
X148650000Y-88950000D03*
X151190000Y-88950000D03*
X153730000Y-88950000D03*
X156270000Y-88950000D03*
X158810000Y-88950000D03*
X161350000Y-88950000D03*
X163890000Y-88950000D03*
X166430000Y-88950000D03*
X168970000Y-88950000D03*
X171510000Y-88950000D03*
X174050000Y-88950000D03*
X174050000Y-127050000D03*
X171510000Y-127050000D03*
X168970000Y-127050000D03*
X166430000Y-127050000D03*
X163890000Y-127050000D03*
X161350000Y-127050000D03*
X158810000Y-127050000D03*
X156270000Y-127050000D03*
X153730000Y-127050000D03*
X151190000Y-127050000D03*
X148650000Y-127050000D03*
X146110000Y-127050000D03*
X143570000Y-127050000D03*
X141030000Y-127050000D03*
X138490000Y-127050000D03*
X135950000Y-127050000D03*
D11*
X174960000Y-113080000D03*
X135040000Y-113080000D03*
X174960000Y-102920000D03*
X135040000Y-102920000D03*
D10*
X135950000Y-124510000D03*
X135950000Y-121970000D03*
X135950000Y-119430000D03*
X135950000Y-116890000D03*
X135950000Y-99110000D03*
X135950000Y-96570000D03*
X135950000Y-94030000D03*
X135950000Y-91490000D03*
X174050000Y-121969800D03*
X174050000Y-116889800D03*
X174050000Y-119429800D03*
X174050000Y-124509800D03*
X171510000Y-116889800D03*
X174050000Y-94106200D03*
X174050000Y-99186200D03*
X174050000Y-96646200D03*
X174050000Y-91566200D03*
X171510000Y-99186200D03*
D12*
X159359600Y-92405200D03*
X149733000Y-91948000D03*
X159385000Y-109194600D03*
X162890200Y-112852200D03*
X170332400Y-111226600D03*
X164439600Y-98552000D03*
X157276800Y-99364800D03*
X171424600Y-92278200D03*
X142849600Y-108153200D03*
X151688800Y-101041200D03*
X151612600Y-99796600D03*
X151003000Y-99009200D03*
X160629600Y-104470200D03*
X149377400Y-99517200D03*
X146659600Y-102362000D03*
X164058600Y-92481400D03*
X145821400Y-101523800D03*
X144932400Y-104165400D03*
X144932400Y-100330000D03*
X145034000Y-102285800D03*
X168910000Y-123317000D03*
X172440600Y-97739200D03*
X153136600Y-103606600D03*
X152831800Y-104597200D03*
X163423600Y-121437400D03*
X148005800Y-105333800D03*
X163398200Y-120599200D03*
X150901400Y-107873800D03*
X156565600Y-101041200D03*
X166954200Y-121107200D03*
X157581600Y-101473000D03*
X166801800Y-122199400D03*
X153593800Y-100330000D03*
X163855400Y-95453200D03*
X154178000Y-101092000D03*
X163880800Y-96367600D03*
X166903400Y-96901000D03*
X152908000Y-96545400D03*
X166954200Y-93446600D03*
X154178000Y-96570800D03*
X157378400Y-103454200D03*
X165658800Y-104648000D03*
X141833600Y-98526600D03*
X146354800Y-99644200D03*
X141046200Y-97790000D03*
X145923000Y-98831400D03*
X140309600Y-99009200D03*
X145796402Y-96291400D03*
X139076799Y-99034600D03*
X146841199Y-95453200D03*
X166497000Y-123291600D03*
X164490400Y-104622600D03*
X160680400Y-106121200D03*
X157911800Y-93497400D03*
X149606000Y-93472000D03*
X140970000Y-91211400D03*
X146075400Y-97485200D03*
X143865600Y-104140000D03*
X144932400Y-109931200D03*
X149961600Y-110286800D03*
X165404800Y-114757200D03*
D13*
X135950000Y-116890000D02*
X137388600Y-118328600D01*
X137388600Y-118328600D02*
X137388600Y-123342400D01*
X139732401Y-125686201D02*
X166540799Y-125686201D01*
X137388600Y-123342400D02*
X139732401Y-125686201D01*
X166540799Y-125686201D02*
X168910000Y-123317000D01*
X168910000Y-123317000D02*
X168910000Y-123317000D01*
X171119800Y-90627200D02*
X172440600Y-91948000D01*
X172440600Y-91948000D02*
X172440600Y-97739200D01*
X172440600Y-97739200D02*
X172440600Y-97739200D01*
X135950000Y-99110000D02*
X138252200Y-96807800D01*
X138252200Y-96807800D02*
X138252200Y-91897200D01*
X138252200Y-91897200D02*
X139750800Y-90398600D01*
X139750800Y-90398600D02*
X143002000Y-90398600D01*
X143230600Y-90627200D02*
X171119800Y-90627200D01*
X143002000Y-90398600D02*
X143230600Y-90627200D01*
D14*
X162974588Y-121437400D02*
X163423600Y-121437400D01*
X162527994Y-121437400D02*
X162974588Y-121437400D01*
X148005800Y-106915206D02*
X162527994Y-121437400D01*
X148005800Y-105333800D02*
X148005800Y-106915206D01*
X162610800Y-120599200D02*
X150901400Y-107873800D01*
X163398200Y-120599200D02*
X162610800Y-120599200D01*
X158457911Y-101428305D02*
X157613606Y-100584000D01*
X158457911Y-112610911D02*
X158457911Y-101428305D01*
X166954200Y-121107200D02*
X158457911Y-112610911D01*
X157022800Y-100584000D02*
X156565600Y-101041200D01*
X157613606Y-100584000D02*
X157022800Y-100584000D01*
X158000701Y-101892101D02*
X158000701Y-113296701D01*
X157581600Y-101473000D02*
X158000701Y-101892101D01*
X158000701Y-113296701D02*
X166801800Y-122199400D01*
X166801800Y-122199400D02*
X166852600Y-122148600D01*
D13*
X174050000Y-116889800D02*
X167648200Y-123291600D01*
X167648200Y-123291600D02*
X166497000Y-123291600D01*
X166497000Y-123291600D02*
X166497000Y-123291600D01*
X164490400Y-107330200D02*
X164490400Y-104622600D01*
X164490400Y-104622600D02*
X164490400Y-104622600D01*
X164172901Y-104305101D02*
X162547299Y-104305101D01*
X164490400Y-104622600D02*
X164172901Y-104305101D01*
X162547299Y-104305101D02*
X160680400Y-106121200D01*
X160680400Y-106121200D02*
X160705800Y-106146600D01*
X162547299Y-104305101D02*
X162547299Y-98132899D01*
X162547299Y-98132899D02*
X157911800Y-93497400D01*
X157911800Y-93497400D02*
X157911800Y-93497400D01*
D14*
X149606000Y-93472000D02*
X149606000Y-93472000D01*
D13*
X149631400Y-93497400D02*
X149606000Y-93472000D01*
X157911800Y-93497400D02*
X149631400Y-93497400D01*
X147066000Y-93472000D02*
X149606000Y-93472000D01*
X140970000Y-91211400D02*
X141097000Y-91211400D01*
X143357600Y-93472000D02*
X147066000Y-93472000D01*
X141097000Y-91211400D02*
X143357600Y-93472000D01*
X144940588Y-98620012D02*
X146075400Y-97485200D01*
X142316200Y-100076000D02*
X143772188Y-98620012D01*
X143865600Y-104140000D02*
X142316200Y-102590600D01*
X143772188Y-98620012D02*
X144940588Y-98620012D01*
X142316200Y-102590600D02*
X142316200Y-100076000D01*
X146075400Y-97485200D02*
X149606000Y-93954600D01*
X149606000Y-93954600D02*
X149606000Y-93472000D01*
D15*
X145381412Y-109931200D02*
X145737012Y-110286800D01*
X144932400Y-109931200D02*
X145381412Y-109931200D01*
X145737012Y-110286800D02*
X149961600Y-110286800D01*
D13*
X170439100Y-113278900D02*
X166883100Y-113278900D01*
X170439100Y-113278900D02*
X164490400Y-107330200D01*
X174050000Y-116889800D02*
X170439100Y-113278900D01*
X166883100Y-113278900D02*
X165404800Y-114757200D01*
X165404800Y-114757200D02*
X165404800Y-114757200D01*
M02*
