G04 #@! TF.GenerationSoftware,KiCad,Pcbnew,5.1.6-c6e7f7d~87~ubuntu18.04.1*
G04 #@! TF.CreationDate,2020-08-27T11:27:32-04:00*
G04 #@! TF.ProjectId,ta-comm,74612d63-6f6d-46d2-9e6b-696361645f70,rev?*
G04 #@! TF.SameCoordinates,Original*
G04 #@! TF.FileFunction,Copper,L1,Top*
G04 #@! TF.FilePolarity,Positive*
%FSLAX46Y46*%
G04 Gerber Fmt 4.6, Leading zero omitted, Abs format (unit mm)*
G04 Created by KiCad (PCBNEW 5.1.6-c6e7f7d~87~ubuntu18.04.1) date 2020-08-27 11:27:32*
%MOMM*%
%LPD*%
G01*
G04 APERTURE LIST*
G04 #@! TA.AperFunction,ComponentPad*
%ADD10C,1.540000*%
G04 #@! TD*
G04 #@! TA.AperFunction,SMDPad,CuDef*
%ADD11R,0.900000X0.800000*%
G04 #@! TD*
G04 #@! TA.AperFunction,SMDPad,CuDef*
%ADD12R,0.700000X1.000000*%
G04 #@! TD*
G04 #@! TA.AperFunction,SMDPad,CuDef*
%ADD13R,0.800000X0.900000*%
G04 #@! TD*
G04 #@! TA.AperFunction,SMDPad,CuDef*
%ADD14R,1.000000X0.700000*%
G04 #@! TD*
G04 #@! TA.AperFunction,SMDPad,CuDef*
%ADD15R,0.800000X1.000000*%
G04 #@! TD*
G04 #@! TA.AperFunction,ComponentPad*
%ADD16C,0.609600*%
G04 #@! TD*
G04 #@! TA.AperFunction,SMDPad,CuDef*
%ADD17R,0.760000X0.260000*%
G04 #@! TD*
G04 #@! TA.AperFunction,SMDPad,CuDef*
%ADD18R,0.260000X0.760000*%
G04 #@! TD*
G04 #@! TA.AperFunction,Conductor*
%ADD19R,4.500000X4.500000*%
G04 #@! TD*
G04 #@! TA.AperFunction,Conductor*
%ADD20R,0.600000X0.250000*%
G04 #@! TD*
G04 #@! TA.AperFunction,Conductor*
%ADD21R,0.250000X0.600000*%
G04 #@! TD*
G04 #@! TA.AperFunction,Conductor*
%ADD22R,1.150000X1.150000*%
G04 #@! TD*
G04 #@! TA.AperFunction,SMDPad,CuDef*
%ADD23R,0.640000X2.080000*%
G04 #@! TD*
G04 #@! TA.AperFunction,SMDPad,CuDef*
%ADD24R,0.640000X1.170000*%
G04 #@! TD*
G04 #@! TA.AperFunction,SMDPad,CuDef*
%ADD25R,1.170000X0.640000*%
G04 #@! TD*
G04 #@! TA.AperFunction,SMDPad,CuDef*
%ADD26R,0.550000X0.500000*%
G04 #@! TD*
G04 #@! TA.AperFunction,SMDPad,CuDef*
%ADD27R,0.550000X0.400000*%
G04 #@! TD*
G04 #@! TA.AperFunction,SMDPad,CuDef*
%ADD28R,0.400000X0.550000*%
G04 #@! TD*
G04 #@! TA.AperFunction,Conductor*
%ADD29R,3.875000X3.875000*%
G04 #@! TD*
G04 #@! TA.AperFunction,SMDPad,CuDef*
%ADD30R,0.600000X1.200000*%
G04 #@! TD*
G04 #@! TA.AperFunction,SMDPad,CuDef*
%ADD31R,2.000000X1.000000*%
G04 #@! TD*
G04 #@! TA.AperFunction,ComponentPad*
%ADD32C,2.540000*%
G04 #@! TD*
G04 #@! TA.AperFunction,SMDPad,CuDef*
%ADD33R,1.000000X1.000000*%
G04 #@! TD*
G04 #@! TA.AperFunction,SMDPad,CuDef*
%ADD34R,0.800000X0.800000*%
G04 #@! TD*
G04 #@! TA.AperFunction,SMDPad,CuDef*
%ADD35R,1.000000X0.800000*%
G04 #@! TD*
G04 #@! TA.AperFunction,SMDPad,CuDef*
%ADD36R,1.500000X1.200000*%
G04 #@! TD*
G04 #@! TA.AperFunction,ViaPad*
%ADD37C,0.457200*%
G04 #@! TD*
G04 #@! TA.AperFunction,Conductor*
%ADD38C,0.203200*%
G04 #@! TD*
G04 #@! TA.AperFunction,Conductor*
%ADD39C,0.127000*%
G04 #@! TD*
G04 #@! TA.AperFunction,Conductor*
%ADD40C,0.304800*%
G04 #@! TD*
G04 APERTURE END LIST*
D10*
X174050000Y-124510000D03*
X174050000Y-121970000D03*
X174050000Y-119430000D03*
X174050000Y-116890000D03*
X171510000Y-116890000D03*
X174050000Y-91490000D03*
X174050000Y-94030000D03*
X174050000Y-96570000D03*
X174050000Y-99110000D03*
X171510000Y-99110000D03*
X135950000Y-124510000D03*
X135950000Y-121970000D03*
X135950000Y-119430000D03*
X135950000Y-116890000D03*
D11*
X149900000Y-107200000D03*
X149900000Y-105800000D03*
D12*
X135900000Y-109800000D03*
X134500000Y-109800000D03*
X139900000Y-96600000D03*
X138500000Y-96600000D03*
D13*
X142800000Y-100000000D03*
X144200000Y-100000000D03*
D14*
X142600000Y-102900000D03*
X142600000Y-101500000D03*
X144400000Y-102900000D03*
X144400000Y-101500000D03*
D11*
X142500000Y-113300000D03*
X142500000Y-114700000D03*
D13*
X146700000Y-104700000D03*
X148100000Y-104700000D03*
D12*
X146700000Y-106500000D03*
X148100000Y-106500000D03*
X146700000Y-110100000D03*
X148100000Y-110100000D03*
D13*
X152000000Y-108800000D03*
X153400000Y-108800000D03*
X152000000Y-106900000D03*
X153400000Y-106900000D03*
X152000000Y-110700000D03*
X153400000Y-110700000D03*
D14*
X155800000Y-115500000D03*
X155800000Y-114100000D03*
D13*
X156500000Y-105200000D03*
X157900000Y-105200000D03*
X156500000Y-110800000D03*
X157900000Y-110800000D03*
D14*
X162300000Y-113000000D03*
X162300000Y-114400000D03*
X164200000Y-113000000D03*
X164200000Y-114400000D03*
D13*
X168200000Y-108000000D03*
X169600000Y-108000000D03*
D12*
X167700000Y-112500000D03*
X169100000Y-112500000D03*
D15*
X138400000Y-99100000D03*
X140000000Y-99100000D03*
D16*
X142900000Y-109500000D03*
X141400000Y-109500000D03*
X139900000Y-109500000D03*
X142900000Y-108000000D03*
X141400000Y-108000000D03*
X139900000Y-108000000D03*
X142900000Y-106500000D03*
X141400000Y-106500000D03*
X139900000Y-106500000D03*
D17*
X138500000Y-106000000D03*
X138500000Y-106500000D03*
X138500000Y-107000000D03*
X138500000Y-107500000D03*
X138500000Y-108000000D03*
X138500000Y-108500000D03*
X138500000Y-109000000D03*
X138500000Y-109500000D03*
X138500000Y-110000000D03*
D18*
X139400000Y-110900000D03*
X139900000Y-110900000D03*
X140400000Y-110900000D03*
X140900000Y-110900000D03*
X141400000Y-110900000D03*
X141900000Y-110900000D03*
X142400000Y-110900000D03*
X142900000Y-110900000D03*
X143400000Y-110900000D03*
D17*
X144300000Y-110000000D03*
X144300000Y-109500000D03*
X144300000Y-109000000D03*
X144300000Y-108500000D03*
X144300000Y-108000000D03*
X144300000Y-107500000D03*
X144300000Y-107000000D03*
X144300000Y-106500000D03*
X144300000Y-106000000D03*
D18*
X143400000Y-105100000D03*
X142900000Y-105100000D03*
X142400000Y-105100000D03*
X141900000Y-105100000D03*
X141400000Y-105100000D03*
X140900000Y-105100000D03*
X140400000Y-105100000D03*
X139900000Y-105100000D03*
X139400000Y-105100000D03*
D19*
X141400000Y-108000000D03*
D16*
X156800000Y-108000000D03*
D20*
X155750000Y-107500000D03*
X155750000Y-108000000D03*
X155750000Y-108500000D03*
D21*
X156300000Y-109050000D03*
X156800000Y-109050000D03*
X157300000Y-109050000D03*
D20*
X157850000Y-108500000D03*
X157850000Y-108000000D03*
X157850000Y-107500000D03*
D21*
X157300000Y-106950000D03*
X156800000Y-106950000D03*
X156300000Y-106950000D03*
D22*
X156800000Y-108000000D03*
D23*
X162900000Y-102360000D03*
D24*
X162900000Y-98985000D03*
D25*
X160985000Y-102170000D03*
X160985000Y-100900000D03*
X160985000Y-99630000D03*
X164815000Y-99630000D03*
X164815000Y-100900000D03*
X164815000Y-102170000D03*
D16*
X161400000Y-106500000D03*
X162900000Y-106500000D03*
X164400000Y-106500000D03*
X161400000Y-108000000D03*
X162900000Y-108000000D03*
X164400000Y-108000000D03*
X161400000Y-109500000D03*
X162900000Y-109500000D03*
X164400000Y-109500000D03*
D26*
X165525000Y-110650000D03*
D27*
X165525000Y-109875000D03*
X165525000Y-109125000D03*
X165525000Y-108375000D03*
X165525000Y-107625000D03*
X165525000Y-106875000D03*
X165525000Y-106125000D03*
D26*
X165525000Y-105350000D03*
D28*
X164713000Y-105375000D03*
X163988000Y-105375000D03*
X163263000Y-105375000D03*
X162537000Y-105375000D03*
X161812000Y-105375000D03*
X161087000Y-105375000D03*
D26*
X160275000Y-105350000D03*
D27*
X160275000Y-106125000D03*
X160275000Y-106875000D03*
X160275000Y-107625000D03*
X160275000Y-108375000D03*
X160275000Y-109125000D03*
X160275000Y-109875000D03*
D26*
X160275000Y-110650000D03*
D28*
X161087000Y-110625000D03*
X161812000Y-110625000D03*
X162537000Y-110625000D03*
X163263000Y-110625000D03*
X163988000Y-110625000D03*
X164713000Y-110625000D03*
D29*
X162900000Y-108000000D03*
D10*
X174050000Y-88950000D03*
X171510000Y-88950000D03*
X168970000Y-88950000D03*
X166430000Y-88950000D03*
X163890000Y-88950000D03*
X161350000Y-88950000D03*
X158810000Y-88950000D03*
X156270000Y-88950000D03*
X153730000Y-88950000D03*
X151190000Y-88950000D03*
X148650000Y-88950000D03*
X146110000Y-88950000D03*
X143570000Y-88950000D03*
X141030000Y-88950000D03*
X138490000Y-88950000D03*
X135950000Y-88950000D03*
X174050000Y-127050000D03*
X171510000Y-127050000D03*
X168970000Y-127050000D03*
X166430000Y-127050000D03*
X163890000Y-127050000D03*
X161350000Y-127050000D03*
X158810000Y-127050000D03*
X156270000Y-127050000D03*
X153730000Y-127050000D03*
X151190000Y-127050000D03*
X148650000Y-127050000D03*
X146110000Y-127050000D03*
X143570000Y-127050000D03*
X141030000Y-127050000D03*
X138490000Y-127050000D03*
X135950000Y-127050000D03*
X135950000Y-91490000D03*
X135950000Y-94030000D03*
X135950000Y-96570000D03*
X135950000Y-99110000D03*
D30*
X171980000Y-108000000D03*
D31*
X173500000Y-109480000D03*
D30*
X175020000Y-108000000D03*
D31*
X173500000Y-106520000D03*
D32*
X174960000Y-113080000D03*
X135040000Y-113080000D03*
X174960000Y-102920000D03*
X135040000Y-102920000D03*
D33*
X149900000Y-108700000D03*
X149900000Y-110300000D03*
X151900000Y-105100000D03*
X153500000Y-105100000D03*
D34*
X139200000Y-119400000D03*
X139200000Y-117800000D03*
X142600000Y-119400000D03*
X142600000Y-117800000D03*
D15*
X136200000Y-106200000D03*
X134600000Y-106200000D03*
X136200000Y-108000000D03*
X134600000Y-108000000D03*
X140000000Y-100900000D03*
X138400000Y-100900000D03*
X140000000Y-102700000D03*
X138400000Y-102700000D03*
D35*
X138500000Y-113200000D03*
X138500000Y-114800000D03*
X140500000Y-113200000D03*
X140500000Y-114800000D03*
D15*
X142700000Y-96400000D03*
X144300000Y-96400000D03*
X144300000Y-98200000D03*
X142700000Y-98200000D03*
D35*
X144500000Y-113200000D03*
X144500000Y-114800000D03*
D15*
X146600000Y-102900000D03*
X148200000Y-102900000D03*
X167600000Y-114300000D03*
X169200000Y-114300000D03*
X169200000Y-116100000D03*
X167600000Y-116100000D03*
D36*
X151700000Y-113600000D03*
X147700000Y-113600000D03*
X147700000Y-116000000D03*
X151700000Y-116000000D03*
D37*
X133700000Y-106200000D03*
X133700000Y-109800000D03*
X137600000Y-100600000D03*
X138100000Y-103700000D03*
X145000000Y-100300000D03*
X141650000Y-101500000D03*
X145350000Y-101500000D03*
X142500000Y-115500000D03*
X140000000Y-119350000D03*
X141800000Y-119350000D03*
X146300000Y-113550000D03*
X148100000Y-109100000D03*
X148900000Y-104700000D03*
X148900000Y-106500000D03*
X149900000Y-105000000D03*
X149100000Y-102900000D03*
X154200000Y-110700000D03*
X155100000Y-107400000D03*
X155100000Y-108600000D03*
X156200000Y-109700000D03*
X157400000Y-109700000D03*
X157400000Y-106300000D03*
X156200000Y-106300000D03*
X156700000Y-114100000D03*
X161300000Y-114400000D03*
X165200000Y-114400000D03*
X159600000Y-111300000D03*
X161087000Y-111300000D03*
X161812000Y-111300000D03*
X162537000Y-111300000D03*
X163988000Y-111300000D03*
X164713000Y-111300000D03*
X166200000Y-111300000D03*
X166200000Y-106875000D03*
X166200000Y-104700000D03*
X164713000Y-104700000D03*
X163263000Y-104700000D03*
X162537000Y-104700000D03*
X161087000Y-104700000D03*
X159600000Y-104700000D03*
X159600000Y-106125000D03*
X159600000Y-108375000D03*
X159600000Y-109875000D03*
X162900000Y-98000000D03*
X160000000Y-99630000D03*
X160000000Y-102170000D03*
X162900000Y-103800000D03*
X165800000Y-102170000D03*
X165800000Y-99630000D03*
X175700000Y-108000000D03*
X173500000Y-110400000D03*
X173500000Y-105600000D03*
X170200000Y-112500000D03*
X170200000Y-114300000D03*
X156700000Y-115500000D03*
X136700000Y-109500000D03*
X139950000Y-97850000D03*
X142700000Y-95300000D03*
X144400000Y-103700000D03*
X142500000Y-112500000D03*
X146700000Y-109100000D03*
X145900000Y-106500000D03*
X145900000Y-104700000D03*
X158500000Y-107400000D03*
X161300000Y-113000000D03*
X165200000Y-113000000D03*
X159600000Y-106875000D03*
X170200000Y-116100000D03*
X136900000Y-108100000D03*
X138550000Y-104200000D03*
X139400000Y-104100000D03*
X139900000Y-103700000D03*
X141150000Y-104200000D03*
X166200000Y-109875000D03*
X141650000Y-103800000D03*
X158500000Y-108600000D03*
X142450000Y-111700000D03*
X141850000Y-111700000D03*
X139900000Y-111700000D03*
X137650000Y-110200000D03*
X137650000Y-109600000D03*
X137650000Y-109000000D03*
X133700000Y-108000000D03*
X137650000Y-107450000D03*
X166200000Y-109125000D03*
X137000000Y-106200000D03*
X137650000Y-106850000D03*
X166200000Y-108375000D03*
X137650000Y-105000000D03*
X133700000Y-106800000D03*
X133700000Y-109200000D03*
X144300000Y-97300000D03*
D38*
X134600000Y-106200000D02*
X133700000Y-106200000D01*
X142500000Y-114670000D02*
X142500000Y-115500000D01*
X148100000Y-109100000D02*
X148100000Y-110100000D01*
X147700000Y-113550000D02*
X146300000Y-113550000D01*
X148900000Y-106500000D02*
X148100000Y-106500000D01*
X148900000Y-104700000D02*
X148070000Y-104700000D01*
X149100000Y-102900000D02*
X148200000Y-102900000D01*
X145350000Y-101500000D02*
X144400000Y-101500000D01*
X141650000Y-101500000D02*
X142600000Y-101500000D01*
X138470000Y-96570000D02*
X138500000Y-96600000D01*
X135950000Y-96570000D02*
X138470000Y-96570000D01*
X149900000Y-105000000D02*
X149900000Y-105830000D01*
X153376800Y-110693200D02*
X153370000Y-110700000D01*
X155200000Y-107500000D02*
X155100000Y-107400000D01*
X155750000Y-107500000D02*
X155200000Y-107500000D01*
X155200000Y-108500000D02*
X155100000Y-108600000D01*
X155750000Y-108500000D02*
X155200000Y-108500000D01*
X156300000Y-106400000D02*
X156200000Y-106300000D01*
X156300000Y-106950000D02*
X156300000Y-106400000D01*
X157300000Y-106400000D02*
X157400000Y-106300000D01*
X157300000Y-106950000D02*
X157300000Y-106400000D01*
X156300000Y-109600000D02*
X156200000Y-109700000D01*
X156300000Y-109050000D02*
X156300000Y-109600000D01*
X157300000Y-109600000D02*
X157400000Y-109700000D01*
X157300000Y-109050000D02*
X157300000Y-109600000D01*
X156700000Y-114100000D02*
X155800000Y-114100000D01*
X161300000Y-114400000D02*
X162300000Y-114400000D01*
X165200000Y-114400000D02*
X164200000Y-114400000D01*
X159600000Y-106125000D02*
X160275000Y-106125000D01*
X159600000Y-108375000D02*
X160275000Y-108375000D01*
X159600000Y-109875000D02*
X160275000Y-109875000D01*
X159625000Y-104700000D02*
X160275000Y-105350000D01*
X159600000Y-104700000D02*
X159625000Y-104700000D01*
X159625000Y-111300000D02*
X160275000Y-110650000D01*
X159600000Y-111300000D02*
X159625000Y-111300000D01*
X161087000Y-104700000D02*
X161087000Y-105375000D01*
X162537000Y-104700000D02*
X162537000Y-105375000D01*
X163263000Y-104700000D02*
X163263000Y-105375000D01*
X164713000Y-104700000D02*
X164713000Y-105375000D01*
X166175000Y-104700000D02*
X165525000Y-105350000D01*
X166200000Y-104700000D02*
X166175000Y-104700000D01*
X166175000Y-111300000D02*
X165525000Y-110650000D01*
X166200000Y-111300000D02*
X166175000Y-111300000D01*
X166200000Y-106875000D02*
X165525000Y-106875000D01*
X164713000Y-111300000D02*
X164713000Y-110625000D01*
X163988000Y-111300000D02*
X163988000Y-110625000D01*
X162537000Y-111300000D02*
X162537000Y-110625000D01*
X161812000Y-111300000D02*
X161812000Y-110625000D01*
X161087000Y-111300000D02*
X161087000Y-110625000D01*
X162900000Y-103800000D02*
X162900000Y-102360000D01*
X160000000Y-102170000D02*
X160985000Y-102170000D01*
X160000000Y-99630000D02*
X160985000Y-99630000D01*
X162900000Y-98000000D02*
X162900000Y-98985000D01*
X165800000Y-99630000D02*
X164815000Y-99630000D01*
X165800000Y-102170000D02*
X164815000Y-102170000D01*
X173500000Y-110400000D02*
X173500000Y-109475000D01*
X175700000Y-108000000D02*
X175025000Y-108000000D01*
X173500000Y-105600000D02*
X173500000Y-106525000D01*
X138100000Y-103000000D02*
X138400000Y-102700000D01*
X138100000Y-103700000D02*
X138100000Y-103000000D01*
X144470000Y-100300000D02*
X144170000Y-100000000D01*
X145000000Y-100300000D02*
X144470000Y-100300000D01*
X133700000Y-109800000D02*
X134500000Y-109800000D01*
X138100000Y-100600000D02*
X138400000Y-100900000D01*
X137600000Y-100600000D02*
X138100000Y-100600000D01*
X154200000Y-110700000D02*
X153370000Y-110700000D01*
X169100000Y-112500000D02*
X170200000Y-112500000D01*
X169200000Y-114300000D02*
X170200000Y-114300000D01*
X139250000Y-119350000D02*
X139200000Y-119400000D01*
X140000000Y-119350000D02*
X139250000Y-119350000D01*
X142550000Y-119350000D02*
X142600000Y-119400000D01*
X141800000Y-119350000D02*
X142550000Y-119350000D01*
X142500000Y-113330000D02*
X142500000Y-112500000D01*
X142823289Y-112500000D02*
X142500000Y-112500000D01*
X144300000Y-111023289D02*
X142823289Y-112500000D01*
X144300000Y-110000000D02*
X144300000Y-111023289D01*
X146700000Y-109100000D02*
X146700000Y-110100000D01*
X146100000Y-108500000D02*
X146700000Y-109100000D01*
X144300000Y-108500000D02*
X146100000Y-108500000D01*
X145900000Y-106500000D02*
X146700000Y-106500000D01*
X145400000Y-107000000D02*
X145900000Y-106500000D01*
X144300000Y-107000000D02*
X145400000Y-107000000D01*
X145900000Y-105411482D02*
X145900000Y-105023289D01*
X144811482Y-106500000D02*
X145900000Y-105411482D01*
X145900000Y-105023289D02*
X145900000Y-104700000D01*
X144300000Y-106500000D02*
X144811482Y-106500000D01*
X146730000Y-104700000D02*
X145900000Y-104700000D01*
X142900000Y-105100000D02*
X143400000Y-105100000D01*
X144400000Y-104100000D02*
X143400000Y-105100000D01*
X144400000Y-103700000D02*
X144400000Y-104100000D01*
X144400000Y-102900000D02*
X144400000Y-103700000D01*
X142700000Y-95300000D02*
X142700000Y-96400000D01*
X139950000Y-99050000D02*
X140000000Y-99100000D01*
X139950000Y-97850000D02*
X139950000Y-99050000D01*
X139950000Y-96650000D02*
X139900000Y-96600000D01*
X139950000Y-97850000D02*
X139950000Y-96650000D01*
X158400000Y-107500000D02*
X158500000Y-107400000D01*
X157850000Y-107500000D02*
X158400000Y-107500000D01*
X161300000Y-113000000D02*
X162300000Y-113000000D01*
X165200000Y-113000000D02*
X164200000Y-113000000D01*
X162998200Y-113000000D02*
X162300000Y-113000000D01*
X163263000Y-112735200D02*
X162998200Y-113000000D01*
X163263000Y-110625000D02*
X163263000Y-112735200D01*
X163501800Y-113000000D02*
X164200000Y-113000000D01*
X163263000Y-112761200D02*
X163501800Y-113000000D01*
X163263000Y-110625000D02*
X163263000Y-112761200D01*
X159600000Y-106875000D02*
X160275000Y-106875000D01*
X136200000Y-109500000D02*
X135900000Y-109800000D01*
X136700000Y-109500000D02*
X136200000Y-109500000D01*
X136700000Y-109823289D02*
X136700000Y-109500000D01*
X136700000Y-109176711D02*
X136700000Y-109500000D01*
X138500000Y-106500000D02*
X137976658Y-106500000D01*
X137457201Y-106392799D02*
X137192799Y-106657201D01*
X137976658Y-106500000D02*
X137869457Y-106392799D01*
X137869457Y-106392799D02*
X137457201Y-106392799D01*
X137457201Y-108419510D02*
X136700000Y-109176711D01*
X137457201Y-107980543D02*
X137457201Y-108419510D01*
X137192799Y-107716141D02*
X137457201Y-107980543D01*
X137192799Y-106657201D02*
X137192799Y-107716141D01*
X136300000Y-108100000D02*
X136200000Y-108000000D01*
X136900000Y-108100000D02*
X136300000Y-108100000D01*
X136700000Y-109926658D02*
X136700000Y-109823289D01*
X137673342Y-110900000D02*
X136700000Y-109926658D01*
X139400000Y-110900000D02*
X137673342Y-110900000D01*
X169200000Y-116100000D02*
X170200000Y-116100000D01*
X152200000Y-115500000D02*
X151700000Y-116000000D01*
X155800000Y-115500000D02*
X152200000Y-115500000D01*
X156700000Y-115500000D02*
X155800000Y-115500000D01*
D39*
X142700000Y-99870000D02*
X142830000Y-100000000D01*
X142700000Y-98200000D02*
X142700000Y-99870000D01*
X142069101Y-104353899D02*
X141900000Y-104523000D01*
X142069101Y-103598831D02*
X142069101Y-104353899D01*
X141230899Y-102760629D02*
X142069101Y-103598831D01*
X141230899Y-101298831D02*
X141230899Y-102760629D01*
X141900000Y-104523000D02*
X141900000Y-105100000D01*
X142529730Y-100000000D02*
X141230899Y-101298831D01*
X142830000Y-100000000D02*
X142529730Y-100000000D01*
D38*
X142400000Y-103100000D02*
X142600000Y-102900000D01*
X142400000Y-105100000D02*
X142400000Y-103100000D01*
D40*
X149570000Y-107500000D02*
X149900000Y-107170000D01*
X144300000Y-107500000D02*
X149570000Y-107500000D01*
X151950000Y-105120000D02*
X149900000Y-107170000D01*
X151950000Y-105100000D02*
X151950000Y-105120000D01*
X149150000Y-108000000D02*
X149900000Y-108750000D01*
X144300000Y-108000000D02*
X149150000Y-108000000D01*
X151980000Y-108750000D02*
X152030000Y-108800000D01*
X149900000Y-108750000D02*
X151980000Y-108750000D01*
X153450000Y-105480000D02*
X152030000Y-106900000D01*
X153450000Y-105100000D02*
X153450000Y-105480000D01*
X153370000Y-108240000D02*
X152030000Y-106900000D01*
X153370000Y-108800000D02*
X153370000Y-108240000D01*
X154470000Y-108000000D02*
X155750000Y-108000000D01*
X153370000Y-106900000D02*
X154470000Y-108000000D01*
X150350000Y-110700000D02*
X149900000Y-110250000D01*
X152030000Y-110700000D02*
X150350000Y-110700000D01*
X156800000Y-105470000D02*
X156530000Y-105200000D01*
X156800000Y-106950000D02*
X156800000Y-105470000D01*
X159695200Y-107625000D02*
X160275000Y-107625000D01*
X159598158Y-107625000D02*
X159695200Y-107625000D01*
X157870000Y-105896842D02*
X159598158Y-107625000D01*
X157870000Y-105200000D02*
X157870000Y-105896842D01*
X156800000Y-110530000D02*
X156530000Y-110800000D01*
X156800000Y-109050000D02*
X156800000Y-110530000D01*
X157870000Y-110025200D02*
X157870000Y-110800000D01*
X158770200Y-109125000D02*
X157870000Y-110025200D01*
X160275000Y-109125000D02*
X158770200Y-109125000D01*
X169570000Y-108000000D02*
X171975000Y-108000000D01*
X168230000Y-107225200D02*
X168230000Y-108000000D01*
X167129800Y-106125000D02*
X168230000Y-107225200D01*
X165525000Y-106125000D02*
X167129800Y-106125000D01*
D38*
X167700000Y-109198342D02*
X167700000Y-112500000D01*
X166126658Y-107625000D02*
X167700000Y-109198342D01*
X165525000Y-107625000D02*
X166126658Y-107625000D01*
X167600000Y-112600000D02*
X167700000Y-112500000D01*
X167600000Y-114300000D02*
X167600000Y-112600000D01*
X167600000Y-116100000D02*
X167600000Y-114300000D01*
X138390000Y-99110000D02*
X138400000Y-99100000D01*
X135950000Y-99110000D02*
X138390000Y-99110000D01*
D39*
X138550000Y-104250000D02*
X139400000Y-105100000D01*
X138550000Y-104200000D02*
X138550000Y-104250000D01*
X139900000Y-104600000D02*
X139900000Y-105100000D01*
X139400000Y-104100000D02*
X139900000Y-104600000D01*
X140400000Y-104200000D02*
X140400000Y-105100000D01*
X139900000Y-103700000D02*
X140400000Y-104200000D01*
X140900000Y-104450000D02*
X141150000Y-104200000D01*
X140900000Y-105100000D02*
X140900000Y-104450000D01*
X140000000Y-103050000D02*
X140000000Y-102700000D01*
X141150000Y-104200000D02*
X140000000Y-103050000D01*
X166200000Y-109875000D02*
X165525000Y-109875000D01*
X141650000Y-104123289D02*
X141650000Y-103800000D01*
X141650000Y-104320270D02*
X141650000Y-104123289D01*
X141400000Y-104570270D02*
X141650000Y-104320270D01*
X141400000Y-105100000D02*
X141400000Y-104570270D01*
X140976889Y-103126889D02*
X141421401Y-103571401D01*
X140976889Y-101349889D02*
X140976889Y-103126889D01*
X141421401Y-103571401D02*
X141650000Y-103800000D01*
X140527000Y-100900000D02*
X140976889Y-101349889D01*
X140000000Y-100900000D02*
X140527000Y-100900000D01*
X158400000Y-108500000D02*
X158500000Y-108600000D01*
X157850000Y-108500000D02*
X158400000Y-108500000D01*
D38*
X144300000Y-105300000D02*
X144300000Y-105646800D01*
X144300000Y-105646800D02*
X144300000Y-106000000D01*
X146600000Y-103000000D02*
X144300000Y-105300000D01*
X146600000Y-102900000D02*
X146600000Y-103000000D01*
D39*
X144600000Y-113200000D02*
X144500000Y-113200000D01*
X145127000Y-112673000D02*
X144600000Y-113200000D01*
X145127000Y-109250000D02*
X145127000Y-112673000D01*
X144877000Y-109000000D02*
X145127000Y-109250000D01*
X144300000Y-109000000D02*
X144877000Y-109000000D01*
X142400000Y-111650000D02*
X142450000Y-111700000D01*
X142400000Y-110900000D02*
X142400000Y-111650000D01*
X141900000Y-111650000D02*
X141850000Y-111700000D01*
X141900000Y-110900000D02*
X141900000Y-111650000D01*
X140900000Y-112800000D02*
X140500000Y-113200000D01*
X140900000Y-110900000D02*
X140900000Y-112800000D01*
X139127000Y-113200000D02*
X138500000Y-113200000D01*
X140400000Y-111927000D02*
X139127000Y-113200000D01*
X140400000Y-110900000D02*
X140400000Y-111927000D01*
X139900000Y-110900000D02*
X139900000Y-111700000D01*
X137850000Y-110000000D02*
X137650000Y-110200000D01*
X138500000Y-110000000D02*
X137850000Y-110000000D01*
X137750000Y-109500000D02*
X137650000Y-109600000D01*
X138500000Y-109500000D02*
X137750000Y-109500000D01*
X138500000Y-109000000D02*
X137650000Y-109000000D01*
X133700000Y-108000000D02*
X134600000Y-108000000D01*
X166200000Y-109125000D02*
X165525000Y-109125000D01*
X137700000Y-107500000D02*
X137650000Y-107450000D01*
X138500000Y-107500000D02*
X137700000Y-107500000D01*
X137000000Y-106200000D02*
X136200000Y-106200000D01*
X166200000Y-108375000D02*
X165525000Y-108375000D01*
X137800000Y-107000000D02*
X137650000Y-106850000D01*
X138500000Y-107000000D02*
X137800000Y-107000000D01*
X138550000Y-105950000D02*
X138500000Y-106000000D01*
X137650000Y-105323289D02*
X137650000Y-105000000D01*
X137650000Y-105727000D02*
X137650000Y-105323289D01*
X137923000Y-106000000D02*
X137650000Y-105727000D01*
X138500000Y-106000000D02*
X137923000Y-106000000D01*
D40*
X163925200Y-104732400D02*
X163988000Y-104795200D01*
X163988000Y-104795200D02*
X163988000Y-105375000D01*
X163925200Y-101524800D02*
X163925200Y-104732400D01*
X164550000Y-100900000D02*
X163925200Y-101524800D01*
X164815000Y-100900000D02*
X164550000Y-100900000D01*
X161812000Y-104795200D02*
X161812000Y-105375000D01*
X161849401Y-101499401D02*
X161849401Y-104757799D01*
X161849401Y-104757799D02*
X161812000Y-104795200D01*
X161250000Y-100900000D02*
X161849401Y-101499401D01*
X160985000Y-100900000D02*
X161250000Y-100900000D01*
D39*
X138500000Y-117100000D02*
X139200000Y-117800000D01*
X138500000Y-114800000D02*
X138500000Y-117100000D01*
X140500000Y-115700000D02*
X142600000Y-117800000D01*
X140500000Y-114800000D02*
X140500000Y-115700000D01*
X146773000Y-116050000D02*
X147700000Y-116050000D01*
X145223000Y-116050000D02*
X146773000Y-116050000D01*
X144500000Y-115327000D02*
X145223000Y-116050000D01*
X144500000Y-114800000D02*
X144500000Y-115327000D01*
X133471401Y-107028599D02*
X133700000Y-106800000D01*
X133280899Y-107219101D02*
X133471401Y-107028599D01*
X133280899Y-108780899D02*
X133280899Y-107219101D01*
X133700000Y-109200000D02*
X133280899Y-108780899D01*
X144300000Y-97300000D02*
X144300000Y-96400000D01*
X144300000Y-97300000D02*
X144300000Y-98200000D01*
M02*
