M48
; DRILL file {KiCad 5.1.6-c6e7f7d~86~ubuntu18.04.1} date Sun Jun  7 16:34:12 2020
; FORMAT={-:-/ absolute / inch / decimal}
; #@! TF.CreationDate,2020-06-07T16:34:12-04:00
; #@! TF.GenerationSoftware,Kicad,Pcbnew,5.1.6-c6e7f7d~86~ubuntu18.04.1
FMAT,2
INCH
T1C0.0100
T2C0.0140
T3C0.0394
T4C0.0858
%
G90
G05
T1
X5.2638Y-4.1811
X5.2638Y-4.2047
X5.2638Y-4.252
X5.2638Y-4.2992
X5.2638Y-4.3228
X5.3819Y-4.311
X5.3898Y-4.2559
X5.3937Y-4.1811
X5.4173Y-3.9606
X5.4193Y-4.1339
X5.4193Y-4.2067
X5.4193Y-4.2303
X5.4193Y-4.2913
X5.4193Y-4.315
X5.4193Y-4.3386
X5.437Y-4.0827
X5.4547Y-4.1024
X5.4567Y-4.6988
X5.4882Y-4.0984
X5.5079Y-4.0827
X5.5079Y-4.3976
X5.5098Y-3.8524
X5.5276Y-4.6988
X5.5571Y-4.1024
X5.5768Y-3.9961
X5.5768Y-4.0866
X5.5846Y-4.3976
X5.6083Y-4.3976
X5.6102Y-4.4291
X5.6102Y-4.5472
X5.6181Y-3.752
X5.6811Y-3.8307
X5.685Y-4.0827
X5.7087Y-3.9488
X5.7224Y-3.9961
X5.7441Y-4.122
X5.7441Y-4.1929
X5.7598Y-4.4705
X5.7756Y-4.2953
X5.8307Y-4.2953
X5.8622Y-4.122
X5.8622Y-4.1929
X5.8701Y-4.0512
X5.9016Y-4.1339
X6.0709Y-4.3583
X6.1063Y-4.2283
X6.1063Y-4.2756
X6.1496Y-4.185
X6.1496Y-4.3189
X6.1693Y-4.4921
X6.1969Y-4.185
X6.1969Y-4.3189
X6.2402Y-4.2283
X6.2402Y-4.2756
X6.2835Y-4.122
X6.2835Y-4.1781
X6.2835Y-4.2077
X6.2835Y-4.2667
X6.2835Y-4.3258
X6.2835Y-4.3819
X6.2992Y-3.9224
X6.2992Y-4.0224
X6.342Y-4.122
X6.342Y-4.3819
X6.3504Y-4.4488
X6.3504Y-4.5039
X6.3706Y-4.3819
X6.3991Y-4.122
X6.3991Y-4.3819
X6.4134Y-3.8583
X6.4134Y-4.0866
X6.4277Y-4.122
X6.4562Y-4.3819
X6.4848Y-4.122
X6.4848Y-4.3819
X6.5039Y-4.4488
X6.5039Y-4.5039
X6.5276Y-3.9224
X6.5276Y-4.0224
X6.5433Y-4.122
X6.5433Y-4.2077
X6.5433Y-4.2667
X6.5433Y-4.2963
X6.5433Y-4.3258
X6.5433Y-4.3819
X6.5524Y-3.7008
X6.5524Y-4.8031
X6.6524Y-3.7008
X6.6524Y-4.8031
X6.7205Y-4.4291
X6.7205Y-4.5
X6.7205Y-4.5709
X6.7524Y-3.7008
X6.7524Y-4.8031
X6.8307Y-4.1575
X6.8307Y-4.3465
X6.8524Y-3.7008
X6.8524Y-4.8031
X6.9173Y-4.252
T2
X6.1732Y-4.252
X5.5079Y-4.1929
X5.5079Y-4.252
X5.5079Y-4.311
X5.5669Y-4.1929
X5.5669Y-4.252
X5.5669Y-4.311
X5.626Y-4.1929
X5.626Y-4.252
X5.626Y-4.311
X6.3543Y-4.1929
X6.3543Y-4.252
X6.3543Y-4.311
X6.4134Y-4.1929
X6.4134Y-4.252
X6.4134Y-4.311
X6.4724Y-4.1929
X6.4724Y-4.252
X6.4724Y-4.311
T3
X5.3524Y-3.602
X5.3524Y-3.702
X5.3524Y-3.802
X5.3524Y-3.902
X5.3524Y-3.502
X5.4524Y-3.502
X5.5524Y-3.502
X5.6524Y-3.502
X5.7524Y-3.502
X5.8524Y-3.502
X5.9524Y-3.502
X6.0524Y-3.502
X6.1524Y-3.502
X6.2524Y-3.502
X6.3524Y-3.502
X6.4524Y-3.502
X6.5524Y-3.502
X6.6524Y-3.502
X6.7524Y-3.502
X6.8524Y-3.502
X5.3524Y-5.002
X5.4524Y-5.002
X5.5524Y-5.002
X5.6524Y-5.002
X5.7524Y-5.002
X5.8524Y-5.002
X5.9524Y-5.002
X6.0524Y-5.002
X6.1524Y-5.002
X6.2524Y-5.002
X6.3524Y-5.002
X6.4524Y-5.002
X6.5524Y-5.002
X6.6524Y-5.002
X6.7524Y-5.002
X6.8524Y-5.002
T4
X5.3165Y-4.052
X5.3165Y-4.452
X6.8882Y-4.052
X6.8882Y-4.452
T0
M30
