G04 #@! TF.GenerationSoftware,KiCad,Pcbnew,5.1.6-c6e7f7d~87~ubuntu18.04.1*
G04 #@! TF.CreationDate,2020-08-27T11:27:32-04:00*
G04 #@! TF.ProjectId,ta-comm,74612d63-6f6d-46d2-9e6b-696361645f70,rev?*
G04 #@! TF.SameCoordinates,Original*
G04 #@! TF.FileFunction,Copper,L4,Bot*
G04 #@! TF.FilePolarity,Positive*
%FSLAX46Y46*%
G04 Gerber Fmt 4.6, Leading zero omitted, Abs format (unit mm)*
G04 Created by KiCad (PCBNEW 5.1.6-c6e7f7d~87~ubuntu18.04.1) date 2020-08-27 11:27:32*
%MOMM*%
%LPD*%
G01*
G04 APERTURE LIST*
G04 #@! TA.AperFunction,ComponentPad*
%ADD10C,1.540000*%
G04 #@! TD*
G04 #@! TA.AperFunction,ComponentPad*
%ADD11C,0.609600*%
G04 #@! TD*
G04 #@! TA.AperFunction,ComponentPad*
%ADD12C,2.540000*%
G04 #@! TD*
G04 #@! TA.AperFunction,ViaPad*
%ADD13C,0.457200*%
G04 #@! TD*
G04 #@! TA.AperFunction,Conductor*
%ADD14C,0.127000*%
G04 #@! TD*
G04 APERTURE END LIST*
D10*
X174050000Y-124510000D03*
X174050000Y-121970000D03*
X174050000Y-119430000D03*
X174050000Y-116890000D03*
X171510000Y-116890000D03*
X174050000Y-91490000D03*
X174050000Y-94030000D03*
X174050000Y-96570000D03*
X174050000Y-99110000D03*
X171510000Y-99110000D03*
X135950000Y-124510000D03*
X135950000Y-121970000D03*
X135950000Y-119430000D03*
X135950000Y-116890000D03*
D11*
X142900000Y-109500000D03*
X141400000Y-109500000D03*
X139900000Y-109500000D03*
X142900000Y-108000000D03*
X141400000Y-108000000D03*
X139900000Y-108000000D03*
X142900000Y-106500000D03*
X141400000Y-106500000D03*
X139900000Y-106500000D03*
X156800000Y-108000000D03*
X161400000Y-106500000D03*
X162900000Y-106500000D03*
X164400000Y-106500000D03*
X161400000Y-108000000D03*
X162900000Y-108000000D03*
X164400000Y-108000000D03*
X161400000Y-109500000D03*
X162900000Y-109500000D03*
X164400000Y-109500000D03*
D10*
X174050000Y-88950000D03*
X171510000Y-88950000D03*
X168970000Y-88950000D03*
X166430000Y-88950000D03*
X163890000Y-88950000D03*
X161350000Y-88950000D03*
X158810000Y-88950000D03*
X156270000Y-88950000D03*
X153730000Y-88950000D03*
X151190000Y-88950000D03*
X148650000Y-88950000D03*
X146110000Y-88950000D03*
X143570000Y-88950000D03*
X141030000Y-88950000D03*
X138490000Y-88950000D03*
X135950000Y-88950000D03*
X174050000Y-127050000D03*
X171510000Y-127050000D03*
X168970000Y-127050000D03*
X166430000Y-127050000D03*
X163890000Y-127050000D03*
X161350000Y-127050000D03*
X158810000Y-127050000D03*
X156270000Y-127050000D03*
X153730000Y-127050000D03*
X151190000Y-127050000D03*
X148650000Y-127050000D03*
X146110000Y-127050000D03*
X143570000Y-127050000D03*
X141030000Y-127050000D03*
X138490000Y-127050000D03*
X135950000Y-127050000D03*
X135950000Y-91490000D03*
X135950000Y-94030000D03*
X135950000Y-96570000D03*
X135950000Y-99110000D03*
D12*
X174960000Y-113080000D03*
X135040000Y-113080000D03*
X174960000Y-102920000D03*
X135040000Y-102920000D03*
D13*
X133700000Y-106200000D03*
X133700000Y-109800000D03*
X137600000Y-100600000D03*
X138100000Y-103700000D03*
X145000000Y-100300000D03*
X141650000Y-101500000D03*
X145350000Y-101500000D03*
X142500000Y-115500000D03*
X140000000Y-119350000D03*
X141800000Y-119350000D03*
X146300000Y-113550000D03*
X148100000Y-109100000D03*
X148900000Y-104700000D03*
X148900000Y-106500000D03*
X149900000Y-105000000D03*
X149100000Y-102900000D03*
X154200000Y-110700000D03*
X155100000Y-107400000D03*
X155100000Y-108600000D03*
X156200000Y-109700000D03*
X157400000Y-109700000D03*
X157400000Y-106300000D03*
X156200000Y-106300000D03*
X156700000Y-114100000D03*
X161300000Y-114400000D03*
X165200000Y-114400000D03*
X159600000Y-111300000D03*
X161087000Y-111300000D03*
X161812000Y-111300000D03*
X162537000Y-111300000D03*
X163988000Y-111300000D03*
X164713000Y-111300000D03*
X166200000Y-111300000D03*
X166200000Y-106875000D03*
X166200000Y-104700000D03*
X164713000Y-104700000D03*
X163263000Y-104700000D03*
X162537000Y-104700000D03*
X161087000Y-104700000D03*
X159600000Y-104700000D03*
X159600000Y-106125000D03*
X159600000Y-108375000D03*
X159600000Y-109875000D03*
X162900000Y-98000000D03*
X160000000Y-99630000D03*
X160000000Y-102170000D03*
X162900000Y-103800000D03*
X165800000Y-102170000D03*
X165800000Y-99630000D03*
X175700000Y-108000000D03*
X173500000Y-110400000D03*
X173500000Y-105600000D03*
X170200000Y-112500000D03*
X170200000Y-114300000D03*
X156700000Y-115500000D03*
X136700000Y-109500000D03*
X139950000Y-97850000D03*
X142700000Y-95300000D03*
X144400000Y-103700000D03*
X142500000Y-112500000D03*
X146700000Y-109100000D03*
X145900000Y-106500000D03*
X145900000Y-104700000D03*
X158500000Y-107400000D03*
X161300000Y-113000000D03*
X165200000Y-113000000D03*
X159600000Y-106875000D03*
X170200000Y-116100000D03*
X136900000Y-108100000D03*
X138550000Y-104200000D03*
X139400000Y-104100000D03*
X139900000Y-103700000D03*
X141150000Y-104200000D03*
X166200000Y-109875000D03*
X141650000Y-103800000D03*
X158500000Y-108600000D03*
X142450000Y-111700000D03*
X141850000Y-111700000D03*
X139900000Y-111700000D03*
X137650000Y-110200000D03*
X137650000Y-109600000D03*
X137650000Y-109000000D03*
X133700000Y-108000000D03*
X137650000Y-107450000D03*
X166200000Y-109125000D03*
X137000000Y-106200000D03*
X137650000Y-106850000D03*
X166200000Y-108375000D03*
X137650000Y-105000000D03*
X133700000Y-106800000D03*
X133700000Y-109200000D03*
X144300000Y-97300000D03*
D14*
X138550000Y-103876711D02*
X138550000Y-104200000D01*
X138550000Y-101352058D02*
X138550000Y-103876711D01*
X145736967Y-94165091D02*
X138550000Y-101352058D01*
X166430000Y-88950000D02*
X161214909Y-94165091D01*
X161214909Y-94165091D02*
X145736967Y-94165091D01*
X145947395Y-94673111D02*
X139400000Y-101220506D01*
X139400000Y-101220506D02*
X139400000Y-104100000D01*
X165786889Y-94673111D02*
X145947395Y-94673111D01*
X171510000Y-88950000D02*
X165786889Y-94673111D01*
X139900000Y-101079730D02*
X139900000Y-103700000D01*
X146052609Y-94927121D02*
X139900000Y-101079730D01*
X168072879Y-94927121D02*
X146052609Y-94927121D01*
X174050000Y-88950000D02*
X168072879Y-94927121D01*
X166619101Y-110294101D02*
X166428599Y-110103599D01*
X141150000Y-104200000D02*
X141895301Y-104945301D01*
X141895301Y-104945301D02*
X141895301Y-106262255D01*
X166428599Y-110103599D02*
X166200000Y-109875000D01*
X141895301Y-106262255D02*
X147352147Y-111719101D01*
X166619101Y-111501169D02*
X166619101Y-110294101D01*
X147352147Y-111719101D02*
X166401169Y-111719101D01*
X166401169Y-111719101D02*
X166619101Y-111501169D01*
X158500000Y-108923289D02*
X158500000Y-108600000D01*
X158500000Y-109220270D02*
X158500000Y-108923289D01*
X157601169Y-110119101D02*
X158500000Y-109220270D01*
X155998831Y-110119101D02*
X157601169Y-110119101D01*
X154560629Y-108680899D02*
X155998831Y-110119101D01*
X146530899Y-108680899D02*
X154560629Y-108680899D01*
X141650000Y-103800000D02*
X146530899Y-108680899D01*
X137164511Y-92704511D02*
X135950000Y-91490000D01*
X137164511Y-104186289D02*
X137164511Y-92704511D01*
X133280899Y-105998831D02*
X134214639Y-105065091D01*
X133498831Y-108419101D02*
X133280899Y-108201169D01*
X136285709Y-105065091D02*
X137164511Y-104186289D01*
X133901169Y-108419101D02*
X133498831Y-108419101D01*
X137383901Y-107869101D02*
X137195699Y-107680899D01*
X133280899Y-108201169D02*
X133280899Y-105998831D01*
X134639371Y-107680899D02*
X133901169Y-108419101D01*
X134214639Y-105065091D02*
X136285709Y-105065091D01*
X137195699Y-107680899D02*
X134639371Y-107680899D01*
X139002147Y-107869101D02*
X137383901Y-107869101D01*
X142450000Y-111316954D02*
X139002147Y-107869101D01*
X142450000Y-111700000D02*
X142450000Y-111316954D01*
X136910501Y-94990501D02*
X135950000Y-94030000D01*
X136910501Y-104081075D02*
X136910501Y-94990501D01*
X136180495Y-104811081D02*
X136910501Y-104081075D01*
X134109425Y-104811081D02*
X136180495Y-104811081D01*
X133026889Y-108306383D02*
X133026890Y-105893616D01*
X133026890Y-105893616D02*
X134109425Y-104811081D01*
X133393616Y-108673110D02*
X133026889Y-108306383D01*
X138018626Y-108326889D02*
X137293381Y-108326889D01*
X137293381Y-108326889D02*
X136947159Y-108673111D01*
X136947159Y-108673111D02*
X133393616Y-108673110D01*
X141391737Y-111700000D02*
X138018626Y-108326889D01*
X141850000Y-111700000D02*
X141391737Y-111700000D01*
X139900000Y-113879494D02*
X139900000Y-111700000D01*
X147347395Y-121326889D02*
X139900000Y-113879494D01*
X165786889Y-121326889D02*
X147347395Y-121326889D01*
X171510000Y-127050000D02*
X165786889Y-121326889D01*
X140319101Y-113939371D02*
X147452609Y-121072879D01*
X137650000Y-110200000D02*
X137326711Y-110200000D01*
X137448831Y-108580899D02*
X137913412Y-108580899D01*
X137326711Y-110200000D02*
X137230899Y-110104188D01*
X137230899Y-110104188D02*
X137230899Y-108798831D01*
X137913412Y-108580899D02*
X140319101Y-110986588D01*
X140319101Y-110986588D02*
X140319101Y-113939371D01*
X137230899Y-108798831D02*
X137448831Y-108580899D01*
X168072879Y-121072879D02*
X174050000Y-127050000D01*
X147452609Y-121072879D02*
X168072879Y-121072879D01*
X137973289Y-109600000D02*
X137650000Y-109600000D01*
X138069102Y-109695813D02*
X137973289Y-109600000D01*
X138069102Y-112767044D02*
X138069102Y-109695813D01*
X147136967Y-121834909D02*
X138069102Y-112767044D01*
X166430000Y-127050000D02*
X161214909Y-121834909D01*
X161214909Y-121834909D02*
X147136967Y-121834909D01*
X138323111Y-112661829D02*
X147242181Y-121580899D01*
X138323111Y-109349822D02*
X138323111Y-112661829D01*
X137973289Y-109000000D02*
X138323111Y-109349822D01*
X137650000Y-109000000D02*
X137973289Y-109000000D01*
X163500899Y-121580899D02*
X147242181Y-121580899D01*
X168970000Y-127050000D02*
X163500899Y-121580899D01*
X133928599Y-107771401D02*
X133700000Y-108000000D01*
X134273111Y-107426889D02*
X133928599Y-107771401D01*
X137626889Y-107426889D02*
X134273111Y-107426889D01*
X137650000Y-107450000D02*
X137626889Y-107426889D01*
X166428599Y-109353599D02*
X166200000Y-109125000D01*
X137650000Y-107450000D02*
X141616954Y-107450000D01*
X146140065Y-111973111D02*
X166506384Y-111973110D01*
X141616954Y-107450000D02*
X146140065Y-111973111D01*
X166873111Y-111606383D02*
X166873111Y-109798111D01*
X166506384Y-111973110D02*
X166873111Y-111606383D01*
X166873111Y-109798111D02*
X166428599Y-109353599D01*
X137000000Y-106200000D02*
X137000000Y-106250000D01*
X137650000Y-106850000D02*
X137000000Y-106200000D01*
X166428599Y-108146401D02*
X166200000Y-108375000D01*
X137650000Y-106850000D02*
X137729494Y-106850000D01*
X166619101Y-99182101D02*
X166619101Y-107955899D01*
X137729494Y-106850000D02*
X147279494Y-97300000D01*
X147279494Y-97300000D02*
X164737000Y-97300000D01*
X166619101Y-107955899D02*
X166428599Y-108146401D01*
X164737000Y-97300000D02*
X166619101Y-99182101D01*
X145842181Y-94419101D02*
X138969101Y-101292181D01*
X138450000Y-105000000D02*
X137650000Y-105000000D01*
X138969101Y-101292181D02*
X138969101Y-104480899D01*
X138969101Y-104480899D02*
X138450000Y-105000000D01*
X163500899Y-94419101D02*
X145842181Y-94419101D01*
X168970000Y-88950000D02*
X163500899Y-94419101D01*
X144300000Y-99920270D02*
X144300000Y-97623289D01*
X144300000Y-97623289D02*
X144300000Y-97300000D01*
X138801169Y-105419101D02*
X144300000Y-99920270D01*
X135080899Y-105419101D02*
X138801169Y-105419101D01*
X133700000Y-106800000D02*
X135080899Y-105419101D01*
X133720270Y-109200000D02*
X133700000Y-109200000D01*
X151190000Y-126669730D02*
X133720270Y-109200000D01*
X151190000Y-127050000D02*
X151190000Y-126669730D01*
M02*
