G04 #@! TF.GenerationSoftware,KiCad,Pcbnew,5.1.6-c6e7f7d~87~ubuntu18.04.1*
G04 #@! TF.CreationDate,2020-08-27T11:27:32-04:00*
G04 #@! TF.ProjectId,ta-comm,74612d63-6f6d-46d2-9e6b-696361645f70,rev?*
G04 #@! TF.SameCoordinates,Original*
G04 #@! TF.FileFunction,Paste,Top*
G04 #@! TF.FilePolarity,Positive*
%FSLAX46Y46*%
G04 Gerber Fmt 4.6, Leading zero omitted, Abs format (unit mm)*
G04 Created by KiCad (PCBNEW 5.1.6-c6e7f7d~87~ubuntu18.04.1) date 2020-08-27 11:27:32*
%MOMM*%
%LPD*%
G01*
G04 APERTURE LIST*
%ADD10C,0.500000*%
%ADD11C,0.025000*%
%ADD12R,0.900000X0.800000*%
%ADD13R,0.700000X1.000000*%
%ADD14R,0.800000X0.900000*%
%ADD15R,1.000000X0.700000*%
%ADD16R,0.800000X1.000000*%
%ADD17R,0.760000X0.260000*%
%ADD18R,0.260000X0.760000*%
%ADD19R,0.640000X2.080000*%
%ADD20R,0.640000X1.170000*%
%ADD21R,1.170000X0.640000*%
%ADD22R,0.550000X0.500000*%
%ADD23R,0.550000X0.400000*%
%ADD24R,0.400000X0.550000*%
%ADD25R,0.600000X1.200000*%
%ADD26R,2.000000X1.000000*%
%ADD27R,1.000000X1.000000*%
%ADD28R,0.800000X0.800000*%
%ADD29R,1.000000X0.800000*%
%ADD30R,1.500000X1.200000*%
G04 APERTURE END LIST*
D10*
X139899000Y-107250000D02*
X139901000Y-107250000D01*
X140649000Y-107250000D02*
X140651000Y-107250000D01*
X141399000Y-107250000D02*
X141401000Y-107250000D01*
X142149000Y-107250000D02*
X142151000Y-107250000D01*
X142899000Y-107250000D02*
X142901000Y-107250000D01*
X140649000Y-106500000D02*
X140651000Y-106500000D01*
X142149000Y-106500000D02*
X142151000Y-106500000D01*
X139899000Y-108750000D02*
X139901000Y-108750000D01*
X140649000Y-108750000D02*
X140651000Y-108750000D01*
X142149000Y-108750000D02*
X142151000Y-108750000D01*
X141399000Y-108750000D02*
X141401000Y-108750000D01*
X142899000Y-108750000D02*
X142901000Y-108750000D01*
X140649000Y-108000000D02*
X140651000Y-108000000D01*
X140649000Y-109500000D02*
X140651000Y-109500000D01*
X142149000Y-108000000D02*
X142151000Y-108000000D01*
X142149000Y-109500000D02*
X142151000Y-109500000D01*
D11*
G36*
X156825000Y-107425000D02*
G01*
X157375000Y-107425000D01*
X157375000Y-107975000D01*
X156825000Y-107425000D01*
G37*
X156825000Y-107425000D02*
X157375000Y-107425000D01*
X157375000Y-107975000D01*
X156825000Y-107425000D01*
G36*
X157375000Y-108025000D02*
G01*
X157375000Y-108575000D01*
X156825000Y-108575000D01*
X157375000Y-108025000D01*
G37*
X157375000Y-108025000D02*
X157375000Y-108575000D01*
X156825000Y-108575000D01*
X157375000Y-108025000D01*
G36*
X156775000Y-108575000D02*
G01*
X156225000Y-108575000D01*
X156225000Y-108025000D01*
X156775000Y-108575000D01*
G37*
X156775000Y-108575000D02*
X156225000Y-108575000D01*
X156225000Y-108025000D01*
X156775000Y-108575000D01*
G36*
X157567000Y-108375000D02*
G01*
X158150000Y-108375000D01*
X158150000Y-108625000D01*
X157717000Y-108625000D01*
X157567000Y-108375000D01*
G37*
X157567000Y-108375000D02*
X158150000Y-108375000D01*
X158150000Y-108625000D01*
X157717000Y-108625000D01*
X157567000Y-108375000D01*
G36*
X158150000Y-107875000D02*
G01*
X157570000Y-107875000D01*
X157570000Y-108125000D01*
X158150000Y-108125000D01*
X158150000Y-107875000D01*
G37*
X158150000Y-107875000D02*
X157570000Y-107875000D01*
X157570000Y-108125000D01*
X158150000Y-108125000D01*
X158150000Y-107875000D01*
G36*
X157567000Y-107625000D02*
G01*
X158150000Y-107625000D01*
X158150000Y-107375000D01*
X157717000Y-107375000D01*
X157567000Y-107625000D01*
G37*
X157567000Y-107625000D02*
X158150000Y-107625000D01*
X158150000Y-107375000D01*
X157717000Y-107375000D01*
X157567000Y-107625000D01*
G36*
X157175000Y-108775000D02*
G01*
X157175000Y-109358000D01*
X157425000Y-109358000D01*
X157425000Y-108925000D01*
X157175000Y-108775000D01*
G37*
X157175000Y-108775000D02*
X157175000Y-109358000D01*
X157425000Y-109358000D01*
X157425000Y-108925000D01*
X157175000Y-108775000D01*
G36*
X156925000Y-109355000D02*
G01*
X156925000Y-108775000D01*
X156675000Y-108775000D01*
X156675000Y-109355000D01*
X156925000Y-109355000D01*
G37*
X156925000Y-109355000D02*
X156925000Y-108775000D01*
X156675000Y-108775000D01*
X156675000Y-109355000D01*
X156925000Y-109355000D01*
G36*
X156425000Y-108775000D02*
G01*
X156425000Y-109358000D01*
X156175000Y-109358000D01*
X156175000Y-108925000D01*
X156425000Y-108775000D01*
G37*
X156425000Y-108775000D02*
X156425000Y-109358000D01*
X156175000Y-109358000D01*
X156175000Y-108925000D01*
X156425000Y-108775000D01*
G36*
X157175000Y-107233000D02*
G01*
X157175000Y-106650000D01*
X157425000Y-106650000D01*
X157425000Y-107083000D01*
X157175000Y-107233000D01*
G37*
X157175000Y-107233000D02*
X157175000Y-106650000D01*
X157425000Y-106650000D01*
X157425000Y-107083000D01*
X157175000Y-107233000D01*
G36*
X156925000Y-107230000D02*
G01*
X156925000Y-106650000D01*
X156675000Y-106650000D01*
X156675000Y-107230000D01*
X156925000Y-107230000D01*
G37*
X156925000Y-107230000D02*
X156925000Y-106650000D01*
X156675000Y-106650000D01*
X156675000Y-107230000D01*
X156925000Y-107230000D01*
G36*
X156425000Y-107233000D02*
G01*
X156425000Y-106650000D01*
X156175000Y-106650000D01*
X156175000Y-107083000D01*
X156425000Y-107233000D01*
G37*
X156425000Y-107233000D02*
X156425000Y-106650000D01*
X156175000Y-106650000D01*
X156175000Y-107083000D01*
X156425000Y-107233000D01*
G36*
X156033000Y-108375000D02*
G01*
X155450000Y-108375000D01*
X155450000Y-108625000D01*
X155883000Y-108625000D01*
X156033000Y-108375000D01*
G37*
X156033000Y-108375000D02*
X155450000Y-108375000D01*
X155450000Y-108625000D01*
X155883000Y-108625000D01*
X156033000Y-108375000D01*
G36*
X156030000Y-107875000D02*
G01*
X155450000Y-107875000D01*
X155450000Y-108125000D01*
X156030000Y-108125000D01*
X156030000Y-107875000D01*
G37*
X156030000Y-107875000D02*
X155450000Y-107875000D01*
X155450000Y-108125000D01*
X156030000Y-108125000D01*
X156030000Y-107875000D01*
G36*
X156033000Y-107625000D02*
G01*
X155450000Y-107625000D01*
X155450000Y-107375000D01*
X155883000Y-107375000D01*
X156033000Y-107625000D01*
G37*
X156033000Y-107625000D02*
X155450000Y-107625000D01*
X155450000Y-107375000D01*
X155883000Y-107375000D01*
X156033000Y-107625000D01*
D10*
X162151000Y-106500000D02*
X162149000Y-106500000D01*
X161401000Y-107250000D02*
X161390000Y-107250000D01*
X162151000Y-107250000D02*
X162149000Y-107250000D01*
X162901000Y-107250000D02*
X162899000Y-107250000D01*
X163651000Y-106500000D02*
X163649000Y-106500000D01*
X163651000Y-107250000D02*
X163649000Y-107250000D01*
X164401000Y-107250000D02*
X164399000Y-107250000D01*
X162151000Y-108000000D02*
X162149000Y-108000000D01*
X163651000Y-108000000D02*
X163649000Y-108000000D01*
X162151000Y-109500000D02*
X162149000Y-109500000D01*
X163651000Y-109500000D02*
X163649000Y-109500000D01*
X161401000Y-108750000D02*
X161399000Y-108750000D01*
X162151000Y-108750000D02*
X162149000Y-108750000D01*
X162901000Y-108750000D02*
X162899000Y-108750000D01*
X163651000Y-108750000D02*
X163649000Y-108750000D01*
X164401000Y-108750000D02*
X164399000Y-108750000D01*
D12*
X149900000Y-107200000D03*
X149900000Y-105800000D03*
D13*
X135900000Y-109800000D03*
X134500000Y-109800000D03*
X139900000Y-96600000D03*
X138500000Y-96600000D03*
D14*
X142800000Y-100000000D03*
X144200000Y-100000000D03*
D15*
X142600000Y-102900000D03*
X142600000Y-101500000D03*
X144400000Y-102900000D03*
X144400000Y-101500000D03*
D12*
X142500000Y-113300000D03*
X142500000Y-114700000D03*
D14*
X146700000Y-104700000D03*
X148100000Y-104700000D03*
D13*
X146700000Y-106500000D03*
X148100000Y-106500000D03*
X146700000Y-110100000D03*
X148100000Y-110100000D03*
D14*
X152000000Y-108800000D03*
X153400000Y-108800000D03*
X152000000Y-106900000D03*
X153400000Y-106900000D03*
X152000000Y-110700000D03*
X153400000Y-110700000D03*
D15*
X155800000Y-115500000D03*
X155800000Y-114100000D03*
D14*
X156500000Y-105200000D03*
X157900000Y-105200000D03*
X156500000Y-110800000D03*
X157900000Y-110800000D03*
D15*
X162300000Y-113000000D03*
X162300000Y-114400000D03*
X164200000Y-113000000D03*
X164200000Y-114400000D03*
D14*
X168200000Y-108000000D03*
X169600000Y-108000000D03*
D13*
X167700000Y-112500000D03*
X169100000Y-112500000D03*
D16*
X138400000Y-99100000D03*
X140000000Y-99100000D03*
D17*
X138500000Y-106000000D03*
X138500000Y-106500000D03*
X138500000Y-107000000D03*
X138500000Y-107500000D03*
X138500000Y-108000000D03*
X138500000Y-108500000D03*
X138500000Y-109000000D03*
X138500000Y-109500000D03*
X138500000Y-110000000D03*
D18*
X139400000Y-110900000D03*
X139900000Y-110900000D03*
X140400000Y-110900000D03*
X140900000Y-110900000D03*
X141400000Y-110900000D03*
X141900000Y-110900000D03*
X142400000Y-110900000D03*
X142900000Y-110900000D03*
X143400000Y-110900000D03*
D17*
X144300000Y-110000000D03*
X144300000Y-109500000D03*
X144300000Y-109000000D03*
X144300000Y-108500000D03*
X144300000Y-108000000D03*
X144300000Y-107500000D03*
X144300000Y-107000000D03*
X144300000Y-106500000D03*
X144300000Y-106000000D03*
D18*
X143400000Y-105100000D03*
X142900000Y-105100000D03*
X142400000Y-105100000D03*
X141900000Y-105100000D03*
X141400000Y-105100000D03*
X140900000Y-105100000D03*
X140400000Y-105100000D03*
X139900000Y-105100000D03*
X139400000Y-105100000D03*
D19*
X162900000Y-102360000D03*
D20*
X162900000Y-98985000D03*
D21*
X160985000Y-102170000D03*
X160985000Y-100900000D03*
X160985000Y-99630000D03*
X164815000Y-99630000D03*
X164815000Y-100900000D03*
X164815000Y-102170000D03*
D22*
X165525000Y-110650000D03*
D23*
X165525000Y-109875000D03*
X165525000Y-109125000D03*
X165525000Y-108375000D03*
X165525000Y-107625000D03*
X165525000Y-106875000D03*
X165525000Y-106125000D03*
D22*
X165525000Y-105350000D03*
D24*
X164713000Y-105375000D03*
X163988000Y-105375000D03*
X163263000Y-105375000D03*
X162537000Y-105375000D03*
X161812000Y-105375000D03*
X161087000Y-105375000D03*
D22*
X160275000Y-105350000D03*
D23*
X160275000Y-106125000D03*
X160275000Y-106875000D03*
X160275000Y-107625000D03*
X160275000Y-108375000D03*
X160275000Y-109125000D03*
X160275000Y-109875000D03*
D22*
X160275000Y-110650000D03*
D24*
X161087000Y-110625000D03*
X161812000Y-110625000D03*
X162537000Y-110625000D03*
X163263000Y-110625000D03*
X163988000Y-110625000D03*
X164713000Y-110625000D03*
D25*
X171980000Y-108000000D03*
D26*
X173500000Y-109480000D03*
D25*
X175020000Y-108000000D03*
D26*
X173500000Y-106520000D03*
D27*
X149900000Y-108700000D03*
X149900000Y-110300000D03*
X151900000Y-105100000D03*
X153500000Y-105100000D03*
D28*
X139200000Y-119400000D03*
X139200000Y-117800000D03*
X142600000Y-119400000D03*
X142600000Y-117800000D03*
D16*
X136200000Y-106200000D03*
X134600000Y-106200000D03*
X136200000Y-108000000D03*
X134600000Y-108000000D03*
X140000000Y-100900000D03*
X138400000Y-100900000D03*
X140000000Y-102700000D03*
X138400000Y-102700000D03*
D29*
X138500000Y-113200000D03*
X138500000Y-114800000D03*
X140500000Y-113200000D03*
X140500000Y-114800000D03*
D16*
X142700000Y-96400000D03*
X144300000Y-96400000D03*
X144300000Y-98200000D03*
X142700000Y-98200000D03*
D29*
X144500000Y-113200000D03*
X144500000Y-114800000D03*
D16*
X146600000Y-102900000D03*
X148200000Y-102900000D03*
X167600000Y-114300000D03*
X169200000Y-114300000D03*
X169200000Y-116100000D03*
X167600000Y-116100000D03*
D30*
X151700000Y-113600000D03*
X147700000Y-113600000D03*
X147700000Y-116000000D03*
X151700000Y-116000000D03*
M02*
