G04 #@! TF.GenerationSoftware,KiCad,Pcbnew,5.1.5-52549c5~86~ubuntu18.04.1*
G04 #@! TF.CreationDate,2020-05-04T10:44:27-04:00*
G04 #@! TF.ProjectId,ta-comm,74612d63-6f6d-46d2-9e6b-696361645f70,rev?*
G04 #@! TF.SameCoordinates,Original*
G04 #@! TF.FileFunction,Legend,Top*
G04 #@! TF.FilePolarity,Positive*
%FSLAX46Y46*%
G04 Gerber Fmt 4.6, Leading zero omitted, Abs format (unit mm)*
G04 Created by KiCad (PCBNEW 5.1.5-52549c5~86~ubuntu18.04.1) date 2020-05-04 10:44:27*
%MOMM*%
%LPD*%
G04 APERTURE LIST*
%ADD10C,0.100000*%
%ADD11C,0.200000*%
%ADD12C,0.250000*%
G04 APERTURE END LIST*
D10*
X170933333Y-104226190D02*
X170933333Y-104583333D01*
X170909523Y-104654761D01*
X170861904Y-104702380D01*
X170790476Y-104726190D01*
X170742857Y-104726190D01*
X171385714Y-104392857D02*
X171385714Y-104726190D01*
X171266666Y-104202380D02*
X171147619Y-104559523D01*
X171457142Y-104559523D01*
X168578571Y-109178571D02*
X168554761Y-109202380D01*
X168483333Y-109226190D01*
X168435714Y-109226190D01*
X168364285Y-109202380D01*
X168316666Y-109154761D01*
X168292857Y-109107142D01*
X168269047Y-109011904D01*
X168269047Y-108940476D01*
X168292857Y-108845238D01*
X168316666Y-108797619D01*
X168364285Y-108750000D01*
X168435714Y-108726190D01*
X168483333Y-108726190D01*
X168554761Y-108750000D01*
X168578571Y-108773809D01*
X169054761Y-109226190D02*
X168769047Y-109226190D01*
X168911904Y-109226190D02*
X168911904Y-108726190D01*
X168864285Y-108797619D01*
X168816666Y-108845238D01*
X168769047Y-108869047D01*
X169292857Y-109226190D02*
X169388095Y-109226190D01*
X169435714Y-109202380D01*
X169459523Y-109178571D01*
X169507142Y-109107142D01*
X169530952Y-109011904D01*
X169530952Y-108821428D01*
X169507142Y-108773809D01*
X169483333Y-108750000D01*
X169435714Y-108726190D01*
X169340476Y-108726190D01*
X169292857Y-108750000D01*
X169269047Y-108773809D01*
X169245238Y-108821428D01*
X169245238Y-108940476D01*
X169269047Y-108988095D01*
X169292857Y-109011904D01*
X169340476Y-109035714D01*
X169435714Y-109035714D01*
X169483333Y-109011904D01*
X169507142Y-108988095D01*
X169530952Y-108940476D01*
X171378571Y-116326190D02*
X171211904Y-116088095D01*
X171092857Y-116326190D02*
X171092857Y-115826190D01*
X171283333Y-115826190D01*
X171330952Y-115850000D01*
X171354761Y-115873809D01*
X171378571Y-115921428D01*
X171378571Y-115992857D01*
X171354761Y-116040476D01*
X171330952Y-116064285D01*
X171283333Y-116088095D01*
X171092857Y-116088095D01*
X171854761Y-116326190D02*
X171569047Y-116326190D01*
X171711904Y-116326190D02*
X171711904Y-115826190D01*
X171664285Y-115897619D01*
X171616666Y-115945238D01*
X171569047Y-115969047D01*
X172045238Y-115873809D02*
X172069047Y-115850000D01*
X172116666Y-115826190D01*
X172235714Y-115826190D01*
X172283333Y-115850000D01*
X172307142Y-115873809D01*
X172330952Y-115921428D01*
X172330952Y-115969047D01*
X172307142Y-116040476D01*
X172021428Y-116326190D01*
X172330952Y-116326190D01*
X171378571Y-114526190D02*
X171211904Y-114288095D01*
X171092857Y-114526190D02*
X171092857Y-114026190D01*
X171283333Y-114026190D01*
X171330952Y-114050000D01*
X171354761Y-114073809D01*
X171378571Y-114121428D01*
X171378571Y-114192857D01*
X171354761Y-114240476D01*
X171330952Y-114264285D01*
X171283333Y-114288095D01*
X171092857Y-114288095D01*
X171854761Y-114526190D02*
X171569047Y-114526190D01*
X171711904Y-114526190D02*
X171711904Y-114026190D01*
X171664285Y-114097619D01*
X171616666Y-114145238D01*
X171569047Y-114169047D01*
X172330952Y-114526190D02*
X172045238Y-114526190D01*
X172188095Y-114526190D02*
X172188095Y-114026190D01*
X172140476Y-114097619D01*
X172092857Y-114145238D01*
X172045238Y-114169047D01*
X166478571Y-112678571D02*
X166454761Y-112702380D01*
X166383333Y-112726190D01*
X166335714Y-112726190D01*
X166264285Y-112702380D01*
X166216666Y-112654761D01*
X166192857Y-112607142D01*
X166169047Y-112511904D01*
X166169047Y-112440476D01*
X166192857Y-112345238D01*
X166216666Y-112297619D01*
X166264285Y-112250000D01*
X166335714Y-112226190D01*
X166383333Y-112226190D01*
X166454761Y-112250000D01*
X166478571Y-112273809D01*
X166669047Y-112273809D02*
X166692857Y-112250000D01*
X166740476Y-112226190D01*
X166859523Y-112226190D01*
X166907142Y-112250000D01*
X166930952Y-112273809D01*
X166954761Y-112321428D01*
X166954761Y-112369047D01*
X166930952Y-112440476D01*
X166645238Y-112726190D01*
X166954761Y-112726190D01*
X167264285Y-112226190D02*
X167311904Y-112226190D01*
X167359523Y-112250000D01*
X167383333Y-112273809D01*
X167407142Y-112321428D01*
X167430952Y-112416666D01*
X167430952Y-112535714D01*
X167407142Y-112630952D01*
X167383333Y-112678571D01*
X167359523Y-112702380D01*
X167311904Y-112726190D01*
X167264285Y-112726190D01*
X167216666Y-112702380D01*
X167192857Y-112678571D01*
X167169047Y-112630952D01*
X167145238Y-112535714D01*
X167145238Y-112416666D01*
X167169047Y-112321428D01*
X167192857Y-112273809D01*
X167216666Y-112250000D01*
X167264285Y-112226190D01*
X173728571Y-121526190D02*
X173561904Y-121288095D01*
X173442857Y-121526190D02*
X173442857Y-121026190D01*
X173633333Y-121026190D01*
X173680952Y-121050000D01*
X173704761Y-121073809D01*
X173728571Y-121121428D01*
X173728571Y-121192857D01*
X173704761Y-121240476D01*
X173680952Y-121264285D01*
X173633333Y-121288095D01*
X173442857Y-121288095D01*
X173919047Y-121073809D02*
X173942857Y-121050000D01*
X173990476Y-121026190D01*
X174109523Y-121026190D01*
X174157142Y-121050000D01*
X174180952Y-121073809D01*
X174204761Y-121121428D01*
X174204761Y-121169047D01*
X174180952Y-121240476D01*
X173895238Y-121526190D01*
X174204761Y-121526190D01*
X174514285Y-121026190D02*
X174561904Y-121026190D01*
X174609523Y-121050000D01*
X174633333Y-121073809D01*
X174657142Y-121121428D01*
X174680952Y-121216666D01*
X174680952Y-121335714D01*
X174657142Y-121430952D01*
X174633333Y-121478571D01*
X174609523Y-121502380D01*
X174561904Y-121526190D01*
X174514285Y-121526190D01*
X174466666Y-121502380D01*
X174442857Y-121478571D01*
X174419047Y-121430952D01*
X174395238Y-121335714D01*
X174395238Y-121216666D01*
X174419047Y-121121428D01*
X174442857Y-121073809D01*
X174466666Y-121050000D01*
X174514285Y-121026190D01*
X171188571Y-121526190D02*
X171021904Y-121288095D01*
X170902857Y-121526190D02*
X170902857Y-121026190D01*
X171093333Y-121026190D01*
X171140952Y-121050000D01*
X171164761Y-121073809D01*
X171188571Y-121121428D01*
X171188571Y-121192857D01*
X171164761Y-121240476D01*
X171140952Y-121264285D01*
X171093333Y-121288095D01*
X170902857Y-121288095D01*
X171664761Y-121526190D02*
X171379047Y-121526190D01*
X171521904Y-121526190D02*
X171521904Y-121026190D01*
X171474285Y-121097619D01*
X171426666Y-121145238D01*
X171379047Y-121169047D01*
X171902857Y-121526190D02*
X171998095Y-121526190D01*
X172045714Y-121502380D01*
X172069523Y-121478571D01*
X172117142Y-121407142D01*
X172140952Y-121311904D01*
X172140952Y-121121428D01*
X172117142Y-121073809D01*
X172093333Y-121050000D01*
X172045714Y-121026190D01*
X171950476Y-121026190D01*
X171902857Y-121050000D01*
X171879047Y-121073809D01*
X171855238Y-121121428D01*
X171855238Y-121240476D01*
X171879047Y-121288095D01*
X171902857Y-121311904D01*
X171950476Y-121335714D01*
X172045714Y-121335714D01*
X172093333Y-121311904D01*
X172117142Y-121288095D01*
X172140952Y-121240476D01*
X168648571Y-121526190D02*
X168481904Y-121288095D01*
X168362857Y-121526190D02*
X168362857Y-121026190D01*
X168553333Y-121026190D01*
X168600952Y-121050000D01*
X168624761Y-121073809D01*
X168648571Y-121121428D01*
X168648571Y-121192857D01*
X168624761Y-121240476D01*
X168600952Y-121264285D01*
X168553333Y-121288095D01*
X168362857Y-121288095D01*
X169124761Y-121526190D02*
X168839047Y-121526190D01*
X168981904Y-121526190D02*
X168981904Y-121026190D01*
X168934285Y-121097619D01*
X168886666Y-121145238D01*
X168839047Y-121169047D01*
X169410476Y-121240476D02*
X169362857Y-121216666D01*
X169339047Y-121192857D01*
X169315238Y-121145238D01*
X169315238Y-121121428D01*
X169339047Y-121073809D01*
X169362857Y-121050000D01*
X169410476Y-121026190D01*
X169505714Y-121026190D01*
X169553333Y-121050000D01*
X169577142Y-121073809D01*
X169600952Y-121121428D01*
X169600952Y-121145238D01*
X169577142Y-121192857D01*
X169553333Y-121216666D01*
X169505714Y-121240476D01*
X169410476Y-121240476D01*
X169362857Y-121264285D01*
X169339047Y-121288095D01*
X169315238Y-121335714D01*
X169315238Y-121430952D01*
X169339047Y-121478571D01*
X169362857Y-121502380D01*
X169410476Y-121526190D01*
X169505714Y-121526190D01*
X169553333Y-121502380D01*
X169577142Y-121478571D01*
X169600952Y-121430952D01*
X169600952Y-121335714D01*
X169577142Y-121288095D01*
X169553333Y-121264285D01*
X169505714Y-121240476D01*
X166108571Y-121526190D02*
X165941904Y-121288095D01*
X165822857Y-121526190D02*
X165822857Y-121026190D01*
X166013333Y-121026190D01*
X166060952Y-121050000D01*
X166084761Y-121073809D01*
X166108571Y-121121428D01*
X166108571Y-121192857D01*
X166084761Y-121240476D01*
X166060952Y-121264285D01*
X166013333Y-121288095D01*
X165822857Y-121288095D01*
X166584761Y-121526190D02*
X166299047Y-121526190D01*
X166441904Y-121526190D02*
X166441904Y-121026190D01*
X166394285Y-121097619D01*
X166346666Y-121145238D01*
X166299047Y-121169047D01*
X166751428Y-121026190D02*
X167084761Y-121026190D01*
X166870476Y-121526190D01*
X173728571Y-94926190D02*
X173561904Y-94688095D01*
X173442857Y-94926190D02*
X173442857Y-94426190D01*
X173633333Y-94426190D01*
X173680952Y-94450000D01*
X173704761Y-94473809D01*
X173728571Y-94521428D01*
X173728571Y-94592857D01*
X173704761Y-94640476D01*
X173680952Y-94664285D01*
X173633333Y-94688095D01*
X173442857Y-94688095D01*
X174204761Y-94926190D02*
X173919047Y-94926190D01*
X174061904Y-94926190D02*
X174061904Y-94426190D01*
X174014285Y-94497619D01*
X173966666Y-94545238D01*
X173919047Y-94569047D01*
X174633333Y-94426190D02*
X174538095Y-94426190D01*
X174490476Y-94450000D01*
X174466666Y-94473809D01*
X174419047Y-94545238D01*
X174395238Y-94640476D01*
X174395238Y-94830952D01*
X174419047Y-94878571D01*
X174442857Y-94902380D01*
X174490476Y-94926190D01*
X174585714Y-94926190D01*
X174633333Y-94902380D01*
X174657142Y-94878571D01*
X174680952Y-94830952D01*
X174680952Y-94711904D01*
X174657142Y-94664285D01*
X174633333Y-94640476D01*
X174585714Y-94616666D01*
X174490476Y-94616666D01*
X174442857Y-94640476D01*
X174419047Y-94664285D01*
X174395238Y-94711904D01*
X171188571Y-94926190D02*
X171021904Y-94688095D01*
X170902857Y-94926190D02*
X170902857Y-94426190D01*
X171093333Y-94426190D01*
X171140952Y-94450000D01*
X171164761Y-94473809D01*
X171188571Y-94521428D01*
X171188571Y-94592857D01*
X171164761Y-94640476D01*
X171140952Y-94664285D01*
X171093333Y-94688095D01*
X170902857Y-94688095D01*
X171664761Y-94926190D02*
X171379047Y-94926190D01*
X171521904Y-94926190D02*
X171521904Y-94426190D01*
X171474285Y-94497619D01*
X171426666Y-94545238D01*
X171379047Y-94569047D01*
X172117142Y-94426190D02*
X171879047Y-94426190D01*
X171855238Y-94664285D01*
X171879047Y-94640476D01*
X171926666Y-94616666D01*
X172045714Y-94616666D01*
X172093333Y-94640476D01*
X172117142Y-94664285D01*
X172140952Y-94711904D01*
X172140952Y-94830952D01*
X172117142Y-94878571D01*
X172093333Y-94902380D01*
X172045714Y-94926190D01*
X171926666Y-94926190D01*
X171879047Y-94902380D01*
X171855238Y-94878571D01*
X168648571Y-94926190D02*
X168481904Y-94688095D01*
X168362857Y-94926190D02*
X168362857Y-94426190D01*
X168553333Y-94426190D01*
X168600952Y-94450000D01*
X168624761Y-94473809D01*
X168648571Y-94521428D01*
X168648571Y-94592857D01*
X168624761Y-94640476D01*
X168600952Y-94664285D01*
X168553333Y-94688095D01*
X168362857Y-94688095D01*
X169124761Y-94926190D02*
X168839047Y-94926190D01*
X168981904Y-94926190D02*
X168981904Y-94426190D01*
X168934285Y-94497619D01*
X168886666Y-94545238D01*
X168839047Y-94569047D01*
X169553333Y-94592857D02*
X169553333Y-94926190D01*
X169434285Y-94402380D02*
X169315238Y-94759523D01*
X169624761Y-94759523D01*
X166108571Y-94926190D02*
X165941904Y-94688095D01*
X165822857Y-94926190D02*
X165822857Y-94426190D01*
X166013333Y-94426190D01*
X166060952Y-94450000D01*
X166084761Y-94473809D01*
X166108571Y-94521428D01*
X166108571Y-94592857D01*
X166084761Y-94640476D01*
X166060952Y-94664285D01*
X166013333Y-94688095D01*
X165822857Y-94688095D01*
X166584761Y-94926190D02*
X166299047Y-94926190D01*
X166441904Y-94926190D02*
X166441904Y-94426190D01*
X166394285Y-94497619D01*
X166346666Y-94545238D01*
X166299047Y-94569047D01*
X166751428Y-94426190D02*
X167060952Y-94426190D01*
X166894285Y-94616666D01*
X166965714Y-94616666D01*
X167013333Y-94640476D01*
X167037142Y-94664285D01*
X167060952Y-94711904D01*
X167060952Y-94830952D01*
X167037142Y-94878571D01*
X167013333Y-94902380D01*
X166965714Y-94926190D01*
X166822857Y-94926190D01*
X166775238Y-94902380D01*
X166751428Y-94878571D01*
X162411904Y-97626190D02*
X162411904Y-97126190D01*
X162935714Y-97578571D02*
X162911904Y-97602380D01*
X162840476Y-97626190D01*
X162792857Y-97626190D01*
X162721428Y-97602380D01*
X162673809Y-97554761D01*
X162650000Y-97507142D01*
X162626190Y-97411904D01*
X162626190Y-97340476D01*
X162650000Y-97245238D01*
X162673809Y-97197619D01*
X162721428Y-97150000D01*
X162792857Y-97126190D01*
X162840476Y-97126190D01*
X162911904Y-97150000D01*
X162935714Y-97173809D01*
X163102380Y-97126190D02*
X163411904Y-97126190D01*
X163245238Y-97316666D01*
X163316666Y-97316666D01*
X163364285Y-97340476D01*
X163388095Y-97364285D01*
X163411904Y-97411904D01*
X163411904Y-97530952D01*
X163388095Y-97578571D01*
X163364285Y-97602380D01*
X163316666Y-97626190D01*
X163173809Y-97626190D01*
X163126190Y-97602380D01*
X163102380Y-97578571D01*
X167311904Y-105026190D02*
X167311904Y-104526190D01*
X167835714Y-104978571D02*
X167811904Y-105002380D01*
X167740476Y-105026190D01*
X167692857Y-105026190D01*
X167621428Y-105002380D01*
X167573809Y-104954761D01*
X167550000Y-104907142D01*
X167526190Y-104811904D01*
X167526190Y-104740476D01*
X167550000Y-104645238D01*
X167573809Y-104597619D01*
X167621428Y-104550000D01*
X167692857Y-104526190D01*
X167740476Y-104526190D01*
X167811904Y-104550000D01*
X167835714Y-104573809D01*
X168264285Y-104692857D02*
X168264285Y-105026190D01*
X168145238Y-104502380D02*
X168026190Y-104859523D01*
X168335714Y-104859523D01*
X163878571Y-115578571D02*
X163854761Y-115602380D01*
X163783333Y-115626190D01*
X163735714Y-115626190D01*
X163664285Y-115602380D01*
X163616666Y-115554761D01*
X163592857Y-115507142D01*
X163569047Y-115411904D01*
X163569047Y-115340476D01*
X163592857Y-115245238D01*
X163616666Y-115197619D01*
X163664285Y-115150000D01*
X163735714Y-115126190D01*
X163783333Y-115126190D01*
X163854761Y-115150000D01*
X163878571Y-115173809D01*
X164354761Y-115626190D02*
X164069047Y-115626190D01*
X164211904Y-115626190D02*
X164211904Y-115126190D01*
X164164285Y-115197619D01*
X164116666Y-115245238D01*
X164069047Y-115269047D01*
X164640476Y-115340476D02*
X164592857Y-115316666D01*
X164569047Y-115292857D01*
X164545238Y-115245238D01*
X164545238Y-115221428D01*
X164569047Y-115173809D01*
X164592857Y-115150000D01*
X164640476Y-115126190D01*
X164735714Y-115126190D01*
X164783333Y-115150000D01*
X164807142Y-115173809D01*
X164830952Y-115221428D01*
X164830952Y-115245238D01*
X164807142Y-115292857D01*
X164783333Y-115316666D01*
X164735714Y-115340476D01*
X164640476Y-115340476D01*
X164592857Y-115364285D01*
X164569047Y-115388095D01*
X164545238Y-115435714D01*
X164545238Y-115530952D01*
X164569047Y-115578571D01*
X164592857Y-115602380D01*
X164640476Y-115626190D01*
X164735714Y-115626190D01*
X164783333Y-115602380D01*
X164807142Y-115578571D01*
X164830952Y-115530952D01*
X164830952Y-115435714D01*
X164807142Y-115388095D01*
X164783333Y-115364285D01*
X164735714Y-115340476D01*
X161978571Y-115578571D02*
X161954761Y-115602380D01*
X161883333Y-115626190D01*
X161835714Y-115626190D01*
X161764285Y-115602380D01*
X161716666Y-115554761D01*
X161692857Y-115507142D01*
X161669047Y-115411904D01*
X161669047Y-115340476D01*
X161692857Y-115245238D01*
X161716666Y-115197619D01*
X161764285Y-115150000D01*
X161835714Y-115126190D01*
X161883333Y-115126190D01*
X161954761Y-115150000D01*
X161978571Y-115173809D01*
X162454761Y-115626190D02*
X162169047Y-115626190D01*
X162311904Y-115626190D02*
X162311904Y-115126190D01*
X162264285Y-115197619D01*
X162216666Y-115245238D01*
X162169047Y-115269047D01*
X162621428Y-115126190D02*
X162954761Y-115126190D01*
X162740476Y-115626190D01*
X156878571Y-114978571D02*
X156854761Y-115002380D01*
X156783333Y-115026190D01*
X156735714Y-115026190D01*
X156664285Y-115002380D01*
X156616666Y-114954761D01*
X156592857Y-114907142D01*
X156569047Y-114811904D01*
X156569047Y-114740476D01*
X156592857Y-114645238D01*
X156616666Y-114597619D01*
X156664285Y-114550000D01*
X156735714Y-114526190D01*
X156783333Y-114526190D01*
X156854761Y-114550000D01*
X156878571Y-114573809D01*
X157354761Y-115026190D02*
X157069047Y-115026190D01*
X157211904Y-115026190D02*
X157211904Y-114526190D01*
X157164285Y-114597619D01*
X157116666Y-114645238D01*
X157069047Y-114669047D01*
X157783333Y-114692857D02*
X157783333Y-115026190D01*
X157664285Y-114502380D02*
X157545238Y-114859523D01*
X157854761Y-114859523D01*
X154711904Y-110626190D02*
X154711904Y-110126190D01*
X155235714Y-110578571D02*
X155211904Y-110602380D01*
X155140476Y-110626190D01*
X155092857Y-110626190D01*
X155021428Y-110602380D01*
X154973809Y-110554761D01*
X154950000Y-110507142D01*
X154926190Y-110411904D01*
X154926190Y-110340476D01*
X154950000Y-110245238D01*
X154973809Y-110197619D01*
X155021428Y-110150000D01*
X155092857Y-110126190D01*
X155140476Y-110126190D01*
X155211904Y-110150000D01*
X155235714Y-110173809D01*
X155426190Y-110173809D02*
X155450000Y-110150000D01*
X155497619Y-110126190D01*
X155616666Y-110126190D01*
X155664285Y-110150000D01*
X155688095Y-110173809D01*
X155711904Y-110221428D01*
X155711904Y-110269047D01*
X155688095Y-110340476D01*
X155402380Y-110626190D01*
X155711904Y-110626190D01*
X156878571Y-111978571D02*
X156854761Y-112002380D01*
X156783333Y-112026190D01*
X156735714Y-112026190D01*
X156664285Y-112002380D01*
X156616666Y-111954761D01*
X156592857Y-111907142D01*
X156569047Y-111811904D01*
X156569047Y-111740476D01*
X156592857Y-111645238D01*
X156616666Y-111597619D01*
X156664285Y-111550000D01*
X156735714Y-111526190D01*
X156783333Y-111526190D01*
X156854761Y-111550000D01*
X156878571Y-111573809D01*
X157354761Y-112026190D02*
X157069047Y-112026190D01*
X157211904Y-112026190D02*
X157211904Y-111526190D01*
X157164285Y-111597619D01*
X157116666Y-111645238D01*
X157069047Y-111669047D01*
X157783333Y-111526190D02*
X157688095Y-111526190D01*
X157640476Y-111550000D01*
X157616666Y-111573809D01*
X157569047Y-111645238D01*
X157545238Y-111740476D01*
X157545238Y-111930952D01*
X157569047Y-111978571D01*
X157592857Y-112002380D01*
X157640476Y-112026190D01*
X157735714Y-112026190D01*
X157783333Y-112002380D01*
X157807142Y-111978571D01*
X157830952Y-111930952D01*
X157830952Y-111811904D01*
X157807142Y-111764285D01*
X157783333Y-111740476D01*
X157735714Y-111716666D01*
X157640476Y-111716666D01*
X157592857Y-111740476D01*
X157569047Y-111764285D01*
X157545238Y-111811904D01*
X156878571Y-104378571D02*
X156854761Y-104402380D01*
X156783333Y-104426190D01*
X156735714Y-104426190D01*
X156664285Y-104402380D01*
X156616666Y-104354761D01*
X156592857Y-104307142D01*
X156569047Y-104211904D01*
X156569047Y-104140476D01*
X156592857Y-104045238D01*
X156616666Y-103997619D01*
X156664285Y-103950000D01*
X156735714Y-103926190D01*
X156783333Y-103926190D01*
X156854761Y-103950000D01*
X156878571Y-103973809D01*
X157354761Y-104426190D02*
X157069047Y-104426190D01*
X157211904Y-104426190D02*
X157211904Y-103926190D01*
X157164285Y-103997619D01*
X157116666Y-104045238D01*
X157069047Y-104069047D01*
X157807142Y-103926190D02*
X157569047Y-103926190D01*
X157545238Y-104164285D01*
X157569047Y-104140476D01*
X157616666Y-104116666D01*
X157735714Y-104116666D01*
X157783333Y-104140476D01*
X157807142Y-104164285D01*
X157830952Y-104211904D01*
X157830952Y-104330952D01*
X157807142Y-104378571D01*
X157783333Y-104402380D01*
X157735714Y-104426190D01*
X157616666Y-104426190D01*
X157569047Y-104402380D01*
X157545238Y-104378571D01*
X152616666Y-104226190D02*
X152378571Y-104226190D01*
X152378571Y-103726190D01*
X152759523Y-103773809D02*
X152783333Y-103750000D01*
X152830952Y-103726190D01*
X152950000Y-103726190D01*
X152997619Y-103750000D01*
X153021428Y-103773809D01*
X153045238Y-103821428D01*
X153045238Y-103869047D01*
X153021428Y-103940476D01*
X152735714Y-104226190D01*
X153045238Y-104226190D01*
X154278571Y-106378571D02*
X154254761Y-106402380D01*
X154183333Y-106426190D01*
X154135714Y-106426190D01*
X154064285Y-106402380D01*
X154016666Y-106354761D01*
X153992857Y-106307142D01*
X153969047Y-106211904D01*
X153969047Y-106140476D01*
X153992857Y-106045238D01*
X154016666Y-105997619D01*
X154064285Y-105950000D01*
X154135714Y-105926190D01*
X154183333Y-105926190D01*
X154254761Y-105950000D01*
X154278571Y-105973809D01*
X154754761Y-106426190D02*
X154469047Y-106426190D01*
X154611904Y-106426190D02*
X154611904Y-105926190D01*
X154564285Y-105997619D01*
X154516666Y-106045238D01*
X154469047Y-106069047D01*
X154945238Y-105973809D02*
X154969047Y-105950000D01*
X155016666Y-105926190D01*
X155135714Y-105926190D01*
X155183333Y-105950000D01*
X155207142Y-105973809D01*
X155230952Y-106021428D01*
X155230952Y-106069047D01*
X155207142Y-106140476D01*
X154921428Y-106426190D01*
X155230952Y-106426190D01*
X154278571Y-109678571D02*
X154254761Y-109702380D01*
X154183333Y-109726190D01*
X154135714Y-109726190D01*
X154064285Y-109702380D01*
X154016666Y-109654761D01*
X153992857Y-109607142D01*
X153969047Y-109511904D01*
X153969047Y-109440476D01*
X153992857Y-109345238D01*
X154016666Y-109297619D01*
X154064285Y-109250000D01*
X154135714Y-109226190D01*
X154183333Y-109226190D01*
X154254761Y-109250000D01*
X154278571Y-109273809D01*
X154754761Y-109726190D02*
X154469047Y-109726190D01*
X154611904Y-109726190D02*
X154611904Y-109226190D01*
X154564285Y-109297619D01*
X154516666Y-109345238D01*
X154469047Y-109369047D01*
X155230952Y-109726190D02*
X154945238Y-109726190D01*
X155088095Y-109726190D02*
X155088095Y-109226190D01*
X155040476Y-109297619D01*
X154992857Y-109345238D01*
X154945238Y-109369047D01*
X154278571Y-111578571D02*
X154254761Y-111602380D01*
X154183333Y-111626190D01*
X154135714Y-111626190D01*
X154064285Y-111602380D01*
X154016666Y-111554761D01*
X153992857Y-111507142D01*
X153969047Y-111411904D01*
X153969047Y-111340476D01*
X153992857Y-111245238D01*
X154016666Y-111197619D01*
X154064285Y-111150000D01*
X154135714Y-111126190D01*
X154183333Y-111126190D01*
X154254761Y-111150000D01*
X154278571Y-111173809D01*
X154754761Y-111626190D02*
X154469047Y-111626190D01*
X154611904Y-111626190D02*
X154611904Y-111126190D01*
X154564285Y-111197619D01*
X154516666Y-111245238D01*
X154469047Y-111269047D01*
X154921428Y-111126190D02*
X155230952Y-111126190D01*
X155064285Y-111316666D01*
X155135714Y-111316666D01*
X155183333Y-111340476D01*
X155207142Y-111364285D01*
X155230952Y-111411904D01*
X155230952Y-111530952D01*
X155207142Y-111578571D01*
X155183333Y-111602380D01*
X155135714Y-111626190D01*
X154992857Y-111626190D01*
X154945238Y-111602380D01*
X154921428Y-111578571D01*
X149816666Y-111626190D02*
X149578571Y-111626190D01*
X149578571Y-111126190D01*
X150245238Y-111626190D02*
X149959523Y-111626190D01*
X150102380Y-111626190D02*
X150102380Y-111126190D01*
X150054761Y-111197619D01*
X150007142Y-111245238D01*
X149959523Y-111269047D01*
X145566666Y-110278571D02*
X145542857Y-110302380D01*
X145471428Y-110326190D01*
X145423809Y-110326190D01*
X145352380Y-110302380D01*
X145304761Y-110254761D01*
X145280952Y-110207142D01*
X145257142Y-110111904D01*
X145257142Y-110040476D01*
X145280952Y-109945238D01*
X145304761Y-109897619D01*
X145352380Y-109850000D01*
X145423809Y-109826190D01*
X145471428Y-109826190D01*
X145542857Y-109850000D01*
X145566666Y-109873809D01*
X145804761Y-110326190D02*
X145900000Y-110326190D01*
X145947619Y-110302380D01*
X145971428Y-110278571D01*
X146019047Y-110207142D01*
X146042857Y-110111904D01*
X146042857Y-109921428D01*
X146019047Y-109873809D01*
X145995238Y-109850000D01*
X145947619Y-109826190D01*
X145852380Y-109826190D01*
X145804761Y-109850000D01*
X145780952Y-109873809D01*
X145757142Y-109921428D01*
X145757142Y-110040476D01*
X145780952Y-110088095D01*
X145804761Y-110111904D01*
X145852380Y-110135714D01*
X145947619Y-110135714D01*
X145995238Y-110111904D01*
X146019047Y-110088095D01*
X146042857Y-110040476D01*
X147316666Y-105778571D02*
X147292857Y-105802380D01*
X147221428Y-105826190D01*
X147173809Y-105826190D01*
X147102380Y-105802380D01*
X147054761Y-105754761D01*
X147030952Y-105707142D01*
X147007142Y-105611904D01*
X147007142Y-105540476D01*
X147030952Y-105445238D01*
X147054761Y-105397619D01*
X147102380Y-105350000D01*
X147173809Y-105326190D01*
X147221428Y-105326190D01*
X147292857Y-105350000D01*
X147316666Y-105373809D01*
X147602380Y-105540476D02*
X147554761Y-105516666D01*
X147530952Y-105492857D01*
X147507142Y-105445238D01*
X147507142Y-105421428D01*
X147530952Y-105373809D01*
X147554761Y-105350000D01*
X147602380Y-105326190D01*
X147697619Y-105326190D01*
X147745238Y-105350000D01*
X147769047Y-105373809D01*
X147792857Y-105421428D01*
X147792857Y-105445238D01*
X147769047Y-105492857D01*
X147745238Y-105516666D01*
X147697619Y-105540476D01*
X147602380Y-105540476D01*
X147554761Y-105564285D01*
X147530952Y-105588095D01*
X147507142Y-105635714D01*
X147507142Y-105730952D01*
X147530952Y-105778571D01*
X147554761Y-105802380D01*
X147602380Y-105826190D01*
X147697619Y-105826190D01*
X147745238Y-105802380D01*
X147769047Y-105778571D01*
X147792857Y-105730952D01*
X147792857Y-105635714D01*
X147769047Y-105588095D01*
X147745238Y-105564285D01*
X147697619Y-105540476D01*
X150028571Y-104628571D02*
X150004761Y-104652380D01*
X149933333Y-104676190D01*
X149885714Y-104676190D01*
X149814285Y-104652380D01*
X149766666Y-104604761D01*
X149742857Y-104557142D01*
X149719047Y-104461904D01*
X149719047Y-104390476D01*
X149742857Y-104295238D01*
X149766666Y-104247619D01*
X149814285Y-104200000D01*
X149885714Y-104176190D01*
X149933333Y-104176190D01*
X150004761Y-104200000D01*
X150028571Y-104223809D01*
X150504761Y-104676190D02*
X150219047Y-104676190D01*
X150361904Y-104676190D02*
X150361904Y-104176190D01*
X150314285Y-104247619D01*
X150266666Y-104295238D01*
X150219047Y-104319047D01*
X150814285Y-104176190D02*
X150861904Y-104176190D01*
X150909523Y-104200000D01*
X150933333Y-104223809D01*
X150957142Y-104271428D01*
X150980952Y-104366666D01*
X150980952Y-104485714D01*
X150957142Y-104580952D01*
X150933333Y-104628571D01*
X150909523Y-104652380D01*
X150861904Y-104676190D01*
X150814285Y-104676190D01*
X150766666Y-104652380D01*
X150742857Y-104628571D01*
X150719047Y-104580952D01*
X150695238Y-104485714D01*
X150695238Y-104366666D01*
X150719047Y-104271428D01*
X150742857Y-104223809D01*
X150766666Y-104200000D01*
X150814285Y-104176190D01*
X149116666Y-104278571D02*
X149092857Y-104302380D01*
X149021428Y-104326190D01*
X148973809Y-104326190D01*
X148902380Y-104302380D01*
X148854761Y-104254761D01*
X148830952Y-104207142D01*
X148807142Y-104111904D01*
X148807142Y-104040476D01*
X148830952Y-103945238D01*
X148854761Y-103897619D01*
X148902380Y-103850000D01*
X148973809Y-103826190D01*
X149021428Y-103826190D01*
X149092857Y-103850000D01*
X149116666Y-103873809D01*
X149283333Y-103826190D02*
X149616666Y-103826190D01*
X149402380Y-104326190D01*
X149461904Y-118188095D02*
X149461904Y-118426190D01*
X149295238Y-117926190D02*
X149461904Y-118188095D01*
X149628571Y-117926190D01*
X150057142Y-118426190D02*
X149771428Y-118426190D01*
X149914285Y-118426190D02*
X149914285Y-117926190D01*
X149866666Y-117997619D01*
X149819047Y-118045238D01*
X149771428Y-118069047D01*
X144116666Y-116126190D02*
X143950000Y-115888095D01*
X143830952Y-116126190D02*
X143830952Y-115626190D01*
X144021428Y-115626190D01*
X144069047Y-115650000D01*
X144092857Y-115673809D01*
X144116666Y-115721428D01*
X144116666Y-115792857D01*
X144092857Y-115840476D01*
X144069047Y-115864285D01*
X144021428Y-115888095D01*
X143830952Y-115888095D01*
X144354761Y-116126190D02*
X144450000Y-116126190D01*
X144497619Y-116102380D01*
X144521428Y-116078571D01*
X144569047Y-116007142D01*
X144592857Y-115911904D01*
X144592857Y-115721428D01*
X144569047Y-115673809D01*
X144545238Y-115650000D01*
X144497619Y-115626190D01*
X144402380Y-115626190D01*
X144354761Y-115650000D01*
X144330952Y-115673809D01*
X144307142Y-115721428D01*
X144307142Y-115840476D01*
X144330952Y-115888095D01*
X144354761Y-115911904D01*
X144402380Y-115935714D01*
X144497619Y-115935714D01*
X144545238Y-115911904D01*
X144569047Y-115888095D01*
X144592857Y-115840476D01*
X139816666Y-116126190D02*
X139650000Y-115888095D01*
X139530952Y-116126190D02*
X139530952Y-115626190D01*
X139721428Y-115626190D01*
X139769047Y-115650000D01*
X139792857Y-115673809D01*
X139816666Y-115721428D01*
X139816666Y-115792857D01*
X139792857Y-115840476D01*
X139769047Y-115864285D01*
X139721428Y-115888095D01*
X139530952Y-115888095D01*
X140245238Y-115626190D02*
X140150000Y-115626190D01*
X140102380Y-115650000D01*
X140078571Y-115673809D01*
X140030952Y-115745238D01*
X140007142Y-115840476D01*
X140007142Y-116030952D01*
X140030952Y-116078571D01*
X140054761Y-116102380D01*
X140102380Y-116126190D01*
X140197619Y-116126190D01*
X140245238Y-116102380D01*
X140269047Y-116078571D01*
X140292857Y-116030952D01*
X140292857Y-115911904D01*
X140269047Y-115864285D01*
X140245238Y-115840476D01*
X140197619Y-115816666D01*
X140102380Y-115816666D01*
X140054761Y-115840476D01*
X140030952Y-115864285D01*
X140007142Y-115911904D01*
X141816666Y-116078571D02*
X141792857Y-116102380D01*
X141721428Y-116126190D01*
X141673809Y-116126190D01*
X141602380Y-116102380D01*
X141554761Y-116054761D01*
X141530952Y-116007142D01*
X141507142Y-115911904D01*
X141507142Y-115840476D01*
X141530952Y-115745238D01*
X141554761Y-115697619D01*
X141602380Y-115650000D01*
X141673809Y-115626190D01*
X141721428Y-115626190D01*
X141792857Y-115650000D01*
X141816666Y-115673809D01*
X142245238Y-115626190D02*
X142150000Y-115626190D01*
X142102380Y-115650000D01*
X142078571Y-115673809D01*
X142030952Y-115745238D01*
X142007142Y-115840476D01*
X142007142Y-116030952D01*
X142030952Y-116078571D01*
X142054761Y-116102380D01*
X142102380Y-116126190D01*
X142197619Y-116126190D01*
X142245238Y-116102380D01*
X142269047Y-116078571D01*
X142292857Y-116030952D01*
X142292857Y-115911904D01*
X142269047Y-115864285D01*
X142245238Y-115840476D01*
X142197619Y-115816666D01*
X142102380Y-115816666D01*
X142054761Y-115840476D01*
X142030952Y-115864285D01*
X142007142Y-115911904D01*
X137816666Y-116126190D02*
X137650000Y-115888095D01*
X137530952Y-116126190D02*
X137530952Y-115626190D01*
X137721428Y-115626190D01*
X137769047Y-115650000D01*
X137792857Y-115673809D01*
X137816666Y-115721428D01*
X137816666Y-115792857D01*
X137792857Y-115840476D01*
X137769047Y-115864285D01*
X137721428Y-115888095D01*
X137530952Y-115888095D01*
X138269047Y-115626190D02*
X138030952Y-115626190D01*
X138007142Y-115864285D01*
X138030952Y-115840476D01*
X138078571Y-115816666D01*
X138197619Y-115816666D01*
X138245238Y-115840476D01*
X138269047Y-115864285D01*
X138292857Y-115911904D01*
X138292857Y-116030952D01*
X138269047Y-116078571D01*
X138245238Y-116102380D01*
X138197619Y-116126190D01*
X138078571Y-116126190D01*
X138030952Y-116102380D01*
X138007142Y-116078571D01*
X137911904Y-112226190D02*
X137911904Y-111726190D01*
X138435714Y-112178571D02*
X138411904Y-112202380D01*
X138340476Y-112226190D01*
X138292857Y-112226190D01*
X138221428Y-112202380D01*
X138173809Y-112154761D01*
X138150000Y-112107142D01*
X138126190Y-112011904D01*
X138126190Y-111940476D01*
X138150000Y-111845238D01*
X138173809Y-111797619D01*
X138221428Y-111750000D01*
X138292857Y-111726190D01*
X138340476Y-111726190D01*
X138411904Y-111750000D01*
X138435714Y-111773809D01*
X138911904Y-112226190D02*
X138626190Y-112226190D01*
X138769047Y-112226190D02*
X138769047Y-111726190D01*
X138721428Y-111797619D01*
X138673809Y-111845238D01*
X138626190Y-111869047D01*
X142916666Y-104078571D02*
X142892857Y-104102380D01*
X142821428Y-104126190D01*
X142773809Y-104126190D01*
X142702380Y-104102380D01*
X142654761Y-104054761D01*
X142630952Y-104007142D01*
X142607142Y-103911904D01*
X142607142Y-103840476D01*
X142630952Y-103745238D01*
X142654761Y-103697619D01*
X142702380Y-103650000D01*
X142773809Y-103626190D01*
X142821428Y-103626190D01*
X142892857Y-103650000D01*
X142916666Y-103673809D01*
X143345238Y-103792857D02*
X143345238Y-104126190D01*
X143226190Y-103602380D02*
X143107142Y-103959523D01*
X143416666Y-103959523D01*
X147078571Y-102026190D02*
X146911904Y-101788095D01*
X146792857Y-102026190D02*
X146792857Y-101526190D01*
X146983333Y-101526190D01*
X147030952Y-101550000D01*
X147054761Y-101573809D01*
X147078571Y-101621428D01*
X147078571Y-101692857D01*
X147054761Y-101740476D01*
X147030952Y-101764285D01*
X146983333Y-101788095D01*
X146792857Y-101788095D01*
X147554761Y-102026190D02*
X147269047Y-102026190D01*
X147411904Y-102026190D02*
X147411904Y-101526190D01*
X147364285Y-101597619D01*
X147316666Y-101645238D01*
X147269047Y-101669047D01*
X147864285Y-101526190D02*
X147911904Y-101526190D01*
X147959523Y-101550000D01*
X147983333Y-101573809D01*
X148007142Y-101621428D01*
X148030952Y-101716666D01*
X148030952Y-101835714D01*
X148007142Y-101930952D01*
X147983333Y-101978571D01*
X147959523Y-102002380D01*
X147911904Y-102026190D01*
X147864285Y-102026190D01*
X147816666Y-102002380D01*
X147792857Y-101978571D01*
X147769047Y-101930952D01*
X147745238Y-101835714D01*
X147745238Y-101716666D01*
X147769047Y-101621428D01*
X147792857Y-101573809D01*
X147816666Y-101550000D01*
X147864285Y-101526190D01*
X146016666Y-101478571D02*
X145992857Y-101502380D01*
X145921428Y-101526190D01*
X145873809Y-101526190D01*
X145802380Y-101502380D01*
X145754761Y-101454761D01*
X145730952Y-101407142D01*
X145707142Y-101311904D01*
X145707142Y-101240476D01*
X145730952Y-101145238D01*
X145754761Y-101097619D01*
X145802380Y-101050000D01*
X145873809Y-101026190D01*
X145921428Y-101026190D01*
X145992857Y-101050000D01*
X146016666Y-101073809D01*
X146469047Y-101026190D02*
X146230952Y-101026190D01*
X146207142Y-101264285D01*
X146230952Y-101240476D01*
X146278571Y-101216666D01*
X146397619Y-101216666D01*
X146445238Y-101240476D01*
X146469047Y-101264285D01*
X146492857Y-101311904D01*
X146492857Y-101430952D01*
X146469047Y-101478571D01*
X146445238Y-101502380D01*
X146397619Y-101526190D01*
X146278571Y-101526190D01*
X146230952Y-101502380D01*
X146207142Y-101478571D01*
X145716666Y-100178571D02*
X145692857Y-100202380D01*
X145621428Y-100226190D01*
X145573809Y-100226190D01*
X145502380Y-100202380D01*
X145454761Y-100154761D01*
X145430952Y-100107142D01*
X145407142Y-100011904D01*
X145407142Y-99940476D01*
X145430952Y-99845238D01*
X145454761Y-99797619D01*
X145502380Y-99750000D01*
X145573809Y-99726190D01*
X145621428Y-99726190D01*
X145692857Y-99750000D01*
X145716666Y-99773809D01*
X145883333Y-99726190D02*
X146192857Y-99726190D01*
X146026190Y-99916666D01*
X146097619Y-99916666D01*
X146145238Y-99940476D01*
X146169047Y-99964285D01*
X146192857Y-100011904D01*
X146192857Y-100130952D01*
X146169047Y-100178571D01*
X146145238Y-100202380D01*
X146097619Y-100226190D01*
X145954761Y-100226190D01*
X145907142Y-100202380D01*
X145883333Y-100178571D01*
X145416666Y-98426190D02*
X145250000Y-98188095D01*
X145130952Y-98426190D02*
X145130952Y-97926190D01*
X145321428Y-97926190D01*
X145369047Y-97950000D01*
X145392857Y-97973809D01*
X145416666Y-98021428D01*
X145416666Y-98092857D01*
X145392857Y-98140476D01*
X145369047Y-98164285D01*
X145321428Y-98188095D01*
X145130952Y-98188095D01*
X145702380Y-98140476D02*
X145654761Y-98116666D01*
X145630952Y-98092857D01*
X145607142Y-98045238D01*
X145607142Y-98021428D01*
X145630952Y-97973809D01*
X145654761Y-97950000D01*
X145702380Y-97926190D01*
X145797619Y-97926190D01*
X145845238Y-97950000D01*
X145869047Y-97973809D01*
X145892857Y-98021428D01*
X145892857Y-98045238D01*
X145869047Y-98092857D01*
X145845238Y-98116666D01*
X145797619Y-98140476D01*
X145702380Y-98140476D01*
X145654761Y-98164285D01*
X145630952Y-98188095D01*
X145607142Y-98235714D01*
X145607142Y-98330952D01*
X145630952Y-98378571D01*
X145654761Y-98402380D01*
X145702380Y-98426190D01*
X145797619Y-98426190D01*
X145845238Y-98402380D01*
X145869047Y-98378571D01*
X145892857Y-98330952D01*
X145892857Y-98235714D01*
X145869047Y-98188095D01*
X145845238Y-98164285D01*
X145797619Y-98140476D01*
X143416666Y-95526190D02*
X143250000Y-95288095D01*
X143130952Y-95526190D02*
X143130952Y-95026190D01*
X143321428Y-95026190D01*
X143369047Y-95050000D01*
X143392857Y-95073809D01*
X143416666Y-95121428D01*
X143416666Y-95192857D01*
X143392857Y-95240476D01*
X143369047Y-95264285D01*
X143321428Y-95288095D01*
X143130952Y-95288095D01*
X143583333Y-95026190D02*
X143916666Y-95026190D01*
X143702380Y-95526190D01*
X137416666Y-104226190D02*
X137250000Y-103988095D01*
X137130952Y-104226190D02*
X137130952Y-103726190D01*
X137321428Y-103726190D01*
X137369047Y-103750000D01*
X137392857Y-103773809D01*
X137416666Y-103821428D01*
X137416666Y-103892857D01*
X137392857Y-103940476D01*
X137369047Y-103964285D01*
X137321428Y-103988095D01*
X137130952Y-103988095D01*
X137845238Y-103892857D02*
X137845238Y-104226190D01*
X137726190Y-103702380D02*
X137607142Y-104059523D01*
X137916666Y-104059523D01*
X136816666Y-100726190D02*
X136650000Y-100488095D01*
X136530952Y-100726190D02*
X136530952Y-100226190D01*
X136721428Y-100226190D01*
X136769047Y-100250000D01*
X136792857Y-100273809D01*
X136816666Y-100321428D01*
X136816666Y-100392857D01*
X136792857Y-100440476D01*
X136769047Y-100464285D01*
X136721428Y-100488095D01*
X136530952Y-100488095D01*
X136983333Y-100226190D02*
X137292857Y-100226190D01*
X137126190Y-100416666D01*
X137197619Y-100416666D01*
X137245238Y-100440476D01*
X137269047Y-100464285D01*
X137292857Y-100511904D01*
X137292857Y-100630952D01*
X137269047Y-100678571D01*
X137245238Y-100702380D01*
X137197619Y-100726190D01*
X137054761Y-100726190D01*
X137007142Y-100702380D01*
X136983333Y-100678571D01*
X139116666Y-95778571D02*
X139092857Y-95802380D01*
X139021428Y-95826190D01*
X138973809Y-95826190D01*
X138902380Y-95802380D01*
X138854761Y-95754761D01*
X138830952Y-95707142D01*
X138807142Y-95611904D01*
X138807142Y-95540476D01*
X138830952Y-95445238D01*
X138854761Y-95397619D01*
X138902380Y-95350000D01*
X138973809Y-95326190D01*
X139021428Y-95326190D01*
X139092857Y-95350000D01*
X139116666Y-95373809D01*
X139307142Y-95373809D02*
X139330952Y-95350000D01*
X139378571Y-95326190D01*
X139497619Y-95326190D01*
X139545238Y-95350000D01*
X139569047Y-95373809D01*
X139592857Y-95421428D01*
X139592857Y-95469047D01*
X139569047Y-95540476D01*
X139283333Y-95826190D01*
X139592857Y-95826190D01*
X140649047Y-87100000D02*
X140601428Y-87076190D01*
X140530000Y-87076190D01*
X140458571Y-87100000D01*
X140410952Y-87147619D01*
X140387142Y-87195238D01*
X140363333Y-87290476D01*
X140363333Y-87361904D01*
X140387142Y-87457142D01*
X140410952Y-87504761D01*
X140458571Y-87552380D01*
X140530000Y-87576190D01*
X140577619Y-87576190D01*
X140649047Y-87552380D01*
X140672857Y-87528571D01*
X140672857Y-87361904D01*
X140577619Y-87361904D01*
X140887142Y-87576190D02*
X140887142Y-87076190D01*
X141172857Y-87576190D01*
X141172857Y-87076190D01*
X141410952Y-87576190D02*
X141410952Y-87076190D01*
X141530000Y-87076190D01*
X141601428Y-87100000D01*
X141649047Y-87147619D01*
X141672857Y-87195238D01*
X141696666Y-87290476D01*
X141696666Y-87361904D01*
X141672857Y-87457142D01*
X141649047Y-87504761D01*
X141601428Y-87552380D01*
X141530000Y-87576190D01*
X141410952Y-87576190D01*
X173430952Y-87076190D02*
X173716666Y-87076190D01*
X173573809Y-87576190D02*
X173573809Y-87076190D01*
X173835714Y-87076190D02*
X174169047Y-87576190D01*
X174169047Y-87076190D02*
X173835714Y-87576190D01*
X174454761Y-87076190D02*
X174502380Y-87076190D01*
X174550000Y-87100000D01*
X174573809Y-87123809D01*
X174597619Y-87171428D01*
X174621428Y-87266666D01*
X174621428Y-87385714D01*
X174597619Y-87480952D01*
X174573809Y-87528571D01*
X174550000Y-87552380D01*
X174502380Y-87576190D01*
X174454761Y-87576190D01*
X174407142Y-87552380D01*
X174383333Y-87528571D01*
X174359523Y-87480952D01*
X174335714Y-87385714D01*
X174335714Y-87266666D01*
X174359523Y-87171428D01*
X174383333Y-87123809D01*
X174407142Y-87100000D01*
X174454761Y-87076190D01*
X171188571Y-87576190D02*
X171021904Y-87338095D01*
X170902857Y-87576190D02*
X170902857Y-87076190D01*
X171093333Y-87076190D01*
X171140952Y-87100000D01*
X171164761Y-87123809D01*
X171188571Y-87171428D01*
X171188571Y-87242857D01*
X171164761Y-87290476D01*
X171140952Y-87314285D01*
X171093333Y-87338095D01*
X170902857Y-87338095D01*
X171355238Y-87076190D02*
X171688571Y-87576190D01*
X171688571Y-87076190D02*
X171355238Y-87576190D01*
X171974285Y-87076190D02*
X172021904Y-87076190D01*
X172069523Y-87100000D01*
X172093333Y-87123809D01*
X172117142Y-87171428D01*
X172140952Y-87266666D01*
X172140952Y-87385714D01*
X172117142Y-87480952D01*
X172093333Y-87528571D01*
X172069523Y-87552380D01*
X172021904Y-87576190D01*
X171974285Y-87576190D01*
X171926666Y-87552380D01*
X171902857Y-87528571D01*
X171879047Y-87480952D01*
X171855238Y-87385714D01*
X171855238Y-87266666D01*
X171879047Y-87171428D01*
X171902857Y-87123809D01*
X171926666Y-87100000D01*
X171974285Y-87076190D01*
X168458095Y-87528571D02*
X168434285Y-87552380D01*
X168362857Y-87576190D01*
X168315238Y-87576190D01*
X168243809Y-87552380D01*
X168196190Y-87504761D01*
X168172380Y-87457142D01*
X168148571Y-87361904D01*
X168148571Y-87290476D01*
X168172380Y-87195238D01*
X168196190Y-87147619D01*
X168243809Y-87100000D01*
X168315238Y-87076190D01*
X168362857Y-87076190D01*
X168434285Y-87100000D01*
X168458095Y-87123809D01*
X168600952Y-87076190D02*
X168886666Y-87076190D01*
X168743809Y-87576190D02*
X168743809Y-87076190D01*
X169029523Y-87552380D02*
X169100952Y-87576190D01*
X169220000Y-87576190D01*
X169267619Y-87552380D01*
X169291428Y-87528571D01*
X169315238Y-87480952D01*
X169315238Y-87433333D01*
X169291428Y-87385714D01*
X169267619Y-87361904D01*
X169220000Y-87338095D01*
X169124761Y-87314285D01*
X169077142Y-87290476D01*
X169053333Y-87266666D01*
X169029523Y-87219047D01*
X169029523Y-87171428D01*
X169053333Y-87123809D01*
X169077142Y-87100000D01*
X169124761Y-87076190D01*
X169243809Y-87076190D01*
X169315238Y-87100000D01*
X169624761Y-87076190D02*
X169672380Y-87076190D01*
X169720000Y-87100000D01*
X169743809Y-87123809D01*
X169767619Y-87171428D01*
X169791428Y-87266666D01*
X169791428Y-87385714D01*
X169767619Y-87480952D01*
X169743809Y-87528571D01*
X169720000Y-87552380D01*
X169672380Y-87576190D01*
X169624761Y-87576190D01*
X169577142Y-87552380D01*
X169553333Y-87528571D01*
X169529523Y-87480952D01*
X169505714Y-87385714D01*
X169505714Y-87266666D01*
X169529523Y-87171428D01*
X169553333Y-87123809D01*
X169577142Y-87100000D01*
X169624761Y-87076190D01*
X165918095Y-87576190D02*
X165751428Y-87338095D01*
X165632380Y-87576190D02*
X165632380Y-87076190D01*
X165822857Y-87076190D01*
X165870476Y-87100000D01*
X165894285Y-87123809D01*
X165918095Y-87171428D01*
X165918095Y-87242857D01*
X165894285Y-87290476D01*
X165870476Y-87314285D01*
X165822857Y-87338095D01*
X165632380Y-87338095D01*
X166060952Y-87076190D02*
X166346666Y-87076190D01*
X166203809Y-87576190D02*
X166203809Y-87076190D01*
X166489523Y-87552380D02*
X166560952Y-87576190D01*
X166680000Y-87576190D01*
X166727619Y-87552380D01*
X166751428Y-87528571D01*
X166775238Y-87480952D01*
X166775238Y-87433333D01*
X166751428Y-87385714D01*
X166727619Y-87361904D01*
X166680000Y-87338095D01*
X166584761Y-87314285D01*
X166537142Y-87290476D01*
X166513333Y-87266666D01*
X166489523Y-87219047D01*
X166489523Y-87171428D01*
X166513333Y-87123809D01*
X166537142Y-87100000D01*
X166584761Y-87076190D01*
X166703809Y-87076190D01*
X166775238Y-87100000D01*
X167084761Y-87076190D02*
X167132380Y-87076190D01*
X167180000Y-87100000D01*
X167203809Y-87123809D01*
X167227619Y-87171428D01*
X167251428Y-87266666D01*
X167251428Y-87385714D01*
X167227619Y-87480952D01*
X167203809Y-87528571D01*
X167180000Y-87552380D01*
X167132380Y-87576190D01*
X167084761Y-87576190D01*
X167037142Y-87552380D01*
X167013333Y-87528571D01*
X166989523Y-87480952D01*
X166965714Y-87385714D01*
X166965714Y-87266666D01*
X166989523Y-87171428D01*
X167013333Y-87123809D01*
X167037142Y-87100000D01*
X167084761Y-87076190D01*
X173430952Y-128376190D02*
X173716666Y-128376190D01*
X173573809Y-128876190D02*
X173573809Y-128376190D01*
X173835714Y-128376190D02*
X174169047Y-128876190D01*
X174169047Y-128376190D02*
X173835714Y-128876190D01*
X174621428Y-128876190D02*
X174335714Y-128876190D01*
X174478571Y-128876190D02*
X174478571Y-128376190D01*
X174430952Y-128447619D01*
X174383333Y-128495238D01*
X174335714Y-128519047D01*
X171188571Y-128876190D02*
X171021904Y-128638095D01*
X170902857Y-128876190D02*
X170902857Y-128376190D01*
X171093333Y-128376190D01*
X171140952Y-128400000D01*
X171164761Y-128423809D01*
X171188571Y-128471428D01*
X171188571Y-128542857D01*
X171164761Y-128590476D01*
X171140952Y-128614285D01*
X171093333Y-128638095D01*
X170902857Y-128638095D01*
X171355238Y-128376190D02*
X171688571Y-128876190D01*
X171688571Y-128376190D02*
X171355238Y-128876190D01*
X172140952Y-128876190D02*
X171855238Y-128876190D01*
X171998095Y-128876190D02*
X171998095Y-128376190D01*
X171950476Y-128447619D01*
X171902857Y-128495238D01*
X171855238Y-128519047D01*
X168458095Y-128828571D02*
X168434285Y-128852380D01*
X168362857Y-128876190D01*
X168315238Y-128876190D01*
X168243809Y-128852380D01*
X168196190Y-128804761D01*
X168172380Y-128757142D01*
X168148571Y-128661904D01*
X168148571Y-128590476D01*
X168172380Y-128495238D01*
X168196190Y-128447619D01*
X168243809Y-128400000D01*
X168315238Y-128376190D01*
X168362857Y-128376190D01*
X168434285Y-128400000D01*
X168458095Y-128423809D01*
X168600952Y-128376190D02*
X168886666Y-128376190D01*
X168743809Y-128876190D02*
X168743809Y-128376190D01*
X169029523Y-128852380D02*
X169100952Y-128876190D01*
X169220000Y-128876190D01*
X169267619Y-128852380D01*
X169291428Y-128828571D01*
X169315238Y-128780952D01*
X169315238Y-128733333D01*
X169291428Y-128685714D01*
X169267619Y-128661904D01*
X169220000Y-128638095D01*
X169124761Y-128614285D01*
X169077142Y-128590476D01*
X169053333Y-128566666D01*
X169029523Y-128519047D01*
X169029523Y-128471428D01*
X169053333Y-128423809D01*
X169077142Y-128400000D01*
X169124761Y-128376190D01*
X169243809Y-128376190D01*
X169315238Y-128400000D01*
X169791428Y-128876190D02*
X169505714Y-128876190D01*
X169648571Y-128876190D02*
X169648571Y-128376190D01*
X169600952Y-128447619D01*
X169553333Y-128495238D01*
X169505714Y-128519047D01*
X165918095Y-128876190D02*
X165751428Y-128638095D01*
X165632380Y-128876190D02*
X165632380Y-128376190D01*
X165822857Y-128376190D01*
X165870476Y-128400000D01*
X165894285Y-128423809D01*
X165918095Y-128471428D01*
X165918095Y-128542857D01*
X165894285Y-128590476D01*
X165870476Y-128614285D01*
X165822857Y-128638095D01*
X165632380Y-128638095D01*
X166060952Y-128376190D02*
X166346666Y-128376190D01*
X166203809Y-128876190D02*
X166203809Y-128376190D01*
X166489523Y-128852380D02*
X166560952Y-128876190D01*
X166680000Y-128876190D01*
X166727619Y-128852380D01*
X166751428Y-128828571D01*
X166775238Y-128780952D01*
X166775238Y-128733333D01*
X166751428Y-128685714D01*
X166727619Y-128661904D01*
X166680000Y-128638095D01*
X166584761Y-128614285D01*
X166537142Y-128590476D01*
X166513333Y-128566666D01*
X166489523Y-128519047D01*
X166489523Y-128471428D01*
X166513333Y-128423809D01*
X166537142Y-128400000D01*
X166584761Y-128376190D01*
X166703809Y-128376190D01*
X166775238Y-128400000D01*
X167251428Y-128876190D02*
X166965714Y-128876190D01*
X167108571Y-128876190D02*
X167108571Y-128376190D01*
X167060952Y-128447619D01*
X167013333Y-128495238D01*
X166965714Y-128519047D01*
X138283333Y-97964285D02*
X138116666Y-97964285D01*
X138116666Y-98226190D02*
X138116666Y-97726190D01*
X138354761Y-97726190D01*
X138711904Y-97964285D02*
X138783333Y-97988095D01*
X138807142Y-98011904D01*
X138830952Y-98059523D01*
X138830952Y-98130952D01*
X138807142Y-98178571D01*
X138783333Y-98202380D01*
X138735714Y-98226190D01*
X138545238Y-98226190D01*
X138545238Y-97726190D01*
X138711904Y-97726190D01*
X138759523Y-97750000D01*
X138783333Y-97773809D01*
X138807142Y-97821428D01*
X138807142Y-97869047D01*
X138783333Y-97916666D01*
X138759523Y-97940476D01*
X138711904Y-97964285D01*
X138545238Y-97964285D01*
X139307142Y-98226190D02*
X139021428Y-98226190D01*
X139164285Y-98226190D02*
X139164285Y-97726190D01*
X139116666Y-97797619D01*
X139069047Y-97845238D01*
X139021428Y-97869047D01*
X142748571Y-125676190D02*
X142748571Y-125176190D01*
X143034285Y-125676190D01*
X143034285Y-125176190D01*
X143558095Y-125676190D02*
X143391428Y-125438095D01*
X143272380Y-125676190D02*
X143272380Y-125176190D01*
X143462857Y-125176190D01*
X143510476Y-125200000D01*
X143534285Y-125223809D01*
X143558095Y-125271428D01*
X143558095Y-125342857D01*
X143534285Y-125390476D01*
X143510476Y-125414285D01*
X143462857Y-125438095D01*
X143272380Y-125438095D01*
X143748571Y-125652380D02*
X143820000Y-125676190D01*
X143939047Y-125676190D01*
X143986666Y-125652380D01*
X144010476Y-125628571D01*
X144034285Y-125580952D01*
X144034285Y-125533333D01*
X144010476Y-125485714D01*
X143986666Y-125461904D01*
X143939047Y-125438095D01*
X143843809Y-125414285D01*
X143796190Y-125390476D01*
X143772380Y-125366666D01*
X143748571Y-125319047D01*
X143748571Y-125271428D01*
X143772380Y-125223809D01*
X143796190Y-125200000D01*
X143843809Y-125176190D01*
X143962857Y-125176190D01*
X144034285Y-125200000D01*
X144177142Y-125176190D02*
X144462857Y-125176190D01*
X144320000Y-125676190D02*
X144320000Y-125176190D01*
X143200952Y-128876190D02*
X143200952Y-128376190D01*
X143320000Y-128376190D01*
X143391428Y-128400000D01*
X143439047Y-128447619D01*
X143462857Y-128495238D01*
X143486666Y-128590476D01*
X143486666Y-128661904D01*
X143462857Y-128757142D01*
X143439047Y-128804761D01*
X143391428Y-128852380D01*
X143320000Y-128876190D01*
X143200952Y-128876190D01*
X143796190Y-128376190D02*
X143843809Y-128376190D01*
X143891428Y-128400000D01*
X143915238Y-128423809D01*
X143939047Y-128471428D01*
X143962857Y-128566666D01*
X143962857Y-128685714D01*
X143939047Y-128780952D01*
X143915238Y-128828571D01*
X143891428Y-128852380D01*
X143843809Y-128876190D01*
X143796190Y-128876190D01*
X143748571Y-128852380D01*
X143724761Y-128828571D01*
X143700952Y-128780952D01*
X143677142Y-128685714D01*
X143677142Y-128566666D01*
X143700952Y-128471428D01*
X143724761Y-128423809D01*
X143748571Y-128400000D01*
X143796190Y-128376190D01*
X140649047Y-128400000D02*
X140601428Y-128376190D01*
X140530000Y-128376190D01*
X140458571Y-128400000D01*
X140410952Y-128447619D01*
X140387142Y-128495238D01*
X140363333Y-128590476D01*
X140363333Y-128661904D01*
X140387142Y-128757142D01*
X140410952Y-128804761D01*
X140458571Y-128852380D01*
X140530000Y-128876190D01*
X140577619Y-128876190D01*
X140649047Y-128852380D01*
X140672857Y-128828571D01*
X140672857Y-128661904D01*
X140577619Y-128661904D01*
X140887142Y-128876190D02*
X140887142Y-128376190D01*
X141172857Y-128876190D01*
X141172857Y-128376190D01*
X141410952Y-128876190D02*
X141410952Y-128376190D01*
X141530000Y-128376190D01*
X141601428Y-128400000D01*
X141649047Y-128447619D01*
X141672857Y-128495238D01*
X141696666Y-128590476D01*
X141696666Y-128661904D01*
X141672857Y-128757142D01*
X141649047Y-128804761D01*
X141601428Y-128852380D01*
X141530000Y-128876190D01*
X141410952Y-128876190D01*
X140640476Y-122126190D02*
X140402380Y-122126190D01*
X140402380Y-121626190D01*
X140807142Y-121864285D02*
X140973809Y-121864285D01*
X141045238Y-122126190D02*
X140807142Y-122126190D01*
X140807142Y-121626190D01*
X141045238Y-121626190D01*
X141259523Y-122126190D02*
X141259523Y-121626190D01*
X141378571Y-121626190D01*
X141450000Y-121650000D01*
X141497619Y-121697619D01*
X141521428Y-121745238D01*
X141545238Y-121840476D01*
X141545238Y-121911904D01*
X141521428Y-122007142D01*
X141497619Y-122054761D01*
X141450000Y-122102380D01*
X141378571Y-122126190D01*
X141259523Y-122126190D01*
X141735714Y-121673809D02*
X141759523Y-121650000D01*
X141807142Y-121626190D01*
X141926190Y-121626190D01*
X141973809Y-121650000D01*
X141997619Y-121673809D01*
X142021428Y-121721428D01*
X142021428Y-121769047D01*
X141997619Y-121840476D01*
X141711904Y-122126190D01*
X142021428Y-122126190D01*
X137240476Y-122126190D02*
X137002380Y-122126190D01*
X137002380Y-121626190D01*
X137407142Y-121864285D02*
X137573809Y-121864285D01*
X137645238Y-122126190D02*
X137407142Y-122126190D01*
X137407142Y-121626190D01*
X137645238Y-121626190D01*
X137859523Y-122126190D02*
X137859523Y-121626190D01*
X137978571Y-121626190D01*
X138050000Y-121650000D01*
X138097619Y-121697619D01*
X138121428Y-121745238D01*
X138145238Y-121840476D01*
X138145238Y-121911904D01*
X138121428Y-122007142D01*
X138097619Y-122054761D01*
X138050000Y-122102380D01*
X137978571Y-122126190D01*
X137859523Y-122126190D01*
X138621428Y-122126190D02*
X138335714Y-122126190D01*
X138478571Y-122126190D02*
X138478571Y-121626190D01*
X138430952Y-121697619D01*
X138383333Y-121745238D01*
X138335714Y-121769047D01*
X133316666Y-110578571D02*
X133292857Y-110602380D01*
X133221428Y-110626190D01*
X133173809Y-110626190D01*
X133102380Y-110602380D01*
X133054761Y-110554761D01*
X133030952Y-110507142D01*
X133007142Y-110411904D01*
X133007142Y-110340476D01*
X133030952Y-110245238D01*
X133054761Y-110197619D01*
X133102380Y-110150000D01*
X133173809Y-110126190D01*
X133221428Y-110126190D01*
X133292857Y-110150000D01*
X133316666Y-110173809D01*
X133792857Y-110626190D02*
X133507142Y-110626190D01*
X133650000Y-110626190D02*
X133650000Y-110126190D01*
X133602380Y-110197619D01*
X133554761Y-110245238D01*
X133507142Y-110269047D01*
X133026190Y-107626190D02*
X132859523Y-107388095D01*
X132740476Y-107626190D02*
X132740476Y-107126190D01*
X132930952Y-107126190D01*
X132978571Y-107150000D01*
X133002380Y-107173809D01*
X133026190Y-107221428D01*
X133026190Y-107292857D01*
X133002380Y-107340476D01*
X132978571Y-107364285D01*
X132930952Y-107388095D01*
X132740476Y-107388095D01*
X133597619Y-107173809D02*
X133621428Y-107150000D01*
X133669047Y-107126190D01*
X133788095Y-107126190D01*
X133835714Y-107150000D01*
X133859523Y-107173809D01*
X133883333Y-107221428D01*
X133883333Y-107269047D01*
X133859523Y-107340476D01*
X133573809Y-107626190D01*
X133883333Y-107626190D01*
X133316666Y-105726190D02*
X133150000Y-105488095D01*
X133030952Y-105726190D02*
X133030952Y-105226190D01*
X133221428Y-105226190D01*
X133269047Y-105250000D01*
X133292857Y-105273809D01*
X133316666Y-105321428D01*
X133316666Y-105392857D01*
X133292857Y-105440476D01*
X133269047Y-105464285D01*
X133221428Y-105488095D01*
X133030952Y-105488095D01*
X133792857Y-105726190D02*
X133507142Y-105726190D01*
X133650000Y-105726190D02*
X133650000Y-105226190D01*
X133602380Y-105297619D01*
X133554761Y-105345238D01*
X133507142Y-105369047D01*
X133280952Y-98836190D02*
X133590476Y-98836190D01*
X133423809Y-99026666D01*
X133495238Y-99026666D01*
X133542857Y-99050476D01*
X133566666Y-99074285D01*
X133590476Y-99121904D01*
X133590476Y-99240952D01*
X133566666Y-99288571D01*
X133542857Y-99312380D01*
X133495238Y-99336190D01*
X133352380Y-99336190D01*
X133304761Y-99312380D01*
X133280952Y-99288571D01*
X133733333Y-98836190D02*
X133900000Y-99336190D01*
X134066666Y-98836190D01*
X134185714Y-98836190D02*
X134495238Y-98836190D01*
X134328571Y-99026666D01*
X134400000Y-99026666D01*
X134447619Y-99050476D01*
X134471428Y-99074285D01*
X134495238Y-99121904D01*
X134495238Y-99240952D01*
X134471428Y-99288571D01*
X134447619Y-99312380D01*
X134400000Y-99336190D01*
X134257142Y-99336190D01*
X134209523Y-99312380D01*
X134185714Y-99288571D01*
X133519047Y-96320000D02*
X133471428Y-96296190D01*
X133400000Y-96296190D01*
X133328571Y-96320000D01*
X133280952Y-96367619D01*
X133257142Y-96415238D01*
X133233333Y-96510476D01*
X133233333Y-96581904D01*
X133257142Y-96677142D01*
X133280952Y-96724761D01*
X133328571Y-96772380D01*
X133400000Y-96796190D01*
X133447619Y-96796190D01*
X133519047Y-96772380D01*
X133542857Y-96748571D01*
X133542857Y-96581904D01*
X133447619Y-96581904D01*
X133757142Y-96796190D02*
X133757142Y-96296190D01*
X134042857Y-96796190D01*
X134042857Y-96296190D01*
X134280952Y-96796190D02*
X134280952Y-96296190D01*
X134400000Y-96296190D01*
X134471428Y-96320000D01*
X134519047Y-96367619D01*
X134542857Y-96415238D01*
X134566666Y-96510476D01*
X134566666Y-96581904D01*
X134542857Y-96677142D01*
X134519047Y-96724761D01*
X134471428Y-96772380D01*
X134400000Y-96796190D01*
X134280952Y-96796190D01*
X133138095Y-94256190D02*
X133138095Y-93756190D01*
X133328571Y-93756190D01*
X133376190Y-93780000D01*
X133400000Y-93803809D01*
X133423809Y-93851428D01*
X133423809Y-93922857D01*
X133400000Y-93970476D01*
X133376190Y-93994285D01*
X133328571Y-94018095D01*
X133138095Y-94018095D01*
X133638095Y-94256190D02*
X133638095Y-93756190D01*
X133757142Y-93756190D01*
X133828571Y-93780000D01*
X133876190Y-93827619D01*
X133900000Y-93875238D01*
X133923809Y-93970476D01*
X133923809Y-94041904D01*
X133900000Y-94137142D01*
X133876190Y-94184761D01*
X133828571Y-94232380D01*
X133757142Y-94256190D01*
X133638095Y-94256190D01*
X134138095Y-94256190D02*
X134138095Y-93756190D01*
X134471428Y-93756190D02*
X134566666Y-93756190D01*
X134614285Y-93780000D01*
X134661904Y-93827619D01*
X134685714Y-93922857D01*
X134685714Y-94089523D01*
X134661904Y-94184761D01*
X134614285Y-94232380D01*
X134566666Y-94256190D01*
X134471428Y-94256190D01*
X134423809Y-94232380D01*
X134376190Y-94184761D01*
X134352380Y-94089523D01*
X134352380Y-93922857D01*
X134376190Y-93827619D01*
X134423809Y-93780000D01*
X134471428Y-93756190D01*
X133066666Y-91716190D02*
X133066666Y-91216190D01*
X133257142Y-91216190D01*
X133304761Y-91240000D01*
X133328571Y-91263809D01*
X133352380Y-91311428D01*
X133352380Y-91382857D01*
X133328571Y-91430476D01*
X133304761Y-91454285D01*
X133257142Y-91478095D01*
X133066666Y-91478095D01*
X133852380Y-91668571D02*
X133828571Y-91692380D01*
X133757142Y-91716190D01*
X133709523Y-91716190D01*
X133638095Y-91692380D01*
X133590476Y-91644761D01*
X133566666Y-91597142D01*
X133542857Y-91501904D01*
X133542857Y-91430476D01*
X133566666Y-91335238D01*
X133590476Y-91287619D01*
X133638095Y-91240000D01*
X133709523Y-91216190D01*
X133757142Y-91216190D01*
X133828571Y-91240000D01*
X133852380Y-91263809D01*
X134304761Y-91716190D02*
X134066666Y-91716190D01*
X134066666Y-91216190D01*
X134471428Y-91716190D02*
X134471428Y-91216190D01*
X134757142Y-91716190D02*
X134542857Y-91430476D01*
X134757142Y-91216190D02*
X134471428Y-91501904D01*
D11*
X139200000Y-98800000D02*
X139200000Y-99400000D01*
D12*
X138175000Y-105250000D02*
G75*
G03X138175000Y-105250000I-125000J0D01*
G01*
X155575000Y-106750000D02*
G75*
G03X155575000Y-106750000I-125000J0D01*
G01*
D10*
X165450000Y-98350000D02*
X165450000Y-103450000D01*
X160350000Y-98350000D02*
X165450000Y-98350000D01*
X160350000Y-103450000D02*
X160350000Y-98350000D01*
X165450000Y-103450000D02*
X160350000Y-103450000D01*
D11*
X166500000Y-110800000D02*
X166500000Y-110800000D01*
X166500000Y-110600000D02*
X166500000Y-110600000D01*
X166500000Y-110600000D02*
G75*
G02X166500000Y-110800000I0J-100000D01*
G01*
X166500000Y-110800000D02*
G75*
G02X166500000Y-110600000I0J100000D01*
G01*
X171300000Y-108100000D02*
X171300000Y-108100000D01*
X171300000Y-107900000D02*
X171300000Y-107900000D01*
X171300000Y-107900000D02*
G75*
G02X171300000Y-108100000I0J-100000D01*
G01*
X171300000Y-108100000D02*
G75*
G02X171300000Y-107900000I0J100000D01*
G01*
X150200000Y-109500000D02*
X149600000Y-109500000D01*
X152700000Y-104800000D02*
X152700000Y-105400000D01*
X137800000Y-120400000D02*
X137800000Y-120400000D01*
X137700000Y-120400000D02*
X137700000Y-120400000D01*
X137800000Y-120400000D02*
X137800000Y-120400000D01*
X137700000Y-120400000D02*
G75*
G02X137800000Y-120400000I50000J0D01*
G01*
X137800000Y-120400000D02*
G75*
G02X137700000Y-120400000I-50000J0D01*
G01*
X137700000Y-120400000D02*
G75*
G02X137800000Y-120400000I50000J0D01*
G01*
X141200000Y-120400000D02*
X141200000Y-120400000D01*
X141100000Y-120400000D02*
X141100000Y-120400000D01*
X141200000Y-120400000D02*
X141200000Y-120400000D01*
X141100000Y-120400000D02*
G75*
G02X141200000Y-120400000I50000J0D01*
G01*
X141200000Y-120400000D02*
G75*
G02X141100000Y-120400000I-50000J0D01*
G01*
X141100000Y-120400000D02*
G75*
G02X141200000Y-120400000I50000J0D01*
G01*
X135400000Y-106525000D02*
X135400000Y-105875000D01*
X135400000Y-108325000D02*
X135400000Y-107675000D01*
X139200000Y-101225000D02*
X139200000Y-100575000D01*
X139200000Y-103025000D02*
X139200000Y-102375000D01*
X138825000Y-114000000D02*
X138175000Y-114000000D01*
X140825000Y-114000000D02*
X140175000Y-114000000D01*
X143500000Y-96075000D02*
X143500000Y-96725000D01*
X143500000Y-98525000D02*
X143500000Y-97875000D01*
X144825000Y-114000000D02*
X144175000Y-114000000D01*
X147400000Y-102575000D02*
X147400000Y-103225000D01*
X168900000Y-113975000D02*
X168900000Y-114625000D01*
X168900000Y-116425000D02*
X168900000Y-115775000D01*
X166105000Y-92300000D02*
X166755000Y-92300000D01*
X168645000Y-92300000D02*
X169295000Y-92300000D01*
X171185000Y-92300000D02*
X171835000Y-92300000D01*
X173725000Y-92300000D02*
X174375000Y-92300000D01*
X166755000Y-123700000D02*
X166105000Y-123700000D01*
X169295000Y-123700000D02*
X168645000Y-123700000D01*
X171835000Y-123700000D02*
X171185000Y-123700000D01*
X174375000Y-123700000D02*
X173725000Y-123700000D01*
D10*
X150200000Y-116400000D02*
X149200000Y-116400000D01*
X149200000Y-116400000D02*
X149200000Y-116400000D01*
X149200000Y-116400000D02*
X150200000Y-116400000D01*
X150200000Y-116400000D02*
X150200000Y-116400000D01*
X152200000Y-115050000D02*
X152200000Y-115050000D01*
X152200000Y-115050000D02*
X152200000Y-114550000D01*
X152200000Y-114550000D02*
X152200000Y-114550000D01*
X152200000Y-114550000D02*
X152200000Y-115050000D01*
X147200000Y-115050000D02*
X147200000Y-115050000D01*
X147200000Y-115050000D02*
X147200000Y-114550000D01*
X147200000Y-114550000D02*
X147200000Y-114550000D01*
X147200000Y-114550000D02*
X147200000Y-115050000D01*
X150200000Y-113200000D02*
X149200000Y-113200000D01*
X149200000Y-113200000D02*
X149200000Y-113200000D01*
X149200000Y-113200000D02*
X150200000Y-113200000D01*
X150200000Y-113200000D02*
X150200000Y-113200000D01*
D11*
X153600000Y-113400000D02*
X153600000Y-113400000D01*
X153500000Y-113400000D02*
X153500000Y-113400000D01*
X153600000Y-113400000D02*
X153600000Y-113400000D01*
X153500000Y-113400000D02*
G75*
G02X153600000Y-113400000I50000J0D01*
G01*
X153600000Y-113400000D02*
G75*
G02X153500000Y-113400000I-50000J0D01*
G01*
X153500000Y-113400000D02*
G75*
G02X153600000Y-113400000I50000J0D01*
G01*
M02*
