G04 #@! TF.GenerationSoftware,KiCad,Pcbnew,5.1.5-52549c5~86~ubuntu18.04.1*
G04 #@! TF.CreationDate,2020-05-01T16:36:59-04:00*
G04 #@! TF.ProjectId,ta-comm,74612d63-6f6d-46d2-9e6b-696361645f70,rev?*
G04 #@! TF.SameCoordinates,Original*
G04 #@! TF.FileFunction,Soldermask,Top*
G04 #@! TF.FilePolarity,Negative*
%FSLAX46Y46*%
G04 Gerber Fmt 4.6, Leading zero omitted, Abs format (unit mm)*
G04 Created by KiCad (PCBNEW 5.1.5-52549c5~86~ubuntu18.04.1) date 2020-05-01 16:36:59*
%MOMM*%
%LPD*%
G04 APERTURE LIST*
%ADD10C,0.600000*%
%ADD11C,0.025000*%
%ADD12R,1.041600X0.901600*%
%ADD13R,0.881600X1.091600*%
%ADD14R,0.901600X1.041600*%
%ADD15R,1.091600X0.881600*%
%ADD16R,0.951600X1.101600*%
%ADD17R,1.001600X0.401600*%
%ADD18R,0.401600X1.001600*%
%ADD19R,0.701600X0.351600*%
%ADD20R,0.351600X0.701600*%
%ADD21R,0.741600X2.181600*%
%ADD22R,0.741600X1.271600*%
%ADD23R,1.271600X0.741600*%
%ADD24R,0.651600X0.601600*%
%ADD25R,0.651600X0.501600*%
%ADD26R,0.501600X0.651600*%
%ADD27C,1.641600*%
%ADD28R,0.701600X1.501600*%
%ADD29R,2.301600X1.151600*%
%ADD30C,2.641600*%
%ADD31R,1.101600X1.151600*%
%ADD32R,1.151600X1.101600*%
%ADD33R,0.901600X0.901600*%
%ADD34R,0.901600X1.101600*%
%ADD35R,1.101600X0.901600*%
%ADD36R,1.701600X1.401600*%
G04 APERTURE END LIST*
D10*
X142150000Y-106500000D02*
X142150000Y-109500000D01*
X140650000Y-106500000D02*
X140650000Y-109500000D01*
X142900000Y-108750000D02*
X139900000Y-108750000D01*
X139900000Y-107250000D02*
X142900000Y-107250000D01*
D11*
G36*
X157375000Y-108025000D02*
G01*
X157375000Y-108575000D01*
X156825000Y-108575000D01*
X157375000Y-108025000D01*
G37*
X157375000Y-108025000D02*
X157375000Y-108575000D01*
X156825000Y-108575000D01*
X157375000Y-108025000D01*
G36*
X156775000Y-108575000D02*
G01*
X156225000Y-108575000D01*
X156225000Y-108025000D01*
X156775000Y-108575000D01*
G37*
X156775000Y-108575000D02*
X156225000Y-108575000D01*
X156225000Y-108025000D01*
X156775000Y-108575000D01*
G36*
X156825000Y-107425000D02*
G01*
X157375000Y-107425000D01*
X157375000Y-107975000D01*
X156825000Y-107425000D01*
G37*
X156825000Y-107425000D02*
X157375000Y-107425000D01*
X157375000Y-107975000D01*
X156825000Y-107425000D01*
G36*
X156425000Y-107233000D02*
G01*
X156425000Y-106650000D01*
X156175000Y-106650000D01*
X156175000Y-107083000D01*
X156425000Y-107233000D01*
G37*
X156425000Y-107233000D02*
X156425000Y-106650000D01*
X156175000Y-106650000D01*
X156175000Y-107083000D01*
X156425000Y-107233000D01*
G36*
X157175000Y-107233000D02*
G01*
X157175000Y-106650000D01*
X157425000Y-106650000D01*
X157425000Y-107083000D01*
X157175000Y-107233000D01*
G37*
X157175000Y-107233000D02*
X157175000Y-106650000D01*
X157425000Y-106650000D01*
X157425000Y-107083000D01*
X157175000Y-107233000D01*
G36*
X157567000Y-107625000D02*
G01*
X158150000Y-107625000D01*
X158150000Y-107375000D01*
X157717000Y-107375000D01*
X157567000Y-107625000D01*
G37*
X157567000Y-107625000D02*
X158150000Y-107625000D01*
X158150000Y-107375000D01*
X157717000Y-107375000D01*
X157567000Y-107625000D01*
G36*
X157567000Y-108375000D02*
G01*
X158150000Y-108375000D01*
X158150000Y-108625000D01*
X157717000Y-108625000D01*
X157567000Y-108375000D01*
G37*
X157567000Y-108375000D02*
X158150000Y-108375000D01*
X158150000Y-108625000D01*
X157717000Y-108625000D01*
X157567000Y-108375000D01*
G36*
X157175000Y-108775000D02*
G01*
X157175000Y-109358000D01*
X157425000Y-109358000D01*
X157425000Y-108925000D01*
X157175000Y-108775000D01*
G37*
X157175000Y-108775000D02*
X157175000Y-109358000D01*
X157425000Y-109358000D01*
X157425000Y-108925000D01*
X157175000Y-108775000D01*
G36*
X156425000Y-108775000D02*
G01*
X156425000Y-109358000D01*
X156175000Y-109358000D01*
X156175000Y-108925000D01*
X156425000Y-108775000D01*
G37*
X156425000Y-108775000D02*
X156425000Y-109358000D01*
X156175000Y-109358000D01*
X156175000Y-108925000D01*
X156425000Y-108775000D01*
G36*
X156033000Y-108375000D02*
G01*
X155450000Y-108375000D01*
X155450000Y-108625000D01*
X155883000Y-108625000D01*
X156033000Y-108375000D01*
G37*
X156033000Y-108375000D02*
X155450000Y-108375000D01*
X155450000Y-108625000D01*
X155883000Y-108625000D01*
X156033000Y-108375000D01*
G36*
X156033000Y-107625000D02*
G01*
X155450000Y-107625000D01*
X155450000Y-107375000D01*
X155883000Y-107375000D01*
X156033000Y-107625000D01*
G37*
X156033000Y-107625000D02*
X155450000Y-107625000D01*
X155450000Y-107375000D01*
X155883000Y-107375000D01*
X156033000Y-107625000D01*
D10*
X162150000Y-109500000D02*
X162150000Y-106500000D01*
X163650000Y-109500000D02*
X163650000Y-106500000D01*
X164400000Y-107250000D02*
X161400000Y-107250000D01*
X164400000Y-108750000D02*
X161400000Y-108750000D01*
D12*
X149900000Y-107170000D03*
X149900000Y-105830000D03*
D13*
X135900000Y-109800000D03*
X134500000Y-109800000D03*
X139900000Y-96600000D03*
X138500000Y-96600000D03*
D14*
X142830000Y-100000000D03*
X144170000Y-100000000D03*
D15*
X142600000Y-102900000D03*
X142600000Y-101500000D03*
X144400000Y-102900000D03*
X144400000Y-101500000D03*
D12*
X142500000Y-113330000D03*
X142500000Y-114670000D03*
D14*
X146730000Y-104700000D03*
X148070000Y-104700000D03*
D13*
X146700000Y-106500000D03*
X148100000Y-106500000D03*
X146700000Y-110100000D03*
X148100000Y-110100000D03*
D14*
X152030000Y-108800000D03*
X153370000Y-108800000D03*
X152030000Y-106900000D03*
X153370000Y-106900000D03*
X152030000Y-110700000D03*
X153370000Y-110700000D03*
D15*
X155800000Y-115500000D03*
X155800000Y-114100000D03*
D14*
X156530000Y-105200000D03*
X157870000Y-105200000D03*
X156530000Y-110800000D03*
X157870000Y-110800000D03*
D15*
X162300000Y-113000000D03*
X162300000Y-114400000D03*
X164200000Y-113000000D03*
X164200000Y-114400000D03*
D14*
X168230000Y-108000000D03*
X169570000Y-108000000D03*
D13*
X168200000Y-112500000D03*
X169600000Y-112500000D03*
D16*
X138400000Y-99100000D03*
X140000000Y-99100000D03*
D17*
X138500000Y-106000000D03*
X138500000Y-106500000D03*
X138500000Y-107000000D03*
X138500000Y-107500000D03*
X138500000Y-108000000D03*
X138500000Y-108500000D03*
X138500000Y-109000000D03*
X138500000Y-109500000D03*
X138500000Y-110000000D03*
D18*
X139400000Y-110900000D03*
X139900000Y-110900000D03*
X140400000Y-110900000D03*
X140900000Y-110900000D03*
X141400000Y-110900000D03*
X141900000Y-110900000D03*
X142400000Y-110900000D03*
X142900000Y-110900000D03*
X143400000Y-110900000D03*
D17*
X144300000Y-110000000D03*
X144300000Y-109500000D03*
X144300000Y-109000000D03*
X144300000Y-108500000D03*
X144300000Y-108000000D03*
X144300000Y-107500000D03*
X144300000Y-107000000D03*
X144300000Y-106500000D03*
X144300000Y-106000000D03*
D18*
X143400000Y-105100000D03*
X142900000Y-105100000D03*
X142400000Y-105100000D03*
X141900000Y-105100000D03*
X141400000Y-105100000D03*
X140900000Y-105100000D03*
X140400000Y-105100000D03*
X139900000Y-105100000D03*
X139400000Y-105100000D03*
D19*
X155750000Y-108000000D03*
D20*
X156800000Y-109050000D03*
D19*
X157850000Y-108000000D03*
D20*
X156800000Y-106950000D03*
D21*
X162900000Y-102360000D03*
D22*
X162900000Y-98985000D03*
D23*
X160985000Y-102170000D03*
X160985000Y-100900000D03*
X160985000Y-99630000D03*
X164815000Y-99630000D03*
X164815000Y-100900000D03*
X164815000Y-102170000D03*
D24*
X165525000Y-110650000D03*
D25*
X165525000Y-109875000D03*
X165525000Y-109125000D03*
X165525000Y-108375000D03*
X165525000Y-107625000D03*
X165525000Y-106875000D03*
X165525000Y-106125000D03*
D24*
X165525000Y-105350000D03*
D26*
X164713000Y-105375000D03*
X163988000Y-105375000D03*
X163263000Y-105375000D03*
X162537000Y-105375000D03*
X161812000Y-105375000D03*
X161087000Y-105375000D03*
D24*
X160275000Y-105350000D03*
D25*
X160275000Y-106125000D03*
X160275000Y-106875000D03*
X160275000Y-107625000D03*
X160275000Y-108375000D03*
X160275000Y-109125000D03*
X160275000Y-109875000D03*
D24*
X160275000Y-110650000D03*
D26*
X161087000Y-110625000D03*
X161812000Y-110625000D03*
X162537000Y-110625000D03*
X163263000Y-110625000D03*
X163988000Y-110625000D03*
X164713000Y-110625000D03*
D27*
X174050000Y-88950000D03*
X171510000Y-88950000D03*
X168970000Y-88950000D03*
X166430000Y-88950000D03*
X163890000Y-88950000D03*
X161350000Y-88950000D03*
X158810000Y-88950000D03*
X156270000Y-88950000D03*
X153730000Y-88950000D03*
X151190000Y-88950000D03*
X148650000Y-88950000D03*
X146110000Y-88950000D03*
X143570000Y-88950000D03*
X141030000Y-88950000D03*
X138490000Y-88950000D03*
X135950000Y-88950000D03*
X174050000Y-127050000D03*
X171510000Y-127050000D03*
X168970000Y-127050000D03*
X166430000Y-127050000D03*
X163890000Y-127050000D03*
X161350000Y-127050000D03*
X158810000Y-127050000D03*
X156270000Y-127050000D03*
X153730000Y-127050000D03*
X151190000Y-127050000D03*
X148650000Y-127050000D03*
X146110000Y-127050000D03*
X143570000Y-127050000D03*
X141030000Y-127050000D03*
X138490000Y-127050000D03*
X135950000Y-127050000D03*
X135950000Y-91490000D03*
X135950000Y-94030000D03*
X135950000Y-96570000D03*
X135950000Y-99110000D03*
D28*
X171975000Y-108000000D03*
D29*
X173500000Y-109475000D03*
D28*
X175025000Y-108000000D03*
D29*
X173500000Y-106525000D03*
D30*
X174960000Y-113080000D03*
X135040000Y-113080000D03*
X174960000Y-102920000D03*
X135040000Y-102920000D03*
D31*
X149900000Y-108750000D03*
X149900000Y-110250000D03*
D32*
X151950000Y-105100000D03*
X153450000Y-105100000D03*
D33*
X137800000Y-119350000D03*
X137800000Y-117850000D03*
X141200000Y-119350000D03*
X141200000Y-117850000D03*
D34*
X136200000Y-106200000D03*
X134600000Y-106200000D03*
X136200000Y-108000000D03*
X134600000Y-108000000D03*
X140000000Y-100900000D03*
X138400000Y-100900000D03*
X140000000Y-102700000D03*
X138400000Y-102700000D03*
D35*
X138500000Y-113200000D03*
X138500000Y-114800000D03*
X140500000Y-113200000D03*
X140500000Y-114800000D03*
D34*
X142700000Y-96400000D03*
X144300000Y-96400000D03*
X144300000Y-98200000D03*
X142700000Y-98200000D03*
D35*
X144500000Y-113200000D03*
X144500000Y-114800000D03*
D34*
X146600000Y-102900000D03*
X148200000Y-102900000D03*
X168100000Y-114300000D03*
X169700000Y-114300000D03*
X169700000Y-116100000D03*
X168100000Y-116100000D03*
D35*
X166430000Y-93100000D03*
X166430000Y-91500000D03*
X168970000Y-93100000D03*
X168970000Y-91500000D03*
X171510000Y-93100000D03*
X171510000Y-91500000D03*
X174050000Y-93100000D03*
X174050000Y-91500000D03*
X166430000Y-122900000D03*
X166430000Y-124500000D03*
X168970000Y-122900000D03*
X168970000Y-124500000D03*
X171510000Y-122900000D03*
X171510000Y-124500000D03*
X174050000Y-122900000D03*
X174050000Y-124500000D03*
D36*
X151700000Y-113550000D03*
X147700000Y-113550000D03*
X147700000Y-116050000D03*
X151700000Y-116050000D03*
M02*
