G04 #@! TF.GenerationSoftware,KiCad,Pcbnew,5.1.5-52549c5~86~ubuntu18.04.1*
G04 #@! TF.CreationDate,2020-05-04T10:44:27-04:00*
G04 #@! TF.ProjectId,ta-comm,74612d63-6f6d-46d2-9e6b-696361645f70,rev?*
G04 #@! TF.SameCoordinates,Original*
G04 #@! TF.FileFunction,Paste,Top*
G04 #@! TF.FilePolarity,Positive*
%FSLAX46Y46*%
G04 Gerber Fmt 4.6, Leading zero omitted, Abs format (unit mm)*
G04 Created by KiCad (PCBNEW 5.1.5-52549c5~86~ubuntu18.04.1) date 2020-05-04 10:44:27*
%MOMM*%
%LPD*%
G04 APERTURE LIST*
%ADD10C,0.600000*%
%ADD11C,0.025000*%
%ADD12R,0.940000X0.800000*%
%ADD13R,0.780000X0.990000*%
%ADD14R,0.800000X0.940000*%
%ADD15R,0.990000X0.780000*%
%ADD16R,0.850000X1.000000*%
%ADD17R,0.640000X2.080000*%
%ADD18R,0.640000X1.170000*%
%ADD19R,1.170000X0.640000*%
%ADD20R,0.550000X0.500000*%
%ADD21R,0.550000X0.400000*%
%ADD22R,0.400000X0.550000*%
%ADD23R,0.600000X1.400000*%
%ADD24R,2.200000X1.050000*%
%ADD25R,1.000000X1.050000*%
%ADD26R,1.050000X1.000000*%
%ADD27R,0.800000X0.800000*%
%ADD28R,0.800000X1.000000*%
%ADD29R,1.000000X0.800000*%
%ADD30R,1.600000X1.300000*%
G04 APERTURE END LIST*
D10*
X142150000Y-106500000D02*
X142150000Y-109500000D01*
X140650000Y-106500000D02*
X140650000Y-109500000D01*
X142900000Y-108750000D02*
X139900000Y-108750000D01*
X139900000Y-107250000D02*
X142900000Y-107250000D01*
D11*
G36*
X143525000Y-110475000D02*
G01*
X143525000Y-111325000D01*
X143275000Y-111325000D01*
X143275000Y-110475000D01*
X143525000Y-110475000D01*
G37*
X143525000Y-110475000D02*
X143525000Y-111325000D01*
X143275000Y-111325000D01*
X143275000Y-110475000D01*
X143525000Y-110475000D01*
G36*
X143025000Y-110475000D02*
G01*
X143025000Y-111325000D01*
X142775000Y-111325000D01*
X142775000Y-110475000D01*
X143025000Y-110475000D01*
G37*
X143025000Y-110475000D02*
X143025000Y-111325000D01*
X142775000Y-111325000D01*
X142775000Y-110475000D01*
X143025000Y-110475000D01*
G36*
X142525000Y-110475000D02*
G01*
X142525000Y-111325000D01*
X142275000Y-111325000D01*
X142275000Y-110475000D01*
X142525000Y-110475000D01*
G37*
X142525000Y-110475000D02*
X142525000Y-111325000D01*
X142275000Y-111325000D01*
X142275000Y-110475000D01*
X142525000Y-110475000D01*
G36*
X142025000Y-110475000D02*
G01*
X142025000Y-111325000D01*
X141775000Y-111325000D01*
X141775000Y-110475000D01*
X142025000Y-110475000D01*
G37*
X142025000Y-110475000D02*
X142025000Y-111325000D01*
X141775000Y-111325000D01*
X141775000Y-110475000D01*
X142025000Y-110475000D01*
G36*
X141525000Y-110475000D02*
G01*
X141525000Y-111325000D01*
X141275000Y-111325000D01*
X141275000Y-110475000D01*
X141525000Y-110475000D01*
G37*
X141525000Y-110475000D02*
X141525000Y-111325000D01*
X141275000Y-111325000D01*
X141275000Y-110475000D01*
X141525000Y-110475000D01*
G36*
X141025000Y-110475000D02*
G01*
X141025000Y-111325000D01*
X140775000Y-111325000D01*
X140775000Y-110475000D01*
X141025000Y-110475000D01*
G37*
X141025000Y-110475000D02*
X141025000Y-111325000D01*
X140775000Y-111325000D01*
X140775000Y-110475000D01*
X141025000Y-110475000D01*
G36*
X140525000Y-110475000D02*
G01*
X140525000Y-111325000D01*
X140275000Y-111325000D01*
X140275000Y-110475000D01*
X140525000Y-110475000D01*
G37*
X140525000Y-110475000D02*
X140525000Y-111325000D01*
X140275000Y-111325000D01*
X140275000Y-110475000D01*
X140525000Y-110475000D01*
G36*
X140025000Y-110475000D02*
G01*
X140025000Y-111325000D01*
X139775000Y-111325000D01*
X139775000Y-110475000D01*
X140025000Y-110475000D01*
G37*
X140025000Y-110475000D02*
X140025000Y-111325000D01*
X139775000Y-111325000D01*
X139775000Y-110475000D01*
X140025000Y-110475000D01*
G36*
X139525000Y-110475000D02*
G01*
X139525000Y-111325000D01*
X139275000Y-111325000D01*
X139275000Y-110475000D01*
X139525000Y-110475000D01*
G37*
X139525000Y-110475000D02*
X139525000Y-111325000D01*
X139275000Y-111325000D01*
X139275000Y-110475000D01*
X139525000Y-110475000D01*
G36*
X143525000Y-104675000D02*
G01*
X143525000Y-105525000D01*
X143275000Y-105525000D01*
X143275000Y-104675000D01*
X143525000Y-104675000D01*
G37*
X143525000Y-104675000D02*
X143525000Y-105525000D01*
X143275000Y-105525000D01*
X143275000Y-104675000D01*
X143525000Y-104675000D01*
G36*
X143025000Y-104675000D02*
G01*
X143025000Y-105525000D01*
X142775000Y-105525000D01*
X142775000Y-104675000D01*
X143025000Y-104675000D01*
G37*
X143025000Y-104675000D02*
X143025000Y-105525000D01*
X142775000Y-105525000D01*
X142775000Y-104675000D01*
X143025000Y-104675000D01*
G36*
X142525000Y-104675000D02*
G01*
X142525000Y-105525000D01*
X142275000Y-105525000D01*
X142275000Y-104675000D01*
X142525000Y-104675000D01*
G37*
X142525000Y-104675000D02*
X142525000Y-105525000D01*
X142275000Y-105525000D01*
X142275000Y-104675000D01*
X142525000Y-104675000D01*
G36*
X142025000Y-104675000D02*
G01*
X142025000Y-105525000D01*
X141775000Y-105525000D01*
X141775000Y-104675000D01*
X142025000Y-104675000D01*
G37*
X142025000Y-104675000D02*
X142025000Y-105525000D01*
X141775000Y-105525000D01*
X141775000Y-104675000D01*
X142025000Y-104675000D01*
G36*
X141525000Y-104675000D02*
G01*
X141525000Y-105525000D01*
X141275000Y-105525000D01*
X141275000Y-104675000D01*
X141525000Y-104675000D01*
G37*
X141525000Y-104675000D02*
X141525000Y-105525000D01*
X141275000Y-105525000D01*
X141275000Y-104675000D01*
X141525000Y-104675000D01*
G36*
X141025000Y-104675000D02*
G01*
X141025000Y-105525000D01*
X140775000Y-105525000D01*
X140775000Y-104675000D01*
X141025000Y-104675000D01*
G37*
X141025000Y-104675000D02*
X141025000Y-105525000D01*
X140775000Y-105525000D01*
X140775000Y-104675000D01*
X141025000Y-104675000D01*
G36*
X140525000Y-104675000D02*
G01*
X140525000Y-105525000D01*
X140275000Y-105525000D01*
X140275000Y-104675000D01*
X140525000Y-104675000D01*
G37*
X140525000Y-104675000D02*
X140525000Y-105525000D01*
X140275000Y-105525000D01*
X140275000Y-104675000D01*
X140525000Y-104675000D01*
G36*
X140025000Y-104675000D02*
G01*
X140025000Y-105525000D01*
X139775000Y-105525000D01*
X139775000Y-104675000D01*
X140025000Y-104675000D01*
G37*
X140025000Y-104675000D02*
X140025000Y-105525000D01*
X139775000Y-105525000D01*
X139775000Y-104675000D01*
X140025000Y-104675000D01*
G36*
X139525000Y-104675000D02*
G01*
X139525000Y-105525000D01*
X139275000Y-105525000D01*
X139275000Y-104675000D01*
X139525000Y-104675000D01*
G37*
X139525000Y-104675000D02*
X139525000Y-105525000D01*
X139275000Y-105525000D01*
X139275000Y-104675000D01*
X139525000Y-104675000D01*
G36*
X144725000Y-110125000D02*
G01*
X143875000Y-110125000D01*
X143875000Y-109875000D01*
X144725000Y-109875000D01*
X144725000Y-110125000D01*
G37*
X144725000Y-110125000D02*
X143875000Y-110125000D01*
X143875000Y-109875000D01*
X144725000Y-109875000D01*
X144725000Y-110125000D01*
G36*
X144725000Y-109625000D02*
G01*
X143875000Y-109625000D01*
X143875000Y-109375000D01*
X144725000Y-109375000D01*
X144725000Y-109625000D01*
G37*
X144725000Y-109625000D02*
X143875000Y-109625000D01*
X143875000Y-109375000D01*
X144725000Y-109375000D01*
X144725000Y-109625000D01*
G36*
X144725000Y-109125000D02*
G01*
X143875000Y-109125000D01*
X143875000Y-108875000D01*
X144725000Y-108875000D01*
X144725000Y-109125000D01*
G37*
X144725000Y-109125000D02*
X143875000Y-109125000D01*
X143875000Y-108875000D01*
X144725000Y-108875000D01*
X144725000Y-109125000D01*
G36*
X144725000Y-108625000D02*
G01*
X143875000Y-108625000D01*
X143875000Y-108375000D01*
X144725000Y-108375000D01*
X144725000Y-108625000D01*
G37*
X144725000Y-108625000D02*
X143875000Y-108625000D01*
X143875000Y-108375000D01*
X144725000Y-108375000D01*
X144725000Y-108625000D01*
G36*
X144725000Y-108125000D02*
G01*
X143875000Y-108125000D01*
X143875000Y-107875000D01*
X144725000Y-107875000D01*
X144725000Y-108125000D01*
G37*
X144725000Y-108125000D02*
X143875000Y-108125000D01*
X143875000Y-107875000D01*
X144725000Y-107875000D01*
X144725000Y-108125000D01*
G36*
X144725000Y-107625000D02*
G01*
X143875000Y-107625000D01*
X143875000Y-107375000D01*
X144725000Y-107375000D01*
X144725000Y-107625000D01*
G37*
X144725000Y-107625000D02*
X143875000Y-107625000D01*
X143875000Y-107375000D01*
X144725000Y-107375000D01*
X144725000Y-107625000D01*
G36*
X144725000Y-107125000D02*
G01*
X143875000Y-107125000D01*
X143875000Y-106875000D01*
X144725000Y-106875000D01*
X144725000Y-107125000D01*
G37*
X144725000Y-107125000D02*
X143875000Y-107125000D01*
X143875000Y-106875000D01*
X144725000Y-106875000D01*
X144725000Y-107125000D01*
G36*
X144725000Y-106625000D02*
G01*
X143875000Y-106625000D01*
X143875000Y-106375000D01*
X144725000Y-106375000D01*
X144725000Y-106625000D01*
G37*
X144725000Y-106625000D02*
X143875000Y-106625000D01*
X143875000Y-106375000D01*
X144725000Y-106375000D01*
X144725000Y-106625000D01*
G36*
X144725000Y-106125000D02*
G01*
X143875000Y-106125000D01*
X143875000Y-105875000D01*
X144725000Y-105875000D01*
X144725000Y-106125000D01*
G37*
X144725000Y-106125000D02*
X143875000Y-106125000D01*
X143875000Y-105875000D01*
X144725000Y-105875000D01*
X144725000Y-106125000D01*
G36*
X138925000Y-110125000D02*
G01*
X138075000Y-110125000D01*
X138075000Y-109875000D01*
X138925000Y-109875000D01*
X138925000Y-110125000D01*
G37*
X138925000Y-110125000D02*
X138075000Y-110125000D01*
X138075000Y-109875000D01*
X138925000Y-109875000D01*
X138925000Y-110125000D01*
G36*
X138925000Y-109625000D02*
G01*
X138075000Y-109625000D01*
X138075000Y-109375000D01*
X138925000Y-109375000D01*
X138925000Y-109625000D01*
G37*
X138925000Y-109625000D02*
X138075000Y-109625000D01*
X138075000Y-109375000D01*
X138925000Y-109375000D01*
X138925000Y-109625000D01*
G36*
X138925000Y-109125000D02*
G01*
X138075000Y-109125000D01*
X138075000Y-108875000D01*
X138925000Y-108875000D01*
X138925000Y-109125000D01*
G37*
X138925000Y-109125000D02*
X138075000Y-109125000D01*
X138075000Y-108875000D01*
X138925000Y-108875000D01*
X138925000Y-109125000D01*
G36*
X138925000Y-108625000D02*
G01*
X138075000Y-108625000D01*
X138075000Y-108375000D01*
X138925000Y-108375000D01*
X138925000Y-108625000D01*
G37*
X138925000Y-108625000D02*
X138075000Y-108625000D01*
X138075000Y-108375000D01*
X138925000Y-108375000D01*
X138925000Y-108625000D01*
G36*
X138925000Y-108125000D02*
G01*
X138075000Y-108125000D01*
X138075000Y-107875000D01*
X138925000Y-107875000D01*
X138925000Y-108125000D01*
G37*
X138925000Y-108125000D02*
X138075000Y-108125000D01*
X138075000Y-107875000D01*
X138925000Y-107875000D01*
X138925000Y-108125000D01*
G36*
X138925000Y-107625000D02*
G01*
X138075000Y-107625000D01*
X138075000Y-107375000D01*
X138925000Y-107375000D01*
X138925000Y-107625000D01*
G37*
X138925000Y-107625000D02*
X138075000Y-107625000D01*
X138075000Y-107375000D01*
X138925000Y-107375000D01*
X138925000Y-107625000D01*
G36*
X138925000Y-107125000D02*
G01*
X138075000Y-107125000D01*
X138075000Y-106875000D01*
X138925000Y-106875000D01*
X138925000Y-107125000D01*
G37*
X138925000Y-107125000D02*
X138075000Y-107125000D01*
X138075000Y-106875000D01*
X138925000Y-106875000D01*
X138925000Y-107125000D01*
G36*
X138925000Y-106625000D02*
G01*
X138075000Y-106625000D01*
X138075000Y-106375000D01*
X138925000Y-106375000D01*
X138925000Y-106625000D01*
G37*
X138925000Y-106625000D02*
X138075000Y-106625000D01*
X138075000Y-106375000D01*
X138925000Y-106375000D01*
X138925000Y-106625000D01*
G36*
X138925000Y-106125000D02*
G01*
X138075000Y-106125000D01*
X138075000Y-105875000D01*
X138925000Y-105875000D01*
X138925000Y-106125000D01*
G37*
X138925000Y-106125000D02*
X138075000Y-106125000D01*
X138075000Y-105875000D01*
X138925000Y-105875000D01*
X138925000Y-106125000D01*
G36*
X156825000Y-107425000D02*
G01*
X157375000Y-107425000D01*
X157375000Y-107975000D01*
X156825000Y-107425000D01*
G37*
X156825000Y-107425000D02*
X157375000Y-107425000D01*
X157375000Y-107975000D01*
X156825000Y-107425000D01*
G36*
X157375000Y-108025000D02*
G01*
X157375000Y-108575000D01*
X156825000Y-108575000D01*
X157375000Y-108025000D01*
G37*
X157375000Y-108025000D02*
X157375000Y-108575000D01*
X156825000Y-108575000D01*
X157375000Y-108025000D01*
G36*
X156775000Y-108575000D02*
G01*
X156225000Y-108575000D01*
X156225000Y-108025000D01*
X156775000Y-108575000D01*
G37*
X156775000Y-108575000D02*
X156225000Y-108575000D01*
X156225000Y-108025000D01*
X156775000Y-108575000D01*
G36*
X157567000Y-108375000D02*
G01*
X158150000Y-108375000D01*
X158150000Y-108625000D01*
X157717000Y-108625000D01*
X157567000Y-108375000D01*
G37*
X157567000Y-108375000D02*
X158150000Y-108375000D01*
X158150000Y-108625000D01*
X157717000Y-108625000D01*
X157567000Y-108375000D01*
G36*
X158150000Y-107875000D02*
G01*
X157570000Y-107875000D01*
X157570000Y-108125000D01*
X158150000Y-108125000D01*
X158150000Y-107875000D01*
G37*
X158150000Y-107875000D02*
X157570000Y-107875000D01*
X157570000Y-108125000D01*
X158150000Y-108125000D01*
X158150000Y-107875000D01*
G36*
X157567000Y-107625000D02*
G01*
X158150000Y-107625000D01*
X158150000Y-107375000D01*
X157717000Y-107375000D01*
X157567000Y-107625000D01*
G37*
X157567000Y-107625000D02*
X158150000Y-107625000D01*
X158150000Y-107375000D01*
X157717000Y-107375000D01*
X157567000Y-107625000D01*
G36*
X157175000Y-108775000D02*
G01*
X157175000Y-109358000D01*
X157425000Y-109358000D01*
X157425000Y-108925000D01*
X157175000Y-108775000D01*
G37*
X157175000Y-108775000D02*
X157175000Y-109358000D01*
X157425000Y-109358000D01*
X157425000Y-108925000D01*
X157175000Y-108775000D01*
G36*
X156925000Y-109355000D02*
G01*
X156925000Y-108775000D01*
X156675000Y-108775000D01*
X156675000Y-109355000D01*
X156925000Y-109355000D01*
G37*
X156925000Y-109355000D02*
X156925000Y-108775000D01*
X156675000Y-108775000D01*
X156675000Y-109355000D01*
X156925000Y-109355000D01*
G36*
X156425000Y-108775000D02*
G01*
X156425000Y-109358000D01*
X156175000Y-109358000D01*
X156175000Y-108925000D01*
X156425000Y-108775000D01*
G37*
X156425000Y-108775000D02*
X156425000Y-109358000D01*
X156175000Y-109358000D01*
X156175000Y-108925000D01*
X156425000Y-108775000D01*
G36*
X157175000Y-107233000D02*
G01*
X157175000Y-106650000D01*
X157425000Y-106650000D01*
X157425000Y-107083000D01*
X157175000Y-107233000D01*
G37*
X157175000Y-107233000D02*
X157175000Y-106650000D01*
X157425000Y-106650000D01*
X157425000Y-107083000D01*
X157175000Y-107233000D01*
G36*
X156925000Y-107230000D02*
G01*
X156925000Y-106650000D01*
X156675000Y-106650000D01*
X156675000Y-107230000D01*
X156925000Y-107230000D01*
G37*
X156925000Y-107230000D02*
X156925000Y-106650000D01*
X156675000Y-106650000D01*
X156675000Y-107230000D01*
X156925000Y-107230000D01*
G36*
X156425000Y-107233000D02*
G01*
X156425000Y-106650000D01*
X156175000Y-106650000D01*
X156175000Y-107083000D01*
X156425000Y-107233000D01*
G37*
X156425000Y-107233000D02*
X156425000Y-106650000D01*
X156175000Y-106650000D01*
X156175000Y-107083000D01*
X156425000Y-107233000D01*
G36*
X156033000Y-108375000D02*
G01*
X155450000Y-108375000D01*
X155450000Y-108625000D01*
X155883000Y-108625000D01*
X156033000Y-108375000D01*
G37*
X156033000Y-108375000D02*
X155450000Y-108375000D01*
X155450000Y-108625000D01*
X155883000Y-108625000D01*
X156033000Y-108375000D01*
G36*
X156030000Y-107875000D02*
G01*
X155450000Y-107875000D01*
X155450000Y-108125000D01*
X156030000Y-108125000D01*
X156030000Y-107875000D01*
G37*
X156030000Y-107875000D02*
X155450000Y-107875000D01*
X155450000Y-108125000D01*
X156030000Y-108125000D01*
X156030000Y-107875000D01*
G36*
X156033000Y-107625000D02*
G01*
X155450000Y-107625000D01*
X155450000Y-107375000D01*
X155883000Y-107375000D01*
X156033000Y-107625000D01*
G37*
X156033000Y-107625000D02*
X155450000Y-107625000D01*
X155450000Y-107375000D01*
X155883000Y-107375000D01*
X156033000Y-107625000D01*
D10*
X162150000Y-109500000D02*
X162150000Y-106500000D01*
X163650000Y-109500000D02*
X163650000Y-106500000D01*
X164400000Y-107250000D02*
X161400000Y-107250000D01*
X164400000Y-108750000D02*
X161400000Y-108750000D01*
D12*
X149900000Y-107170000D03*
X149900000Y-105830000D03*
D13*
X135900000Y-109800000D03*
X134500000Y-109800000D03*
X139900000Y-96600000D03*
X138500000Y-96600000D03*
D14*
X142830000Y-100000000D03*
X144170000Y-100000000D03*
D15*
X142600000Y-102900000D03*
X142600000Y-101500000D03*
X144400000Y-102900000D03*
X144400000Y-101500000D03*
D12*
X142500000Y-113330000D03*
X142500000Y-114670000D03*
D14*
X146730000Y-104700000D03*
X148070000Y-104700000D03*
D13*
X146700000Y-106500000D03*
X148100000Y-106500000D03*
X146700000Y-110100000D03*
X148100000Y-110100000D03*
D14*
X152030000Y-108800000D03*
X153370000Y-108800000D03*
X152030000Y-106900000D03*
X153370000Y-106900000D03*
X152030000Y-110700000D03*
X153370000Y-110700000D03*
D15*
X155800000Y-115500000D03*
X155800000Y-114100000D03*
D14*
X156530000Y-105200000D03*
X157870000Y-105200000D03*
X156530000Y-110800000D03*
X157870000Y-110800000D03*
D15*
X162300000Y-113000000D03*
X162300000Y-114400000D03*
X164200000Y-113000000D03*
X164200000Y-114400000D03*
D14*
X168230000Y-108000000D03*
X169570000Y-108000000D03*
D13*
X168200000Y-112500000D03*
X169600000Y-112500000D03*
D16*
X138400000Y-99100000D03*
X140000000Y-99100000D03*
D17*
X162900000Y-102360000D03*
D18*
X162900000Y-98985000D03*
D19*
X160985000Y-102170000D03*
X160985000Y-100900000D03*
X160985000Y-99630000D03*
X164815000Y-99630000D03*
X164815000Y-100900000D03*
X164815000Y-102170000D03*
D20*
X165525000Y-110650000D03*
D21*
X165525000Y-109875000D03*
X165525000Y-109125000D03*
X165525000Y-108375000D03*
X165525000Y-107625000D03*
X165525000Y-106875000D03*
X165525000Y-106125000D03*
D20*
X165525000Y-105350000D03*
D22*
X164713000Y-105375000D03*
X163988000Y-105375000D03*
X163263000Y-105375000D03*
X162537000Y-105375000D03*
X161812000Y-105375000D03*
X161087000Y-105375000D03*
D20*
X160275000Y-105350000D03*
D21*
X160275000Y-106125000D03*
X160275000Y-106875000D03*
X160275000Y-107625000D03*
X160275000Y-108375000D03*
X160275000Y-109125000D03*
X160275000Y-109875000D03*
D20*
X160275000Y-110650000D03*
D22*
X161087000Y-110625000D03*
X161812000Y-110625000D03*
X162537000Y-110625000D03*
X163263000Y-110625000D03*
X163988000Y-110625000D03*
X164713000Y-110625000D03*
D23*
X171975000Y-108000000D03*
D24*
X173500000Y-109475000D03*
D23*
X175025000Y-108000000D03*
D24*
X173500000Y-106525000D03*
D25*
X149900000Y-108750000D03*
X149900000Y-110250000D03*
D26*
X151950000Y-105100000D03*
X153450000Y-105100000D03*
D27*
X137800000Y-119350000D03*
X137800000Y-117850000D03*
X141200000Y-119350000D03*
X141200000Y-117850000D03*
D28*
X136200000Y-106200000D03*
X134600000Y-106200000D03*
X136200000Y-108000000D03*
X134600000Y-108000000D03*
X140000000Y-100900000D03*
X138400000Y-100900000D03*
X140000000Y-102700000D03*
X138400000Y-102700000D03*
D29*
X138500000Y-113200000D03*
X138500000Y-114800000D03*
X140500000Y-113200000D03*
X140500000Y-114800000D03*
D28*
X142700000Y-96400000D03*
X144300000Y-96400000D03*
X144300000Y-98200000D03*
X142700000Y-98200000D03*
D29*
X144500000Y-113200000D03*
X144500000Y-114800000D03*
D28*
X146600000Y-102900000D03*
X148200000Y-102900000D03*
X168100000Y-114300000D03*
X169700000Y-114300000D03*
X169700000Y-116100000D03*
X168100000Y-116100000D03*
D29*
X166430000Y-93100000D03*
X166430000Y-91500000D03*
X168970000Y-93100000D03*
X168970000Y-91500000D03*
X171510000Y-93100000D03*
X171510000Y-91500000D03*
X174050000Y-93100000D03*
X174050000Y-91500000D03*
X166430000Y-122900000D03*
X166430000Y-124500000D03*
X168970000Y-122900000D03*
X168970000Y-124500000D03*
X171510000Y-122900000D03*
X171510000Y-124500000D03*
X174050000Y-122900000D03*
X174050000Y-124500000D03*
D30*
X151700000Y-113550000D03*
X147700000Y-113550000D03*
X147700000Y-116050000D03*
X151700000Y-116050000D03*
M02*
