%TF.GenerationSoftware,KiCad,Pcbnew,5.1.6-c6e7f7d~87~ubuntu18.04.1*%
%TF.CreationDate,2020-07-14T09:50:44-04:00*%
%TF.ProjectId,ta-expt,74612d65-7870-4742-9e6b-696361645f70,rev?*%
%TF.SameCoordinates,Original*%
%TF.FileFunction,Soldermask,Top*%
%TF.FilePolarity,Negative*%
%FSLAX46Y46*%
G04 Gerber Fmt 4.6, Leading zero omitted, Abs format (unit mm)*
G04 Created by KiCad (PCBNEW 5.1.6-c6e7f7d~87~ubuntu18.04.1) date 2020-07-14 09:50:44*
%MOMM*%
%LPD*%
G01*
G04 APERTURE LIST*
%ADD10R,2.225400X6.425400*%
%ADD11R,0.725400X1.025400*%
%ADD12R,1.025400X0.725400*%
%ADD13R,0.725400X0.965400*%
%ADD14R,0.825400X1.025400*%
%ADD15R,1.485400X0.275400*%
%ADD16R,0.275400X1.485400*%
%ADD17R,1.775400X0.625400*%
%ADD18C,1.565400*%
%ADD19C,2.565400*%
%ADD20R,0.725400X0.725400*%
%ADD21R,0.625400X0.475400*%
%ADD22R,1.025400X1.225400*%
%ADD23R,1.725400X0.925400*%
G04 APERTURE END LIST*
D10*
%TO.C,C15*%
X160900000Y-121200000D03*
X165500000Y-121200000D03*
%TD*%
D11*
%TO.C,C1*%
X139900000Y-119400000D03*
X138500000Y-119400000D03*
%TD*%
D12*
%TO.C,C2*%
X140600000Y-99900000D03*
X140600000Y-98500000D03*
%TD*%
%TO.C,C3*%
X147200000Y-99900000D03*
X147200000Y-98500000D03*
%TD*%
D11*
%TO.C,C4*%
X149200000Y-116200000D03*
X150600000Y-116200000D03*
%TD*%
%TO.C,C5*%
X153100000Y-103200000D03*
X154500000Y-103200000D03*
%TD*%
%TO.C,C6*%
X153100000Y-101200000D03*
X154500000Y-101200000D03*
%TD*%
%TO.C,C7*%
X156100000Y-101200000D03*
X157500000Y-101200000D03*
%TD*%
D13*
%TO.C,C8*%
X156100000Y-103200000D03*
X157500000Y-103200000D03*
%TD*%
D11*
%TO.C,C9*%
X153100000Y-105200000D03*
X154500000Y-105200000D03*
%TD*%
%TO.C,C11*%
X158100000Y-109700000D03*
X159500000Y-109700000D03*
%TD*%
%TO.C,C10*%
X158100000Y-107500000D03*
X159500000Y-107500000D03*
%TD*%
%TO.C,C13*%
X158100000Y-115300000D03*
X159500000Y-115300000D03*
%TD*%
%TO.C,C12*%
X158100000Y-112700000D03*
X159500000Y-112700000D03*
%TD*%
%TO.C,C14*%
X163900000Y-93400000D03*
X162500000Y-93400000D03*
%TD*%
D14*
%TO.C,FB1*%
X138400000Y-116900000D03*
X140000000Y-116900000D03*
%TD*%
D15*
%TO.C,IC1*%
X150138000Y-111750000D03*
X150138000Y-111250000D03*
X150138000Y-110750000D03*
X150138000Y-110250000D03*
X150138000Y-109750000D03*
X150138000Y-109250000D03*
X150138000Y-108750000D03*
X150138000Y-108250000D03*
X150138000Y-107750000D03*
X150138000Y-107250000D03*
X150138000Y-106750000D03*
X150138000Y-106250000D03*
X150138000Y-105750000D03*
X150138000Y-105250000D03*
X150138000Y-104750000D03*
X150138000Y-104250000D03*
D16*
X148150000Y-102262000D03*
X147650000Y-102262000D03*
X147150000Y-102262000D03*
X146650000Y-102262000D03*
X146150000Y-102262000D03*
X145650000Y-102262000D03*
X145150000Y-102262000D03*
X144650000Y-102262000D03*
X144150000Y-102262000D03*
X143650000Y-102262000D03*
X143150000Y-102262000D03*
X142650000Y-102262000D03*
X142150000Y-102262000D03*
X141650000Y-102262000D03*
X141150000Y-102262000D03*
X140650000Y-102262000D03*
D15*
X138662000Y-104250000D03*
X138662000Y-104750000D03*
X138662000Y-105250000D03*
X138662000Y-105750000D03*
X138662000Y-106250000D03*
X138662000Y-106750000D03*
X138662000Y-107250000D03*
X138662000Y-107750000D03*
X138662000Y-108250000D03*
X138662000Y-108750000D03*
X138662000Y-109250000D03*
X138662000Y-109750000D03*
X138662000Y-110250000D03*
X138662000Y-110750000D03*
X138662000Y-111250000D03*
X138662000Y-111750000D03*
D16*
X140650000Y-113738000D03*
X141150000Y-113738000D03*
X141650000Y-113738000D03*
X142150000Y-113738000D03*
X142650000Y-113738000D03*
X143150000Y-113738000D03*
X143650000Y-113738000D03*
X144150000Y-113738000D03*
X144650000Y-113738000D03*
X145150000Y-113738000D03*
X145650000Y-113738000D03*
X146150000Y-113738000D03*
X146650000Y-113738000D03*
X147150000Y-113738000D03*
X147650000Y-113738000D03*
X148150000Y-113738000D03*
%TD*%
D17*
%TO.C,IC2*%
X159668000Y-95595000D03*
X159668000Y-96865000D03*
X159668000Y-98135000D03*
X159668000Y-99405000D03*
X166732000Y-99405000D03*
X166732000Y-98135000D03*
X166732000Y-96865000D03*
X166732000Y-95595000D03*
%TD*%
D18*
%TO.C,J3*%
X135950000Y-124510000D03*
X135950000Y-121970000D03*
X135950000Y-119430000D03*
X135950000Y-116890000D03*
%TD*%
%TO.C,J1*%
X174050000Y-88950000D03*
X171510000Y-88950000D03*
X168970000Y-88950000D03*
X166430000Y-88950000D03*
X163890000Y-88950000D03*
X161350000Y-88950000D03*
X158810000Y-88950000D03*
X156270000Y-88950000D03*
X153730000Y-88950000D03*
X151190000Y-88950000D03*
X148650000Y-88950000D03*
X146110000Y-88950000D03*
X143570000Y-88950000D03*
X141030000Y-88950000D03*
X138490000Y-88950000D03*
X135950000Y-88950000D03*
%TD*%
%TO.C,J2*%
X174050000Y-127050000D03*
X171510000Y-127050000D03*
X168970000Y-127050000D03*
X166430000Y-127050000D03*
X163890000Y-127050000D03*
X161350000Y-127050000D03*
X158810000Y-127050000D03*
X156270000Y-127050000D03*
X153730000Y-127050000D03*
X151190000Y-127050000D03*
X148650000Y-127050000D03*
X146110000Y-127050000D03*
X143570000Y-127050000D03*
X141030000Y-127050000D03*
X138490000Y-127050000D03*
X135950000Y-127050000D03*
%TD*%
%TO.C,J4*%
X168970000Y-101650000D03*
X171510000Y-101650000D03*
X168970000Y-104190000D03*
X171510000Y-104190000D03*
X168970000Y-106730000D03*
X171510000Y-106730000D03*
X168970000Y-109270000D03*
X171510000Y-109270000D03*
X168970000Y-111810000D03*
X171510000Y-111810000D03*
X168970000Y-114350000D03*
X171510000Y-114350000D03*
%TD*%
D19*
%TO.C,J5*%
X174960000Y-113080000D03*
X135040000Y-113080000D03*
X174960000Y-102920000D03*
X135040000Y-102920000D03*
%TD*%
D20*
%TO.C,LED1*%
X142500000Y-122950000D03*
X142500000Y-121450000D03*
%TD*%
%TO.C,LED2*%
X146000000Y-122950000D03*
X146000000Y-121450000D03*
%TD*%
D21*
%TO.C,Q1*%
X150445000Y-91500000D03*
X150445000Y-92500000D03*
X151955000Y-92000000D03*
%TD*%
%TO.C,Q2*%
X152945000Y-123500000D03*
X152945000Y-124500000D03*
X154455000Y-124000000D03*
%TD*%
D12*
%TO.C,R1*%
X142500000Y-117400000D03*
X142500000Y-119000000D03*
%TD*%
%TO.C,R2*%
X146000000Y-117400000D03*
X146000000Y-119000000D03*
%TD*%
D11*
%TO.C,R4*%
X150700000Y-124000000D03*
X149100000Y-124000000D03*
%TD*%
%TO.C,R3*%
X149100000Y-121000000D03*
X150700000Y-121000000D03*
%TD*%
%TO.C,R5*%
X164000000Y-91600000D03*
X162400000Y-91600000D03*
%TD*%
D22*
%TO.C,Y1*%
X155350000Y-109750000D03*
X155350000Y-107450000D03*
X153450000Y-107450000D03*
X153450000Y-109750000D03*
%TD*%
D23*
%TO.C,Y2*%
X154300000Y-115275000D03*
X154300000Y-112725000D03*
%TD*%
M02*
