%TF.GenerationSoftware,KiCad,Pcbnew,5.1.6-c6e7f7d~87~ubuntu18.04.1*%
%TF.CreationDate,2020-07-28T21:03:19-04:00*%
%TF.ProjectId,ta-expt,74612d65-7870-4742-9e6b-696361645f70,rev?*%
%TF.SameCoordinates,Original*%
%TF.FileFunction,Soldermask,Bot*%
%TF.FilePolarity,Negative*%
%FSLAX46Y46*%
G04 Gerber Fmt 4.6, Leading zero omitted, Abs format (unit mm)*
G04 Created by KiCad (PCBNEW 5.1.6-c6e7f7d~87~ubuntu18.04.1) date 2020-07-28 21:03:19*
%MOMM*%
%LPD*%
G01*
G04 APERTURE LIST*
%ADD10C,1.565400*%
%ADD11C,2.565400*%
G04 APERTURE END LIST*
D10*
%TO.C,J6*%
X174050000Y-124510000D03*
X174050000Y-121970000D03*
X174050000Y-119430000D03*
X174050000Y-116890000D03*
X171510000Y-116890000D03*
%TD*%
%TO.C,J5*%
X174050000Y-91490000D03*
X174050000Y-94030000D03*
X174050000Y-96570000D03*
X174050000Y-99110000D03*
X171510000Y-99110000D03*
%TD*%
%TO.C,J3*%
X135950000Y-91490000D03*
X135950000Y-94030000D03*
X135950000Y-96570000D03*
X135950000Y-99110000D03*
%TD*%
%TO.C,J4*%
X135950000Y-124510000D03*
X135950000Y-121970000D03*
X135950000Y-119430000D03*
X135950000Y-116890000D03*
%TD*%
%TO.C,J1*%
X174050000Y-88950000D03*
X171510000Y-88950000D03*
X168970000Y-88950000D03*
X166430000Y-88950000D03*
X163890000Y-88950000D03*
X161350000Y-88950000D03*
X158810000Y-88950000D03*
X156270000Y-88950000D03*
X153730000Y-88950000D03*
X151190000Y-88950000D03*
X148650000Y-88950000D03*
X146110000Y-88950000D03*
X143570000Y-88950000D03*
X141030000Y-88950000D03*
X138490000Y-88950000D03*
X135950000Y-88950000D03*
%TD*%
%TO.C,J2*%
X174050000Y-127050000D03*
X171510000Y-127050000D03*
X168970000Y-127050000D03*
X166430000Y-127050000D03*
X163890000Y-127050000D03*
X161350000Y-127050000D03*
X158810000Y-127050000D03*
X156270000Y-127050000D03*
X153730000Y-127050000D03*
X151190000Y-127050000D03*
X148650000Y-127050000D03*
X146110000Y-127050000D03*
X143570000Y-127050000D03*
X141030000Y-127050000D03*
X138490000Y-127050000D03*
X135950000Y-127050000D03*
%TD*%
%TO.C,J8*%
X168970000Y-101650000D03*
X171510000Y-101650000D03*
X168970000Y-104190000D03*
X171510000Y-104190000D03*
X168970000Y-106730000D03*
X171510000Y-106730000D03*
X168970000Y-109270000D03*
X171510000Y-109270000D03*
X168970000Y-111810000D03*
X171510000Y-111810000D03*
X168970000Y-114350000D03*
X171510000Y-114350000D03*
%TD*%
D11*
%TO.C,J7*%
X174960000Y-113080000D03*
X135040000Y-113080000D03*
X174960000Y-102920000D03*
X135040000Y-102920000D03*
%TD*%
M02*
