%TF.GenerationSoftware,KiCad,Pcbnew,5.1.6-c6e7f7d~87~ubuntu18.04.1*%
%TF.CreationDate,2020-07-14T09:50:44-04:00*%
%TF.ProjectId,ta-expt,74612d65-7870-4742-9e6b-696361645f70,rev?*%
%TF.SameCoordinates,Original*%
%TF.FileFunction,Copper,L2,Inr*%
%TF.FilePolarity,Positive*%
%FSLAX46Y46*%
G04 Gerber Fmt 4.6, Leading zero omitted, Abs format (unit mm)*
G04 Created by KiCad (PCBNEW 5.1.6-c6e7f7d~87~ubuntu18.04.1) date 2020-07-14 09:50:44*
%MOMM*%
%LPD*%
G01*
G04 APERTURE LIST*
%TA.AperFunction,ViaPad*%
%ADD10C,1.540000*%
%TD*%
%TA.AperFunction,ViaPad*%
%ADD11C,2.540000*%
%TD*%
%TA.AperFunction,ViaPad*%
%ADD12C,0.457200*%
%TD*%
%TA.AperFunction,Conductor*%
%ADD13C,0.127000*%
%TD*%
G04 APERTURE END LIST*
D10*
%TO.N,/SWCLK*%
%TO.C,J3*%
X135950000Y-124510000D03*
%TO.N,/SWDIO*%
X135950000Y-121970000D03*
%TO.N,GND*%
X135950000Y-119430000D03*
%TO.N,VDD*%
X135950000Y-116890000D03*
%TD*%
%TO.N,Net-(J1-Pad16)*%
%TO.C,J1*%
X174050000Y-88950000D03*
%TO.N,Net-(J1-Pad15)*%
X171510000Y-88950000D03*
%TO.N,Net-(J1-Pad14)*%
X168970000Y-88950000D03*
%TO.N,Net-(J1-Pad13)*%
X166430000Y-88950000D03*
%TO.N,/USART1_RTS*%
X163890000Y-88950000D03*
%TO.N,/USART1_RX*%
X161350000Y-88950000D03*
%TO.N,/USART1_TX*%
X158810000Y-88950000D03*
%TO.N,/USART1_CTS*%
X156270000Y-88950000D03*
%TO.N,/USART1_CK*%
X153730000Y-88950000D03*
%TO.N,/RST*%
X151190000Y-88950000D03*
%TO.N,Net-(J1-Pad6)*%
X148650000Y-88950000D03*
%TO.N,Net-(J1-Pad5)*%
X146110000Y-88950000D03*
%TO.N,Net-(J1-Pad4)*%
X143570000Y-88950000D03*
%TO.N,GND*%
X141030000Y-88950000D03*
%TO.N,Net-(J1-Pad2)*%
X138490000Y-88950000D03*
%TO.N,Net-(J1-Pad1)*%
X135950000Y-88950000D03*
%TD*%
%TO.N,Net-(J2-Pad16)*%
%TO.C,J2*%
X174050000Y-127050000D03*
%TO.N,Net-(J2-Pad15)*%
X171510000Y-127050000D03*
%TO.N,Net-(J2-Pad14)*%
X168970000Y-127050000D03*
%TO.N,Net-(J2-Pad13)*%
X166430000Y-127050000D03*
%TO.N,/LPUART_RTS*%
X163890000Y-127050000D03*
%TO.N,/LPUART_RX*%
X161350000Y-127050000D03*
%TO.N,/LPUART_TX*%
X158810000Y-127050000D03*
%TO.N,/LPUART_CTS*%
X156270000Y-127050000D03*
%TO.N,/BOOT0*%
X153730000Y-127050000D03*
%TO.N,Net-(J2-Pad7)*%
X151190000Y-127050000D03*
%TO.N,Net-(J2-Pad6)*%
X148650000Y-127050000D03*
%TO.N,Net-(J2-Pad5)*%
X146110000Y-127050000D03*
%TO.N,Net-(J2-Pad4)*%
X143570000Y-127050000D03*
%TO.N,GND*%
X141030000Y-127050000D03*
%TO.N,Net-(J2-Pad2)*%
X138490000Y-127050000D03*
%TO.N,Net-(J2-Pad1)*%
X135950000Y-127050000D03*
%TD*%
%TO.N,/DCMI_VSYNC*%
%TO.C,J4*%
X168970000Y-101650000D03*
%TO.N,/DCMI_HSYNC*%
X171510000Y-101650000D03*
%TO.N,/DCMI_PIXCLK*%
X168970000Y-104190000D03*
%TO.N,Net-(J4-Pad9)*%
X171510000Y-104190000D03*
%TO.N,/DCMI_D7*%
X168970000Y-106730000D03*
%TO.N,/DCMI_D6*%
X171510000Y-106730000D03*
%TO.N,/DCMI_D5*%
X168970000Y-109270000D03*
%TO.N,/DCMI_D4*%
X171510000Y-109270000D03*
%TO.N,/DCMI_D3*%
X168970000Y-111810000D03*
%TO.N,/DCMI_D2*%
X171510000Y-111810000D03*
%TO.N,/DCMI_D1*%
X168970000Y-114350000D03*
%TO.N,/DCMI_D0*%
X171510000Y-114350000D03*
%TD*%
D11*
%TO.N,GND*%
%TO.C,J5*%
X174960000Y-113080000D03*
X135040000Y-113080000D03*
X174960000Y-102920000D03*
X135040000Y-102920000D03*
%TD*%
D12*
%TO.N,GND*%
X151750000Y-105750000D03*
X147650000Y-100900000D03*
X141150000Y-100900000D03*
X137300000Y-111300000D03*
X147650000Y-115100000D03*
X150600000Y-117300000D03*
X140600000Y-97400000D03*
X147200000Y-97400000D03*
X160600000Y-109700000D03*
X160600000Y-112700000D03*
X160600000Y-115300000D03*
X160600000Y-107500000D03*
X149400000Y-92500000D03*
X158200000Y-99400000D03*
X155500000Y-105200000D03*
X158500000Y-101200000D03*
X158500000Y-103200000D03*
X154500000Y-100200000D03*
X154500000Y-104200000D03*
X156400000Y-107450000D03*
X152400000Y-109750000D03*
X167800000Y-121200000D03*
X151800000Y-121000000D03*
X141400000Y-122950000D03*
X147100000Y-122950000D03*
%TO.N,/VDD_FILT*%
X137300000Y-111900000D03*
X139500000Y-99900000D03*
X148300000Y-99900000D03*
X168200000Y-95600000D03*
X156100000Y-104200000D03*
X155500000Y-124000000D03*
X149200000Y-117300000D03*
X139950000Y-118150000D03*
%TO.N,/NRST*%
X153100000Y-92000000D03*
X153100000Y-104200000D03*
%TO.N,/DCMI_D7*%
X146150000Y-109400000D03*
%TO.N,/DCMI_D6*%
X147150000Y-109400000D03*
%TO.N,/DCMI_VSYNC*%
X145050000Y-110250000D03*
%TO.N,/DCMI_D5*%
X146150000Y-110250000D03*
%TO.N,/DCMI_D4*%
X147150000Y-110250000D03*
%TO.N,/USART1_RTS*%
X142000000Y-110250000D03*
%TO.N,/USART1_CTS*%
X140500000Y-109750000D03*
%TO.N,/USART1_RX*%
X141500000Y-109250000D03*
%TO.N,/USART1_TX*%
X141000000Y-108750000D03*
%TO.N,/USART1_CK*%
X140100000Y-108250000D03*
%TO.N,/DCMI_D3*%
X146150000Y-111100000D03*
%TO.N,/DCMI_D2*%
X147150000Y-111100000D03*
%TO.N,/DCMI_D1*%
X146150000Y-111950000D03*
%TO.N,/DCMI_D0*%
X147150000Y-111950000D03*
%TO.N,/LPUART_CTS*%
X143150000Y-105750000D03*
%TO.N,/LPUART_RTS*%
X144650000Y-105750000D03*
%TO.N,/LPUART_TX*%
X143150000Y-104750000D03*
%TO.N,/LPUART_RX*%
X143900000Y-104750000D03*
%TO.N,/QUADSPI_BK2_IO3*%
X144650000Y-104750000D03*
X168200000Y-96865000D03*
%TO.N,/DCMI_PIXCLK*%
X145650000Y-106750000D03*
%TO.N,/DCMI_HSYNC*%
X146650000Y-106250000D03*
%TO.N,/QUADSPI_CLK*%
X148150000Y-105250000D03*
X168200000Y-98135000D03*
%TO.N,/QUADSPI_BK2_IO2*%
X152100000Y-106750000D03*
X158200000Y-98135000D03*
%TO.N,/QUADSPI_BK2_IO1*%
X151500000Y-107250000D03*
X158200000Y-96865000D03*
%TO.N,/QUADSPI_BK2_IO0*%
X152100000Y-107750000D03*
X168200000Y-99405000D03*
%TD*%
D13*
%TO.N,GND*%
G36*
X175386509Y-85885962D02*
G01*
X175796775Y-86009828D01*
X176175169Y-86211023D01*
X176507279Y-86481886D01*
X176780447Y-86812090D01*
X176984279Y-87189069D01*
X177111007Y-87598462D01*
X177157500Y-88040810D01*
X177157501Y-127943243D01*
X177114038Y-128386508D01*
X176990172Y-128796775D01*
X176788974Y-129175173D01*
X176518117Y-129507276D01*
X176187910Y-129780447D01*
X175810929Y-129984280D01*
X175401539Y-130111007D01*
X174959190Y-130157500D01*
X135056747Y-130157500D01*
X134613492Y-130114038D01*
X134203225Y-129990172D01*
X133824827Y-129788974D01*
X133492724Y-129518117D01*
X133219553Y-129187910D01*
X133015720Y-128810929D01*
X132888993Y-128401539D01*
X132842500Y-127959190D01*
X132842500Y-126942891D01*
X134862500Y-126942891D01*
X134862500Y-127157109D01*
X134904292Y-127367212D01*
X134986270Y-127565124D01*
X135105284Y-127743241D01*
X135256759Y-127894716D01*
X135434876Y-128013730D01*
X135632788Y-128095708D01*
X135842891Y-128137500D01*
X136057109Y-128137500D01*
X136267212Y-128095708D01*
X136465124Y-128013730D01*
X136643241Y-127894716D01*
X136794716Y-127743241D01*
X136913730Y-127565124D01*
X136995708Y-127367212D01*
X137037500Y-127157109D01*
X137037500Y-126942891D01*
X137402500Y-126942891D01*
X137402500Y-127157109D01*
X137444292Y-127367212D01*
X137526270Y-127565124D01*
X137645284Y-127743241D01*
X137796759Y-127894716D01*
X137974876Y-128013730D01*
X138172788Y-128095708D01*
X138382891Y-128137500D01*
X138597109Y-128137500D01*
X138807212Y-128095708D01*
X139005124Y-128013730D01*
X139183241Y-127894716D01*
X139267891Y-127810066D01*
X140359736Y-127810066D01*
X140440149Y-127969893D01*
X140630945Y-128067291D01*
X140837077Y-128125596D01*
X141050622Y-128142566D01*
X141263375Y-128117550D01*
X141467160Y-128051509D01*
X141619851Y-127969893D01*
X141700264Y-127810066D01*
X141030000Y-127139803D01*
X140359736Y-127810066D01*
X139267891Y-127810066D01*
X139334716Y-127743241D01*
X139453730Y-127565124D01*
X139535708Y-127367212D01*
X139577500Y-127157109D01*
X139577500Y-127070622D01*
X139937434Y-127070622D01*
X139962450Y-127283375D01*
X140028491Y-127487160D01*
X140110107Y-127639851D01*
X140269934Y-127720264D01*
X140940197Y-127050000D01*
X141119803Y-127050000D01*
X141790066Y-127720264D01*
X141949893Y-127639851D01*
X142047291Y-127449055D01*
X142105596Y-127242923D01*
X142122566Y-127029378D01*
X142112397Y-126942891D01*
X142482500Y-126942891D01*
X142482500Y-127157109D01*
X142524292Y-127367212D01*
X142606270Y-127565124D01*
X142725284Y-127743241D01*
X142876759Y-127894716D01*
X143054876Y-128013730D01*
X143252788Y-128095708D01*
X143462891Y-128137500D01*
X143677109Y-128137500D01*
X143887212Y-128095708D01*
X144085124Y-128013730D01*
X144263241Y-127894716D01*
X144414716Y-127743241D01*
X144533730Y-127565124D01*
X144615708Y-127367212D01*
X144657500Y-127157109D01*
X144657500Y-126942891D01*
X145022500Y-126942891D01*
X145022500Y-127157109D01*
X145064292Y-127367212D01*
X145146270Y-127565124D01*
X145265284Y-127743241D01*
X145416759Y-127894716D01*
X145594876Y-128013730D01*
X145792788Y-128095708D01*
X146002891Y-128137500D01*
X146217109Y-128137500D01*
X146427212Y-128095708D01*
X146625124Y-128013730D01*
X146803241Y-127894716D01*
X146954716Y-127743241D01*
X147073730Y-127565124D01*
X147155708Y-127367212D01*
X147197500Y-127157109D01*
X147197500Y-126942891D01*
X147562500Y-126942891D01*
X147562500Y-127157109D01*
X147604292Y-127367212D01*
X147686270Y-127565124D01*
X147805284Y-127743241D01*
X147956759Y-127894716D01*
X148134876Y-128013730D01*
X148332788Y-128095708D01*
X148542891Y-128137500D01*
X148757109Y-128137500D01*
X148967212Y-128095708D01*
X149165124Y-128013730D01*
X149343241Y-127894716D01*
X149494716Y-127743241D01*
X149613730Y-127565124D01*
X149695708Y-127367212D01*
X149737500Y-127157109D01*
X149737500Y-126942891D01*
X150102500Y-126942891D01*
X150102500Y-127157109D01*
X150144292Y-127367212D01*
X150226270Y-127565124D01*
X150345284Y-127743241D01*
X150496759Y-127894716D01*
X150674876Y-128013730D01*
X150872788Y-128095708D01*
X151082891Y-128137500D01*
X151297109Y-128137500D01*
X151507212Y-128095708D01*
X151705124Y-128013730D01*
X151883241Y-127894716D01*
X152034716Y-127743241D01*
X152153730Y-127565124D01*
X152235708Y-127367212D01*
X152277500Y-127157109D01*
X152277500Y-126942891D01*
X152642500Y-126942891D01*
X152642500Y-127157109D01*
X152684292Y-127367212D01*
X152766270Y-127565124D01*
X152885284Y-127743241D01*
X153036759Y-127894716D01*
X153214876Y-128013730D01*
X153412788Y-128095708D01*
X153622891Y-128137500D01*
X153837109Y-128137500D01*
X154047212Y-128095708D01*
X154245124Y-128013730D01*
X154423241Y-127894716D01*
X154574716Y-127743241D01*
X154693730Y-127565124D01*
X154775708Y-127367212D01*
X154817500Y-127157109D01*
X154817500Y-126942891D01*
X155182500Y-126942891D01*
X155182500Y-127157109D01*
X155224292Y-127367212D01*
X155306270Y-127565124D01*
X155425284Y-127743241D01*
X155576759Y-127894716D01*
X155754876Y-128013730D01*
X155952788Y-128095708D01*
X156162891Y-128137500D01*
X156377109Y-128137500D01*
X156587212Y-128095708D01*
X156785124Y-128013730D01*
X156963241Y-127894716D01*
X157114716Y-127743241D01*
X157233730Y-127565124D01*
X157315708Y-127367212D01*
X157357500Y-127157109D01*
X157357500Y-126942891D01*
X157722500Y-126942891D01*
X157722500Y-127157109D01*
X157764292Y-127367212D01*
X157846270Y-127565124D01*
X157965284Y-127743241D01*
X158116759Y-127894716D01*
X158294876Y-128013730D01*
X158492788Y-128095708D01*
X158702891Y-128137500D01*
X158917109Y-128137500D01*
X159127212Y-128095708D01*
X159325124Y-128013730D01*
X159503241Y-127894716D01*
X159654716Y-127743241D01*
X159773730Y-127565124D01*
X159855708Y-127367212D01*
X159897500Y-127157109D01*
X159897500Y-126942891D01*
X160262500Y-126942891D01*
X160262500Y-127157109D01*
X160304292Y-127367212D01*
X160386270Y-127565124D01*
X160505284Y-127743241D01*
X160656759Y-127894716D01*
X160834876Y-128013730D01*
X161032788Y-128095708D01*
X161242891Y-128137500D01*
X161457109Y-128137500D01*
X161667212Y-128095708D01*
X161865124Y-128013730D01*
X162043241Y-127894716D01*
X162194716Y-127743241D01*
X162313730Y-127565124D01*
X162395708Y-127367212D01*
X162437500Y-127157109D01*
X162437500Y-126942891D01*
X162802500Y-126942891D01*
X162802500Y-127157109D01*
X162844292Y-127367212D01*
X162926270Y-127565124D01*
X163045284Y-127743241D01*
X163196759Y-127894716D01*
X163374876Y-128013730D01*
X163572788Y-128095708D01*
X163782891Y-128137500D01*
X163997109Y-128137500D01*
X164207212Y-128095708D01*
X164405124Y-128013730D01*
X164583241Y-127894716D01*
X164734716Y-127743241D01*
X164853730Y-127565124D01*
X164935708Y-127367212D01*
X164977500Y-127157109D01*
X164977500Y-126942891D01*
X165342500Y-126942891D01*
X165342500Y-127157109D01*
X165384292Y-127367212D01*
X165466270Y-127565124D01*
X165585284Y-127743241D01*
X165736759Y-127894716D01*
X165914876Y-128013730D01*
X166112788Y-128095708D01*
X166322891Y-128137500D01*
X166537109Y-128137500D01*
X166747212Y-128095708D01*
X166945124Y-128013730D01*
X167123241Y-127894716D01*
X167274716Y-127743241D01*
X167393730Y-127565124D01*
X167475708Y-127367212D01*
X167517500Y-127157109D01*
X167517500Y-126942891D01*
X167882500Y-126942891D01*
X167882500Y-127157109D01*
X167924292Y-127367212D01*
X168006270Y-127565124D01*
X168125284Y-127743241D01*
X168276759Y-127894716D01*
X168454876Y-128013730D01*
X168652788Y-128095708D01*
X168862891Y-128137500D01*
X169077109Y-128137500D01*
X169287212Y-128095708D01*
X169485124Y-128013730D01*
X169663241Y-127894716D01*
X169814716Y-127743241D01*
X169933730Y-127565124D01*
X170015708Y-127367212D01*
X170057500Y-127157109D01*
X170057500Y-126942891D01*
X170422500Y-126942891D01*
X170422500Y-127157109D01*
X170464292Y-127367212D01*
X170546270Y-127565124D01*
X170665284Y-127743241D01*
X170816759Y-127894716D01*
X170994876Y-128013730D01*
X171192788Y-128095708D01*
X171402891Y-128137500D01*
X171617109Y-128137500D01*
X171827212Y-128095708D01*
X172025124Y-128013730D01*
X172203241Y-127894716D01*
X172354716Y-127743241D01*
X172473730Y-127565124D01*
X172555708Y-127367212D01*
X172597500Y-127157109D01*
X172597500Y-126942891D01*
X172962500Y-126942891D01*
X172962500Y-127157109D01*
X173004292Y-127367212D01*
X173086270Y-127565124D01*
X173205284Y-127743241D01*
X173356759Y-127894716D01*
X173534876Y-128013730D01*
X173732788Y-128095708D01*
X173942891Y-128137500D01*
X174157109Y-128137500D01*
X174367212Y-128095708D01*
X174565124Y-128013730D01*
X174743241Y-127894716D01*
X174894716Y-127743241D01*
X175013730Y-127565124D01*
X175095708Y-127367212D01*
X175137500Y-127157109D01*
X175137500Y-126942891D01*
X175095708Y-126732788D01*
X175013730Y-126534876D01*
X174894716Y-126356759D01*
X174743241Y-126205284D01*
X174565124Y-126086270D01*
X174367212Y-126004292D01*
X174157109Y-125962500D01*
X173942891Y-125962500D01*
X173732788Y-126004292D01*
X173534876Y-126086270D01*
X173356759Y-126205284D01*
X173205284Y-126356759D01*
X173086270Y-126534876D01*
X173004292Y-126732788D01*
X172962500Y-126942891D01*
X172597500Y-126942891D01*
X172555708Y-126732788D01*
X172473730Y-126534876D01*
X172354716Y-126356759D01*
X172203241Y-126205284D01*
X172025124Y-126086270D01*
X171827212Y-126004292D01*
X171617109Y-125962500D01*
X171402891Y-125962500D01*
X171192788Y-126004292D01*
X170994876Y-126086270D01*
X170816759Y-126205284D01*
X170665284Y-126356759D01*
X170546270Y-126534876D01*
X170464292Y-126732788D01*
X170422500Y-126942891D01*
X170057500Y-126942891D01*
X170015708Y-126732788D01*
X169933730Y-126534876D01*
X169814716Y-126356759D01*
X169663241Y-126205284D01*
X169485124Y-126086270D01*
X169287212Y-126004292D01*
X169077109Y-125962500D01*
X168862891Y-125962500D01*
X168652788Y-126004292D01*
X168454876Y-126086270D01*
X168276759Y-126205284D01*
X168125284Y-126356759D01*
X168006270Y-126534876D01*
X167924292Y-126732788D01*
X167882500Y-126942891D01*
X167517500Y-126942891D01*
X167475708Y-126732788D01*
X167393730Y-126534876D01*
X167274716Y-126356759D01*
X167123241Y-126205284D01*
X166945124Y-126086270D01*
X166747212Y-126004292D01*
X166537109Y-125962500D01*
X166322891Y-125962500D01*
X166112788Y-126004292D01*
X165914876Y-126086270D01*
X165736759Y-126205284D01*
X165585284Y-126356759D01*
X165466270Y-126534876D01*
X165384292Y-126732788D01*
X165342500Y-126942891D01*
X164977500Y-126942891D01*
X164935708Y-126732788D01*
X164853730Y-126534876D01*
X164734716Y-126356759D01*
X164583241Y-126205284D01*
X164405124Y-126086270D01*
X164207212Y-126004292D01*
X163997109Y-125962500D01*
X163782891Y-125962500D01*
X163572788Y-126004292D01*
X163374876Y-126086270D01*
X163196759Y-126205284D01*
X163045284Y-126356759D01*
X162926270Y-126534876D01*
X162844292Y-126732788D01*
X162802500Y-126942891D01*
X162437500Y-126942891D01*
X162395708Y-126732788D01*
X162313730Y-126534876D01*
X162194716Y-126356759D01*
X162043241Y-126205284D01*
X161865124Y-126086270D01*
X161667212Y-126004292D01*
X161457109Y-125962500D01*
X161242891Y-125962500D01*
X161032788Y-126004292D01*
X160834876Y-126086270D01*
X160656759Y-126205284D01*
X160505284Y-126356759D01*
X160386270Y-126534876D01*
X160304292Y-126732788D01*
X160262500Y-126942891D01*
X159897500Y-126942891D01*
X159855708Y-126732788D01*
X159773730Y-126534876D01*
X159654716Y-126356759D01*
X159503241Y-126205284D01*
X159325124Y-126086270D01*
X159127212Y-126004292D01*
X158917109Y-125962500D01*
X158702891Y-125962500D01*
X158492788Y-126004292D01*
X158294876Y-126086270D01*
X158116759Y-126205284D01*
X157965284Y-126356759D01*
X157846270Y-126534876D01*
X157764292Y-126732788D01*
X157722500Y-126942891D01*
X157357500Y-126942891D01*
X157315708Y-126732788D01*
X157233730Y-126534876D01*
X157114716Y-126356759D01*
X156963241Y-126205284D01*
X156785124Y-126086270D01*
X156587212Y-126004292D01*
X156377109Y-125962500D01*
X156162891Y-125962500D01*
X155952788Y-126004292D01*
X155754876Y-126086270D01*
X155576759Y-126205284D01*
X155425284Y-126356759D01*
X155306270Y-126534876D01*
X155224292Y-126732788D01*
X155182500Y-126942891D01*
X154817500Y-126942891D01*
X154775708Y-126732788D01*
X154693730Y-126534876D01*
X154574716Y-126356759D01*
X154423241Y-126205284D01*
X154245124Y-126086270D01*
X154047212Y-126004292D01*
X153837109Y-125962500D01*
X153622891Y-125962500D01*
X153412788Y-126004292D01*
X153214876Y-126086270D01*
X153036759Y-126205284D01*
X152885284Y-126356759D01*
X152766270Y-126534876D01*
X152684292Y-126732788D01*
X152642500Y-126942891D01*
X152277500Y-126942891D01*
X152235708Y-126732788D01*
X152153730Y-126534876D01*
X152034716Y-126356759D01*
X151883241Y-126205284D01*
X151705124Y-126086270D01*
X151507212Y-126004292D01*
X151297109Y-125962500D01*
X151082891Y-125962500D01*
X150872788Y-126004292D01*
X150674876Y-126086270D01*
X150496759Y-126205284D01*
X150345284Y-126356759D01*
X150226270Y-126534876D01*
X150144292Y-126732788D01*
X150102500Y-126942891D01*
X149737500Y-126942891D01*
X149695708Y-126732788D01*
X149613730Y-126534876D01*
X149494716Y-126356759D01*
X149343241Y-126205284D01*
X149165124Y-126086270D01*
X148967212Y-126004292D01*
X148757109Y-125962500D01*
X148542891Y-125962500D01*
X148332788Y-126004292D01*
X148134876Y-126086270D01*
X147956759Y-126205284D01*
X147805284Y-126356759D01*
X147686270Y-126534876D01*
X147604292Y-126732788D01*
X147562500Y-126942891D01*
X147197500Y-126942891D01*
X147155708Y-126732788D01*
X147073730Y-126534876D01*
X146954716Y-126356759D01*
X146803241Y-126205284D01*
X146625124Y-126086270D01*
X146427212Y-126004292D01*
X146217109Y-125962500D01*
X146002891Y-125962500D01*
X145792788Y-126004292D01*
X145594876Y-126086270D01*
X145416759Y-126205284D01*
X145265284Y-126356759D01*
X145146270Y-126534876D01*
X145064292Y-126732788D01*
X145022500Y-126942891D01*
X144657500Y-126942891D01*
X144615708Y-126732788D01*
X144533730Y-126534876D01*
X144414716Y-126356759D01*
X144263241Y-126205284D01*
X144085124Y-126086270D01*
X143887212Y-126004292D01*
X143677109Y-125962500D01*
X143462891Y-125962500D01*
X143252788Y-126004292D01*
X143054876Y-126086270D01*
X142876759Y-126205284D01*
X142725284Y-126356759D01*
X142606270Y-126534876D01*
X142524292Y-126732788D01*
X142482500Y-126942891D01*
X142112397Y-126942891D01*
X142097550Y-126816625D01*
X142031509Y-126612840D01*
X141949893Y-126460149D01*
X141790066Y-126379736D01*
X141119803Y-127050000D01*
X140940197Y-127050000D01*
X140269934Y-126379736D01*
X140110107Y-126460149D01*
X140012709Y-126650945D01*
X139954404Y-126857077D01*
X139937434Y-127070622D01*
X139577500Y-127070622D01*
X139577500Y-126942891D01*
X139535708Y-126732788D01*
X139453730Y-126534876D01*
X139334716Y-126356759D01*
X139267891Y-126289934D01*
X140359736Y-126289934D01*
X141030000Y-126960197D01*
X141700264Y-126289934D01*
X141619851Y-126130107D01*
X141429055Y-126032709D01*
X141222923Y-125974404D01*
X141009378Y-125957434D01*
X140796625Y-125982450D01*
X140592840Y-126048491D01*
X140440149Y-126130107D01*
X140359736Y-126289934D01*
X139267891Y-126289934D01*
X139183241Y-126205284D01*
X139005124Y-126086270D01*
X138807212Y-126004292D01*
X138597109Y-125962500D01*
X138382891Y-125962500D01*
X138172788Y-126004292D01*
X137974876Y-126086270D01*
X137796759Y-126205284D01*
X137645284Y-126356759D01*
X137526270Y-126534876D01*
X137444292Y-126732788D01*
X137402500Y-126942891D01*
X137037500Y-126942891D01*
X136995708Y-126732788D01*
X136913730Y-126534876D01*
X136794716Y-126356759D01*
X136643241Y-126205284D01*
X136465124Y-126086270D01*
X136267212Y-126004292D01*
X136057109Y-125962500D01*
X135842891Y-125962500D01*
X135632788Y-126004292D01*
X135434876Y-126086270D01*
X135256759Y-126205284D01*
X135105284Y-126356759D01*
X134986270Y-126534876D01*
X134904292Y-126732788D01*
X134862500Y-126942891D01*
X132842500Y-126942891D01*
X132842500Y-124402891D01*
X134862500Y-124402891D01*
X134862500Y-124617109D01*
X134904292Y-124827212D01*
X134986270Y-125025124D01*
X135105284Y-125203241D01*
X135256759Y-125354716D01*
X135434876Y-125473730D01*
X135632788Y-125555708D01*
X135842891Y-125597500D01*
X136057109Y-125597500D01*
X136267212Y-125555708D01*
X136465124Y-125473730D01*
X136643241Y-125354716D01*
X136794716Y-125203241D01*
X136913730Y-125025124D01*
X136995708Y-124827212D01*
X137037500Y-124617109D01*
X137037500Y-124402891D01*
X136995708Y-124192788D01*
X136913730Y-123994876D01*
X136881216Y-123946214D01*
X154953900Y-123946214D01*
X154953900Y-124053786D01*
X154974887Y-124159291D01*
X155016053Y-124258675D01*
X155075817Y-124348118D01*
X155151882Y-124424183D01*
X155241325Y-124483947D01*
X155340709Y-124525113D01*
X155446214Y-124546100D01*
X155553786Y-124546100D01*
X155659291Y-124525113D01*
X155758675Y-124483947D01*
X155848118Y-124424183D01*
X155924183Y-124348118D01*
X155983947Y-124258675D01*
X156025113Y-124159291D01*
X156046100Y-124053786D01*
X156046100Y-123946214D01*
X156025113Y-123840709D01*
X155983947Y-123741325D01*
X155924183Y-123651882D01*
X155848118Y-123575817D01*
X155758675Y-123516053D01*
X155659291Y-123474887D01*
X155553786Y-123453900D01*
X155446214Y-123453900D01*
X155340709Y-123474887D01*
X155241325Y-123516053D01*
X155151882Y-123575817D01*
X155075817Y-123651882D01*
X155016053Y-123741325D01*
X154974887Y-123840709D01*
X154953900Y-123946214D01*
X136881216Y-123946214D01*
X136794716Y-123816759D01*
X136643241Y-123665284D01*
X136465124Y-123546270D01*
X136267212Y-123464292D01*
X136057109Y-123422500D01*
X135842891Y-123422500D01*
X135632788Y-123464292D01*
X135434876Y-123546270D01*
X135256759Y-123665284D01*
X135105284Y-123816759D01*
X134986270Y-123994876D01*
X134904292Y-124192788D01*
X134862500Y-124402891D01*
X132842500Y-124402891D01*
X132842500Y-121862891D01*
X134862500Y-121862891D01*
X134862500Y-122077109D01*
X134904292Y-122287212D01*
X134986270Y-122485124D01*
X135105284Y-122663241D01*
X135256759Y-122814716D01*
X135434876Y-122933730D01*
X135632788Y-123015708D01*
X135842891Y-123057500D01*
X136057109Y-123057500D01*
X136267212Y-123015708D01*
X136465124Y-122933730D01*
X136643241Y-122814716D01*
X136794716Y-122663241D01*
X136913730Y-122485124D01*
X136995708Y-122287212D01*
X137037500Y-122077109D01*
X137037500Y-121862891D01*
X136995708Y-121652788D01*
X136913730Y-121454876D01*
X136794716Y-121276759D01*
X136643241Y-121125284D01*
X136465124Y-121006270D01*
X136267212Y-120924292D01*
X136057109Y-120882500D01*
X135842891Y-120882500D01*
X135632788Y-120924292D01*
X135434876Y-121006270D01*
X135256759Y-121125284D01*
X135105284Y-121276759D01*
X134986270Y-121454876D01*
X134904292Y-121652788D01*
X134862500Y-121862891D01*
X132842500Y-121862891D01*
X132842500Y-120190066D01*
X135279736Y-120190066D01*
X135360149Y-120349893D01*
X135550945Y-120447291D01*
X135757077Y-120505596D01*
X135970622Y-120522566D01*
X136183375Y-120497550D01*
X136387160Y-120431509D01*
X136539851Y-120349893D01*
X136620264Y-120190066D01*
X135950000Y-119519803D01*
X135279736Y-120190066D01*
X132842500Y-120190066D01*
X132842500Y-119450622D01*
X134857434Y-119450622D01*
X134882450Y-119663375D01*
X134948491Y-119867160D01*
X135030107Y-120019851D01*
X135189934Y-120100264D01*
X135860197Y-119430000D01*
X136039803Y-119430000D01*
X136710066Y-120100264D01*
X136869893Y-120019851D01*
X136967291Y-119829055D01*
X137025596Y-119622923D01*
X137042566Y-119409378D01*
X137017550Y-119196625D01*
X136951509Y-118992840D01*
X136869893Y-118840149D01*
X136710066Y-118759736D01*
X136039803Y-119430000D01*
X135860197Y-119430000D01*
X135189934Y-118759736D01*
X135030107Y-118840149D01*
X134932709Y-119030945D01*
X134874404Y-119237077D01*
X134857434Y-119450622D01*
X132842500Y-119450622D01*
X132842500Y-118669934D01*
X135279736Y-118669934D01*
X135950000Y-119340197D01*
X136620264Y-118669934D01*
X136539851Y-118510107D01*
X136349055Y-118412709D01*
X136142923Y-118354404D01*
X135929378Y-118337434D01*
X135716625Y-118362450D01*
X135512840Y-118428491D01*
X135360149Y-118510107D01*
X135279736Y-118669934D01*
X132842500Y-118669934D01*
X132842500Y-118096214D01*
X139403900Y-118096214D01*
X139403900Y-118203786D01*
X139424887Y-118309291D01*
X139466053Y-118408675D01*
X139525817Y-118498118D01*
X139601882Y-118574183D01*
X139691325Y-118633947D01*
X139790709Y-118675113D01*
X139896214Y-118696100D01*
X140003786Y-118696100D01*
X140109291Y-118675113D01*
X140208675Y-118633947D01*
X140298118Y-118574183D01*
X140374183Y-118498118D01*
X140433947Y-118408675D01*
X140475113Y-118309291D01*
X140496100Y-118203786D01*
X140496100Y-118096214D01*
X140475113Y-117990709D01*
X140433947Y-117891325D01*
X140374183Y-117801882D01*
X140298118Y-117725817D01*
X140208675Y-117666053D01*
X140109291Y-117624887D01*
X140003786Y-117603900D01*
X139896214Y-117603900D01*
X139790709Y-117624887D01*
X139691325Y-117666053D01*
X139601882Y-117725817D01*
X139525817Y-117801882D01*
X139466053Y-117891325D01*
X139424887Y-117990709D01*
X139403900Y-118096214D01*
X132842500Y-118096214D01*
X132842500Y-116782891D01*
X134862500Y-116782891D01*
X134862500Y-116997109D01*
X134904292Y-117207212D01*
X134986270Y-117405124D01*
X135105284Y-117583241D01*
X135256759Y-117734716D01*
X135434876Y-117853730D01*
X135632788Y-117935708D01*
X135842891Y-117977500D01*
X136057109Y-117977500D01*
X136267212Y-117935708D01*
X136465124Y-117853730D01*
X136643241Y-117734716D01*
X136794716Y-117583241D01*
X136913730Y-117405124D01*
X136979552Y-117246214D01*
X148653900Y-117246214D01*
X148653900Y-117353786D01*
X148674887Y-117459291D01*
X148716053Y-117558675D01*
X148775817Y-117648118D01*
X148851882Y-117724183D01*
X148941325Y-117783947D01*
X149040709Y-117825113D01*
X149146214Y-117846100D01*
X149253786Y-117846100D01*
X149359291Y-117825113D01*
X149458675Y-117783947D01*
X149548118Y-117724183D01*
X149624183Y-117648118D01*
X149683947Y-117558675D01*
X149725113Y-117459291D01*
X149746100Y-117353786D01*
X149746100Y-117246214D01*
X149725113Y-117140709D01*
X149683947Y-117041325D01*
X149624183Y-116951882D01*
X149548118Y-116875817D01*
X149458675Y-116816053D01*
X149359291Y-116774887D01*
X149253786Y-116753900D01*
X149146214Y-116753900D01*
X149040709Y-116774887D01*
X148941325Y-116816053D01*
X148851882Y-116875817D01*
X148775817Y-116951882D01*
X148716053Y-117041325D01*
X148674887Y-117140709D01*
X148653900Y-117246214D01*
X136979552Y-117246214D01*
X136995708Y-117207212D01*
X137037500Y-116997109D01*
X137037500Y-116782891D01*
X136995708Y-116572788D01*
X136913730Y-116374876D01*
X136794716Y-116196759D01*
X136643241Y-116045284D01*
X136465124Y-115926270D01*
X136267212Y-115844292D01*
X136057109Y-115802500D01*
X135842891Y-115802500D01*
X135632788Y-115844292D01*
X135434876Y-115926270D01*
X135256759Y-116045284D01*
X135105284Y-116196759D01*
X134986270Y-116374876D01*
X134904292Y-116572788D01*
X134862500Y-116782891D01*
X132842500Y-116782891D01*
X132842500Y-114195797D01*
X134014006Y-114195797D01*
X134154492Y-114406831D01*
X134430358Y-114554090D01*
X134729653Y-114644701D01*
X135040875Y-114675181D01*
X135352062Y-114644360D01*
X135651258Y-114553420D01*
X135925508Y-114406831D01*
X136034643Y-114242891D01*
X167882500Y-114242891D01*
X167882500Y-114457109D01*
X167924292Y-114667212D01*
X168006270Y-114865124D01*
X168125284Y-115043241D01*
X168276759Y-115194716D01*
X168454876Y-115313730D01*
X168652788Y-115395708D01*
X168862891Y-115437500D01*
X169077109Y-115437500D01*
X169287212Y-115395708D01*
X169485124Y-115313730D01*
X169663241Y-115194716D01*
X169814716Y-115043241D01*
X169933730Y-114865124D01*
X170015708Y-114667212D01*
X170057500Y-114457109D01*
X170057500Y-114242891D01*
X170422500Y-114242891D01*
X170422500Y-114457109D01*
X170464292Y-114667212D01*
X170546270Y-114865124D01*
X170665284Y-115043241D01*
X170816759Y-115194716D01*
X170994876Y-115313730D01*
X171192788Y-115395708D01*
X171402891Y-115437500D01*
X171617109Y-115437500D01*
X171827212Y-115395708D01*
X172025124Y-115313730D01*
X172203241Y-115194716D01*
X172354716Y-115043241D01*
X172473730Y-114865124D01*
X172555708Y-114667212D01*
X172597500Y-114457109D01*
X172597500Y-114242891D01*
X172588133Y-114195797D01*
X173934006Y-114195797D01*
X174074492Y-114406831D01*
X174350358Y-114554090D01*
X174649653Y-114644701D01*
X174960875Y-114675181D01*
X175272062Y-114644360D01*
X175571258Y-114553420D01*
X175845508Y-114406831D01*
X175985994Y-114195797D01*
X174960000Y-113169803D01*
X173934006Y-114195797D01*
X172588133Y-114195797D01*
X172555708Y-114032788D01*
X172473730Y-113834876D01*
X172354716Y-113656759D01*
X172203241Y-113505284D01*
X172025124Y-113386270D01*
X171827212Y-113304292D01*
X171617109Y-113262500D01*
X171402891Y-113262500D01*
X171192788Y-113304292D01*
X170994876Y-113386270D01*
X170816759Y-113505284D01*
X170665284Y-113656759D01*
X170546270Y-113834876D01*
X170464292Y-114032788D01*
X170422500Y-114242891D01*
X170057500Y-114242891D01*
X170015708Y-114032788D01*
X169933730Y-113834876D01*
X169814716Y-113656759D01*
X169663241Y-113505284D01*
X169485124Y-113386270D01*
X169287212Y-113304292D01*
X169077109Y-113262500D01*
X168862891Y-113262500D01*
X168652788Y-113304292D01*
X168454876Y-113386270D01*
X168276759Y-113505284D01*
X168125284Y-113656759D01*
X168006270Y-113834876D01*
X167924292Y-114032788D01*
X167882500Y-114242891D01*
X136034643Y-114242891D01*
X136065994Y-114195797D01*
X135040000Y-113169803D01*
X134014006Y-114195797D01*
X132842500Y-114195797D01*
X132842500Y-113080875D01*
X133444819Y-113080875D01*
X133475640Y-113392062D01*
X133566580Y-113691258D01*
X133713169Y-113965508D01*
X133924203Y-114105994D01*
X134950197Y-113080000D01*
X135129803Y-113080000D01*
X136155797Y-114105994D01*
X136366831Y-113965508D01*
X136514090Y-113689642D01*
X136604701Y-113390347D01*
X136635009Y-113080875D01*
X173364819Y-113080875D01*
X173395640Y-113392062D01*
X173486580Y-113691258D01*
X173633169Y-113965508D01*
X173844203Y-114105994D01*
X174870197Y-113080000D01*
X175049803Y-113080000D01*
X176075797Y-114105994D01*
X176286831Y-113965508D01*
X176434090Y-113689642D01*
X176524701Y-113390347D01*
X176555181Y-113079125D01*
X176524360Y-112767938D01*
X176433420Y-112468742D01*
X176286831Y-112194492D01*
X176075797Y-112054006D01*
X175049803Y-113080000D01*
X174870197Y-113080000D01*
X173844203Y-112054006D01*
X173633169Y-112194492D01*
X173485910Y-112470358D01*
X173395299Y-112769653D01*
X173364819Y-113080875D01*
X136635009Y-113080875D01*
X136635181Y-113079125D01*
X136604360Y-112767938D01*
X136513420Y-112468742D01*
X136366831Y-112194492D01*
X136155797Y-112054006D01*
X135129803Y-113080000D01*
X134950197Y-113080000D01*
X133924203Y-112054006D01*
X133713169Y-112194492D01*
X133565910Y-112470358D01*
X133475299Y-112769653D01*
X133444819Y-113080875D01*
X132842500Y-113080875D01*
X132842500Y-111964203D01*
X134014006Y-111964203D01*
X135040000Y-112990197D01*
X136065994Y-111964203D01*
X135987449Y-111846214D01*
X136753900Y-111846214D01*
X136753900Y-111953786D01*
X136774887Y-112059291D01*
X136816053Y-112158675D01*
X136875817Y-112248118D01*
X136951882Y-112324183D01*
X137041325Y-112383947D01*
X137140709Y-112425113D01*
X137246214Y-112446100D01*
X137353786Y-112446100D01*
X137459291Y-112425113D01*
X137558675Y-112383947D01*
X137648118Y-112324183D01*
X137724183Y-112248118D01*
X137783947Y-112158675D01*
X137825113Y-112059291D01*
X137846100Y-111953786D01*
X137846100Y-111846214D01*
X137825113Y-111740709D01*
X137783947Y-111641325D01*
X137724183Y-111551882D01*
X137648118Y-111475817D01*
X137558675Y-111416053D01*
X137459291Y-111374887D01*
X137353786Y-111353900D01*
X137246214Y-111353900D01*
X137140709Y-111374887D01*
X137041325Y-111416053D01*
X136951882Y-111475817D01*
X136875817Y-111551882D01*
X136816053Y-111641325D01*
X136774887Y-111740709D01*
X136753900Y-111846214D01*
X135987449Y-111846214D01*
X135925508Y-111753169D01*
X135649642Y-111605910D01*
X135350347Y-111515299D01*
X135039125Y-111484819D01*
X134727938Y-111515640D01*
X134428742Y-111606580D01*
X134154492Y-111753169D01*
X134014006Y-111964203D01*
X132842500Y-111964203D01*
X132842500Y-109696214D01*
X139953900Y-109696214D01*
X139953900Y-109803786D01*
X139974887Y-109909291D01*
X140016053Y-110008675D01*
X140075817Y-110098118D01*
X140151882Y-110174183D01*
X140241325Y-110233947D01*
X140340709Y-110275113D01*
X140446214Y-110296100D01*
X140553786Y-110296100D01*
X140659291Y-110275113D01*
X140758675Y-110233947D01*
X140815146Y-110196214D01*
X141453900Y-110196214D01*
X141453900Y-110303786D01*
X141474887Y-110409291D01*
X141516053Y-110508675D01*
X141575817Y-110598118D01*
X141651882Y-110674183D01*
X141741325Y-110733947D01*
X141840709Y-110775113D01*
X141946214Y-110796100D01*
X142053786Y-110796100D01*
X142159291Y-110775113D01*
X142258675Y-110733947D01*
X142348118Y-110674183D01*
X142424183Y-110598118D01*
X142483947Y-110508675D01*
X142525113Y-110409291D01*
X142546100Y-110303786D01*
X142546100Y-110196214D01*
X144503900Y-110196214D01*
X144503900Y-110303786D01*
X144524887Y-110409291D01*
X144566053Y-110508675D01*
X144625817Y-110598118D01*
X144701882Y-110674183D01*
X144791325Y-110733947D01*
X144890709Y-110775113D01*
X144996214Y-110796100D01*
X145103786Y-110796100D01*
X145209291Y-110775113D01*
X145308675Y-110733947D01*
X145398118Y-110674183D01*
X145474183Y-110598118D01*
X145533947Y-110508675D01*
X145575113Y-110409291D01*
X145596100Y-110303786D01*
X145596100Y-110196214D01*
X145575113Y-110090709D01*
X145533947Y-109991325D01*
X145474183Y-109901882D01*
X145398118Y-109825817D01*
X145308675Y-109766053D01*
X145209291Y-109724887D01*
X145103786Y-109703900D01*
X144996214Y-109703900D01*
X144890709Y-109724887D01*
X144791325Y-109766053D01*
X144701882Y-109825817D01*
X144625817Y-109901882D01*
X144566053Y-109991325D01*
X144524887Y-110090709D01*
X144503900Y-110196214D01*
X142546100Y-110196214D01*
X142525113Y-110090709D01*
X142483947Y-109991325D01*
X142424183Y-109901882D01*
X142348118Y-109825817D01*
X142258675Y-109766053D01*
X142159291Y-109724887D01*
X142053786Y-109703900D01*
X141946214Y-109703900D01*
X141840709Y-109724887D01*
X141741325Y-109766053D01*
X141651882Y-109825817D01*
X141575817Y-109901882D01*
X141516053Y-109991325D01*
X141474887Y-110090709D01*
X141453900Y-110196214D01*
X140815146Y-110196214D01*
X140848118Y-110174183D01*
X140924183Y-110098118D01*
X140983947Y-110008675D01*
X141025113Y-109909291D01*
X141046100Y-109803786D01*
X141046100Y-109696214D01*
X141025113Y-109590709D01*
X140983947Y-109491325D01*
X140924183Y-109401882D01*
X140848118Y-109325817D01*
X140758675Y-109266053D01*
X140659291Y-109224887D01*
X140553786Y-109203900D01*
X140446214Y-109203900D01*
X140340709Y-109224887D01*
X140241325Y-109266053D01*
X140151882Y-109325817D01*
X140075817Y-109401882D01*
X140016053Y-109491325D01*
X139974887Y-109590709D01*
X139953900Y-109696214D01*
X132842500Y-109696214D01*
X132842500Y-108196214D01*
X139553900Y-108196214D01*
X139553900Y-108303786D01*
X139574887Y-108409291D01*
X139616053Y-108508675D01*
X139675817Y-108598118D01*
X139751882Y-108674183D01*
X139841325Y-108733947D01*
X139940709Y-108775113D01*
X140046214Y-108796100D01*
X140153786Y-108796100D01*
X140259291Y-108775113D01*
X140358675Y-108733947D01*
X140448118Y-108674183D01*
X140460806Y-108661495D01*
X140453900Y-108696214D01*
X140453900Y-108803786D01*
X140474887Y-108909291D01*
X140516053Y-109008675D01*
X140575817Y-109098118D01*
X140651882Y-109174183D01*
X140741325Y-109233947D01*
X140840709Y-109275113D01*
X140946214Y-109296100D01*
X140953900Y-109296100D01*
X140953900Y-109303786D01*
X140974887Y-109409291D01*
X141016053Y-109508675D01*
X141075817Y-109598118D01*
X141151882Y-109674183D01*
X141241325Y-109733947D01*
X141340709Y-109775113D01*
X141446214Y-109796100D01*
X141553786Y-109796100D01*
X141659291Y-109775113D01*
X141758675Y-109733947D01*
X141848118Y-109674183D01*
X141924183Y-109598118D01*
X141983947Y-109508675D01*
X142025113Y-109409291D01*
X142037660Y-109346214D01*
X145603900Y-109346214D01*
X145603900Y-109453786D01*
X145624887Y-109559291D01*
X145666053Y-109658675D01*
X145725817Y-109748118D01*
X145801882Y-109824183D01*
X145803105Y-109825000D01*
X145801882Y-109825817D01*
X145725817Y-109901882D01*
X145666053Y-109991325D01*
X145624887Y-110090709D01*
X145603900Y-110196214D01*
X145603900Y-110303786D01*
X145624887Y-110409291D01*
X145666053Y-110508675D01*
X145725817Y-110598118D01*
X145801882Y-110674183D01*
X145803105Y-110675000D01*
X145801882Y-110675817D01*
X145725817Y-110751882D01*
X145666053Y-110841325D01*
X145624887Y-110940709D01*
X145603900Y-111046214D01*
X145603900Y-111153786D01*
X145624887Y-111259291D01*
X145666053Y-111358675D01*
X145725817Y-111448118D01*
X145801882Y-111524183D01*
X145803105Y-111525000D01*
X145801882Y-111525817D01*
X145725817Y-111601882D01*
X145666053Y-111691325D01*
X145624887Y-111790709D01*
X145603900Y-111896214D01*
X145603900Y-112003786D01*
X145624887Y-112109291D01*
X145666053Y-112208675D01*
X145725817Y-112298118D01*
X145801882Y-112374183D01*
X145891325Y-112433947D01*
X145990709Y-112475113D01*
X146096214Y-112496100D01*
X146203786Y-112496100D01*
X146309291Y-112475113D01*
X146408675Y-112433947D01*
X146498118Y-112374183D01*
X146574183Y-112298118D01*
X146633947Y-112208675D01*
X146650000Y-112169919D01*
X146666053Y-112208675D01*
X146725817Y-112298118D01*
X146801882Y-112374183D01*
X146891325Y-112433947D01*
X146990709Y-112475113D01*
X147096214Y-112496100D01*
X147203786Y-112496100D01*
X147309291Y-112475113D01*
X147408675Y-112433947D01*
X147498118Y-112374183D01*
X147574183Y-112298118D01*
X147633947Y-112208675D01*
X147675113Y-112109291D01*
X147696100Y-112003786D01*
X147696100Y-111896214D01*
X147675113Y-111790709D01*
X147638738Y-111702891D01*
X167882500Y-111702891D01*
X167882500Y-111917109D01*
X167924292Y-112127212D01*
X168006270Y-112325124D01*
X168125284Y-112503241D01*
X168276759Y-112654716D01*
X168454876Y-112773730D01*
X168652788Y-112855708D01*
X168862891Y-112897500D01*
X169077109Y-112897500D01*
X169287212Y-112855708D01*
X169485124Y-112773730D01*
X169663241Y-112654716D01*
X169814716Y-112503241D01*
X169933730Y-112325124D01*
X170015708Y-112127212D01*
X170057500Y-111917109D01*
X170057500Y-111702891D01*
X170422500Y-111702891D01*
X170422500Y-111917109D01*
X170464292Y-112127212D01*
X170546270Y-112325124D01*
X170665284Y-112503241D01*
X170816759Y-112654716D01*
X170994876Y-112773730D01*
X171192788Y-112855708D01*
X171402891Y-112897500D01*
X171617109Y-112897500D01*
X171827212Y-112855708D01*
X172025124Y-112773730D01*
X172203241Y-112654716D01*
X172354716Y-112503241D01*
X172473730Y-112325124D01*
X172555708Y-112127212D01*
X172588132Y-111964203D01*
X173934006Y-111964203D01*
X174960000Y-112990197D01*
X175985994Y-111964203D01*
X175845508Y-111753169D01*
X175569642Y-111605910D01*
X175270347Y-111515299D01*
X174959125Y-111484819D01*
X174647938Y-111515640D01*
X174348742Y-111606580D01*
X174074492Y-111753169D01*
X173934006Y-111964203D01*
X172588132Y-111964203D01*
X172597500Y-111917109D01*
X172597500Y-111702891D01*
X172555708Y-111492788D01*
X172473730Y-111294876D01*
X172354716Y-111116759D01*
X172203241Y-110965284D01*
X172025124Y-110846270D01*
X171827212Y-110764292D01*
X171617109Y-110722500D01*
X171402891Y-110722500D01*
X171192788Y-110764292D01*
X170994876Y-110846270D01*
X170816759Y-110965284D01*
X170665284Y-111116759D01*
X170546270Y-111294876D01*
X170464292Y-111492788D01*
X170422500Y-111702891D01*
X170057500Y-111702891D01*
X170015708Y-111492788D01*
X169933730Y-111294876D01*
X169814716Y-111116759D01*
X169663241Y-110965284D01*
X169485124Y-110846270D01*
X169287212Y-110764292D01*
X169077109Y-110722500D01*
X168862891Y-110722500D01*
X168652788Y-110764292D01*
X168454876Y-110846270D01*
X168276759Y-110965284D01*
X168125284Y-111116759D01*
X168006270Y-111294876D01*
X167924292Y-111492788D01*
X167882500Y-111702891D01*
X147638738Y-111702891D01*
X147633947Y-111691325D01*
X147574183Y-111601882D01*
X147498118Y-111525817D01*
X147496895Y-111525000D01*
X147498118Y-111524183D01*
X147574183Y-111448118D01*
X147633947Y-111358675D01*
X147675113Y-111259291D01*
X147696100Y-111153786D01*
X147696100Y-111046214D01*
X147675113Y-110940709D01*
X147633947Y-110841325D01*
X147574183Y-110751882D01*
X147498118Y-110675817D01*
X147496895Y-110675000D01*
X147498118Y-110674183D01*
X147574183Y-110598118D01*
X147633947Y-110508675D01*
X147675113Y-110409291D01*
X147696100Y-110303786D01*
X147696100Y-110196214D01*
X147675113Y-110090709D01*
X147633947Y-109991325D01*
X147574183Y-109901882D01*
X147498118Y-109825817D01*
X147496895Y-109825000D01*
X147498118Y-109824183D01*
X147574183Y-109748118D01*
X147633947Y-109658675D01*
X147675113Y-109559291D01*
X147696100Y-109453786D01*
X147696100Y-109346214D01*
X147675113Y-109240709D01*
X147642880Y-109162891D01*
X167882500Y-109162891D01*
X167882500Y-109377109D01*
X167924292Y-109587212D01*
X168006270Y-109785124D01*
X168125284Y-109963241D01*
X168276759Y-110114716D01*
X168454876Y-110233730D01*
X168652788Y-110315708D01*
X168862891Y-110357500D01*
X169077109Y-110357500D01*
X169287212Y-110315708D01*
X169485124Y-110233730D01*
X169663241Y-110114716D01*
X169814716Y-109963241D01*
X169933730Y-109785124D01*
X170015708Y-109587212D01*
X170057500Y-109377109D01*
X170057500Y-109162891D01*
X170422500Y-109162891D01*
X170422500Y-109377109D01*
X170464292Y-109587212D01*
X170546270Y-109785124D01*
X170665284Y-109963241D01*
X170816759Y-110114716D01*
X170994876Y-110233730D01*
X171192788Y-110315708D01*
X171402891Y-110357500D01*
X171617109Y-110357500D01*
X171827212Y-110315708D01*
X172025124Y-110233730D01*
X172203241Y-110114716D01*
X172354716Y-109963241D01*
X172473730Y-109785124D01*
X172555708Y-109587212D01*
X172597500Y-109377109D01*
X172597500Y-109162891D01*
X172555708Y-108952788D01*
X172473730Y-108754876D01*
X172354716Y-108576759D01*
X172203241Y-108425284D01*
X172025124Y-108306270D01*
X171827212Y-108224292D01*
X171617109Y-108182500D01*
X171402891Y-108182500D01*
X171192788Y-108224292D01*
X170994876Y-108306270D01*
X170816759Y-108425284D01*
X170665284Y-108576759D01*
X170546270Y-108754876D01*
X170464292Y-108952788D01*
X170422500Y-109162891D01*
X170057500Y-109162891D01*
X170015708Y-108952788D01*
X169933730Y-108754876D01*
X169814716Y-108576759D01*
X169663241Y-108425284D01*
X169485124Y-108306270D01*
X169287212Y-108224292D01*
X169077109Y-108182500D01*
X168862891Y-108182500D01*
X168652788Y-108224292D01*
X168454876Y-108306270D01*
X168276759Y-108425284D01*
X168125284Y-108576759D01*
X168006270Y-108754876D01*
X167924292Y-108952788D01*
X167882500Y-109162891D01*
X147642880Y-109162891D01*
X147633947Y-109141325D01*
X147574183Y-109051882D01*
X147498118Y-108975817D01*
X147408675Y-108916053D01*
X147309291Y-108874887D01*
X147203786Y-108853900D01*
X147096214Y-108853900D01*
X146990709Y-108874887D01*
X146891325Y-108916053D01*
X146801882Y-108975817D01*
X146725817Y-109051882D01*
X146666053Y-109141325D01*
X146650000Y-109180081D01*
X146633947Y-109141325D01*
X146574183Y-109051882D01*
X146498118Y-108975817D01*
X146408675Y-108916053D01*
X146309291Y-108874887D01*
X146203786Y-108853900D01*
X146096214Y-108853900D01*
X145990709Y-108874887D01*
X145891325Y-108916053D01*
X145801882Y-108975817D01*
X145725817Y-109051882D01*
X145666053Y-109141325D01*
X145624887Y-109240709D01*
X145603900Y-109346214D01*
X142037660Y-109346214D01*
X142046100Y-109303786D01*
X142046100Y-109196214D01*
X142025113Y-109090709D01*
X141983947Y-108991325D01*
X141924183Y-108901882D01*
X141848118Y-108825817D01*
X141758675Y-108766053D01*
X141659291Y-108724887D01*
X141553786Y-108703900D01*
X141546100Y-108703900D01*
X141546100Y-108696214D01*
X141525113Y-108590709D01*
X141483947Y-108491325D01*
X141424183Y-108401882D01*
X141348118Y-108325817D01*
X141258675Y-108266053D01*
X141159291Y-108224887D01*
X141053786Y-108203900D01*
X140946214Y-108203900D01*
X140840709Y-108224887D01*
X140741325Y-108266053D01*
X140651882Y-108325817D01*
X140639194Y-108338505D01*
X140646100Y-108303786D01*
X140646100Y-108196214D01*
X140625113Y-108090709D01*
X140583947Y-107991325D01*
X140524183Y-107901882D01*
X140448118Y-107825817D01*
X140358675Y-107766053D01*
X140259291Y-107724887D01*
X140153786Y-107703900D01*
X140046214Y-107703900D01*
X139940709Y-107724887D01*
X139841325Y-107766053D01*
X139751882Y-107825817D01*
X139675817Y-107901882D01*
X139616053Y-107991325D01*
X139574887Y-108090709D01*
X139553900Y-108196214D01*
X132842500Y-108196214D01*
X132842500Y-106696214D01*
X145103900Y-106696214D01*
X145103900Y-106803786D01*
X145124887Y-106909291D01*
X145166053Y-107008675D01*
X145225817Y-107098118D01*
X145301882Y-107174183D01*
X145391325Y-107233947D01*
X145490709Y-107275113D01*
X145596214Y-107296100D01*
X145703786Y-107296100D01*
X145809291Y-107275113D01*
X145908675Y-107233947D01*
X145965146Y-107196214D01*
X150953900Y-107196214D01*
X150953900Y-107303786D01*
X150974887Y-107409291D01*
X151016053Y-107508675D01*
X151075817Y-107598118D01*
X151151882Y-107674183D01*
X151241325Y-107733947D01*
X151340709Y-107775113D01*
X151446214Y-107796100D01*
X151553786Y-107796100D01*
X151553900Y-107796077D01*
X151553900Y-107803786D01*
X151574887Y-107909291D01*
X151616053Y-108008675D01*
X151675817Y-108098118D01*
X151751882Y-108174183D01*
X151841325Y-108233947D01*
X151940709Y-108275113D01*
X152046214Y-108296100D01*
X152153786Y-108296100D01*
X152259291Y-108275113D01*
X152358675Y-108233947D01*
X152448118Y-108174183D01*
X152524183Y-108098118D01*
X152583947Y-108008675D01*
X152625113Y-107909291D01*
X152646100Y-107803786D01*
X152646100Y-107696214D01*
X152625113Y-107590709D01*
X152583947Y-107491325D01*
X152524183Y-107401882D01*
X152448118Y-107325817D01*
X152358675Y-107266053D01*
X152319919Y-107250000D01*
X152358675Y-107233947D01*
X152448118Y-107174183D01*
X152524183Y-107098118D01*
X152583947Y-107008675D01*
X152625113Y-106909291D01*
X152646100Y-106803786D01*
X152646100Y-106696214D01*
X152631515Y-106622891D01*
X167882500Y-106622891D01*
X167882500Y-106837109D01*
X167924292Y-107047212D01*
X168006270Y-107245124D01*
X168125284Y-107423241D01*
X168276759Y-107574716D01*
X168454876Y-107693730D01*
X168652788Y-107775708D01*
X168862891Y-107817500D01*
X169077109Y-107817500D01*
X169287212Y-107775708D01*
X169485124Y-107693730D01*
X169663241Y-107574716D01*
X169814716Y-107423241D01*
X169933730Y-107245124D01*
X170015708Y-107047212D01*
X170057500Y-106837109D01*
X170057500Y-106622891D01*
X170422500Y-106622891D01*
X170422500Y-106837109D01*
X170464292Y-107047212D01*
X170546270Y-107245124D01*
X170665284Y-107423241D01*
X170816759Y-107574716D01*
X170994876Y-107693730D01*
X171192788Y-107775708D01*
X171402891Y-107817500D01*
X171617109Y-107817500D01*
X171827212Y-107775708D01*
X172025124Y-107693730D01*
X172203241Y-107574716D01*
X172354716Y-107423241D01*
X172473730Y-107245124D01*
X172555708Y-107047212D01*
X172597500Y-106837109D01*
X172597500Y-106622891D01*
X172555708Y-106412788D01*
X172473730Y-106214876D01*
X172354716Y-106036759D01*
X172203241Y-105885284D01*
X172025124Y-105766270D01*
X171827212Y-105684292D01*
X171617109Y-105642500D01*
X171402891Y-105642500D01*
X171192788Y-105684292D01*
X170994876Y-105766270D01*
X170816759Y-105885284D01*
X170665284Y-106036759D01*
X170546270Y-106214876D01*
X170464292Y-106412788D01*
X170422500Y-106622891D01*
X170057500Y-106622891D01*
X170015708Y-106412788D01*
X169933730Y-106214876D01*
X169814716Y-106036759D01*
X169663241Y-105885284D01*
X169485124Y-105766270D01*
X169287212Y-105684292D01*
X169077109Y-105642500D01*
X168862891Y-105642500D01*
X168652788Y-105684292D01*
X168454876Y-105766270D01*
X168276759Y-105885284D01*
X168125284Y-106036759D01*
X168006270Y-106214876D01*
X167924292Y-106412788D01*
X167882500Y-106622891D01*
X152631515Y-106622891D01*
X152625113Y-106590709D01*
X152583947Y-106491325D01*
X152524183Y-106401882D01*
X152448118Y-106325817D01*
X152358675Y-106266053D01*
X152259291Y-106224887D01*
X152153786Y-106203900D01*
X152046214Y-106203900D01*
X151940709Y-106224887D01*
X151841325Y-106266053D01*
X151751882Y-106325817D01*
X151675817Y-106401882D01*
X151616053Y-106491325D01*
X151574887Y-106590709D01*
X151553900Y-106696214D01*
X151553900Y-106703923D01*
X151553786Y-106703900D01*
X151446214Y-106703900D01*
X151340709Y-106724887D01*
X151241325Y-106766053D01*
X151151882Y-106825817D01*
X151075817Y-106901882D01*
X151016053Y-106991325D01*
X150974887Y-107090709D01*
X150953900Y-107196214D01*
X145965146Y-107196214D01*
X145998118Y-107174183D01*
X146074183Y-107098118D01*
X146133947Y-107008675D01*
X146175113Y-106909291D01*
X146196100Y-106803786D01*
X146196100Y-106696214D01*
X146175113Y-106590709D01*
X146133947Y-106491325D01*
X146074183Y-106401882D01*
X145998118Y-106325817D01*
X145908675Y-106266053D01*
X145809291Y-106224887D01*
X145703786Y-106203900D01*
X145596214Y-106203900D01*
X145490709Y-106224887D01*
X145391325Y-106266053D01*
X145301882Y-106325817D01*
X145225817Y-106401882D01*
X145166053Y-106491325D01*
X145124887Y-106590709D01*
X145103900Y-106696214D01*
X132842500Y-106696214D01*
X132842500Y-104696214D01*
X142603900Y-104696214D01*
X142603900Y-104803786D01*
X142624887Y-104909291D01*
X142666053Y-105008675D01*
X142725817Y-105098118D01*
X142801882Y-105174183D01*
X142891325Y-105233947D01*
X142930081Y-105250000D01*
X142891325Y-105266053D01*
X142801882Y-105325817D01*
X142725817Y-105401882D01*
X142666053Y-105491325D01*
X142624887Y-105590709D01*
X142603900Y-105696214D01*
X142603900Y-105803786D01*
X142624887Y-105909291D01*
X142666053Y-106008675D01*
X142725817Y-106098118D01*
X142801882Y-106174183D01*
X142891325Y-106233947D01*
X142990709Y-106275113D01*
X143096214Y-106296100D01*
X143203786Y-106296100D01*
X143309291Y-106275113D01*
X143408675Y-106233947D01*
X143498118Y-106174183D01*
X143574183Y-106098118D01*
X143633947Y-106008675D01*
X143675113Y-105909291D01*
X143696100Y-105803786D01*
X143696100Y-105696214D01*
X143675113Y-105590709D01*
X143633947Y-105491325D01*
X143574183Y-105401882D01*
X143498118Y-105325817D01*
X143408675Y-105266053D01*
X143369919Y-105250000D01*
X143408675Y-105233947D01*
X143498118Y-105174183D01*
X143525000Y-105147301D01*
X143551882Y-105174183D01*
X143641325Y-105233947D01*
X143740709Y-105275113D01*
X143846214Y-105296100D01*
X143953786Y-105296100D01*
X144059291Y-105275113D01*
X144158675Y-105233947D01*
X144248118Y-105174183D01*
X144275000Y-105147301D01*
X144301882Y-105174183D01*
X144391325Y-105233947D01*
X144430081Y-105250000D01*
X144391325Y-105266053D01*
X144301882Y-105325817D01*
X144225817Y-105401882D01*
X144166053Y-105491325D01*
X144124887Y-105590709D01*
X144103900Y-105696214D01*
X144103900Y-105803786D01*
X144124887Y-105909291D01*
X144166053Y-106008675D01*
X144225817Y-106098118D01*
X144301882Y-106174183D01*
X144391325Y-106233947D01*
X144490709Y-106275113D01*
X144596214Y-106296100D01*
X144703786Y-106296100D01*
X144809291Y-106275113D01*
X144908675Y-106233947D01*
X144965146Y-106196214D01*
X146103900Y-106196214D01*
X146103900Y-106303786D01*
X146124887Y-106409291D01*
X146166053Y-106508675D01*
X146225817Y-106598118D01*
X146301882Y-106674183D01*
X146391325Y-106733947D01*
X146490709Y-106775113D01*
X146596214Y-106796100D01*
X146703786Y-106796100D01*
X146809291Y-106775113D01*
X146908675Y-106733947D01*
X146998118Y-106674183D01*
X147074183Y-106598118D01*
X147133947Y-106508675D01*
X147175113Y-106409291D01*
X147196100Y-106303786D01*
X147196100Y-106196214D01*
X147175113Y-106090709D01*
X147133947Y-105991325D01*
X147074183Y-105901882D01*
X146998118Y-105825817D01*
X146908675Y-105766053D01*
X146809291Y-105724887D01*
X146703786Y-105703900D01*
X146596214Y-105703900D01*
X146490709Y-105724887D01*
X146391325Y-105766053D01*
X146301882Y-105825817D01*
X146225817Y-105901882D01*
X146166053Y-105991325D01*
X146124887Y-106090709D01*
X146103900Y-106196214D01*
X144965146Y-106196214D01*
X144998118Y-106174183D01*
X145074183Y-106098118D01*
X145133947Y-106008675D01*
X145175113Y-105909291D01*
X145196100Y-105803786D01*
X145196100Y-105696214D01*
X145175113Y-105590709D01*
X145133947Y-105491325D01*
X145074183Y-105401882D01*
X144998118Y-105325817D01*
X144908675Y-105266053D01*
X144869919Y-105250000D01*
X144908675Y-105233947D01*
X144965146Y-105196214D01*
X147603900Y-105196214D01*
X147603900Y-105303786D01*
X147624887Y-105409291D01*
X147666053Y-105508675D01*
X147725817Y-105598118D01*
X147801882Y-105674183D01*
X147891325Y-105733947D01*
X147990709Y-105775113D01*
X148096214Y-105796100D01*
X148203786Y-105796100D01*
X148309291Y-105775113D01*
X148408675Y-105733947D01*
X148498118Y-105674183D01*
X148574183Y-105598118D01*
X148633947Y-105508675D01*
X148675113Y-105409291D01*
X148696100Y-105303786D01*
X148696100Y-105196214D01*
X148675113Y-105090709D01*
X148633947Y-104991325D01*
X148574183Y-104901882D01*
X148498118Y-104825817D01*
X148408675Y-104766053D01*
X148309291Y-104724887D01*
X148203786Y-104703900D01*
X148096214Y-104703900D01*
X147990709Y-104724887D01*
X147891325Y-104766053D01*
X147801882Y-104825817D01*
X147725817Y-104901882D01*
X147666053Y-104991325D01*
X147624887Y-105090709D01*
X147603900Y-105196214D01*
X144965146Y-105196214D01*
X144998118Y-105174183D01*
X145074183Y-105098118D01*
X145133947Y-105008675D01*
X145175113Y-104909291D01*
X145196100Y-104803786D01*
X145196100Y-104696214D01*
X145175113Y-104590709D01*
X145133947Y-104491325D01*
X145074183Y-104401882D01*
X144998118Y-104325817D01*
X144908675Y-104266053D01*
X144809291Y-104224887D01*
X144703786Y-104203900D01*
X144596214Y-104203900D01*
X144490709Y-104224887D01*
X144391325Y-104266053D01*
X144301882Y-104325817D01*
X144275000Y-104352699D01*
X144248118Y-104325817D01*
X144158675Y-104266053D01*
X144059291Y-104224887D01*
X143953786Y-104203900D01*
X143846214Y-104203900D01*
X143740709Y-104224887D01*
X143641325Y-104266053D01*
X143551882Y-104325817D01*
X143525000Y-104352699D01*
X143498118Y-104325817D01*
X143408675Y-104266053D01*
X143309291Y-104224887D01*
X143203786Y-104203900D01*
X143096214Y-104203900D01*
X142990709Y-104224887D01*
X142891325Y-104266053D01*
X142801882Y-104325817D01*
X142725817Y-104401882D01*
X142666053Y-104491325D01*
X142624887Y-104590709D01*
X142603900Y-104696214D01*
X132842500Y-104696214D01*
X132842500Y-104035797D01*
X134014006Y-104035797D01*
X134154492Y-104246831D01*
X134430358Y-104394090D01*
X134729653Y-104484701D01*
X135040875Y-104515181D01*
X135352062Y-104484360D01*
X135651258Y-104393420D01*
X135925508Y-104246831D01*
X135992489Y-104146214D01*
X152553900Y-104146214D01*
X152553900Y-104253786D01*
X152574887Y-104359291D01*
X152616053Y-104458675D01*
X152675817Y-104548118D01*
X152751882Y-104624183D01*
X152841325Y-104683947D01*
X152940709Y-104725113D01*
X153046214Y-104746100D01*
X153153786Y-104746100D01*
X153259291Y-104725113D01*
X153358675Y-104683947D01*
X153448118Y-104624183D01*
X153524183Y-104548118D01*
X153583947Y-104458675D01*
X153625113Y-104359291D01*
X153646100Y-104253786D01*
X153646100Y-104146214D01*
X155553900Y-104146214D01*
X155553900Y-104253786D01*
X155574887Y-104359291D01*
X155616053Y-104458675D01*
X155675817Y-104548118D01*
X155751882Y-104624183D01*
X155841325Y-104683947D01*
X155940709Y-104725113D01*
X156046214Y-104746100D01*
X156153786Y-104746100D01*
X156259291Y-104725113D01*
X156358675Y-104683947D01*
X156448118Y-104624183D01*
X156524183Y-104548118D01*
X156583947Y-104458675D01*
X156625113Y-104359291D01*
X156646100Y-104253786D01*
X156646100Y-104146214D01*
X156633504Y-104082891D01*
X167882500Y-104082891D01*
X167882500Y-104297109D01*
X167924292Y-104507212D01*
X168006270Y-104705124D01*
X168125284Y-104883241D01*
X168276759Y-105034716D01*
X168454876Y-105153730D01*
X168652788Y-105235708D01*
X168862891Y-105277500D01*
X169077109Y-105277500D01*
X169287212Y-105235708D01*
X169485124Y-105153730D01*
X169663241Y-105034716D01*
X169814716Y-104883241D01*
X169933730Y-104705124D01*
X170015708Y-104507212D01*
X170057500Y-104297109D01*
X170057500Y-104082891D01*
X170422500Y-104082891D01*
X170422500Y-104297109D01*
X170464292Y-104507212D01*
X170546270Y-104705124D01*
X170665284Y-104883241D01*
X170816759Y-105034716D01*
X170994876Y-105153730D01*
X171192788Y-105235708D01*
X171402891Y-105277500D01*
X171617109Y-105277500D01*
X171827212Y-105235708D01*
X172025124Y-105153730D01*
X172203241Y-105034716D01*
X172354716Y-104883241D01*
X172473730Y-104705124D01*
X172555708Y-104507212D01*
X172597500Y-104297109D01*
X172597500Y-104082891D01*
X172588133Y-104035797D01*
X173934006Y-104035797D01*
X174074492Y-104246831D01*
X174350358Y-104394090D01*
X174649653Y-104484701D01*
X174960875Y-104515181D01*
X175272062Y-104484360D01*
X175571258Y-104393420D01*
X175845508Y-104246831D01*
X175985994Y-104035797D01*
X174960000Y-103009803D01*
X173934006Y-104035797D01*
X172588133Y-104035797D01*
X172555708Y-103872788D01*
X172473730Y-103674876D01*
X172354716Y-103496759D01*
X172203241Y-103345284D01*
X172025124Y-103226270D01*
X171827212Y-103144292D01*
X171617109Y-103102500D01*
X171402891Y-103102500D01*
X171192788Y-103144292D01*
X170994876Y-103226270D01*
X170816759Y-103345284D01*
X170665284Y-103496759D01*
X170546270Y-103674876D01*
X170464292Y-103872788D01*
X170422500Y-104082891D01*
X170057500Y-104082891D01*
X170015708Y-103872788D01*
X169933730Y-103674876D01*
X169814716Y-103496759D01*
X169663241Y-103345284D01*
X169485124Y-103226270D01*
X169287212Y-103144292D01*
X169077109Y-103102500D01*
X168862891Y-103102500D01*
X168652788Y-103144292D01*
X168454876Y-103226270D01*
X168276759Y-103345284D01*
X168125284Y-103496759D01*
X168006270Y-103674876D01*
X167924292Y-103872788D01*
X167882500Y-104082891D01*
X156633504Y-104082891D01*
X156625113Y-104040709D01*
X156583947Y-103941325D01*
X156524183Y-103851882D01*
X156448118Y-103775817D01*
X156358675Y-103716053D01*
X156259291Y-103674887D01*
X156153786Y-103653900D01*
X156046214Y-103653900D01*
X155940709Y-103674887D01*
X155841325Y-103716053D01*
X155751882Y-103775817D01*
X155675817Y-103851882D01*
X155616053Y-103941325D01*
X155574887Y-104040709D01*
X155553900Y-104146214D01*
X153646100Y-104146214D01*
X153625113Y-104040709D01*
X153583947Y-103941325D01*
X153524183Y-103851882D01*
X153448118Y-103775817D01*
X153358675Y-103716053D01*
X153259291Y-103674887D01*
X153153786Y-103653900D01*
X153046214Y-103653900D01*
X152940709Y-103674887D01*
X152841325Y-103716053D01*
X152751882Y-103775817D01*
X152675817Y-103851882D01*
X152616053Y-103941325D01*
X152574887Y-104040709D01*
X152553900Y-104146214D01*
X135992489Y-104146214D01*
X136065994Y-104035797D01*
X135040000Y-103009803D01*
X134014006Y-104035797D01*
X132842500Y-104035797D01*
X132842500Y-102920875D01*
X133444819Y-102920875D01*
X133475640Y-103232062D01*
X133566580Y-103531258D01*
X133713169Y-103805508D01*
X133924203Y-103945994D01*
X134950197Y-102920000D01*
X135129803Y-102920000D01*
X136155797Y-103945994D01*
X136366831Y-103805508D01*
X136514090Y-103529642D01*
X136604701Y-103230347D01*
X136635009Y-102920875D01*
X173364819Y-102920875D01*
X173395640Y-103232062D01*
X173486580Y-103531258D01*
X173633169Y-103805508D01*
X173844203Y-103945994D01*
X174870197Y-102920000D01*
X175049803Y-102920000D01*
X176075797Y-103945994D01*
X176286831Y-103805508D01*
X176434090Y-103529642D01*
X176524701Y-103230347D01*
X176555181Y-102919125D01*
X176524360Y-102607938D01*
X176433420Y-102308742D01*
X176286831Y-102034492D01*
X176075797Y-101894006D01*
X175049803Y-102920000D01*
X174870197Y-102920000D01*
X173844203Y-101894006D01*
X173633169Y-102034492D01*
X173485910Y-102310358D01*
X173395299Y-102609653D01*
X173364819Y-102920875D01*
X136635009Y-102920875D01*
X136635181Y-102919125D01*
X136604360Y-102607938D01*
X136513420Y-102308742D01*
X136366831Y-102034492D01*
X136155797Y-101894006D01*
X135129803Y-102920000D01*
X134950197Y-102920000D01*
X133924203Y-101894006D01*
X133713169Y-102034492D01*
X133565910Y-102310358D01*
X133475299Y-102609653D01*
X133444819Y-102920875D01*
X132842500Y-102920875D01*
X132842500Y-101804203D01*
X134014006Y-101804203D01*
X135040000Y-102830197D01*
X136065994Y-101804203D01*
X135925508Y-101593169D01*
X135831321Y-101542891D01*
X167882500Y-101542891D01*
X167882500Y-101757109D01*
X167924292Y-101967212D01*
X168006270Y-102165124D01*
X168125284Y-102343241D01*
X168276759Y-102494716D01*
X168454876Y-102613730D01*
X168652788Y-102695708D01*
X168862891Y-102737500D01*
X169077109Y-102737500D01*
X169287212Y-102695708D01*
X169485124Y-102613730D01*
X169663241Y-102494716D01*
X169814716Y-102343241D01*
X169933730Y-102165124D01*
X170015708Y-101967212D01*
X170057500Y-101757109D01*
X170057500Y-101542891D01*
X170422500Y-101542891D01*
X170422500Y-101757109D01*
X170464292Y-101967212D01*
X170546270Y-102165124D01*
X170665284Y-102343241D01*
X170816759Y-102494716D01*
X170994876Y-102613730D01*
X171192788Y-102695708D01*
X171402891Y-102737500D01*
X171617109Y-102737500D01*
X171827212Y-102695708D01*
X172025124Y-102613730D01*
X172203241Y-102494716D01*
X172354716Y-102343241D01*
X172473730Y-102165124D01*
X172555708Y-101967212D01*
X172588132Y-101804203D01*
X173934006Y-101804203D01*
X174960000Y-102830197D01*
X175985994Y-101804203D01*
X175845508Y-101593169D01*
X175569642Y-101445910D01*
X175270347Y-101355299D01*
X174959125Y-101324819D01*
X174647938Y-101355640D01*
X174348742Y-101446580D01*
X174074492Y-101593169D01*
X173934006Y-101804203D01*
X172588132Y-101804203D01*
X172597500Y-101757109D01*
X172597500Y-101542891D01*
X172555708Y-101332788D01*
X172473730Y-101134876D01*
X172354716Y-100956759D01*
X172203241Y-100805284D01*
X172025124Y-100686270D01*
X171827212Y-100604292D01*
X171617109Y-100562500D01*
X171402891Y-100562500D01*
X171192788Y-100604292D01*
X170994876Y-100686270D01*
X170816759Y-100805284D01*
X170665284Y-100956759D01*
X170546270Y-101134876D01*
X170464292Y-101332788D01*
X170422500Y-101542891D01*
X170057500Y-101542891D01*
X170015708Y-101332788D01*
X169933730Y-101134876D01*
X169814716Y-100956759D01*
X169663241Y-100805284D01*
X169485124Y-100686270D01*
X169287212Y-100604292D01*
X169077109Y-100562500D01*
X168862891Y-100562500D01*
X168652788Y-100604292D01*
X168454876Y-100686270D01*
X168276759Y-100805284D01*
X168125284Y-100956759D01*
X168006270Y-101134876D01*
X167924292Y-101332788D01*
X167882500Y-101542891D01*
X135831321Y-101542891D01*
X135649642Y-101445910D01*
X135350347Y-101355299D01*
X135039125Y-101324819D01*
X134727938Y-101355640D01*
X134428742Y-101446580D01*
X134154492Y-101593169D01*
X134014006Y-101804203D01*
X132842500Y-101804203D01*
X132842500Y-99846214D01*
X138953900Y-99846214D01*
X138953900Y-99953786D01*
X138974887Y-100059291D01*
X139016053Y-100158675D01*
X139075817Y-100248118D01*
X139151882Y-100324183D01*
X139241325Y-100383947D01*
X139340709Y-100425113D01*
X139446214Y-100446100D01*
X139553786Y-100446100D01*
X139659291Y-100425113D01*
X139758675Y-100383947D01*
X139848118Y-100324183D01*
X139924183Y-100248118D01*
X139983947Y-100158675D01*
X140025113Y-100059291D01*
X140046100Y-99953786D01*
X140046100Y-99846214D01*
X147753900Y-99846214D01*
X147753900Y-99953786D01*
X147774887Y-100059291D01*
X147816053Y-100158675D01*
X147875817Y-100248118D01*
X147951882Y-100324183D01*
X148041325Y-100383947D01*
X148140709Y-100425113D01*
X148246214Y-100446100D01*
X148353786Y-100446100D01*
X148459291Y-100425113D01*
X148558675Y-100383947D01*
X148648118Y-100324183D01*
X148724183Y-100248118D01*
X148783947Y-100158675D01*
X148825113Y-100059291D01*
X148846100Y-99953786D01*
X148846100Y-99846214D01*
X148825113Y-99740709D01*
X148783947Y-99641325D01*
X148724183Y-99551882D01*
X148648118Y-99475817D01*
X148558675Y-99416053D01*
X148459291Y-99374887D01*
X148353786Y-99353900D01*
X148246214Y-99353900D01*
X148140709Y-99374887D01*
X148041325Y-99416053D01*
X147951882Y-99475817D01*
X147875817Y-99551882D01*
X147816053Y-99641325D01*
X147774887Y-99740709D01*
X147753900Y-99846214D01*
X140046100Y-99846214D01*
X140025113Y-99740709D01*
X139983947Y-99641325D01*
X139924183Y-99551882D01*
X139848118Y-99475817D01*
X139758675Y-99416053D01*
X139659291Y-99374887D01*
X139553786Y-99353900D01*
X139446214Y-99353900D01*
X139340709Y-99374887D01*
X139241325Y-99416053D01*
X139151882Y-99475817D01*
X139075817Y-99551882D01*
X139016053Y-99641325D01*
X138974887Y-99740709D01*
X138953900Y-99846214D01*
X132842500Y-99846214D01*
X132842500Y-99351214D01*
X167653900Y-99351214D01*
X167653900Y-99458786D01*
X167674887Y-99564291D01*
X167716053Y-99663675D01*
X167775817Y-99753118D01*
X167851882Y-99829183D01*
X167941325Y-99888947D01*
X168040709Y-99930113D01*
X168146214Y-99951100D01*
X168253786Y-99951100D01*
X168359291Y-99930113D01*
X168458675Y-99888947D01*
X168548118Y-99829183D01*
X168624183Y-99753118D01*
X168683947Y-99663675D01*
X168725113Y-99564291D01*
X168746100Y-99458786D01*
X168746100Y-99351214D01*
X168725113Y-99245709D01*
X168683947Y-99146325D01*
X168624183Y-99056882D01*
X168548118Y-98980817D01*
X168458675Y-98921053D01*
X168359291Y-98879887D01*
X168253786Y-98858900D01*
X168146214Y-98858900D01*
X168040709Y-98879887D01*
X167941325Y-98921053D01*
X167851882Y-98980817D01*
X167775817Y-99056882D01*
X167716053Y-99146325D01*
X167674887Y-99245709D01*
X167653900Y-99351214D01*
X132842500Y-99351214D01*
X132842500Y-98081214D01*
X157653900Y-98081214D01*
X157653900Y-98188786D01*
X157674887Y-98294291D01*
X157716053Y-98393675D01*
X157775817Y-98483118D01*
X157851882Y-98559183D01*
X157941325Y-98618947D01*
X158040709Y-98660113D01*
X158146214Y-98681100D01*
X158253786Y-98681100D01*
X158359291Y-98660113D01*
X158458675Y-98618947D01*
X158548118Y-98559183D01*
X158624183Y-98483118D01*
X158683947Y-98393675D01*
X158725113Y-98294291D01*
X158746100Y-98188786D01*
X158746100Y-98081214D01*
X167653900Y-98081214D01*
X167653900Y-98188786D01*
X167674887Y-98294291D01*
X167716053Y-98393675D01*
X167775817Y-98483118D01*
X167851882Y-98559183D01*
X167941325Y-98618947D01*
X168040709Y-98660113D01*
X168146214Y-98681100D01*
X168253786Y-98681100D01*
X168359291Y-98660113D01*
X168458675Y-98618947D01*
X168548118Y-98559183D01*
X168624183Y-98483118D01*
X168683947Y-98393675D01*
X168725113Y-98294291D01*
X168746100Y-98188786D01*
X168746100Y-98081214D01*
X168725113Y-97975709D01*
X168683947Y-97876325D01*
X168624183Y-97786882D01*
X168548118Y-97710817D01*
X168458675Y-97651053D01*
X168359291Y-97609887D01*
X168253786Y-97588900D01*
X168146214Y-97588900D01*
X168040709Y-97609887D01*
X167941325Y-97651053D01*
X167851882Y-97710817D01*
X167775817Y-97786882D01*
X167716053Y-97876325D01*
X167674887Y-97975709D01*
X167653900Y-98081214D01*
X158746100Y-98081214D01*
X158725113Y-97975709D01*
X158683947Y-97876325D01*
X158624183Y-97786882D01*
X158548118Y-97710817D01*
X158458675Y-97651053D01*
X158359291Y-97609887D01*
X158253786Y-97588900D01*
X158146214Y-97588900D01*
X158040709Y-97609887D01*
X157941325Y-97651053D01*
X157851882Y-97710817D01*
X157775817Y-97786882D01*
X157716053Y-97876325D01*
X157674887Y-97975709D01*
X157653900Y-98081214D01*
X132842500Y-98081214D01*
X132842500Y-96811214D01*
X157653900Y-96811214D01*
X157653900Y-96918786D01*
X157674887Y-97024291D01*
X157716053Y-97123675D01*
X157775817Y-97213118D01*
X157851882Y-97289183D01*
X157941325Y-97348947D01*
X158040709Y-97390113D01*
X158146214Y-97411100D01*
X158253786Y-97411100D01*
X158359291Y-97390113D01*
X158458675Y-97348947D01*
X158548118Y-97289183D01*
X158624183Y-97213118D01*
X158683947Y-97123675D01*
X158725113Y-97024291D01*
X158746100Y-96918786D01*
X158746100Y-96811214D01*
X167653900Y-96811214D01*
X167653900Y-96918786D01*
X167674887Y-97024291D01*
X167716053Y-97123675D01*
X167775817Y-97213118D01*
X167851882Y-97289183D01*
X167941325Y-97348947D01*
X168040709Y-97390113D01*
X168146214Y-97411100D01*
X168253786Y-97411100D01*
X168359291Y-97390113D01*
X168458675Y-97348947D01*
X168548118Y-97289183D01*
X168624183Y-97213118D01*
X168683947Y-97123675D01*
X168725113Y-97024291D01*
X168746100Y-96918786D01*
X168746100Y-96811214D01*
X168725113Y-96705709D01*
X168683947Y-96606325D01*
X168624183Y-96516882D01*
X168548118Y-96440817D01*
X168458675Y-96381053D01*
X168359291Y-96339887D01*
X168253786Y-96318900D01*
X168146214Y-96318900D01*
X168040709Y-96339887D01*
X167941325Y-96381053D01*
X167851882Y-96440817D01*
X167775817Y-96516882D01*
X167716053Y-96606325D01*
X167674887Y-96705709D01*
X167653900Y-96811214D01*
X158746100Y-96811214D01*
X158725113Y-96705709D01*
X158683947Y-96606325D01*
X158624183Y-96516882D01*
X158548118Y-96440817D01*
X158458675Y-96381053D01*
X158359291Y-96339887D01*
X158253786Y-96318900D01*
X158146214Y-96318900D01*
X158040709Y-96339887D01*
X157941325Y-96381053D01*
X157851882Y-96440817D01*
X157775817Y-96516882D01*
X157716053Y-96606325D01*
X157674887Y-96705709D01*
X157653900Y-96811214D01*
X132842500Y-96811214D01*
X132842500Y-95546214D01*
X167653900Y-95546214D01*
X167653900Y-95653786D01*
X167674887Y-95759291D01*
X167716053Y-95858675D01*
X167775817Y-95948118D01*
X167851882Y-96024183D01*
X167941325Y-96083947D01*
X168040709Y-96125113D01*
X168146214Y-96146100D01*
X168253786Y-96146100D01*
X168359291Y-96125113D01*
X168458675Y-96083947D01*
X168548118Y-96024183D01*
X168624183Y-95948118D01*
X168683947Y-95858675D01*
X168725113Y-95759291D01*
X168746100Y-95653786D01*
X168746100Y-95546214D01*
X168725113Y-95440709D01*
X168683947Y-95341325D01*
X168624183Y-95251882D01*
X168548118Y-95175817D01*
X168458675Y-95116053D01*
X168359291Y-95074887D01*
X168253786Y-95053900D01*
X168146214Y-95053900D01*
X168040709Y-95074887D01*
X167941325Y-95116053D01*
X167851882Y-95175817D01*
X167775817Y-95251882D01*
X167716053Y-95341325D01*
X167674887Y-95440709D01*
X167653900Y-95546214D01*
X132842500Y-95546214D01*
X132842500Y-91946214D01*
X152553900Y-91946214D01*
X152553900Y-92053786D01*
X152574887Y-92159291D01*
X152616053Y-92258675D01*
X152675817Y-92348118D01*
X152751882Y-92424183D01*
X152841325Y-92483947D01*
X152940709Y-92525113D01*
X153046214Y-92546100D01*
X153153786Y-92546100D01*
X153259291Y-92525113D01*
X153358675Y-92483947D01*
X153448118Y-92424183D01*
X153524183Y-92348118D01*
X153583947Y-92258675D01*
X153625113Y-92159291D01*
X153646100Y-92053786D01*
X153646100Y-91946214D01*
X153625113Y-91840709D01*
X153583947Y-91741325D01*
X153524183Y-91651882D01*
X153448118Y-91575817D01*
X153358675Y-91516053D01*
X153259291Y-91474887D01*
X153153786Y-91453900D01*
X153046214Y-91453900D01*
X152940709Y-91474887D01*
X152841325Y-91516053D01*
X152751882Y-91575817D01*
X152675817Y-91651882D01*
X152616053Y-91741325D01*
X152574887Y-91840709D01*
X152553900Y-91946214D01*
X132842500Y-91946214D01*
X132842500Y-88842891D01*
X134862500Y-88842891D01*
X134862500Y-89057109D01*
X134904292Y-89267212D01*
X134986270Y-89465124D01*
X135105284Y-89643241D01*
X135256759Y-89794716D01*
X135434876Y-89913730D01*
X135632788Y-89995708D01*
X135842891Y-90037500D01*
X136057109Y-90037500D01*
X136267212Y-89995708D01*
X136465124Y-89913730D01*
X136643241Y-89794716D01*
X136794716Y-89643241D01*
X136913730Y-89465124D01*
X136995708Y-89267212D01*
X137037500Y-89057109D01*
X137037500Y-88842891D01*
X137402500Y-88842891D01*
X137402500Y-89057109D01*
X137444292Y-89267212D01*
X137526270Y-89465124D01*
X137645284Y-89643241D01*
X137796759Y-89794716D01*
X137974876Y-89913730D01*
X138172788Y-89995708D01*
X138382891Y-90037500D01*
X138597109Y-90037500D01*
X138807212Y-89995708D01*
X139005124Y-89913730D01*
X139183241Y-89794716D01*
X139267891Y-89710066D01*
X140359736Y-89710066D01*
X140440149Y-89869893D01*
X140630945Y-89967291D01*
X140837077Y-90025596D01*
X141050622Y-90042566D01*
X141263375Y-90017550D01*
X141467160Y-89951509D01*
X141619851Y-89869893D01*
X141700264Y-89710066D01*
X141030000Y-89039803D01*
X140359736Y-89710066D01*
X139267891Y-89710066D01*
X139334716Y-89643241D01*
X139453730Y-89465124D01*
X139535708Y-89267212D01*
X139577500Y-89057109D01*
X139577500Y-88970622D01*
X139937434Y-88970622D01*
X139962450Y-89183375D01*
X140028491Y-89387160D01*
X140110107Y-89539851D01*
X140269934Y-89620264D01*
X140940197Y-88950000D01*
X141119803Y-88950000D01*
X141790066Y-89620264D01*
X141949893Y-89539851D01*
X142047291Y-89349055D01*
X142105596Y-89142923D01*
X142122566Y-88929378D01*
X142112397Y-88842891D01*
X142482500Y-88842891D01*
X142482500Y-89057109D01*
X142524292Y-89267212D01*
X142606270Y-89465124D01*
X142725284Y-89643241D01*
X142876759Y-89794716D01*
X143054876Y-89913730D01*
X143252788Y-89995708D01*
X143462891Y-90037500D01*
X143677109Y-90037500D01*
X143887212Y-89995708D01*
X144085124Y-89913730D01*
X144263241Y-89794716D01*
X144414716Y-89643241D01*
X144533730Y-89465124D01*
X144615708Y-89267212D01*
X144657500Y-89057109D01*
X144657500Y-88842891D01*
X145022500Y-88842891D01*
X145022500Y-89057109D01*
X145064292Y-89267212D01*
X145146270Y-89465124D01*
X145265284Y-89643241D01*
X145416759Y-89794716D01*
X145594876Y-89913730D01*
X145792788Y-89995708D01*
X146002891Y-90037500D01*
X146217109Y-90037500D01*
X146427212Y-89995708D01*
X146625124Y-89913730D01*
X146803241Y-89794716D01*
X146954716Y-89643241D01*
X147073730Y-89465124D01*
X147155708Y-89267212D01*
X147197500Y-89057109D01*
X147197500Y-88842891D01*
X147562500Y-88842891D01*
X147562500Y-89057109D01*
X147604292Y-89267212D01*
X147686270Y-89465124D01*
X147805284Y-89643241D01*
X147956759Y-89794716D01*
X148134876Y-89913730D01*
X148332788Y-89995708D01*
X148542891Y-90037500D01*
X148757109Y-90037500D01*
X148967212Y-89995708D01*
X149165124Y-89913730D01*
X149343241Y-89794716D01*
X149494716Y-89643241D01*
X149613730Y-89465124D01*
X149695708Y-89267212D01*
X149737500Y-89057109D01*
X149737500Y-88842891D01*
X150102500Y-88842891D01*
X150102500Y-89057109D01*
X150144292Y-89267212D01*
X150226270Y-89465124D01*
X150345284Y-89643241D01*
X150496759Y-89794716D01*
X150674876Y-89913730D01*
X150872788Y-89995708D01*
X151082891Y-90037500D01*
X151297109Y-90037500D01*
X151507212Y-89995708D01*
X151705124Y-89913730D01*
X151883241Y-89794716D01*
X152034716Y-89643241D01*
X152153730Y-89465124D01*
X152235708Y-89267212D01*
X152277500Y-89057109D01*
X152277500Y-88842891D01*
X152642500Y-88842891D01*
X152642500Y-89057109D01*
X152684292Y-89267212D01*
X152766270Y-89465124D01*
X152885284Y-89643241D01*
X153036759Y-89794716D01*
X153214876Y-89913730D01*
X153412788Y-89995708D01*
X153622891Y-90037500D01*
X153837109Y-90037500D01*
X154047212Y-89995708D01*
X154245124Y-89913730D01*
X154423241Y-89794716D01*
X154574716Y-89643241D01*
X154693730Y-89465124D01*
X154775708Y-89267212D01*
X154817500Y-89057109D01*
X154817500Y-88842891D01*
X155182500Y-88842891D01*
X155182500Y-89057109D01*
X155224292Y-89267212D01*
X155306270Y-89465124D01*
X155425284Y-89643241D01*
X155576759Y-89794716D01*
X155754876Y-89913730D01*
X155952788Y-89995708D01*
X156162891Y-90037500D01*
X156377109Y-90037500D01*
X156587212Y-89995708D01*
X156785124Y-89913730D01*
X156963241Y-89794716D01*
X157114716Y-89643241D01*
X157233730Y-89465124D01*
X157315708Y-89267212D01*
X157357500Y-89057109D01*
X157357500Y-88842891D01*
X157722500Y-88842891D01*
X157722500Y-89057109D01*
X157764292Y-89267212D01*
X157846270Y-89465124D01*
X157965284Y-89643241D01*
X158116759Y-89794716D01*
X158294876Y-89913730D01*
X158492788Y-89995708D01*
X158702891Y-90037500D01*
X158917109Y-90037500D01*
X159127212Y-89995708D01*
X159325124Y-89913730D01*
X159503241Y-89794716D01*
X159654716Y-89643241D01*
X159773730Y-89465124D01*
X159855708Y-89267212D01*
X159897500Y-89057109D01*
X159897500Y-88842891D01*
X160262500Y-88842891D01*
X160262500Y-89057109D01*
X160304292Y-89267212D01*
X160386270Y-89465124D01*
X160505284Y-89643241D01*
X160656759Y-89794716D01*
X160834876Y-89913730D01*
X161032788Y-89995708D01*
X161242891Y-90037500D01*
X161457109Y-90037500D01*
X161667212Y-89995708D01*
X161865124Y-89913730D01*
X162043241Y-89794716D01*
X162194716Y-89643241D01*
X162313730Y-89465124D01*
X162395708Y-89267212D01*
X162437500Y-89057109D01*
X162437500Y-88842891D01*
X162802500Y-88842891D01*
X162802500Y-89057109D01*
X162844292Y-89267212D01*
X162926270Y-89465124D01*
X163045284Y-89643241D01*
X163196759Y-89794716D01*
X163374876Y-89913730D01*
X163572788Y-89995708D01*
X163782891Y-90037500D01*
X163997109Y-90037500D01*
X164207212Y-89995708D01*
X164405124Y-89913730D01*
X164583241Y-89794716D01*
X164734716Y-89643241D01*
X164853730Y-89465124D01*
X164935708Y-89267212D01*
X164977500Y-89057109D01*
X164977500Y-88842891D01*
X165342500Y-88842891D01*
X165342500Y-89057109D01*
X165384292Y-89267212D01*
X165466270Y-89465124D01*
X165585284Y-89643241D01*
X165736759Y-89794716D01*
X165914876Y-89913730D01*
X166112788Y-89995708D01*
X166322891Y-90037500D01*
X166537109Y-90037500D01*
X166747212Y-89995708D01*
X166945124Y-89913730D01*
X167123241Y-89794716D01*
X167274716Y-89643241D01*
X167393730Y-89465124D01*
X167475708Y-89267212D01*
X167517500Y-89057109D01*
X167517500Y-88842891D01*
X167882500Y-88842891D01*
X167882500Y-89057109D01*
X167924292Y-89267212D01*
X168006270Y-89465124D01*
X168125284Y-89643241D01*
X168276759Y-89794716D01*
X168454876Y-89913730D01*
X168652788Y-89995708D01*
X168862891Y-90037500D01*
X169077109Y-90037500D01*
X169287212Y-89995708D01*
X169485124Y-89913730D01*
X169663241Y-89794716D01*
X169814716Y-89643241D01*
X169933730Y-89465124D01*
X170015708Y-89267212D01*
X170057500Y-89057109D01*
X170057500Y-88842891D01*
X170422500Y-88842891D01*
X170422500Y-89057109D01*
X170464292Y-89267212D01*
X170546270Y-89465124D01*
X170665284Y-89643241D01*
X170816759Y-89794716D01*
X170994876Y-89913730D01*
X171192788Y-89995708D01*
X171402891Y-90037500D01*
X171617109Y-90037500D01*
X171827212Y-89995708D01*
X172025124Y-89913730D01*
X172203241Y-89794716D01*
X172354716Y-89643241D01*
X172473730Y-89465124D01*
X172555708Y-89267212D01*
X172597500Y-89057109D01*
X172597500Y-88842891D01*
X172962500Y-88842891D01*
X172962500Y-89057109D01*
X173004292Y-89267212D01*
X173086270Y-89465124D01*
X173205284Y-89643241D01*
X173356759Y-89794716D01*
X173534876Y-89913730D01*
X173732788Y-89995708D01*
X173942891Y-90037500D01*
X174157109Y-90037500D01*
X174367212Y-89995708D01*
X174565124Y-89913730D01*
X174743241Y-89794716D01*
X174894716Y-89643241D01*
X175013730Y-89465124D01*
X175095708Y-89267212D01*
X175137500Y-89057109D01*
X175137500Y-88842891D01*
X175095708Y-88632788D01*
X175013730Y-88434876D01*
X174894716Y-88256759D01*
X174743241Y-88105284D01*
X174565124Y-87986270D01*
X174367212Y-87904292D01*
X174157109Y-87862500D01*
X173942891Y-87862500D01*
X173732788Y-87904292D01*
X173534876Y-87986270D01*
X173356759Y-88105284D01*
X173205284Y-88256759D01*
X173086270Y-88434876D01*
X173004292Y-88632788D01*
X172962500Y-88842891D01*
X172597500Y-88842891D01*
X172555708Y-88632788D01*
X172473730Y-88434876D01*
X172354716Y-88256759D01*
X172203241Y-88105284D01*
X172025124Y-87986270D01*
X171827212Y-87904292D01*
X171617109Y-87862500D01*
X171402891Y-87862500D01*
X171192788Y-87904292D01*
X170994876Y-87986270D01*
X170816759Y-88105284D01*
X170665284Y-88256759D01*
X170546270Y-88434876D01*
X170464292Y-88632788D01*
X170422500Y-88842891D01*
X170057500Y-88842891D01*
X170015708Y-88632788D01*
X169933730Y-88434876D01*
X169814716Y-88256759D01*
X169663241Y-88105284D01*
X169485124Y-87986270D01*
X169287212Y-87904292D01*
X169077109Y-87862500D01*
X168862891Y-87862500D01*
X168652788Y-87904292D01*
X168454876Y-87986270D01*
X168276759Y-88105284D01*
X168125284Y-88256759D01*
X168006270Y-88434876D01*
X167924292Y-88632788D01*
X167882500Y-88842891D01*
X167517500Y-88842891D01*
X167475708Y-88632788D01*
X167393730Y-88434876D01*
X167274716Y-88256759D01*
X167123241Y-88105284D01*
X166945124Y-87986270D01*
X166747212Y-87904292D01*
X166537109Y-87862500D01*
X166322891Y-87862500D01*
X166112788Y-87904292D01*
X165914876Y-87986270D01*
X165736759Y-88105284D01*
X165585284Y-88256759D01*
X165466270Y-88434876D01*
X165384292Y-88632788D01*
X165342500Y-88842891D01*
X164977500Y-88842891D01*
X164935708Y-88632788D01*
X164853730Y-88434876D01*
X164734716Y-88256759D01*
X164583241Y-88105284D01*
X164405124Y-87986270D01*
X164207212Y-87904292D01*
X163997109Y-87862500D01*
X163782891Y-87862500D01*
X163572788Y-87904292D01*
X163374876Y-87986270D01*
X163196759Y-88105284D01*
X163045284Y-88256759D01*
X162926270Y-88434876D01*
X162844292Y-88632788D01*
X162802500Y-88842891D01*
X162437500Y-88842891D01*
X162395708Y-88632788D01*
X162313730Y-88434876D01*
X162194716Y-88256759D01*
X162043241Y-88105284D01*
X161865124Y-87986270D01*
X161667212Y-87904292D01*
X161457109Y-87862500D01*
X161242891Y-87862500D01*
X161032788Y-87904292D01*
X160834876Y-87986270D01*
X160656759Y-88105284D01*
X160505284Y-88256759D01*
X160386270Y-88434876D01*
X160304292Y-88632788D01*
X160262500Y-88842891D01*
X159897500Y-88842891D01*
X159855708Y-88632788D01*
X159773730Y-88434876D01*
X159654716Y-88256759D01*
X159503241Y-88105284D01*
X159325124Y-87986270D01*
X159127212Y-87904292D01*
X158917109Y-87862500D01*
X158702891Y-87862500D01*
X158492788Y-87904292D01*
X158294876Y-87986270D01*
X158116759Y-88105284D01*
X157965284Y-88256759D01*
X157846270Y-88434876D01*
X157764292Y-88632788D01*
X157722500Y-88842891D01*
X157357500Y-88842891D01*
X157315708Y-88632788D01*
X157233730Y-88434876D01*
X157114716Y-88256759D01*
X156963241Y-88105284D01*
X156785124Y-87986270D01*
X156587212Y-87904292D01*
X156377109Y-87862500D01*
X156162891Y-87862500D01*
X155952788Y-87904292D01*
X155754876Y-87986270D01*
X155576759Y-88105284D01*
X155425284Y-88256759D01*
X155306270Y-88434876D01*
X155224292Y-88632788D01*
X155182500Y-88842891D01*
X154817500Y-88842891D01*
X154775708Y-88632788D01*
X154693730Y-88434876D01*
X154574716Y-88256759D01*
X154423241Y-88105284D01*
X154245124Y-87986270D01*
X154047212Y-87904292D01*
X153837109Y-87862500D01*
X153622891Y-87862500D01*
X153412788Y-87904292D01*
X153214876Y-87986270D01*
X153036759Y-88105284D01*
X152885284Y-88256759D01*
X152766270Y-88434876D01*
X152684292Y-88632788D01*
X152642500Y-88842891D01*
X152277500Y-88842891D01*
X152235708Y-88632788D01*
X152153730Y-88434876D01*
X152034716Y-88256759D01*
X151883241Y-88105284D01*
X151705124Y-87986270D01*
X151507212Y-87904292D01*
X151297109Y-87862500D01*
X151082891Y-87862500D01*
X150872788Y-87904292D01*
X150674876Y-87986270D01*
X150496759Y-88105284D01*
X150345284Y-88256759D01*
X150226270Y-88434876D01*
X150144292Y-88632788D01*
X150102500Y-88842891D01*
X149737500Y-88842891D01*
X149695708Y-88632788D01*
X149613730Y-88434876D01*
X149494716Y-88256759D01*
X149343241Y-88105284D01*
X149165124Y-87986270D01*
X148967212Y-87904292D01*
X148757109Y-87862500D01*
X148542891Y-87862500D01*
X148332788Y-87904292D01*
X148134876Y-87986270D01*
X147956759Y-88105284D01*
X147805284Y-88256759D01*
X147686270Y-88434876D01*
X147604292Y-88632788D01*
X147562500Y-88842891D01*
X147197500Y-88842891D01*
X147155708Y-88632788D01*
X147073730Y-88434876D01*
X146954716Y-88256759D01*
X146803241Y-88105284D01*
X146625124Y-87986270D01*
X146427212Y-87904292D01*
X146217109Y-87862500D01*
X146002891Y-87862500D01*
X145792788Y-87904292D01*
X145594876Y-87986270D01*
X145416759Y-88105284D01*
X145265284Y-88256759D01*
X145146270Y-88434876D01*
X145064292Y-88632788D01*
X145022500Y-88842891D01*
X144657500Y-88842891D01*
X144615708Y-88632788D01*
X144533730Y-88434876D01*
X144414716Y-88256759D01*
X144263241Y-88105284D01*
X144085124Y-87986270D01*
X143887212Y-87904292D01*
X143677109Y-87862500D01*
X143462891Y-87862500D01*
X143252788Y-87904292D01*
X143054876Y-87986270D01*
X142876759Y-88105284D01*
X142725284Y-88256759D01*
X142606270Y-88434876D01*
X142524292Y-88632788D01*
X142482500Y-88842891D01*
X142112397Y-88842891D01*
X142097550Y-88716625D01*
X142031509Y-88512840D01*
X141949893Y-88360149D01*
X141790066Y-88279736D01*
X141119803Y-88950000D01*
X140940197Y-88950000D01*
X140269934Y-88279736D01*
X140110107Y-88360149D01*
X140012709Y-88550945D01*
X139954404Y-88757077D01*
X139937434Y-88970622D01*
X139577500Y-88970622D01*
X139577500Y-88842891D01*
X139535708Y-88632788D01*
X139453730Y-88434876D01*
X139334716Y-88256759D01*
X139267891Y-88189934D01*
X140359736Y-88189934D01*
X141030000Y-88860197D01*
X141700264Y-88189934D01*
X141619851Y-88030107D01*
X141429055Y-87932709D01*
X141222923Y-87874404D01*
X141009378Y-87857434D01*
X140796625Y-87882450D01*
X140592840Y-87948491D01*
X140440149Y-88030107D01*
X140359736Y-88189934D01*
X139267891Y-88189934D01*
X139183241Y-88105284D01*
X139005124Y-87986270D01*
X138807212Y-87904292D01*
X138597109Y-87862500D01*
X138382891Y-87862500D01*
X138172788Y-87904292D01*
X137974876Y-87986270D01*
X137796759Y-88105284D01*
X137645284Y-88256759D01*
X137526270Y-88434876D01*
X137444292Y-88632788D01*
X137402500Y-88842891D01*
X137037500Y-88842891D01*
X136995708Y-88632788D01*
X136913730Y-88434876D01*
X136794716Y-88256759D01*
X136643241Y-88105284D01*
X136465124Y-87986270D01*
X136267212Y-87904292D01*
X136057109Y-87862500D01*
X135842891Y-87862500D01*
X135632788Y-87904292D01*
X135434876Y-87986270D01*
X135256759Y-88105284D01*
X135105284Y-88256759D01*
X134986270Y-88434876D01*
X134904292Y-88632788D01*
X134862500Y-88842891D01*
X132842500Y-88842891D01*
X132842500Y-88056747D01*
X132885962Y-87613491D01*
X133009828Y-87203225D01*
X133211023Y-86824831D01*
X133481886Y-86492721D01*
X133812090Y-86219553D01*
X134189069Y-86015721D01*
X134598462Y-85888993D01*
X135040810Y-85842500D01*
X174943253Y-85842500D01*
X175386509Y-85885962D01*
G37*
X175386509Y-85885962D02*
X175796775Y-86009828D01*
X176175169Y-86211023D01*
X176507279Y-86481886D01*
X176780447Y-86812090D01*
X176984279Y-87189069D01*
X177111007Y-87598462D01*
X177157500Y-88040810D01*
X177157501Y-127943243D01*
X177114038Y-128386508D01*
X176990172Y-128796775D01*
X176788974Y-129175173D01*
X176518117Y-129507276D01*
X176187910Y-129780447D01*
X175810929Y-129984280D01*
X175401539Y-130111007D01*
X174959190Y-130157500D01*
X135056747Y-130157500D01*
X134613492Y-130114038D01*
X134203225Y-129990172D01*
X133824827Y-129788974D01*
X133492724Y-129518117D01*
X133219553Y-129187910D01*
X133015720Y-128810929D01*
X132888993Y-128401539D01*
X132842500Y-127959190D01*
X132842500Y-126942891D01*
X134862500Y-126942891D01*
X134862500Y-127157109D01*
X134904292Y-127367212D01*
X134986270Y-127565124D01*
X135105284Y-127743241D01*
X135256759Y-127894716D01*
X135434876Y-128013730D01*
X135632788Y-128095708D01*
X135842891Y-128137500D01*
X136057109Y-128137500D01*
X136267212Y-128095708D01*
X136465124Y-128013730D01*
X136643241Y-127894716D01*
X136794716Y-127743241D01*
X136913730Y-127565124D01*
X136995708Y-127367212D01*
X137037500Y-127157109D01*
X137037500Y-126942891D01*
X137402500Y-126942891D01*
X137402500Y-127157109D01*
X137444292Y-127367212D01*
X137526270Y-127565124D01*
X137645284Y-127743241D01*
X137796759Y-127894716D01*
X137974876Y-128013730D01*
X138172788Y-128095708D01*
X138382891Y-128137500D01*
X138597109Y-128137500D01*
X138807212Y-128095708D01*
X139005124Y-128013730D01*
X139183241Y-127894716D01*
X139267891Y-127810066D01*
X140359736Y-127810066D01*
X140440149Y-127969893D01*
X140630945Y-128067291D01*
X140837077Y-128125596D01*
X141050622Y-128142566D01*
X141263375Y-128117550D01*
X141467160Y-128051509D01*
X141619851Y-127969893D01*
X141700264Y-127810066D01*
X141030000Y-127139803D01*
X140359736Y-127810066D01*
X139267891Y-127810066D01*
X139334716Y-127743241D01*
X139453730Y-127565124D01*
X139535708Y-127367212D01*
X139577500Y-127157109D01*
X139577500Y-127070622D01*
X139937434Y-127070622D01*
X139962450Y-127283375D01*
X140028491Y-127487160D01*
X140110107Y-127639851D01*
X140269934Y-127720264D01*
X140940197Y-127050000D01*
X141119803Y-127050000D01*
X141790066Y-127720264D01*
X141949893Y-127639851D01*
X142047291Y-127449055D01*
X142105596Y-127242923D01*
X142122566Y-127029378D01*
X142112397Y-126942891D01*
X142482500Y-126942891D01*
X142482500Y-127157109D01*
X142524292Y-127367212D01*
X142606270Y-127565124D01*
X142725284Y-127743241D01*
X142876759Y-127894716D01*
X143054876Y-128013730D01*
X143252788Y-128095708D01*
X143462891Y-128137500D01*
X143677109Y-128137500D01*
X143887212Y-128095708D01*
X144085124Y-128013730D01*
X144263241Y-127894716D01*
X144414716Y-127743241D01*
X144533730Y-127565124D01*
X144615708Y-127367212D01*
X144657500Y-127157109D01*
X144657500Y-126942891D01*
X145022500Y-126942891D01*
X145022500Y-127157109D01*
X145064292Y-127367212D01*
X145146270Y-127565124D01*
X145265284Y-127743241D01*
X145416759Y-127894716D01*
X145594876Y-128013730D01*
X145792788Y-128095708D01*
X146002891Y-128137500D01*
X146217109Y-128137500D01*
X146427212Y-128095708D01*
X146625124Y-128013730D01*
X146803241Y-127894716D01*
X146954716Y-127743241D01*
X147073730Y-127565124D01*
X147155708Y-127367212D01*
X147197500Y-127157109D01*
X147197500Y-126942891D01*
X147562500Y-126942891D01*
X147562500Y-127157109D01*
X147604292Y-127367212D01*
X147686270Y-127565124D01*
X147805284Y-127743241D01*
X147956759Y-127894716D01*
X148134876Y-128013730D01*
X148332788Y-128095708D01*
X148542891Y-128137500D01*
X148757109Y-128137500D01*
X148967212Y-128095708D01*
X149165124Y-128013730D01*
X149343241Y-127894716D01*
X149494716Y-127743241D01*
X149613730Y-127565124D01*
X149695708Y-127367212D01*
X149737500Y-127157109D01*
X149737500Y-126942891D01*
X150102500Y-126942891D01*
X150102500Y-127157109D01*
X150144292Y-127367212D01*
X150226270Y-127565124D01*
X150345284Y-127743241D01*
X150496759Y-127894716D01*
X150674876Y-128013730D01*
X150872788Y-128095708D01*
X151082891Y-128137500D01*
X151297109Y-128137500D01*
X151507212Y-128095708D01*
X151705124Y-128013730D01*
X151883241Y-127894716D01*
X152034716Y-127743241D01*
X152153730Y-127565124D01*
X152235708Y-127367212D01*
X152277500Y-127157109D01*
X152277500Y-126942891D01*
X152642500Y-126942891D01*
X152642500Y-127157109D01*
X152684292Y-127367212D01*
X152766270Y-127565124D01*
X152885284Y-127743241D01*
X153036759Y-127894716D01*
X153214876Y-128013730D01*
X153412788Y-128095708D01*
X153622891Y-128137500D01*
X153837109Y-128137500D01*
X154047212Y-128095708D01*
X154245124Y-128013730D01*
X154423241Y-127894716D01*
X154574716Y-127743241D01*
X154693730Y-127565124D01*
X154775708Y-127367212D01*
X154817500Y-127157109D01*
X154817500Y-126942891D01*
X155182500Y-126942891D01*
X155182500Y-127157109D01*
X155224292Y-127367212D01*
X155306270Y-127565124D01*
X155425284Y-127743241D01*
X155576759Y-127894716D01*
X155754876Y-128013730D01*
X155952788Y-128095708D01*
X156162891Y-128137500D01*
X156377109Y-128137500D01*
X156587212Y-128095708D01*
X156785124Y-128013730D01*
X156963241Y-127894716D01*
X157114716Y-127743241D01*
X157233730Y-127565124D01*
X157315708Y-127367212D01*
X157357500Y-127157109D01*
X157357500Y-126942891D01*
X157722500Y-126942891D01*
X157722500Y-127157109D01*
X157764292Y-127367212D01*
X157846270Y-127565124D01*
X157965284Y-127743241D01*
X158116759Y-127894716D01*
X158294876Y-128013730D01*
X158492788Y-128095708D01*
X158702891Y-128137500D01*
X158917109Y-128137500D01*
X159127212Y-128095708D01*
X159325124Y-128013730D01*
X159503241Y-127894716D01*
X159654716Y-127743241D01*
X159773730Y-127565124D01*
X159855708Y-127367212D01*
X159897500Y-127157109D01*
X159897500Y-126942891D01*
X160262500Y-126942891D01*
X160262500Y-127157109D01*
X160304292Y-127367212D01*
X160386270Y-127565124D01*
X160505284Y-127743241D01*
X160656759Y-127894716D01*
X160834876Y-128013730D01*
X161032788Y-128095708D01*
X161242891Y-128137500D01*
X161457109Y-128137500D01*
X161667212Y-128095708D01*
X161865124Y-128013730D01*
X162043241Y-127894716D01*
X162194716Y-127743241D01*
X162313730Y-127565124D01*
X162395708Y-127367212D01*
X162437500Y-127157109D01*
X162437500Y-126942891D01*
X162802500Y-126942891D01*
X162802500Y-127157109D01*
X162844292Y-127367212D01*
X162926270Y-127565124D01*
X163045284Y-127743241D01*
X163196759Y-127894716D01*
X163374876Y-128013730D01*
X163572788Y-128095708D01*
X163782891Y-128137500D01*
X163997109Y-128137500D01*
X164207212Y-128095708D01*
X164405124Y-128013730D01*
X164583241Y-127894716D01*
X164734716Y-127743241D01*
X164853730Y-127565124D01*
X164935708Y-127367212D01*
X164977500Y-127157109D01*
X164977500Y-126942891D01*
X165342500Y-126942891D01*
X165342500Y-127157109D01*
X165384292Y-127367212D01*
X165466270Y-127565124D01*
X165585284Y-127743241D01*
X165736759Y-127894716D01*
X165914876Y-128013730D01*
X166112788Y-128095708D01*
X166322891Y-128137500D01*
X166537109Y-128137500D01*
X166747212Y-128095708D01*
X166945124Y-128013730D01*
X167123241Y-127894716D01*
X167274716Y-127743241D01*
X167393730Y-127565124D01*
X167475708Y-127367212D01*
X167517500Y-127157109D01*
X167517500Y-126942891D01*
X167882500Y-126942891D01*
X167882500Y-127157109D01*
X167924292Y-127367212D01*
X168006270Y-127565124D01*
X168125284Y-127743241D01*
X168276759Y-127894716D01*
X168454876Y-128013730D01*
X168652788Y-128095708D01*
X168862891Y-128137500D01*
X169077109Y-128137500D01*
X169287212Y-128095708D01*
X169485124Y-128013730D01*
X169663241Y-127894716D01*
X169814716Y-127743241D01*
X169933730Y-127565124D01*
X170015708Y-127367212D01*
X170057500Y-127157109D01*
X170057500Y-126942891D01*
X170422500Y-126942891D01*
X170422500Y-127157109D01*
X170464292Y-127367212D01*
X170546270Y-127565124D01*
X170665284Y-127743241D01*
X170816759Y-127894716D01*
X170994876Y-128013730D01*
X171192788Y-128095708D01*
X171402891Y-128137500D01*
X171617109Y-128137500D01*
X171827212Y-128095708D01*
X172025124Y-128013730D01*
X172203241Y-127894716D01*
X172354716Y-127743241D01*
X172473730Y-127565124D01*
X172555708Y-127367212D01*
X172597500Y-127157109D01*
X172597500Y-126942891D01*
X172962500Y-126942891D01*
X172962500Y-127157109D01*
X173004292Y-127367212D01*
X173086270Y-127565124D01*
X173205284Y-127743241D01*
X173356759Y-127894716D01*
X173534876Y-128013730D01*
X173732788Y-128095708D01*
X173942891Y-128137500D01*
X174157109Y-128137500D01*
X174367212Y-128095708D01*
X174565124Y-128013730D01*
X174743241Y-127894716D01*
X174894716Y-127743241D01*
X175013730Y-127565124D01*
X175095708Y-127367212D01*
X175137500Y-127157109D01*
X175137500Y-126942891D01*
X175095708Y-126732788D01*
X175013730Y-126534876D01*
X174894716Y-126356759D01*
X174743241Y-126205284D01*
X174565124Y-126086270D01*
X174367212Y-126004292D01*
X174157109Y-125962500D01*
X173942891Y-125962500D01*
X173732788Y-126004292D01*
X173534876Y-126086270D01*
X173356759Y-126205284D01*
X173205284Y-126356759D01*
X173086270Y-126534876D01*
X173004292Y-126732788D01*
X172962500Y-126942891D01*
X172597500Y-126942891D01*
X172555708Y-126732788D01*
X172473730Y-126534876D01*
X172354716Y-126356759D01*
X172203241Y-126205284D01*
X172025124Y-126086270D01*
X171827212Y-126004292D01*
X171617109Y-125962500D01*
X171402891Y-125962500D01*
X171192788Y-126004292D01*
X170994876Y-126086270D01*
X170816759Y-126205284D01*
X170665284Y-126356759D01*
X170546270Y-126534876D01*
X170464292Y-126732788D01*
X170422500Y-126942891D01*
X170057500Y-126942891D01*
X170015708Y-126732788D01*
X169933730Y-126534876D01*
X169814716Y-126356759D01*
X169663241Y-126205284D01*
X169485124Y-126086270D01*
X169287212Y-126004292D01*
X169077109Y-125962500D01*
X168862891Y-125962500D01*
X168652788Y-126004292D01*
X168454876Y-126086270D01*
X168276759Y-126205284D01*
X168125284Y-126356759D01*
X168006270Y-126534876D01*
X167924292Y-126732788D01*
X167882500Y-126942891D01*
X167517500Y-126942891D01*
X167475708Y-126732788D01*
X167393730Y-126534876D01*
X167274716Y-126356759D01*
X167123241Y-126205284D01*
X166945124Y-126086270D01*
X166747212Y-126004292D01*
X166537109Y-125962500D01*
X166322891Y-125962500D01*
X166112788Y-126004292D01*
X165914876Y-126086270D01*
X165736759Y-126205284D01*
X165585284Y-126356759D01*
X165466270Y-126534876D01*
X165384292Y-126732788D01*
X165342500Y-126942891D01*
X164977500Y-126942891D01*
X164935708Y-126732788D01*
X164853730Y-126534876D01*
X164734716Y-126356759D01*
X164583241Y-126205284D01*
X164405124Y-126086270D01*
X164207212Y-126004292D01*
X163997109Y-125962500D01*
X163782891Y-125962500D01*
X163572788Y-126004292D01*
X163374876Y-126086270D01*
X163196759Y-126205284D01*
X163045284Y-126356759D01*
X162926270Y-126534876D01*
X162844292Y-126732788D01*
X162802500Y-126942891D01*
X162437500Y-126942891D01*
X162395708Y-126732788D01*
X162313730Y-126534876D01*
X162194716Y-126356759D01*
X162043241Y-126205284D01*
X161865124Y-126086270D01*
X161667212Y-126004292D01*
X161457109Y-125962500D01*
X161242891Y-125962500D01*
X161032788Y-126004292D01*
X160834876Y-126086270D01*
X160656759Y-126205284D01*
X160505284Y-126356759D01*
X160386270Y-126534876D01*
X160304292Y-126732788D01*
X160262500Y-126942891D01*
X159897500Y-126942891D01*
X159855708Y-126732788D01*
X159773730Y-126534876D01*
X159654716Y-126356759D01*
X159503241Y-126205284D01*
X159325124Y-126086270D01*
X159127212Y-126004292D01*
X158917109Y-125962500D01*
X158702891Y-125962500D01*
X158492788Y-126004292D01*
X158294876Y-126086270D01*
X158116759Y-126205284D01*
X157965284Y-126356759D01*
X157846270Y-126534876D01*
X157764292Y-126732788D01*
X157722500Y-126942891D01*
X157357500Y-126942891D01*
X157315708Y-126732788D01*
X157233730Y-126534876D01*
X157114716Y-126356759D01*
X156963241Y-126205284D01*
X156785124Y-126086270D01*
X156587212Y-126004292D01*
X156377109Y-125962500D01*
X156162891Y-125962500D01*
X155952788Y-126004292D01*
X155754876Y-126086270D01*
X155576759Y-126205284D01*
X155425284Y-126356759D01*
X155306270Y-126534876D01*
X155224292Y-126732788D01*
X155182500Y-126942891D01*
X154817500Y-126942891D01*
X154775708Y-126732788D01*
X154693730Y-126534876D01*
X154574716Y-126356759D01*
X154423241Y-126205284D01*
X154245124Y-126086270D01*
X154047212Y-126004292D01*
X153837109Y-125962500D01*
X153622891Y-125962500D01*
X153412788Y-126004292D01*
X153214876Y-126086270D01*
X153036759Y-126205284D01*
X152885284Y-126356759D01*
X152766270Y-126534876D01*
X152684292Y-126732788D01*
X152642500Y-126942891D01*
X152277500Y-126942891D01*
X152235708Y-126732788D01*
X152153730Y-126534876D01*
X152034716Y-126356759D01*
X151883241Y-126205284D01*
X151705124Y-126086270D01*
X151507212Y-126004292D01*
X151297109Y-125962500D01*
X151082891Y-125962500D01*
X150872788Y-126004292D01*
X150674876Y-126086270D01*
X150496759Y-126205284D01*
X150345284Y-126356759D01*
X150226270Y-126534876D01*
X150144292Y-126732788D01*
X150102500Y-126942891D01*
X149737500Y-126942891D01*
X149695708Y-126732788D01*
X149613730Y-126534876D01*
X149494716Y-126356759D01*
X149343241Y-126205284D01*
X149165124Y-126086270D01*
X148967212Y-126004292D01*
X148757109Y-125962500D01*
X148542891Y-125962500D01*
X148332788Y-126004292D01*
X148134876Y-126086270D01*
X147956759Y-126205284D01*
X147805284Y-126356759D01*
X147686270Y-126534876D01*
X147604292Y-126732788D01*
X147562500Y-126942891D01*
X147197500Y-126942891D01*
X147155708Y-126732788D01*
X147073730Y-126534876D01*
X146954716Y-126356759D01*
X146803241Y-126205284D01*
X146625124Y-126086270D01*
X146427212Y-126004292D01*
X146217109Y-125962500D01*
X146002891Y-125962500D01*
X145792788Y-126004292D01*
X145594876Y-126086270D01*
X145416759Y-126205284D01*
X145265284Y-126356759D01*
X145146270Y-126534876D01*
X145064292Y-126732788D01*
X145022500Y-126942891D01*
X144657500Y-126942891D01*
X144615708Y-126732788D01*
X144533730Y-126534876D01*
X144414716Y-126356759D01*
X144263241Y-126205284D01*
X144085124Y-126086270D01*
X143887212Y-126004292D01*
X143677109Y-125962500D01*
X143462891Y-125962500D01*
X143252788Y-126004292D01*
X143054876Y-126086270D01*
X142876759Y-126205284D01*
X142725284Y-126356759D01*
X142606270Y-126534876D01*
X142524292Y-126732788D01*
X142482500Y-126942891D01*
X142112397Y-126942891D01*
X142097550Y-126816625D01*
X142031509Y-126612840D01*
X141949893Y-126460149D01*
X141790066Y-126379736D01*
X141119803Y-127050000D01*
X140940197Y-127050000D01*
X140269934Y-126379736D01*
X140110107Y-126460149D01*
X140012709Y-126650945D01*
X139954404Y-126857077D01*
X139937434Y-127070622D01*
X139577500Y-127070622D01*
X139577500Y-126942891D01*
X139535708Y-126732788D01*
X139453730Y-126534876D01*
X139334716Y-126356759D01*
X139267891Y-126289934D01*
X140359736Y-126289934D01*
X141030000Y-126960197D01*
X141700264Y-126289934D01*
X141619851Y-126130107D01*
X141429055Y-126032709D01*
X141222923Y-125974404D01*
X141009378Y-125957434D01*
X140796625Y-125982450D01*
X140592840Y-126048491D01*
X140440149Y-126130107D01*
X140359736Y-126289934D01*
X139267891Y-126289934D01*
X139183241Y-126205284D01*
X139005124Y-126086270D01*
X138807212Y-126004292D01*
X138597109Y-125962500D01*
X138382891Y-125962500D01*
X138172788Y-126004292D01*
X137974876Y-126086270D01*
X137796759Y-126205284D01*
X137645284Y-126356759D01*
X137526270Y-126534876D01*
X137444292Y-126732788D01*
X137402500Y-126942891D01*
X137037500Y-126942891D01*
X136995708Y-126732788D01*
X136913730Y-126534876D01*
X136794716Y-126356759D01*
X136643241Y-126205284D01*
X136465124Y-126086270D01*
X136267212Y-126004292D01*
X136057109Y-125962500D01*
X135842891Y-125962500D01*
X135632788Y-126004292D01*
X135434876Y-126086270D01*
X135256759Y-126205284D01*
X135105284Y-126356759D01*
X134986270Y-126534876D01*
X134904292Y-126732788D01*
X134862500Y-126942891D01*
X132842500Y-126942891D01*
X132842500Y-124402891D01*
X134862500Y-124402891D01*
X134862500Y-124617109D01*
X134904292Y-124827212D01*
X134986270Y-125025124D01*
X135105284Y-125203241D01*
X135256759Y-125354716D01*
X135434876Y-125473730D01*
X135632788Y-125555708D01*
X135842891Y-125597500D01*
X136057109Y-125597500D01*
X136267212Y-125555708D01*
X136465124Y-125473730D01*
X136643241Y-125354716D01*
X136794716Y-125203241D01*
X136913730Y-125025124D01*
X136995708Y-124827212D01*
X137037500Y-124617109D01*
X137037500Y-124402891D01*
X136995708Y-124192788D01*
X136913730Y-123994876D01*
X136881216Y-123946214D01*
X154953900Y-123946214D01*
X154953900Y-124053786D01*
X154974887Y-124159291D01*
X155016053Y-124258675D01*
X155075817Y-124348118D01*
X155151882Y-124424183D01*
X155241325Y-124483947D01*
X155340709Y-124525113D01*
X155446214Y-124546100D01*
X155553786Y-124546100D01*
X155659291Y-124525113D01*
X155758675Y-124483947D01*
X155848118Y-124424183D01*
X155924183Y-124348118D01*
X155983947Y-124258675D01*
X156025113Y-124159291D01*
X156046100Y-124053786D01*
X156046100Y-123946214D01*
X156025113Y-123840709D01*
X155983947Y-123741325D01*
X155924183Y-123651882D01*
X155848118Y-123575817D01*
X155758675Y-123516053D01*
X155659291Y-123474887D01*
X155553786Y-123453900D01*
X155446214Y-123453900D01*
X155340709Y-123474887D01*
X155241325Y-123516053D01*
X155151882Y-123575817D01*
X155075817Y-123651882D01*
X155016053Y-123741325D01*
X154974887Y-123840709D01*
X154953900Y-123946214D01*
X136881216Y-123946214D01*
X136794716Y-123816759D01*
X136643241Y-123665284D01*
X136465124Y-123546270D01*
X136267212Y-123464292D01*
X136057109Y-123422500D01*
X135842891Y-123422500D01*
X135632788Y-123464292D01*
X135434876Y-123546270D01*
X135256759Y-123665284D01*
X135105284Y-123816759D01*
X134986270Y-123994876D01*
X134904292Y-124192788D01*
X134862500Y-124402891D01*
X132842500Y-124402891D01*
X132842500Y-121862891D01*
X134862500Y-121862891D01*
X134862500Y-122077109D01*
X134904292Y-122287212D01*
X134986270Y-122485124D01*
X135105284Y-122663241D01*
X135256759Y-122814716D01*
X135434876Y-122933730D01*
X135632788Y-123015708D01*
X135842891Y-123057500D01*
X136057109Y-123057500D01*
X136267212Y-123015708D01*
X136465124Y-122933730D01*
X136643241Y-122814716D01*
X136794716Y-122663241D01*
X136913730Y-122485124D01*
X136995708Y-122287212D01*
X137037500Y-122077109D01*
X137037500Y-121862891D01*
X136995708Y-121652788D01*
X136913730Y-121454876D01*
X136794716Y-121276759D01*
X136643241Y-121125284D01*
X136465124Y-121006270D01*
X136267212Y-120924292D01*
X136057109Y-120882500D01*
X135842891Y-120882500D01*
X135632788Y-120924292D01*
X135434876Y-121006270D01*
X135256759Y-121125284D01*
X135105284Y-121276759D01*
X134986270Y-121454876D01*
X134904292Y-121652788D01*
X134862500Y-121862891D01*
X132842500Y-121862891D01*
X132842500Y-120190066D01*
X135279736Y-120190066D01*
X135360149Y-120349893D01*
X135550945Y-120447291D01*
X135757077Y-120505596D01*
X135970622Y-120522566D01*
X136183375Y-120497550D01*
X136387160Y-120431509D01*
X136539851Y-120349893D01*
X136620264Y-120190066D01*
X135950000Y-119519803D01*
X135279736Y-120190066D01*
X132842500Y-120190066D01*
X132842500Y-119450622D01*
X134857434Y-119450622D01*
X134882450Y-119663375D01*
X134948491Y-119867160D01*
X135030107Y-120019851D01*
X135189934Y-120100264D01*
X135860197Y-119430000D01*
X136039803Y-119430000D01*
X136710066Y-120100264D01*
X136869893Y-120019851D01*
X136967291Y-119829055D01*
X137025596Y-119622923D01*
X137042566Y-119409378D01*
X137017550Y-119196625D01*
X136951509Y-118992840D01*
X136869893Y-118840149D01*
X136710066Y-118759736D01*
X136039803Y-119430000D01*
X135860197Y-119430000D01*
X135189934Y-118759736D01*
X135030107Y-118840149D01*
X134932709Y-119030945D01*
X134874404Y-119237077D01*
X134857434Y-119450622D01*
X132842500Y-119450622D01*
X132842500Y-118669934D01*
X135279736Y-118669934D01*
X135950000Y-119340197D01*
X136620264Y-118669934D01*
X136539851Y-118510107D01*
X136349055Y-118412709D01*
X136142923Y-118354404D01*
X135929378Y-118337434D01*
X135716625Y-118362450D01*
X135512840Y-118428491D01*
X135360149Y-118510107D01*
X135279736Y-118669934D01*
X132842500Y-118669934D01*
X132842500Y-118096214D01*
X139403900Y-118096214D01*
X139403900Y-118203786D01*
X139424887Y-118309291D01*
X139466053Y-118408675D01*
X139525817Y-118498118D01*
X139601882Y-118574183D01*
X139691325Y-118633947D01*
X139790709Y-118675113D01*
X139896214Y-118696100D01*
X140003786Y-118696100D01*
X140109291Y-118675113D01*
X140208675Y-118633947D01*
X140298118Y-118574183D01*
X140374183Y-118498118D01*
X140433947Y-118408675D01*
X140475113Y-118309291D01*
X140496100Y-118203786D01*
X140496100Y-118096214D01*
X140475113Y-117990709D01*
X140433947Y-117891325D01*
X140374183Y-117801882D01*
X140298118Y-117725817D01*
X140208675Y-117666053D01*
X140109291Y-117624887D01*
X140003786Y-117603900D01*
X139896214Y-117603900D01*
X139790709Y-117624887D01*
X139691325Y-117666053D01*
X139601882Y-117725817D01*
X139525817Y-117801882D01*
X139466053Y-117891325D01*
X139424887Y-117990709D01*
X139403900Y-118096214D01*
X132842500Y-118096214D01*
X132842500Y-116782891D01*
X134862500Y-116782891D01*
X134862500Y-116997109D01*
X134904292Y-117207212D01*
X134986270Y-117405124D01*
X135105284Y-117583241D01*
X135256759Y-117734716D01*
X135434876Y-117853730D01*
X135632788Y-117935708D01*
X135842891Y-117977500D01*
X136057109Y-117977500D01*
X136267212Y-117935708D01*
X136465124Y-117853730D01*
X136643241Y-117734716D01*
X136794716Y-117583241D01*
X136913730Y-117405124D01*
X136979552Y-117246214D01*
X148653900Y-117246214D01*
X148653900Y-117353786D01*
X148674887Y-117459291D01*
X148716053Y-117558675D01*
X148775817Y-117648118D01*
X148851882Y-117724183D01*
X148941325Y-117783947D01*
X149040709Y-117825113D01*
X149146214Y-117846100D01*
X149253786Y-117846100D01*
X149359291Y-117825113D01*
X149458675Y-117783947D01*
X149548118Y-117724183D01*
X149624183Y-117648118D01*
X149683947Y-117558675D01*
X149725113Y-117459291D01*
X149746100Y-117353786D01*
X149746100Y-117246214D01*
X149725113Y-117140709D01*
X149683947Y-117041325D01*
X149624183Y-116951882D01*
X149548118Y-116875817D01*
X149458675Y-116816053D01*
X149359291Y-116774887D01*
X149253786Y-116753900D01*
X149146214Y-116753900D01*
X149040709Y-116774887D01*
X148941325Y-116816053D01*
X148851882Y-116875817D01*
X148775817Y-116951882D01*
X148716053Y-117041325D01*
X148674887Y-117140709D01*
X148653900Y-117246214D01*
X136979552Y-117246214D01*
X136995708Y-117207212D01*
X137037500Y-116997109D01*
X137037500Y-116782891D01*
X136995708Y-116572788D01*
X136913730Y-116374876D01*
X136794716Y-116196759D01*
X136643241Y-116045284D01*
X136465124Y-115926270D01*
X136267212Y-115844292D01*
X136057109Y-115802500D01*
X135842891Y-115802500D01*
X135632788Y-115844292D01*
X135434876Y-115926270D01*
X135256759Y-116045284D01*
X135105284Y-116196759D01*
X134986270Y-116374876D01*
X134904292Y-116572788D01*
X134862500Y-116782891D01*
X132842500Y-116782891D01*
X132842500Y-114195797D01*
X134014006Y-114195797D01*
X134154492Y-114406831D01*
X134430358Y-114554090D01*
X134729653Y-114644701D01*
X135040875Y-114675181D01*
X135352062Y-114644360D01*
X135651258Y-114553420D01*
X135925508Y-114406831D01*
X136034643Y-114242891D01*
X167882500Y-114242891D01*
X167882500Y-114457109D01*
X167924292Y-114667212D01*
X168006270Y-114865124D01*
X168125284Y-115043241D01*
X168276759Y-115194716D01*
X168454876Y-115313730D01*
X168652788Y-115395708D01*
X168862891Y-115437500D01*
X169077109Y-115437500D01*
X169287212Y-115395708D01*
X169485124Y-115313730D01*
X169663241Y-115194716D01*
X169814716Y-115043241D01*
X169933730Y-114865124D01*
X170015708Y-114667212D01*
X170057500Y-114457109D01*
X170057500Y-114242891D01*
X170422500Y-114242891D01*
X170422500Y-114457109D01*
X170464292Y-114667212D01*
X170546270Y-114865124D01*
X170665284Y-115043241D01*
X170816759Y-115194716D01*
X170994876Y-115313730D01*
X171192788Y-115395708D01*
X171402891Y-115437500D01*
X171617109Y-115437500D01*
X171827212Y-115395708D01*
X172025124Y-115313730D01*
X172203241Y-115194716D01*
X172354716Y-115043241D01*
X172473730Y-114865124D01*
X172555708Y-114667212D01*
X172597500Y-114457109D01*
X172597500Y-114242891D01*
X172588133Y-114195797D01*
X173934006Y-114195797D01*
X174074492Y-114406831D01*
X174350358Y-114554090D01*
X174649653Y-114644701D01*
X174960875Y-114675181D01*
X175272062Y-114644360D01*
X175571258Y-114553420D01*
X175845508Y-114406831D01*
X175985994Y-114195797D01*
X174960000Y-113169803D01*
X173934006Y-114195797D01*
X172588133Y-114195797D01*
X172555708Y-114032788D01*
X172473730Y-113834876D01*
X172354716Y-113656759D01*
X172203241Y-113505284D01*
X172025124Y-113386270D01*
X171827212Y-113304292D01*
X171617109Y-113262500D01*
X171402891Y-113262500D01*
X171192788Y-113304292D01*
X170994876Y-113386270D01*
X170816759Y-113505284D01*
X170665284Y-113656759D01*
X170546270Y-113834876D01*
X170464292Y-114032788D01*
X170422500Y-114242891D01*
X170057500Y-114242891D01*
X170015708Y-114032788D01*
X169933730Y-113834876D01*
X169814716Y-113656759D01*
X169663241Y-113505284D01*
X169485124Y-113386270D01*
X169287212Y-113304292D01*
X169077109Y-113262500D01*
X168862891Y-113262500D01*
X168652788Y-113304292D01*
X168454876Y-113386270D01*
X168276759Y-113505284D01*
X168125284Y-113656759D01*
X168006270Y-113834876D01*
X167924292Y-114032788D01*
X167882500Y-114242891D01*
X136034643Y-114242891D01*
X136065994Y-114195797D01*
X135040000Y-113169803D01*
X134014006Y-114195797D01*
X132842500Y-114195797D01*
X132842500Y-113080875D01*
X133444819Y-113080875D01*
X133475640Y-113392062D01*
X133566580Y-113691258D01*
X133713169Y-113965508D01*
X133924203Y-114105994D01*
X134950197Y-113080000D01*
X135129803Y-113080000D01*
X136155797Y-114105994D01*
X136366831Y-113965508D01*
X136514090Y-113689642D01*
X136604701Y-113390347D01*
X136635009Y-113080875D01*
X173364819Y-113080875D01*
X173395640Y-113392062D01*
X173486580Y-113691258D01*
X173633169Y-113965508D01*
X173844203Y-114105994D01*
X174870197Y-113080000D01*
X175049803Y-113080000D01*
X176075797Y-114105994D01*
X176286831Y-113965508D01*
X176434090Y-113689642D01*
X176524701Y-113390347D01*
X176555181Y-113079125D01*
X176524360Y-112767938D01*
X176433420Y-112468742D01*
X176286831Y-112194492D01*
X176075797Y-112054006D01*
X175049803Y-113080000D01*
X174870197Y-113080000D01*
X173844203Y-112054006D01*
X173633169Y-112194492D01*
X173485910Y-112470358D01*
X173395299Y-112769653D01*
X173364819Y-113080875D01*
X136635009Y-113080875D01*
X136635181Y-113079125D01*
X136604360Y-112767938D01*
X136513420Y-112468742D01*
X136366831Y-112194492D01*
X136155797Y-112054006D01*
X135129803Y-113080000D01*
X134950197Y-113080000D01*
X133924203Y-112054006D01*
X133713169Y-112194492D01*
X133565910Y-112470358D01*
X133475299Y-112769653D01*
X133444819Y-113080875D01*
X132842500Y-113080875D01*
X132842500Y-111964203D01*
X134014006Y-111964203D01*
X135040000Y-112990197D01*
X136065994Y-111964203D01*
X135987449Y-111846214D01*
X136753900Y-111846214D01*
X136753900Y-111953786D01*
X136774887Y-112059291D01*
X136816053Y-112158675D01*
X136875817Y-112248118D01*
X136951882Y-112324183D01*
X137041325Y-112383947D01*
X137140709Y-112425113D01*
X137246214Y-112446100D01*
X137353786Y-112446100D01*
X137459291Y-112425113D01*
X137558675Y-112383947D01*
X137648118Y-112324183D01*
X137724183Y-112248118D01*
X137783947Y-112158675D01*
X137825113Y-112059291D01*
X137846100Y-111953786D01*
X137846100Y-111846214D01*
X137825113Y-111740709D01*
X137783947Y-111641325D01*
X137724183Y-111551882D01*
X137648118Y-111475817D01*
X137558675Y-111416053D01*
X137459291Y-111374887D01*
X137353786Y-111353900D01*
X137246214Y-111353900D01*
X137140709Y-111374887D01*
X137041325Y-111416053D01*
X136951882Y-111475817D01*
X136875817Y-111551882D01*
X136816053Y-111641325D01*
X136774887Y-111740709D01*
X136753900Y-111846214D01*
X135987449Y-111846214D01*
X135925508Y-111753169D01*
X135649642Y-111605910D01*
X135350347Y-111515299D01*
X135039125Y-111484819D01*
X134727938Y-111515640D01*
X134428742Y-111606580D01*
X134154492Y-111753169D01*
X134014006Y-111964203D01*
X132842500Y-111964203D01*
X132842500Y-109696214D01*
X139953900Y-109696214D01*
X139953900Y-109803786D01*
X139974887Y-109909291D01*
X140016053Y-110008675D01*
X140075817Y-110098118D01*
X140151882Y-110174183D01*
X140241325Y-110233947D01*
X140340709Y-110275113D01*
X140446214Y-110296100D01*
X140553786Y-110296100D01*
X140659291Y-110275113D01*
X140758675Y-110233947D01*
X140815146Y-110196214D01*
X141453900Y-110196214D01*
X141453900Y-110303786D01*
X141474887Y-110409291D01*
X141516053Y-110508675D01*
X141575817Y-110598118D01*
X141651882Y-110674183D01*
X141741325Y-110733947D01*
X141840709Y-110775113D01*
X141946214Y-110796100D01*
X142053786Y-110796100D01*
X142159291Y-110775113D01*
X142258675Y-110733947D01*
X142348118Y-110674183D01*
X142424183Y-110598118D01*
X142483947Y-110508675D01*
X142525113Y-110409291D01*
X142546100Y-110303786D01*
X142546100Y-110196214D01*
X144503900Y-110196214D01*
X144503900Y-110303786D01*
X144524887Y-110409291D01*
X144566053Y-110508675D01*
X144625817Y-110598118D01*
X144701882Y-110674183D01*
X144791325Y-110733947D01*
X144890709Y-110775113D01*
X144996214Y-110796100D01*
X145103786Y-110796100D01*
X145209291Y-110775113D01*
X145308675Y-110733947D01*
X145398118Y-110674183D01*
X145474183Y-110598118D01*
X145533947Y-110508675D01*
X145575113Y-110409291D01*
X145596100Y-110303786D01*
X145596100Y-110196214D01*
X145575113Y-110090709D01*
X145533947Y-109991325D01*
X145474183Y-109901882D01*
X145398118Y-109825817D01*
X145308675Y-109766053D01*
X145209291Y-109724887D01*
X145103786Y-109703900D01*
X144996214Y-109703900D01*
X144890709Y-109724887D01*
X144791325Y-109766053D01*
X144701882Y-109825817D01*
X144625817Y-109901882D01*
X144566053Y-109991325D01*
X144524887Y-110090709D01*
X144503900Y-110196214D01*
X142546100Y-110196214D01*
X142525113Y-110090709D01*
X142483947Y-109991325D01*
X142424183Y-109901882D01*
X142348118Y-109825817D01*
X142258675Y-109766053D01*
X142159291Y-109724887D01*
X142053786Y-109703900D01*
X141946214Y-109703900D01*
X141840709Y-109724887D01*
X141741325Y-109766053D01*
X141651882Y-109825817D01*
X141575817Y-109901882D01*
X141516053Y-109991325D01*
X141474887Y-110090709D01*
X141453900Y-110196214D01*
X140815146Y-110196214D01*
X140848118Y-110174183D01*
X140924183Y-110098118D01*
X140983947Y-110008675D01*
X141025113Y-109909291D01*
X141046100Y-109803786D01*
X141046100Y-109696214D01*
X141025113Y-109590709D01*
X140983947Y-109491325D01*
X140924183Y-109401882D01*
X140848118Y-109325817D01*
X140758675Y-109266053D01*
X140659291Y-109224887D01*
X140553786Y-109203900D01*
X140446214Y-109203900D01*
X140340709Y-109224887D01*
X140241325Y-109266053D01*
X140151882Y-109325817D01*
X140075817Y-109401882D01*
X140016053Y-109491325D01*
X139974887Y-109590709D01*
X139953900Y-109696214D01*
X132842500Y-109696214D01*
X132842500Y-108196214D01*
X139553900Y-108196214D01*
X139553900Y-108303786D01*
X139574887Y-108409291D01*
X139616053Y-108508675D01*
X139675817Y-108598118D01*
X139751882Y-108674183D01*
X139841325Y-108733947D01*
X139940709Y-108775113D01*
X140046214Y-108796100D01*
X140153786Y-108796100D01*
X140259291Y-108775113D01*
X140358675Y-108733947D01*
X140448118Y-108674183D01*
X140460806Y-108661495D01*
X140453900Y-108696214D01*
X140453900Y-108803786D01*
X140474887Y-108909291D01*
X140516053Y-109008675D01*
X140575817Y-109098118D01*
X140651882Y-109174183D01*
X140741325Y-109233947D01*
X140840709Y-109275113D01*
X140946214Y-109296100D01*
X140953900Y-109296100D01*
X140953900Y-109303786D01*
X140974887Y-109409291D01*
X141016053Y-109508675D01*
X141075817Y-109598118D01*
X141151882Y-109674183D01*
X141241325Y-109733947D01*
X141340709Y-109775113D01*
X141446214Y-109796100D01*
X141553786Y-109796100D01*
X141659291Y-109775113D01*
X141758675Y-109733947D01*
X141848118Y-109674183D01*
X141924183Y-109598118D01*
X141983947Y-109508675D01*
X142025113Y-109409291D01*
X142037660Y-109346214D01*
X145603900Y-109346214D01*
X145603900Y-109453786D01*
X145624887Y-109559291D01*
X145666053Y-109658675D01*
X145725817Y-109748118D01*
X145801882Y-109824183D01*
X145803105Y-109825000D01*
X145801882Y-109825817D01*
X145725817Y-109901882D01*
X145666053Y-109991325D01*
X145624887Y-110090709D01*
X145603900Y-110196214D01*
X145603900Y-110303786D01*
X145624887Y-110409291D01*
X145666053Y-110508675D01*
X145725817Y-110598118D01*
X145801882Y-110674183D01*
X145803105Y-110675000D01*
X145801882Y-110675817D01*
X145725817Y-110751882D01*
X145666053Y-110841325D01*
X145624887Y-110940709D01*
X145603900Y-111046214D01*
X145603900Y-111153786D01*
X145624887Y-111259291D01*
X145666053Y-111358675D01*
X145725817Y-111448118D01*
X145801882Y-111524183D01*
X145803105Y-111525000D01*
X145801882Y-111525817D01*
X145725817Y-111601882D01*
X145666053Y-111691325D01*
X145624887Y-111790709D01*
X145603900Y-111896214D01*
X145603900Y-112003786D01*
X145624887Y-112109291D01*
X145666053Y-112208675D01*
X145725817Y-112298118D01*
X145801882Y-112374183D01*
X145891325Y-112433947D01*
X145990709Y-112475113D01*
X146096214Y-112496100D01*
X146203786Y-112496100D01*
X146309291Y-112475113D01*
X146408675Y-112433947D01*
X146498118Y-112374183D01*
X146574183Y-112298118D01*
X146633947Y-112208675D01*
X146650000Y-112169919D01*
X146666053Y-112208675D01*
X146725817Y-112298118D01*
X146801882Y-112374183D01*
X146891325Y-112433947D01*
X146990709Y-112475113D01*
X147096214Y-112496100D01*
X147203786Y-112496100D01*
X147309291Y-112475113D01*
X147408675Y-112433947D01*
X147498118Y-112374183D01*
X147574183Y-112298118D01*
X147633947Y-112208675D01*
X147675113Y-112109291D01*
X147696100Y-112003786D01*
X147696100Y-111896214D01*
X147675113Y-111790709D01*
X147638738Y-111702891D01*
X167882500Y-111702891D01*
X167882500Y-111917109D01*
X167924292Y-112127212D01*
X168006270Y-112325124D01*
X168125284Y-112503241D01*
X168276759Y-112654716D01*
X168454876Y-112773730D01*
X168652788Y-112855708D01*
X168862891Y-112897500D01*
X169077109Y-112897500D01*
X169287212Y-112855708D01*
X169485124Y-112773730D01*
X169663241Y-112654716D01*
X169814716Y-112503241D01*
X169933730Y-112325124D01*
X170015708Y-112127212D01*
X170057500Y-111917109D01*
X170057500Y-111702891D01*
X170422500Y-111702891D01*
X170422500Y-111917109D01*
X170464292Y-112127212D01*
X170546270Y-112325124D01*
X170665284Y-112503241D01*
X170816759Y-112654716D01*
X170994876Y-112773730D01*
X171192788Y-112855708D01*
X171402891Y-112897500D01*
X171617109Y-112897500D01*
X171827212Y-112855708D01*
X172025124Y-112773730D01*
X172203241Y-112654716D01*
X172354716Y-112503241D01*
X172473730Y-112325124D01*
X172555708Y-112127212D01*
X172588132Y-111964203D01*
X173934006Y-111964203D01*
X174960000Y-112990197D01*
X175985994Y-111964203D01*
X175845508Y-111753169D01*
X175569642Y-111605910D01*
X175270347Y-111515299D01*
X174959125Y-111484819D01*
X174647938Y-111515640D01*
X174348742Y-111606580D01*
X174074492Y-111753169D01*
X173934006Y-111964203D01*
X172588132Y-111964203D01*
X172597500Y-111917109D01*
X172597500Y-111702891D01*
X172555708Y-111492788D01*
X172473730Y-111294876D01*
X172354716Y-111116759D01*
X172203241Y-110965284D01*
X172025124Y-110846270D01*
X171827212Y-110764292D01*
X171617109Y-110722500D01*
X171402891Y-110722500D01*
X171192788Y-110764292D01*
X170994876Y-110846270D01*
X170816759Y-110965284D01*
X170665284Y-111116759D01*
X170546270Y-111294876D01*
X170464292Y-111492788D01*
X170422500Y-111702891D01*
X170057500Y-111702891D01*
X170015708Y-111492788D01*
X169933730Y-111294876D01*
X169814716Y-111116759D01*
X169663241Y-110965284D01*
X169485124Y-110846270D01*
X169287212Y-110764292D01*
X169077109Y-110722500D01*
X168862891Y-110722500D01*
X168652788Y-110764292D01*
X168454876Y-110846270D01*
X168276759Y-110965284D01*
X168125284Y-111116759D01*
X168006270Y-111294876D01*
X167924292Y-111492788D01*
X167882500Y-111702891D01*
X147638738Y-111702891D01*
X147633947Y-111691325D01*
X147574183Y-111601882D01*
X147498118Y-111525817D01*
X147496895Y-111525000D01*
X147498118Y-111524183D01*
X147574183Y-111448118D01*
X147633947Y-111358675D01*
X147675113Y-111259291D01*
X147696100Y-111153786D01*
X147696100Y-111046214D01*
X147675113Y-110940709D01*
X147633947Y-110841325D01*
X147574183Y-110751882D01*
X147498118Y-110675817D01*
X147496895Y-110675000D01*
X147498118Y-110674183D01*
X147574183Y-110598118D01*
X147633947Y-110508675D01*
X147675113Y-110409291D01*
X147696100Y-110303786D01*
X147696100Y-110196214D01*
X147675113Y-110090709D01*
X147633947Y-109991325D01*
X147574183Y-109901882D01*
X147498118Y-109825817D01*
X147496895Y-109825000D01*
X147498118Y-109824183D01*
X147574183Y-109748118D01*
X147633947Y-109658675D01*
X147675113Y-109559291D01*
X147696100Y-109453786D01*
X147696100Y-109346214D01*
X147675113Y-109240709D01*
X147642880Y-109162891D01*
X167882500Y-109162891D01*
X167882500Y-109377109D01*
X167924292Y-109587212D01*
X168006270Y-109785124D01*
X168125284Y-109963241D01*
X168276759Y-110114716D01*
X168454876Y-110233730D01*
X168652788Y-110315708D01*
X168862891Y-110357500D01*
X169077109Y-110357500D01*
X169287212Y-110315708D01*
X169485124Y-110233730D01*
X169663241Y-110114716D01*
X169814716Y-109963241D01*
X169933730Y-109785124D01*
X170015708Y-109587212D01*
X170057500Y-109377109D01*
X170057500Y-109162891D01*
X170422500Y-109162891D01*
X170422500Y-109377109D01*
X170464292Y-109587212D01*
X170546270Y-109785124D01*
X170665284Y-109963241D01*
X170816759Y-110114716D01*
X170994876Y-110233730D01*
X171192788Y-110315708D01*
X171402891Y-110357500D01*
X171617109Y-110357500D01*
X171827212Y-110315708D01*
X172025124Y-110233730D01*
X172203241Y-110114716D01*
X172354716Y-109963241D01*
X172473730Y-109785124D01*
X172555708Y-109587212D01*
X172597500Y-109377109D01*
X172597500Y-109162891D01*
X172555708Y-108952788D01*
X172473730Y-108754876D01*
X172354716Y-108576759D01*
X172203241Y-108425284D01*
X172025124Y-108306270D01*
X171827212Y-108224292D01*
X171617109Y-108182500D01*
X171402891Y-108182500D01*
X171192788Y-108224292D01*
X170994876Y-108306270D01*
X170816759Y-108425284D01*
X170665284Y-108576759D01*
X170546270Y-108754876D01*
X170464292Y-108952788D01*
X170422500Y-109162891D01*
X170057500Y-109162891D01*
X170015708Y-108952788D01*
X169933730Y-108754876D01*
X169814716Y-108576759D01*
X169663241Y-108425284D01*
X169485124Y-108306270D01*
X169287212Y-108224292D01*
X169077109Y-108182500D01*
X168862891Y-108182500D01*
X168652788Y-108224292D01*
X168454876Y-108306270D01*
X168276759Y-108425284D01*
X168125284Y-108576759D01*
X168006270Y-108754876D01*
X167924292Y-108952788D01*
X167882500Y-109162891D01*
X147642880Y-109162891D01*
X147633947Y-109141325D01*
X147574183Y-109051882D01*
X147498118Y-108975817D01*
X147408675Y-108916053D01*
X147309291Y-108874887D01*
X147203786Y-108853900D01*
X147096214Y-108853900D01*
X146990709Y-108874887D01*
X146891325Y-108916053D01*
X146801882Y-108975817D01*
X146725817Y-109051882D01*
X146666053Y-109141325D01*
X146650000Y-109180081D01*
X146633947Y-109141325D01*
X146574183Y-109051882D01*
X146498118Y-108975817D01*
X146408675Y-108916053D01*
X146309291Y-108874887D01*
X146203786Y-108853900D01*
X146096214Y-108853900D01*
X145990709Y-108874887D01*
X145891325Y-108916053D01*
X145801882Y-108975817D01*
X145725817Y-109051882D01*
X145666053Y-109141325D01*
X145624887Y-109240709D01*
X145603900Y-109346214D01*
X142037660Y-109346214D01*
X142046100Y-109303786D01*
X142046100Y-109196214D01*
X142025113Y-109090709D01*
X141983947Y-108991325D01*
X141924183Y-108901882D01*
X141848118Y-108825817D01*
X141758675Y-108766053D01*
X141659291Y-108724887D01*
X141553786Y-108703900D01*
X141546100Y-108703900D01*
X141546100Y-108696214D01*
X141525113Y-108590709D01*
X141483947Y-108491325D01*
X141424183Y-108401882D01*
X141348118Y-108325817D01*
X141258675Y-108266053D01*
X141159291Y-108224887D01*
X141053786Y-108203900D01*
X140946214Y-108203900D01*
X140840709Y-108224887D01*
X140741325Y-108266053D01*
X140651882Y-108325817D01*
X140639194Y-108338505D01*
X140646100Y-108303786D01*
X140646100Y-108196214D01*
X140625113Y-108090709D01*
X140583947Y-107991325D01*
X140524183Y-107901882D01*
X140448118Y-107825817D01*
X140358675Y-107766053D01*
X140259291Y-107724887D01*
X140153786Y-107703900D01*
X140046214Y-107703900D01*
X139940709Y-107724887D01*
X139841325Y-107766053D01*
X139751882Y-107825817D01*
X139675817Y-107901882D01*
X139616053Y-107991325D01*
X139574887Y-108090709D01*
X139553900Y-108196214D01*
X132842500Y-108196214D01*
X132842500Y-106696214D01*
X145103900Y-106696214D01*
X145103900Y-106803786D01*
X145124887Y-106909291D01*
X145166053Y-107008675D01*
X145225817Y-107098118D01*
X145301882Y-107174183D01*
X145391325Y-107233947D01*
X145490709Y-107275113D01*
X145596214Y-107296100D01*
X145703786Y-107296100D01*
X145809291Y-107275113D01*
X145908675Y-107233947D01*
X145965146Y-107196214D01*
X150953900Y-107196214D01*
X150953900Y-107303786D01*
X150974887Y-107409291D01*
X151016053Y-107508675D01*
X151075817Y-107598118D01*
X151151882Y-107674183D01*
X151241325Y-107733947D01*
X151340709Y-107775113D01*
X151446214Y-107796100D01*
X151553786Y-107796100D01*
X151553900Y-107796077D01*
X151553900Y-107803786D01*
X151574887Y-107909291D01*
X151616053Y-108008675D01*
X151675817Y-108098118D01*
X151751882Y-108174183D01*
X151841325Y-108233947D01*
X151940709Y-108275113D01*
X152046214Y-108296100D01*
X152153786Y-108296100D01*
X152259291Y-108275113D01*
X152358675Y-108233947D01*
X152448118Y-108174183D01*
X152524183Y-108098118D01*
X152583947Y-108008675D01*
X152625113Y-107909291D01*
X152646100Y-107803786D01*
X152646100Y-107696214D01*
X152625113Y-107590709D01*
X152583947Y-107491325D01*
X152524183Y-107401882D01*
X152448118Y-107325817D01*
X152358675Y-107266053D01*
X152319919Y-107250000D01*
X152358675Y-107233947D01*
X152448118Y-107174183D01*
X152524183Y-107098118D01*
X152583947Y-107008675D01*
X152625113Y-106909291D01*
X152646100Y-106803786D01*
X152646100Y-106696214D01*
X152631515Y-106622891D01*
X167882500Y-106622891D01*
X167882500Y-106837109D01*
X167924292Y-107047212D01*
X168006270Y-107245124D01*
X168125284Y-107423241D01*
X168276759Y-107574716D01*
X168454876Y-107693730D01*
X168652788Y-107775708D01*
X168862891Y-107817500D01*
X169077109Y-107817500D01*
X169287212Y-107775708D01*
X169485124Y-107693730D01*
X169663241Y-107574716D01*
X169814716Y-107423241D01*
X169933730Y-107245124D01*
X170015708Y-107047212D01*
X170057500Y-106837109D01*
X170057500Y-106622891D01*
X170422500Y-106622891D01*
X170422500Y-106837109D01*
X170464292Y-107047212D01*
X170546270Y-107245124D01*
X170665284Y-107423241D01*
X170816759Y-107574716D01*
X170994876Y-107693730D01*
X171192788Y-107775708D01*
X171402891Y-107817500D01*
X171617109Y-107817500D01*
X171827212Y-107775708D01*
X172025124Y-107693730D01*
X172203241Y-107574716D01*
X172354716Y-107423241D01*
X172473730Y-107245124D01*
X172555708Y-107047212D01*
X172597500Y-106837109D01*
X172597500Y-106622891D01*
X172555708Y-106412788D01*
X172473730Y-106214876D01*
X172354716Y-106036759D01*
X172203241Y-105885284D01*
X172025124Y-105766270D01*
X171827212Y-105684292D01*
X171617109Y-105642500D01*
X171402891Y-105642500D01*
X171192788Y-105684292D01*
X170994876Y-105766270D01*
X170816759Y-105885284D01*
X170665284Y-106036759D01*
X170546270Y-106214876D01*
X170464292Y-106412788D01*
X170422500Y-106622891D01*
X170057500Y-106622891D01*
X170015708Y-106412788D01*
X169933730Y-106214876D01*
X169814716Y-106036759D01*
X169663241Y-105885284D01*
X169485124Y-105766270D01*
X169287212Y-105684292D01*
X169077109Y-105642500D01*
X168862891Y-105642500D01*
X168652788Y-105684292D01*
X168454876Y-105766270D01*
X168276759Y-105885284D01*
X168125284Y-106036759D01*
X168006270Y-106214876D01*
X167924292Y-106412788D01*
X167882500Y-106622891D01*
X152631515Y-106622891D01*
X152625113Y-106590709D01*
X152583947Y-106491325D01*
X152524183Y-106401882D01*
X152448118Y-106325817D01*
X152358675Y-106266053D01*
X152259291Y-106224887D01*
X152153786Y-106203900D01*
X152046214Y-106203900D01*
X151940709Y-106224887D01*
X151841325Y-106266053D01*
X151751882Y-106325817D01*
X151675817Y-106401882D01*
X151616053Y-106491325D01*
X151574887Y-106590709D01*
X151553900Y-106696214D01*
X151553900Y-106703923D01*
X151553786Y-106703900D01*
X151446214Y-106703900D01*
X151340709Y-106724887D01*
X151241325Y-106766053D01*
X151151882Y-106825817D01*
X151075817Y-106901882D01*
X151016053Y-106991325D01*
X150974887Y-107090709D01*
X150953900Y-107196214D01*
X145965146Y-107196214D01*
X145998118Y-107174183D01*
X146074183Y-107098118D01*
X146133947Y-107008675D01*
X146175113Y-106909291D01*
X146196100Y-106803786D01*
X146196100Y-106696214D01*
X146175113Y-106590709D01*
X146133947Y-106491325D01*
X146074183Y-106401882D01*
X145998118Y-106325817D01*
X145908675Y-106266053D01*
X145809291Y-106224887D01*
X145703786Y-106203900D01*
X145596214Y-106203900D01*
X145490709Y-106224887D01*
X145391325Y-106266053D01*
X145301882Y-106325817D01*
X145225817Y-106401882D01*
X145166053Y-106491325D01*
X145124887Y-106590709D01*
X145103900Y-106696214D01*
X132842500Y-106696214D01*
X132842500Y-104696214D01*
X142603900Y-104696214D01*
X142603900Y-104803786D01*
X142624887Y-104909291D01*
X142666053Y-105008675D01*
X142725817Y-105098118D01*
X142801882Y-105174183D01*
X142891325Y-105233947D01*
X142930081Y-105250000D01*
X142891325Y-105266053D01*
X142801882Y-105325817D01*
X142725817Y-105401882D01*
X142666053Y-105491325D01*
X142624887Y-105590709D01*
X142603900Y-105696214D01*
X142603900Y-105803786D01*
X142624887Y-105909291D01*
X142666053Y-106008675D01*
X142725817Y-106098118D01*
X142801882Y-106174183D01*
X142891325Y-106233947D01*
X142990709Y-106275113D01*
X143096214Y-106296100D01*
X143203786Y-106296100D01*
X143309291Y-106275113D01*
X143408675Y-106233947D01*
X143498118Y-106174183D01*
X143574183Y-106098118D01*
X143633947Y-106008675D01*
X143675113Y-105909291D01*
X143696100Y-105803786D01*
X143696100Y-105696214D01*
X143675113Y-105590709D01*
X143633947Y-105491325D01*
X143574183Y-105401882D01*
X143498118Y-105325817D01*
X143408675Y-105266053D01*
X143369919Y-105250000D01*
X143408675Y-105233947D01*
X143498118Y-105174183D01*
X143525000Y-105147301D01*
X143551882Y-105174183D01*
X143641325Y-105233947D01*
X143740709Y-105275113D01*
X143846214Y-105296100D01*
X143953786Y-105296100D01*
X144059291Y-105275113D01*
X144158675Y-105233947D01*
X144248118Y-105174183D01*
X144275000Y-105147301D01*
X144301882Y-105174183D01*
X144391325Y-105233947D01*
X144430081Y-105250000D01*
X144391325Y-105266053D01*
X144301882Y-105325817D01*
X144225817Y-105401882D01*
X144166053Y-105491325D01*
X144124887Y-105590709D01*
X144103900Y-105696214D01*
X144103900Y-105803786D01*
X144124887Y-105909291D01*
X144166053Y-106008675D01*
X144225817Y-106098118D01*
X144301882Y-106174183D01*
X144391325Y-106233947D01*
X144490709Y-106275113D01*
X144596214Y-106296100D01*
X144703786Y-106296100D01*
X144809291Y-106275113D01*
X144908675Y-106233947D01*
X144965146Y-106196214D01*
X146103900Y-106196214D01*
X146103900Y-106303786D01*
X146124887Y-106409291D01*
X146166053Y-106508675D01*
X146225817Y-106598118D01*
X146301882Y-106674183D01*
X146391325Y-106733947D01*
X146490709Y-106775113D01*
X146596214Y-106796100D01*
X146703786Y-106796100D01*
X146809291Y-106775113D01*
X146908675Y-106733947D01*
X146998118Y-106674183D01*
X147074183Y-106598118D01*
X147133947Y-106508675D01*
X147175113Y-106409291D01*
X147196100Y-106303786D01*
X147196100Y-106196214D01*
X147175113Y-106090709D01*
X147133947Y-105991325D01*
X147074183Y-105901882D01*
X146998118Y-105825817D01*
X146908675Y-105766053D01*
X146809291Y-105724887D01*
X146703786Y-105703900D01*
X146596214Y-105703900D01*
X146490709Y-105724887D01*
X146391325Y-105766053D01*
X146301882Y-105825817D01*
X146225817Y-105901882D01*
X146166053Y-105991325D01*
X146124887Y-106090709D01*
X146103900Y-106196214D01*
X144965146Y-106196214D01*
X144998118Y-106174183D01*
X145074183Y-106098118D01*
X145133947Y-106008675D01*
X145175113Y-105909291D01*
X145196100Y-105803786D01*
X145196100Y-105696214D01*
X145175113Y-105590709D01*
X145133947Y-105491325D01*
X145074183Y-105401882D01*
X144998118Y-105325817D01*
X144908675Y-105266053D01*
X144869919Y-105250000D01*
X144908675Y-105233947D01*
X144965146Y-105196214D01*
X147603900Y-105196214D01*
X147603900Y-105303786D01*
X147624887Y-105409291D01*
X147666053Y-105508675D01*
X147725817Y-105598118D01*
X147801882Y-105674183D01*
X147891325Y-105733947D01*
X147990709Y-105775113D01*
X148096214Y-105796100D01*
X148203786Y-105796100D01*
X148309291Y-105775113D01*
X148408675Y-105733947D01*
X148498118Y-105674183D01*
X148574183Y-105598118D01*
X148633947Y-105508675D01*
X148675113Y-105409291D01*
X148696100Y-105303786D01*
X148696100Y-105196214D01*
X148675113Y-105090709D01*
X148633947Y-104991325D01*
X148574183Y-104901882D01*
X148498118Y-104825817D01*
X148408675Y-104766053D01*
X148309291Y-104724887D01*
X148203786Y-104703900D01*
X148096214Y-104703900D01*
X147990709Y-104724887D01*
X147891325Y-104766053D01*
X147801882Y-104825817D01*
X147725817Y-104901882D01*
X147666053Y-104991325D01*
X147624887Y-105090709D01*
X147603900Y-105196214D01*
X144965146Y-105196214D01*
X144998118Y-105174183D01*
X145074183Y-105098118D01*
X145133947Y-105008675D01*
X145175113Y-104909291D01*
X145196100Y-104803786D01*
X145196100Y-104696214D01*
X145175113Y-104590709D01*
X145133947Y-104491325D01*
X145074183Y-104401882D01*
X144998118Y-104325817D01*
X144908675Y-104266053D01*
X144809291Y-104224887D01*
X144703786Y-104203900D01*
X144596214Y-104203900D01*
X144490709Y-104224887D01*
X144391325Y-104266053D01*
X144301882Y-104325817D01*
X144275000Y-104352699D01*
X144248118Y-104325817D01*
X144158675Y-104266053D01*
X144059291Y-104224887D01*
X143953786Y-104203900D01*
X143846214Y-104203900D01*
X143740709Y-104224887D01*
X143641325Y-104266053D01*
X143551882Y-104325817D01*
X143525000Y-104352699D01*
X143498118Y-104325817D01*
X143408675Y-104266053D01*
X143309291Y-104224887D01*
X143203786Y-104203900D01*
X143096214Y-104203900D01*
X142990709Y-104224887D01*
X142891325Y-104266053D01*
X142801882Y-104325817D01*
X142725817Y-104401882D01*
X142666053Y-104491325D01*
X142624887Y-104590709D01*
X142603900Y-104696214D01*
X132842500Y-104696214D01*
X132842500Y-104035797D01*
X134014006Y-104035797D01*
X134154492Y-104246831D01*
X134430358Y-104394090D01*
X134729653Y-104484701D01*
X135040875Y-104515181D01*
X135352062Y-104484360D01*
X135651258Y-104393420D01*
X135925508Y-104246831D01*
X135992489Y-104146214D01*
X152553900Y-104146214D01*
X152553900Y-104253786D01*
X152574887Y-104359291D01*
X152616053Y-104458675D01*
X152675817Y-104548118D01*
X152751882Y-104624183D01*
X152841325Y-104683947D01*
X152940709Y-104725113D01*
X153046214Y-104746100D01*
X153153786Y-104746100D01*
X153259291Y-104725113D01*
X153358675Y-104683947D01*
X153448118Y-104624183D01*
X153524183Y-104548118D01*
X153583947Y-104458675D01*
X153625113Y-104359291D01*
X153646100Y-104253786D01*
X153646100Y-104146214D01*
X155553900Y-104146214D01*
X155553900Y-104253786D01*
X155574887Y-104359291D01*
X155616053Y-104458675D01*
X155675817Y-104548118D01*
X155751882Y-104624183D01*
X155841325Y-104683947D01*
X155940709Y-104725113D01*
X156046214Y-104746100D01*
X156153786Y-104746100D01*
X156259291Y-104725113D01*
X156358675Y-104683947D01*
X156448118Y-104624183D01*
X156524183Y-104548118D01*
X156583947Y-104458675D01*
X156625113Y-104359291D01*
X156646100Y-104253786D01*
X156646100Y-104146214D01*
X156633504Y-104082891D01*
X167882500Y-104082891D01*
X167882500Y-104297109D01*
X167924292Y-104507212D01*
X168006270Y-104705124D01*
X168125284Y-104883241D01*
X168276759Y-105034716D01*
X168454876Y-105153730D01*
X168652788Y-105235708D01*
X168862891Y-105277500D01*
X169077109Y-105277500D01*
X169287212Y-105235708D01*
X169485124Y-105153730D01*
X169663241Y-105034716D01*
X169814716Y-104883241D01*
X169933730Y-104705124D01*
X170015708Y-104507212D01*
X170057500Y-104297109D01*
X170057500Y-104082891D01*
X170422500Y-104082891D01*
X170422500Y-104297109D01*
X170464292Y-104507212D01*
X170546270Y-104705124D01*
X170665284Y-104883241D01*
X170816759Y-105034716D01*
X170994876Y-105153730D01*
X171192788Y-105235708D01*
X171402891Y-105277500D01*
X171617109Y-105277500D01*
X171827212Y-105235708D01*
X172025124Y-105153730D01*
X172203241Y-105034716D01*
X172354716Y-104883241D01*
X172473730Y-104705124D01*
X172555708Y-104507212D01*
X172597500Y-104297109D01*
X172597500Y-104082891D01*
X172588133Y-104035797D01*
X173934006Y-104035797D01*
X174074492Y-104246831D01*
X174350358Y-104394090D01*
X174649653Y-104484701D01*
X174960875Y-104515181D01*
X175272062Y-104484360D01*
X175571258Y-104393420D01*
X175845508Y-104246831D01*
X175985994Y-104035797D01*
X174960000Y-103009803D01*
X173934006Y-104035797D01*
X172588133Y-104035797D01*
X172555708Y-103872788D01*
X172473730Y-103674876D01*
X172354716Y-103496759D01*
X172203241Y-103345284D01*
X172025124Y-103226270D01*
X171827212Y-103144292D01*
X171617109Y-103102500D01*
X171402891Y-103102500D01*
X171192788Y-103144292D01*
X170994876Y-103226270D01*
X170816759Y-103345284D01*
X170665284Y-103496759D01*
X170546270Y-103674876D01*
X170464292Y-103872788D01*
X170422500Y-104082891D01*
X170057500Y-104082891D01*
X170015708Y-103872788D01*
X169933730Y-103674876D01*
X169814716Y-103496759D01*
X169663241Y-103345284D01*
X169485124Y-103226270D01*
X169287212Y-103144292D01*
X169077109Y-103102500D01*
X168862891Y-103102500D01*
X168652788Y-103144292D01*
X168454876Y-103226270D01*
X168276759Y-103345284D01*
X168125284Y-103496759D01*
X168006270Y-103674876D01*
X167924292Y-103872788D01*
X167882500Y-104082891D01*
X156633504Y-104082891D01*
X156625113Y-104040709D01*
X156583947Y-103941325D01*
X156524183Y-103851882D01*
X156448118Y-103775817D01*
X156358675Y-103716053D01*
X156259291Y-103674887D01*
X156153786Y-103653900D01*
X156046214Y-103653900D01*
X155940709Y-103674887D01*
X155841325Y-103716053D01*
X155751882Y-103775817D01*
X155675817Y-103851882D01*
X155616053Y-103941325D01*
X155574887Y-104040709D01*
X155553900Y-104146214D01*
X153646100Y-104146214D01*
X153625113Y-104040709D01*
X153583947Y-103941325D01*
X153524183Y-103851882D01*
X153448118Y-103775817D01*
X153358675Y-103716053D01*
X153259291Y-103674887D01*
X153153786Y-103653900D01*
X153046214Y-103653900D01*
X152940709Y-103674887D01*
X152841325Y-103716053D01*
X152751882Y-103775817D01*
X152675817Y-103851882D01*
X152616053Y-103941325D01*
X152574887Y-104040709D01*
X152553900Y-104146214D01*
X135992489Y-104146214D01*
X136065994Y-104035797D01*
X135040000Y-103009803D01*
X134014006Y-104035797D01*
X132842500Y-104035797D01*
X132842500Y-102920875D01*
X133444819Y-102920875D01*
X133475640Y-103232062D01*
X133566580Y-103531258D01*
X133713169Y-103805508D01*
X133924203Y-103945994D01*
X134950197Y-102920000D01*
X135129803Y-102920000D01*
X136155797Y-103945994D01*
X136366831Y-103805508D01*
X136514090Y-103529642D01*
X136604701Y-103230347D01*
X136635009Y-102920875D01*
X173364819Y-102920875D01*
X173395640Y-103232062D01*
X173486580Y-103531258D01*
X173633169Y-103805508D01*
X173844203Y-103945994D01*
X174870197Y-102920000D01*
X175049803Y-102920000D01*
X176075797Y-103945994D01*
X176286831Y-103805508D01*
X176434090Y-103529642D01*
X176524701Y-103230347D01*
X176555181Y-102919125D01*
X176524360Y-102607938D01*
X176433420Y-102308742D01*
X176286831Y-102034492D01*
X176075797Y-101894006D01*
X175049803Y-102920000D01*
X174870197Y-102920000D01*
X173844203Y-101894006D01*
X173633169Y-102034492D01*
X173485910Y-102310358D01*
X173395299Y-102609653D01*
X173364819Y-102920875D01*
X136635009Y-102920875D01*
X136635181Y-102919125D01*
X136604360Y-102607938D01*
X136513420Y-102308742D01*
X136366831Y-102034492D01*
X136155797Y-101894006D01*
X135129803Y-102920000D01*
X134950197Y-102920000D01*
X133924203Y-101894006D01*
X133713169Y-102034492D01*
X133565910Y-102310358D01*
X133475299Y-102609653D01*
X133444819Y-102920875D01*
X132842500Y-102920875D01*
X132842500Y-101804203D01*
X134014006Y-101804203D01*
X135040000Y-102830197D01*
X136065994Y-101804203D01*
X135925508Y-101593169D01*
X135831321Y-101542891D01*
X167882500Y-101542891D01*
X167882500Y-101757109D01*
X167924292Y-101967212D01*
X168006270Y-102165124D01*
X168125284Y-102343241D01*
X168276759Y-102494716D01*
X168454876Y-102613730D01*
X168652788Y-102695708D01*
X168862891Y-102737500D01*
X169077109Y-102737500D01*
X169287212Y-102695708D01*
X169485124Y-102613730D01*
X169663241Y-102494716D01*
X169814716Y-102343241D01*
X169933730Y-102165124D01*
X170015708Y-101967212D01*
X170057500Y-101757109D01*
X170057500Y-101542891D01*
X170422500Y-101542891D01*
X170422500Y-101757109D01*
X170464292Y-101967212D01*
X170546270Y-102165124D01*
X170665284Y-102343241D01*
X170816759Y-102494716D01*
X170994876Y-102613730D01*
X171192788Y-102695708D01*
X171402891Y-102737500D01*
X171617109Y-102737500D01*
X171827212Y-102695708D01*
X172025124Y-102613730D01*
X172203241Y-102494716D01*
X172354716Y-102343241D01*
X172473730Y-102165124D01*
X172555708Y-101967212D01*
X172588132Y-101804203D01*
X173934006Y-101804203D01*
X174960000Y-102830197D01*
X175985994Y-101804203D01*
X175845508Y-101593169D01*
X175569642Y-101445910D01*
X175270347Y-101355299D01*
X174959125Y-101324819D01*
X174647938Y-101355640D01*
X174348742Y-101446580D01*
X174074492Y-101593169D01*
X173934006Y-101804203D01*
X172588132Y-101804203D01*
X172597500Y-101757109D01*
X172597500Y-101542891D01*
X172555708Y-101332788D01*
X172473730Y-101134876D01*
X172354716Y-100956759D01*
X172203241Y-100805284D01*
X172025124Y-100686270D01*
X171827212Y-100604292D01*
X171617109Y-100562500D01*
X171402891Y-100562500D01*
X171192788Y-100604292D01*
X170994876Y-100686270D01*
X170816759Y-100805284D01*
X170665284Y-100956759D01*
X170546270Y-101134876D01*
X170464292Y-101332788D01*
X170422500Y-101542891D01*
X170057500Y-101542891D01*
X170015708Y-101332788D01*
X169933730Y-101134876D01*
X169814716Y-100956759D01*
X169663241Y-100805284D01*
X169485124Y-100686270D01*
X169287212Y-100604292D01*
X169077109Y-100562500D01*
X168862891Y-100562500D01*
X168652788Y-100604292D01*
X168454876Y-100686270D01*
X168276759Y-100805284D01*
X168125284Y-100956759D01*
X168006270Y-101134876D01*
X167924292Y-101332788D01*
X167882500Y-101542891D01*
X135831321Y-101542891D01*
X135649642Y-101445910D01*
X135350347Y-101355299D01*
X135039125Y-101324819D01*
X134727938Y-101355640D01*
X134428742Y-101446580D01*
X134154492Y-101593169D01*
X134014006Y-101804203D01*
X132842500Y-101804203D01*
X132842500Y-99846214D01*
X138953900Y-99846214D01*
X138953900Y-99953786D01*
X138974887Y-100059291D01*
X139016053Y-100158675D01*
X139075817Y-100248118D01*
X139151882Y-100324183D01*
X139241325Y-100383947D01*
X139340709Y-100425113D01*
X139446214Y-100446100D01*
X139553786Y-100446100D01*
X139659291Y-100425113D01*
X139758675Y-100383947D01*
X139848118Y-100324183D01*
X139924183Y-100248118D01*
X139983947Y-100158675D01*
X140025113Y-100059291D01*
X140046100Y-99953786D01*
X140046100Y-99846214D01*
X147753900Y-99846214D01*
X147753900Y-99953786D01*
X147774887Y-100059291D01*
X147816053Y-100158675D01*
X147875817Y-100248118D01*
X147951882Y-100324183D01*
X148041325Y-100383947D01*
X148140709Y-100425113D01*
X148246214Y-100446100D01*
X148353786Y-100446100D01*
X148459291Y-100425113D01*
X148558675Y-100383947D01*
X148648118Y-100324183D01*
X148724183Y-100248118D01*
X148783947Y-100158675D01*
X148825113Y-100059291D01*
X148846100Y-99953786D01*
X148846100Y-99846214D01*
X148825113Y-99740709D01*
X148783947Y-99641325D01*
X148724183Y-99551882D01*
X148648118Y-99475817D01*
X148558675Y-99416053D01*
X148459291Y-99374887D01*
X148353786Y-99353900D01*
X148246214Y-99353900D01*
X148140709Y-99374887D01*
X148041325Y-99416053D01*
X147951882Y-99475817D01*
X147875817Y-99551882D01*
X147816053Y-99641325D01*
X147774887Y-99740709D01*
X147753900Y-99846214D01*
X140046100Y-99846214D01*
X140025113Y-99740709D01*
X139983947Y-99641325D01*
X139924183Y-99551882D01*
X139848118Y-99475817D01*
X139758675Y-99416053D01*
X139659291Y-99374887D01*
X139553786Y-99353900D01*
X139446214Y-99353900D01*
X139340709Y-99374887D01*
X139241325Y-99416053D01*
X139151882Y-99475817D01*
X139075817Y-99551882D01*
X139016053Y-99641325D01*
X138974887Y-99740709D01*
X138953900Y-99846214D01*
X132842500Y-99846214D01*
X132842500Y-99351214D01*
X167653900Y-99351214D01*
X167653900Y-99458786D01*
X167674887Y-99564291D01*
X167716053Y-99663675D01*
X167775817Y-99753118D01*
X167851882Y-99829183D01*
X167941325Y-99888947D01*
X168040709Y-99930113D01*
X168146214Y-99951100D01*
X168253786Y-99951100D01*
X168359291Y-99930113D01*
X168458675Y-99888947D01*
X168548118Y-99829183D01*
X168624183Y-99753118D01*
X168683947Y-99663675D01*
X168725113Y-99564291D01*
X168746100Y-99458786D01*
X168746100Y-99351214D01*
X168725113Y-99245709D01*
X168683947Y-99146325D01*
X168624183Y-99056882D01*
X168548118Y-98980817D01*
X168458675Y-98921053D01*
X168359291Y-98879887D01*
X168253786Y-98858900D01*
X168146214Y-98858900D01*
X168040709Y-98879887D01*
X167941325Y-98921053D01*
X167851882Y-98980817D01*
X167775817Y-99056882D01*
X167716053Y-99146325D01*
X167674887Y-99245709D01*
X167653900Y-99351214D01*
X132842500Y-99351214D01*
X132842500Y-98081214D01*
X157653900Y-98081214D01*
X157653900Y-98188786D01*
X157674887Y-98294291D01*
X157716053Y-98393675D01*
X157775817Y-98483118D01*
X157851882Y-98559183D01*
X157941325Y-98618947D01*
X158040709Y-98660113D01*
X158146214Y-98681100D01*
X158253786Y-98681100D01*
X158359291Y-98660113D01*
X158458675Y-98618947D01*
X158548118Y-98559183D01*
X158624183Y-98483118D01*
X158683947Y-98393675D01*
X158725113Y-98294291D01*
X158746100Y-98188786D01*
X158746100Y-98081214D01*
X167653900Y-98081214D01*
X167653900Y-98188786D01*
X167674887Y-98294291D01*
X167716053Y-98393675D01*
X167775817Y-98483118D01*
X167851882Y-98559183D01*
X167941325Y-98618947D01*
X168040709Y-98660113D01*
X168146214Y-98681100D01*
X168253786Y-98681100D01*
X168359291Y-98660113D01*
X168458675Y-98618947D01*
X168548118Y-98559183D01*
X168624183Y-98483118D01*
X168683947Y-98393675D01*
X168725113Y-98294291D01*
X168746100Y-98188786D01*
X168746100Y-98081214D01*
X168725113Y-97975709D01*
X168683947Y-97876325D01*
X168624183Y-97786882D01*
X168548118Y-97710817D01*
X168458675Y-97651053D01*
X168359291Y-97609887D01*
X168253786Y-97588900D01*
X168146214Y-97588900D01*
X168040709Y-97609887D01*
X167941325Y-97651053D01*
X167851882Y-97710817D01*
X167775817Y-97786882D01*
X167716053Y-97876325D01*
X167674887Y-97975709D01*
X167653900Y-98081214D01*
X158746100Y-98081214D01*
X158725113Y-97975709D01*
X158683947Y-97876325D01*
X158624183Y-97786882D01*
X158548118Y-97710817D01*
X158458675Y-97651053D01*
X158359291Y-97609887D01*
X158253786Y-97588900D01*
X158146214Y-97588900D01*
X158040709Y-97609887D01*
X157941325Y-97651053D01*
X157851882Y-97710817D01*
X157775817Y-97786882D01*
X157716053Y-97876325D01*
X157674887Y-97975709D01*
X157653900Y-98081214D01*
X132842500Y-98081214D01*
X132842500Y-96811214D01*
X157653900Y-96811214D01*
X157653900Y-96918786D01*
X157674887Y-97024291D01*
X157716053Y-97123675D01*
X157775817Y-97213118D01*
X157851882Y-97289183D01*
X157941325Y-97348947D01*
X158040709Y-97390113D01*
X158146214Y-97411100D01*
X158253786Y-97411100D01*
X158359291Y-97390113D01*
X158458675Y-97348947D01*
X158548118Y-97289183D01*
X158624183Y-97213118D01*
X158683947Y-97123675D01*
X158725113Y-97024291D01*
X158746100Y-96918786D01*
X158746100Y-96811214D01*
X167653900Y-96811214D01*
X167653900Y-96918786D01*
X167674887Y-97024291D01*
X167716053Y-97123675D01*
X167775817Y-97213118D01*
X167851882Y-97289183D01*
X167941325Y-97348947D01*
X168040709Y-97390113D01*
X168146214Y-97411100D01*
X168253786Y-97411100D01*
X168359291Y-97390113D01*
X168458675Y-97348947D01*
X168548118Y-97289183D01*
X168624183Y-97213118D01*
X168683947Y-97123675D01*
X168725113Y-97024291D01*
X168746100Y-96918786D01*
X168746100Y-96811214D01*
X168725113Y-96705709D01*
X168683947Y-96606325D01*
X168624183Y-96516882D01*
X168548118Y-96440817D01*
X168458675Y-96381053D01*
X168359291Y-96339887D01*
X168253786Y-96318900D01*
X168146214Y-96318900D01*
X168040709Y-96339887D01*
X167941325Y-96381053D01*
X167851882Y-96440817D01*
X167775817Y-96516882D01*
X167716053Y-96606325D01*
X167674887Y-96705709D01*
X167653900Y-96811214D01*
X158746100Y-96811214D01*
X158725113Y-96705709D01*
X158683947Y-96606325D01*
X158624183Y-96516882D01*
X158548118Y-96440817D01*
X158458675Y-96381053D01*
X158359291Y-96339887D01*
X158253786Y-96318900D01*
X158146214Y-96318900D01*
X158040709Y-96339887D01*
X157941325Y-96381053D01*
X157851882Y-96440817D01*
X157775817Y-96516882D01*
X157716053Y-96606325D01*
X157674887Y-96705709D01*
X157653900Y-96811214D01*
X132842500Y-96811214D01*
X132842500Y-95546214D01*
X167653900Y-95546214D01*
X167653900Y-95653786D01*
X167674887Y-95759291D01*
X167716053Y-95858675D01*
X167775817Y-95948118D01*
X167851882Y-96024183D01*
X167941325Y-96083947D01*
X168040709Y-96125113D01*
X168146214Y-96146100D01*
X168253786Y-96146100D01*
X168359291Y-96125113D01*
X168458675Y-96083947D01*
X168548118Y-96024183D01*
X168624183Y-95948118D01*
X168683947Y-95858675D01*
X168725113Y-95759291D01*
X168746100Y-95653786D01*
X168746100Y-95546214D01*
X168725113Y-95440709D01*
X168683947Y-95341325D01*
X168624183Y-95251882D01*
X168548118Y-95175817D01*
X168458675Y-95116053D01*
X168359291Y-95074887D01*
X168253786Y-95053900D01*
X168146214Y-95053900D01*
X168040709Y-95074887D01*
X167941325Y-95116053D01*
X167851882Y-95175817D01*
X167775817Y-95251882D01*
X167716053Y-95341325D01*
X167674887Y-95440709D01*
X167653900Y-95546214D01*
X132842500Y-95546214D01*
X132842500Y-91946214D01*
X152553900Y-91946214D01*
X152553900Y-92053786D01*
X152574887Y-92159291D01*
X152616053Y-92258675D01*
X152675817Y-92348118D01*
X152751882Y-92424183D01*
X152841325Y-92483947D01*
X152940709Y-92525113D01*
X153046214Y-92546100D01*
X153153786Y-92546100D01*
X153259291Y-92525113D01*
X153358675Y-92483947D01*
X153448118Y-92424183D01*
X153524183Y-92348118D01*
X153583947Y-92258675D01*
X153625113Y-92159291D01*
X153646100Y-92053786D01*
X153646100Y-91946214D01*
X153625113Y-91840709D01*
X153583947Y-91741325D01*
X153524183Y-91651882D01*
X153448118Y-91575817D01*
X153358675Y-91516053D01*
X153259291Y-91474887D01*
X153153786Y-91453900D01*
X153046214Y-91453900D01*
X152940709Y-91474887D01*
X152841325Y-91516053D01*
X152751882Y-91575817D01*
X152675817Y-91651882D01*
X152616053Y-91741325D01*
X152574887Y-91840709D01*
X152553900Y-91946214D01*
X132842500Y-91946214D01*
X132842500Y-88842891D01*
X134862500Y-88842891D01*
X134862500Y-89057109D01*
X134904292Y-89267212D01*
X134986270Y-89465124D01*
X135105284Y-89643241D01*
X135256759Y-89794716D01*
X135434876Y-89913730D01*
X135632788Y-89995708D01*
X135842891Y-90037500D01*
X136057109Y-90037500D01*
X136267212Y-89995708D01*
X136465124Y-89913730D01*
X136643241Y-89794716D01*
X136794716Y-89643241D01*
X136913730Y-89465124D01*
X136995708Y-89267212D01*
X137037500Y-89057109D01*
X137037500Y-88842891D01*
X137402500Y-88842891D01*
X137402500Y-89057109D01*
X137444292Y-89267212D01*
X137526270Y-89465124D01*
X137645284Y-89643241D01*
X137796759Y-89794716D01*
X137974876Y-89913730D01*
X138172788Y-89995708D01*
X138382891Y-90037500D01*
X138597109Y-90037500D01*
X138807212Y-89995708D01*
X139005124Y-89913730D01*
X139183241Y-89794716D01*
X139267891Y-89710066D01*
X140359736Y-89710066D01*
X140440149Y-89869893D01*
X140630945Y-89967291D01*
X140837077Y-90025596D01*
X141050622Y-90042566D01*
X141263375Y-90017550D01*
X141467160Y-89951509D01*
X141619851Y-89869893D01*
X141700264Y-89710066D01*
X141030000Y-89039803D01*
X140359736Y-89710066D01*
X139267891Y-89710066D01*
X139334716Y-89643241D01*
X139453730Y-89465124D01*
X139535708Y-89267212D01*
X139577500Y-89057109D01*
X139577500Y-88970622D01*
X139937434Y-88970622D01*
X139962450Y-89183375D01*
X140028491Y-89387160D01*
X140110107Y-89539851D01*
X140269934Y-89620264D01*
X140940197Y-88950000D01*
X141119803Y-88950000D01*
X141790066Y-89620264D01*
X141949893Y-89539851D01*
X142047291Y-89349055D01*
X142105596Y-89142923D01*
X142122566Y-88929378D01*
X142112397Y-88842891D01*
X142482500Y-88842891D01*
X142482500Y-89057109D01*
X142524292Y-89267212D01*
X142606270Y-89465124D01*
X142725284Y-89643241D01*
X142876759Y-89794716D01*
X143054876Y-89913730D01*
X143252788Y-89995708D01*
X143462891Y-90037500D01*
X143677109Y-90037500D01*
X143887212Y-89995708D01*
X144085124Y-89913730D01*
X144263241Y-89794716D01*
X144414716Y-89643241D01*
X144533730Y-89465124D01*
X144615708Y-89267212D01*
X144657500Y-89057109D01*
X144657500Y-88842891D01*
X145022500Y-88842891D01*
X145022500Y-89057109D01*
X145064292Y-89267212D01*
X145146270Y-89465124D01*
X145265284Y-89643241D01*
X145416759Y-89794716D01*
X145594876Y-89913730D01*
X145792788Y-89995708D01*
X146002891Y-90037500D01*
X146217109Y-90037500D01*
X146427212Y-89995708D01*
X146625124Y-89913730D01*
X146803241Y-89794716D01*
X146954716Y-89643241D01*
X147073730Y-89465124D01*
X147155708Y-89267212D01*
X147197500Y-89057109D01*
X147197500Y-88842891D01*
X147562500Y-88842891D01*
X147562500Y-89057109D01*
X147604292Y-89267212D01*
X147686270Y-89465124D01*
X147805284Y-89643241D01*
X147956759Y-89794716D01*
X148134876Y-89913730D01*
X148332788Y-89995708D01*
X148542891Y-90037500D01*
X148757109Y-90037500D01*
X148967212Y-89995708D01*
X149165124Y-89913730D01*
X149343241Y-89794716D01*
X149494716Y-89643241D01*
X149613730Y-89465124D01*
X149695708Y-89267212D01*
X149737500Y-89057109D01*
X149737500Y-88842891D01*
X150102500Y-88842891D01*
X150102500Y-89057109D01*
X150144292Y-89267212D01*
X150226270Y-89465124D01*
X150345284Y-89643241D01*
X150496759Y-89794716D01*
X150674876Y-89913730D01*
X150872788Y-89995708D01*
X151082891Y-90037500D01*
X151297109Y-90037500D01*
X151507212Y-89995708D01*
X151705124Y-89913730D01*
X151883241Y-89794716D01*
X152034716Y-89643241D01*
X152153730Y-89465124D01*
X152235708Y-89267212D01*
X152277500Y-89057109D01*
X152277500Y-88842891D01*
X152642500Y-88842891D01*
X152642500Y-89057109D01*
X152684292Y-89267212D01*
X152766270Y-89465124D01*
X152885284Y-89643241D01*
X153036759Y-89794716D01*
X153214876Y-89913730D01*
X153412788Y-89995708D01*
X153622891Y-90037500D01*
X153837109Y-90037500D01*
X154047212Y-89995708D01*
X154245124Y-89913730D01*
X154423241Y-89794716D01*
X154574716Y-89643241D01*
X154693730Y-89465124D01*
X154775708Y-89267212D01*
X154817500Y-89057109D01*
X154817500Y-88842891D01*
X155182500Y-88842891D01*
X155182500Y-89057109D01*
X155224292Y-89267212D01*
X155306270Y-89465124D01*
X155425284Y-89643241D01*
X155576759Y-89794716D01*
X155754876Y-89913730D01*
X155952788Y-89995708D01*
X156162891Y-90037500D01*
X156377109Y-90037500D01*
X156587212Y-89995708D01*
X156785124Y-89913730D01*
X156963241Y-89794716D01*
X157114716Y-89643241D01*
X157233730Y-89465124D01*
X157315708Y-89267212D01*
X157357500Y-89057109D01*
X157357500Y-88842891D01*
X157722500Y-88842891D01*
X157722500Y-89057109D01*
X157764292Y-89267212D01*
X157846270Y-89465124D01*
X157965284Y-89643241D01*
X158116759Y-89794716D01*
X158294876Y-89913730D01*
X158492788Y-89995708D01*
X158702891Y-90037500D01*
X158917109Y-90037500D01*
X159127212Y-89995708D01*
X159325124Y-89913730D01*
X159503241Y-89794716D01*
X159654716Y-89643241D01*
X159773730Y-89465124D01*
X159855708Y-89267212D01*
X159897500Y-89057109D01*
X159897500Y-88842891D01*
X160262500Y-88842891D01*
X160262500Y-89057109D01*
X160304292Y-89267212D01*
X160386270Y-89465124D01*
X160505284Y-89643241D01*
X160656759Y-89794716D01*
X160834876Y-89913730D01*
X161032788Y-89995708D01*
X161242891Y-90037500D01*
X161457109Y-90037500D01*
X161667212Y-89995708D01*
X161865124Y-89913730D01*
X162043241Y-89794716D01*
X162194716Y-89643241D01*
X162313730Y-89465124D01*
X162395708Y-89267212D01*
X162437500Y-89057109D01*
X162437500Y-88842891D01*
X162802500Y-88842891D01*
X162802500Y-89057109D01*
X162844292Y-89267212D01*
X162926270Y-89465124D01*
X163045284Y-89643241D01*
X163196759Y-89794716D01*
X163374876Y-89913730D01*
X163572788Y-89995708D01*
X163782891Y-90037500D01*
X163997109Y-90037500D01*
X164207212Y-89995708D01*
X164405124Y-89913730D01*
X164583241Y-89794716D01*
X164734716Y-89643241D01*
X164853730Y-89465124D01*
X164935708Y-89267212D01*
X164977500Y-89057109D01*
X164977500Y-88842891D01*
X165342500Y-88842891D01*
X165342500Y-89057109D01*
X165384292Y-89267212D01*
X165466270Y-89465124D01*
X165585284Y-89643241D01*
X165736759Y-89794716D01*
X165914876Y-89913730D01*
X166112788Y-89995708D01*
X166322891Y-90037500D01*
X166537109Y-90037500D01*
X166747212Y-89995708D01*
X166945124Y-89913730D01*
X167123241Y-89794716D01*
X167274716Y-89643241D01*
X167393730Y-89465124D01*
X167475708Y-89267212D01*
X167517500Y-89057109D01*
X167517500Y-88842891D01*
X167882500Y-88842891D01*
X167882500Y-89057109D01*
X167924292Y-89267212D01*
X168006270Y-89465124D01*
X168125284Y-89643241D01*
X168276759Y-89794716D01*
X168454876Y-89913730D01*
X168652788Y-89995708D01*
X168862891Y-90037500D01*
X169077109Y-90037500D01*
X169287212Y-89995708D01*
X169485124Y-89913730D01*
X169663241Y-89794716D01*
X169814716Y-89643241D01*
X169933730Y-89465124D01*
X170015708Y-89267212D01*
X170057500Y-89057109D01*
X170057500Y-88842891D01*
X170422500Y-88842891D01*
X170422500Y-89057109D01*
X170464292Y-89267212D01*
X170546270Y-89465124D01*
X170665284Y-89643241D01*
X170816759Y-89794716D01*
X170994876Y-89913730D01*
X171192788Y-89995708D01*
X171402891Y-90037500D01*
X171617109Y-90037500D01*
X171827212Y-89995708D01*
X172025124Y-89913730D01*
X172203241Y-89794716D01*
X172354716Y-89643241D01*
X172473730Y-89465124D01*
X172555708Y-89267212D01*
X172597500Y-89057109D01*
X172597500Y-88842891D01*
X172962500Y-88842891D01*
X172962500Y-89057109D01*
X173004292Y-89267212D01*
X173086270Y-89465124D01*
X173205284Y-89643241D01*
X173356759Y-89794716D01*
X173534876Y-89913730D01*
X173732788Y-89995708D01*
X173942891Y-90037500D01*
X174157109Y-90037500D01*
X174367212Y-89995708D01*
X174565124Y-89913730D01*
X174743241Y-89794716D01*
X174894716Y-89643241D01*
X175013730Y-89465124D01*
X175095708Y-89267212D01*
X175137500Y-89057109D01*
X175137500Y-88842891D01*
X175095708Y-88632788D01*
X175013730Y-88434876D01*
X174894716Y-88256759D01*
X174743241Y-88105284D01*
X174565124Y-87986270D01*
X174367212Y-87904292D01*
X174157109Y-87862500D01*
X173942891Y-87862500D01*
X173732788Y-87904292D01*
X173534876Y-87986270D01*
X173356759Y-88105284D01*
X173205284Y-88256759D01*
X173086270Y-88434876D01*
X173004292Y-88632788D01*
X172962500Y-88842891D01*
X172597500Y-88842891D01*
X172555708Y-88632788D01*
X172473730Y-88434876D01*
X172354716Y-88256759D01*
X172203241Y-88105284D01*
X172025124Y-87986270D01*
X171827212Y-87904292D01*
X171617109Y-87862500D01*
X171402891Y-87862500D01*
X171192788Y-87904292D01*
X170994876Y-87986270D01*
X170816759Y-88105284D01*
X170665284Y-88256759D01*
X170546270Y-88434876D01*
X170464292Y-88632788D01*
X170422500Y-88842891D01*
X170057500Y-88842891D01*
X170015708Y-88632788D01*
X169933730Y-88434876D01*
X169814716Y-88256759D01*
X169663241Y-88105284D01*
X169485124Y-87986270D01*
X169287212Y-87904292D01*
X169077109Y-87862500D01*
X168862891Y-87862500D01*
X168652788Y-87904292D01*
X168454876Y-87986270D01*
X168276759Y-88105284D01*
X168125284Y-88256759D01*
X168006270Y-88434876D01*
X167924292Y-88632788D01*
X167882500Y-88842891D01*
X167517500Y-88842891D01*
X167475708Y-88632788D01*
X167393730Y-88434876D01*
X167274716Y-88256759D01*
X167123241Y-88105284D01*
X166945124Y-87986270D01*
X166747212Y-87904292D01*
X166537109Y-87862500D01*
X166322891Y-87862500D01*
X166112788Y-87904292D01*
X165914876Y-87986270D01*
X165736759Y-88105284D01*
X165585284Y-88256759D01*
X165466270Y-88434876D01*
X165384292Y-88632788D01*
X165342500Y-88842891D01*
X164977500Y-88842891D01*
X164935708Y-88632788D01*
X164853730Y-88434876D01*
X164734716Y-88256759D01*
X164583241Y-88105284D01*
X164405124Y-87986270D01*
X164207212Y-87904292D01*
X163997109Y-87862500D01*
X163782891Y-87862500D01*
X163572788Y-87904292D01*
X163374876Y-87986270D01*
X163196759Y-88105284D01*
X163045284Y-88256759D01*
X162926270Y-88434876D01*
X162844292Y-88632788D01*
X162802500Y-88842891D01*
X162437500Y-88842891D01*
X162395708Y-88632788D01*
X162313730Y-88434876D01*
X162194716Y-88256759D01*
X162043241Y-88105284D01*
X161865124Y-87986270D01*
X161667212Y-87904292D01*
X161457109Y-87862500D01*
X161242891Y-87862500D01*
X161032788Y-87904292D01*
X160834876Y-87986270D01*
X160656759Y-88105284D01*
X160505284Y-88256759D01*
X160386270Y-88434876D01*
X160304292Y-88632788D01*
X160262500Y-88842891D01*
X159897500Y-88842891D01*
X159855708Y-88632788D01*
X159773730Y-88434876D01*
X159654716Y-88256759D01*
X159503241Y-88105284D01*
X159325124Y-87986270D01*
X159127212Y-87904292D01*
X158917109Y-87862500D01*
X158702891Y-87862500D01*
X158492788Y-87904292D01*
X158294876Y-87986270D01*
X158116759Y-88105284D01*
X157965284Y-88256759D01*
X157846270Y-88434876D01*
X157764292Y-88632788D01*
X157722500Y-88842891D01*
X157357500Y-88842891D01*
X157315708Y-88632788D01*
X157233730Y-88434876D01*
X157114716Y-88256759D01*
X156963241Y-88105284D01*
X156785124Y-87986270D01*
X156587212Y-87904292D01*
X156377109Y-87862500D01*
X156162891Y-87862500D01*
X155952788Y-87904292D01*
X155754876Y-87986270D01*
X155576759Y-88105284D01*
X155425284Y-88256759D01*
X155306270Y-88434876D01*
X155224292Y-88632788D01*
X155182500Y-88842891D01*
X154817500Y-88842891D01*
X154775708Y-88632788D01*
X154693730Y-88434876D01*
X154574716Y-88256759D01*
X154423241Y-88105284D01*
X154245124Y-87986270D01*
X154047212Y-87904292D01*
X153837109Y-87862500D01*
X153622891Y-87862500D01*
X153412788Y-87904292D01*
X153214876Y-87986270D01*
X153036759Y-88105284D01*
X152885284Y-88256759D01*
X152766270Y-88434876D01*
X152684292Y-88632788D01*
X152642500Y-88842891D01*
X152277500Y-88842891D01*
X152235708Y-88632788D01*
X152153730Y-88434876D01*
X152034716Y-88256759D01*
X151883241Y-88105284D01*
X151705124Y-87986270D01*
X151507212Y-87904292D01*
X151297109Y-87862500D01*
X151082891Y-87862500D01*
X150872788Y-87904292D01*
X150674876Y-87986270D01*
X150496759Y-88105284D01*
X150345284Y-88256759D01*
X150226270Y-88434876D01*
X150144292Y-88632788D01*
X150102500Y-88842891D01*
X149737500Y-88842891D01*
X149695708Y-88632788D01*
X149613730Y-88434876D01*
X149494716Y-88256759D01*
X149343241Y-88105284D01*
X149165124Y-87986270D01*
X148967212Y-87904292D01*
X148757109Y-87862500D01*
X148542891Y-87862500D01*
X148332788Y-87904292D01*
X148134876Y-87986270D01*
X147956759Y-88105284D01*
X147805284Y-88256759D01*
X147686270Y-88434876D01*
X147604292Y-88632788D01*
X147562500Y-88842891D01*
X147197500Y-88842891D01*
X147155708Y-88632788D01*
X147073730Y-88434876D01*
X146954716Y-88256759D01*
X146803241Y-88105284D01*
X146625124Y-87986270D01*
X146427212Y-87904292D01*
X146217109Y-87862500D01*
X146002891Y-87862500D01*
X145792788Y-87904292D01*
X145594876Y-87986270D01*
X145416759Y-88105284D01*
X145265284Y-88256759D01*
X145146270Y-88434876D01*
X145064292Y-88632788D01*
X145022500Y-88842891D01*
X144657500Y-88842891D01*
X144615708Y-88632788D01*
X144533730Y-88434876D01*
X144414716Y-88256759D01*
X144263241Y-88105284D01*
X144085124Y-87986270D01*
X143887212Y-87904292D01*
X143677109Y-87862500D01*
X143462891Y-87862500D01*
X143252788Y-87904292D01*
X143054876Y-87986270D01*
X142876759Y-88105284D01*
X142725284Y-88256759D01*
X142606270Y-88434876D01*
X142524292Y-88632788D01*
X142482500Y-88842891D01*
X142112397Y-88842891D01*
X142097550Y-88716625D01*
X142031509Y-88512840D01*
X141949893Y-88360149D01*
X141790066Y-88279736D01*
X141119803Y-88950000D01*
X140940197Y-88950000D01*
X140269934Y-88279736D01*
X140110107Y-88360149D01*
X140012709Y-88550945D01*
X139954404Y-88757077D01*
X139937434Y-88970622D01*
X139577500Y-88970622D01*
X139577500Y-88842891D01*
X139535708Y-88632788D01*
X139453730Y-88434876D01*
X139334716Y-88256759D01*
X139267891Y-88189934D01*
X140359736Y-88189934D01*
X141030000Y-88860197D01*
X141700264Y-88189934D01*
X141619851Y-88030107D01*
X141429055Y-87932709D01*
X141222923Y-87874404D01*
X141009378Y-87857434D01*
X140796625Y-87882450D01*
X140592840Y-87948491D01*
X140440149Y-88030107D01*
X140359736Y-88189934D01*
X139267891Y-88189934D01*
X139183241Y-88105284D01*
X139005124Y-87986270D01*
X138807212Y-87904292D01*
X138597109Y-87862500D01*
X138382891Y-87862500D01*
X138172788Y-87904292D01*
X137974876Y-87986270D01*
X137796759Y-88105284D01*
X137645284Y-88256759D01*
X137526270Y-88434876D01*
X137444292Y-88632788D01*
X137402500Y-88842891D01*
X137037500Y-88842891D01*
X136995708Y-88632788D01*
X136913730Y-88434876D01*
X136794716Y-88256759D01*
X136643241Y-88105284D01*
X136465124Y-87986270D01*
X136267212Y-87904292D01*
X136057109Y-87862500D01*
X135842891Y-87862500D01*
X135632788Y-87904292D01*
X135434876Y-87986270D01*
X135256759Y-88105284D01*
X135105284Y-88256759D01*
X134986270Y-88434876D01*
X134904292Y-88632788D01*
X134862500Y-88842891D01*
X132842500Y-88842891D01*
X132842500Y-88056747D01*
X132885962Y-87613491D01*
X133009828Y-87203225D01*
X133211023Y-86824831D01*
X133481886Y-86492721D01*
X133812090Y-86219553D01*
X134189069Y-86015721D01*
X134598462Y-85888993D01*
X135040810Y-85842500D01*
X174943253Y-85842500D01*
X175386509Y-85885962D01*
%TD*%
M02*
