%TF.GenerationSoftware,KiCad,Pcbnew,5.1.6-c6e7f7d~87~ubuntu18.04.1*%
%TF.CreationDate,2020-07-28T21:03:19-04:00*%
%TF.ProjectId,ta-expt,74612d65-7870-4742-9e6b-696361645f70,rev?*%
%TF.SameCoordinates,Original*%
%TF.FileFunction,Copper,L1,Top*%
%TF.FilePolarity,Positive*%
%FSLAX46Y46*%
G04 Gerber Fmt 4.6, Leading zero omitted, Abs format (unit mm)*
G04 Created by KiCad (PCBNEW 5.1.6-c6e7f7d~87~ubuntu18.04.1) date 2020-07-28 21:03:19*
%MOMM*%
%LPD*%
G01*
G04 APERTURE LIST*
%TA.AperFunction,ComponentPad*%
%ADD10C,1.540000*%
%TD*%
%TA.AperFunction,SMDPad,CuDef*%
%ADD11R,2.200000X6.400000*%
%TD*%
%TA.AperFunction,SMDPad,CuDef*%
%ADD12R,0.700000X1.000000*%
%TD*%
%TA.AperFunction,SMDPad,CuDef*%
%ADD13R,1.000000X0.700000*%
%TD*%
%TA.AperFunction,SMDPad,CuDef*%
%ADD14R,0.700000X0.940000*%
%TD*%
%TA.AperFunction,SMDPad,CuDef*%
%ADD15R,0.800000X1.000000*%
%TD*%
%TA.AperFunction,SMDPad,CuDef*%
%ADD16R,1.460000X0.250000*%
%TD*%
%TA.AperFunction,SMDPad,CuDef*%
%ADD17R,0.250000X1.460000*%
%TD*%
%TA.AperFunction,SMDPad,CuDef*%
%ADD18R,1.750000X0.600000*%
%TD*%
%TA.AperFunction,ComponentPad*%
%ADD19C,2.540000*%
%TD*%
%TA.AperFunction,SMDPad,CuDef*%
%ADD20R,0.700000X0.700000*%
%TD*%
%TA.AperFunction,SMDPad,CuDef*%
%ADD21R,0.600000X0.450000*%
%TD*%
%TA.AperFunction,SMDPad,CuDef*%
%ADD22R,1.000000X1.200000*%
%TD*%
%TA.AperFunction,SMDPad,CuDef*%
%ADD23R,1.700000X0.900000*%
%TD*%
%TA.AperFunction,ViaPad*%
%ADD24C,0.457200*%
%TD*%
%TA.AperFunction,Conductor*%
%ADD25C,0.203200*%
%TD*%
%TA.AperFunction,Conductor*%
%ADD26C,0.127000*%
%TD*%
G04 APERTURE END LIST*
D10*
%TO.P,J6,5*%
%TO.N,Net-(J6-Pad5)*%
X174050000Y-124510000D03*
%TO.P,J6,4*%
%TO.N,Net-(J6-Pad4)*%
X174050000Y-121970000D03*
%TO.P,J6,3*%
%TO.N,GND*%
X174050000Y-119430000D03*
%TO.P,J6,2*%
%TO.N,Net-(J6-Pad2)*%
X174050000Y-116890000D03*
%TO.P,J6,1*%
%TO.N,Net-(J6-Pad1)*%
X171510000Y-116890000D03*
%TD*%
%TO.P,J5,5*%
%TO.N,Net-(J5-Pad5)*%
X174050000Y-91490000D03*
%TO.P,J5,4*%
%TO.N,Net-(J5-Pad4)*%
X174050000Y-94030000D03*
%TO.P,J5,3*%
%TO.N,Net-(J5-Pad3)*%
X174050000Y-96570000D03*
%TO.P,J5,2*%
%TO.N,Net-(J5-Pad2)*%
X174050000Y-99110000D03*
%TO.P,J5,1*%
%TO.N,Net-(J5-Pad1)*%
X171510000Y-99110000D03*
%TD*%
%TO.P,J3,4*%
%TO.N,Net-(J3-Pad4)*%
X135950000Y-91490000D03*
%TO.P,J3,3*%
%TO.N,Net-(J3-Pad3)*%
X135950000Y-94030000D03*
%TO.P,J3,2*%
%TO.N,GND*%
X135950000Y-96570000D03*
%TO.P,J3,1*%
%TO.N,Net-(J3-Pad1)*%
X135950000Y-99110000D03*
%TD*%
D11*
%TO.P,C15,1*%
%TO.N,/VBAT*%
X160900000Y-121200000D03*
%TO.P,C15,2*%
%TO.N,GND*%
X165500000Y-121200000D03*
%TD*%
D12*
%TO.P,C1,1*%
%TO.N,/VDD_FILT*%
X139900000Y-119400000D03*
%TO.P,C1,2*%
%TO.N,GND*%
X138500000Y-119400000D03*
%TD*%
D13*
%TO.P,C2,1*%
%TO.N,/VDD_FILT*%
X140600000Y-99900000D03*
%TO.P,C2,2*%
%TO.N,GND*%
X140600000Y-98500000D03*
%TD*%
%TO.P,C3,1*%
%TO.N,/VDD_FILT*%
X147200000Y-99900000D03*
%TO.P,C3,2*%
%TO.N,GND*%
X147200000Y-98500000D03*
%TD*%
D12*
%TO.P,C4,1*%
%TO.N,/VDD_FILT*%
X149200000Y-116200000D03*
%TO.P,C4,2*%
%TO.N,GND*%
X150600000Y-116200000D03*
%TD*%
%TO.P,C5,1*%
%TO.N,/VDD_FILT*%
X153100000Y-103200000D03*
%TO.P,C5,2*%
%TO.N,GND*%
X154500000Y-103200000D03*
%TD*%
%TO.P,C6,1*%
%TO.N,/VDD_FILT*%
X153100000Y-101200000D03*
%TO.P,C6,2*%
%TO.N,GND*%
X154500000Y-101200000D03*
%TD*%
%TO.P,C7,1*%
%TO.N,/VDD_FILT*%
X156100000Y-101200000D03*
%TO.P,C7,2*%
%TO.N,GND*%
X157500000Y-101200000D03*
%TD*%
D14*
%TO.P,C8,1*%
%TO.N,/VDD_FILT*%
X156100000Y-103200000D03*
%TO.P,C8,2*%
%TO.N,GND*%
X157500000Y-103200000D03*
%TD*%
D12*
%TO.P,C9,1*%
%TO.N,/NRST*%
X153100000Y-105200000D03*
%TO.P,C9,2*%
%TO.N,GND*%
X154500000Y-105200000D03*
%TD*%
%TO.P,C11,1*%
%TO.N,Net-(C11-Pad1)*%
X158100000Y-109700000D03*
%TO.P,C11,2*%
%TO.N,GND*%
X159500000Y-109700000D03*
%TD*%
%TO.P,C10,1*%
%TO.N,Net-(C10-Pad1)*%
X158100000Y-107500000D03*
%TO.P,C10,2*%
%TO.N,GND*%
X159500000Y-107500000D03*
%TD*%
%TO.P,C13,1*%
%TO.N,Net-(C13-Pad1)*%
X158100000Y-115300000D03*
%TO.P,C13,2*%
%TO.N,GND*%
X159500000Y-115300000D03*
%TD*%
%TO.P,C12,1*%
%TO.N,Net-(C12-Pad1)*%
X158100000Y-112700000D03*
%TO.P,C12,2*%
%TO.N,GND*%
X159500000Y-112700000D03*
%TD*%
%TO.P,C14,1*%
%TO.N,/VDD_FILT*%
X163900000Y-93400000D03*
%TO.P,C14,2*%
%TO.N,GND*%
X162500000Y-93400000D03*
%TD*%
D15*
%TO.P,FB1,1*%
%TO.N,VDD*%
X138400000Y-116900000D03*
%TO.P,FB1,2*%
%TO.N,/VDD_FILT*%
X140000000Y-116900000D03*
%TD*%
D16*
%TO.P,IC1,1*%
%TO.N,/VBAT*%
X150138000Y-111750000D03*
%TO.P,IC1,2*%
%TO.N,Net-(IC1-Pad2)*%
X150138000Y-111250000D03*
%TO.P,IC1,3*%
%TO.N,Net-(C13-Pad1)*%
X150138000Y-110750000D03*
%TO.P,IC1,4*%
%TO.N,Net-(C12-Pad1)*%
X150138000Y-110250000D03*
%TO.P,IC1,5*%
%TO.N,Net-(C11-Pad1)*%
X150138000Y-109750000D03*
%TO.P,IC1,6*%
%TO.N,Net-(C10-Pad1)*%
X150138000Y-109250000D03*
%TO.P,IC1,7*%
%TO.N,/NRST*%
X150138000Y-108750000D03*
%TO.P,IC1,8*%
%TO.N,Net-(IC1-Pad8)*%
X150138000Y-108250000D03*
%TO.P,IC1,9*%
%TO.N,/QUADSPI_BK2_IO0*%
X150138000Y-107750000D03*
%TO.P,IC1,10*%
%TO.N,/QUADSPI_BK2_IO1*%
X150138000Y-107250000D03*
%TO.P,IC1,11*%
%TO.N,/QUADSPI_BK2_IO2*%
X150138000Y-106750000D03*
%TO.P,IC1,12*%
%TO.N,GND*%
X150138000Y-106250000D03*
%TO.P,IC1,13*%
%TO.N,/VDD_FILT*%
X150138000Y-105750000D03*
%TO.P,IC1,14*%
%TO.N,Net-(IC1-Pad14)*%
X150138000Y-105250000D03*
%TO.P,IC1,15*%
%TO.N,Net-(IC1-Pad15)*%
X150138000Y-104750000D03*
%TO.P,IC1,16*%
%TO.N,/QUADSPI_BK1_NCS*%
X150138000Y-104250000D03*
D17*
%TO.P,IC1,17*%
%TO.N,/QUADSPI_CLK*%
X148150000Y-102262000D03*
%TO.P,IC1,18*%
%TO.N,GND*%
X147650000Y-102262000D03*
%TO.P,IC1,19*%
%TO.N,/VDD_FILT*%
X147150000Y-102262000D03*
%TO.P,IC1,20*%
%TO.N,/DCMI_HSYNC*%
X146650000Y-102262000D03*
%TO.P,IC1,21*%
%TO.N,Net-(IC1-Pad21)*%
X146150000Y-102262000D03*
%TO.P,IC1,22*%
%TO.N,/DCMI_PIXCLK*%
X145650000Y-102262000D03*
%TO.P,IC1,23*%
%TO.N,Net-(IC1-Pad23)*%
X145150000Y-102262000D03*
%TO.P,IC1,24*%
%TO.N,/QUADSPI_BK2_IO3*%
X144650000Y-102262000D03*
%TO.P,IC1,25*%
%TO.N,Net-(IC1-Pad25)*%
X144150000Y-102262000D03*
%TO.P,IC1,26*%
%TO.N,Net-(IC1-Pad26)*%
X143650000Y-102262000D03*
%TO.P,IC1,27*%
%TO.N,Net-(IC1-Pad27)*%
X143150000Y-102262000D03*
%TO.P,IC1,28*%
%TO.N,Net-(IC1-Pad28)*%
X142650000Y-102262000D03*
%TO.P,IC1,29*%
%TO.N,/LPUART_RX*%
X142150000Y-102262000D03*
%TO.P,IC1,30*%
%TO.N,/LPUART_TX*%
X141650000Y-102262000D03*
%TO.P,IC1,31*%
%TO.N,GND*%
X141150000Y-102262000D03*
%TO.P,IC1,32*%
%TO.N,/VDD_FILT*%
X140650000Y-102262000D03*
D16*
%TO.P,IC1,33*%
%TO.N,/LPUART_RTS*%
X138662000Y-104250000D03*
%TO.P,IC1,34*%
%TO.N,/LPUART_CTS*%
X138662000Y-104750000D03*
%TO.P,IC1,35*%
%TO.N,Net-(IC1-Pad35)*%
X138662000Y-105250000D03*
%TO.P,IC1,36*%
%TO.N,Net-(IC1-Pad36)*%
X138662000Y-105750000D03*
%TO.P,IC1,37*%
%TO.N,/DCMI_D0*%
X138662000Y-106250000D03*
%TO.P,IC1,38*%
%TO.N,/DCMI_D1*%
X138662000Y-106750000D03*
%TO.P,IC1,39*%
%TO.N,/DCMI_D2*%
X138662000Y-107250000D03*
%TO.P,IC1,40*%
%TO.N,/DCMI_D3*%
X138662000Y-107750000D03*
%TO.P,IC1,41*%
%TO.N,/USART1_CK*%
X138662000Y-108250000D03*
%TO.P,IC1,42*%
%TO.N,/USART1_TX*%
X138662000Y-108750000D03*
%TO.P,IC1,43*%
%TO.N,/USART1_RX*%
X138662000Y-109250000D03*
%TO.P,IC1,44*%
%TO.N,/USART1_CTS*%
X138662000Y-109750000D03*
%TO.P,IC1,45*%
%TO.N,/USART1_RTS*%
X138662000Y-110250000D03*
%TO.P,IC1,46*%
%TO.N,/SWDIO*%
X138662000Y-110750000D03*
%TO.P,IC1,47*%
%TO.N,GND*%
X138662000Y-111250000D03*
%TO.P,IC1,48*%
%TO.N,/VDD_FILT*%
X138662000Y-111750000D03*
D17*
%TO.P,IC1,49*%
%TO.N,/SWCLK*%
X140650000Y-113738000D03*
%TO.P,IC1,50*%
%TO.N,Net-(IC1-Pad50)*%
X141150000Y-113738000D03*
%TO.P,IC1,51*%
%TO.N,/LED1*%
X141650000Y-113738000D03*
%TO.P,IC1,52*%
%TO.N,/DCMI_D4*%
X142150000Y-113738000D03*
%TO.P,IC1,53*%
%TO.N,/LED2*%
X142650000Y-113738000D03*
%TO.P,IC1,54*%
%TO.N,Net-(IC1-Pad54)*%
X143150000Y-113738000D03*
%TO.P,IC1,55*%
%TO.N,Net-(IC1-Pad55)*%
X143650000Y-113738000D03*
%TO.P,IC1,56*%
%TO.N,Net-(IC1-Pad56)*%
X144150000Y-113738000D03*
%TO.P,IC1,57*%
%TO.N,Net-(IC1-Pad57)*%
X144650000Y-113738000D03*
%TO.P,IC1,58*%
%TO.N,/DCMI_D5*%
X145150000Y-113738000D03*
%TO.P,IC1,59*%
%TO.N,/DCMI_VSYNC*%
X145650000Y-113738000D03*
%TO.P,IC1,60*%
%TO.N,Net-(IC1-Pad60)*%
X146150000Y-113738000D03*
%TO.P,IC1,61*%
%TO.N,/DCMI_D6*%
X146650000Y-113738000D03*
%TO.P,IC1,62*%
%TO.N,/DCMI_D7*%
X147150000Y-113738000D03*
%TO.P,IC1,63*%
%TO.N,GND*%
X147650000Y-113738000D03*
%TO.P,IC1,64*%
%TO.N,/VDD_FILT*%
X148150000Y-113738000D03*
%TD*%
D18*
%TO.P,IC2,1*%
%TO.N,/QUADSPI_BK1_NCS*%
X159668000Y-95595000D03*
%TO.P,IC2,2*%
%TO.N,/QUADSPI_BK2_IO1*%
X159668000Y-96865000D03*
%TO.P,IC2,3*%
%TO.N,/QUADSPI_BK2_IO2*%
X159668000Y-98135000D03*
%TO.P,IC2,4*%
%TO.N,GND*%
X159668000Y-99405000D03*
%TO.P,IC2,5*%
%TO.N,/QUADSPI_BK2_IO0*%
X166732000Y-99405000D03*
%TO.P,IC2,6*%
%TO.N,/QUADSPI_CLK*%
X166732000Y-98135000D03*
%TO.P,IC2,7*%
%TO.N,/QUADSPI_BK2_IO3*%
X166732000Y-96865000D03*
%TO.P,IC2,8*%
%TO.N,/VDD_FILT*%
X166732000Y-95595000D03*
%TD*%
D10*
%TO.P,J4,4*%
%TO.N,/SWCLK*%
X135950000Y-124510000D03*
%TO.P,J4,3*%
%TO.N,/SWDIO*%
X135950000Y-121970000D03*
%TO.P,J4,2*%
%TO.N,GND*%
X135950000Y-119430000D03*
%TO.P,J4,1*%
%TO.N,VDD*%
X135950000Y-116890000D03*
%TD*%
%TO.P,J1,16*%
%TO.N,Net-(J1-Pad16)*%
X174050000Y-88950000D03*
%TO.P,J1,15*%
%TO.N,Net-(J1-Pad15)*%
X171510000Y-88950000D03*
%TO.P,J1,14*%
%TO.N,Net-(J1-Pad14)*%
X168970000Y-88950000D03*
%TO.P,J1,13*%
%TO.N,Net-(J1-Pad13)*%
X166430000Y-88950000D03*
%TO.P,J1,12*%
%TO.N,/USART1_RTS*%
X163890000Y-88950000D03*
%TO.P,J1,11*%
%TO.N,/USART1_RX*%
X161350000Y-88950000D03*
%TO.P,J1,10*%
%TO.N,/USART1_TX*%
X158810000Y-88950000D03*
%TO.P,J1,9*%
%TO.N,/USART1_CTS*%
X156270000Y-88950000D03*
%TO.P,J1,8*%
%TO.N,/USART1_CK*%
X153730000Y-88950000D03*
%TO.P,J1,7*%
%TO.N,/RST*%
X151190000Y-88950000D03*
%TO.P,J1,6*%
%TO.N,Net-(J1-Pad6)*%
X148650000Y-88950000D03*
%TO.P,J1,5*%
%TO.N,Net-(J1-Pad5)*%
X146110000Y-88950000D03*
%TO.P,J1,4*%
%TO.N,Net-(J1-Pad4)*%
X143570000Y-88950000D03*
%TO.P,J1,3*%
%TO.N,GND*%
X141030000Y-88950000D03*
%TO.P,J1,2*%
%TO.N,Net-(J1-Pad2)*%
X138490000Y-88950000D03*
%TO.P,J1,1*%
%TO.N,Net-(J1-Pad1)*%
X135950000Y-88950000D03*
%TD*%
%TO.P,J2,16*%
%TO.N,Net-(J2-Pad16)*%
X174050000Y-127050000D03*
%TO.P,J2,15*%
%TO.N,Net-(J2-Pad15)*%
X171510000Y-127050000D03*
%TO.P,J2,14*%
%TO.N,Net-(J2-Pad14)*%
X168970000Y-127050000D03*
%TO.P,J2,13*%
%TO.N,Net-(J2-Pad13)*%
X166430000Y-127050000D03*
%TO.P,J2,12*%
%TO.N,/LPUART_RTS*%
X163890000Y-127050000D03*
%TO.P,J2,11*%
%TO.N,/LPUART_RX*%
X161350000Y-127050000D03*
%TO.P,J2,10*%
%TO.N,/LPUART_TX*%
X158810000Y-127050000D03*
%TO.P,J2,9*%
%TO.N,/LPUART_CTS*%
X156270000Y-127050000D03*
%TO.P,J2,8*%
%TO.N,/BOOT0*%
X153730000Y-127050000D03*
%TO.P,J2,7*%
%TO.N,Net-(J2-Pad7)*%
X151190000Y-127050000D03*
%TO.P,J2,6*%
%TO.N,Net-(J2-Pad6)*%
X148650000Y-127050000D03*
%TO.P,J2,5*%
%TO.N,Net-(J2-Pad5)*%
X146110000Y-127050000D03*
%TO.P,J2,4*%
%TO.N,Net-(J2-Pad4)*%
X143570000Y-127050000D03*
%TO.P,J2,3*%
%TO.N,Net-(J2-Pad3)*%
X141030000Y-127050000D03*
%TO.P,J2,2*%
%TO.N,Net-(J2-Pad2)*%
X138490000Y-127050000D03*
%TO.P,J2,1*%
%TO.N,Net-(J2-Pad1)*%
X135950000Y-127050000D03*
%TD*%
%TO.P,J8,12*%
%TO.N,/DCMI_VSYNC*%
X168970000Y-101650000D03*
%TO.P,J8,11*%
%TO.N,/DCMI_HSYNC*%
X171510000Y-101650000D03*
%TO.P,J8,10*%
%TO.N,/DCMI_PIXCLK*%
X168970000Y-104190000D03*
%TO.P,J8,9*%
%TO.N,Net-(J8-Pad9)*%
X171510000Y-104190000D03*
%TO.P,J8,8*%
%TO.N,/DCMI_D7*%
X168970000Y-106730000D03*
%TO.P,J8,7*%
%TO.N,/DCMI_D6*%
X171510000Y-106730000D03*
%TO.P,J8,6*%
%TO.N,/DCMI_D5*%
X168970000Y-109270000D03*
%TO.P,J8,5*%
%TO.N,/DCMI_D4*%
X171510000Y-109270000D03*
%TO.P,J8,4*%
%TO.N,/DCMI_D3*%
X168970000Y-111810000D03*
%TO.P,J8,3*%
%TO.N,/DCMI_D2*%
X171510000Y-111810000D03*
%TO.P,J8,2*%
%TO.N,/DCMI_D1*%
X168970000Y-114350000D03*
%TO.P,J8,1*%
%TO.N,/DCMI_D0*%
X171510000Y-114350000D03*
%TD*%
D19*
%TO.P,J7,4*%
%TO.N,GND*%
X174960000Y-113080000D03*
%TO.P,J7,3*%
X135040000Y-113080000D03*
%TO.P,J7,2*%
X174960000Y-102920000D03*
%TO.P,J7,1*%
X135040000Y-102920000D03*
%TD*%
D20*
%TO.P,LED1,1*%
%TO.N,GND*%
X142500000Y-122950000D03*
%TO.P,LED1,2*%
%TO.N,Net-(LED1-Pad2)*%
X142500000Y-121450000D03*
%TD*%
%TO.P,LED2,1*%
%TO.N,GND*%
X146000000Y-122950000D03*
%TO.P,LED2,2*%
%TO.N,Net-(LED2-Pad2)*%
X146000000Y-121450000D03*
%TD*%
D21*
%TO.P,Q1,1*%
%TO.N,/RST*%
X150445000Y-91500000D03*
%TO.P,Q1,2*%
%TO.N,GND*%
X150445000Y-92500000D03*
%TO.P,Q1,3*%
%TO.N,/NRST*%
X151955000Y-92000000D03*
%TD*%
%TO.P,Q2,1*%
%TO.N,/BOOT0*%
X152945000Y-123500000D03*
%TO.P,Q2,2*%
%TO.N,Net-(Q2-Pad2)*%
X152945000Y-124500000D03*
%TO.P,Q2,3*%
%TO.N,/VDD_FILT*%
X154455000Y-124000000D03*
%TD*%
D13*
%TO.P,R1,1*%
%TO.N,/LED1*%
X142500000Y-117400000D03*
%TO.P,R1,2*%
%TO.N,Net-(LED1-Pad2)*%
X142500000Y-119000000D03*
%TD*%
%TO.P,R2,1*%
%TO.N,/LED2*%
X146000000Y-117400000D03*
%TO.P,R2,2*%
%TO.N,Net-(LED2-Pad2)*%
X146000000Y-119000000D03*
%TD*%
D12*
%TO.P,R4,1*%
%TO.N,Net-(Q2-Pad2)*%
X150700000Y-124000000D03*
%TO.P,R4,2*%
%TO.N,Net-(IC1-Pad60)*%
X149100000Y-124000000D03*
%TD*%
%TO.P,R3,1*%
%TO.N,Net-(IC1-Pad60)*%
X149100000Y-121000000D03*
%TO.P,R3,2*%
%TO.N,GND*%
X150700000Y-121000000D03*
%TD*%
%TO.P,R5,1*%
%TO.N,/VDD_FILT*%
X164000000Y-91600000D03*
%TO.P,R5,2*%
%TO.N,/QUADSPI_BK1_NCS*%
X162400000Y-91600000D03*
%TD*%
D22*
%TO.P,Y1,1*%
%TO.N,Net-(C11-Pad1)*%
X155350000Y-109750000D03*
%TO.P,Y1,2*%
%TO.N,GND*%
X155350000Y-107450000D03*
%TO.P,Y1,3*%
%TO.N,Net-(C10-Pad1)*%
X153450000Y-107450000D03*
%TO.P,Y1,4*%
%TO.N,GND*%
X153450000Y-109750000D03*
%TD*%
D23*
%TO.P,Y2,1*%
%TO.N,Net-(C13-Pad1)*%
X154300000Y-115275000D03*
%TO.P,Y2,2*%
%TO.N,Net-(C12-Pad1)*%
X154300000Y-112725000D03*
%TD*%
D24*
%TO.N,GND*%
X151750000Y-105750000D03*
X147650000Y-100900000D03*
X141150000Y-100900000D03*
X137300000Y-111300000D03*
X147650000Y-115100000D03*
X150600000Y-117300000D03*
X140600000Y-97400000D03*
X147200000Y-97400000D03*
X160600000Y-109700000D03*
X160600000Y-112700000D03*
X160600000Y-115300000D03*
X160600000Y-107500000D03*
X149400000Y-92500000D03*
X158200000Y-99400000D03*
X155500000Y-105200000D03*
X158500000Y-101200000D03*
X158500000Y-103200000D03*
X154500000Y-100200000D03*
X154500000Y-104200000D03*
X156400000Y-107450000D03*
X152400000Y-109750000D03*
X167800000Y-121200000D03*
X151800000Y-121000000D03*
X141400000Y-122950000D03*
X147100000Y-122950000D03*
%TO.N,/VDD_FILT*%
X137300000Y-111900000D03*
X139500000Y-99900000D03*
X148300000Y-99900000D03*
X168200000Y-95600000D03*
X156100000Y-104200000D03*
X155500000Y-124000000D03*
X149200000Y-117300000D03*
X139950000Y-118150000D03*
%TO.N,/NRST*%
X153100000Y-92000000D03*
X153100000Y-104200000D03*
%TO.N,/DCMI_D7*%
X146150000Y-109400000D03*
%TO.N,/DCMI_D6*%
X147150000Y-109400000D03*
%TO.N,/DCMI_VSYNC*%
X145050000Y-110250000D03*
%TO.N,/DCMI_D5*%
X146150000Y-110250000D03*
%TO.N,/DCMI_D4*%
X147150000Y-110250000D03*
%TO.N,/USART1_RTS*%
X142000000Y-110250000D03*
%TO.N,/USART1_CTS*%
X140500000Y-109750000D03*
%TO.N,/USART1_RX*%
X141500000Y-109250000D03*
%TO.N,/USART1_TX*%
X141000000Y-108750000D03*
%TO.N,/USART1_CK*%
X140100000Y-108250000D03*
%TO.N,/DCMI_D3*%
X146150000Y-111100000D03*
%TO.N,/DCMI_D2*%
X147150000Y-111100000D03*
%TO.N,/DCMI_D1*%
X146150000Y-111950000D03*
%TO.N,/DCMI_D0*%
X147150000Y-111950000D03*
%TO.N,/LPUART_CTS*%
X143150000Y-105750000D03*
%TO.N,/LPUART_RTS*%
X144650000Y-105750000D03*
%TO.N,/LPUART_TX*%
X143150000Y-104750000D03*
%TO.N,/LPUART_RX*%
X143900000Y-104750000D03*
%TO.N,/QUADSPI_BK2_IO3*%
X144650000Y-104750000D03*
X168200000Y-96865000D03*
%TO.N,/DCMI_PIXCLK*%
X145650000Y-106750000D03*
%TO.N,/DCMI_HSYNC*%
X146650000Y-106250000D03*
%TO.N,/QUADSPI_CLK*%
X148150000Y-105250000D03*
X168200000Y-98135000D03*
%TO.N,/QUADSPI_BK2_IO2*%
X152100000Y-106750000D03*
X158200000Y-98135000D03*
%TO.N,/QUADSPI_BK2_IO1*%
X151500000Y-107250000D03*
X158200000Y-96865000D03*
%TO.N,/QUADSPI_BK2_IO0*%
X152100000Y-107750000D03*
X168200000Y-99405000D03*
%TD*%
D25*
%TO.N,GND*%
X150700000Y-121000000D02*
X151800000Y-121000000D01*
D26*
X135980000Y-119400000D02*
X135950000Y-119430000D01*
X138500000Y-119400000D02*
X135980000Y-119400000D01*
X140600000Y-98500000D02*
X140600000Y-97400000D01*
X147200000Y-98500000D02*
X147200000Y-97400000D01*
X150600000Y-117300000D02*
X150600000Y-116200000D01*
X158500000Y-101200000D02*
X157500000Y-101200000D01*
X158500000Y-103200000D02*
X157500000Y-103200000D01*
X154500000Y-100200000D02*
X154500000Y-101200000D01*
X154500000Y-104200000D02*
X154500000Y-103200000D01*
X155500000Y-105200000D02*
X154500000Y-105200000D01*
X160600000Y-107500000D02*
X159500000Y-107500000D01*
X160600000Y-109700000D02*
X159500000Y-109700000D01*
X160600000Y-112700000D02*
X159500000Y-112700000D01*
X160600000Y-115300000D02*
X159500000Y-115300000D01*
X167800000Y-121200000D02*
X165500000Y-121200000D01*
X141400000Y-122950000D02*
X142500000Y-122950000D01*
X147100000Y-122950000D02*
X146000000Y-122950000D01*
X149400000Y-92500000D02*
X150445000Y-92500000D01*
X156400000Y-107450000D02*
X155350000Y-107450000D01*
X152400000Y-109750000D02*
X153450000Y-109750000D01*
X159663000Y-99400000D02*
X159668000Y-99405000D01*
X158200000Y-99400000D02*
X159663000Y-99400000D01*
X160687500Y-99405000D02*
X159668000Y-99405000D01*
X162500000Y-97592500D02*
X160687500Y-99405000D01*
X162500000Y-93400000D02*
X162500000Y-97592500D01*
X147650000Y-113738000D02*
X147650000Y-115100000D01*
X141150000Y-100900000D02*
X141150000Y-102262000D01*
X147650000Y-100900000D02*
X147650000Y-102262000D01*
X137350000Y-111250000D02*
X137300000Y-111300000D01*
X138662000Y-111250000D02*
X137350000Y-111250000D01*
X151250000Y-106250000D02*
X150138000Y-106250000D01*
X151750000Y-105750000D02*
X151250000Y-106250000D01*
%TO.N,/VBAT*%
X150138000Y-112855902D02*
X158482098Y-121200000D01*
X158482098Y-121200000D02*
X160900000Y-121200000D01*
X150138000Y-111750000D02*
X150138000Y-112855902D01*
%TO.N,/VDD_FILT*%
X139950000Y-116950000D02*
X140000000Y-116900000D01*
X139950000Y-118150000D02*
X139950000Y-116950000D01*
X139950000Y-119350000D02*
X139900000Y-119400000D01*
X139950000Y-118150000D02*
X139950000Y-119350000D01*
X140600000Y-99900000D02*
X139500000Y-99900000D01*
X140600000Y-102212000D02*
X140650000Y-102262000D01*
X140600000Y-99900000D02*
X140600000Y-102212000D01*
X147200000Y-99900000D02*
X148300000Y-99900000D01*
X147200000Y-102212000D02*
X147150000Y-102262000D01*
X147200000Y-99900000D02*
X147200000Y-102212000D01*
X149200000Y-117300000D02*
X149200000Y-116200000D01*
X156100000Y-104200000D02*
X156100000Y-103200000D01*
X156100000Y-103200000D02*
X156100000Y-101200000D01*
X153100000Y-100578000D02*
X153100000Y-101200000D01*
X155302899Y-99780899D02*
X153897101Y-99780899D01*
X153897101Y-99780899D02*
X153100000Y-100578000D01*
X156100000Y-100578000D02*
X155302899Y-99780899D01*
X156100000Y-101200000D02*
X156100000Y-100578000D01*
X153100000Y-101200000D02*
X153100000Y-103200000D01*
X153100000Y-103518402D02*
X153100000Y-103200000D01*
X150868402Y-105750000D02*
X153100000Y-103518402D01*
X150138000Y-105750000D02*
X150868402Y-105750000D01*
X155500000Y-124000000D02*
X154455000Y-124000000D01*
X166737000Y-95600000D02*
X166732000Y-95595000D01*
X168200000Y-95600000D02*
X166737000Y-95600000D01*
X164537000Y-93400000D02*
X166732000Y-95595000D01*
X163900000Y-93400000D02*
X164537000Y-93400000D01*
X166732000Y-94332000D02*
X164000000Y-91600000D01*
X166732000Y-95595000D02*
X166732000Y-94332000D01*
X148150000Y-115150000D02*
X149200000Y-116200000D01*
X148150000Y-113738000D02*
X148150000Y-115150000D01*
X137450000Y-111750000D02*
X137300000Y-111900000D01*
X138662000Y-111750000D02*
X137450000Y-111750000D01*
%TO.N,/NRST*%
X153100000Y-104200000D02*
X153100000Y-105200000D01*
X151720270Y-108750000D02*
X150138000Y-108750000D01*
X152519101Y-105780899D02*
X152519101Y-107951169D01*
X152519101Y-107951169D02*
X151720270Y-108750000D01*
X153100000Y-105200000D02*
X152519101Y-105780899D01*
X153100000Y-92000000D02*
X151955000Y-92000000D01*
%TO.N,Net-(C11-Pad1)*%
X155400000Y-109700000D02*
X155350000Y-109750000D01*
X158100000Y-109700000D02*
X155400000Y-109700000D01*
X151509224Y-109750000D02*
X150138000Y-109750000D01*
X152349725Y-108909499D02*
X151509224Y-109750000D01*
X154509499Y-108909499D02*
X152349725Y-108909499D01*
X155350000Y-109750000D02*
X154509499Y-108909499D01*
%TO.N,Net-(C12-Pad1)*%
X154325000Y-112700000D02*
X154300000Y-112725000D01*
X158100000Y-112700000D02*
X154325000Y-112700000D01*
X151825000Y-110250000D02*
X154300000Y-112725000D01*
X150138000Y-110250000D02*
X151825000Y-110250000D01*
%TO.N,Net-(C13-Pad1)*%
X154325000Y-115300000D02*
X154300000Y-115275000D01*
X158100000Y-115300000D02*
X154325000Y-115300000D01*
X153209499Y-114184499D02*
X154300000Y-115275000D01*
X151002500Y-110750000D02*
X153209499Y-112956999D01*
X153209499Y-112956999D02*
X153209499Y-114184499D01*
X150138000Y-110750000D02*
X151002500Y-110750000D01*
%TO.N,VDD*%
X135960000Y-116900000D02*
X135950000Y-116890000D01*
X138400000Y-116900000D02*
X135960000Y-116900000D01*
%TO.N,/DCMI_D7*%
X145730899Y-109819101D02*
X146150000Y-109400000D01*
X145730899Y-112151169D02*
X145730899Y-109819101D01*
X145948831Y-112369101D02*
X145730899Y-112151169D01*
X147150000Y-112873500D02*
X146645601Y-112369101D01*
X146645601Y-112369101D02*
X145948831Y-112369101D01*
X147150000Y-113738000D02*
X147150000Y-112873500D01*
%TO.N,/DCMI_D6*%
X146730899Y-108980899D02*
X147150000Y-109400000D01*
X145948831Y-108980899D02*
X146730899Y-108980899D01*
X145476890Y-112256384D02*
X145476890Y-109452840D01*
X145476890Y-109452840D02*
X145948831Y-108980899D01*
X145843616Y-112623110D02*
X145476890Y-112256384D01*
X146423111Y-112623111D02*
X145843616Y-112623110D01*
X146650000Y-112850000D02*
X146423111Y-112623111D01*
X146650000Y-113738000D02*
X146650000Y-112850000D01*
%TO.N,Net-(IC1-Pad60)*%
X149100000Y-121000000D02*
X149100000Y-124000000D01*
X149100000Y-119257098D02*
X149100000Y-121000000D01*
X146150000Y-116307098D02*
X149100000Y-119257098D01*
X146150000Y-113738000D02*
X146150000Y-116307098D01*
%TO.N,/DCMI_VSYNC*%
X145050000Y-112188718D02*
X145050000Y-110250000D01*
X145650000Y-112788718D02*
X145050000Y-112188718D01*
X145650000Y-113738000D02*
X145650000Y-112788718D01*
%TO.N,/DCMI_D5*%
X146569101Y-109830899D02*
X146150000Y-110250000D01*
X147569101Y-109601169D02*
X147339371Y-109830899D01*
X147569101Y-109198831D02*
X147569101Y-109601169D01*
X147097160Y-108726890D02*
X147569101Y-109198831D01*
X145843616Y-108726890D02*
X147097160Y-108726890D01*
X144630899Y-109939607D02*
X145843616Y-108726890D01*
X147339371Y-109830899D02*
X146569101Y-109830899D01*
X144630899Y-112128841D02*
X144630899Y-109939607D01*
X145150000Y-112647942D02*
X144630899Y-112128841D01*
X145150000Y-113738000D02*
X145150000Y-112647942D01*
%TO.N,/LED2*%
X145447500Y-117400000D02*
X146000000Y-117400000D01*
X142650000Y-114602500D02*
X145447500Y-117400000D01*
X142650000Y-113738000D02*
X142650000Y-114602500D01*
%TO.N,/DCMI_D4*%
X147473289Y-110250000D02*
X147150000Y-110250000D01*
X147823111Y-109093617D02*
X147823111Y-109900178D01*
X147202375Y-108472881D02*
X147823111Y-109093617D01*
X147823111Y-109900178D02*
X147473289Y-110250000D01*
X145738402Y-108472880D02*
X147202375Y-108472881D01*
X142150000Y-112061282D02*
X145738402Y-108472880D01*
X142150000Y-113738000D02*
X142150000Y-112061282D01*
%TO.N,/LED1*%
X141650000Y-116550000D02*
X142500000Y-117400000D01*
X141650000Y-113738000D02*
X141650000Y-116550000D01*
%TO.N,/SWCLK*%
X140894511Y-120654433D02*
X137038944Y-124510000D01*
X137038944Y-124510000D02*
X135950000Y-124510000D01*
X140894511Y-116142385D02*
X140894511Y-120654433D01*
X140650000Y-115897874D02*
X140894511Y-116142385D01*
X140650000Y-113738000D02*
X140650000Y-115897874D01*
%TO.N,/SWDIO*%
X140640501Y-119887401D02*
X138557902Y-121970000D01*
X140640501Y-116247599D02*
X140640501Y-119887401D01*
X140309499Y-115916597D02*
X140640501Y-116247599D01*
X140309499Y-111532999D02*
X140309499Y-115916597D01*
X138557902Y-121970000D02*
X135950000Y-121970000D01*
X139526500Y-110750000D02*
X140309499Y-111532999D01*
X138662000Y-110750000D02*
X139526500Y-110750000D01*
%TO.N,/USART1_RTS*%
X142000000Y-110250000D02*
X138662000Y-110250000D01*
%TO.N,/USART1_CTS*%
X140500000Y-109750000D02*
X138662000Y-109750000D01*
%TO.N,/USART1_RX*%
X141500000Y-109250000D02*
X138662000Y-109250000D01*
%TO.N,/USART1_TX*%
X141000000Y-108750000D02*
X138662000Y-108750000D01*
%TO.N,/USART1_CK*%
X140100000Y-108250000D02*
X138662000Y-108250000D01*
%TO.N,/DCMI_D3*%
X148077121Y-110005392D02*
X148077120Y-108988402D01*
X147413412Y-110669101D02*
X148077121Y-110005392D01*
X146150000Y-111100000D02*
X146580899Y-110669101D01*
X148077120Y-108988402D02*
X147307588Y-108218872D01*
X146580899Y-110669101D02*
X147413412Y-110669101D01*
X140220270Y-107750000D02*
X140689142Y-108218872D01*
X140689142Y-108218872D02*
X147307588Y-108218872D01*
X138662000Y-107750000D02*
X140220270Y-107750000D01*
%TO.N,/DCMI_D2*%
X148331128Y-108883189D02*
X147412801Y-107964862D01*
X148331128Y-110242161D02*
X148331128Y-108883189D01*
X147150000Y-111100000D02*
X147473289Y-111100000D01*
X147473289Y-111100000D02*
X148331128Y-110242161D01*
X145107118Y-107964862D02*
X147412801Y-107964862D01*
X144392256Y-107250000D02*
X145107118Y-107964862D01*
X138662000Y-107250000D02*
X144392256Y-107250000D01*
%TO.N,/DCMI_D1*%
X148585137Y-108777974D02*
X147518015Y-107710852D01*
X148585138Y-110347375D02*
X148585137Y-108777974D01*
X147413412Y-111519101D02*
X148585138Y-110347375D01*
X146150000Y-111950000D02*
X146580899Y-111519101D01*
X146580899Y-111519101D02*
X147413412Y-111519101D01*
X145212332Y-107710852D02*
X147518015Y-107710852D01*
X138662000Y-106750000D02*
X144251480Y-106750000D01*
X144251480Y-106750000D02*
X145212332Y-107710852D01*
%TO.N,/DCMI_D0*%
X147623229Y-107456842D02*
X145317546Y-107456842D01*
X148839146Y-108672759D02*
X147623229Y-107456842D01*
X148839147Y-110584142D02*
X148839146Y-108672759D01*
X147150000Y-111950000D02*
X147473289Y-111950000D01*
X147473289Y-111950000D02*
X148839147Y-110584142D01*
X144110704Y-106250000D02*
X145317546Y-107456842D01*
X138662000Y-106250000D02*
X144110704Y-106250000D01*
%TO.N,/LPUART_CTS*%
X142150000Y-104750000D02*
X143150000Y-105750000D01*
X138662000Y-104750000D02*
X142150000Y-104750000D01*
%TO.N,/LPUART_RTS*%
X144230899Y-105330899D02*
X144650000Y-105750000D01*
X143130899Y-105330899D02*
X144230899Y-105330899D01*
X142050000Y-104250000D02*
X143130899Y-105330899D01*
X138662000Y-104250000D02*
X142050000Y-104250000D01*
%TO.N,/LPUART_TX*%
X141650000Y-103250000D02*
X143150000Y-104750000D01*
X141650000Y-102262000D02*
X141650000Y-103250000D01*
%TO.N,/LPUART_RX*%
X142150000Y-103000000D02*
X143900000Y-104750000D01*
X142150000Y-102262000D02*
X142150000Y-103000000D01*
%TO.N,/QUADSPI_BK2_IO3*%
X168200000Y-96865000D02*
X166732000Y-96865000D01*
X144650000Y-104750000D02*
X144650000Y-102262000D01*
%TO.N,/DCMI_PIXCLK*%
X145650000Y-106750000D02*
X145650000Y-102262000D01*
%TO.N,/DCMI_HSYNC*%
X146650000Y-106250000D02*
X146650000Y-102262000D01*
%TO.N,/QUADSPI_CLK*%
X168200000Y-98135000D02*
X166732000Y-98135000D01*
X148150000Y-105250000D02*
X148150000Y-102262000D01*
%TO.N,/QUADSPI_BK1_NCS*%
X159668000Y-94332000D02*
X159668000Y-95595000D01*
X162400000Y-91600000D02*
X159668000Y-94332000D01*
X150138000Y-102934098D02*
X150138000Y-104250000D01*
X157477098Y-95595000D02*
X150138000Y-102934098D01*
X159668000Y-95595000D02*
X157477098Y-95595000D01*
%TO.N,/QUADSPI_BK2_IO2*%
X152100000Y-106750000D02*
X150138000Y-106750000D01*
X158200000Y-98135000D02*
X159668000Y-98135000D01*
%TO.N,/QUADSPI_BK2_IO1*%
X151500000Y-107250000D02*
X150138000Y-107250000D01*
X158200000Y-96865000D02*
X159668000Y-96865000D01*
%TO.N,/QUADSPI_BK2_IO0*%
X152100000Y-107750000D02*
X150138000Y-107750000D01*
X168200000Y-99405000D02*
X166732000Y-99405000D01*
%TO.N,/RST*%
X151190000Y-90755000D02*
X150445000Y-91500000D01*
X151190000Y-88950000D02*
X151190000Y-90755000D01*
%TO.N,/BOOT0*%
X153730000Y-124285000D02*
X152945000Y-123500000D01*
X153730000Y-127050000D02*
X153730000Y-124285000D01*
%TO.N,Net-(LED1-Pad2)*%
X142500000Y-119000000D02*
X142500000Y-121450000D01*
%TO.N,Net-(LED2-Pad2)*%
X146000000Y-119000000D02*
X146000000Y-121450000D01*
%TO.N,Net-(Q2-Pad2)*%
X151200000Y-124500000D02*
X150700000Y-124000000D01*
X152945000Y-124500000D02*
X151200000Y-124500000D01*
%TO.N,Net-(C10-Pad1)*%
X157209499Y-106609499D02*
X154290501Y-106609499D01*
X154290501Y-106609499D02*
X153450000Y-107450000D01*
X158100000Y-107500000D02*
X157209499Y-106609499D01*
X151650000Y-109250000D02*
X150138000Y-109250000D01*
X153450000Y-107450000D02*
X151650000Y-109250000D01*
%TD*%
M02*
