%TF.GenerationSoftware,KiCad,Pcbnew,5.1.6-c6e7f7d~87~ubuntu18.04.1*%
%TF.CreationDate,2020-07-14T09:50:44-04:00*%
%TF.ProjectId,ta-expt,74612d65-7870-4742-9e6b-696361645f70,rev?*%
%TF.SameCoordinates,Original*%
%TF.FileFunction,Copper,L4,Bot*%
%TF.FilePolarity,Positive*%
%FSLAX46Y46*%
G04 Gerber Fmt 4.6, Leading zero omitted, Abs format (unit mm)*
G04 Created by KiCad (PCBNEW 5.1.6-c6e7f7d~87~ubuntu18.04.1) date 2020-07-14 09:50:44*
%MOMM*%
%LPD*%
G01*
G04 APERTURE LIST*
%TA.AperFunction,ComponentPad*%
%ADD10C,1.540000*%
%TD*%
%TA.AperFunction,ComponentPad*%
%ADD11C,2.540000*%
%TD*%
%TA.AperFunction,ViaPad*%
%ADD12C,0.457200*%
%TD*%
%TA.AperFunction,Conductor*%
%ADD13C,0.127000*%
%TD*%
G04 APERTURE END LIST*
D10*
%TO.P,J3,4*%
%TO.N,/SWCLK*%
X135950000Y-124510000D03*
%TO.P,J3,3*%
%TO.N,/SWDIO*%
X135950000Y-121970000D03*
%TO.P,J3,2*%
%TO.N,GND*%
X135950000Y-119430000D03*
%TO.P,J3,1*%
%TO.N,VDD*%
X135950000Y-116890000D03*
%TD*%
%TO.P,J1,16*%
%TO.N,Net-(J1-Pad16)*%
X174050000Y-88950000D03*
%TO.P,J1,15*%
%TO.N,Net-(J1-Pad15)*%
X171510000Y-88950000D03*
%TO.P,J1,14*%
%TO.N,Net-(J1-Pad14)*%
X168970000Y-88950000D03*
%TO.P,J1,13*%
%TO.N,Net-(J1-Pad13)*%
X166430000Y-88950000D03*
%TO.P,J1,12*%
%TO.N,/USART1_RTS*%
X163890000Y-88950000D03*
%TO.P,J1,11*%
%TO.N,/USART1_RX*%
X161350000Y-88950000D03*
%TO.P,J1,10*%
%TO.N,/USART1_TX*%
X158810000Y-88950000D03*
%TO.P,J1,9*%
%TO.N,/USART1_CTS*%
X156270000Y-88950000D03*
%TO.P,J1,8*%
%TO.N,/USART1_CK*%
X153730000Y-88950000D03*
%TO.P,J1,7*%
%TO.N,/RST*%
X151190000Y-88950000D03*
%TO.P,J1,6*%
%TO.N,Net-(J1-Pad6)*%
X148650000Y-88950000D03*
%TO.P,J1,5*%
%TO.N,Net-(J1-Pad5)*%
X146110000Y-88950000D03*
%TO.P,J1,4*%
%TO.N,Net-(J1-Pad4)*%
X143570000Y-88950000D03*
%TO.P,J1,3*%
%TO.N,GND*%
X141030000Y-88950000D03*
%TO.P,J1,2*%
%TO.N,Net-(J1-Pad2)*%
X138490000Y-88950000D03*
%TO.P,J1,1*%
%TO.N,Net-(J1-Pad1)*%
X135950000Y-88950000D03*
%TD*%
%TO.P,J2,16*%
%TO.N,Net-(J2-Pad16)*%
X174050000Y-127050000D03*
%TO.P,J2,15*%
%TO.N,Net-(J2-Pad15)*%
X171510000Y-127050000D03*
%TO.P,J2,14*%
%TO.N,Net-(J2-Pad14)*%
X168970000Y-127050000D03*
%TO.P,J2,13*%
%TO.N,Net-(J2-Pad13)*%
X166430000Y-127050000D03*
%TO.P,J2,12*%
%TO.N,/LPUART_RTS*%
X163890000Y-127050000D03*
%TO.P,J2,11*%
%TO.N,/LPUART_RX*%
X161350000Y-127050000D03*
%TO.P,J2,10*%
%TO.N,/LPUART_TX*%
X158810000Y-127050000D03*
%TO.P,J2,9*%
%TO.N,/LPUART_CTS*%
X156270000Y-127050000D03*
%TO.P,J2,8*%
%TO.N,/BOOT0*%
X153730000Y-127050000D03*
%TO.P,J2,7*%
%TO.N,Net-(J2-Pad7)*%
X151190000Y-127050000D03*
%TO.P,J2,6*%
%TO.N,Net-(J2-Pad6)*%
X148650000Y-127050000D03*
%TO.P,J2,5*%
%TO.N,Net-(J2-Pad5)*%
X146110000Y-127050000D03*
%TO.P,J2,4*%
%TO.N,Net-(J2-Pad4)*%
X143570000Y-127050000D03*
%TO.P,J2,3*%
%TO.N,GND*%
X141030000Y-127050000D03*
%TO.P,J2,2*%
%TO.N,Net-(J2-Pad2)*%
X138490000Y-127050000D03*
%TO.P,J2,1*%
%TO.N,Net-(J2-Pad1)*%
X135950000Y-127050000D03*
%TD*%
%TO.P,J4,12*%
%TO.N,/DCMI_VSYNC*%
X168970000Y-101650000D03*
%TO.P,J4,11*%
%TO.N,/DCMI_HSYNC*%
X171510000Y-101650000D03*
%TO.P,J4,10*%
%TO.N,/DCMI_PIXCLK*%
X168970000Y-104190000D03*
%TO.P,J4,9*%
%TO.N,Net-(J4-Pad9)*%
X171510000Y-104190000D03*
%TO.P,J4,8*%
%TO.N,/DCMI_D7*%
X168970000Y-106730000D03*
%TO.P,J4,7*%
%TO.N,/DCMI_D6*%
X171510000Y-106730000D03*
%TO.P,J4,6*%
%TO.N,/DCMI_D5*%
X168970000Y-109270000D03*
%TO.P,J4,5*%
%TO.N,/DCMI_D4*%
X171510000Y-109270000D03*
%TO.P,J4,4*%
%TO.N,/DCMI_D3*%
X168970000Y-111810000D03*
%TO.P,J4,3*%
%TO.N,/DCMI_D2*%
X171510000Y-111810000D03*
%TO.P,J4,2*%
%TO.N,/DCMI_D1*%
X168970000Y-114350000D03*
%TO.P,J4,1*%
%TO.N,/DCMI_D0*%
X171510000Y-114350000D03*
%TD*%
D11*
%TO.P,J5,4*%
%TO.N,GND*%
X174960000Y-113080000D03*
%TO.P,J5,3*%
X135040000Y-113080000D03*
%TO.P,J5,2*%
X174960000Y-102920000D03*
%TO.P,J5,1*%
X135040000Y-102920000D03*
%TD*%
D12*
%TO.N,GND*%
X151750000Y-105750000D03*
X147650000Y-100900000D03*
X141150000Y-100900000D03*
X137300000Y-111300000D03*
X147650000Y-115100000D03*
X150600000Y-117300000D03*
X140600000Y-97400000D03*
X147200000Y-97400000D03*
X160600000Y-109700000D03*
X160600000Y-112700000D03*
X160600000Y-115300000D03*
X160600000Y-107500000D03*
X149400000Y-92500000D03*
X158200000Y-99400000D03*
X155500000Y-105200000D03*
X158500000Y-101200000D03*
X158500000Y-103200000D03*
X154500000Y-100200000D03*
X154500000Y-104200000D03*
X156400000Y-107450000D03*
X152400000Y-109750000D03*
X167800000Y-121200000D03*
X151800000Y-121000000D03*
X141400000Y-122950000D03*
X147100000Y-122950000D03*
%TO.N,/VDD_FILT*%
X137300000Y-111900000D03*
X139500000Y-99900000D03*
X148300000Y-99900000D03*
X168200000Y-95600000D03*
X156100000Y-104200000D03*
X155500000Y-124000000D03*
X149200000Y-117300000D03*
X139950000Y-118150000D03*
%TO.N,/NRST*%
X153100000Y-92000000D03*
X153100000Y-104200000D03*
%TO.N,/DCMI_D7*%
X146150000Y-109400000D03*
%TO.N,/DCMI_D6*%
X147150000Y-109400000D03*
%TO.N,/DCMI_VSYNC*%
X145050000Y-110250000D03*
%TO.N,/DCMI_D5*%
X146150000Y-110250000D03*
%TO.N,/DCMI_D4*%
X147150000Y-110250000D03*
%TO.N,/USART1_RTS*%
X142000000Y-110250000D03*
%TO.N,/USART1_CTS*%
X140500000Y-109750000D03*
%TO.N,/USART1_RX*%
X141500000Y-109250000D03*
%TO.N,/USART1_TX*%
X141000000Y-108750000D03*
%TO.N,/USART1_CK*%
X140100000Y-108250000D03*
%TO.N,/DCMI_D3*%
X146150000Y-111100000D03*
%TO.N,/DCMI_D2*%
X147150000Y-111100000D03*
%TO.N,/DCMI_D1*%
X146150000Y-111950000D03*
%TO.N,/DCMI_D0*%
X147150000Y-111950000D03*
%TO.N,/LPUART_CTS*%
X143150000Y-105750000D03*
%TO.N,/LPUART_RTS*%
X144650000Y-105750000D03*
%TO.N,/LPUART_TX*%
X143150000Y-104750000D03*
%TO.N,/LPUART_RX*%
X143900000Y-104750000D03*
%TO.N,/QUADSPI_BK2_IO3*%
X144650000Y-104750000D03*
X168200000Y-96865000D03*
%TO.N,/DCMI_PIXCLK*%
X145650000Y-106750000D03*
%TO.N,/DCMI_HSYNC*%
X146650000Y-106250000D03*
%TO.N,/QUADSPI_CLK*%
X148150000Y-105250000D03*
X168200000Y-98135000D03*
%TO.N,/QUADSPI_BK2_IO2*%
X152100000Y-106750000D03*
X158200000Y-98135000D03*
%TO.N,/QUADSPI_BK2_IO1*%
X151500000Y-107250000D03*
X158200000Y-96865000D03*
%TO.N,/QUADSPI_BK2_IO0*%
X152100000Y-107750000D03*
X168200000Y-99405000D03*
%TD*%
D13*
%TO.N,/NRST*%
X153100000Y-92000000D02*
X153100000Y-104200000D01*
%TO.N,/DCMI_D7*%
X166768871Y-108931129D02*
X168970000Y-106730000D01*
X146618871Y-108931129D02*
X166768871Y-108931129D01*
X146150000Y-109400000D02*
X146618871Y-108931129D01*
%TO.N,/DCMI_D6*%
X170549499Y-107690501D02*
X171510000Y-106730000D01*
X169127957Y-107690501D02*
X170549499Y-107690501D01*
X167633318Y-109185140D02*
X169127957Y-107690501D01*
X147364860Y-109185140D02*
X167633318Y-109185140D01*
X147150000Y-109400000D02*
X147364860Y-109185140D01*
%TO.N,/DCMI_VSYNC*%
X169431041Y-105150501D02*
X160038217Y-105150501D01*
X169930501Y-102610501D02*
X169930501Y-104651041D01*
X160038217Y-105150501D02*
X156511598Y-108677120D01*
X169930501Y-104651041D02*
X169431041Y-105150501D01*
X168970000Y-101650000D02*
X169930501Y-102610501D01*
X146252610Y-108677120D02*
X156511598Y-108677120D01*
X145050000Y-109879730D02*
X146252610Y-108677120D01*
X145050000Y-110250000D02*
X145050000Y-109879730D01*
%TO.N,/DCMI_D5*%
X146580899Y-109819101D02*
X146150000Y-110250000D01*
X147819101Y-109819101D02*
X146580899Y-109819101D01*
X148169101Y-110169101D02*
X147819101Y-109819101D01*
X168070899Y-110169101D02*
X148169101Y-110169101D01*
X168970000Y-109270000D02*
X168070899Y-110169101D01*
%TO.N,/DCMI_D4*%
X148063887Y-110423111D02*
X170356889Y-110423111D01*
X147890776Y-110250000D02*
X148063887Y-110423111D01*
X170356889Y-110423111D02*
X171510000Y-109270000D01*
X147150000Y-110250000D02*
X147890776Y-110250000D01*
%TO.N,/USART1_RTS*%
X142585141Y-109664859D02*
X142000000Y-110250000D01*
X163890000Y-88950000D02*
X161259101Y-91580899D01*
X161259101Y-91580899D02*
X149698831Y-91580899D01*
X142585141Y-98714859D02*
X142585141Y-109664859D01*
X149698831Y-91580899D02*
X148980899Y-92298831D01*
X148980899Y-92298831D02*
X148980899Y-92319101D01*
X148980899Y-92319101D02*
X142585141Y-98714859D01*
%TO.N,/USART1_CTS*%
X141823111Y-106886113D02*
X141823111Y-98378947D01*
X140519101Y-108190123D02*
X141823111Y-106886113D01*
X140500000Y-109750000D02*
X140519101Y-109730899D01*
X140519101Y-109730899D02*
X140519101Y-108190123D01*
X154401129Y-90818871D02*
X149383187Y-90818871D01*
X149383187Y-90818871D02*
X141823111Y-98378947D01*
X156270000Y-88950000D02*
X154401129Y-90818871D01*
%TO.N,/USART1_RX*%
X142331131Y-108418869D02*
X141500000Y-109250000D01*
X142331131Y-98589375D02*
X142331131Y-108418869D01*
X149593616Y-91326890D02*
X142331131Y-98589375D01*
X158973111Y-91326889D02*
X149593616Y-91326890D01*
X161350000Y-88950000D02*
X158973111Y-91326889D01*
%TO.N,/USART1_TX*%
X142077121Y-98484161D02*
X142077121Y-107672879D01*
X142077121Y-107672879D02*
X141000000Y-108750000D01*
X149488401Y-91072881D02*
X142077121Y-98484161D01*
X156687119Y-91072881D02*
X149488401Y-91072881D01*
X158810000Y-88950000D02*
X156687119Y-91072881D01*
%TO.N,/USART1_CK*%
X141569101Y-106780899D02*
X140100000Y-108250000D01*
X141569101Y-98273733D02*
X141569101Y-106780899D01*
X149277973Y-90564861D02*
X141569101Y-98273733D01*
X153730000Y-88950000D02*
X152115139Y-90564861D01*
X152115139Y-90564861D02*
X149277973Y-90564861D01*
%TO.N,/DCMI_D3*%
X167840899Y-110680899D02*
X168970000Y-111810000D01*
X146569101Y-110680899D02*
X167840899Y-110680899D01*
X146150000Y-111100000D02*
X146569101Y-110680899D01*
%TO.N,/DCMI_D2*%
X170549499Y-112770501D02*
X171510000Y-111810000D01*
X168508959Y-112770501D02*
X170549499Y-112770501D01*
X166838458Y-111100000D02*
X168508959Y-112770501D01*
X147150000Y-111100000D02*
X166838458Y-111100000D01*
%TO.N,/DCMI_D1*%
X146150000Y-111950000D02*
X146569101Y-111530899D01*
X146569101Y-111530899D02*
X160410393Y-111530899D01*
X163229494Y-114350000D02*
X160410393Y-111530899D01*
X168970000Y-114350000D02*
X163229494Y-114350000D01*
%TO.N,/DCMI_D0*%
X170549499Y-115310501D02*
X171510000Y-114350000D01*
X160470270Y-111950000D02*
X163830771Y-115310501D01*
X163830771Y-115310501D02*
X170549499Y-115310501D01*
X147150000Y-111950000D02*
X160470270Y-111950000D01*
%TO.N,/LPUART_CTS*%
X156152058Y-127050000D02*
X156270000Y-127050000D01*
X143150000Y-114047942D02*
X156152058Y-127050000D01*
X143150000Y-105750000D02*
X143150000Y-114047942D01*
%TO.N,/LPUART_RTS*%
X161259101Y-124419101D02*
X163890000Y-127050000D01*
X144421401Y-114241671D02*
X154598831Y-124419101D01*
X144421401Y-105978599D02*
X144421401Y-114241671D01*
X154598831Y-124419101D02*
X161259101Y-124419101D01*
X144650000Y-105750000D02*
X144421401Y-105978599D01*
%TO.N,/LPUART_TX*%
X154388401Y-124927119D02*
X143600000Y-114138718D01*
X143600000Y-105200000D02*
X143150000Y-104750000D01*
X143600000Y-114138718D02*
X143600000Y-105200000D01*
X156687119Y-124927119D02*
X154388401Y-124927119D01*
X158810000Y-127050000D02*
X156687119Y-124927119D01*
%TO.N,/LPUART_RX*%
X143900000Y-114079494D02*
X143900000Y-104750000D01*
X158973110Y-124673110D02*
X154493616Y-124673110D01*
X154493616Y-124673110D02*
X143900000Y-114079494D01*
X161350000Y-127050000D02*
X158973110Y-124673110D01*
%TO.N,/QUADSPI_BK2_IO3*%
X144650000Y-104750000D02*
X154570506Y-104750000D01*
X154570506Y-104750000D02*
X155820506Y-103500000D01*
X155820506Y-103500000D02*
X155820505Y-98265001D01*
X155820505Y-98265001D02*
X157893617Y-96191889D01*
X157893617Y-96191889D02*
X167526889Y-96191889D01*
X167526889Y-96191889D02*
X168200000Y-96865000D01*
%TO.N,/DCMI_PIXCLK*%
X168970000Y-104190000D02*
X160639494Y-104190000D01*
X156406383Y-108423111D02*
X160639494Y-104190000D01*
X147323111Y-108423111D02*
X156406383Y-108423111D01*
X145650000Y-106750000D02*
X147323111Y-108423111D01*
%TO.N,/DCMI_HSYNC*%
X170549499Y-100689499D02*
X171510000Y-101650000D01*
X163780771Y-100689499D02*
X170549499Y-100689499D01*
X156301169Y-108169101D02*
X163780771Y-100689499D01*
X148569101Y-108169101D02*
X156301169Y-108169101D01*
X146650000Y-106250000D02*
X148569101Y-108169101D01*
%TO.N,/QUADSPI_CLK*%
X154429730Y-105250000D02*
X148150000Y-105250000D01*
X156074515Y-103605215D02*
X154429730Y-105250000D01*
X157998831Y-96445899D02*
X156074514Y-98370215D01*
X156074514Y-98370215D02*
X156074515Y-103605215D01*
X166510899Y-96445899D02*
X157998831Y-96445899D01*
X168200000Y-98135000D02*
X166510899Y-96445899D01*
%TO.N,/QUADSPI_BK2_IO2*%
X156773110Y-104906384D02*
X155806383Y-105873111D01*
X158200000Y-98135000D02*
X156773111Y-99561889D01*
X156773111Y-99561889D02*
X156773110Y-104906384D01*
X152976889Y-105873111D02*
X152100000Y-106750000D01*
X155806383Y-105873111D02*
X152976889Y-105873111D01*
%TO.N,/QUADSPI_BK2_IO1*%
X156519101Y-104801169D02*
X156519101Y-98545899D01*
X156519101Y-98545899D02*
X158200000Y-96865000D01*
X155701169Y-105619101D02*
X156519101Y-104801169D01*
X152610629Y-105619101D02*
X155701169Y-105619101D01*
X151500000Y-106729730D02*
X152610629Y-105619101D01*
X151500000Y-107250000D02*
X151500000Y-106729730D01*
%TO.N,/QUADSPI_BK2_IO0*%
X168200000Y-99405000D02*
X162915270Y-99405000D01*
X154570270Y-107750000D02*
X152100000Y-107750000D01*
X162915270Y-99405000D02*
X154570270Y-107750000D01*
%TD*%
M02*
