M48
; DRILL file {KiCad 5.1.6-c6e7f7d~87~ubuntu18.04.1} date Tue Jul 28 21:03:35 2020
; FORMAT={-:-/ absolute / inch / decimal}
; #@! TF.CreationDate,2020-07-28T21:03:35-04:00
; #@! TF.GenerationSoftware,Kicad,Pcbnew,5.1.6-c6e7f7d~87~ubuntu18.04.1
FMAT,2
INCH
T1C0.0100
T2C0.0394
T3C0.0858
%
G90
G05
T1
X5.4055Y-4.3819
X5.4055Y-4.4055
X5.4921Y-3.9331
X5.5098Y-4.6516
X5.5157Y-4.2618
X5.5315Y-4.3209
X5.5354Y-3.8346
X5.5512Y-4.2815
X5.5571Y-3.9724
X5.5669Y-4.8406
X5.5709Y-4.3012
X5.5906Y-4.3406
X5.6358Y-4.124
X5.6358Y-4.1634
X5.6654Y-4.124
X5.6949Y-4.124
X5.6949Y-4.1634
X5.7106Y-4.3406
X5.7343Y-4.2028
X5.7539Y-4.3071
X5.7539Y-4.3406
X5.7539Y-4.374
X5.7539Y-4.4075
X5.7736Y-4.1831
X5.7913Y-4.8406
X5.7933Y-4.3071
X5.7933Y-4.3406
X5.7933Y-4.374
X5.7933Y-4.4075
X5.7953Y-3.8346
X5.813Y-3.9724
X5.813Y-4.5315
X5.8327Y-4.1437
X5.8386Y-3.9331
X5.874Y-4.6181
X5.8819Y-3.6417
X5.9291Y-4.6181
X5.9646Y-4.2224
X5.9744Y-4.1634
X5.9764Y-4.7638
X5.9882Y-4.2028
X5.9882Y-4.2421
X6.0Y-4.3209
X6.0276Y-3.622
X6.0276Y-4.1024
X6.0827Y-3.9449
X6.0827Y-4.1024
X6.122Y-4.1417
X6.122Y-4.8819
X6.1457Y-4.1024
X6.1575Y-4.2303
X6.2283Y-3.8136
X6.2283Y-3.8636
X6.2283Y-3.9134
X6.2402Y-3.9843
X6.2402Y-4.063
X6.3228Y-4.2323
X6.3228Y-4.3189
X6.3228Y-4.437
X6.3228Y-4.5394
X6.6063Y-4.7717
X6.622Y-3.7638
X6.622Y-3.8136
X6.622Y-3.8636
X6.622Y-3.9136
T2
X5.3524Y-4.602
X5.3524Y-4.702
X5.3524Y-4.802
X5.3524Y-4.902
X6.7524Y-4.602
X6.8524Y-4.602
X6.8524Y-4.702
X6.8524Y-4.802
X6.8524Y-4.902
X5.3524Y-3.602
X5.3524Y-3.702
X5.3524Y-3.802
X5.3524Y-3.902
X6.6524Y-4.002
X6.6524Y-4.102
X6.6524Y-4.202
X6.6524Y-4.302
X6.6524Y-4.402
X6.6524Y-4.502
X6.7524Y-4.002
X6.7524Y-4.102
X6.7524Y-4.202
X6.7524Y-4.302
X6.7524Y-4.402
X6.7524Y-4.502
X5.3524Y-3.502
X5.4524Y-3.502
X5.5524Y-3.502
X5.6524Y-3.502
X5.7524Y-3.502
X5.8524Y-3.502
X5.9524Y-3.502
X6.0524Y-3.502
X6.1524Y-3.502
X6.2524Y-3.502
X6.3524Y-3.502
X6.4524Y-3.502
X6.5524Y-3.502
X6.6524Y-3.502
X6.7524Y-3.502
X6.8524Y-3.502
X6.7524Y-3.902
X6.8524Y-3.602
X6.8524Y-3.702
X6.8524Y-3.802
X6.8524Y-3.902
X5.3524Y-5.002
X5.4524Y-5.002
X5.5524Y-5.002
X5.6524Y-5.002
X5.7524Y-5.002
X5.8524Y-5.002
X5.9524Y-5.002
X6.0524Y-5.002
X6.1524Y-5.002
X6.2524Y-5.002
X6.3524Y-5.002
X6.4524Y-5.002
X6.5524Y-5.002
X6.6524Y-5.002
X6.7524Y-5.002
X6.8524Y-5.002
T3
X5.3165Y-4.052
X5.3165Y-4.452
X6.8882Y-4.052
X6.8882Y-4.452
T0
M30
