M48
; DRILL file {KiCad 5.1.10-88a1d61d58~90~ubuntu20.04.1} date Tue Jul 27 13:56:25 2021
; FORMAT={-:-/ absolute / inch / decimal}
; #@! TF.CreationDate,2021-07-27T13:56:25-04:00
; #@! TF.GenerationSoftware,Kicad,Pcbnew,5.1.10-88a1d61d58~90~ubuntu20.04.1
FMAT,2
INCH
T1C0.0100
T2C0.0140
T3C0.0394
T4C0.0858
%
G90
G05
T1
X5.2835Y-4.315
X5.2933Y-4.2185
X5.3024Y-4.185
X5.3024Y-4.2638
X5.3024Y-4.3386
X5.3874Y-4.2874
X5.4173Y-4.185
X5.4173Y-4.2638
X5.437Y-4.1339
X5.4528Y-4.2067
X5.4528Y-4.2303
X5.4528Y-4.2913
X5.4528Y-4.315
X5.4528Y-4.3386
X5.4547Y-3.9685
X5.4547Y-4.002
X5.4724Y-4.0984
X5.5059Y-4.0925
X5.5276Y-4.0827
X5.5394Y-4.3976
X5.5433Y-4.7028
X5.5472Y-3.7598
X5.5787Y-4.1043
X5.5984Y-4.0886
X5.6031Y-4.4618
X5.6031Y-4.5146
X5.6142Y-4.7028
X5.6161Y-3.9882
X5.6161Y-4.3976
X5.6398Y-4.3976
X5.6496Y-3.7598
X5.7126Y-3.8346
X5.7402Y-3.9331
X5.7461Y-3.9882
X5.7461Y-4.0433
X5.7756Y-4.3701
X5.7756Y-4.5138
X5.8071Y-4.1575
X5.8071Y-4.3268
X5.8083Y-4.0787
X5.861Y-4.0787
X5.8622Y-4.1575
X5.8622Y-4.3268
X5.9016Y-4.0315
X5.9331Y-4.126
X6.0906Y-4.2283
X6.0906Y-4.2756
X6.1339Y-4.185
X6.1339Y-4.3189
X6.1772Y-4.5354
X6.1772Y-4.5906
X6.1811Y-4.185
X6.1811Y-4.3189
X6.2244Y-4.2283
X6.2244Y-4.2756
X6.2756Y-4.1496
X6.2756Y-4.252
X6.2756Y-4.3543
X6.3031Y-4.4685
X6.3386Y-4.0866
X6.3465Y-4.1496
X6.378Y-4.1496
X6.378Y-4.3543
X6.4094Y-4.3543
X6.4173Y-4.5669
X6.4173Y-4.637
X6.4488Y-4.0866
X6.4528Y-4.4134
X6.4528Y-4.4685
X6.4724Y-3.8268
X6.4803Y-4.1496
X6.4803Y-4.252
X6.4803Y-4.2835
X6.4803Y-4.3543
X6.5433Y-4.3976
X6.5669Y-3.7402
X6.5669Y-4.702
X6.6063Y-4.3976
X6.6614Y-3.8268
T2
X5.5394Y-4.1929
X5.5394Y-4.252
X5.5394Y-4.311
X5.5984Y-4.1929
X5.5984Y-4.252
X5.5984Y-4.311
X5.6575Y-4.1929
X5.6575Y-4.252
X5.6575Y-4.311
X6.1575Y-4.252
X6.378Y-4.252
T3
X5.3524Y-3.502
X5.3524Y-3.602
X5.3524Y-3.702
X5.3524Y-3.802
X5.3524Y-3.902
X5.3524Y-4.602
X5.3524Y-4.702
X5.3524Y-4.802
X5.3524Y-4.902
X5.3524Y-5.002
X5.4524Y-3.502
X5.4524Y-5.002
X5.5524Y-3.502
X5.5524Y-5.002
X5.6524Y-3.502
X5.6524Y-5.002
X5.7524Y-3.502
X5.7524Y-5.002
X5.8524Y-3.502
X5.8524Y-5.002
X5.9524Y-3.502
X5.9524Y-5.002
X6.0524Y-3.502
X6.0524Y-5.002
X6.1524Y-3.502
X6.1524Y-5.002
X6.2524Y-3.502
X6.2524Y-5.002
X6.3524Y-3.502
X6.3524Y-5.002
X6.4524Y-3.502
X6.4524Y-5.002
X6.5524Y-3.502
X6.5524Y-5.002
X6.6524Y-3.502
X6.6524Y-5.002
X6.7524Y-3.502
X6.7524Y-3.902
X6.7524Y-4.602
X6.7524Y-5.002
X6.8524Y-3.502
X6.8524Y-3.602
X6.8524Y-3.702
X6.8524Y-3.802
X6.8524Y-3.902
X6.8524Y-4.602
X6.8524Y-4.702
X6.8524Y-4.802
X6.8524Y-4.902
X6.8524Y-5.002
T4
X5.3559Y-4.052
X5.3559Y-4.452
X6.8488Y-4.052
X6.8488Y-4.452
T0
M30
