%TF.GenerationSoftware,KiCad,Pcbnew,5.1.10-88a1d61d58~90~ubuntu20.04.1*%
%TF.CreationDate,2021-07-27T13:56:02-04:00*%
%TF.ProjectId,ta-comm-401,74612d63-6f6d-46d2-9d34-30312e6b6963,rev?*%
%TF.SameCoordinates,Original*%
%TF.FileFunction,Copper,L1,Top*%
%TF.FilePolarity,Positive*%
%FSLAX46Y46*%
G04 Gerber Fmt 4.6, Leading zero omitted, Abs format (unit mm)*
G04 Created by KiCad (PCBNEW 5.1.10-88a1d61d58~90~ubuntu20.04.1) date 2021-07-27 13:56:02*
%MOMM*%
%LPD*%
G01*
G04 APERTURE LIST*
%TA.AperFunction,ComponentPad*%
%ADD10C,1.540000*%
%TD*%
%TA.AperFunction,ComponentPad*%
%ADD11C,2.540000*%
%TD*%
%TA.AperFunction,SMDPad,CuDef*%
%ADD12R,0.780000X0.990000*%
%TD*%
%TA.AperFunction,SMDPad,CuDef*%
%ADD13R,0.940000X0.800000*%
%TD*%
%TA.AperFunction,SMDPad,CuDef*%
%ADD14R,0.830000X0.960000*%
%TD*%
%TA.AperFunction,SMDPad,CuDef*%
%ADD15R,0.990000X0.780000*%
%TD*%
%TA.AperFunction,SMDPad,CuDef*%
%ADD16R,0.800000X0.940000*%
%TD*%
%TA.AperFunction,SMDPad,CuDef*%
%ADD17R,0.960000X0.830000*%
%TD*%
%TA.AperFunction,SMDPad,CuDef*%
%ADD18R,0.950000X1.000000*%
%TD*%
%TA.AperFunction,ComponentPad*%
%ADD19C,0.609600*%
%TD*%
%TA.AperFunction,SMDPad,CuDef*%
%ADD20R,0.760000X0.260000*%
%TD*%
%TA.AperFunction,SMDPad,CuDef*%
%ADD21R,0.260000X0.760000*%
%TD*%
%TA.AperFunction,SMDPad,CuDef*%
%ADD22R,4.500000X4.500000*%
%TD*%
%TA.AperFunction,SMDPad,CuDef*%
%ADD23R,0.600000X0.250000*%
%TD*%
%TA.AperFunction,SMDPad,CuDef*%
%ADD24R,0.250000X0.600000*%
%TD*%
%TA.AperFunction,SMDPad,CuDef*%
%ADD25R,1.150000X1.150000*%
%TD*%
%TA.AperFunction,SMDPad,CuDef*%
%ADD26R,0.750000X0.750000*%
%TD*%
%TA.AperFunction,SMDPad,CuDef*%
%ADD27R,0.750000X0.500000*%
%TD*%
%TA.AperFunction,SMDPad,CuDef*%
%ADD28R,0.500000X0.750000*%
%TD*%
%TA.AperFunction,SMDPad,CuDef*%
%ADD29R,2.000000X2.000000*%
%TD*%
%TA.AperFunction,SMDPad,CuDef*%
%ADD30R,1.400000X0.600000*%
%TD*%
%TA.AperFunction,SMDPad,CuDef*%
%ADD31R,1.050000X2.200000*%
%TD*%
%TA.AperFunction,ComponentPad*%
%ADD32C,0.675600*%
%TD*%
%TA.AperFunction,SMDPad,CuDef*%
%ADD33R,0.800000X0.800000*%
%TD*%
%TA.AperFunction,SMDPad,CuDef*%
%ADD34R,0.800000X1.000000*%
%TD*%
%TA.AperFunction,SMDPad,CuDef*%
%ADD35R,1.000000X0.800000*%
%TD*%
%TA.AperFunction,SMDPad,CuDef*%
%ADD36R,1.600000X1.300000*%
%TD*%
%TA.AperFunction,ViaPad*%
%ADD37C,0.457200*%
%TD*%
%TA.AperFunction,Conductor*%
%ADD38C,0.337820*%
%TD*%
%TA.AperFunction,Conductor*%
%ADD39C,0.203200*%
%TD*%
%TA.AperFunction,Conductor*%
%ADD40C,0.127000*%
%TD*%
G04 APERTURE END LIST*
D10*
%TO.P,J6,5*%
%TO.N,Net-(J6-Pad5)*%
X174050000Y-124510000D03*
%TO.P,J6,4*%
%TO.N,Net-(J6-Pad4)*%
X174050000Y-121970000D03*
%TO.P,J6,3*%
%TO.N,GND*%
X174050000Y-119430000D03*
%TO.P,J6,2*%
%TO.N,Net-(J6-Pad2)*%
X174050000Y-116890000D03*
%TO.P,J6,1*%
%TO.N,Net-(J6-Pad1)*%
X171510000Y-116890000D03*
%TD*%
D11*
%TO.P,J7,4*%
%TO.N,GND*%
X173960000Y-113080000D03*
%TO.P,J7,3*%
X136040000Y-113080000D03*
%TO.P,J7,2*%
X173960000Y-102920000D03*
%TO.P,J7,1*%
X136040000Y-102920000D03*
%TD*%
D12*
%TO.P,C17,1*%
%TO.N,/VDD_FILT*%
X163100000Y-103800000D03*
%TO.P,C17,2*%
%TO.N,GND*%
X161700000Y-103800000D03*
%TD*%
D13*
%TO.P,C21,1*%
%TO.N,Net-(C20-Pad1)*%
X166200000Y-109530000D03*
%TO.P,C21,2*%
%TO.N,GND*%
X166200000Y-110870000D03*
%TD*%
D14*
%TO.P,C13,1*%
%TO.N,Net-(C12-Pad2)*%
X152320000Y-107750000D03*
%TO.P,C13,2*%
%TO.N,Net-(C13-Pad2)*%
X153680000Y-107750000D03*
%TD*%
D12*
%TO.P,C2,1*%
%TO.N,/VDD_FILT*%
X140900000Y-96570000D03*
%TO.P,C2,2*%
%TO.N,GND*%
X139500000Y-96570000D03*
%TD*%
D15*
%TO.P,C14,1*%
%TO.N,/VDD_FILT*%
X156000000Y-116600000D03*
%TO.P,C14,2*%
%TO.N,GND*%
X156000000Y-115200000D03*
%TD*%
D14*
%TO.P,C10,1*%
%TO.N,Net-(C10-Pad1)*%
X148880000Y-111000000D03*
%TO.P,C10,2*%
%TO.N,GND*%
X147520000Y-111000000D03*
%TD*%
D16*
%TO.P,C12,1*%
%TO.N,Net-(C12-Pad1)*%
X152330000Y-109800000D03*
%TO.P,C12,2*%
%TO.N,Net-(C12-Pad2)*%
X153670000Y-109800000D03*
%TD*%
D13*
%TO.P,C11,1*%
%TO.N,Net-(C11-Pad1)*%
X150700000Y-106970000D03*
%TO.P,C11,2*%
%TO.N,GND*%
X150700000Y-105630000D03*
%TD*%
D12*
%TO.P,C8,1*%
%TO.N,/VDD_FILT*%
X147500000Y-106500000D03*
%TO.P,C8,2*%
%TO.N,GND*%
X148900000Y-106500000D03*
%TD*%
D13*
%TO.P,C6,1*%
%TO.N,/VDD_FILT*%
X143200000Y-113330000D03*
%TO.P,C6,2*%
%TO.N,GND*%
X143200000Y-114670000D03*
%TD*%
D15*
%TO.P,C4,1*%
%TO.N,Net-(C4-Pad1)*%
X143500000Y-102700000D03*
%TO.P,C4,2*%
%TO.N,GND*%
X143500000Y-101300000D03*
%TD*%
D16*
%TO.P,C3,1*%
%TO.N,Net-(C3-Pad1)*%
X143630000Y-99900000D03*
%TO.P,C3,2*%
%TO.N,GND*%
X144970000Y-99900000D03*
%TD*%
D10*
%TO.P,J5,5*%
%TO.N,Net-(J5-Pad5)*%
X174050000Y-91490000D03*
%TO.P,J5,4*%
%TO.N,Net-(J5-Pad4)*%
X174050000Y-94030000D03*
%TO.P,J5,3*%
%TO.N,Net-(J5-Pad3)*%
X174050000Y-96570000D03*
%TO.P,J5,2*%
%TO.N,Net-(J5-Pad2)*%
X174050000Y-99110000D03*
%TO.P,J5,1*%
%TO.N,Net-(J5-Pad1)*%
X171510000Y-99110000D03*
%TD*%
D12*
%TO.P,C1,1*%
%TO.N,/VDD_FILT*%
X136840000Y-109700000D03*
%TO.P,C1,2*%
%TO.N,GND*%
X135440000Y-109700000D03*
%TD*%
D15*
%TO.P,C5,1*%
%TO.N,/VDD_FILT*%
X145100000Y-102700000D03*
%TO.P,C5,2*%
%TO.N,GND*%
X145100000Y-101300000D03*
%TD*%
D16*
%TO.P,C7,1*%
%TO.N,/VDD_FILT*%
X147530000Y-104500000D03*
%TO.P,C7,2*%
%TO.N,GND*%
X148870000Y-104500000D03*
%TD*%
D12*
%TO.P,C9,1*%
%TO.N,/VDD_FILT*%
X147500000Y-109000000D03*
%TO.P,C9,2*%
%TO.N,GND*%
X148900000Y-109000000D03*
%TD*%
D14*
%TO.P,C15,1*%
%TO.N,Net-(C15-Pad1)*%
X156220000Y-105300000D03*
%TO.P,C15,2*%
%TO.N,Net-(C15-Pad2)*%
X157580000Y-105300000D03*
%TD*%
%TO.P,C16,1*%
%TO.N,Net-(C16-Pad1)*%
X156220000Y-110700000D03*
%TO.P,C16,2*%
%TO.N,Net-(C16-Pad2)*%
X157580000Y-110700000D03*
%TD*%
D15*
%TO.P,C19,1*%
%TO.N,/VDD_FILT*%
X162800000Y-112100000D03*
%TO.P,C19,2*%
%TO.N,GND*%
X162800000Y-113500000D03*
%TD*%
%TO.P,C18,1*%
%TO.N,/VDD_FILT*%
X161200000Y-112100000D03*
%TO.P,C18,2*%
%TO.N,GND*%
X161200000Y-113500000D03*
%TD*%
D16*
%TO.P,C20,1*%
%TO.N,Net-(C20-Pad1)*%
X166330000Y-106400000D03*
%TO.P,C20,2*%
%TO.N,Net-(C20-Pad2)*%
X167670000Y-106400000D03*
%TD*%
D13*
%TO.P,C22,1*%
%TO.N,Net-(C20-Pad2)*%
X167800000Y-109530000D03*
%TO.P,C22,2*%
%TO.N,GND*%
X167800000Y-110870000D03*
%TD*%
D17*
%TO.P,C23,1*%
%TO.N,Net-(C20-Pad2)*%
X169700000Y-106480000D03*
%TO.P,C23,2*%
%TO.N,Net-(C23-Pad2)*%
X169700000Y-105120000D03*
%TD*%
%TO.P,C24,1*%
%TO.N,Net-(C20-Pad2)*%
X169700000Y-109520000D03*
%TO.P,C24,2*%
%TO.N,Net-(C24-Pad2)*%
X169700000Y-110880000D03*
%TD*%
D14*
%TO.P,C25,1*%
%TO.N,Net-(C24-Pad2)*%
X165280000Y-116000000D03*
%TO.P,C25,2*%
%TO.N,GND*%
X163920000Y-116000000D03*
%TD*%
%TO.P,C26,1*%
%TO.N,Net-(C26-Pad1)*%
X165280000Y-117780000D03*
%TO.P,C26,2*%
%TO.N,GND*%
X163920000Y-117780000D03*
%TD*%
D18*
%TO.P,FB1,1*%
%TO.N,VDD*%
X139400000Y-99110000D03*
%TO.P,FB1,2*%
%TO.N,/VDD_FILT*%
X141000000Y-99110000D03*
%TD*%
D19*
%TO.P,IC1,37*%
%TO.N,GND*%
X143700000Y-109500000D03*
X142200000Y-109500000D03*
X140700000Y-109500000D03*
X143700000Y-108000000D03*
X142200000Y-108000000D03*
X140700000Y-108000000D03*
X143700000Y-106500000D03*
X142200000Y-106500000D03*
X140700000Y-106500000D03*
D20*
%TO.P,IC1,1*%
%TO.N,/CTS0*%
X139300000Y-106000000D03*
%TO.P,IC1,2*%
%TO.N,/VDD_FILT*%
X139300000Y-106500000D03*
%TO.P,IC1,3*%
%TO.N,/RF_BYP*%
X139300000Y-107000000D03*
%TO.P,IC1,4*%
%TO.N,/RF_EN*%
X139300000Y-107500000D03*
%TO.P,IC1,5*%
%TO.N,Net-(IC1-Pad5)*%
X139300000Y-108000000D03*
%TO.P,IC1,6*%
%TO.N,Net-(IC1-Pad6)*%
X139300000Y-108500000D03*
%TO.P,IC1,7*%
%TO.N,/CTS1*%
X139300000Y-109000000D03*
%TO.P,IC1,8*%
%TO.N,/RTS1*%
X139300000Y-109500000D03*
%TO.P,IC1,9*%
%TO.N,/TX1*%
X139300000Y-110000000D03*
D21*
%TO.P,IC1,10*%
%TO.N,/VDD_FILT*%
X140200000Y-110900000D03*
%TO.P,IC1,11*%
%TO.N,/RX1*%
X140700000Y-110900000D03*
%TO.P,IC1,12*%
%TO.N,/LED1*%
X141200000Y-110900000D03*
%TO.P,IC1,13*%
%TO.N,/LED2*%
X141700000Y-110900000D03*
%TO.P,IC1,14*%
%TO.N,Net-(IC1-Pad14)*%
X142200000Y-110900000D03*
%TO.P,IC1,15*%
%TO.N,/PDIO*%
X142700000Y-110900000D03*
%TO.P,IC1,16*%
%TO.N,/PCLK*%
X143200000Y-110900000D03*
%TO.P,IC1,17*%
%TO.N,Net-(IC1-Pad17)*%
X143700000Y-110900000D03*
%TO.P,IC1,18*%
%TO.N,Net-(IC1-Pad18)*%
X144200000Y-110900000D03*
D20*
%TO.P,IC1,19*%
%TO.N,/VDD_FILT*%
X145100000Y-110000000D03*
%TO.P,IC1,20*%
%TO.N,Net-(IC1-Pad20)*%
X145100000Y-109500000D03*
%TO.P,IC1,21*%
%TO.N,Net-(IC1-Pad21)*%
X145100000Y-109000000D03*
%TO.P,IC1,22*%
%TO.N,/VDD_FILT*%
X145100000Y-108500000D03*
%TO.P,IC1,23*%
%TO.N,Net-(C12-Pad1)*%
X145100000Y-108000000D03*
%TO.P,IC1,24*%
%TO.N,Net-(C11-Pad1)*%
X145100000Y-107500000D03*
%TO.P,IC1,25*%
%TO.N,/VDD_FILT*%
X145100000Y-107000000D03*
%TO.P,IC1,26*%
X145100000Y-106500000D03*
%TO.P,IC1,27*%
%TO.N,Net-(IC1-Pad27)*%
X145100000Y-106000000D03*
D21*
%TO.P,IC1,28*%
%TO.N,/VDD_FILT*%
X144200000Y-105100000D03*
%TO.P,IC1,29*%
X143700000Y-105100000D03*
%TO.P,IC1,30*%
%TO.N,Net-(C4-Pad1)*%
X143200000Y-105100000D03*
%TO.P,IC1,31*%
%TO.N,Net-(C3-Pad1)*%
X142700000Y-105100000D03*
%TO.P,IC1,32*%
%TO.N,/RX_MODE*%
X142200000Y-105100000D03*
%TO.P,IC1,33*%
%TO.N,/TX_MODE*%
X141700000Y-105100000D03*
%TO.P,IC1,34*%
%TO.N,/TX0*%
X141200000Y-105100000D03*
%TO.P,IC1,35*%
%TO.N,/RX0*%
X140700000Y-105100000D03*
%TO.P,IC1,36*%
%TO.N,/RTS0*%
X140200000Y-105100000D03*
D22*
%TO.P,IC1,37*%
%TO.N,GND*%
X142200000Y-108000000D03*
%TD*%
D19*
%TO.P,IC2,13*%
%TO.N,GND*%
X156400000Y-108000000D03*
D23*
%TO.P,IC2,1*%
X155350000Y-107500000D03*
%TO.P,IC2,2*%
%TO.N,Net-(C13-Pad2)*%
X155350000Y-108000000D03*
%TO.P,IC2,3*%
%TO.N,GND*%
X155350000Y-108500000D03*
D24*
%TO.P,IC2,4*%
X155900000Y-109050000D03*
%TO.P,IC2,5*%
%TO.N,Net-(C16-Pad1)*%
X156400000Y-109050000D03*
%TO.P,IC2,6*%
%TO.N,GND*%
X156900000Y-109050000D03*
D23*
%TO.P,IC2,7*%
%TO.N,/RX_MODE*%
X157450000Y-108500000D03*
%TO.P,IC2,8*%
%TO.N,Net-(IC2-Pad8)*%
X157450000Y-108000000D03*
%TO.P,IC2,9*%
%TO.N,/VDD_FILT*%
X157450000Y-107500000D03*
D24*
%TO.P,IC2,10*%
%TO.N,GND*%
X156900000Y-106950000D03*
%TO.P,IC2,11*%
%TO.N,Net-(C15-Pad1)*%
X156400000Y-106950000D03*
%TO.P,IC2,12*%
%TO.N,GND*%
X155900000Y-106950000D03*
D25*
%TO.P,IC2,13*%
X156400000Y-108000000D03*
%TD*%
D19*
%TO.P,IC3,17*%
%TO.N,GND*%
X162000000Y-108000000D03*
D26*
%TO.P,IC3,1*%
X160175000Y-106175000D03*
D27*
%TO.P,IC3,2*%
%TO.N,Net-(C15-Pad2)*%
X160175000Y-107200000D03*
%TO.P,IC3,3*%
%TO.N,GND*%
X160175000Y-108000000D03*
%TO.P,IC3,4*%
%TO.N,Net-(C16-Pad2)*%
X160175000Y-108800000D03*
D26*
%TO.P,IC3,5*%
%TO.N,GND*%
X160175000Y-109825000D03*
D28*
%TO.P,IC3,6*%
%TO.N,/VDD_FILT*%
X161200000Y-109825000D03*
%TO.P,IC3,7*%
%TO.N,GND*%
X162000000Y-109825000D03*
%TO.P,IC3,8*%
X162800000Y-109825000D03*
D26*
%TO.P,IC3,9*%
X163825000Y-109825000D03*
D27*
%TO.P,IC3,10*%
X163825000Y-108800000D03*
%TO.P,IC3,11*%
X163825000Y-108000000D03*
%TO.P,IC3,12*%
%TO.N,Net-(C20-Pad1)*%
X163825000Y-107200000D03*
D26*
%TO.P,IC3,13*%
%TO.N,GND*%
X163825000Y-106175000D03*
D28*
%TO.P,IC3,14*%
%TO.N,/VDD_FILT*%
X162800000Y-106175000D03*
%TO.P,IC3,15*%
%TO.N,/RF_EN*%
X162000000Y-106175000D03*
%TO.P,IC3,16*%
%TO.N,/TX_MODE*%
X161200000Y-106175000D03*
D29*
%TO.P,IC3,17*%
%TO.N,GND*%
X162000000Y-108000000D03*
%TD*%
D10*
%TO.P,J1,16*%
%TO.N,/TX0*%
X174050000Y-88950000D03*
%TO.P,J1,15*%
%TO.N,/RX0*%
X171510000Y-88950000D03*
%TO.P,J1,14*%
%TO.N,/CTS0*%
X168970000Y-88950000D03*
%TO.P,J1,13*%
%TO.N,/RTS0*%
X166430000Y-88950000D03*
%TO.P,J1,12*%
%TO.N,Net-(J1-Pad12)*%
X163890000Y-88950000D03*
%TO.P,J1,11*%
%TO.N,Net-(J1-Pad11)*%
X161350000Y-88950000D03*
%TO.P,J1,10*%
%TO.N,Net-(J1-Pad10)*%
X158810000Y-88950000D03*
%TO.P,J1,9*%
%TO.N,Net-(J1-Pad9)*%
X156270000Y-88950000D03*
%TO.P,J1,8*%
%TO.N,Net-(J1-Pad8)*%
X153730000Y-88950000D03*
%TO.P,J1,7*%
%TO.N,Net-(J1-Pad7)*%
X151190000Y-88950000D03*
%TO.P,J1,6*%
%TO.N,Net-(J1-Pad6)*%
X148650000Y-88950000D03*
%TO.P,J1,5*%
%TO.N,Net-(J1-Pad5)*%
X146110000Y-88950000D03*
%TO.P,J1,4*%
%TO.N,Net-(J1-Pad4)*%
X143570000Y-88950000D03*
%TO.P,J1,3*%
%TO.N,GND*%
X141030000Y-88950000D03*
%TO.P,J1,2*%
%TO.N,Net-(J1-Pad2)*%
X138490000Y-88950000D03*
%TO.P,J1,1*%
%TO.N,Net-(J1-Pad1)*%
X135950000Y-88950000D03*
%TD*%
%TO.P,J2,16*%
%TO.N,/TX1*%
X174050000Y-127050000D03*
%TO.P,J2,15*%
%TO.N,/RX1*%
X171510000Y-127050000D03*
%TO.P,J2,14*%
%TO.N,/CTS1*%
X168970000Y-127050000D03*
%TO.P,J2,13*%
%TO.N,/RTS1*%
X166430000Y-127050000D03*
%TO.P,J2,12*%
%TO.N,Net-(J2-Pad12)*%
X163890000Y-127050000D03*
%TO.P,J2,11*%
%TO.N,Net-(J2-Pad11)*%
X161350000Y-127050000D03*
%TO.P,J2,10*%
%TO.N,Net-(J2-Pad10)*%
X158810000Y-127050000D03*
%TO.P,J2,9*%
%TO.N,Net-(J2-Pad9)*%
X156270000Y-127050000D03*
%TO.P,J2,8*%
%TO.N,Net-(J2-Pad8)*%
X153730000Y-127050000D03*
%TO.P,J2,7*%
%TO.N,/NRST*%
X151190000Y-127050000D03*
%TO.P,J2,6*%
%TO.N,Net-(J2-Pad6)*%
X148650000Y-127050000D03*
%TO.P,J2,5*%
%TO.N,Net-(J2-Pad5)*%
X146110000Y-127050000D03*
%TO.P,J2,4*%
%TO.N,Net-(J2-Pad4)*%
X143570000Y-127050000D03*
%TO.P,J2,3*%
%TO.N,Net-(J2-Pad3)*%
X141030000Y-127050000D03*
%TO.P,J2,2*%
%TO.N,Net-(J2-Pad2)*%
X138490000Y-127050000D03*
%TO.P,J2,1*%
%TO.N,Net-(J2-Pad1)*%
X135950000Y-127050000D03*
%TD*%
%TO.P,J3,4*%
%TO.N,VDD*%
X135950000Y-99110000D03*
%TO.P,J3,3*%
%TO.N,GND*%
X135950000Y-96570000D03*
%TO.P,J3,2*%
%TO.N,/PDIO*%
X135950000Y-94030000D03*
%TO.P,J3,1*%
%TO.N,/PCLK*%
X135950000Y-91490000D03*
%TD*%
%TO.P,J4,4*%
%TO.N,Net-(J4-Pad4)*%
X135950000Y-116890000D03*
%TO.P,J4,3*%
%TO.N,GND*%
X135950000Y-119430000D03*
%TO.P,J4,2*%
%TO.N,Net-(J4-Pad2)*%
X135950000Y-121970000D03*
%TO.P,J4,1*%
%TO.N,Net-(J4-Pad1)*%
X135950000Y-124510000D03*
%TD*%
D30*
%TO.P,J8,1*%
%TO.N,Net-(C23-Pad2)*%
X166800000Y-98725000D03*
D31*
%TO.P,J8,2*%
%TO.N,GND*%
X168275000Y-97200000D03*
D30*
%TO.P,J8,3*%
X166800000Y-95675000D03*
D31*
%TO.P,J8,4*%
X165325000Y-97200000D03*
%TD*%
D32*
%TO.P,J9,1*%
%TO.N,Net-(C26-Pad1)*%
X166800000Y-119430000D03*
%TD*%
D13*
%TO.P,L1,1*%
%TO.N,Net-(C12-Pad1)*%
X150700000Y-108530000D03*
%TO.P,L1,2*%
%TO.N,Net-(C10-Pad1)*%
X150700000Y-109870000D03*
%TD*%
D16*
%TO.P,L2,1*%
%TO.N,Net-(C11-Pad1)*%
X152330000Y-105700000D03*
%TO.P,L2,2*%
%TO.N,Net-(C12-Pad2)*%
X153670000Y-105700000D03*
%TD*%
%TO.P,L3,1*%
%TO.N,Net-(C20-Pad1)*%
X166330000Y-108000000D03*
%TO.P,L3,2*%
%TO.N,Net-(C20-Pad2)*%
X167670000Y-108000000D03*
%TD*%
D13*
%TO.P,L4,1*%
%TO.N,Net-(C24-Pad2)*%
X166800000Y-116220000D03*
%TO.P,L4,2*%
%TO.N,Net-(C26-Pad1)*%
X166800000Y-117560000D03*
%TD*%
D33*
%TO.P,LED1,1*%
%TO.N,GND*%
X140000000Y-119450000D03*
%TO.P,LED1,2*%
%TO.N,Net-(LED1-Pad2)*%
X140000000Y-117950000D03*
%TD*%
%TO.P,LED2,1*%
%TO.N,GND*%
X143400000Y-119450000D03*
%TO.P,LED2,2*%
%TO.N,Net-(LED2-Pad2)*%
X143400000Y-117950000D03*
%TD*%
D34*
%TO.P,R1,1*%
%TO.N,/RF_BYP*%
X136940000Y-106300000D03*
%TO.P,R1,2*%
%TO.N,GND*%
X135340000Y-106300000D03*
%TD*%
%TO.P,R2,1*%
%TO.N,/VDD_FILT*%
X136940000Y-108000000D03*
%TO.P,R2,2*%
%TO.N,/RF_EN*%
X135340000Y-108000000D03*
%TD*%
D35*
%TO.P,R5,1*%
%TO.N,/LED1*%
X139400000Y-113200000D03*
%TO.P,R5,2*%
%TO.N,Net-(LED1-Pad2)*%
X139400000Y-114800000D03*
%TD*%
%TO.P,R6,1*%
%TO.N,/LED2*%
X141300000Y-113200000D03*
%TO.P,R6,2*%
%TO.N,Net-(LED2-Pad2)*%
X141300000Y-114800000D03*
%TD*%
D34*
%TO.P,R3,1*%
%TO.N,/RX_MODE*%
X141000000Y-100800000D03*
%TO.P,R3,2*%
%TO.N,GND*%
X139400000Y-100800000D03*
%TD*%
%TO.P,R4,1*%
%TO.N,/TX_MODE*%
X141000000Y-102500000D03*
%TO.P,R4,2*%
%TO.N,GND*%
X139400000Y-102500000D03*
%TD*%
%TO.P,R8,1*%
%TO.N,/NRST*%
X145100000Y-98300000D03*
%TO.P,R8,2*%
%TO.N,Net-(C3-Pad1)*%
X143500000Y-98300000D03*
%TD*%
D35*
%TO.P,R9,1*%
%TO.N,Net-(IC1-Pad21)*%
X145100000Y-113200000D03*
%TO.P,R9,2*%
%TO.N,Net-(R9-Pad2)*%
X145100000Y-114800000D03*
%TD*%
D34*
%TO.P,R10,1*%
%TO.N,Net-(IC1-Pad27)*%
X147400000Y-102400000D03*
%TO.P,R10,2*%
%TO.N,GND*%
X149000000Y-102400000D03*
%TD*%
%TO.P,R7,1*%
%TO.N,/VDD_FILT*%
X143500000Y-96500000D03*
%TO.P,R7,2*%
%TO.N,/NRST*%
X145100000Y-96500000D03*
%TD*%
D36*
%TO.P,Y1,1*%
%TO.N,Net-(Y1-Pad1)*%
X152100000Y-114650000D03*
%TO.P,Y1,2*%
%TO.N,GND*%
X148100000Y-114650000D03*
%TO.P,Y1,3*%
%TO.N,Net-(R9-Pad2)*%
X148100000Y-117150000D03*
%TO.P,Y1,4*%
%TO.N,/VDD_FILT*%
X152100000Y-117150000D03*
%TD*%
D37*
%TO.N,GND*%
X163000000Y-116000000D03*
X163000000Y-117780000D03*
X164400000Y-97200000D03*
X166800000Y-95000000D03*
X169200000Y-97200000D03*
X166200000Y-111700000D03*
X167800000Y-111700000D03*
X134680000Y-106300000D03*
X134680000Y-110200000D03*
X138550000Y-101650000D03*
X138550000Y-100800000D03*
X145800000Y-99900000D03*
X142650000Y-101300000D03*
X145950000Y-101300000D03*
X149900000Y-102400000D03*
X148870000Y-103600000D03*
X148900000Y-105600000D03*
X148900000Y-109900000D03*
X146700000Y-114650000D03*
X142320000Y-114670000D03*
X140800000Y-119450000D03*
X142600000Y-119450000D03*
X156900000Y-115200000D03*
X150700000Y-104800000D03*
X146700000Y-111000000D03*
X154700000Y-107400000D03*
X154700000Y-108600000D03*
X155800000Y-106300000D03*
X157000000Y-106300000D03*
X155800000Y-109700000D03*
X157000000Y-109700000D03*
X159400000Y-105400000D03*
X164600000Y-105400000D03*
X159400000Y-110600000D03*
X164600000Y-110600000D03*
X159400000Y-108000000D03*
X164600000Y-108000000D03*
X164600000Y-108800000D03*
X162000000Y-110600000D03*
X162800000Y-110600000D03*
X160100000Y-113500000D03*
X163900000Y-113500000D03*
X161000000Y-103800000D03*
%TO.N,/VDD_FILT*%
X137600000Y-108300000D03*
X136840000Y-108900000D03*
X140900000Y-95500000D03*
X143500000Y-95500000D03*
X145950000Y-102700000D03*
X147530000Y-103600000D03*
X147500000Y-105600000D03*
X147500000Y-109900000D03*
X142320000Y-113330000D03*
X156900000Y-116600000D03*
X158100000Y-107400000D03*
X163900000Y-112100000D03*
X163800000Y-103800000D03*
%TO.N,/RTS0*%
X139000000Y-104100000D03*
%TO.N,/RX0*%
X139850000Y-103950000D03*
%TO.N,/TX0*%
X140400000Y-103700000D03*
%TO.N,/TX_MODE*%
X161200000Y-105400000D03*
X141700000Y-104250000D03*
%TO.N,/RX_MODE*%
X142200000Y-103850000D03*
X158100000Y-108600000D03*
%TO.N,/PCLK*%
X143250000Y-111700000D03*
%TO.N,/PDIO*%
X142650000Y-111700000D03*
%TO.N,/RX1*%
X140700000Y-111700000D03*
%TO.N,/TX1*%
X138500000Y-110200000D03*
%TO.N,/RTS1*%
X138500000Y-109600000D03*
%TO.N,/CTS1*%
X138500000Y-109000000D03*
%TO.N,/RF_EN*%
X162000000Y-105400000D03*
X134680000Y-108300000D03*
X138500000Y-107450000D03*
%TO.N,/RF_BYP*%
X137600000Y-106300000D03*
X138500000Y-106850000D03*
%TO.N,/CTS0*%
X138100000Y-105000000D03*
%TO.N,/NRST*%
X134450000Y-107150000D03*
X134200000Y-109600000D03*
X145100000Y-97400000D03*
%TD*%
D38*
%TO.N,GND*%
X147520000Y-111000000D02*
X146700000Y-111000000D01*
X150700000Y-105630000D02*
X150700000Y-104800000D01*
X166200000Y-110870000D02*
X166200000Y-111700000D01*
X167800000Y-110870000D02*
X167800000Y-111700000D01*
X165325000Y-97200000D02*
X164400000Y-97200000D01*
X166800000Y-95675000D02*
X166800000Y-95000000D01*
X168275000Y-97200000D02*
X169200000Y-97200000D01*
X163920000Y-116000000D02*
X163000000Y-116000000D01*
X163920000Y-117780000D02*
X163000000Y-117780000D01*
D39*
X139500000Y-96570000D02*
X135950000Y-96570000D01*
X142320000Y-114670000D02*
X143200000Y-114670000D01*
X156900000Y-115200000D02*
X156000000Y-115200000D01*
X143500000Y-101300000D02*
X142650000Y-101300000D01*
X145950000Y-101300000D02*
X145100000Y-101300000D01*
X148900000Y-105600000D02*
X148900000Y-106500000D01*
X148870000Y-103600000D02*
X148870000Y-104500000D01*
X149900000Y-102400000D02*
X149000000Y-102400000D01*
X148900000Y-109900000D02*
X148900000Y-109000000D01*
X154800000Y-107500000D02*
X154700000Y-107400000D01*
X155350000Y-107500000D02*
X154800000Y-107500000D01*
X154800000Y-108500000D02*
X154700000Y-108600000D01*
X155350000Y-108500000D02*
X154800000Y-108500000D01*
X155900000Y-106400000D02*
X155800000Y-106300000D01*
X155900000Y-106950000D02*
X155900000Y-106400000D01*
X156900000Y-106400000D02*
X157000000Y-106300000D01*
X156900000Y-106950000D02*
X156900000Y-106400000D01*
X155900000Y-109600000D02*
X155800000Y-109700000D01*
X155900000Y-109050000D02*
X155900000Y-109600000D01*
X156900000Y-109600000D02*
X157000000Y-109700000D01*
X156900000Y-109050000D02*
X156900000Y-109600000D01*
X160175000Y-108000000D02*
X159400000Y-108000000D01*
X159400000Y-105400000D02*
X160175000Y-106175000D01*
X159400000Y-110600000D02*
X160175000Y-109825000D01*
X164600000Y-105400000D02*
X163825000Y-106175000D01*
X164600000Y-108000000D02*
X163825000Y-108000000D01*
X164600000Y-108800000D02*
X163825000Y-108800000D01*
X164600000Y-110600000D02*
X163825000Y-109825000D01*
X162000000Y-109825000D02*
X162000000Y-110600000D01*
X162800000Y-109825000D02*
X162800000Y-110600000D01*
X163900000Y-113500000D02*
X162800000Y-113500000D01*
X160100000Y-113500000D02*
X161200000Y-113500000D01*
D40*
X148100000Y-114650000D02*
X146700000Y-114650000D01*
X140800000Y-119450000D02*
X140000000Y-119450000D01*
X145800000Y-99900000D02*
X144970000Y-99900000D01*
X142600000Y-119450000D02*
X143400000Y-119450000D01*
X134680000Y-106300000D02*
X135340000Y-106300000D01*
X139400000Y-100800000D02*
X138550000Y-100800000D01*
X138550000Y-101650000D02*
X139400000Y-102500000D01*
D39*
X161000000Y-103800000D02*
X161700000Y-103800000D01*
X134940000Y-110200000D02*
X135440000Y-109700000D01*
X134680000Y-110200000D02*
X134940000Y-110200000D01*
%TO.N,/VDD_FILT*%
X140900000Y-95500000D02*
X140900000Y-96570000D01*
X140900000Y-99010000D02*
X141000000Y-99110000D01*
X140900000Y-96570000D02*
X140900000Y-99010000D01*
X145100000Y-111430000D02*
X145100000Y-110000000D01*
X143200000Y-113330000D02*
X145100000Y-111430000D01*
X142320000Y-113330000D02*
X143200000Y-113330000D01*
X152650000Y-116600000D02*
X152100000Y-117150000D01*
X156000000Y-116600000D02*
X152650000Y-116600000D01*
X156900000Y-116600000D02*
X156000000Y-116600000D01*
X145950000Y-102700000D02*
X145100000Y-102700000D01*
X143700000Y-105100000D02*
X144200000Y-105100000D01*
X145100000Y-104200000D02*
X144200000Y-105100000D01*
X145100000Y-102700000D02*
X145100000Y-104200000D01*
X147000000Y-107000000D02*
X147500000Y-106500000D01*
X145100000Y-107000000D02*
X147000000Y-107000000D01*
X147500000Y-105600000D02*
X147500000Y-106500000D01*
X147530000Y-103600000D02*
X147530000Y-104500000D01*
X145530000Y-106500000D02*
X147530000Y-104500000D01*
X145100000Y-106500000D02*
X145530000Y-106500000D01*
X147000000Y-108500000D02*
X147500000Y-109000000D01*
X145100000Y-108500000D02*
X147000000Y-108500000D01*
X147500000Y-109900000D02*
X147500000Y-109000000D01*
X158000000Y-107500000D02*
X158100000Y-107400000D01*
X157450000Y-107500000D02*
X158000000Y-107500000D01*
X163900000Y-112100000D02*
X162800000Y-112100000D01*
X161200000Y-112100000D02*
X162800000Y-112100000D01*
X161200000Y-109825000D02*
X161200000Y-112100000D01*
D40*
X143500000Y-95500000D02*
X143500000Y-96500000D01*
D39*
X138040000Y-110900000D02*
X140200000Y-110900000D01*
X136840000Y-109700000D02*
X138040000Y-110900000D01*
X138057201Y-108519457D02*
X136876658Y-109700000D01*
X138057201Y-108080543D02*
X138057201Y-108519457D01*
X137896600Y-107919942D02*
X138057201Y-108080543D01*
X137896600Y-106776742D02*
X137896600Y-107919942D01*
X136876658Y-109700000D02*
X136840000Y-109700000D01*
X138280543Y-106392799D02*
X137896600Y-106776742D01*
X138719457Y-106392799D02*
X138280543Y-106392799D01*
X138826658Y-106500000D02*
X138719457Y-106392799D01*
X139300000Y-106500000D02*
X138826658Y-106500000D01*
X136840000Y-108900000D02*
X136840000Y-109700000D01*
D40*
X137240000Y-108300000D02*
X136940000Y-108000000D01*
X137600000Y-108300000D02*
X137240000Y-108300000D01*
D39*
X162800000Y-104100000D02*
X163100000Y-103800000D01*
X162800000Y-106175000D02*
X162800000Y-104100000D01*
X163800000Y-103800000D02*
X163100000Y-103800000D01*
D40*
%TO.N,Net-(C3-Pad1)*%
X143500000Y-99770000D02*
X143630000Y-99900000D01*
X143500000Y-98300000D02*
X143500000Y-99770000D01*
X143429730Y-99900000D02*
X143630000Y-99900000D01*
X142230899Y-101098831D02*
X143429730Y-99900000D01*
X142230899Y-101501169D02*
X142230899Y-101098831D01*
X142700000Y-101970270D02*
X142230899Y-101501169D01*
X142700000Y-105100000D02*
X142700000Y-101970270D01*
D38*
%TO.N,Net-(C10-Pad1)*%
X149570000Y-111000000D02*
X150700000Y-109870000D01*
X148880000Y-111000000D02*
X149570000Y-111000000D01*
%TO.N,Net-(C11-Pad1)*%
X150170000Y-107500000D02*
X150700000Y-106970000D01*
X145100000Y-107500000D02*
X150170000Y-107500000D01*
X151970000Y-105700000D02*
X150700000Y-106970000D01*
X152330000Y-105700000D02*
X151970000Y-105700000D01*
%TO.N,Net-(C15-Pad1)*%
X156400000Y-105480000D02*
X156400000Y-106950000D01*
X156220000Y-105300000D02*
X156400000Y-105480000D01*
%TO.N,Net-(C15-Pad2)*%
X159480000Y-107200000D02*
X157580000Y-105300000D01*
X160175000Y-107200000D02*
X159480000Y-107200000D01*
%TO.N,Net-(C16-Pad2)*%
X159480000Y-108800000D02*
X157580000Y-110700000D01*
X160175000Y-108800000D02*
X159480000Y-108800000D01*
%TO.N,Net-(C16-Pad1)*%
X156400000Y-110520000D02*
X156400000Y-109050000D01*
X156220000Y-110700000D02*
X156400000Y-110520000D01*
%TO.N,Net-(C20-Pad2)*%
X167670000Y-106400000D02*
X167670000Y-108000000D01*
X167670000Y-109400000D02*
X167800000Y-109530000D01*
X167670000Y-108000000D02*
X167670000Y-109400000D01*
X169676400Y-108000000D02*
X169700000Y-108023600D01*
X167670000Y-108000000D02*
X169676400Y-108000000D01*
X169700000Y-108023600D02*
X169700000Y-109520000D01*
X169700000Y-106480000D02*
X169700000Y-108023600D01*
%TO.N,Net-(C23-Pad2)*%
X169700000Y-101625000D02*
X166800000Y-98725000D01*
X169700000Y-105120000D02*
X169700000Y-101625000D01*
%TO.N,Net-(C24-Pad2)*%
X169700000Y-113320000D02*
X166800000Y-116220000D01*
X169700000Y-110880000D02*
X169700000Y-113320000D01*
X165500000Y-116220000D02*
X165280000Y-116000000D01*
X166800000Y-116220000D02*
X165500000Y-116220000D01*
D39*
%TO.N,VDD*%
X139400000Y-99110000D02*
X135950000Y-99110000D01*
D40*
%TO.N,/RTS0*%
X140000000Y-105100000D02*
X139000000Y-104100000D01*
X140200000Y-105100000D02*
X140000000Y-105100000D01*
%TO.N,/RX0*%
X140700000Y-104800000D02*
X139850000Y-103950000D01*
X140700000Y-105100000D02*
X140700000Y-104800000D01*
%TO.N,/TX0*%
X141200000Y-104500000D02*
X141200000Y-105100000D01*
X140400000Y-103700000D02*
X141200000Y-104500000D01*
%TO.N,/TX_MODE*%
X161200000Y-105400000D02*
X161200000Y-106175000D01*
X141700000Y-105100000D02*
X141700000Y-104250000D01*
X141000000Y-103550000D02*
X141700000Y-104250000D01*
X141000000Y-102500000D02*
X141000000Y-103550000D01*
%TO.N,/RX_MODE*%
X158000000Y-108500000D02*
X158100000Y-108600000D01*
X157450000Y-108500000D02*
X158000000Y-108500000D01*
X141000000Y-100800000D02*
X142200000Y-102000000D01*
X142200000Y-103850000D02*
X142200000Y-105100000D01*
X142200000Y-103850000D02*
X142200000Y-102000000D01*
D39*
%TO.N,Net-(IC1-Pad27)*%
X145100000Y-104700000D02*
X145100000Y-106000000D01*
X147400000Y-102400000D02*
X145100000Y-104700000D01*
D40*
%TO.N,Net-(IC1-Pad21)*%
X145677000Y-109000000D02*
X145897600Y-109220600D01*
X145100000Y-109000000D02*
X145677000Y-109000000D01*
X145897600Y-112402400D02*
X145100000Y-113200000D01*
X145897600Y-109220600D02*
X145897600Y-112402400D01*
%TO.N,/PCLK*%
X143200000Y-111650000D02*
X143250000Y-111700000D01*
X143200000Y-110900000D02*
X143200000Y-111650000D01*
%TO.N,/PDIO*%
X142700000Y-111650000D02*
X142650000Y-111700000D01*
X142700000Y-110900000D02*
X142700000Y-111650000D01*
%TO.N,/LED2*%
X141700000Y-112800000D02*
X141300000Y-113200000D01*
X141700000Y-110900000D02*
X141700000Y-112800000D01*
%TO.N,/LED1*%
X140057098Y-113200000D02*
X139400000Y-113200000D01*
X141200000Y-112057098D02*
X140057098Y-113200000D01*
X141200000Y-110900000D02*
X141200000Y-112057098D01*
%TO.N,/RX1*%
X140700000Y-111700000D02*
X140700000Y-110900000D01*
%TO.N,/TX1*%
X138700000Y-110000000D02*
X138500000Y-110200000D01*
X139300000Y-110000000D02*
X138700000Y-110000000D01*
%TO.N,/RTS1*%
X138600000Y-109500000D02*
X138500000Y-109600000D01*
X139300000Y-109500000D02*
X138600000Y-109500000D01*
%TO.N,/CTS1*%
X139300000Y-109000000D02*
X138500000Y-109000000D01*
%TO.N,/RF_EN*%
X162000000Y-105400000D02*
X162000000Y-106175000D01*
X135040000Y-108300000D02*
X135340000Y-108000000D01*
X134680000Y-108300000D02*
X135040000Y-108300000D01*
X138550000Y-107500000D02*
X138500000Y-107450000D01*
X139300000Y-107500000D02*
X138550000Y-107500000D01*
%TO.N,/RF_BYP*%
X137600000Y-106300000D02*
X136940000Y-106300000D01*
X138650000Y-107000000D02*
X138500000Y-106850000D01*
X139300000Y-107000000D02*
X138650000Y-107000000D01*
%TO.N,/CTS0*%
X139100000Y-106000000D02*
X139300000Y-106000000D01*
X138100000Y-105000000D02*
X139100000Y-106000000D01*
%TO.N,/NRST*%
X145100000Y-98300000D02*
X145100000Y-97400000D01*
X145100000Y-96500000D02*
X145100000Y-97400000D01*
X134200000Y-107400000D02*
X134200000Y-109600000D01*
X134450000Y-107150000D02*
X134200000Y-107400000D01*
%TO.N,Net-(LED1-Pad2)*%
X139400000Y-117350000D02*
X140000000Y-117950000D01*
X139400000Y-114800000D02*
X139400000Y-117350000D01*
%TO.N,Net-(LED2-Pad2)*%
X141300000Y-115850000D02*
X143400000Y-117950000D01*
X141300000Y-114800000D02*
X141300000Y-115850000D01*
D39*
%TO.N,Net-(C4-Pad1)*%
X143200000Y-103000000D02*
X143500000Y-102700000D01*
X143200000Y-105100000D02*
X143200000Y-103000000D01*
D38*
%TO.N,Net-(C12-Pad1)*%
X150170000Y-108000000D02*
X150700000Y-108530000D01*
X145100000Y-108000000D02*
X150170000Y-108000000D01*
X151970000Y-109800000D02*
X150700000Y-108530000D01*
X152330000Y-109800000D02*
X151970000Y-109800000D01*
%TO.N,Net-(C12-Pad2)*%
X152320000Y-107050000D02*
X153670000Y-105700000D01*
X152320000Y-107750000D02*
X152320000Y-107050000D01*
X152320000Y-108450000D02*
X153670000Y-109800000D01*
X152320000Y-107750000D02*
X152320000Y-108450000D01*
%TO.N,Net-(C13-Pad2)*%
X153930000Y-108000000D02*
X155350000Y-108000000D01*
X153680000Y-107750000D02*
X153930000Y-108000000D01*
%TO.N,Net-(C20-Pad1)*%
X165530000Y-107200000D02*
X166330000Y-106400000D01*
X165530000Y-107200000D02*
X166330000Y-108000000D01*
X163825000Y-107200000D02*
X165530000Y-107200000D01*
X166330000Y-109400000D02*
X166200000Y-109530000D01*
X166330000Y-108000000D02*
X166330000Y-109400000D01*
D40*
%TO.N,Net-(R9-Pad2)*%
X147450000Y-117150000D02*
X145100000Y-114800000D01*
X148100000Y-117150000D02*
X147450000Y-117150000D01*
D38*
%TO.N,Net-(C26-Pad1)*%
X165500000Y-117560000D02*
X165280000Y-117780000D01*
X166800000Y-117560000D02*
X165500000Y-117560000D01*
X166800000Y-117560000D02*
X166800000Y-119430000D01*
%TD*%
M02*
