%TF.GenerationSoftware,KiCad,Pcbnew,5.1.10-88a1d61d58~90~ubuntu20.04.1*%
%TF.CreationDate,2022-01-10T11:58:02-05:00*%
%TF.ProjectId,ta-comm-401,74612d63-6f6d-46d2-9d34-30312e6b6963,rev?*%
%TF.SameCoordinates,Original*%
%TF.FileFunction,Paste,Top*%
%TF.FilePolarity,Positive*%
%FSLAX46Y46*%
G04 Gerber Fmt 4.6, Leading zero omitted, Abs format (unit mm)*
G04 Created by KiCad (PCBNEW 5.1.10-88a1d61d58~90~ubuntu20.04.1) date 2022-01-10 11:58:02*
%MOMM*%
%LPD*%
G01*
G04 APERTURE LIST*
%ADD10C,0.500000*%
%ADD11C,0.025000*%
%ADD12R,0.780000X0.990000*%
%ADD13R,0.940000X0.800000*%
%ADD14R,0.830000X0.960000*%
%ADD15R,0.990000X0.780000*%
%ADD16R,0.800000X0.940000*%
%ADD17R,0.960000X0.830000*%
%ADD18R,0.950000X1.000000*%
%ADD19R,0.760000X0.260000*%
%ADD20R,0.260000X0.760000*%
%ADD21R,0.750000X0.750000*%
%ADD22R,0.750000X0.500000*%
%ADD23R,0.500000X0.750000*%
%ADD24R,1.400000X0.600000*%
%ADD25R,1.050000X2.200000*%
%ADD26R,0.800000X0.800000*%
%ADD27R,0.800000X1.000000*%
%ADD28R,1.000000X0.800000*%
%ADD29R,1.600000X1.300000*%
G04 APERTURE END LIST*
D10*
%TO.C,IC1*%
X140699000Y-107250000D02*
X140701000Y-107250000D01*
X141449000Y-107250000D02*
X141451000Y-107250000D01*
X142199000Y-107250000D02*
X142201000Y-107250000D01*
X142949000Y-107250000D02*
X142951000Y-107250000D01*
X143699000Y-107250000D02*
X143701000Y-107250000D01*
X141449000Y-106500000D02*
X141451000Y-106500000D01*
X142949000Y-106500000D02*
X142951000Y-106500000D01*
X140699000Y-108750000D02*
X140701000Y-108750000D01*
X141449000Y-108750000D02*
X141451000Y-108750000D01*
X142949000Y-108750000D02*
X142951000Y-108750000D01*
X142199000Y-108750000D02*
X142201000Y-108750000D01*
X143699000Y-108750000D02*
X143701000Y-108750000D01*
X141449000Y-108000000D02*
X141451000Y-108000000D01*
X141449000Y-109500000D02*
X141451000Y-109500000D01*
X142949000Y-108000000D02*
X142951000Y-108000000D01*
X142949000Y-109500000D02*
X142951000Y-109500000D01*
D11*
%TO.C,IC2*%
G36*
X156425000Y-107425000D02*
G01*
X156975000Y-107425000D01*
X156975000Y-107975000D01*
X156425000Y-107425000D01*
G37*
X156425000Y-107425000D02*
X156975000Y-107425000D01*
X156975000Y-107975000D01*
X156425000Y-107425000D01*
G36*
X156975000Y-108025000D02*
G01*
X156975000Y-108575000D01*
X156425000Y-108575000D01*
X156975000Y-108025000D01*
G37*
X156975000Y-108025000D02*
X156975000Y-108575000D01*
X156425000Y-108575000D01*
X156975000Y-108025000D01*
G36*
X156375000Y-108575000D02*
G01*
X155825000Y-108575000D01*
X155825000Y-108025000D01*
X156375000Y-108575000D01*
G37*
X156375000Y-108575000D02*
X155825000Y-108575000D01*
X155825000Y-108025000D01*
X156375000Y-108575000D01*
G36*
X157167000Y-108375000D02*
G01*
X157750000Y-108375000D01*
X157750000Y-108625000D01*
X157317000Y-108625000D01*
X157167000Y-108375000D01*
G37*
X157167000Y-108375000D02*
X157750000Y-108375000D01*
X157750000Y-108625000D01*
X157317000Y-108625000D01*
X157167000Y-108375000D01*
G36*
X157750000Y-107875000D02*
G01*
X157170000Y-107875000D01*
X157170000Y-108125000D01*
X157750000Y-108125000D01*
X157750000Y-107875000D01*
G37*
X157750000Y-107875000D02*
X157170000Y-107875000D01*
X157170000Y-108125000D01*
X157750000Y-108125000D01*
X157750000Y-107875000D01*
G36*
X157167000Y-107625000D02*
G01*
X157750000Y-107625000D01*
X157750000Y-107375000D01*
X157317000Y-107375000D01*
X157167000Y-107625000D01*
G37*
X157167000Y-107625000D02*
X157750000Y-107625000D01*
X157750000Y-107375000D01*
X157317000Y-107375000D01*
X157167000Y-107625000D01*
G36*
X156775000Y-108775000D02*
G01*
X156775000Y-109358000D01*
X157025000Y-109358000D01*
X157025000Y-108925000D01*
X156775000Y-108775000D01*
G37*
X156775000Y-108775000D02*
X156775000Y-109358000D01*
X157025000Y-109358000D01*
X157025000Y-108925000D01*
X156775000Y-108775000D01*
G36*
X156525000Y-109355000D02*
G01*
X156525000Y-108775000D01*
X156275000Y-108775000D01*
X156275000Y-109355000D01*
X156525000Y-109355000D01*
G37*
X156525000Y-109355000D02*
X156525000Y-108775000D01*
X156275000Y-108775000D01*
X156275000Y-109355000D01*
X156525000Y-109355000D01*
G36*
X156025000Y-108775000D02*
G01*
X156025000Y-109358000D01*
X155775000Y-109358000D01*
X155775000Y-108925000D01*
X156025000Y-108775000D01*
G37*
X156025000Y-108775000D02*
X156025000Y-109358000D01*
X155775000Y-109358000D01*
X155775000Y-108925000D01*
X156025000Y-108775000D01*
G36*
X156775000Y-107233000D02*
G01*
X156775000Y-106650000D01*
X157025000Y-106650000D01*
X157025000Y-107083000D01*
X156775000Y-107233000D01*
G37*
X156775000Y-107233000D02*
X156775000Y-106650000D01*
X157025000Y-106650000D01*
X157025000Y-107083000D01*
X156775000Y-107233000D01*
G36*
X156525000Y-107230000D02*
G01*
X156525000Y-106650000D01*
X156275000Y-106650000D01*
X156275000Y-107230000D01*
X156525000Y-107230000D01*
G37*
X156525000Y-107230000D02*
X156525000Y-106650000D01*
X156275000Y-106650000D01*
X156275000Y-107230000D01*
X156525000Y-107230000D01*
G36*
X156025000Y-107233000D02*
G01*
X156025000Y-106650000D01*
X155775000Y-106650000D01*
X155775000Y-107083000D01*
X156025000Y-107233000D01*
G37*
X156025000Y-107233000D02*
X156025000Y-106650000D01*
X155775000Y-106650000D01*
X155775000Y-107083000D01*
X156025000Y-107233000D01*
G36*
X155633000Y-108375000D02*
G01*
X155050000Y-108375000D01*
X155050000Y-108625000D01*
X155483000Y-108625000D01*
X155633000Y-108375000D01*
G37*
X155633000Y-108375000D02*
X155050000Y-108375000D01*
X155050000Y-108625000D01*
X155483000Y-108625000D01*
X155633000Y-108375000D01*
G36*
X155630000Y-107875000D02*
G01*
X155050000Y-107875000D01*
X155050000Y-108125000D01*
X155630000Y-108125000D01*
X155630000Y-107875000D01*
G37*
X155630000Y-107875000D02*
X155050000Y-107875000D01*
X155050000Y-108125000D01*
X155630000Y-108125000D01*
X155630000Y-107875000D01*
G36*
X155633000Y-107625000D02*
G01*
X155050000Y-107625000D01*
X155050000Y-107375000D01*
X155483000Y-107375000D01*
X155633000Y-107625000D01*
G37*
X155633000Y-107625000D02*
X155050000Y-107625000D01*
X155050000Y-107375000D01*
X155483000Y-107375000D01*
X155633000Y-107625000D01*
D10*
%TO.C,IC3*%
X162599000Y-107400000D02*
X162601000Y-107400000D01*
X161399000Y-108600000D02*
X161400000Y-108596900D01*
X162599000Y-108600000D02*
X162601000Y-108600000D01*
%TD*%
D12*
%TO.C,C17*%
X163100000Y-103800000D03*
X161700000Y-103800000D03*
%TD*%
D13*
%TO.C,C21*%
X166200000Y-109530000D03*
X166200000Y-110870000D03*
%TD*%
D14*
%TO.C,C13*%
X152320000Y-107750000D03*
X153680000Y-107750000D03*
%TD*%
D12*
%TO.C,C2*%
X140900000Y-96570000D03*
X139500000Y-96570000D03*
%TD*%
D15*
%TO.C,C14*%
X156000000Y-116600000D03*
X156000000Y-115200000D03*
%TD*%
D14*
%TO.C,C10*%
X148880000Y-111000000D03*
X147520000Y-111000000D03*
%TD*%
D16*
%TO.C,C12*%
X152330000Y-109800000D03*
X153670000Y-109800000D03*
%TD*%
D13*
%TO.C,C11*%
X150700000Y-106970000D03*
X150700000Y-105630000D03*
%TD*%
D12*
%TO.C,C8*%
X147500000Y-106500000D03*
X148900000Y-106500000D03*
%TD*%
D13*
%TO.C,C6*%
X143200000Y-113330000D03*
X143200000Y-114670000D03*
%TD*%
D15*
%TO.C,C4*%
X143500000Y-102700000D03*
X143500000Y-101300000D03*
%TD*%
D16*
%TO.C,C3*%
X143630000Y-99900000D03*
X144970000Y-99900000D03*
%TD*%
D12*
%TO.C,C1*%
X136840000Y-109700000D03*
X135440000Y-109700000D03*
%TD*%
D15*
%TO.C,C5*%
X145100000Y-102700000D03*
X145100000Y-101300000D03*
%TD*%
D16*
%TO.C,C7*%
X147530000Y-104500000D03*
X148870000Y-104500000D03*
%TD*%
D12*
%TO.C,C9*%
X147500000Y-109000000D03*
X148900000Y-109000000D03*
%TD*%
D14*
%TO.C,C15*%
X156220000Y-105300000D03*
X157580000Y-105300000D03*
%TD*%
%TO.C,C16*%
X156220000Y-110700000D03*
X157580000Y-110700000D03*
%TD*%
D15*
%TO.C,C19*%
X162800000Y-112100000D03*
X162800000Y-113500000D03*
%TD*%
%TO.C,C18*%
X161200000Y-112100000D03*
X161200000Y-113500000D03*
%TD*%
D16*
%TO.C,C20*%
X166330000Y-106400000D03*
X167670000Y-106400000D03*
%TD*%
D13*
%TO.C,C22*%
X167800000Y-109530000D03*
X167800000Y-110870000D03*
%TD*%
D17*
%TO.C,C23*%
X169700000Y-106480000D03*
X169700000Y-105120000D03*
%TD*%
%TO.C,C24*%
X169700000Y-109520000D03*
X169700000Y-110880000D03*
%TD*%
D14*
%TO.C,C25*%
X165280000Y-116000000D03*
X163920000Y-116000000D03*
%TD*%
%TO.C,C26*%
X165280000Y-117780000D03*
X163920000Y-117780000D03*
%TD*%
D18*
%TO.C,FB1*%
X139400000Y-99110000D03*
X141000000Y-99110000D03*
%TD*%
D19*
%TO.C,IC1*%
X139300000Y-106000000D03*
X139300000Y-106500000D03*
X139300000Y-107000000D03*
X139300000Y-107500000D03*
X139300000Y-108000000D03*
X139300000Y-108500000D03*
X139300000Y-109000000D03*
X139300000Y-109500000D03*
X139300000Y-110000000D03*
D20*
X140200000Y-110900000D03*
X140700000Y-110900000D03*
X141200000Y-110900000D03*
X141700000Y-110900000D03*
X142200000Y-110900000D03*
X142700000Y-110900000D03*
X143200000Y-110900000D03*
X143700000Y-110900000D03*
X144200000Y-110900000D03*
D19*
X145100000Y-110000000D03*
X145100000Y-109500000D03*
X145100000Y-109000000D03*
X145100000Y-108500000D03*
X145100000Y-108000000D03*
X145100000Y-107500000D03*
X145100000Y-107000000D03*
X145100000Y-106500000D03*
X145100000Y-106000000D03*
D20*
X144200000Y-105100000D03*
X143700000Y-105100000D03*
X143200000Y-105100000D03*
X142700000Y-105100000D03*
X142200000Y-105100000D03*
X141700000Y-105100000D03*
X141200000Y-105100000D03*
X140700000Y-105100000D03*
X140200000Y-105100000D03*
%TD*%
D21*
%TO.C,IC3*%
X160175000Y-106175000D03*
D22*
X160175000Y-107200000D03*
X160175000Y-108000000D03*
X160175000Y-108800000D03*
D21*
X160175000Y-109825000D03*
D23*
X161200000Y-109825000D03*
X162000000Y-109825000D03*
X162800000Y-109825000D03*
D21*
X163825000Y-109825000D03*
D22*
X163825000Y-108800000D03*
X163825000Y-108000000D03*
X163825000Y-107200000D03*
D21*
X163825000Y-106175000D03*
D23*
X162800000Y-106175000D03*
X162000000Y-106175000D03*
X161200000Y-106175000D03*
%TD*%
D24*
%TO.C,J8*%
X166800000Y-98725000D03*
D25*
X168275000Y-97200000D03*
D24*
X166800000Y-95675000D03*
D25*
X165325000Y-97200000D03*
%TD*%
D13*
%TO.C,L1*%
X150700000Y-108530000D03*
X150700000Y-109870000D03*
%TD*%
D16*
%TO.C,L2*%
X152330000Y-105700000D03*
X153670000Y-105700000D03*
%TD*%
%TO.C,L3*%
X166330000Y-108000000D03*
X167670000Y-108000000D03*
%TD*%
D13*
%TO.C,L4*%
X166800000Y-116220000D03*
X166800000Y-117560000D03*
%TD*%
D26*
%TO.C,LED1*%
X140000000Y-119450000D03*
X140000000Y-117950000D03*
%TD*%
%TO.C,LED2*%
X143400000Y-119450000D03*
X143400000Y-117950000D03*
%TD*%
D27*
%TO.C,R1*%
X136940000Y-106300000D03*
X135340000Y-106300000D03*
%TD*%
%TO.C,R2*%
X136940000Y-108000000D03*
X135340000Y-108000000D03*
%TD*%
D28*
%TO.C,R5*%
X139400000Y-113200000D03*
X139400000Y-114800000D03*
%TD*%
%TO.C,R6*%
X141300000Y-113200000D03*
X141300000Y-114800000D03*
%TD*%
D27*
%TO.C,R3*%
X141000000Y-100800000D03*
X139400000Y-100800000D03*
%TD*%
%TO.C,R4*%
X141000000Y-102500000D03*
X139400000Y-102500000D03*
%TD*%
%TO.C,R8*%
X145100000Y-98300000D03*
X143500000Y-98300000D03*
%TD*%
D28*
%TO.C,R9*%
X145100000Y-113200000D03*
X145100000Y-114800000D03*
%TD*%
D27*
%TO.C,R10*%
X147400000Y-102400000D03*
X149000000Y-102400000D03*
%TD*%
%TO.C,R7*%
X143500000Y-96500000D03*
X145100000Y-96500000D03*
%TD*%
D29*
%TO.C,Y1*%
X152100000Y-114650000D03*
X148100000Y-114650000D03*
X148100000Y-117150000D03*
X152100000Y-117150000D03*
%TD*%
M02*
